<svg width="439" height="75" viewBox="0 0 439 75" fill="none" xmlns="http://www.w3.org/2000/svg">
<path d="M435.144 74.0355L290.924 68.0655L147.154 74.0655L3.85379 68.1055L0.383789 48.5055L6.38379 25.9355L2.92379 0.405488L147.144 6.37549L290.914 0.375488L434.214 6.33549L437.684 25.9355L431.684 48.5255L435.144 74.0355Z" fill="#7C797C" stroke="#E6EDEA" stroke-width="0.75" stroke-miterlimit="10"/>
<path d="M102.028 31.7955C101.673 31.3288 101.44 30.8248 101.328 30.2835C101.234 29.7235 101.272 29.1542 101.44 28.5755C101.608 27.9968 101.925 27.4275 102.392 26.8675C102.858 26.2888 103.484 25.7288 104.268 25.1875C104.958 24.7022 105.64 24.3848 106.312 24.2355C106.984 24.0675 107.618 24.0302 108.216 24.1235C108.813 24.2168 109.364 24.4315 109.868 24.7675C110.372 25.1035 110.81 25.5235 111.184 26.0275C111.576 26.5688 111.809 27.1382 111.884 27.7355C111.977 28.3142 111.921 28.8928 111.716 29.4715C111.51 30.0502 111.174 30.6102 110.708 31.1515C110.241 31.6928 109.653 32.1875 108.944 32.6355C108.552 32.8782 108.169 33.0835 107.796 33.2515C107.87 33.4008 107.908 33.5408 107.908 33.6715V35.6875C107.908 36.1168 107.796 36.4435 107.572 36.6675C107.478 36.7608 107.385 36.8542 107.292 36.9475C107.198 37.0408 107.077 37.1435 106.928 37.2555H116.756C117.129 37.2555 117.316 37.3488 117.316 37.5355C117.316 37.7035 117.138 37.8995 116.784 38.1235C116.522 38.2915 116.27 38.4688 116.028 38.6555C115.804 38.8422 115.589 39.0382 115.384 39.2435C115.122 39.5048 114.656 39.6355 113.984 39.6355H95.7838C95.6158 39.6355 95.4758 39.6075 95.3638 39.5515C95.2518 39.4955 95.1958 39.4208 95.1958 39.3275C95.1958 39.2342 95.2705 39.1408 95.4198 39.0475C95.5691 38.9355 95.7185 38.8328 95.8678 38.7395C96.0171 38.6462 96.2038 38.5062 96.4278 38.3195C96.6518 38.1328 96.8665 37.9462 97.0718 37.7595C97.4265 37.4235 97.9958 37.2555 98.7798 37.2555H104.884V35.4915C104.884 35.0622 104.996 34.7355 105.22 34.5115C105.444 34.2875 105.752 34.0075 106.144 33.6715C105.304 33.7462 104.529 33.6248 103.82 33.3075C103.129 32.9902 102.532 32.4862 102.028 31.7955ZM104.884 30.0595C105.164 30.3955 105.49 30.6662 105.864 30.8715C106.237 31.0768 106.601 31.2262 106.956 31.3195C107.329 31.4128 107.665 31.4595 107.964 31.4595C108.262 31.4408 108.468 31.3848 108.58 31.2915C108.692 31.2168 108.794 31.0488 108.888 30.7875C108.981 30.5262 109.028 30.2182 109.028 29.8635C109.046 29.4902 109 29.1075 108.888 28.7155C108.776 28.3048 108.58 27.9222 108.3 27.5675C108.001 27.2315 107.656 26.9608 107.264 26.7555C106.872 26.5315 106.48 26.3728 106.088 26.2795C105.714 26.1862 105.369 26.1395 105.052 26.1395C104.734 26.1395 104.52 26.1768 104.408 26.2515C104.296 26.3448 104.202 26.5315 104.128 26.8115C104.053 27.0728 104.025 27.3902 104.044 27.7635C104.062 28.1182 104.137 28.5008 104.268 28.9115C104.398 29.3222 104.604 29.7048 104.884 30.0595ZM126.175 30.1435C126.305 30.0502 126.436 29.9475 126.567 29.8355C126.697 29.7235 126.856 29.6115 127.043 29.4995C127.285 29.3315 127.509 29.1635 127.715 28.9955C127.939 28.8088 128.088 28.6968 128.163 28.6595C128.275 28.5662 128.443 28.5008 128.667 28.4635C128.891 28.4075 129.105 28.3795 129.311 28.3795H133.707C133.763 28.2302 133.809 28.0715 133.847 27.9035C133.884 27.7168 133.921 27.5115 133.959 27.2875C133.996 27.0262 134.005 26.7835 133.987 26.5595C133.987 26.3355 133.921 26.1302 133.791 25.9435C133.66 25.7568 133.427 25.6635 133.091 25.6635C132.755 25.6635 132.465 25.6728 132.223 25.6915C131.961 25.7102 131.681 25.7288 131.383 25.7475C131.103 25.7662 130.729 25.7848 130.263 25.8035C129.983 25.8035 129.675 25.8035 129.339 25.8035C129.003 25.8035 128.676 25.7942 128.359 25.7755C128.041 25.7568 127.743 25.7288 127.463 25.6915C127.183 25.6355 126.949 25.5795 126.763 25.5235C126.501 25.4302 126.389 25.2902 126.427 25.1035C126.483 24.8982 126.697 24.6928 127.071 24.4875C127.276 24.3755 127.5 24.2355 127.743 24.0675C128.004 23.8995 128.228 23.7408 128.415 23.5915C128.62 23.4422 128.816 23.3395 129.003 23.2835C129.208 23.2275 129.488 23.2275 129.843 23.2835C130.085 23.3208 130.375 23.3582 130.711 23.3955C131.065 23.4142 131.495 23.4142 131.999 23.3955C132.279 23.3768 132.624 23.3488 133.035 23.3115C133.445 23.2742 133.893 23.2368 134.379 23.1995C134.509 23.1995 134.668 23.2088 134.855 23.2275C135.041 23.2462 135.228 23.2835 135.415 23.3395C135.62 23.3955 135.807 23.4608 135.975 23.5355C136.143 23.5915 136.273 23.6568 136.367 23.7315C136.684 24.0115 136.871 24.3942 136.927 24.8795C137.001 25.3462 136.964 25.8688 136.815 26.4475C136.721 26.7835 136.6 27.1102 136.451 27.4275C136.301 27.7448 136.096 28.0622 135.835 28.3795H136.535C136.628 28.3795 136.74 28.3888 136.871 28.4075C137.02 28.4262 137.123 28.4635 137.179 28.5195C137.253 28.5942 137.291 28.6595 137.291 28.7155C137.291 28.7528 137.235 28.8275 137.123 28.9395C137.067 28.9955 136.945 29.1075 136.759 29.2755C136.572 29.4248 136.367 29.5835 136.143 29.7515C135.937 29.9195 135.741 30.0782 135.555 30.2275C135.368 30.3768 135.237 30.4702 135.163 30.5075C135.013 30.6008 134.873 30.6662 134.743 30.7035C134.631 30.7408 134.444 30.7595 134.183 30.7595H130.291C130.589 31.2448 130.897 31.6648 131.215 32.0195C131.532 32.3742 131.98 32.6635 132.559 32.8875C133.081 33.0928 133.669 33.1675 134.323 33.1115C134.976 33.0555 135.741 32.7288 136.619 32.1315C136.899 31.9635 137.095 31.9355 137.207 32.0475C137.281 32.1035 137.3 32.1968 137.263 32.3275C137.225 32.4395 137.151 32.5608 137.039 32.6915C135.844 33.9795 134.677 34.7542 133.539 35.0155C132.419 35.2582 131.383 35.1648 130.431 34.7355C129.833 34.4555 129.292 34.0635 128.807 33.5595C128.321 33.0555 127.911 32.5048 127.575 31.9075C127.369 31.5342 127.201 31.3008 127.071 31.2075C126.94 31.0955 126.772 31.0488 126.567 31.0675C126.231 31.1048 126.007 31.0488 125.895 30.8995C125.839 30.7875 125.839 30.6568 125.895 30.5075C125.951 30.3582 126.044 30.2368 126.175 30.1435ZM141.967 37.2555C142.34 37.2555 142.527 37.3488 142.527 37.5355C142.527 37.7035 142.349 37.8995 141.995 38.1235C141.733 38.2915 141.481 38.4688 141.239 38.6555C141.015 38.8422 140.8 39.0382 140.595 39.2435C140.333 39.5048 139.867 39.6355 139.195 39.6355H120.995C120.827 39.6355 120.687 39.6075 120.575 39.5515C120.463 39.4955 120.407 39.4208 120.407 39.3275C120.407 39.2342 120.481 39.1408 120.631 39.0475C120.78 38.9355 120.929 38.8328 121.079 38.7395C121.228 38.6462 121.415 38.5062 121.639 38.3195C121.863 38.1328 122.077 37.9462 122.283 37.7595C122.637 37.4235 123.207 37.2555 123.991 37.2555H141.967ZM151.554 48.2315C151.554 48.1942 151.572 48.1755 151.61 48.1755V48.1475C151.628 48.1475 151.638 48.1382 151.638 48.1195C151.768 48.0075 151.899 47.8955 152.03 47.7835C152.16 47.6902 152.319 47.5968 152.506 47.5035C152.748 47.3168 152.982 47.1302 153.206 46.9435C153.448 46.7568 153.607 46.6448 153.682 46.6075C153.794 46.5142 153.962 46.4395 154.186 46.3835C154.41 46.3462 154.624 46.3275 154.83 46.3275H159.17C159.356 45.8048 159.468 45.3662 159.506 45.0115C159.524 44.8622 159.515 44.7222 159.478 44.5915C159.459 44.4422 159.403 44.3208 159.31 44.2275C159.16 44.0782 158.918 43.9942 158.582 43.9755C158.264 43.9568 157.984 43.9568 157.742 43.9755C157.48 43.9942 157.2 44.0128 156.902 44.0315C156.622 44.0502 156.248 44.0688 155.782 44.0875C155.502 44.0875 155.194 44.0875 154.858 44.0875C154.522 44.0875 154.195 44.0782 153.878 44.0595C153.56 44.0408 153.262 44.0128 152.982 43.9755C152.702 43.9195 152.468 43.8635 152.282 43.8075C152.02 43.7142 151.908 43.5742 151.946 43.3875C152.002 43.1822 152.216 42.9768 152.59 42.7715C152.795 42.6595 153.019 42.5195 153.262 42.3515C153.523 42.1835 153.747 42.0248 153.934 41.8755C154.139 41.7262 154.335 41.6235 154.522 41.5675C154.727 41.5115 155.007 41.5115 155.362 41.5675C155.604 41.6048 155.894 41.6422 156.23 41.6795C156.584 41.6982 157.014 41.6982 157.518 41.6795C157.798 41.6608 158.143 41.6328 158.554 41.5955C158.964 41.5582 159.412 41.5208 159.898 41.4835C160.327 41.4462 160.719 41.4928 161.074 41.6235C161.428 41.7355 161.699 41.8662 161.886 42.0155C162.203 42.2955 162.39 42.5848 162.446 42.8835C162.52 43.1635 162.483 43.5928 162.334 44.1715C162.24 44.5448 162.1 44.9088 161.914 45.2635C161.746 45.5995 161.503 45.9542 161.186 46.3275H162.054C162.147 46.3275 162.259 46.3368 162.39 46.3555C162.539 46.3742 162.642 46.4115 162.698 46.4675C162.772 46.5422 162.81 46.5982 162.81 46.6355C162.81 46.6915 162.754 46.7755 162.642 46.8875C162.586 46.9435 162.464 47.0462 162.278 47.1955C162.091 47.3635 161.886 47.5315 161.662 47.6995C161.456 47.8675 161.26 48.0262 161.074 48.1755C160.887 48.3248 160.756 48.4182 160.682 48.4555C160.532 48.5488 160.392 48.6142 160.262 48.6515C160.15 48.6888 159.963 48.7075 159.702 48.7075H155.614C155.95 49.3048 156.286 49.8182 156.622 50.2475C156.958 50.6768 157.424 51.0315 158.022 51.3115C158.563 51.5542 159.151 51.6382 159.786 51.5635C160.42 51.4888 161.186 51.1248 162.082 50.4715C162.362 50.2848 162.558 50.2475 162.67 50.3595C162.744 50.4342 162.763 50.5368 162.726 50.6675C162.688 50.7982 162.614 50.9382 162.502 51.0875C161.904 51.8155 161.307 52.3848 160.71 52.7955C160.131 53.2248 159.562 53.5235 159.002 53.6915C158.442 53.8595 157.9 53.9062 157.378 53.8315C156.855 53.7755 156.36 53.6262 155.894 53.3835C155.296 53.0662 154.755 52.6275 154.27 52.0675C153.784 51.5075 153.374 50.8915 153.038 50.2195C152.832 49.8088 152.646 49.5382 152.478 49.4075C152.328 49.2955 152.151 49.2488 151.946 49.2675C151.61 49.3048 151.386 49.2395 151.274 49.0715C151.218 48.9595 151.218 48.8195 151.274 48.6515C151.33 48.4835 151.423 48.3435 151.554 48.2315ZM153.906 37.2555V33.8115C153.906 33.3822 154.018 33.0555 154.242 32.8315C154.41 32.6635 154.624 32.4582 154.886 32.2155C155.166 31.9728 155.492 31.7115 155.866 31.4315C156.108 31.2448 156.342 31.2075 156.566 31.3195C156.808 31.4128 156.93 31.6368 156.93 31.9915V35.6875C156.93 36.1168 156.818 36.4435 156.594 36.6675C156.5 36.7608 156.407 36.8542 156.314 36.9475C156.22 37.0408 156.099 37.1435 155.95 37.2555H167.01C167.383 37.2555 167.57 37.3488 167.57 37.5355C167.57 37.7035 167.392 37.8995 167.038 38.1235C166.776 38.2915 166.524 38.4688 166.282 38.6555C166.058 38.8422 165.843 39.0382 165.638 39.2435C165.376 39.5048 164.91 39.6355 164.238 39.6355H146.038C145.87 39.6355 145.73 39.6075 145.618 39.5515C145.506 39.4955 145.45 39.4208 145.45 39.3275C145.45 39.2342 145.524 39.1408 145.674 39.0475C145.823 38.9355 145.972 38.8328 146.122 38.7395C146.271 38.6462 146.458 38.5062 146.682 38.3195C146.906 38.1328 147.12 37.9462 147.326 37.7595C147.68 37.4235 148.25 37.2555 149.034 37.2555H153.906ZM150.91 26.8115C151.115 26.6995 151.339 26.5595 151.582 26.3915C151.843 26.2235 152.067 26.0648 152.254 25.9155C152.459 25.7662 152.655 25.6728 152.842 25.6355C153.047 25.5795 153.327 25.5702 153.682 25.6075C153.999 25.6448 154.363 25.6728 154.774 25.6915C155.184 25.7102 155.726 25.7102 156.398 25.6915C156.696 25.6915 157.06 25.6822 157.49 25.6635C157.938 25.6262 158.386 25.5982 158.834 25.5795C159.282 25.5422 159.711 25.5235 160.122 25.5235C160.551 25.5048 160.906 25.4955 161.186 25.4955C161.596 25.5142 161.97 25.5608 162.306 25.6355C162.642 25.7102 162.912 25.8502 163.118 26.0555C163.454 26.4102 163.65 26.8768 163.706 27.4555C163.78 28.0342 163.743 28.6688 163.594 29.3595C163.426 30.0875 163.127 30.8062 162.698 31.5155C162.287 32.2062 161.596 32.9342 160.626 33.6995C160.42 33.8488 160.224 33.9515 160.038 34.0075C159.851 34.0635 159.72 34.0635 159.646 34.0075C159.552 33.9142 159.515 33.7742 159.534 33.5875C159.552 33.3822 159.599 33.2142 159.674 33.0835C159.916 32.5608 160.103 32.1222 160.234 31.7675C160.364 31.3942 160.467 30.9275 160.542 30.3675C160.635 29.6955 160.495 29.1448 160.122 28.7155C159.935 28.4915 159.664 28.3235 159.31 28.2115C158.974 28.0995 158.647 28.0342 158.33 28.0155C158.162 28.0155 157.919 28.0248 157.602 28.0435C157.284 28.0435 156.93 28.0528 156.538 28.0715C156.146 28.0715 155.735 28.0808 155.306 28.0995C154.895 28.1182 154.494 28.1275 154.102 28.1275C153.822 28.1275 153.514 28.1275 153.178 28.1275C152.842 28.1088 152.515 28.0902 152.198 28.0715C151.88 28.0528 151.582 28.0248 151.302 27.9875C151.022 27.9502 150.788 27.9035 150.602 27.8475C150.34 27.7542 150.228 27.6142 150.266 27.4275C150.322 27.2222 150.536 27.0168 150.91 26.8115ZM181.491 41.6235C181.136 41.1568 180.903 40.6528 180.791 40.1115C180.698 39.5515 180.735 38.9822 180.903 38.4035C181.071 37.8248 181.388 37.2555 181.855 36.6955C182.322 36.1168 182.947 35.5568 183.731 35.0155C184.422 34.5302 185.103 34.2128 185.775 34.0635C186.447 33.8955 187.082 33.8582 187.679 33.9515C188.276 34.0448 188.827 34.2595 189.331 34.5955C189.835 34.9315 190.274 35.3515 190.647 35.8555C191.039 36.3968 191.272 36.9662 191.347 37.5635C191.44 38.1422 191.384 38.7208 191.179 39.2995C190.974 39.8782 190.638 40.4382 190.171 40.9795C189.704 41.5208 189.116 42.0155 188.407 42.4635C187.044 43.3222 185.747 43.6675 184.515 43.4995C183.283 43.3128 182.275 42.6875 181.491 41.6235ZM202.631 37.2555C203.004 37.2555 203.191 37.3488 203.191 37.5355C203.191 37.7035 203.014 37.8995 202.659 38.1235C202.398 38.2915 202.146 38.4688 201.903 38.6555C201.679 38.8422 201.464 39.0382 201.259 39.2435C200.998 39.5048 200.531 39.6355 199.859 39.6355H198.823V41.7915C198.823 42.2208 198.711 42.5475 198.487 42.7715C198.319 42.9395 198.039 43.2008 197.647 43.5555C197.255 43.8915 196.872 44.1995 196.499 44.4795C196.256 44.6662 196.014 44.7128 195.771 44.6195C195.547 44.5075 195.435 44.2742 195.435 43.9195V34.1755C195.435 33.9515 195.37 33.8208 195.239 33.7835C195.127 33.7462 194.94 33.8208 194.679 34.0075C194.511 34.1382 194.334 34.2035 194.147 34.2035C193.96 34.2035 193.82 34.1382 193.727 34.0075C193.615 33.8582 193.587 33.6902 193.643 33.5035C193.718 33.3168 193.858 33.1488 194.063 32.9995L197.703 30.3955C198.039 30.1528 198.31 30.0875 198.515 30.1995C198.72 30.2928 198.823 30.5728 198.823 31.0395V37.5915C199.066 37.3675 199.336 37.2555 199.635 37.2555H202.631ZM187.679 46.5235C187.847 46.4115 188.034 46.3368 188.239 46.2995C188.444 46.2808 188.687 46.2902 188.967 46.3275C189.322 46.3648 189.742 46.3835 190.227 46.3835C190.731 46.3835 191.179 46.3742 191.571 46.3555C191.814 46.3555 192.122 46.3368 192.495 46.2995C192.887 46.2808 193.298 46.2622 193.727 46.2435C194.156 46.2248 194.595 46.2155 195.043 46.2155C195.491 46.2155 195.902 46.2248 196.275 46.2435C196.835 46.2808 197.283 46.4115 197.619 46.6355C197.974 46.8595 198.244 47.1395 198.431 47.4755C198.618 47.8115 198.72 48.1942 198.739 48.6235C198.758 49.0715 198.711 49.5288 198.599 49.9955C198.487 50.4808 198.291 50.9848 198.011 51.5075C197.731 52.0488 197.423 52.5622 197.087 53.0475C196.751 53.5328 196.406 53.9622 196.051 54.3355C195.715 54.7275 195.426 54.9982 195.183 55.1475C194.922 55.2968 194.726 55.3622 194.595 55.3435C194.483 55.3435 194.408 55.2968 194.371 55.2035C194.334 55.1102 194.324 54.9982 194.343 54.8675C194.38 54.7368 194.427 54.6155 194.483 54.5035C194.539 54.4102 194.614 54.2422 194.707 53.9995C194.819 53.7755 194.931 53.4955 195.043 53.1595C195.155 52.8422 195.248 52.4782 195.323 52.0675C195.416 51.6568 195.472 51.2368 195.491 50.8075C195.51 50.2662 195.398 49.8275 195.155 49.4915C194.912 49.1555 194.576 48.9595 194.147 48.9035C193.904 48.8662 193.578 48.8382 193.167 48.8195C192.756 48.8195 192.318 48.8195 191.851 48.8195C191.384 48.8382 190.927 48.8475 190.479 48.8475C190.031 48.8662 189.658 48.8755 189.359 48.8755C189.079 48.8755 188.771 48.8662 188.435 48.8475C188.099 48.8475 187.763 48.8382 187.427 48.8195C187.11 48.8008 186.811 48.7728 186.531 48.7355C186.251 48.6982 186.027 48.6515 185.859 48.5955C185.635 48.5208 185.523 48.3902 185.523 48.2035C185.542 48.0168 185.738 47.7928 186.111 47.5315L187.679 46.5235ZM184.347 39.8875C184.627 40.2235 184.954 40.4942 185.327 40.6995C185.7 40.9048 186.064 41.0542 186.419 41.1475C186.792 41.2408 187.128 41.2875 187.427 41.2875C187.726 41.2688 187.931 41.2128 188.043 41.1195C188.155 41.0448 188.258 40.8768 188.351 40.6155C188.444 40.3542 188.491 40.0462 188.491 39.6915C188.51 39.3182 188.463 38.9355 188.351 38.5435C188.239 38.1328 188.043 37.7502 187.763 37.3955C187.464 37.0595 187.119 36.7888 186.727 36.5835C186.335 36.3595 185.943 36.2008 185.551 36.1075C185.178 36.0142 184.832 35.9675 184.515 35.9675C184.198 35.9675 183.983 36.0048 183.871 36.0795C183.759 36.1728 183.666 36.3595 183.591 36.6395C183.516 36.9008 183.488 37.2182 183.507 37.5915C183.526 37.9462 183.6 38.3288 183.731 38.7395C183.862 39.1502 184.067 39.5328 184.347 39.8875ZM220.114 22.8355C220.45 22.5928 220.721 22.5275 220.926 22.6395C221.131 22.7328 221.234 23.0128 221.234 23.4795C221.234 23.6662 221.234 24.0395 221.234 24.5995C221.234 25.1595 221.225 25.7475 221.206 26.3635C221.206 26.9795 221.206 27.5488 221.206 28.0715C221.206 28.5755 221.206 28.8742 221.206 28.9675C221.206 29.3968 221.094 29.7235 220.87 29.9475C220.721 30.0968 220.469 30.3302 220.114 30.6475C219.759 30.9648 219.405 31.2542 219.05 31.5155H220.842C220.935 31.5155 221.047 31.5248 221.178 31.5435C221.327 31.5622 221.43 31.5995 221.486 31.6555C221.561 31.7302 221.598 31.7955 221.598 31.8515C221.598 31.8888 221.542 31.9635 221.43 32.0755C221.374 32.1315 221.262 32.2342 221.094 32.3835C220.926 32.5142 220.739 32.6635 220.534 32.8315C220.347 32.9808 220.161 33.1208 219.974 33.2515C219.806 33.3822 219.685 33.4662 219.61 33.5035C219.461 33.5968 219.321 33.6622 219.19 33.6995C219.078 33.7368 218.891 33.7555 218.63 33.7555H216.866V35.6875C216.866 36.1168 216.754 36.4435 216.53 36.6675C216.437 36.7608 216.343 36.8542 216.25 36.9475C216.157 37.0408 216.035 37.1435 215.886 37.2555H225.826C226.199 37.2555 226.386 37.3488 226.386 37.5355C226.386 37.7035 226.209 37.8995 225.854 38.1235C225.593 38.2915 225.341 38.4688 225.098 38.6555C224.874 38.8422 224.659 39.0382 224.454 39.2435C224.193 39.5048 223.726 39.6355 223.054 39.6355H204.854C204.686 39.6355 204.546 39.6075 204.434 39.5515C204.322 39.4955 204.266 39.4208 204.266 39.3275C204.266 39.2342 204.341 39.1408 204.49 39.0475C204.639 38.9355 204.789 38.8328 204.938 38.7395C205.087 38.6462 205.274 38.5062 205.498 38.3195C205.722 38.1328 205.937 37.9462 206.142 37.7595C206.497 37.4235 207.066 37.2555 207.85 37.2555H213.842V35.4915C213.842 35.0622 213.954 34.7355 214.178 34.5115L214.99 33.7555H211.77H211.742L211.518 33.9235C211.275 34.1102 211.033 34.1568 210.79 34.0635C210.566 33.9515 210.454 33.7182 210.454 33.3635V26.8955C210.454 26.6715 210.389 26.5408 210.258 26.5035C210.146 26.4662 209.959 26.5408 209.698 26.7275C209.53 26.8582 209.353 26.9235 209.166 26.9235C208.979 26.9235 208.839 26.8582 208.746 26.7275C208.634 26.5782 208.606 26.4102 208.662 26.2235C208.737 26.0368 208.877 25.8688 209.082 25.7195L212.722 23.1155C213.058 22.8728 213.329 22.8075 213.534 22.9195C213.739 23.0128 213.842 23.2928 213.842 23.7595V27.5115H217.846V26.6155C217.846 26.3915 217.781 26.2608 217.65 26.2235C217.538 26.1862 217.351 26.2608 217.09 26.4475C216.922 26.5782 216.745 26.6435 216.558 26.6435C216.371 26.6435 216.231 26.5782 216.138 26.4475C216.026 26.2982 215.998 26.1302 216.054 25.9435C216.129 25.7568 216.269 25.5888 216.474 25.4395L220.114 22.8355ZM213.842 31.2355C213.842 31.3662 213.833 31.4688 213.814 31.5435C213.889 31.5248 213.982 31.5155 214.094 31.5155H217.902C217.846 31.4035 217.818 31.2635 217.818 31.0955V28.7155C217.613 28.8835 217.407 29.0515 217.202 29.2195C216.997 29.3688 216.857 29.4622 216.782 29.4995C216.633 29.5928 216.493 29.6582 216.362 29.6955C216.25 29.7328 216.063 29.7515 215.802 29.7515H213.842V31.2355ZM261.784 25.5795C262.12 25.3368 262.39 25.2715 262.596 25.3835C262.801 25.4768 262.904 25.7568 262.904 26.2235V44.3955C262.904 44.8248 262.792 45.1515 262.568 45.3755C262.4 45.5435 262.176 45.7488 261.896 45.9915C261.634 46.2342 261.317 46.4955 260.944 46.7755C260.701 46.9622 260.458 46.9995 260.216 46.8875C259.992 46.7942 259.88 46.5702 259.88 46.2155V38.4315C259.693 38.5622 259.525 38.6928 259.376 38.8235C259.226 38.9542 259.077 39.0942 258.928 39.2435C258.666 39.5048 258.2 39.6355 257.528 39.6355H257.024V44.3955C257.024 44.8248 256.912 45.1515 256.688 45.3755C256.52 45.5435 256.296 45.7488 256.016 45.9915C255.754 46.2342 255.437 46.4955 255.064 46.7755C254.821 46.9622 254.578 46.9995 254.336 46.8875C254.112 46.7942 254 46.5702 254 46.2155V30.1715C254 29.9475 253.934 29.8168 253.804 29.7795C253.692 29.7422 253.505 29.8168 253.244 30.0035C253.076 30.1342 252.898 30.1995 252.712 30.1995C252.525 30.1995 252.385 30.1342 252.292 30.0035C252.18 29.8542 252.152 29.6862 252.208 29.4995C252.282 29.3128 252.422 29.1448 252.628 28.9955L255.904 26.6995C256.24 26.4568 256.51 26.3915 256.716 26.5035C256.921 26.5968 257.024 26.8768 257.024 27.3435V37.2555H259.88V29.0515C259.88 28.8275 259.814 28.6968 259.684 28.6595C259.572 28.6222 259.385 28.6968 259.124 28.8835C258.956 29.0142 258.778 29.0795 258.592 29.0795C258.405 29.0795 258.265 29.0142 258.172 28.8835C258.06 28.7342 258.032 28.5662 258.088 28.3795C258.162 28.1928 258.302 28.0248 258.508 27.8755L261.784 25.5795ZM240.392 33.2235C240.765 33.1302 241.157 33.0648 241.568 33.0275C241.978 32.9902 242.51 33.0555 243.164 33.2235C243.537 33.2982 243.798 33.4755 243.948 33.7555C244.041 33.9235 244.097 34.1102 244.116 34.3155C244.153 34.5022 244.162 34.7542 244.144 35.0715C244.106 36.1355 244.153 37.1248 244.284 38.0395C244.414 38.9542 244.778 39.6448 245.376 40.1115C246.048 40.6342 246.776 40.8768 247.56 40.8395C248.344 40.7835 249.156 40.4848 249.996 39.9435C250.313 39.7382 250.537 39.6822 250.668 39.7755C250.78 39.8688 250.817 39.9995 250.78 40.1675C250.761 40.3168 250.696 40.4755 250.584 40.6435C250.024 41.4462 249.426 42.0715 248.792 42.5195C248.157 42.9488 247.513 43.2288 246.86 43.3595C246.225 43.4715 245.59 43.4622 244.956 43.3315C244.321 43.1822 243.714 42.9208 243.136 42.5475C242.482 42.1368 241.922 41.3995 241.456 40.3355C240.989 39.2528 240.718 37.8155 240.644 36.0235C240.625 35.5195 240.597 35.1648 240.56 34.9595C240.522 34.7542 240.401 34.6048 240.196 34.5115C240.046 34.4368 239.916 34.3528 239.804 34.2595C239.692 34.1475 239.636 34.0355 239.636 33.9235C239.636 33.7742 239.71 33.6342 239.86 33.5035C240.028 33.3728 240.205 33.2795 240.392 33.2235ZM277.413 36.8075C277.506 36.7515 277.637 36.6582 277.805 36.5275C277.992 36.3782 278.178 36.2288 278.365 36.0795C278.57 35.9302 278.748 35.7995 278.897 35.6875C279.065 35.5568 279.177 35.4728 279.233 35.4355C279.345 35.3422 279.513 35.2768 279.737 35.2395C279.961 35.1835 280.176 35.1555 280.381 35.1555H281.809V30.4795C281.809 30.2555 281.744 30.1248 281.613 30.0875C281.501 30.0502 281.314 30.1248 281.053 30.3115C280.885 30.4422 280.708 30.5075 280.521 30.5075C280.334 30.5075 280.194 30.4422 280.101 30.3115C279.989 30.1622 279.961 29.9942 280.017 29.8075C280.092 29.6208 280.232 29.4528 280.437 29.3035L284.077 26.6995C284.413 26.4568 284.684 26.3915 284.889 26.5035C285.094 26.5968 285.197 26.8768 285.197 27.3435V44.0875C285.197 44.5168 285.085 44.8435 284.861 45.0675C284.693 45.2355 284.413 45.4875 284.021 45.8235C283.629 46.1782 283.246 46.4955 282.873 46.7755C282.63 46.9622 282.388 46.9995 282.145 46.8875C281.921 46.7942 281.809 46.5702 281.809 46.2155V42.0155H277.917C277.656 42.0155 277.478 42.0062 277.385 41.9875C277.31 41.9688 277.226 41.9128 277.133 41.8195C277.04 41.7262 277.021 41.6422 277.077 41.5675C277.152 41.4928 277.264 41.3995 277.413 41.2875C277.506 41.2315 277.637 41.1382 277.805 41.0075C277.992 40.8582 278.178 40.7088 278.365 40.5595C278.57 40.4102 278.748 40.2795 278.897 40.1675C279.065 40.0368 279.177 39.9528 279.233 39.9155C279.345 39.8222 279.513 39.7568 279.737 39.7195C279.961 39.6635 280.176 39.6355 280.381 39.6355H281.809V37.5355H277.917C277.656 37.5355 277.478 37.5262 277.385 37.5075C277.31 37.4888 277.226 37.4328 277.133 37.3395C277.04 37.2462 277.021 37.1622 277.077 37.0875C277.152 37.0128 277.264 36.9195 277.413 36.8075ZM265.401 38.9075C265.401 38.9075 265.42 38.8982 265.457 38.8795C265.55 38.8048 265.634 38.7395 265.709 38.6835C265.802 38.6088 265.905 38.5342 266.017 38.4595L267.221 37.5355C267.333 37.4422 267.501 37.3768 267.725 37.3395C267.949 37.2835 268.164 37.2555 268.369 37.2555H272.765C272.821 37.1062 272.868 36.9475 272.905 36.7795C272.942 36.5928 272.98 36.3875 273.017 36.1635C273.054 35.9022 273.064 35.6595 273.045 35.4355C273.045 35.2115 272.98 35.0062 272.849 34.8195C272.718 34.6328 272.485 34.5395 272.149 34.5395C271.813 34.5395 271.524 34.5488 271.281 34.5675C271.02 34.5862 270.74 34.6048 270.441 34.6235C270.161 34.6422 269.788 34.6608 269.321 34.6795C269.041 34.6795 268.733 34.6795 268.397 34.6795C268.061 34.6795 267.734 34.6702 267.417 34.6515C267.1 34.6328 266.801 34.6048 266.521 34.5675C266.241 34.5115 266.008 34.4555 265.821 34.3995C265.56 34.3062 265.448 34.1662 265.485 33.9795C265.541 33.7742 265.756 33.5688 266.129 33.3635C266.334 33.2515 266.558 33.1115 266.801 32.9435C267.062 32.7755 267.286 32.6168 267.473 32.4675C267.678 32.3182 267.874 32.2155 268.061 32.1595C268.266 32.1035 268.546 32.1035 268.901 32.1595C269.144 32.1968 269.433 32.2342 269.769 32.2715C270.124 32.2902 270.553 32.2902 271.057 32.2715C271.337 32.2528 271.682 32.2248 272.093 32.1875C272.504 32.1502 272.952 32.1128 273.437 32.0755C273.568 32.0755 273.726 32.0848 273.913 32.1035C274.1 32.1222 274.286 32.1595 274.473 32.2155C274.678 32.2715 274.865 32.3368 275.033 32.4115C275.201 32.4675 275.332 32.5328 275.425 32.6075C275.742 32.8875 275.929 33.2702 275.985 33.7555C276.06 34.2222 276.022 34.7448 275.873 35.3235C275.78 35.6595 275.658 35.9862 275.509 36.3035C275.36 36.6208 275.154 36.9382 274.893 37.2555H275.593C275.686 37.2555 275.798 37.2648 275.929 37.2835C276.078 37.3022 276.181 37.3395 276.237 37.3955C276.312 37.4702 276.349 37.5355 276.349 37.5915C276.349 37.6288 276.293 37.7035 276.181 37.8155C276.125 37.8715 276.004 37.9835 275.817 38.1515C275.63 38.3008 275.425 38.4595 275.201 38.6275C274.996 38.7955 274.8 38.9542 274.613 39.1035C274.426 39.2528 274.296 39.3462 274.221 39.3835C274.072 39.4768 273.932 39.5422 273.801 39.5795C273.689 39.6168 273.502 39.6355 273.241 39.6355H269.153C269.489 40.2515 269.825 40.7742 270.161 41.2035C270.497 41.6328 270.964 41.9782 271.561 42.2395C272.102 42.4822 272.69 42.5662 273.325 42.4915C273.96 42.4168 274.725 42.0528 275.621 41.3995C275.901 41.2128 276.097 41.1755 276.209 41.2875C276.284 41.3622 276.302 41.4648 276.265 41.5955C276.228 41.7262 276.153 41.8662 276.041 42.0155C275.444 42.7435 274.846 43.3222 274.249 43.7515C273.67 44.1622 273.101 44.4515 272.541 44.6195C271.981 44.7875 271.44 44.8435 270.917 44.7875C270.394 44.7128 269.9 44.5542 269.433 44.3115C268.836 43.9942 268.294 43.5555 267.809 42.9955C267.324 42.4355 266.913 41.8195 266.577 41.1475C266.372 40.7368 266.204 40.4755 266.073 40.3635C265.942 40.2328 265.774 40.1768 265.569 40.1955C265.233 40.2328 265.009 40.1675 264.897 39.9995C264.841 39.9062 264.822 39.7942 264.841 39.6635C264.878 39.5328 264.944 39.4115 265.037 39.2995C265.037 39.2248 265.158 39.0942 265.401 38.9075ZM300.328 31.5995C300.664 31.3568 300.935 31.2915 301.14 31.4035C301.345 31.4968 301.448 31.7768 301.448 32.2435C301.448 32.3742 301.448 32.6168 301.448 32.9715C301.448 33.3075 301.448 33.7088 301.448 34.1755C301.448 34.6235 301.439 35.1088 301.42 35.6315C301.42 36.1355 301.42 36.6115 301.42 37.0595C301.42 37.4888 301.42 37.8622 301.42 38.1795C301.42 38.4782 301.42 38.6555 301.42 38.7115C301.42 39.1408 301.308 39.4675 301.084 39.6915C300.935 39.8408 300.683 40.0742 300.328 40.3915C299.973 40.7088 299.619 40.9982 299.264 41.2595H301.336C301.429 41.2595 301.541 41.2688 301.672 41.2875C301.821 41.3062 301.924 41.3435 301.98 41.3995C302.017 41.4368 302.036 41.4928 302.036 41.5675C302.055 41.6422 302.017 41.7262 301.924 41.8195C301.868 41.8755 301.756 41.9782 301.588 42.1275C301.42 42.2582 301.233 42.4075 301.028 42.5755C300.841 42.7248 300.655 42.8648 300.468 42.9955C300.3 43.1262 300.179 43.2102 300.104 43.2475C299.955 43.3408 299.815 43.4062 299.684 43.4435C299.572 43.4808 299.385 43.4995 299.124 43.4995H292.264H292.236L292.012 43.6675C291.769 43.8542 291.527 43.9008 291.284 43.8075C291.06 43.6955 290.948 43.4622 290.948 43.1075V35.6595C290.948 35.4355 290.883 35.3048 290.752 35.2675C290.64 35.2302 290.453 35.3048 290.192 35.4915C290.024 35.6222 289.847 35.6875 289.66 35.6875C289.473 35.6875 289.333 35.6222 289.24 35.4915C289.128 35.3422 289.1 35.1742 289.156 34.9875C289.231 34.8008 289.371 34.6328 289.576 34.4835L293.216 31.8795C293.552 31.6368 293.823 31.5715 294.028 31.6835C294.233 31.7768 294.336 32.0568 294.336 32.5235V37.2555H298.06V35.3795C298.06 35.1555 297.995 35.0248 297.864 34.9875C297.752 34.9502 297.565 35.0248 297.304 35.2115C297.136 35.3422 296.959 35.4075 296.772 35.4075C296.585 35.4075 296.445 35.3422 296.352 35.2115C296.24 35.0622 296.212 34.8942 296.268 34.7075C296.343 34.5208 296.483 34.3528 296.688 34.2035L300.328 31.5995ZM308.868 45.3755C309.241 45.3755 309.428 45.4688 309.428 45.6555C309.428 45.8235 309.251 46.0195 308.896 46.2435C308.635 46.4115 308.383 46.5888 308.14 46.7755C307.916 46.9622 307.701 47.1582 307.496 47.3635C307.235 47.6248 306.768 47.7555 306.096 47.7555H300.888C300.813 48.1102 300.86 48.5955 301.028 49.2115C301.196 49.8275 301.495 50.3782 301.924 50.8635C302.409 51.4048 302.951 51.8248 303.548 52.1235C304.164 52.4222 304.771 52.5808 305.368 52.5995C305.928 52.6182 306.432 52.5248 306.88 52.3195C307.328 52.1328 307.72 51.8902 308.056 51.5915C308.336 51.3488 308.56 51.2835 308.728 51.3955C308.933 51.5262 308.952 51.7502 308.784 52.0675C308.448 52.7395 307.972 53.3368 307.356 53.8595C306.759 54.3822 305.965 54.7462 304.976 54.9515C304.509 55.0448 304.015 55.0635 303.492 55.0075C302.969 54.9702 302.456 54.8582 301.952 54.6715C301.448 54.4848 300.972 54.2328 300.524 53.9155C300.076 53.5982 299.703 53.2155 299.404 52.7675C298.919 52.0395 298.555 51.3395 298.312 50.6675C298.088 49.9955 298.041 49.4635 298.172 49.0715C298.247 48.8288 298.415 48.5955 298.676 48.3715C298.937 48.1662 299.236 47.9608 299.572 47.7555H297.444C297.276 47.7555 297.136 47.7275 297.024 47.6715C296.912 47.6155 296.856 47.5408 296.856 47.4475C296.856 47.3542 296.931 47.2515 297.08 47.1395C297.229 47.0462 297.379 46.9528 297.528 46.8595C297.677 46.7662 297.864 46.6262 298.088 46.4395C298.312 46.2528 298.527 46.0662 298.732 45.8795C299.087 45.5435 299.656 45.3755 300.44 45.3755H308.868ZM313.264 37.2555C313.637 37.2555 313.824 37.3488 313.824 37.5355C313.824 37.7035 313.647 37.8995 313.292 38.1235C313.031 38.2915 312.779 38.4688 312.536 38.6555C312.312 38.8422 312.097 39.0382 311.892 39.2435C311.631 39.5048 311.164 39.6355 310.492 39.6355H309.456V40.4755C309.456 40.9048 309.344 41.2315 309.12 41.4555C308.952 41.6235 308.672 41.8848 308.28 42.2395C307.888 42.5755 307.505 42.8835 307.132 43.1635C306.889 43.3502 306.647 43.3968 306.404 43.3035C306.18 43.1915 306.068 42.9582 306.068 42.6035V34.1755C306.068 33.9515 306.003 33.8208 305.872 33.7835C305.76 33.7462 305.573 33.8208 305.312 34.0075C305.144 34.1382 304.967 34.2035 304.78 34.2035C304.593 34.2035 304.453 34.1382 304.36 34.0075C304.248 33.8582 304.22 33.6902 304.276 33.5035C304.351 33.3168 304.491 33.1488 304.696 32.9995L308.336 30.3955C308.672 30.1528 308.943 30.0875 309.148 30.1995C309.353 30.2928 309.456 30.5728 309.456 31.0395V37.5915C309.699 37.3675 309.969 37.2555 310.268 37.2555H313.264ZM294.336 40.9795C294.336 41.1102 294.327 41.2128 294.308 41.2875C294.383 41.2688 294.476 41.2595 294.588 41.2595H298.116C298.06 41.1475 298.032 41.0075 298.032 40.8395V38.6835C297.659 38.9822 297.407 39.1688 297.276 39.2435C297.127 39.3368 296.987 39.4022 296.856 39.4395C296.744 39.4768 296.557 39.4955 296.296 39.4955H294.336V40.9795ZM334.527 26.6435C334.863 26.4008 335.134 26.3355 335.339 26.4475C335.544 26.5408 335.647 26.8208 335.647 27.2875V44.1435C335.647 44.5728 335.535 44.8995 335.311 45.1235C335.143 45.2915 334.863 45.5435 334.471 45.8795C334.079 46.2342 333.696 46.5515 333.323 46.8315C333.08 47.0182 332.838 47.0555 332.595 46.9435C332.371 46.8502 332.259 46.6262 332.259 46.2715V30.4235C332.259 30.1995 332.194 30.0688 332.063 30.0315C331.951 29.9942 331.764 30.0688 331.503 30.2555C331.335 30.3862 331.158 30.4515 330.971 30.4515C330.784 30.4515 330.644 30.3862 330.551 30.2555C330.439 30.1062 330.411 29.9382 330.467 29.7515C330.542 29.5648 330.682 29.3968 330.887 29.2475L334.527 26.6435ZM325.931 34.4835C326.566 35.7902 326.519 37.3675 325.791 39.2155C325.642 39.5702 325.427 39.9622 325.147 40.3915C324.867 40.8208 324.55 41.2408 324.195 41.6515C323.84 42.0622 323.476 42.4448 323.103 42.7995C322.73 43.1542 322.384 43.4248 322.067 43.6115C321.806 43.7608 321.554 43.8448 321.311 43.8635C321.087 43.8822 320.938 43.8448 320.863 43.7515C320.77 43.6022 320.751 43.4248 320.807 43.2195C320.882 42.9955 320.975 42.8088 321.087 42.6595C321.292 42.3608 321.47 42.0995 321.619 41.8755C321.787 41.6328 321.936 41.3995 322.067 41.1755C322.198 40.9328 322.319 40.6902 322.431 40.4475C322.543 40.1862 322.664 39.8875 322.795 39.5515C322.926 39.1782 323.019 38.7582 323.075 38.2915C323.131 37.8248 323.112 37.4608 323.019 37.1995C322.926 36.8635 322.767 36.6115 322.543 36.4435C322.338 36.2755 322.104 36.2008 321.843 36.2195C321.488 36.2382 321.143 36.2568 320.807 36.2755C320.49 36.2942 320.06 36.3128 319.519 36.3315C319.239 36.3315 318.931 36.3315 318.595 36.3315C318.259 36.3315 317.932 36.3222 317.615 36.3035C317.298 36.2848 316.999 36.2568 316.719 36.2195C316.439 36.1635 316.206 36.1075 316.019 36.0515C315.758 35.9582 315.646 35.8182 315.683 35.6315C315.739 35.4262 315.954 35.2208 316.327 35.0155C316.532 34.9035 316.756 34.7635 316.999 34.5955C317.26 34.4275 317.484 34.2688 317.671 34.1195C317.876 33.9702 318.072 33.8768 318.259 33.8395C318.464 33.7835 318.744 33.7742 319.099 33.8115C319.416 33.8488 319.752 33.8768 320.107 33.8955C320.462 33.9142 320.938 33.9142 321.535 33.8955C321.908 33.8768 322.291 33.8488 322.683 33.8115C323.094 33.7742 323.672 33.7368 324.419 33.6995C324.755 33.6808 325.054 33.7368 325.315 33.8675C325.576 33.9795 325.782 34.1848 325.931 34.4835Z" fill="#E6EDEA"/>
</svg>
