<svg width="243" height="175" viewBox="0 0 243 175" fill="none" xmlns="http://www.w3.org/2000/svg">
<path d="M211.9 150.944H35.9399V170.612H211.9V150.944Z" fill="white"/>
<path d="M59.7439 157.337H64.1239V164.537H59.7439V157.337ZM62.6479 158.585H61.2319V163.301H62.6479V158.585ZM67.4479 156.197H68.9719V167.309H67.4479V156.197ZM63.3199 160.241H65.8159V161.525H63.3199V160.241ZM65.1919 156.377H66.6799V166.817H65.1919V156.377ZM78.103 156.209H79.699V164.189H78.103V156.209ZM72.295 165.845H79.987V167.129H72.295V165.845ZM72.295 163.397H73.891V166.373H72.295V163.397ZM73.651 156.917C74.219 156.917 74.731 157.037 75.187 157.277C75.643 157.517 76.003 157.849 76.267 158.273C76.539 158.697 76.675 159.185 76.675 159.737C76.675 160.273 76.539 160.757 76.267 161.189C76.003 161.613 75.643 161.949 75.187 162.197C74.731 162.437 74.219 162.557 73.651 162.557C73.083 162.557 72.571 162.437 72.115 162.197C71.659 161.949 71.295 161.613 71.023 161.189C70.759 160.757 70.627 160.273 70.627 159.737C70.627 159.185 70.759 158.697 71.023 158.273C71.295 157.849 71.659 157.517 72.115 157.277C72.571 157.037 73.083 156.917 73.651 156.917ZM73.651 158.285C73.379 158.285 73.131 158.345 72.907 158.465C72.683 158.577 72.507 158.741 72.379 158.957C72.251 159.165 72.187 159.425 72.187 159.737C72.187 160.033 72.251 160.289 72.379 160.505C72.507 160.713 72.683 160.877 72.907 160.997C73.131 161.109 73.379 161.165 73.651 161.165C73.923 161.165 74.171 161.109 74.395 160.997C74.619 160.877 74.795 160.713 74.923 160.505C75.051 160.289 75.115 160.033 75.115 159.737C75.115 159.425 75.051 159.165 74.923 158.957C74.795 158.741 74.619 158.577 74.395 158.465C74.171 158.345 73.923 158.285 73.651 158.285ZM89.6341 156.209H91.1461V167.321H89.6341V156.209ZM86.3701 160.253H87.8581V161.645H86.3701V160.253ZM87.4261 156.413H88.9141V166.793H87.4261V156.413ZM81.5821 157.457H86.6461V158.729H81.5821V157.457ZM81.5701 164.801L81.4021 163.493C81.7461 163.493 82.1421 163.493 82.5901 163.493C83.0381 163.485 83.5061 163.473 83.9941 163.457C84.4821 163.433 84.9661 163.405 85.4461 163.373C85.9341 163.333 86.3901 163.285 86.8141 163.229L86.9101 164.381C86.3421 164.509 85.7301 164.605 85.0741 164.669C84.4181 164.725 83.7821 164.761 83.1661 164.777C82.5581 164.793 82.0261 164.801 81.5701 164.801ZM82.2661 158.261H83.7061V163.841H82.2661V158.261ZM84.5101 158.261H85.9381V163.841H84.5101V158.261ZM100.169 156.185H101.765V167.333H100.169V156.185ZM95.7771 156.965C96.3451 156.965 96.8491 157.129 97.2891 157.457C97.7291 157.777 98.0731 158.237 98.3211 158.837C98.5771 159.429 98.7051 160.129 98.7051 160.937C98.7051 161.753 98.5771 162.461 98.3211 163.061C98.0731 163.653 97.7291 164.113 97.2891 164.441C96.8491 164.761 96.3451 164.921 95.7771 164.921C95.2171 164.921 94.7171 164.761 94.2771 164.441C93.8371 164.113 93.4891 163.653 93.2331 163.061C92.9851 162.461 92.8611 161.753 92.8611 160.937C92.8611 160.129 92.9851 159.429 93.2331 158.837C93.4891 158.237 93.8371 157.777 94.2771 157.457C94.7171 157.129 95.2171 156.965 95.7771 156.965ZM95.7771 158.417C95.5051 158.417 95.2651 158.513 95.0571 158.705C94.8491 158.897 94.6851 159.181 94.5651 159.557C94.4531 159.925 94.3971 160.385 94.3971 160.937C94.3971 161.481 94.4531 161.945 94.5651 162.329C94.6851 162.705 94.8491 162.989 95.0571 163.181C95.2651 163.373 95.5051 163.469 95.7771 163.469C96.0571 163.469 96.3011 163.373 96.5091 163.181C96.7171 162.989 96.8771 162.705 96.9891 162.329C97.1091 161.945 97.1691 161.481 97.1691 160.937C97.1691 160.385 97.1091 159.925 96.9891 159.557C96.8771 159.181 96.7171 158.897 96.5091 158.705C96.3011 158.513 96.0571 158.417 95.7771 158.417ZM106.264 157.961H107.536V159.209C107.536 159.849 107.468 160.477 107.332 161.093C107.204 161.709 107.008 162.289 106.744 162.833C106.488 163.369 106.164 163.845 105.772 164.261C105.38 164.669 104.924 164.993 104.404 165.233L103.492 163.973C103.956 163.757 104.36 163.477 104.704 163.133C105.056 162.789 105.344 162.405 105.568 161.981C105.8 161.549 105.972 161.097 106.084 160.625C106.204 160.145 106.264 159.673 106.264 159.209V157.961ZM106.612 157.961H107.872V159.209C107.872 159.649 107.928 160.097 108.04 160.553C108.16 161.001 108.332 161.429 108.556 161.837C108.78 162.237 109.064 162.597 109.408 162.917C109.752 163.237 110.16 163.493 110.632 163.685L109.756 164.957C109.228 164.725 108.768 164.413 108.376 164.021C107.984 163.629 107.656 163.177 107.392 162.665C107.128 162.153 106.932 161.605 106.804 161.021C106.676 160.429 106.612 159.825 106.612 159.209V157.961ZM103.936 157.265H110.176V158.585H103.936V157.265ZM111.208 156.209H112.804V167.321H111.208V156.209ZM114.627 164.801H124.695V166.097H114.627V164.801ZM118.851 162.689H120.435V165.317H118.851V162.689ZM115.767 156.917H123.555V160.625H117.363V162.485H115.779V159.377H121.971V158.189H115.767V156.917ZM115.779 161.861H123.807V163.133H115.779V161.861ZM132.867 159.341H134.451V161.465H132.867V159.341ZM129.891 158.753H137.511V160.001H129.891V158.753ZM129.891 156.569H137.415V157.829H131.475V159.425H129.891V156.569ZM128.631 160.697H138.687V161.957H128.631V160.697ZM129.783 162.533H137.463V165.401H131.379V166.373H129.795V164.297H135.891V163.721H129.783V162.533ZM129.795 166.037H137.763V167.237H129.795V166.037ZM142.658 156.965C143.226 156.965 143.726 157.129 144.158 157.457C144.598 157.777 144.942 158.237 145.19 158.837C145.446 159.429 145.574 160.129 145.574 160.937C145.574 161.753 145.446 162.461 145.19 163.061C144.942 163.653 144.598 164.113 144.158 164.441C143.726 164.761 143.226 164.921 142.658 164.921C142.09 164.921 141.586 164.761 141.146 164.441C140.706 164.113 140.358 163.653 140.102 163.061C139.854 162.461 139.73 161.753 139.73 160.937C139.73 160.129 139.854 159.429 140.102 158.837C140.358 158.237 140.706 157.777 141.146 157.457C141.586 157.129 142.09 156.965 142.658 156.965ZM142.658 158.417C142.386 158.417 142.142 158.513 141.926 158.705C141.718 158.897 141.554 159.181 141.434 159.557C141.322 159.925 141.266 160.385 141.266 160.937C141.266 161.481 141.322 161.945 141.434 162.329C141.554 162.705 141.718 162.989 141.926 163.181C142.142 163.373 142.386 163.469 142.658 163.469C142.93 163.469 143.17 163.373 143.378 163.181C143.586 162.989 143.746 162.705 143.858 162.329C143.978 161.945 144.038 161.481 144.038 160.937C144.038 160.385 143.978 159.925 143.858 159.557C143.746 159.181 143.586 158.897 143.378 158.705C143.17 158.513 142.93 158.417 142.658 158.417ZM146.774 156.209H148.382V167.321H146.774V156.209ZM148.034 160.397H149.99V161.705H148.034V160.397ZM157.813 156.185H159.421V167.297H157.813V156.185ZM159.013 160.445H160.969V161.753H159.013V160.445ZM154.897 157.337H156.469C156.469 158.449 156.309 159.501 155.989 160.493C155.677 161.485 155.157 162.397 154.429 163.229C153.709 164.053 152.733 164.773 151.501 165.389L150.601 164.177C151.577 163.673 152.381 163.105 153.013 162.473C153.653 161.841 154.125 161.125 154.429 160.325C154.741 159.517 154.897 158.617 154.897 157.625V157.337ZM151.213 157.337H155.725V158.621H151.213V157.337ZM169.416 156.197H171.012V167.309H169.416V156.197ZM166.14 157.349H167.712C167.712 158.197 167.628 159.009 167.46 159.785C167.3 160.553 167.028 161.277 166.644 161.957C166.268 162.637 165.748 163.269 165.084 163.853C164.428 164.429 163.608 164.957 162.624 165.437L161.784 164.177C162.856 163.657 163.708 163.085 164.34 162.461C164.98 161.829 165.44 161.117 165.72 160.325C166 159.525 166.14 158.629 166.14 157.637V157.349ZM162.384 157.349H166.884V158.621H162.384V157.349ZM177.027 166.347C176.768 166.347 176.546 166.256 176.362 166.074C176.177 165.893 176.086 165.671 176.089 165.41C176.086 165.154 176.177 164.935 176.362 164.753C176.546 164.572 176.768 164.481 177.027 164.481C177.277 164.481 177.494 164.572 177.679 164.753C177.866 164.935 177.961 165.154 177.964 165.41C177.961 165.583 177.916 165.741 177.828 165.883C177.742 166.025 177.629 166.138 177.487 166.224C177.348 166.306 177.194 166.347 177.027 166.347ZM183.214 166.347C182.956 166.347 182.734 166.256 182.549 166.074C182.365 165.893 182.274 165.671 182.277 165.41C182.274 165.154 182.365 164.935 182.549 164.753C182.734 164.572 182.956 164.481 183.214 164.481C183.464 164.481 183.681 164.572 183.866 164.753C184.054 164.935 184.149 165.154 184.152 165.41C184.149 165.583 184.103 165.741 184.015 165.883C183.93 166.025 183.816 166.138 183.674 166.224C183.535 166.306 183.382 166.347 183.214 166.347ZM189.402 166.347C189.143 166.347 188.921 166.256 188.737 166.074C188.552 165.893 188.461 165.671 188.464 165.41C188.461 165.154 188.552 164.935 188.737 164.753C188.921 164.572 189.143 164.481 189.402 164.481C189.652 164.481 189.869 164.572 190.054 164.753C190.241 164.935 190.336 165.154 190.339 165.41C190.336 165.583 190.291 165.741 190.203 165.883C190.117 166.025 190.004 166.138 189.862 166.224C189.723 166.306 189.569 166.347 189.402 166.347Z" fill="#6D606B"/>
<g filter="url(#filter0_d_1165_70)">
<path d="M75.6266 71.6326L63.4587 71.3164C59.2377 71.0689 61.1557 78.459 62.2763 80.432C63.1493 81.9582 64.923 80.7826 66.181 80.1845C67.7003 79.4696 71.7356 76.2592 72.6155 76.0255C73.9286 75.6748 78.3764 77.0291 80.1225 76.9054C80.9818 76.8435 84.5566 75.9292 85.6084 75.6336C87.7807 75.0218 90.1249 73.0075 92.4073 73.7981C89.08 77.3041 84.3022 79.5383 80.8787 82.8931C78.9195 84.8179 76.8365 88.5233 74.9735 90.1801C73.6673 91.3419 72.0587 91.7062 70.5738 93.2186C66.4766 97.3777 65.3217 104.465 61.9669 108.116C59.1552 111.168 53.1057 113.938 49.7165 116.97C47.771 118.709 43.1445 123.666 41.6321 125.673C40.7109 126.89 37.7549 131.441 39.6522 132.341C41.4534 133.194 42.567 129.365 45.4062 131.132L44.4507 132.561C47.8948 132.094 51.2358 130.918 54.783 131.111C58.1241 131.29 61.7744 133.139 65.3767 133.462C78.4382 134.638 91.5548 132.995 104.623 133.063C118.152 133.132 131.564 133.434 144.915 134.5C147.809 134.734 149.919 133.544 151.171 133.524C152.009 133.51 152.814 134.851 154.065 134.947C155.453 135.05 157.804 133.881 159.386 133.689C160.142 133.599 161.063 134.122 162.122 133.971C165.201 133.538 168.446 131.908 171.306 131.599C178.064 130.87 182.958 133.435 189.084 133.441C190.211 133.441 191.826 132.183 190.733 131.379L185.282 130.588C183.9 130.128 184.381 123.57 184.505 122.263C184.766 119.624 185.763 116.833 185.956 114.124C186.286 109.456 185.681 104.678 185.921 100.155C185.976 99.1169 185.653 94.6141 185.942 94.2017C188.403 95.9959 193.456 94.6623 193.607 91.3281C191.675 90.7094 190.328 92.3937 188.637 92.2768C187.227 92.1806 186.121 91.0669 184.883 90.6888C182.642 90.0151 176.221 87.9733 174.345 88.2208C173.575 88.3239 171.45 89.252 172.509 90.1182C174.159 91.4656 181.095 92.1874 181.556 93.5486C181.398 95.2878 181.893 97.2264 181.92 98.842C182.065 107.896 181.405 116.619 180.655 125.611C180.573 126.622 180.243 127.632 180.085 128.636C175.321 129.901 169.876 128.547 165.318 131.138C164.885 122.765 164.5 114.399 165.916 106.081L167.229 103.805C164.878 103.077 162.438 103.764 161.977 106.466C160.822 113.258 161.414 119.094 161.482 125.653C161.503 127.626 160.568 129.592 161.469 131.62C159.578 130.884 156.526 132.933 155.089 132.52C154.12 132.238 153.982 130.946 153.281 130.451C151.315 129.049 150.071 130.087 147.575 126.938C142.337 120.345 137.215 109.332 131.475 104.293C122.889 96.7452 112.11 90.0907 104.541 81.1126C104.046 80.5214 100.217 74.1487 100.148 73.7225L102.472 69.2678C101.234 69.1509 100.189 68.711 98.8968 68.766C95.2464 68.9241 90.2555 70.684 86.8458 71.1583C83.7041 71.5983 80.1225 69.5772 76.809 71.667M84.7628 82.9481C87.6982 80.4114 91.5892 79.0434 94.0915 75.9567C94.5521 76.0255 94.394 77.0223 94.2221 77.311C94.1465 77.4416 93.2459 77.7166 92.8816 78.0878C89.2175 81.8688 85.6359 85.4573 80.8993 87.9459C80.4456 87.4578 84.1166 83.498 84.7559 82.9481H84.7628ZM74.4373 130.671C71.8868 131.125 68.7108 130.313 66.0366 130.637L71.0756 129.688H75.6266C75.8466 131.07 75.331 130.513 74.4373 130.671ZM146.132 131.592C140.914 129.537 135.263 131.407 130.073 131.145C117.705 130.533 105.572 129.784 93.1085 130.135C91.8023 130.169 90.0768 130.96 88.915 130.65C88.4544 130.527 88.4132 129.688 88.0694 129.489C87.2857 129.042 85.8627 128.904 85.464 128.237C84.1578 126.072 86.4058 122.47 82.3223 120.827C77.9295 119.06 76.9465 123.659 76.2934 126.828L48.2935 128.237C47.9704 118.235 58.1309 116.214 63.8299 110.92C66.1741 108.741 69.0614 104.452 70.945 101.722C72.4643 99.5225 74.8841 94.2429 76.3896 92.7718C78.1358 91.0669 83.6629 89.5407 86.3439 87.8565C90.3449 85.3404 93.5965 81.5663 97.0407 78.3834C98.2025 78.1703 98.9449 80.6864 99.6117 81.4701C105.73 88.6333 112.99 95.1572 120.277 101.097C121.59 102.169 123.521 103.455 125.034 104.259C123.721 106.198 120.682 104.678 118.551 104.692C114.062 104.727 110.006 106.074 105.366 104.967C100.725 103.867 94.7927 100.966 89.7537 100.877C87.6707 100.836 84.9965 101.874 82.8242 101.853L82.8448 103.255C85.0584 104.335 86.9145 103.18 89.2312 103.331C95.6451 103.743 102.066 107.875 108.012 107.985C110.102 108.019 113.065 107.167 115.183 107.105C118.482 107.016 121.576 107.875 124.814 107.621C126.017 107.524 126.952 106.562 127.928 106.83C130.795 107.621 134.156 115.018 135.964 117.541C136.899 118.847 146.867 130.925 146.138 131.578L146.132 131.592Z" fill="white"/>
<path d="M75.6266 71.6326L63.4587 71.3164C59.2377 71.0689 61.1557 78.459 62.2763 80.432C63.1493 81.9582 64.923 80.7826 66.181 80.1845C67.7003 79.4696 71.7356 76.2592 72.6155 76.0255C73.9286 75.6748 78.3764 77.0291 80.1225 76.9054C80.9818 76.8435 84.5566 75.9292 85.6084 75.6336C87.7807 75.0218 90.1249 73.0075 92.4073 73.7981C89.08 77.3041 84.3022 79.5383 80.8787 82.8931C78.9195 84.8179 76.8365 88.5233 74.9735 90.1801C73.6673 91.3419 72.0587 91.7062 70.5738 93.2186C66.4766 97.3777 65.3217 104.465 61.9669 108.116C59.1552 111.168 53.1057 113.938 49.7165 116.97C47.771 118.709 43.1445 123.666 41.6321 125.673C40.7109 126.89 37.7549 131.441 39.6522 132.341C41.4534 133.194 42.567 129.365 45.4062 131.132L44.4507 132.561C47.8948 132.094 51.2358 130.918 54.783 131.111C58.1241 131.29 61.7744 133.139 65.3767 133.462C78.4382 134.638 91.5548 132.995 104.623 133.063C118.152 133.132 131.564 133.434 144.915 134.5C147.809 134.734 149.919 133.544 151.171 133.524C152.009 133.51 152.814 134.851 154.065 134.947C155.453 135.05 157.804 133.881 159.386 133.689C160.142 133.599 161.063 134.122 162.122 133.971C165.201 133.538 168.446 131.908 171.306 131.599C178.064 130.87 182.958 133.435 189.084 133.441C190.211 133.441 191.826 132.183 190.733 131.379L185.282 130.588C183.9 130.128 184.381 123.57 184.505 122.263C184.766 119.624 185.763 116.833 185.956 114.124C186.286 109.456 185.681 104.678 185.921 100.155C185.976 99.1169 185.653 94.6141 185.942 94.2017C188.403 95.9959 193.456 94.6623 193.607 91.3281C191.675 90.7094 190.328 92.3937 188.637 92.2768C187.227 92.1806 186.121 91.0669 184.883 90.6888C182.642 90.0151 176.221 87.9733 174.345 88.2208C173.575 88.3239 171.45 89.252 172.509 90.1182C174.159 91.4656 181.095 92.1874 181.556 93.5486C181.398 95.2878 181.893 97.2264 181.92 98.842C182.065 107.896 181.405 116.619 180.655 125.611C180.573 126.622 180.243 127.632 180.085 128.636C175.321 129.901 169.876 128.547 165.318 131.138C164.885 122.765 164.5 114.399 165.916 106.081L167.229 103.805C164.878 103.077 162.438 103.764 161.977 106.466C160.822 113.258 161.414 119.094 161.482 125.653C161.503 127.626 160.568 129.592 161.469 131.62C159.578 130.884 156.526 132.933 155.089 132.52C154.12 132.238 153.982 130.946 153.281 130.451C151.315 129.049 150.071 130.087 147.575 126.938C142.337 120.345 137.215 109.332 131.475 104.293C122.889 96.7452 112.11 90.0907 104.541 81.1126C104.046 80.5214 100.217 74.1487 100.148 73.7225L102.472 69.2678C101.234 69.1509 100.189 68.711 98.8968 68.766C95.2464 68.9241 90.2555 70.684 86.8458 71.1583C83.7041 71.5983 80.1225 69.5772 76.809 71.667M84.7628 82.9481C87.6982 80.4114 91.5892 79.0434 94.0915 75.9567C94.5521 76.0255 94.394 77.0223 94.2221 77.311C94.1465 77.4416 93.2459 77.7166 92.8816 78.0878C89.2175 81.8688 85.6359 85.4573 80.8993 87.9459C80.4456 87.4578 84.1166 83.498 84.7559 82.9481H84.7628ZM74.4373 130.671C71.8868 131.125 68.7108 130.313 66.0366 130.637L71.0756 129.688H75.6266C75.8466 131.07 75.331 130.513 74.4373 130.671ZM146.132 131.592C140.914 129.537 135.263 131.407 130.073 131.145C117.705 130.533 105.572 129.784 93.1085 130.135C91.8023 130.169 90.0768 130.96 88.915 130.65C88.4544 130.527 88.4132 129.688 88.0694 129.489C87.2857 129.042 85.8627 128.904 85.464 128.237C84.1578 126.072 86.4058 122.47 82.3223 120.827C77.9295 119.06 76.9465 123.659 76.2934 126.828L48.2935 128.237C47.9704 118.235 58.1309 116.214 63.8299 110.92C66.1741 108.741 69.0614 104.452 70.945 101.722C72.4643 99.5225 74.8841 94.2429 76.3896 92.7718C78.1358 91.0669 83.6629 89.5407 86.3439 87.8565C90.3449 85.3404 93.5965 81.5663 97.0407 78.3834C98.2025 78.1703 98.9449 80.6864 99.6117 81.4701C105.73 88.6333 112.99 95.1572 120.277 101.097C121.59 102.169 123.521 103.455 125.034 104.259C123.721 106.198 120.682 104.678 118.551 104.692C114.062 104.727 110.006 106.074 105.366 104.967C100.725 103.867 94.7927 100.966 89.7537 100.877C87.6707 100.836 84.9965 101.874 82.8242 101.853L82.8448 103.255C85.0584 104.335 86.9145 103.18 89.2312 103.331C95.6451 103.743 102.066 107.875 108.012 107.985C110.102 108.019 113.065 107.167 115.183 107.105C118.482 107.016 121.576 107.875 124.814 107.621C126.017 107.524 126.952 106.562 127.928 106.83C130.795 107.621 134.156 115.018 135.964 117.541C136.899 118.847 146.867 130.925 146.138 131.578L146.132 131.592Z" stroke="white" stroke-width="14" stroke-miterlimit="10"/>
<path d="M196.13 47.2969L195.435 56.1856L192.665 57.2443L192.177 53.8827L184.849 55.7319C181.418 53.2983 185.88 48.8987 188.334 47.4069C187.165 44.2996 181.247 47.2213 181.611 44.0659C182.01 40.6149 187.88 40.4155 190.259 41.8867V37.0882C194.734 36.6139 192.995 38.0919 193.751 40.5599C195.195 45.262 197.732 42.0173 200.804 44.5265L196.13 47.2831V47.2969ZM187.385 52.9271C188.905 53.5664 191.063 49.4761 190.733 49.0911C189.228 50.0948 186.78 50.7135 187.385 52.9271Z" fill="white" stroke="white" stroke-width="14" stroke-miterlimit="10"/>
<path d="M158.56 52.0197L158.609 59.1691C160.245 59.8222 162.912 55.725 164.143 57.7324C164.906 58.9767 162.623 60.0491 162.445 60.3791C161.805 61.5821 164.418 60.5715 163.874 61.809C163.455 62.7576 161.647 62.5514 161.482 63.4863C163.421 63.7338 164.899 64.5588 165.346 66.5799L162.72 67.8517C161.668 65.0331 160.059 66.7449 158.127 65.4181C157.667 67.3429 156.89 69.1716 156.347 71.0758C156.038 72.162 156.196 74.3137 156.099 74.4512C155.46 75.4274 152.408 76.1973 152.841 73.8462L155.24 64.9369L151.246 65.3631L149.967 62.5377C150.318 62.1802 152.937 63.8988 153.322 62.0633C152.133 61.3552 144.77 61.8365 145.169 59.9047C147.087 57.3337 150.545 59.8772 153.315 59.176C152.93 58.3992 150.449 57.8492 150.07 57.1549C147.939 53.2296 154.388 56.9212 154.938 56.7562C156.856 55.2713 155.309 51.0847 158.547 52.0334L158.56 52.0197Z" fill="white" stroke="white" stroke-width="14" stroke-miterlimit="10"/>
</g>
<path d="M75.6266 71.6326L63.4587 71.3164C59.2377 71.0689 61.1557 78.459 62.2763 80.432C63.1493 81.9582 64.923 80.7826 66.181 80.1845C67.7003 79.4696 71.7356 76.2592 72.6155 76.0255C73.9286 75.6748 78.3764 77.0291 80.1225 76.9054C80.9818 76.8435 84.5566 75.9292 85.6084 75.6336C87.7807 75.0218 90.1249 73.0075 92.4073 73.7981C89.08 77.3041 84.3022 79.5383 80.8787 82.8931C78.9195 84.8179 76.8365 88.5233 74.9735 90.1801C73.6673 91.3419 72.0587 91.7062 70.5738 93.2186C66.4766 97.3777 65.3217 104.465 61.9669 108.116C59.1552 111.168 53.1057 113.938 49.7165 116.97C47.771 118.709 43.1445 123.666 41.6321 125.673C40.7109 126.89 37.7549 131.441 39.6522 132.341C41.4534 133.194 42.567 129.365 45.4062 131.132L44.4507 132.561C47.8948 132.094 51.2358 130.918 54.783 131.111C58.1241 131.29 61.7744 133.139 65.3767 133.462C78.4382 134.638 91.5548 132.995 104.623 133.063C118.152 133.132 131.564 133.434 144.915 134.5C147.809 134.734 149.919 133.544 151.171 133.524C152.009 133.51 152.814 134.851 154.065 134.947C155.453 135.05 157.804 133.881 159.386 133.689C160.142 133.599 161.063 134.122 162.122 133.971C165.201 133.538 168.446 131.908 171.306 131.599C178.064 130.87 182.958 133.435 189.084 133.441C190.211 133.441 191.826 132.183 190.733 131.379L185.282 130.588C183.9 130.128 184.381 123.57 184.505 122.263C184.766 119.624 185.763 116.833 185.956 114.124C186.286 109.456 185.681 104.678 185.921 100.155C185.976 99.1169 185.653 94.6141 185.942 94.2017C188.403 95.9959 193.456 94.6623 193.607 91.3281C191.675 90.7094 190.328 92.3937 188.637 92.2768C187.227 92.1806 186.121 91.0669 184.883 90.6888C182.642 90.0151 176.221 87.9733 174.345 88.2208C173.575 88.3239 171.45 89.252 172.509 90.1182C174.159 91.4656 181.095 92.1874 181.556 93.5486C181.398 95.2878 181.893 97.2264 181.92 98.842C182.065 107.896 181.405 116.619 180.655 125.611C180.573 126.622 180.243 127.632 180.085 128.636C175.321 129.901 169.876 128.547 165.318 131.138C164.885 122.765 164.5 114.399 165.916 106.081L167.229 103.805C164.878 103.077 162.438 103.764 161.977 106.466C160.822 113.258 161.414 119.094 161.482 125.653C161.503 127.626 160.568 129.592 161.469 131.62C159.578 130.884 156.526 132.933 155.089 132.52C154.12 132.238 153.982 130.946 153.281 130.451C151.315 129.049 150.071 130.087 147.575 126.938C142.337 120.345 137.215 109.332 131.475 104.293C122.889 96.7452 112.11 90.0907 104.541 81.1126C104.046 80.5214 100.217 74.1487 100.148 73.7225L102.472 69.2678C101.234 69.1509 100.189 68.711 98.8968 68.766C95.2464 68.9241 90.2555 70.684 86.8458 71.1583C83.7041 71.5983 80.1225 69.5772 76.809 71.667M84.7628 82.9481C87.6982 80.4114 91.5892 79.0434 94.0915 75.9567C94.5521 76.0255 94.394 77.0223 94.2221 77.311C94.1465 77.4416 93.2459 77.7166 92.8816 78.0878C89.2175 81.8688 85.6359 85.4573 80.8993 87.9459C80.4456 87.4578 84.1166 83.498 84.7559 82.9481H84.7628ZM74.4373 130.671C71.8868 131.125 68.7108 130.313 66.0366 130.637L71.0756 129.688H75.6266C75.8466 131.07 75.331 130.513 74.4373 130.671ZM146.132 131.592C140.914 129.537 135.263 131.407 130.073 131.145C117.705 130.533 105.572 129.784 93.1085 130.135C91.8023 130.169 90.0768 130.96 88.915 130.65C88.4544 130.527 88.4132 129.688 88.0694 129.489C87.2857 129.042 85.8627 128.904 85.464 128.237C84.1578 126.072 86.4058 122.47 82.3223 120.827C77.9295 119.06 76.9465 123.659 76.2934 126.828L48.2935 128.237C47.9704 118.235 58.1309 116.214 63.8299 110.92C66.1741 108.741 69.0614 104.452 70.945 101.722C72.4643 99.5225 74.8841 94.2429 76.3896 92.7718C78.1358 91.0669 83.6629 89.5407 86.3439 87.8565C90.3449 85.3404 93.5965 81.5663 97.0407 78.3834C98.2025 78.1703 98.9449 80.6864 99.6117 81.4701C105.73 88.6333 112.99 95.1572 120.277 101.097C121.59 102.169 123.521 103.455 125.034 104.259C123.721 106.198 120.682 104.678 118.551 104.692C114.062 104.727 110.006 106.074 105.366 104.967C100.725 103.867 94.7927 100.966 89.7537 100.877C87.6707 100.836 84.9965 101.874 82.8242 101.853L82.8448 103.255C85.0584 104.335 86.9145 103.18 89.2312 103.331C95.6451 103.743 102.066 107.875 108.012 107.985C110.102 108.019 113.065 107.167 115.183 107.105C118.482 107.016 121.576 107.875 124.814 107.621C126.017 107.524 126.952 106.562 127.928 106.83C130.795 107.621 134.156 115.018 135.964 117.541C136.899 118.847 146.867 130.925 146.138 131.578L146.132 131.592Z" fill="#6D606B"/>
<path d="M196.13 47.2969L195.435 56.1856L192.665 57.2443L192.177 53.8827L184.849 55.7319C181.418 53.2983 185.88 48.8987 188.334 47.4069C187.165 44.2996 181.247 47.2213 181.611 44.0659C182.01 40.6149 187.88 40.4155 190.259 41.8867V37.0882C194.734 36.6139 192.995 38.0919 193.751 40.5599C195.195 45.262 197.732 42.0173 200.804 44.5265L196.13 47.2831V47.2969ZM187.385 52.9271C188.905 53.5664 191.063 49.4761 190.733 49.0911C189.228 50.0948 186.78 50.7135 187.385 52.9271Z" fill="#6D606B"/>
<path d="M158.56 52.0197L158.609 59.1691C160.245 59.8222 162.912 55.725 164.143 57.7324C164.906 58.9767 162.623 60.0491 162.445 60.3791C161.805 61.5821 164.418 60.5715 163.874 61.809C163.455 62.7576 161.647 62.5514 161.482 63.4863C163.421 63.7338 164.899 64.5588 165.346 66.5799L162.72 67.8517C161.668 65.0331 160.059 66.7449 158.127 65.4181C157.667 67.3429 156.89 69.1716 156.347 71.0758C156.038 72.162 156.196 74.3137 156.099 74.4512C155.46 75.4274 152.408 76.1973 152.841 73.8462L155.24 64.9369L151.246 65.3631L149.967 62.5377C150.318 62.1802 152.937 63.8988 153.322 62.0633C152.133 61.3552 144.77 61.8365 145.169 59.9047C147.087 57.3337 150.545 59.8772 153.315 59.176C152.93 58.3992 150.449 57.8492 150.07 57.1549C147.939 53.2296 154.388 56.9212 154.938 56.7562C156.856 55.2713 155.309 51.0847 158.547 52.0334L158.56 52.0197Z" fill="#6D606B"/>
<defs>
<filter id="filter0_d_1165_70" x="0" y="0" width="243.01" height="174.302" filterUnits="userSpaceOnUse" color-interpolation-filters="sRGB">
<feFlood flood-opacity="0" result="BackgroundImageFix"/>
<feColorMatrix in="SourceAlpha" type="matrix" values="0 0 0 0 0 0 0 0 0 0 0 0 0 0 0 0 0 0 127 0" result="hardAlpha"/>
<feOffset/>
<feGaussianBlur stdDeviation="15"/>
<feComposite in2="hardAlpha" operator="out"/>
<feColorMatrix type="matrix" values="0 0 0 0 0 0 0 0 0 0 0 0 0 0 0 0 0 0 0.25 0"/>
<feBlend mode="normal" in2="BackgroundImageFix" result="effect1_dropShadow_1165_70"/>
<feBlend mode="normal" in="SourceGraphic" in2="effect1_dropShadow_1165_70" result="shape"/>
</filter>
</defs>
</svg>
