<svg xmlns="http://www.w3.org/2000/svg" version="1.1" xmlns:xlink="http://www.w3.org/1999/xlink" width="800" height="200" viewBox="0 0 800 200"><line x1="20" y1="20" x2="780" y2="20" stroke-width="1" stroke="#cccccc"></line><line x1="20" y1="30" x2="780" y2="30" stroke-width="1" stroke="#cccccc"></line><line x1="20" y1="40" x2="780" y2="40" stroke-width="1" stroke="#cccccc"></line><line x1="20" y1="50" x2="780" y2="50" stroke-width="1" stroke="#cccccc"></line><line x1="20" y1="60" x2="780" y2="60" stroke-width="1" stroke="#cccccc"></line><line x1="20" y1="70" x2="780" y2="70" stroke-width="1" stroke="#cccccc"></line><line x1="20" y1="80" x2="780" y2="80" stroke-width="1" stroke="#cccccc"></line><line x1="20" y1="90" x2="780" y2="90" stroke-width="1" stroke="#cccccc"></line><line x1="20" y1="100" x2="780" y2="100" stroke-width="1" stroke="#cccccc"></line><line x1="20" y1="110" x2="780" y2="110" stroke-width="1" stroke="#cccccc"></line><line x1="20" y1="120" x2="780" y2="120" stroke-width="1" stroke="#cccccc"></line><line x1="20" y1="130" x2="780" y2="130" stroke-width="1" stroke="#cccccc"></line><line x1="20" y1="140" x2="780" y2="140" stroke-width="1" stroke="#cccccc"></line><line x1="20" y1="150" x2="780" y2="150" stroke-width="1" stroke="#cccccc"></line><line x1="20" y1="160" x2="780" y2="160" stroke-width="1" stroke="#cccccc"></line><circle r="3" cx="24.347826086956523" cy="40" fill="black"></circle><circle r="3" cx="26.73913043478261" cy="20" fill="black"></circle><circle r="3" cx="50" cy="90" fill="black"></circle><circle r="3" cx="54.34782608695652" cy="20" fill="black"></circle><circle r="3" cx="70" cy="20" fill="black"></circle><circle r="3" cx="70" cy="150" fill="black"></circle><circle r="3" cx="117.82608695652173" cy="30" fill="black"></circle><circle r="3" cx="175.43478260869566" cy="30" fill="black"></circle><circle r="3" cx="213.26086956521738" cy="30" fill="black"></circle><circle r="3" cx="322.17391304347825" cy="30" fill="black"></circle><circle r="3" cx="355.4347826086957" cy="30" fill="black"></circle><circle r="3" cx="491.0869565217391" cy="30" fill="black"></circle><circle r="3" cx="525.4347826086957" cy="30" fill="black"></circle><circle r="3" cx="526.7391304347826" cy="20" fill="black"></circle><circle r="3" cx="584.3478260869565" cy="30" fill="black"></circle><circle r="3" cx="587.8260869565217" cy="20" fill="black"></circle><circle r="3" cx="601.0869565217391" cy="20" fill="black"></circle><circle r="3" cx="606.7391304347826" cy="30" fill="black"></circle><circle r="3" cx="624.5652173913043" cy="20" fill="black"></circle><circle r="3" cx="642.1739130434783" cy="60" fill="black"></circle><circle r="3" cx="644.5652173913044" cy="80" fill="black"></circle><circle r="3" cx="655.6521739130435" cy="60" fill="black"></circle><circle r="3" cx="667.8260869565217" cy="30" fill="black"></circle><circle r="3" cx="688.9130434782609" cy="60" fill="black"></circle><circle r="3" cx="716.7391304347826" cy="60" fill="black"></circle><circle r="3" cx="732.1739130434783" cy="40" fill="black"></circle></svg>