<svg xmlns="http://www.w3.org/2000/svg" version="1.1" xmlns:xlink="http://www.w3.org/1999/xlink" width="800" height="200" viewBox="0 0 800 200"><line x1="20" y1="20" x2="780" y2="20" stroke-width="1" stroke="#cccccc"></line><line x1="20" y1="30" x2="780" y2="30" stroke-width="1" stroke="#cccccc"></line><line x1="20" y1="40" x2="780" y2="40" stroke-width="1" stroke="#cccccc"></line><line x1="20" y1="50" x2="780" y2="50" stroke-width="1" stroke="#cccccc"></line><line x1="20" y1="60" x2="780" y2="60" stroke-width="1" stroke="#cccccc"></line><line x1="20" y1="70" x2="780" y2="70" stroke-width="1" stroke="#cccccc"></line><line x1="20" y1="80" x2="780" y2="80" stroke-width="1" stroke="#cccccc"></line><line x1="20" y1="90" x2="780" y2="90" stroke-width="1" stroke="#cccccc"></line><line x1="20" y1="100" x2="780" y2="100" stroke-width="1" stroke="#cccccc"></line><line x1="20" y1="110" x2="780" y2="110" stroke-width="1" stroke="#cccccc"></line><line x1="20" y1="120" x2="780" y2="120" stroke-width="1" stroke="#cccccc"></line><line x1="20" y1="130" x2="780" y2="130" stroke-width="1" stroke="#cccccc"></line><line x1="20" y1="140" x2="780" y2="140" stroke-width="1" stroke="#cccccc"></line><line x1="20" y1="150" x2="780" y2="150" stroke-width="1" stroke="#cccccc"></line><line x1="20" y1="160" x2="780" y2="160" stroke-width="1" stroke="#cccccc"></line><circle r="3" cx="21.08695652173913" cy="20" fill="black"></circle><circle r="3" cx="21.08695652173913" cy="40" fill="black"></circle><circle r="3" cx="21.08695652173913" cy="90" fill="black"></circle><circle r="3" cx="76.7391304347826" cy="70" fill="black"></circle><circle r="3" cx="91.08695652173914" cy="20" fill="black"></circle><circle r="3" cx="114.34782608695653" cy="20" fill="black"></circle><circle r="3" cx="114.34782608695653" cy="50" fill="black"></circle><circle r="3" cx="114.34782608695653" cy="70" fill="black"></circle><circle r="3" cx="186.52173913043478" cy="20" fill="black"></circle><circle r="3" cx="187.6086956521739" cy="50" fill="black"></circle><circle r="3" cx="222.17391304347825" cy="70" fill="black"></circle><circle r="3" cx="245.6521739130435" cy="50" fill="black"></circle><circle r="3" cx="281.0869565217391" cy="50" fill="black"></circle><circle r="3" cx="292.17391304347825" cy="90" fill="black"></circle><circle r="3" cx="293.26086956521743" cy="20" fill="black"></circle><circle r="3" cx="327.8260869565217" cy="80" fill="black"></circle><circle r="3" cx="328.9130434782609" cy="50" fill="black"></circle><circle r="3" cx="360" cy="60" fill="black"></circle><circle r="3" cx="378.9130434782609" cy="50" fill="black"></circle><circle r="3" cx="401.08695652173907" cy="20" fill="black"></circle><circle r="3" cx="401.08695652173907" cy="30" fill="black"></circle><circle r="3" cx="420" cy="50" fill="black"></circle><circle r="3" cx="436.73913043478257" cy="60" fill="black"></circle><circle r="3" cx="458.9130434782608" cy="70" fill="black"></circle><circle r="3" cx="472.17391304347825" cy="40" fill="black"></circle><circle r="3" cx="473.26086956521743" cy="20" fill="black"></circle><circle r="3" cx="473.26086956521743" cy="70" fill="black"></circle><circle r="3" cx="477.82608695652175" cy="30" fill="black"></circle><circle r="3" cx="508.91304347826093" cy="20" fill="black"></circle><circle r="3" cx="508.91304347826093" cy="40" fill="black"></circle><circle r="3" cx="508.91304347826093" cy="90" fill="black"></circle><circle r="3" cx="510" cy="60" fill="black"></circle><circle r="3" cx="528.9130434782609" cy="40" fill="black"></circle><circle r="3" cx="546.7391304347826" cy="30" fill="black"></circle><circle r="3" cx="581.0869565217391" cy="40" fill="black"></circle><circle r="3" cx="581.0869565217391" cy="60" fill="black"></circle><circle r="3" cx="582.1739130434783" cy="20" fill="black"></circle><circle r="3" cx="621.0869565217391" cy="60" fill="black"></circle><circle r="3" cx="637.8260869565217" cy="30" fill="black"></circle><circle r="3" cx="644.5652173913044" cy="80" fill="black"></circle><circle r="3" cx="654.5652173913044" cy="60" fill="black"></circle><circle r="3" cx="687.8260869565217" cy="30" fill="black"></circle><circle r="3" cx="687.8260869565217" cy="130" fill="black"></circle><circle r="3" cx="688.9130434782609" cy="20" fill="black"></circle><circle r="3" cx="688.9130434782609" cy="70" fill="black"></circle><circle r="3" cx="723.2608695652174" cy="30" fill="black"></circle><circle r="3" cx="724.3478260869565" cy="80" fill="black"></circle><circle r="3" cx="743.2608695652174" cy="40" fill="black"></circle><circle r="3" cx="760" cy="50" fill="black"></circle><circle r="3" cx="760" cy="80" fill="black"></circle><circle r="3" cx="762.1739130434783" cy="60" fill="black"></circle></svg>