<svg width="127" height="127" viewBox="0 0 127 127" fill="none" xmlns="http://www.w3.org/2000/svg">
<g filter="url(#filter0_d_1206_48)">
<rect x="20" y="20" width="87" height="87" rx="43.5" fill="white"/>
</g>
<path d="M24.4645 59.4645C22.5118 61.4171 22.5118 64.5829 24.4645 66.5355L56.2843 98.3553C58.2369 100.308 61.4027 100.308 63.3553 98.3553C65.308 96.4027 65.308 93.2369 63.3553 91.2843L35.0711 63L63.3553 34.7157C65.308 32.7631 65.308 29.5973 63.3553 27.6447C61.4027 25.692 58.2369 25.692 56.2843 27.6447L24.4645 59.4645ZM98 68C100.761 68 103 65.7614 103 63C103 60.2386 100.761 58 98 58V63V68ZM28 63V68H98V63V58H28V63Z" fill="#6D606B"/>
<defs>
<filter id="filter0_d_1206_48" x="0" y="0" width="127" height="127" filterUnits="userSpaceOnUse" color-interpolation-filters="sRGB">
<feFlood flood-opacity="0" result="BackgroundImageFix"/>
<feColorMatrix in="SourceAlpha" type="matrix" values="0 0 0 0 0 0 0 0 0 0 0 0 0 0 0 0 0 0 127 0" result="hardAlpha"/>
<feOffset/>
<feGaussianBlur stdDeviation="10"/>
<feComposite in2="hardAlpha" operator="out"/>
<feColorMatrix type="matrix" values="0 0 0 0 0 0 0 0 0 0 0 0 0 0 0 0 0 0 0.2 0"/>
<feBlend mode="normal" in2="BackgroundImageFix" result="effect1_dropShadow_1206_48"/>
<feBlend mode="normal" in="SourceGraphic" in2="effect1_dropShadow_1206_48" result="shape"/>
</filter>
</defs>
</svg>
