<svg width="618" height="731" viewBox="0 0 618 731" fill="none" xmlns="http://www.w3.org/2000/svg">
<path d="M616.553 728.07L491.019 718.06L369.676 730.06L248.333 718.06L126.981 730.06L9.82996 720.05L0 580.45L11.2772 436.84L0 293.23L11.2772 149.61L1.43784 1.99L126.981 12L248.324 0L369.667 12L491.009 0L608.17 10.01L618 149.61L606.723 293.22L618 436.83L606.723 580.54L616.553 728.07Z" stroke="#E6EDEA" stroke-width="0.75" stroke-miterlimit="10"/>
<path d="M308.986 692.36C311.186 692.36 312.97 690.462 312.97 688.12C312.97 685.778 311.186 683.88 308.986 683.88C306.785 683.88 305.001 685.778 305.001 688.12C305.001 690.462 306.785 692.36 308.986 692.36Z" stroke="#E6EDEA" stroke-miterlimit="10"/>
<path d="M286.45 684.38C288.345 684.38 289.934 686.025 289.934 688.12C289.934 690.215 288.345 691.86 286.45 691.86C284.554 691.86 282.965 690.215 282.965 688.12C282.965 686.025 284.554 684.38 286.45 684.38Z" stroke="#E6EDEA"/>
<path d="M331.54 692.36C333.741 692.36 335.525 690.462 335.525 688.12C335.525 685.778 333.741 683.88 331.54 683.88C329.34 683.88 327.556 685.778 327.556 688.12C327.556 690.462 329.34 692.36 331.54 692.36Z" fill="#E6EDEA"/>
<path d="M95.958 55.46C96.3047 55.46 96.478 55.5467 96.478 55.72C96.478 55.876 96.3133 56.058 95.984 56.266C95.7413 56.422 95.5073 56.5867 95.282 56.76C95.074 56.9333 94.8747 57.1153 94.684 57.306C94.4413 57.5487 94.008 57.67 93.384 57.67H87.768C87.612 57.67 87.482 57.644 87.378 57.592C87.274 57.54 87.222 57.4707 87.222 57.384C87.222 57.2973 87.2913 57.2107 87.43 57.124C87.5687 57.02 87.7073 56.9247 87.846 56.838C87.9847 56.7513 88.158 56.6213 88.366 56.448C88.574 56.2747 88.7733 56.1013 88.964 55.928C89.2933 55.616 89.822 55.46 90.55 55.46H95.958ZM124.324 45.606C124.636 45.3807 124.887 45.32 125.078 45.424C125.269 45.5107 125.364 45.7707 125.364 46.204V61.856C125.364 62.2547 125.26 62.558 125.052 62.766C124.896 62.922 124.636 63.156 124.272 63.468C123.908 63.7973 123.553 64.092 123.206 64.352C122.981 64.5253 122.755 64.56 122.53 64.456C122.322 64.3693 122.218 64.1613 122.218 63.832V49.116C122.218 48.908 122.157 48.7867 122.036 48.752C121.932 48.7173 121.759 48.7867 121.516 48.96C121.36 49.0813 121.195 49.142 121.022 49.142C120.849 49.142 120.719 49.0813 120.632 48.96C120.528 48.8213 120.502 48.6653 120.554 48.492C120.623 48.3187 120.753 48.1627 120.944 48.024L124.324 45.606ZM117.902 51.976C118.249 51.976 118.422 52.0627 118.422 52.236C118.422 52.392 118.257 52.574 117.928 52.782C117.685 52.938 117.451 53.1027 117.226 53.276C117.018 53.4493 116.819 53.6313 116.628 53.822C116.385 54.0647 115.952 54.186 115.328 54.186H114.626C114.695 54.29 114.739 54.368 114.756 54.42C114.825 54.6453 114.825 54.9487 114.756 55.33C114.687 55.7113 114.531 56.188 114.288 56.76C113.993 57.4533 113.586 58.1207 113.066 58.762C112.546 59.386 111.991 59.906 111.402 60.322C110.83 60.7207 110.206 61.0587 109.53 61.336C108.871 61.6133 108.299 61.7953 107.814 61.882C107.571 61.9167 107.372 61.9253 107.216 61.908C107.077 61.8733 106.991 61.8213 106.956 61.752C106.921 61.6827 106.956 61.596 107.06 61.492C107.164 61.3707 107.303 61.2493 107.476 61.128C107.563 61.076 107.701 60.9893 107.892 60.868C108.083 60.7293 108.299 60.5733 108.542 60.4C108.785 60.2267 109.036 60.0447 109.296 59.854C109.556 59.646 109.79 59.438 109.998 59.23C110.397 58.8487 110.709 58.4413 110.934 58.008C111.177 57.5747 111.333 57.176 111.402 56.812C111.471 56.448 111.497 56.1533 111.48 55.928C111.463 55.6853 111.428 55.4687 111.376 55.278C111.324 55.07 111.35 54.914 111.454 54.81C111.575 54.706 111.697 54.6367 111.818 54.602L113.092 54.186H108.282C108.126 54.186 107.996 54.16 107.892 54.108C107.788 54.056 107.736 53.9867 107.736 53.9C107.736 53.8133 107.805 53.7267 107.944 53.64C108.083 53.536 108.221 53.4407 108.36 53.354C108.499 53.2673 108.672 53.1373 108.88 52.964C109.088 52.7907 109.287 52.6173 109.478 52.444C109.807 52.132 110.336 51.976 111.064 51.976H117.902ZM114.808 57.878C114.929 57.7047 115.146 57.644 115.458 57.696C115.683 57.7307 115.917 57.7827 116.16 57.852C116.403 57.904 116.68 57.9907 116.992 58.112C117.304 58.2333 117.581 58.4153 117.824 58.658C118.067 58.9007 118.223 59.204 118.292 59.568C118.396 60.1227 118.093 60.7987 117.382 61.596C117.261 61.7347 117.139 61.7953 117.018 61.778C116.897 61.7433 116.801 61.648 116.732 61.492C116.697 61.4053 116.645 61.31 116.576 61.206C116.507 61.0847 116.394 60.9287 116.238 60.738C115.805 60.218 115.328 59.906 114.808 59.802C114.6 59.7673 114.435 59.7413 114.314 59.724C114.193 59.6893 114.063 59.6547 113.924 59.62C113.785 59.5853 113.699 59.4987 113.664 59.36C113.629 59.2213 113.647 59.1 113.716 58.996C113.785 58.892 113.872 58.788 113.976 58.684C114.08 58.5627 114.175 58.476 114.262 58.424C114.487 58.2507 114.669 58.0687 114.808 57.878ZM138.764 60.868C139.648 60.244 140.523 59.8887 141.39 59.802C142.274 59.698 143.045 59.7587 143.704 59.984C144.536 60.2613 145.169 60.6947 145.602 61.284C146.035 61.856 146.131 62.6013 145.888 63.52C145.732 64.0747 145.489 64.6033 145.16 65.106C144.848 65.6087 144.493 66.0593 144.094 66.458H145.654C146.001 66.458 146.174 66.5447 146.174 66.718C146.174 66.874 146.009 67.056 145.68 67.264C145.437 67.42 145.203 67.5847 144.978 67.758C144.77 67.9313 144.571 68.1133 144.38 68.304C144.137 68.5467 143.704 68.668 143.08 68.668H138.374C138.218 68.8067 138.045 68.9627 137.854 69.136C137.681 69.3093 137.438 69.5173 137.126 69.76C136.901 69.9333 136.675 69.968 136.45 69.864C136.242 69.7773 136.138 69.5693 136.138 69.24V62.636C136.138 62.428 136.077 62.3067 135.956 62.272C135.852 62.2373 135.679 62.3067 135.436 62.48C135.28 62.6013 135.115 62.662 134.942 62.662C134.769 62.662 134.639 62.6013 134.552 62.48C134.448 62.3413 134.422 62.1853 134.474 62.012C134.543 61.8387 134.673 61.6827 134.864 61.544L137.724 59.516C138.036 59.2907 138.287 59.23 138.478 59.334C138.669 59.4207 138.764 59.6807 138.764 60.114V60.868ZM149.684 55.46C150.031 55.46 150.204 55.5467 150.204 55.72C150.204 55.876 150.039 56.058 149.71 56.266C149.467 56.422 149.233 56.5867 149.008 56.76C148.8 56.9333 148.601 57.1153 148.41 57.306C148.167 57.5487 147.734 57.67 147.11 57.67H130.21C130.054 57.67 129.924 57.644 129.82 57.592C129.716 57.54 129.664 57.4707 129.664 57.384C129.664 57.2973 129.733 57.2107 129.872 57.124C130.011 57.02 130.149 56.9247 130.288 56.838C130.427 56.7513 130.6 56.6213 130.808 56.448C131.016 56.2747 131.215 56.1013 131.406 55.928C131.735 55.616 132.264 55.46 132.992 55.46H149.684ZM135.254 47.062C135.445 46.958 135.653 46.828 135.878 46.672C136.121 46.516 136.329 46.3687 136.502 46.23C136.693 46.0913 136.875 46.0047 137.048 45.97C137.239 45.918 137.499 45.9093 137.828 45.944C138.123 45.9787 138.461 46.0047 138.842 46.022C139.223 46.0393 139.726 46.0393 140.35 46.022C140.697 46.0047 141.121 45.9787 141.624 45.944C142.127 45.9093 142.681 45.8747 143.288 45.84C143.6 45.8227 143.929 45.8573 144.276 45.944C144.623 46.0307 144.891 46.1693 145.082 46.36C145.394 46.6893 145.576 47.1227 145.628 47.66C145.697 48.1973 145.663 48.7867 145.524 49.428C145.368 50.104 145.091 50.7713 144.692 51.43C144.311 52.0713 143.669 52.7473 142.768 53.458C142.577 53.5967 142.395 53.692 142.222 53.744C142.049 53.796 141.927 53.796 141.858 53.744C141.771 53.6573 141.737 53.5273 141.754 53.354C141.771 53.1633 141.815 53.0073 141.884 52.886C142.109 52.4007 142.283 51.9933 142.404 51.664C142.525 51.3173 142.621 50.884 142.69 50.364C142.777 49.74 142.647 49.2287 142.3 48.83C142.127 48.622 141.875 48.4573 141.546 48.336C141.234 48.2147 140.931 48.1627 140.636 48.18C140.307 48.1973 139.96 48.2147 139.596 48.232C139.249 48.2493 138.79 48.2667 138.218 48.284C137.958 48.284 137.672 48.284 137.36 48.284C137.048 48.284 136.745 48.2753 136.45 48.258C136.155 48.2407 135.878 48.2147 135.618 48.18C135.358 48.128 135.141 48.076 134.968 48.024C134.725 47.9373 134.621 47.8073 134.656 47.634C134.708 47.4433 134.907 47.2527 135.254 47.062ZM141.884 62.012C141.364 61.8213 140.827 61.752 140.272 61.804C139.735 61.8387 139.232 61.9427 138.764 62.116V66.458H141.832C142.127 66.094 142.378 65.7387 142.586 65.392C142.811 65.0453 142.993 64.6553 143.132 64.222C143.323 63.6673 143.288 63.208 143.028 62.844C142.768 62.48 142.387 62.2027 141.884 62.012ZM180.889 55.46C181.236 55.46 181.409 55.5467 181.409 55.72C181.409 55.876 181.245 56.058 180.915 56.266C180.673 56.422 180.439 56.5867 180.213 56.76C180.005 56.9333 179.806 57.1153 179.615 57.306C179.373 57.5487 178.939 57.67 178.315 57.67H161.415C161.259 57.67 161.129 57.644 161.025 57.592C160.921 57.54 160.869 57.4707 160.869 57.384C160.869 57.2973 160.939 57.2107 161.077 57.124C161.216 57.02 161.355 56.9247 161.493 56.838C161.632 56.7513 161.805 56.6213 162.013 56.448C162.221 56.2747 162.421 56.1013 162.611 55.928C162.941 55.616 163.469 55.46 164.197 55.46H180.889ZM166.459 47.062C166.65 46.958 166.858 46.828 167.083 46.672C167.326 46.516 167.534 46.3687 167.707 46.23C167.898 46.0913 168.08 46.0047 168.253 45.97C168.444 45.918 168.704 45.9093 169.033 45.944C169.328 45.9787 169.666 46.0047 170.047 46.022C170.429 46.0393 170.931 46.0393 171.555 46.022C171.902 46.0047 172.327 45.9787 172.829 45.944C173.332 45.9093 173.887 45.8747 174.493 45.84C174.805 45.8227 175.135 45.8573 175.481 45.944C175.828 46.0307 176.097 46.1693 176.287 46.36C176.599 46.6893 176.781 47.1227 176.833 47.66C176.903 48.1973 176.868 48.7867 176.729 49.428C176.573 50.104 176.296 50.7713 175.897 51.43C175.516 52.0713 174.875 52.7473 173.973 53.458C173.783 53.5967 173.601 53.692 173.427 53.744C173.254 53.796 173.133 53.796 173.063 53.744C172.977 53.6573 172.942 53.5273 172.959 53.354C172.977 53.1633 173.02 53.0073 173.089 52.886C173.315 52.4007 173.488 51.9933 173.609 51.664C173.731 51.3173 173.826 50.884 173.895 50.364C173.982 49.74 173.852 49.2287 173.505 48.83C173.332 48.622 173.081 48.4573 172.751 48.336C172.439 48.2147 172.136 48.1627 171.841 48.18C171.512 48.1973 171.165 48.2147 170.801 48.232C170.455 48.2493 169.995 48.2667 169.423 48.284C169.163 48.284 168.877 48.284 168.565 48.284C168.253 48.284 167.95 48.2753 167.655 48.258C167.361 48.2407 167.083 48.2147 166.823 48.18C166.563 48.128 166.347 48.076 166.173 48.024C165.931 47.9373 165.827 47.8073 165.861 47.634C165.913 47.4433 166.113 47.2527 166.459 47.062ZM214.122 44.618C214.434 44.3927 214.686 44.332 214.876 44.436C215.067 44.5227 215.162 44.7827 215.162 45.216V62.09C215.162 62.4887 215.058 62.792 214.85 63C214.694 63.156 214.486 63.3467 214.226 63.572C213.984 63.7973 213.689 64.04 213.342 64.3C213.117 64.4733 212.892 64.508 212.666 64.404C212.458 64.3173 212.354 64.1093 212.354 63.78V56.552C212.181 56.6733 212.025 56.7947 211.886 56.916C211.748 57.0373 211.609 57.1673 211.47 57.306C211.228 57.5487 210.794 57.67 210.17 57.67H209.702V62.09C209.702 62.4887 209.598 62.792 209.39 63C209.234 63.156 209.026 63.3467 208.766 63.572C208.524 63.7973 208.229 64.04 207.882 64.3C207.657 64.4733 207.432 64.508 207.206 64.404C206.998 64.3173 206.894 64.1093 206.894 63.78V48.882C206.894 48.674 206.834 48.5527 206.712 48.518C206.608 48.4833 206.435 48.5527 206.192 48.726C206.036 48.8473 205.872 48.908 205.698 48.908C205.525 48.908 205.395 48.8473 205.308 48.726C205.204 48.5873 205.178 48.4313 205.23 48.258C205.3 48.0847 205.43 47.9287 205.62 47.79L208.662 45.658C208.974 45.4327 209.226 45.372 209.416 45.476C209.607 45.5627 209.702 45.8227 209.702 46.256V55.46H212.354V47.842C212.354 47.634 212.294 47.5127 212.172 47.478C212.068 47.4433 211.895 47.5127 211.652 47.686C211.496 47.8073 211.332 47.868 211.158 47.868C210.985 47.868 210.855 47.8073 210.768 47.686C210.664 47.5473 210.638 47.3913 210.69 47.218C210.76 47.0447 210.89 46.8887 211.08 46.75L214.122 44.618ZM200.238 52.6H200.29H204.71C205.057 52.6 205.23 52.6867 205.23 52.86C205.23 53.016 205.066 53.198 204.736 53.406C204.494 53.562 204.26 53.7267 204.034 53.9C203.826 54.0733 203.627 54.2553 203.436 54.446C203.194 54.6887 202.76 54.81 202.136 54.81H200.68C200.403 55.1913 200.23 55.6073 200.16 56.058C200.091 56.5087 200.126 56.942 200.264 57.358C200.455 57.9127 200.767 58.3633 201.2 58.71C201.651 59.0567 202.102 59.2473 202.552 59.282C203.055 59.3167 203.48 59.256 203.826 59.1C204.19 58.944 204.546 58.7013 204.892 58.372C205.118 58.1467 205.326 58.0947 205.516 58.216C205.62 58.2853 205.672 58.3807 205.672 58.502C205.69 58.606 205.672 58.71 205.62 58.814C205.412 59.23 205.196 59.6027 204.97 59.932C204.762 60.2613 204.52 60.556 204.242 60.816C203.982 61.0587 203.679 61.2667 203.332 61.44C203.003 61.596 202.613 61.7 202.162 61.752C201.001 61.908 199.996 61.6307 199.146 60.92C198.644 61.3707 197.985 61.648 197.17 61.752C196.234 61.8733 195.402 61.726 194.674 61.31C193.964 60.8767 193.383 60.2093 192.932 59.308C192.742 58.944 192.62 58.5973 192.568 58.268C192.516 57.9213 192.508 57.6093 192.542 57.332C192.577 57.0373 192.638 56.786 192.724 56.578C192.811 56.3527 192.906 56.162 193.01 56.006C193.097 55.8673 193.262 55.6853 193.504 55.46C193.764 55.2173 194.042 55.0007 194.336 54.81H192.516C192.36 54.81 192.23 54.784 192.126 54.732C192.022 54.68 191.97 54.6107 191.97 54.524C191.97 54.4373 192.04 54.3507 192.178 54.264C192.317 54.16 192.456 54.0647 192.594 53.978C192.733 53.8913 192.906 53.7613 193.114 53.588C193.322 53.4147 193.522 53.2413 193.712 53.068C194.042 52.756 194.57 52.6 195.298 52.6H200.238ZM197.508 54.81H197.404H195.688C195.411 55.1913 195.238 55.6073 195.168 56.058C195.099 56.5087 195.134 56.942 195.272 57.358C195.463 57.9127 195.775 58.3633 196.208 58.71C196.659 59.0567 197.11 59.2473 197.56 59.282H197.898C197.725 58.918 197.612 58.5713 197.56 58.242C197.508 57.9127 197.5 57.6093 197.534 57.332C197.569 57.0373 197.63 56.786 197.716 56.578C197.803 56.3527 197.898 56.162 198.002 56.006C198.089 55.8673 198.254 55.6853 198.496 55.46C198.756 55.2173 199.034 55.0007 199.328 54.81H197.872H197.664H197.508ZM222.291 65.652C222.551 65.392 222.846 65.1667 223.175 64.976C223.401 64.8027 223.617 64.6293 223.825 64.456C224.051 64.2827 224.198 64.1787 224.267 64.144C224.371 64.0573 224.527 63.988 224.735 63.936C224.943 63.9013 225.143 63.884 225.333 63.884H229.363C229.537 63.3987 229.641 62.9913 229.675 62.662C229.693 62.5233 229.684 62.3933 229.649 62.272C229.632 62.1333 229.58 62.0207 229.493 61.934C229.355 61.7953 229.129 61.7173 228.817 61.7C228.523 61.6827 228.263 61.6827 228.037 61.7C227.795 61.7173 227.535 61.7347 227.257 61.752C226.997 61.7693 226.651 61.7867 226.217 61.804C225.957 61.804 225.671 61.804 225.359 61.804C225.047 61.804 224.744 61.7953 224.449 61.778C224.155 61.7607 223.877 61.7347 223.617 61.7C223.357 61.648 223.141 61.596 222.967 61.544C222.725 61.4573 222.621 61.3273 222.655 61.154C222.707 60.9633 222.907 60.7727 223.253 60.582C223.444 60.478 223.652 60.348 223.877 60.192C224.12 60.036 224.328 59.8887 224.501 59.75C224.692 59.6113 224.874 59.516 225.047 59.464C225.238 59.412 225.498 59.412 225.827 59.464C226.053 59.4987 226.321 59.5333 226.633 59.568C226.963 59.5853 227.361 59.5853 227.829 59.568C228.089 59.5507 228.41 59.5247 228.791 59.49C229.173 59.4553 229.589 59.4207 230.039 59.386C230.438 59.3513 230.802 59.3947 231.131 59.516C231.461 59.62 231.712 59.7413 231.885 59.88C232.18 60.14 232.353 60.4087 232.405 60.686C232.475 60.946 232.44 61.3447 232.301 61.882C232.215 62.2287 232.085 62.5667 231.911 62.896C231.755 63.208 231.53 63.5373 231.235 63.884H232.041C232.128 63.884 232.232 63.8927 232.353 63.91C232.492 63.9273 232.587 63.962 232.639 64.014C232.709 64.0833 232.743 64.1353 232.743 64.17C232.743 64.222 232.691 64.3 232.587 64.404C232.535 64.456 232.423 64.5513 232.249 64.69C232.076 64.846 231.885 65.002 231.677 65.158C231.487 65.314 231.305 65.4613 231.131 65.6C230.958 65.7387 230.837 65.8253 230.767 65.86C230.629 65.9467 230.499 66.0073 230.377 66.042C230.273 66.0767 230.1 66.094 229.857 66.094H226.061C226.373 66.6487 226.685 67.1253 226.997 67.524C227.309 67.9227 227.743 68.252 228.297 68.512C228.8 68.7373 229.346 68.8153 229.935 68.746C230.525 68.6767 231.235 68.3387 232.067 67.732C232.327 67.5587 232.509 67.524 232.613 67.628C232.683 67.6973 232.7 67.7927 232.665 67.914C232.631 68.0353 232.561 68.1653 232.457 68.304C231.903 68.98 231.348 69.5087 230.793 69.89C230.256 70.2887 229.727 70.566 229.207 70.722C228.687 70.878 228.185 70.9213 227.699 70.852C227.214 70.8 226.755 70.6613 226.321 70.436C225.767 70.1413 225.264 69.734 224.813 69.214C224.363 68.694 223.981 68.122 223.669 67.498C223.479 67.1167 223.305 66.8653 223.149 66.744C223.011 66.64 222.846 66.5967 222.655 66.614C222.343 66.6487 222.135 66.588 222.031 66.432C221.979 66.328 221.979 66.198 222.031 66.042C222.083 65.886 222.17 65.756 222.291 65.652ZM222.135 48.856C222.257 48.7693 222.378 48.674 222.499 48.57C222.621 48.466 222.768 48.3707 222.941 48.284C223.149 48.1107 223.357 47.946 223.565 47.79C223.773 47.6167 223.912 47.5127 223.981 47.478C224.085 47.3913 224.241 47.3307 224.449 47.296C224.657 47.244 224.857 47.218 225.047 47.218H229.129C229.181 47.0793 229.225 46.932 229.259 46.776C229.294 46.6027 229.329 46.412 229.363 46.204C229.398 45.9613 229.407 45.736 229.389 45.528C229.389 45.32 229.329 45.1293 229.207 44.956C229.086 44.7827 228.869 44.696 228.557 44.696C228.245 44.696 227.977 44.7047 227.751 44.722C227.509 44.7393 227.249 44.7567 226.971 44.774C226.711 44.7913 226.365 44.8087 225.931 44.826C225.671 44.826 225.385 44.826 225.073 44.826C224.761 44.826 224.458 44.8173 224.163 44.8C223.869 44.7827 223.591 44.7567 223.331 44.722C223.071 44.67 222.855 44.618 222.681 44.566C222.439 44.4793 222.335 44.3493 222.369 44.176C222.421 43.9853 222.621 43.7947 222.967 43.604C223.158 43.5 223.366 43.37 223.591 43.214C223.834 43.058 224.042 42.9107 224.215 42.772C224.406 42.6333 224.588 42.538 224.761 42.486C224.952 42.434 225.212 42.434 225.541 42.486C225.767 42.5207 226.035 42.5553 226.347 42.59C226.677 42.6073 227.075 42.6073 227.543 42.59C227.803 42.5727 228.124 42.5467 228.505 42.512C228.887 42.4773 229.303 42.4427 229.753 42.408C229.875 42.408 230.022 42.4167 230.195 42.434C230.369 42.4513 230.542 42.486 230.715 42.538C230.906 42.59 231.079 42.6507 231.235 42.72C231.391 42.772 231.513 42.8327 231.599 42.902C231.894 43.162 232.067 43.5173 232.119 43.968C232.189 44.4013 232.154 44.8867 232.015 45.424C231.929 45.736 231.816 46.0393 231.677 46.334C231.539 46.6287 231.348 46.9233 231.105 47.218H231.755C231.842 47.218 231.946 47.2267 232.067 47.244C232.206 47.2613 232.301 47.296 232.353 47.348C232.423 47.4173 232.457 47.478 232.457 47.53C232.457 47.5647 232.405 47.634 232.301 47.738C232.249 47.79 232.137 47.894 231.963 48.05C231.79 48.1887 231.599 48.336 231.391 48.492C231.201 48.648 231.019 48.7953 230.845 48.934C230.672 49.0727 230.551 49.1593 230.481 49.194C230.343 49.2807 230.213 49.3413 230.091 49.376C229.987 49.4107 229.814 49.428 229.571 49.428H225.957C226.235 49.8787 226.521 50.2687 226.815 50.598C227.11 50.9273 227.526 51.196 228.063 51.404C228.549 51.5947 229.095 51.664 229.701 51.612C230.308 51.56 231.019 51.2567 231.833 50.702C232.093 50.546 232.275 50.52 232.379 50.624C232.449 50.676 232.466 50.7627 232.431 50.884C232.397 50.988 232.327 51.1007 232.223 51.222C231.114 52.418 230.031 53.1373 228.973 53.38C227.933 53.6053 226.971 53.5187 226.087 53.12C225.533 52.86 225.03 52.496 224.579 52.028C224.129 51.56 223.747 51.0487 223.435 50.494C223.245 50.1473 223.089 49.9307 222.967 49.844C222.846 49.74 222.69 49.6967 222.499 49.714C222.187 49.7487 221.979 49.6967 221.875 49.558C221.823 49.454 221.823 49.3327 221.875 49.194C221.927 49.0553 222.014 48.9427 222.135 48.856ZM236.799 55.46C237.146 55.46 237.319 55.5467 237.319 55.72C237.319 55.876 237.155 56.058 236.825 56.266C236.583 56.422 236.349 56.5867 236.123 56.76C235.915 56.9333 235.716 57.1153 235.525 57.306C235.283 57.5487 234.849 57.67 234.225 57.67H217.325C217.169 57.67 217.039 57.644 216.935 57.592C216.831 57.54 216.779 57.4707 216.779 57.384C216.779 57.2973 216.849 57.2107 216.987 57.124C217.126 57.02 217.265 56.9247 217.403 56.838C217.542 56.7513 217.715 56.6213 217.923 56.448C218.131 56.2747 218.331 56.1013 218.521 55.928C218.851 55.616 219.379 55.46 220.107 55.46H236.799ZM252.826 52.86C253.172 52.86 253.346 52.9467 253.346 53.12C253.346 53.276 253.181 53.458 252.852 53.666C252.609 53.822 252.375 53.9867 252.15 54.16C251.942 54.3333 251.742 54.5153 251.552 54.706C251.309 54.9487 250.876 55.07 250.252 55.07H248.796C248.518 55.4513 248.345 55.8673 248.276 56.318C248.206 56.7687 248.241 57.202 248.38 57.618C248.57 58.1727 248.882 58.6233 249.316 58.97C249.766 59.3167 250.217 59.5073 250.668 59.542C251.17 59.5767 251.595 59.516 251.942 59.36C252.306 59.204 252.661 58.9613 253.008 58.632C253.233 58.4067 253.441 58.3547 253.632 58.476C253.736 58.5453 253.788 58.6407 253.788 58.762C253.805 58.866 253.788 58.97 253.736 59.074C253.528 59.49 253.311 59.8627 253.086 60.192C252.878 60.5213 252.635 60.816 252.358 61.076C252.098 61.3187 251.794 61.5267 251.448 61.7C251.118 61.856 250.728 61.96 250.278 62.012C249.116 62.168 248.111 61.8907 247.262 61.18C246.759 61.6307 246.1 61.908 245.286 62.012C244.35 62.1333 243.518 61.986 242.79 61.57C242.079 61.1367 241.498 60.4693 241.048 59.568C240.857 59.204 240.736 58.8573 240.684 58.528C240.632 58.1813 240.623 57.8693 240.658 57.592C240.692 57.2973 240.753 57.046 240.84 56.838C240.926 56.6127 241.022 56.422 241.126 56.266C241.212 56.1273 241.377 55.9453 241.62 55.72C241.88 55.4773 242.157 55.2607 242.452 55.07H240.632C240.476 55.07 240.346 55.044 240.242 54.992C240.138 54.94 240.086 54.8707 240.086 54.784C240.086 54.6973 240.155 54.6107 240.294 54.524C240.432 54.42 240.571 54.3247 240.71 54.238C240.848 54.1513 241.022 54.0213 241.23 53.848C241.438 53.6747 241.637 53.5013 241.828 53.328C242.157 53.016 242.686 52.86 243.414 52.86H248.354H248.406H252.826ZM258.234 45.658C258.546 45.4327 258.797 45.372 258.988 45.476C259.178 45.5627 259.274 45.8227 259.274 46.256V61.804C259.274 62.2027 259.17 62.506 258.962 62.714C258.806 62.87 258.546 63.104 258.182 63.416C257.818 63.7453 257.462 64.04 257.116 64.3C256.89 64.4733 256.665 64.508 256.44 64.404C256.232 64.3173 256.128 64.1093 256.128 63.78V57.67H252.436C252.193 57.67 252.028 57.6613 251.942 57.644C251.872 57.6267 251.794 57.5747 251.708 57.488C251.621 57.4013 251.604 57.3233 251.656 57.254C251.725 57.1847 251.829 57.098 251.968 56.994C252.054 56.942 252.176 56.8553 252.332 56.734C252.505 56.5953 252.678 56.4567 252.852 56.318C253.042 56.1793 253.207 56.058 253.346 55.954C253.502 55.8327 253.606 55.7547 253.658 55.72C253.762 55.6333 253.918 55.5727 254.126 55.538C254.334 55.486 254.533 55.46 254.724 55.46H256.128V49.168C256.128 48.96 256.067 48.8387 255.946 48.804C255.842 48.7693 255.668 48.8387 255.426 49.012C255.27 49.1333 255.105 49.194 254.932 49.194C254.758 49.194 254.628 49.1333 254.542 49.012C254.438 48.8733 254.412 48.7173 254.464 48.544C254.533 48.3707 254.663 48.2147 254.854 48.076L258.234 45.658ZM243.804 55.07C243.526 55.4513 243.353 55.8673 243.284 56.318C243.214 56.7687 243.249 57.202 243.388 57.618C243.578 58.1727 243.89 58.6233 244.324 58.97C244.774 59.3167 245.225 59.5073 245.676 59.542H246.014C245.84 59.178 245.728 58.8313 245.676 58.502C245.624 58.1727 245.615 57.8693 245.65 57.592C245.684 57.2973 245.745 57.046 245.832 56.838C245.918 56.6127 246.014 56.422 246.118 56.266C246.204 56.1273 246.369 55.9453 246.612 55.72C246.872 55.4773 247.149 55.2607 247.444 55.07H243.804ZM269.944 50.39C269.614 49.9567 269.398 49.4887 269.294 48.986C269.207 48.466 269.242 47.9373 269.398 47.4C269.554 46.8627 269.848 46.334 270.282 45.814C270.715 45.2767 271.296 44.7567 272.024 44.254C272.665 43.8033 273.298 43.5087 273.922 43.37C274.546 43.214 275.135 43.1793 275.69 43.266C276.244 43.3527 276.756 43.552 277.224 43.864C277.692 44.176 278.099 44.566 278.446 45.034C278.81 45.5367 279.026 46.0653 279.096 46.62C279.182 47.1573 279.13 47.6947 278.94 48.232C278.749 48.7693 278.437 49.2893 278.004 49.792C277.57 50.2947 277.024 50.754 276.366 51.17C276.002 51.3953 275.646 51.586 275.3 51.742C275.369 51.8807 275.404 52.0107 275.404 52.132V54.004C275.404 54.4027 275.3 54.706 275.092 54.914C275.005 55.0007 274.918 55.0873 274.832 55.174C274.745 55.2607 274.632 55.356 274.494 55.46H283.62C283.966 55.46 284.14 55.5467 284.14 55.72C284.14 55.876 283.975 56.058 283.646 56.266C283.403 56.422 283.169 56.5867 282.944 56.76C282.736 56.9333 282.536 57.1153 282.346 57.306C282.103 57.5487 281.67 57.67 281.046 57.67H264.146C263.99 57.67 263.86 57.644 263.756 57.592C263.652 57.54 263.6 57.4707 263.6 57.384C263.6 57.2973 263.669 57.2107 263.808 57.124C263.946 57.02 264.085 56.9247 264.224 56.838C264.362 56.7513 264.536 56.6213 264.744 56.448C264.952 56.2747 265.151 56.1013 265.342 55.928C265.671 55.616 266.2 55.46 266.928 55.46H272.596V53.822C272.596 53.4233 272.7 53.12 272.908 52.912C273.116 52.704 273.402 52.444 273.766 52.132C272.986 52.2013 272.266 52.0887 271.608 51.794C270.966 51.4993 270.412 51.0313 269.944 50.39ZM269.112 65.652C269.112 65.6173 269.129 65.6 269.164 65.6V65.574C269.285 65.47 269.406 65.366 269.528 65.262C269.666 65.158 269.822 65.0627 269.996 64.976C270.221 64.8027 270.438 64.6293 270.646 64.456C270.871 64.2827 271.018 64.1787 271.088 64.144C271.192 64.0573 271.348 63.988 271.556 63.936C271.764 63.9013 271.963 63.884 272.154 63.884H276.184C276.357 63.3987 276.461 62.9913 276.496 62.662C276.513 62.5233 276.504 62.3933 276.47 62.272C276.452 62.1333 276.4 62.0207 276.314 61.934C276.175 61.7953 275.95 61.7173 275.638 61.7C275.343 61.6827 275.083 61.6827 274.858 61.7C274.615 61.7173 274.355 61.7347 274.078 61.752C273.818 61.7693 273.471 61.7867 273.038 61.804C272.778 61.804 272.492 61.804 272.18 61.804C271.868 61.804 271.564 61.7953 271.27 61.778C270.975 61.7607 270.698 61.7347 270.438 61.7C270.178 61.648 269.961 61.596 269.788 61.544C269.545 61.4573 269.441 61.3273 269.476 61.154C269.528 60.9633 269.727 60.7727 270.074 60.582C270.264 60.478 270.472 60.348 270.698 60.192C270.94 60.036 271.148 59.8887 271.322 59.75C271.512 59.6113 271.694 59.516 271.868 59.464C272.058 59.412 272.318 59.412 272.648 59.464C272.873 59.4987 273.142 59.5333 273.454 59.568C273.783 59.5853 274.182 59.5853 274.65 59.568C274.91 59.5507 275.23 59.5247 275.612 59.49C275.993 59.4553 276.409 59.4207 276.86 59.386C277.258 59.3513 277.622 59.3947 277.952 59.516C278.281 59.62 278.532 59.7413 278.706 59.88C279 60.14 279.174 60.4087 279.226 60.686C279.295 60.946 279.26 61.3447 279.122 61.882C279.035 62.2287 278.905 62.5667 278.732 62.896C278.576 63.208 278.35 63.5373 278.056 63.884H278.862C278.948 63.884 279.052 63.8927 279.174 63.91C279.312 63.9273 279.408 63.962 279.46 64.014C279.529 64.0833 279.564 64.1353 279.564 64.17C279.564 64.222 279.512 64.3 279.408 64.404C279.356 64.456 279.243 64.5513 279.07 64.69C278.896 64.846 278.706 65.002 278.498 65.158C278.307 65.314 278.125 65.4613 277.952 65.6C277.778 65.7387 277.657 65.8253 277.588 65.86C277.449 65.9467 277.319 66.0073 277.198 66.042C277.094 66.0767 276.92 66.094 276.678 66.094H272.882C273.194 66.6487 273.506 67.1253 273.818 67.524C274.13 67.9227 274.563 68.252 275.118 68.512C275.62 68.7373 276.166 68.8153 276.756 68.746C277.345 68.6767 278.056 68.3387 278.888 67.732C279.148 67.5587 279.33 67.524 279.434 67.628C279.503 67.6973 279.52 67.7927 279.486 67.914C279.451 68.0353 279.382 68.1653 279.278 68.304C278.723 68.98 278.168 69.5087 277.614 69.89C277.076 70.2887 276.548 70.566 276.028 70.722C275.508 70.878 275.005 70.9213 274.52 70.852C274.034 70.8 273.575 70.6613 273.142 70.436C272.587 70.1413 272.084 69.734 271.634 69.214C271.183 68.694 270.802 68.122 270.49 67.498C270.299 67.1167 270.126 66.8653 269.97 66.744C269.831 66.64 269.666 66.5967 269.476 66.614C269.164 66.6487 268.956 66.588 268.852 66.432C268.8 66.328 268.8 66.198 268.852 66.042C268.904 65.886 268.99 65.756 269.112 65.652ZM272.596 48.778C272.856 49.09 273.159 49.3413 273.506 49.532C273.852 49.7227 274.19 49.8613 274.52 49.948C274.866 50.0347 275.178 50.078 275.456 50.078C275.733 50.0607 275.924 50.0087 276.028 49.922C276.132 49.8527 276.227 49.6967 276.314 49.454C276.4 49.2113 276.444 48.9253 276.444 48.596C276.461 48.2493 276.418 47.894 276.314 47.53C276.21 47.1487 276.028 46.7933 275.768 46.464C275.49 46.152 275.17 45.9007 274.806 45.71C274.442 45.502 274.078 45.3547 273.714 45.268C273.367 45.1813 273.046 45.138 272.752 45.138C272.457 45.138 272.258 45.1727 272.154 45.242C272.05 45.3287 271.963 45.502 271.894 45.762C271.824 46.0047 271.798 46.2993 271.816 46.646C271.833 46.9753 271.902 47.3307 272.024 47.712C272.145 48.0933 272.336 48.4487 272.596 48.778ZM288.232 56.994C288.232 56.994 288.249 56.9853 288.284 56.968C288.371 56.8987 288.449 56.838 288.518 56.786C288.605 56.7167 288.7 56.6473 288.804 56.578L289.922 55.72C290.026 55.6333 290.182 55.5727 290.39 55.538C290.598 55.486 290.797 55.46 290.988 55.46H295.07C295.122 55.3213 295.165 55.174 295.2 55.018C295.235 54.8447 295.269 54.654 295.304 54.446C295.339 54.2033 295.347 53.978 295.33 53.77C295.33 53.562 295.269 53.3713 295.148 53.198C295.027 53.0247 294.81 52.938 294.498 52.938C294.186 52.938 293.917 52.9467 293.692 52.964C293.449 52.9813 293.189 52.9987 292.912 53.016C292.652 53.0333 292.305 53.0507 291.872 53.068C291.612 53.068 291.326 53.068 291.014 53.068C290.702 53.068 290.399 53.0593 290.104 53.042C289.809 53.0247 289.532 52.9987 289.272 52.964C289.012 52.912 288.795 52.86 288.622 52.808C288.379 52.7213 288.275 52.5913 288.31 52.418C288.362 52.2273 288.561 52.0367 288.908 51.846C289.099 51.742 289.307 51.612 289.532 51.456C289.775 51.3 289.983 51.1527 290.156 51.014C290.347 50.8753 290.529 50.78 290.702 50.728C290.893 50.676 291.153 50.676 291.482 50.728C291.707 50.7627 291.976 50.7973 292.288 50.832C292.617 50.8493 293.016 50.8493 293.484 50.832C293.744 50.8147 294.065 50.7887 294.446 50.754C294.827 50.7193 295.243 50.6847 295.694 50.65C295.815 50.65 295.963 50.6587 296.136 50.676C296.309 50.6933 296.483 50.728 296.656 50.78C296.847 50.832 297.02 50.8927 297.176 50.962C297.332 51.014 297.453 51.0747 297.54 51.144C297.835 51.404 298.008 51.7593 298.06 52.21C298.129 52.6433 298.095 53.1287 297.956 53.666C297.869 53.978 297.757 54.2813 297.618 54.576C297.479 54.8707 297.289 55.1653 297.046 55.46H297.696C297.783 55.46 297.887 55.4687 298.008 55.486C298.147 55.5033 298.242 55.538 298.294 55.59C298.363 55.6593 298.398 55.72 298.398 55.772C298.398 55.8067 298.346 55.876 298.242 55.98C298.19 56.032 298.077 56.136 297.904 56.292C297.731 56.4307 297.54 56.578 297.332 56.734C297.141 56.89 296.959 57.0373 296.786 57.176C296.613 57.3147 296.491 57.4013 296.422 57.436C296.283 57.5227 296.153 57.5833 296.032 57.618C295.928 57.6527 295.755 57.67 295.512 57.67H291.716C292.028 58.242 292.34 58.7273 292.652 59.126C292.964 59.5247 293.397 59.8453 293.952 60.088C294.455 60.3133 295.001 60.3913 295.59 60.322C296.179 60.2527 296.89 59.9147 297.722 59.308C297.982 59.1347 298.164 59.1 298.268 59.204C298.337 59.2733 298.355 59.3687 298.32 59.49C298.285 59.6113 298.216 59.7413 298.112 59.88C297.557 60.556 297.003 61.0933 296.448 61.492C295.911 61.8733 295.382 62.142 294.862 62.298C294.342 62.454 293.839 62.506 293.354 62.454C292.869 62.3847 292.409 62.2373 291.976 62.012C291.421 61.7173 290.919 61.31 290.468 60.79C290.017 60.27 289.636 59.698 289.324 59.074C289.133 58.6927 288.977 58.45 288.856 58.346C288.735 58.2247 288.579 58.1727 288.388 58.19C288.076 58.2247 287.868 58.164 287.764 58.008C287.712 57.9213 287.695 57.8173 287.712 57.696C287.747 57.5747 287.807 57.462 287.894 57.358C287.894 57.2887 288.007 57.1673 288.232 56.994ZM305.054 45.658C305.366 45.4327 305.617 45.372 305.808 45.476C305.999 45.5627 306.094 45.8227 306.094 46.256V61.804C306.094 62.2027 305.99 62.506 305.782 62.714C305.626 62.87 305.366 63.104 305.002 63.416C304.638 63.7453 304.283 64.04 303.936 64.3C303.711 64.4733 303.485 64.508 303.26 64.404C303.052 64.3173 302.948 64.1093 302.948 63.78V49.168C302.948 48.96 302.887 48.8387 302.766 48.804C302.662 48.7693 302.489 48.8387 302.246 49.012C302.09 49.1333 301.925 49.194 301.752 49.194C301.579 49.194 301.449 49.1333 301.362 49.012C301.258 48.8733 301.232 48.7173 301.284 48.544C301.353 48.3707 301.483 48.2147 301.674 48.076L305.054 45.658ZM314.84 53.276C315.689 52.4267 316.521 51.872 317.336 51.612C318.151 51.352 318.809 51.326 319.312 51.534C320.04 51.8287 320.499 52.288 320.69 52.912C320.898 53.5187 320.881 54.2813 320.638 55.2C320.43 55.9627 320.127 56.6647 319.728 57.306C319.347 57.93 318.922 58.4673 318.454 58.918H320.742C321.089 58.918 321.262 59.0047 321.262 59.178C321.262 59.334 321.097 59.516 320.768 59.724C320.525 59.88 320.291 60.0447 320.066 60.218C319.858 60.3913 319.659 60.5733 319.468 60.764C319.225 61.0067 318.792 61.128 318.168 61.128H313.904C313.8 61.2147 313.687 61.31 313.566 61.414C313.462 61.5007 313.341 61.596 313.202 61.7C312.977 61.8733 312.751 61.9167 312.526 61.83C312.318 61.726 312.214 61.5093 312.214 61.18V54.03C312.214 53.822 312.153 53.7007 312.032 53.666C311.928 53.6313 311.755 53.7007 311.512 53.874C311.356 53.9953 311.191 54.056 311.018 54.056C310.845 54.056 310.715 53.9953 310.628 53.874C310.524 53.7353 310.498 53.5793 310.55 53.406C310.619 53.2327 310.749 53.0767 310.94 52.938L313.8 50.91C314.112 50.6847 314.363 50.624 314.554 50.728C314.745 50.8147 314.84 51.0747 314.84 51.508V53.276ZM322.276 55.486C322.363 55.434 322.484 55.3473 322.64 55.226C322.813 55.0873 322.987 54.9487 323.16 54.81C323.351 54.6713 323.515 54.55 323.654 54.446C323.81 54.3247 323.914 54.2467 323.966 54.212C324.07 54.1253 324.226 54.0647 324.434 54.03C324.642 53.978 324.841 53.952 325.032 53.952H326.358V52.6C326.358 52.392 326.297 52.2707 326.176 52.236C326.072 52.2013 325.899 52.2707 325.656 52.444C325.5 52.5653 325.335 52.626 325.162 52.626C324.989 52.626 324.859 52.5653 324.772 52.444C324.668 52.3053 324.642 52.1493 324.694 51.976C324.763 51.8027 324.893 51.6467 325.084 51.508L328.464 49.09C328.776 48.8647 329.027 48.804 329.218 48.908C329.409 48.9947 329.504 49.2547 329.504 49.688V61.804C329.504 62.2027 329.4 62.506 329.192 62.714C329.036 62.87 328.776 63.104 328.412 63.416C328.048 63.7453 327.693 64.04 327.346 64.3C327.121 64.4733 326.895 64.508 326.67 64.404C326.462 64.3173 326.358 64.1093 326.358 63.78V60.322H322.744C322.501 60.322 322.337 60.3133 322.25 60.296C322.181 60.2787 322.103 60.2267 322.016 60.14C321.929 60.0533 321.912 59.9753 321.964 59.906C322.033 59.8367 322.137 59.75 322.276 59.646C322.363 59.594 322.484 59.5073 322.64 59.386C322.813 59.2473 322.987 59.1087 323.16 58.97C323.351 58.8313 323.515 58.71 323.654 58.606C323.81 58.4847 323.914 58.4067 323.966 58.372C324.07 58.2853 324.226 58.2247 324.434 58.19C324.642 58.138 324.841 58.112 325.032 58.112H326.358V56.162H322.744C322.501 56.162 322.337 56.1533 322.25 56.136C322.181 56.1187 322.103 56.0667 322.016 55.98C321.929 55.8933 321.912 55.8153 321.964 55.746C322.033 55.6767 322.137 55.59 322.276 55.486ZM317.128 65.782C317.371 65.5393 317.648 65.3053 317.96 65.08C318.289 64.8547 318.749 64.6553 319.338 64.482C319.702 64.378 319.997 64.404 320.222 64.56C320.482 64.716 320.742 65.0367 321.002 65.522C321.47 66.406 321.981 67.108 322.536 67.628C323.108 68.1653 323.663 68.5293 324.2 68.72C324.945 68.98 325.743 69.0753 326.592 69.006C327.441 68.954 328.273 68.6247 329.088 68.018C329.227 67.914 329.348 67.862 329.452 67.862C329.556 67.862 329.634 67.888 329.686 67.94C329.877 68.1307 329.825 68.3733 329.53 68.668C328.975 69.2053 328.395 69.656 327.788 70.02C327.199 70.4013 326.601 70.696 325.994 70.904C325.387 71.112 324.781 71.2247 324.174 71.242C323.585 71.2767 323.03 71.216 322.51 71.06C321.626 70.8 320.855 70.3927 320.196 69.838C319.537 69.2833 319.017 68.642 318.636 67.914C318.411 67.4807 318.229 67.1947 318.09 67.056C317.951 66.9347 317.769 66.8827 317.544 66.9C317.388 66.9173 317.241 66.9087 317.102 66.874C316.981 66.8393 316.894 66.7787 316.842 66.692C316.773 66.5707 316.764 66.4233 316.816 66.25C316.885 66.0767 316.989 65.9207 317.128 65.782ZM317.05 53.692C316.651 53.5533 316.287 53.536 315.958 53.64C315.629 53.744 315.256 53.9607 314.84 54.29V58.918H316.374C316.599 58.6407 316.79 58.3807 316.946 58.138C317.119 57.8953 317.258 57.6613 317.362 57.436C317.483 57.1933 317.587 56.9507 317.674 56.708C317.761 56.4653 317.83 56.1967 317.882 55.902C318.003 55.3473 318.021 54.888 317.934 54.524C317.847 54.16 317.553 53.8827 317.05 53.692ZM359.669 45.658C359.981 45.4327 360.232 45.372 360.423 45.476C360.614 45.5627 360.709 45.8227 360.709 46.256V61.804C360.709 62.2027 360.605 62.506 360.397 62.714C360.241 62.87 359.981 63.104 359.617 63.416C359.253 63.7453 358.898 64.04 358.551 64.3C358.326 64.4733 358.1 64.508 357.875 64.404C357.667 64.3173 357.563 64.1093 357.563 63.78V57.67H352.571C352.328 57.67 352.164 57.6613 352.077 57.644C352.008 57.6267 351.93 57.5747 351.843 57.488C351.756 57.4013 351.739 57.3233 351.791 57.254C351.86 57.1847 351.964 57.098 352.103 56.994C352.19 56.942 352.311 56.8553 352.467 56.734C352.64 56.5953 352.814 56.4567 352.987 56.318C353.178 56.1793 353.342 56.058 353.481 55.954C353.637 55.8327 353.741 55.7547 353.793 55.72C353.897 55.6333 354.053 55.5727 354.261 55.538C354.469 55.486 354.668 55.46 354.859 55.46H357.563V49.168C357.563 48.96 357.502 48.8387 357.381 48.804C357.277 48.7693 357.104 48.8387 356.861 49.012C356.705 49.1333 356.54 49.194 356.367 49.194C356.194 49.194 356.064 49.1333 355.977 49.012C355.873 48.8733 355.847 48.7173 355.899 48.544C355.968 48.3707 356.098 48.2147 356.289 48.076L359.669 45.658ZM342.431 59.438C342.102 59.0047 341.885 58.5367 341.781 58.034C341.694 57.514 341.729 56.9853 341.885 56.448C342.041 55.9107 342.336 55.382 342.769 54.862C343.202 54.3247 343.783 53.8047 344.511 53.302C345.152 52.8513 345.785 52.5567 346.409 52.418C347.033 52.262 347.622 52.2273 348.177 52.314C348.732 52.4007 349.243 52.6 349.711 52.912C350.179 53.224 350.586 53.614 350.933 54.082C351.297 54.5847 351.514 55.1133 351.583 55.668C351.67 56.2053 351.618 56.7427 351.427 57.28C351.236 57.8173 350.924 58.3373 350.491 58.84C350.058 59.3427 349.512 59.802 348.853 60.218C347.588 61.0153 346.383 61.336 345.239 61.18C344.095 61.0067 343.159 60.426 342.431 59.438ZM345.083 57.826C345.343 58.138 345.646 58.3893 345.993 58.58C346.34 58.7707 346.678 58.9093 347.007 58.996C347.354 59.0827 347.666 59.126 347.943 59.126C348.22 59.1087 348.411 59.0567 348.515 58.97C348.619 58.9007 348.714 58.7447 348.801 58.502C348.888 58.2593 348.931 57.9733 348.931 57.644C348.948 57.2973 348.905 56.942 348.801 56.578C348.697 56.1967 348.515 55.8413 348.255 55.512C347.978 55.2 347.657 54.9487 347.293 54.758C346.929 54.55 346.565 54.4027 346.201 54.316C345.854 54.2293 345.534 54.186 345.239 54.186C344.944 54.186 344.745 54.2207 344.641 54.29C344.537 54.3767 344.45 54.55 344.381 54.81C344.312 55.0527 344.286 55.3473 344.303 55.694C344.32 56.0233 344.39 56.3787 344.511 56.76C344.632 57.1413 344.823 57.4967 345.083 57.826ZM372.965 52.86H373.199H373.303H377.671C378.018 52.86 378.191 52.9467 378.191 53.12C378.191 53.276 378.027 53.458 377.697 53.666C377.455 53.822 377.221 53.9867 376.995 54.16C376.787 54.3333 376.588 54.5153 376.397 54.706C376.155 54.9487 375.721 55.07 375.097 55.07H373.641C373.364 55.4513 373.191 55.8673 373.121 56.318C373.052 56.7687 373.087 57.202 373.225 57.618C373.416 58.1727 373.728 58.6233 374.161 58.97C374.612 59.3167 375.063 59.5073 375.513 59.542C376.016 59.5767 376.441 59.516 376.787 59.36C377.151 59.204 377.507 58.9613 377.853 58.632C378.079 58.4067 378.287 58.3547 378.477 58.476C378.581 58.5453 378.633 58.6407 378.633 58.762C378.651 58.866 378.633 58.97 378.581 59.074C378.373 59.49 378.157 59.8627 377.931 60.192C377.723 60.5213 377.481 60.816 377.203 61.076C376.943 61.3187 376.64 61.5267 376.293 61.7C375.964 61.856 375.574 61.96 375.123 62.012C373.962 62.168 372.957 61.8907 372.107 61.18C371.605 61.6307 370.946 61.908 370.131 62.012C369.195 62.1333 368.363 61.986 367.635 61.57C366.925 61.1367 366.344 60.4693 365.893 59.568C365.703 59.204 365.581 58.8573 365.529 58.528C365.477 58.1813 365.469 57.8693 365.503 57.592C365.538 57.2973 365.599 57.046 365.685 56.838C365.772 56.6127 365.867 56.422 365.971 56.266C366.058 56.1273 366.223 55.9453 366.465 55.72C366.725 55.4773 367.003 55.2607 367.297 55.07H365.477C365.321 55.07 365.191 55.044 365.087 54.992C364.983 54.94 364.931 54.8707 364.931 54.784C364.931 54.6973 365.001 54.6107 365.139 54.524C365.278 54.42 365.417 54.3247 365.555 54.238C365.694 54.1513 365.867 54.0213 366.075 53.848C366.283 53.6747 366.483 53.5013 366.673 53.328C367.003 53.016 367.531 52.86 368.259 52.86H372.965ZM383.079 49.09C383.391 48.8647 383.643 48.804 383.833 48.908C384.024 48.9947 384.119 49.2547 384.119 49.688V61.804C384.119 62.2027 384.015 62.506 383.807 62.714C383.651 62.87 383.391 63.104 383.027 63.416C382.663 63.7453 382.308 64.04 381.961 64.3C381.736 64.4733 381.511 64.508 381.285 64.404C381.077 64.3173 380.973 64.1093 380.973 63.78V57.67H377.281C377.039 57.67 376.874 57.6613 376.787 57.644C376.718 57.6267 376.64 57.5747 376.553 57.488C376.467 57.4013 376.449 57.3233 376.501 57.254C376.571 57.1847 376.675 57.098 376.813 56.994C376.9 56.942 377.021 56.8553 377.177 56.734C377.351 56.5953 377.524 56.4567 377.697 56.318C377.888 56.1793 378.053 56.058 378.191 55.954C378.347 55.8327 378.451 55.7547 378.503 55.72C378.607 55.6333 378.763 55.5727 378.971 55.538C379.179 55.486 379.379 55.46 379.569 55.46H380.973V52.6C380.973 52.392 380.913 52.2707 380.791 52.236C380.687 52.2013 380.514 52.2707 380.271 52.444C380.115 52.5653 379.951 52.626 379.777 52.626C379.604 52.626 379.474 52.5653 379.387 52.444C379.283 52.3053 379.257 52.1493 379.309 51.976C379.379 51.8027 379.509 51.6467 379.699 51.508L383.079 49.09ZM371.743 65.782C371.986 65.5393 372.263 65.3053 372.575 65.08C372.905 64.8547 373.364 64.6553 373.953 64.482C374.317 64.378 374.612 64.404 374.837 64.56C375.097 64.716 375.357 65.0367 375.617 65.522C376.085 66.406 376.597 67.108 377.151 67.628C377.723 68.1653 378.278 68.5293 378.815 68.72C379.561 68.98 380.358 69.0753 381.207 69.006C382.057 68.954 382.889 68.6247 383.703 68.018C383.842 67.914 383.963 67.862 384.067 67.862C384.171 67.862 384.249 67.888 384.301 67.94C384.492 68.1307 384.44 68.3733 384.145 68.668C383.591 69.2053 383.01 69.656 382.403 70.02C381.814 70.4013 381.216 70.696 380.609 70.904C380.003 71.112 379.396 71.2247 378.789 71.242C378.2 71.2767 377.645 71.216 377.125 71.06C376.241 70.8 375.47 70.3927 374.811 69.838C374.153 69.2833 373.633 68.642 373.251 67.914C373.026 67.4807 372.844 67.1947 372.705 67.056C372.567 66.9347 372.385 66.8827 372.159 66.9C372.003 66.9173 371.856 66.9087 371.717 66.874C371.596 66.8393 371.509 66.7787 371.457 66.692C371.388 66.5707 371.379 66.4233 371.431 66.25C371.501 66.0767 371.605 65.9207 371.743 65.782ZM368.233 57.618C368.424 58.1727 368.736 58.6233 369.169 58.97C369.62 59.3167 370.071 59.5073 370.521 59.542H370.859C370.686 59.178 370.573 58.8313 370.521 58.502C370.469 58.1727 370.461 57.8693 370.495 57.592C370.53 57.2973 370.591 57.046 370.677 56.838C370.764 56.6127 370.859 56.422 370.963 56.266C371.05 56.1273 371.215 55.9453 371.457 55.72C371.717 55.4773 371.995 55.2607 372.289 55.07H370.469H370.365H368.649C368.372 55.4513 368.199 55.8673 368.129 56.318C368.06 56.7687 368.095 57.202 368.233 57.618ZM406.9 64.742C407.784 64.1353 408.66 63.78 409.526 63.676C410.41 63.5893 411.182 63.6587 411.84 63.884C412.672 64.1613 413.305 64.586 413.738 65.158C414.172 65.7473 414.267 66.5013 414.024 67.42C413.868 67.9747 413.626 68.5033 413.296 69.006C412.984 69.5087 412.629 69.9593 412.23 70.358H413.79C414.137 70.358 414.31 70.4447 414.31 70.618C414.31 70.774 414.146 70.956 413.816 71.164C413.574 71.32 413.34 71.4847 413.114 71.658C412.906 71.8313 412.707 72.0133 412.516 72.204C412.274 72.4467 411.84 72.568 411.216 72.568H406.51C406.354 72.7067 406.181 72.8627 405.99 73.036C405.817 73.2093 405.574 73.4173 405.262 73.66C405.037 73.8333 404.812 73.868 404.586 73.764C404.378 73.6773 404.274 73.4693 404.274 73.14V66.536C404.274 66.328 404.214 66.2067 404.092 66.172C403.988 66.1373 403.815 66.2067 403.572 66.38C403.416 66.5013 403.252 66.562 403.078 66.562C402.905 66.562 402.775 66.5013 402.688 66.38C402.584 66.2413 402.558 66.0853 402.61 65.912C402.68 65.7387 402.81 65.5827 403 65.444L405.86 63.416C406.172 63.1907 406.424 63.1213 406.614 63.208C406.805 63.312 406.9 63.5807 406.9 64.014V64.742ZM417.976 55.46C418.323 55.46 418.496 55.5467 418.496 55.72C418.496 55.876 418.332 56.058 418.002 56.266C417.76 56.422 417.526 56.5867 417.3 56.76C417.092 56.9333 416.893 57.1153 416.702 57.306C416.46 57.5487 416.026 57.67 415.402 57.67H414.44V59.672C414.44 60.0707 414.336 60.374 414.128 60.582C413.972 60.738 413.712 60.9807 413.348 61.31C412.984 61.622 412.629 61.908 412.282 62.168C412.057 62.3413 411.832 62.3847 411.606 62.298C411.398 62.194 411.294 61.9773 411.294 61.648V52.6C411.294 52.392 411.234 52.2707 411.112 52.236C411.008 52.2013 410.835 52.2707 410.592 52.444C410.436 52.5653 410.272 52.626 410.098 52.626C409.925 52.626 409.795 52.5653 409.708 52.444C409.604 52.3053 409.578 52.1493 409.63 51.976C409.7 51.8027 409.83 51.6467 410.02 51.508L413.4 49.09C413.712 48.8647 413.964 48.804 414.154 48.908C414.345 48.9947 414.44 49.2547 414.44 49.688V55.772C414.666 55.564 414.917 55.46 415.194 55.46H417.976ZM405.808 52.886C406.398 54.0993 406.354 55.564 405.678 57.28C405.54 57.6093 405.34 57.9733 405.08 58.372C404.82 58.7707 404.526 59.1607 404.196 59.542C403.867 59.9233 403.529 60.2787 403.182 60.608C402.836 60.9373 402.515 61.1887 402.22 61.362C401.978 61.5007 401.744 61.5787 401.518 61.596C401.31 61.6133 401.172 61.5787 401.102 61.492C401.016 61.3533 400.998 61.1887 401.05 60.998C401.12 60.79 401.206 60.6167 401.31 60.478C401.501 60.2007 401.666 59.958 401.804 59.75C401.96 59.5247 402.099 59.308 402.22 59.1C402.342 58.8747 402.454 58.6493 402.558 58.424C402.662 58.1813 402.775 57.904 402.896 57.592C403.018 57.2453 403.104 56.8553 403.156 56.422C403.208 55.9887 403.191 55.6507 403.104 55.408C403.018 55.096 402.87 54.862 402.662 54.706C402.472 54.55 402.255 54.4807 402.012 54.498C401.683 54.5153 401.362 54.5327 401.05 54.55C400.756 54.5673 400.357 54.5847 399.854 54.602C399.594 54.602 399.308 54.602 398.996 54.602C398.684 54.602 398.381 54.5933 398.086 54.576C397.792 54.5587 397.514 54.5327 397.254 54.498C396.994 54.446 396.778 54.394 396.604 54.342C396.362 54.2553 396.258 54.1253 396.292 53.952C396.344 53.7613 396.544 53.5707 396.89 53.38C397.081 53.276 397.289 53.146 397.514 52.99C397.757 52.834 397.965 52.6867 398.138 52.548C398.329 52.4093 398.511 52.3227 398.684 52.288C398.875 52.236 399.135 52.2273 399.464 52.262C399.759 52.2967 400.071 52.3227 400.4 52.34C400.73 52.3573 401.172 52.3573 401.726 52.34C402.073 52.3227 402.428 52.2967 402.792 52.262C403.174 52.2273 403.711 52.1927 404.404 52.158C404.716 52.1407 404.994 52.1927 405.236 52.314C405.479 52.418 405.67 52.6087 405.808 52.886ZM410.02 65.912C409.5 65.7213 408.963 65.6433 408.408 65.678C407.871 65.7127 407.368 65.8253 406.9 66.016V70.358H409.968C410.263 69.994 410.514 69.6387 410.722 69.292C410.948 68.9453 411.13 68.5553 411.268 68.122C411.459 67.5673 411.424 67.108 411.164 66.744C410.904 66.38 410.523 66.1027 410.02 65.912ZM429.582 65.574C430.206 64.9327 430.926 64.4127 431.74 64.014C432.555 63.6153 433.309 63.4073 434.002 63.39C434.696 63.3553 435.337 63.5113 435.926 63.858C436.533 64.2047 437.044 64.6553 437.46 65.21C437.928 65.8513 438.136 66.5793 438.084 67.394C438.032 68.2087 437.738 68.9367 437.2 69.578C436.178 70.826 434.904 71.6493 433.378 72.048C433.014 72.152 432.616 72.1867 432.182 72.152C431.766 72.1173 431.359 72.022 430.96 71.866C430.562 71.71 430.18 71.502 429.816 71.242C429.47 70.982 429.166 70.67 428.906 70.306C428.646 69.942 428.473 69.552 428.386 69.136C428.317 68.72 428.317 68.304 428.386 67.888C428.456 67.472 428.594 67.0647 428.802 66.666C429.01 66.2673 429.27 65.9033 429.582 65.574ZM437.694 49.09C438.006 48.8647 438.258 48.804 438.448 48.908C438.639 48.9947 438.734 49.2547 438.734 49.688V59.932C438.734 60.3307 438.63 60.634 438.422 60.842C438.266 60.998 438.006 61.2407 437.642 61.57C437.278 61.882 436.923 62.168 436.576 62.428C436.351 62.6013 436.126 62.6447 435.9 62.558C435.692 62.454 435.588 62.2373 435.588 61.908V57.67H431.376C431.134 57.67 430.969 57.6613 430.882 57.644C430.813 57.6267 430.735 57.5747 430.648 57.488C430.562 57.4013 430.544 57.3233 430.596 57.254C430.666 57.1847 430.77 57.098 430.908 56.994C430.995 56.942 431.116 56.8553 431.272 56.734C431.446 56.5953 431.619 56.4567 431.792 56.318C431.983 56.1793 432.148 56.058 432.286 55.954C432.442 55.8327 432.546 55.7547 432.598 55.72C432.702 55.6333 432.858 55.5727 433.066 55.538C433.274 55.486 433.474 55.46 433.664 55.46H435.588V52.6C435.588 52.392 435.528 52.2707 435.406 52.236C435.302 52.2013 435.129 52.2707 434.886 52.444C434.73 52.5653 434.566 52.626 434.392 52.626C434.219 52.626 434.089 52.5653 434.002 52.444C433.898 52.3053 433.872 52.1493 433.924 51.976C433.994 51.8027 434.124 51.6467 434.314 51.508L437.694 49.09ZM430.648 51.976C430.995 51.976 431.168 52.0627 431.168 52.236C431.168 52.392 431.004 52.574 430.674 52.782C430.432 52.938 430.198 53.1027 429.972 53.276C429.764 53.4493 429.565 53.6313 429.374 53.822C429.132 54.0647 428.698 54.186 428.074 54.186H427.372C427.442 54.29 427.485 54.368 427.502 54.42C427.572 54.6453 427.572 54.9487 427.502 55.33C427.433 55.7113 427.277 56.188 427.034 56.76C426.74 57.4533 426.332 58.1207 425.812 58.762C425.292 59.386 424.738 59.906 424.148 60.322C423.576 60.7207 422.952 61.0587 422.276 61.336C421.618 61.6133 421.046 61.7953 420.56 61.882C420.318 61.9167 420.118 61.9253 419.962 61.908C419.824 61.8733 419.737 61.8213 419.702 61.752C419.668 61.6827 419.702 61.596 419.806 61.492C419.91 61.3707 420.049 61.2493 420.222 61.128C420.309 61.076 420.448 60.9893 420.638 60.868C420.829 60.7293 421.046 60.5733 421.288 60.4C421.531 60.2267 421.782 60.0447 422.042 59.854C422.302 59.646 422.536 59.438 422.744 59.23C423.143 58.8487 423.455 58.4413 423.68 58.008C423.923 57.5747 424.079 57.176 424.148 56.812C424.218 56.448 424.244 56.1533 424.226 55.928C424.209 55.6853 424.174 55.4687 424.122 55.278C424.07 55.07 424.096 54.914 424.2 54.81C424.322 54.706 424.443 54.6367 424.564 54.602L425.838 54.186H421.028C420.872 54.186 420.742 54.16 420.638 54.108C420.534 54.056 420.482 53.9867 420.482 53.9C420.482 53.8133 420.552 53.7267 420.69 53.64C420.829 53.536 420.968 53.4407 421.106 53.354C421.245 53.2673 421.418 53.1373 421.626 52.964C421.834 52.7907 422.034 52.6173 422.224 52.444C422.554 52.132 423.082 51.976 423.81 51.976H430.648ZM434.704 66.302C434.531 66.094 434.297 65.886 434.002 65.678C433.725 65.47 433.422 65.314 433.092 65.21C432.78 65.106 432.46 65.0627 432.13 65.08C431.801 65.0973 431.506 65.2187 431.246 65.444C431.004 65.652 430.856 65.912 430.804 66.224C430.77 66.536 430.787 66.8567 430.856 67.186C430.943 67.5327 431.064 67.862 431.22 68.174C431.394 68.486 431.576 68.746 431.766 68.954C432.026 69.2313 432.312 69.4653 432.624 69.656C432.954 69.8467 433.274 69.9767 433.586 70.046C433.916 70.1327 434.219 70.15 434.496 70.098C434.791 70.0633 435.034 69.9507 435.224 69.76C435.415 69.5867 435.536 69.3613 435.588 69.084C435.658 68.8067 435.666 68.5033 435.614 68.174C435.562 67.862 435.458 67.5413 435.302 67.212C435.146 66.9 434.947 66.5967 434.704 66.302ZM427.554 57.878C427.676 57.7047 427.892 57.644 428.204 57.696C428.43 57.7307 428.664 57.7827 428.906 57.852C429.149 57.904 429.426 57.9907 429.738 58.112C430.05 58.2333 430.328 58.4153 430.57 58.658C430.813 58.9007 430.969 59.204 431.038 59.568C431.142 60.1227 430.839 60.7987 430.128 61.596C430.007 61.7347 429.886 61.7953 429.764 61.778C429.643 61.7433 429.548 61.648 429.478 61.492C429.444 61.4053 429.392 61.31 429.322 61.206C429.253 61.0847 429.14 60.9287 428.984 60.738C428.551 60.218 428.074 59.906 427.554 59.802C427.346 59.7673 427.182 59.7413 427.06 59.724C426.939 59.6893 426.809 59.6547 426.67 59.62C426.532 59.5853 426.445 59.4987 426.41 59.36C426.376 59.2213 426.393 59.1 426.462 58.996C426.532 58.892 426.618 58.788 426.722 58.684C426.826 58.5627 426.922 58.476 427.008 58.424C427.234 58.2507 427.416 58.0687 427.554 57.878ZM446.701 60.504C446.77 60.5733 446.883 60.6773 447.039 60.816C447.212 60.9373 447.385 61.0673 447.559 61.206C447.749 61.3273 447.931 61.4573 448.105 61.596C448.295 61.7173 448.443 61.8127 448.547 61.882C448.841 62.0553 448.954 62.3933 448.885 62.896C448.833 63.2427 448.729 63.5893 448.573 63.936C448.417 64.2827 448.183 64.6467 447.871 65.028C447.559 65.4267 447.16 65.8427 446.675 66.276C446.207 66.7093 445.635 67.1947 444.959 67.732C444.837 67.8187 444.699 67.8793 444.543 67.914C444.404 67.9487 444.291 67.9227 444.205 67.836C444.118 67.7667 444.092 67.6627 444.127 67.524C444.161 67.4027 444.248 67.29 444.387 67.186C444.889 66.8047 445.288 66.458 445.583 66.146C445.895 65.834 446.068 65.5567 446.103 65.314C446.137 65.106 446.111 64.9067 446.025 64.716C445.955 64.5427 445.834 64.3953 445.661 64.274L443.867 63C443.589 62.8093 443.477 62.5753 443.529 62.298C443.529 62.1593 443.589 62.0553 443.711 61.986C443.849 61.8993 443.971 61.8213 444.075 61.752C444.317 61.596 444.595 61.3967 444.907 61.154C445.219 60.9113 445.461 60.6947 445.635 60.504C445.947 60.192 446.302 60.192 446.701 60.504ZM480.698 48.05C481.01 47.8247 481.262 47.764 481.452 47.868C481.643 47.9547 481.738 48.2147 481.738 48.648V60.192C481.738 60.5907 481.634 60.894 481.426 61.102C481.27 61.258 481.062 61.4487 480.802 61.674C480.56 61.8993 480.265 62.142 479.918 62.402C479.693 62.5753 479.468 62.6187 479.242 62.532C479.034 62.428 478.93 62.2113 478.93 61.882V56.552C478.757 56.6733 478.601 56.7947 478.462 56.916C478.324 57.0373 478.185 57.1673 478.046 57.306C477.804 57.5487 477.37 57.67 476.746 57.67H476.278V60.192C476.278 60.5907 476.174 60.894 475.966 61.102C475.81 61.258 475.602 61.4487 475.342 61.674C475.1 61.8993 474.805 62.142 474.458 62.402C474.233 62.5753 474.008 62.6187 473.782 62.532C473.574 62.428 473.47 62.2113 473.47 61.882V52.314C473.47 52.106 473.41 51.9847 473.288 51.95C473.184 51.9153 473.011 51.9847 472.768 52.158C472.612 52.2793 472.448 52.34 472.274 52.34C472.101 52.34 471.971 52.2793 471.884 52.158C471.78 52.0193 471.754 51.8633 471.806 51.69C471.876 51.5167 472.006 51.3607 472.196 51.222L475.238 49.09C475.55 48.8647 475.802 48.804 475.992 48.908C476.183 48.9947 476.278 49.2547 476.278 49.688V55.46H478.93V51.274C478.93 51.066 478.87 50.9447 478.748 50.91C478.644 50.8753 478.471 50.9447 478.228 51.118C478.072 51.2393 477.908 51.3 477.734 51.3C477.561 51.3 477.431 51.2393 477.344 51.118C477.24 50.9793 477.214 50.8233 477.266 50.65C477.336 50.4767 477.466 50.3207 477.656 50.182L480.698 48.05ZM471.702 65.886C472.326 65.2447 473.046 64.7247 473.86 64.326C474.675 63.9273 475.429 63.7193 476.122 63.702C476.816 63.6673 477.457 63.8233 478.046 64.17C478.653 64.5167 479.164 64.9673 479.58 65.522C480.048 66.1633 480.256 66.8913 480.204 67.706C480.152 68.5207 479.858 69.2487 479.32 69.89C478.298 71.138 477.024 71.9613 475.498 72.36C475.134 72.464 474.736 72.4987 474.302 72.464C473.886 72.4293 473.479 72.334 473.08 72.178C472.682 72.022 472.3 71.814 471.936 71.554C471.59 71.294 471.286 70.982 471.026 70.618C470.766 70.254 470.593 69.864 470.506 69.448C470.437 69.032 470.437 68.616 470.506 68.2C470.576 67.784 470.714 67.3767 470.922 66.978C471.13 66.5793 471.39 66.2153 471.702 65.886ZM463.356 52.626C463.599 52.4353 463.972 52.2273 464.474 52.002C464.977 51.7767 465.488 51.6207 466.008 51.534C466.303 51.482 466.563 51.5427 466.788 51.716C466.962 51.8547 467.118 52.0453 467.256 52.288C467.412 52.5133 467.508 52.7907 467.542 53.12C467.577 53.4147 467.568 53.822 467.516 54.342C467.464 54.862 467.317 55.408 467.074 55.98C466.78 56.6733 466.372 57.3407 465.852 57.982C465.332 58.606 464.778 59.126 464.188 59.542C463.616 59.9407 462.992 60.2787 462.316 60.556C461.658 60.8333 461.086 61.0153 460.6 61.102C460.358 61.1367 460.158 61.1453 460.002 61.128C459.864 61.0933 459.777 61.0413 459.742 60.972C459.708 60.9027 459.742 60.816 459.846 60.712C459.95 60.5907 460.089 60.4693 460.262 60.348C460.349 60.296 460.479 60.2093 460.652 60.088C460.843 59.9493 461.051 59.7933 461.276 59.62C461.519 59.4467 461.762 59.2647 462.004 59.074C462.264 58.866 462.498 58.658 462.706 58.45C463.105 58.0687 463.426 57.6613 463.668 57.228C463.928 56.7773 464.102 56.3787 464.188 56.032C464.275 55.6853 464.31 55.33 464.292 54.966C464.292 54.5847 464.249 54.2727 464.162 54.03C464.093 53.8567 464.006 53.7527 463.902 53.718C463.816 53.666 463.712 53.64 463.59 53.64C463.296 53.6053 463.114 53.5187 463.044 53.38C462.992 53.276 462.992 53.146 463.044 52.99C463.114 52.834 463.218 52.7127 463.356 52.626ZM476.824 66.614C476.651 66.406 476.417 66.198 476.122 65.99C475.845 65.782 475.542 65.626 475.212 65.522C474.9 65.418 474.58 65.3747 474.25 65.392C473.921 65.4093 473.626 65.5307 473.366 65.756C473.124 65.964 472.976 66.224 472.924 66.536C472.89 66.848 472.907 67.1687 472.976 67.498C473.063 67.8447 473.184 68.174 473.34 68.486C473.514 68.798 473.696 69.058 473.886 69.266C474.146 69.5433 474.432 69.7773 474.744 69.968C475.074 70.1587 475.394 70.2887 475.706 70.358C476.036 70.4447 476.339 70.462 476.616 70.41C476.911 70.3753 477.154 70.2627 477.344 70.072C477.535 69.8987 477.656 69.6733 477.708 69.396C477.778 69.1187 477.786 68.8153 477.734 68.486C477.682 68.174 477.578 67.8533 477.422 67.524C477.266 67.212 477.067 66.9087 476.824 66.614ZM467.828 56.968C467.984 56.812 468.21 56.7773 468.504 56.864C468.712 56.9333 468.929 57.0113 469.154 57.098C469.397 57.1847 469.666 57.306 469.96 57.462C470.255 57.618 470.506 57.8347 470.714 58.112C470.922 58.372 471.044 58.6927 471.078 59.074C471.113 59.6633 470.732 60.296 469.934 60.972C469.796 61.0933 469.666 61.1367 469.544 61.102C469.423 61.0673 469.345 60.9633 469.31 60.79C469.276 60.7033 469.232 60.5993 469.18 60.478C469.128 60.3567 469.033 60.192 468.894 59.984C468.704 59.6893 468.496 59.4553 468.27 59.282C468.062 59.1087 467.837 58.9787 467.594 58.892C467.404 58.8227 467.248 58.7707 467.126 58.736C467.005 58.7013 466.875 58.658 466.736 58.606C466.615 58.5367 466.537 58.4327 466.502 58.294C466.485 58.1553 466.52 58.0427 466.606 57.956C466.693 57.852 466.797 57.7567 466.918 57.67C467.04 57.566 467.144 57.488 467.23 57.436C467.352 57.3667 467.456 57.2973 467.542 57.228C467.646 57.1413 467.742 57.0547 467.828 56.968ZM505.092 55.46C505.438 55.46 505.612 55.5467 505.612 55.72C505.612 55.876 505.447 56.058 505.118 56.266C504.875 56.422 504.641 56.5867 504.416 56.76C504.208 56.9333 504.008 57.1153 503.818 57.306C503.575 57.5487 503.142 57.67 502.518 57.67H501.556V59.672C501.556 60.0707 501.452 60.374 501.244 60.582C501.088 60.738 500.828 60.9807 500.464 61.31C500.1 61.622 499.744 61.908 499.398 62.168C499.172 62.3413 498.947 62.3847 498.722 62.298C498.514 62.194 498.41 61.9773 498.41 61.648V52.6C498.41 52.392 498.349 52.2707 498.228 52.236C498.124 52.2013 497.95 52.2707 497.708 52.444C497.552 52.5653 497.387 52.626 497.214 52.626C497.04 52.626 496.91 52.5653 496.824 52.444C496.72 52.3053 496.694 52.1493 496.746 51.976C496.815 51.8027 496.945 51.6467 497.136 51.508L500.516 49.09C500.828 48.8647 501.079 48.804 501.27 48.908C501.46 48.9947 501.556 49.2547 501.556 49.688V55.772C501.781 55.564 502.032 55.46 502.31 55.46H505.092ZM491.208 64.066C491.364 63.962 491.537 63.8927 491.728 63.858C491.918 63.8407 492.144 63.8493 492.404 63.884C492.733 63.9187 493.123 63.936 493.574 63.936C494.042 63.936 494.458 63.9273 494.822 63.91C495.047 63.91 495.333 63.8927 495.68 63.858C496.044 63.8407 496.425 63.8233 496.824 63.806C497.222 63.7887 497.63 63.78 498.046 63.78C498.462 63.78 498.843 63.7887 499.19 63.806C499.71 63.8407 500.126 63.962 500.438 64.17C500.767 64.378 501.018 64.638 501.192 64.95C501.365 65.262 501.46 65.6173 501.478 66.016C501.495 66.432 501.452 66.8567 501.348 67.29C501.244 67.7407 501.062 68.2087 500.802 68.694C500.542 69.1967 500.256 69.6733 499.944 70.124C499.632 70.5747 499.311 70.9733 498.982 71.32C498.67 71.684 498.401 71.9353 498.176 72.074C497.933 72.2127 497.751 72.2733 497.63 72.256C497.526 72.256 497.456 72.2127 497.422 72.126C497.387 72.0393 497.378 71.9353 497.396 71.814C497.43 71.6927 497.474 71.58 497.526 71.476C497.578 71.3893 497.647 71.2333 497.734 71.008C497.838 70.8 497.942 70.54 498.046 70.228C498.15 69.9333 498.236 69.5953 498.306 69.214C498.392 68.8327 498.444 68.4427 498.462 68.044C498.479 67.5413 498.375 67.134 498.15 66.822C497.924 66.51 497.612 66.328 497.214 66.276C496.988 66.2413 496.685 66.2153 496.304 66.198C495.922 66.198 495.515 66.198 495.082 66.198C494.648 66.2153 494.224 66.224 493.808 66.224C493.392 66.2413 493.045 66.25 492.768 66.25C492.508 66.25 492.222 66.2413 491.91 66.224C491.598 66.224 491.286 66.2153 490.974 66.198C490.679 66.1807 490.402 66.1547 490.142 66.12C489.882 66.0853 489.674 66.042 489.518 65.99C489.31 65.9207 489.206 65.7993 489.206 65.626C489.223 65.4527 489.405 65.2447 489.752 65.002L491.208 64.066ZM493.184 52.626C493.773 53.8393 493.73 55.304 493.054 57.02C492.915 57.3493 492.716 57.7133 492.456 58.112C492.196 58.5107 491.901 58.9007 491.572 59.282C491.242 59.6633 490.904 60.0187 490.558 60.348C490.211 60.6773 489.89 60.9287 489.596 61.102C489.353 61.2407 489.119 61.3187 488.894 61.336C488.686 61.3533 488.547 61.3187 488.478 61.232C488.391 61.0933 488.374 60.9287 488.426 60.738C488.495 60.53 488.582 60.3567 488.686 60.218C488.876 59.9407 489.041 59.698 489.18 59.49C489.336 59.2647 489.474 59.048 489.596 58.84C489.717 58.6147 489.83 58.3893 489.934 58.164C490.038 57.9213 490.15 57.644 490.272 57.332C490.393 56.9853 490.48 56.5953 490.532 56.162C490.584 55.7287 490.566 55.3907 490.48 55.148C490.393 54.836 490.246 54.602 490.038 54.446C489.847 54.29 489.63 54.2207 489.388 54.238C489.058 54.2553 488.738 54.2727 488.426 54.29C488.131 54.3073 487.732 54.3247 487.23 54.342C486.97 54.342 486.684 54.342 486.372 54.342C486.06 54.342 485.756 54.3333 485.462 54.316C485.167 54.2987 484.89 54.2727 484.63 54.238C484.37 54.186 484.153 54.134 483.98 54.082C483.737 53.9953 483.633 53.8653 483.668 53.692C483.72 53.5013 483.919 53.3107 484.266 53.12C484.456 53.016 484.664 52.886 484.89 52.73C485.132 52.574 485.34 52.4267 485.514 52.288C485.704 52.1493 485.886 52.0627 486.06 52.028C486.25 51.976 486.51 51.9673 486.84 52.002C487.134 52.0367 487.446 52.0627 487.776 52.08C488.105 52.0973 488.547 52.0973 489.102 52.08C489.448 52.0627 489.804 52.0367 490.168 52.002C490.549 51.9673 491.086 51.9327 491.78 51.898C492.092 51.8807 492.369 51.9327 492.612 52.054C492.854 52.158 493.045 52.3487 493.184 52.626ZM508.872 59.516C508.542 59.0827 508.326 58.6147 508.222 58.112C508.135 57.592 508.17 57.0633 508.326 56.526C508.482 55.9887 508.776 55.46 509.21 54.94C509.643 54.4027 510.224 53.8827 510.952 53.38C511.593 52.9293 512.226 52.6347 512.85 52.496C513.474 52.34 514.063 52.3053 514.618 52.392C515.172 52.4787 515.684 52.678 516.152 52.99C516.62 53.302 517.027 53.692 517.374 54.16C517.738 54.6627 517.954 55.1913 518.024 55.746C518.11 56.2833 518.058 56.8207 517.868 57.358C517.677 57.8953 517.365 58.4153 516.932 58.918C516.498 59.4207 515.952 59.88 515.294 60.296C514.028 61.0933 512.824 61.414 511.68 61.258C510.536 61.0847 509.6 60.504 508.872 59.516ZM524.836 45.606C525.148 45.3807 525.399 45.32 525.59 45.424C525.78 45.5107 525.876 45.7707 525.876 46.204V61.856C525.876 62.2547 525.772 62.558 525.564 62.766C525.408 62.922 525.148 63.156 524.784 63.468C524.42 63.7973 524.064 64.092 523.718 64.352C523.492 64.5253 523.267 64.56 523.042 64.456C522.834 64.3693 522.73 64.1613 522.73 63.832V49.116C522.73 48.908 522.669 48.7867 522.548 48.752C522.444 48.7173 522.27 48.7867 522.028 48.96C521.872 49.0813 521.707 49.142 521.534 49.142C521.36 49.142 521.23 49.0813 521.144 48.96C521.04 48.8213 521.014 48.6653 521.066 48.492C521.135 48.3187 521.265 48.1627 521.456 48.024L524.836 45.606ZM511.524 57.904C511.784 58.216 512.087 58.4673 512.434 58.658C512.78 58.8487 513.118 58.9873 513.448 59.074C513.794 59.1607 514.106 59.204 514.384 59.204C514.661 59.1867 514.852 59.1347 514.956 59.048C515.06 58.9787 515.155 58.8227 515.242 58.58C515.328 58.3373 515.372 58.0513 515.372 57.722C515.389 57.3753 515.346 57.02 515.242 56.656C515.138 56.2747 514.956 55.9193 514.696 55.59C514.418 55.278 514.098 55.0267 513.734 54.836C513.37 54.628 513.006 54.4807 512.642 54.394C512.295 54.3073 511.974 54.264 511.68 54.264C511.385 54.264 511.186 54.2987 511.082 54.368C510.978 54.4547 510.891 54.628 510.822 54.888C510.752 55.1307 510.726 55.4253 510.744 55.772C510.761 56.1013 510.83 56.4567 510.952 56.838C511.073 57.2193 511.264 57.5747 511.524 57.904ZM99.39 81.86C99.7367 81.86 99.91 81.9467 99.91 82.12C99.91 82.276 99.7453 82.458 99.416 82.666C99.1733 82.822 98.9393 82.9867 98.714 83.16C98.506 83.3333 98.3067 83.5153 98.116 83.706C97.8733 83.9487 97.44 84.07 96.816 84.07H95.36C95.0827 84.4513 94.9093 84.8673 94.84 85.318C94.7707 85.7687 94.8053 86.202 94.944 86.618C95.1347 87.1727 95.4467 87.6233 95.88 87.97C96.3307 88.3167 96.7813 88.5073 97.232 88.542C97.7347 88.5767 98.1593 88.516 98.506 88.36C98.87 88.204 99.2253 87.9613 99.572 87.632C99.7973 87.4067 100.005 87.3547 100.196 87.476C100.3 87.5453 100.352 87.6407 100.352 87.762C100.369 87.866 100.352 87.97 100.3 88.074C100.092 88.49 99.8753 88.8627 99.65 89.192C99.442 89.5213 99.1993 89.816 98.922 90.076C98.662 90.3187 98.3587 90.5267 98.012 90.7C97.6827 90.856 97.2927 90.96 96.842 91.012C95.6807 91.168 94.6753 90.8907 93.826 90.18C93.3233 90.6307 92.6647 90.908 91.85 91.012C90.914 91.1333 90.082 90.986 89.354 90.57C88.6433 90.1367 88.0627 89.4693 87.612 88.568C87.4213 88.204 87.3 87.8573 87.248 87.528C87.196 87.1813 87.1873 86.8693 87.222 86.592C87.2567 86.2973 87.3173 86.046 87.404 85.838C87.4907 85.6127 87.586 85.422 87.69 85.266C87.7767 85.1273 87.9413 84.9453 88.184 84.72C88.444 84.4773 88.7213 84.2607 89.016 84.07H87.196C87.04 84.07 86.91 84.044 86.806 83.992C86.702 83.94 86.65 83.8707 86.65 83.784C86.65 83.6973 86.7193 83.6107 86.858 83.524C86.9967 83.42 87.1353 83.3247 87.274 83.238C87.4127 83.1513 87.586 83.0213 87.794 82.848C88.002 82.6747 88.2013 82.5013 88.392 82.328C88.7213 82.016 89.25 81.86 89.978 81.86H94.918H94.97H99.39ZM104.798 74.658C105.11 74.4327 105.361 74.372 105.552 74.476C105.743 74.5627 105.838 74.8227 105.838 75.256V90.804C105.838 91.2027 105.734 91.506 105.526 91.714C105.37 91.87 105.11 92.104 104.746 92.416C104.382 92.7453 104.027 93.04 103.68 93.3C103.455 93.4733 103.229 93.508 103.004 93.404C102.796 93.3173 102.692 93.1093 102.692 92.78V86.67H99C98.7573 86.67 98.5927 86.6613 98.506 86.644C98.4367 86.6267 98.3587 86.5747 98.272 86.488C98.1853 86.4013 98.168 86.3233 98.22 86.254C98.2893 86.1847 98.3933 86.098 98.532 85.994C98.6187 85.942 98.74 85.8553 98.896 85.734C99.0693 85.5953 99.2427 85.4567 99.416 85.318C99.6067 85.1793 99.7713 85.058 99.91 84.954C100.066 84.8327 100.17 84.7547 100.222 84.72C100.326 84.6333 100.482 84.5727 100.69 84.538C100.898 84.486 101.097 84.46 101.288 84.46H102.692V78.168C102.692 77.96 102.631 77.8387 102.51 77.804C102.406 77.7693 102.233 77.8387 101.99 78.012C101.834 78.1333 101.669 78.194 101.496 78.194C101.323 78.194 101.193 78.1333 101.106 78.012C101.002 77.8733 100.976 77.7173 101.028 77.544C101.097 77.3707 101.227 77.2147 101.418 77.076L104.798 74.658ZM90.368 84.07C90.0907 84.4513 89.9173 84.8673 89.848 85.318C89.7787 85.7687 89.8133 86.202 89.952 86.618C90.1427 87.1727 90.4547 87.6233 90.888 87.97C91.3387 88.3167 91.7893 88.5073 92.24 88.542H92.578C92.4047 88.178 92.292 87.8313 92.24 87.502C92.188 87.1727 92.1793 86.8693 92.214 86.592C92.2487 86.2973 92.3093 86.046 92.396 85.838C92.4827 85.6127 92.578 85.422 92.682 85.266C92.7687 85.1273 92.9333 84.9453 93.176 84.72C93.436 84.4773 93.7133 84.2607 94.008 84.07H90.368ZM116.508 79.39C116.179 78.9567 115.962 78.4887 115.858 77.986C115.771 77.466 115.806 76.9373 115.962 76.4C116.118 75.8627 116.413 75.334 116.846 74.814C117.279 74.2767 117.86 73.7567 118.588 73.254C119.229 72.8033 119.862 72.5087 120.486 72.37C121.11 72.214 121.699 72.1793 122.254 72.266C122.809 72.3527 123.32 72.552 123.788 72.864C124.256 73.176 124.663 73.566 125.01 74.034C125.374 74.5367 125.591 75.0653 125.66 75.62C125.747 76.1573 125.695 76.6947 125.504 77.232C125.313 77.7693 125.001 78.2893 124.568 78.792C124.135 79.2947 123.589 79.754 122.93 80.17C122.566 80.3953 122.211 80.586 121.864 80.742C121.933 80.8807 121.968 81.0107 121.968 81.132V83.004C121.968 83.4027 121.864 83.706 121.656 83.914C121.569 84.0007 121.483 84.0873 121.396 84.174C121.309 84.2607 121.197 84.356 121.058 84.46H130.184C130.531 84.46 130.704 84.5467 130.704 84.72C130.704 84.876 130.539 85.058 130.21 85.266C129.967 85.422 129.733 85.5867 129.508 85.76C129.3 85.9333 129.101 86.1153 128.91 86.306C128.667 86.5487 128.234 86.67 127.61 86.67H110.71C110.554 86.67 110.424 86.644 110.32 86.592C110.216 86.54 110.164 86.4707 110.164 86.384C110.164 86.2973 110.233 86.2107 110.372 86.124C110.511 86.02 110.649 85.9247 110.788 85.838C110.927 85.7513 111.1 85.6213 111.308 85.448C111.516 85.2747 111.715 85.1013 111.906 84.928C112.235 84.616 112.764 84.46 113.492 84.46H119.16V82.822C119.16 82.4233 119.264 82.12 119.472 81.912C119.68 81.704 119.966 81.444 120.33 81.132C119.55 81.2013 118.831 81.0887 118.172 80.794C117.531 80.4993 116.976 80.0313 116.508 79.39ZM119.16 77.778C119.42 78.09 119.723 78.3413 120.07 78.532C120.417 78.7227 120.755 78.8613 121.084 78.948C121.431 79.0347 121.743 79.078 122.02 79.078C122.297 79.0607 122.488 79.0087 122.592 78.922C122.696 78.8527 122.791 78.6967 122.878 78.454C122.965 78.2113 123.008 77.9253 123.008 77.596C123.025 77.2493 122.982 76.894 122.878 76.53C122.774 76.1487 122.592 75.7933 122.332 75.464C122.055 75.152 121.734 74.9007 121.37 74.71C121.006 74.502 120.642 74.3547 120.278 74.268C119.931 74.1813 119.611 74.138 119.316 74.138C119.021 74.138 118.822 74.1727 118.718 74.242C118.614 74.3287 118.527 74.502 118.458 74.762C118.389 75.0047 118.363 75.2993 118.38 75.646C118.397 75.9753 118.467 76.3307 118.588 76.712C118.709 77.0933 118.9 77.4487 119.16 77.778ZM138.93 77.856C139.052 77.7693 139.173 77.674 139.294 77.57C139.416 77.466 139.563 77.362 139.736 77.258C139.962 77.102 140.17 76.946 140.36 76.79C140.568 76.6167 140.707 76.5127 140.776 76.478C140.88 76.3913 141.036 76.3307 141.244 76.296C141.452 76.244 141.652 76.218 141.842 76.218H145.924C145.976 76.0793 146.02 75.932 146.054 75.776C146.089 75.6027 146.124 75.412 146.158 75.204C146.193 74.9613 146.202 74.736 146.184 74.528C146.184 74.32 146.124 74.1293 146.002 73.956C145.881 73.7827 145.664 73.696 145.352 73.696C145.04 73.696 144.772 73.7047 144.546 73.722C144.304 73.7393 144.044 73.7567 143.766 73.774C143.506 73.7913 143.16 73.8087 142.726 73.826C142.466 73.826 142.18 73.826 141.868 73.826C141.556 73.826 141.253 73.8173 140.958 73.8C140.664 73.7827 140.386 73.7567 140.126 73.722C139.866 73.67 139.65 73.618 139.476 73.566C139.234 73.4793 139.13 73.3493 139.164 73.176C139.216 72.9853 139.416 72.7947 139.762 72.604C139.953 72.5 140.161 72.37 140.386 72.214C140.629 72.058 140.837 71.9107 141.01 71.772C141.201 71.6333 141.383 71.538 141.556 71.486C141.747 71.434 142.007 71.434 142.336 71.486C142.562 71.5207 142.83 71.5553 143.142 71.59C143.472 71.6073 143.87 71.6073 144.338 71.59C144.598 71.5727 144.919 71.5467 145.3 71.512C145.682 71.4773 146.098 71.4427 146.548 71.408C146.67 71.408 146.817 71.4167 146.99 71.434C147.164 71.4513 147.337 71.486 147.51 71.538C147.701 71.59 147.874 71.6507 148.03 71.72C148.186 71.772 148.308 71.8327 148.394 71.902C148.689 72.162 148.862 72.5173 148.914 72.968C148.984 73.4013 148.949 73.8867 148.81 74.424C148.724 74.736 148.611 75.0393 148.472 75.334C148.334 75.6287 148.143 75.9233 147.9 76.218H148.55C148.637 76.218 148.741 76.2267 148.862 76.244C149.001 76.2613 149.096 76.296 149.148 76.348C149.218 76.4173 149.252 76.478 149.252 76.53C149.252 76.5647 149.2 76.634 149.096 76.738C149.044 76.79 148.932 76.894 148.758 77.05C148.585 77.1887 148.394 77.336 148.186 77.492C147.996 77.648 147.814 77.7953 147.64 77.934C147.467 78.0727 147.346 78.1593 147.276 78.194C147.138 78.2807 147.008 78.3413 146.886 78.376C146.782 78.4107 146.609 78.428 146.366 78.428H142.752C143.03 78.8787 143.316 79.2687 143.61 79.598C143.905 79.9273 144.321 80.196 144.858 80.404C145.344 80.5947 145.89 80.664 146.496 80.612C147.103 80.56 147.814 80.2567 148.628 79.702C148.888 79.546 149.07 79.52 149.174 79.624C149.244 79.676 149.261 79.7627 149.226 79.884C149.192 79.988 149.122 80.1007 149.018 80.222C147.909 81.418 146.826 82.1373 145.768 82.38C144.728 82.6053 143.766 82.5187 142.882 82.12C142.328 81.86 141.825 81.496 141.374 81.028C140.924 80.56 140.542 80.0487 140.23 79.494C140.04 79.1473 139.884 78.9307 139.762 78.844C139.641 78.74 139.485 78.6967 139.294 78.714C138.982 78.7487 138.774 78.6967 138.67 78.558C138.618 78.454 138.618 78.3327 138.67 78.194C138.722 78.0553 138.809 77.9427 138.93 77.856ZM153.594 84.46C153.941 84.46 154.114 84.5467 154.114 84.72C154.114 84.876 153.95 85.058 153.62 85.266C153.378 85.422 153.144 85.5867 152.918 85.76C152.71 85.9333 152.511 86.1153 152.32 86.306C152.078 86.5487 151.644 86.67 151.02 86.67H134.12C133.964 86.67 133.834 86.644 133.73 86.592C133.626 86.54 133.574 86.4707 133.574 86.384C133.574 86.2973 133.644 86.2107 133.782 86.124C133.921 86.02 134.06 85.9247 134.198 85.838C134.337 85.7513 134.51 85.6213 134.718 85.448C134.926 85.2747 135.126 85.1013 135.316 84.928C135.646 84.616 136.174 84.46 136.902 84.46H153.594ZM174.144 74.606C174.456 74.3807 174.708 74.32 174.898 74.424C175.089 74.5107 175.184 74.7707 175.184 75.204V84.798C175.496 84.5727 175.748 84.46 175.938 84.46H178.72C179.067 84.46 179.24 84.5467 179.24 84.72C179.24 84.876 179.076 85.058 178.746 85.266C178.504 85.422 178.27 85.5867 178.044 85.76C177.836 85.9333 177.637 86.1153 177.446 86.306C177.204 86.5487 176.77 86.67 176.146 86.67H175.184V90.856C175.184 91.2547 175.08 91.558 174.872 91.766C174.716 91.922 174.456 92.156 174.092 92.468C173.728 92.7973 173.373 93.092 173.026 93.352C172.801 93.5253 172.576 93.56 172.35 93.456C172.142 93.3693 172.038 93.1613 172.038 92.832V78.116C172.038 77.908 171.978 77.7867 171.856 77.752C171.752 77.7173 171.579 77.7867 171.336 77.96C171.18 78.0813 171.016 78.142 170.842 78.142C170.669 78.142 170.539 78.0813 170.452 77.96C170.348 77.8213 170.322 77.6653 170.374 77.492C170.444 77.3187 170.574 77.1627 170.764 77.024L174.144 74.606ZM159.168 80.716C159.515 80.6293 159.879 80.5687 160.26 80.534C160.642 80.4993 161.136 80.56 161.742 80.716C162.089 80.7853 162.332 80.95 162.47 81.21C162.557 81.366 162.609 81.5393 162.626 81.73C162.661 81.9033 162.67 82.1373 162.652 82.432C162.618 83.42 162.661 84.3387 162.782 85.188C162.904 86.0373 163.242 86.6787 163.796 87.112C164.42 87.5973 165.096 87.8227 165.824 87.788C166.552 87.736 167.306 87.4587 168.086 86.956C168.381 86.7653 168.589 86.7133 168.71 86.8C168.814 86.8867 168.849 87.008 168.814 87.164C168.797 87.3027 168.736 87.45 168.632 87.606C168.112 88.3513 167.558 88.932 166.968 89.348C166.379 89.7467 165.781 90.0067 165.174 90.128C164.585 90.232 163.996 90.2233 163.406 90.102C162.817 89.9633 162.254 89.7207 161.716 89.374C161.11 88.9927 160.59 88.308 160.156 87.32C159.723 86.3147 159.472 84.98 159.402 83.316C159.385 82.848 159.359 82.5187 159.324 82.328C159.29 82.1373 159.177 81.9987 158.986 81.912C158.848 81.8427 158.726 81.7647 158.622 81.678C158.518 81.574 158.466 81.47 158.466 81.366C158.466 81.2273 158.536 81.0973 158.674 80.976C158.83 80.8547 158.995 80.768 159.168 80.716ZM195.449 83.134C195.449 83.5327 195.345 83.836 195.137 84.044L194.695 84.46H200.415C200.761 84.46 200.935 84.5467 200.935 84.72C200.935 84.876 200.77 85.058 200.441 85.266C200.198 85.422 199.964 85.5867 199.739 85.76C199.531 85.9333 199.331 86.1153 199.141 86.306C198.898 86.5487 198.465 86.67 197.841 86.67H180.941C180.785 86.67 180.655 86.644 180.551 86.592C180.447 86.54 180.395 86.4707 180.395 86.384C180.395 86.2973 180.464 86.2107 180.603 86.124C180.741 86.02 180.88 85.9247 181.019 85.838C181.157 85.7513 181.331 85.6213 181.539 85.448C181.747 85.2747 181.946 85.1013 182.137 84.928C182.466 84.616 182.995 84.46 183.723 84.46H186.687V82.666C186.687 82.2673 186.791 81.964 186.999 81.756C187.103 81.652 187.267 81.5047 187.493 81.314C187.718 81.106 187.952 80.898 188.195 80.69C187.917 80.534 187.657 80.352 187.415 80.144C187.172 79.936 186.947 79.6847 186.739 79.39C186.409 78.9567 186.193 78.4887 186.089 77.986C186.002 77.466 186.037 76.9373 186.193 76.4C186.349 75.8627 186.643 75.334 187.077 74.814C187.51 74.2767 188.091 73.7567 188.819 73.254C189.46 72.8033 190.093 72.5087 190.717 72.37C191.341 72.214 191.93 72.1793 192.485 72.266C193.039 72.3527 193.551 72.552 194.019 72.864C194.487 73.176 194.894 73.566 195.241 74.034C195.605 74.5367 195.821 75.0653 195.891 75.62C195.977 76.1573 195.925 76.6947 195.735 77.232C195.544 77.7693 195.232 78.2893 194.799 78.792C194.365 79.2947 193.819 79.754 193.161 80.17C191.999 80.898 190.89 81.2187 189.833 81.132V83.134C189.833 83.5327 189.729 83.836 189.521 84.044L189.079 84.46H192.303V82.666C192.303 82.2673 192.407 81.964 192.615 81.756C192.771 81.6 193.031 81.366 193.395 81.054C193.759 80.7247 194.114 80.43 194.461 80.17C194.686 79.9967 194.903 79.962 195.111 80.066C195.336 80.1527 195.449 80.3607 195.449 80.69V83.134ZM189.391 77.778C189.651 78.09 189.954 78.3413 190.301 78.532C190.647 78.7227 190.985 78.8613 191.315 78.948C191.661 79.0347 191.973 79.078 192.251 79.078C192.528 79.0607 192.719 79.0087 192.823 78.922C192.927 78.8527 193.022 78.6967 193.109 78.454C193.195 78.2113 193.239 77.9253 193.239 77.596C193.256 77.2493 193.213 76.894 193.109 76.53C193.005 76.1487 192.823 75.7933 192.563 75.464C192.285 75.152 191.965 74.9007 191.601 74.71C191.237 74.502 190.873 74.3547 190.509 74.268C190.162 74.1813 189.841 74.138 189.547 74.138C189.252 74.138 189.053 74.1727 188.949 74.242C188.845 74.3287 188.758 74.502 188.689 74.762C188.619 75.0047 188.593 75.2993 188.611 75.646C188.628 75.9753 188.697 76.3307 188.819 76.712C188.94 77.0933 189.131 77.4487 189.391 77.778ZM208.823 82.874C208.927 82.7873 209.126 82.64 209.421 82.432C209.733 82.2067 210.053 81.9813 210.383 81.756C210.383 81.756 210.391 81.7473 210.409 81.73C210.409 81.73 210.426 81.7213 210.461 81.704C210.755 81.496 210.998 81.4353 211.189 81.522C211.379 81.5913 211.483 81.8253 211.501 82.224L211.059 82.484C210.747 82.6573 210.469 82.7873 210.227 82.874C209.984 82.9433 209.802 82.926 209.681 82.822C209.473 82.6487 209.568 82.406 209.967 82.094C210.036 82.042 210.097 81.99 210.149 81.938C210.218 81.8687 210.296 81.808 210.383 81.756C210.383 81.756 210.391 81.7473 210.409 81.73C210.894 81.314 211.301 80.8373 211.631 80.3C211.96 79.7627 212.168 79.1473 212.255 78.454C212.393 77.4487 212.159 76.582 211.553 75.854C210.963 75.126 210.045 74.7013 208.797 74.58C207.861 74.4933 207.011 74.6147 206.249 74.944C206.093 75.1867 205.963 75.4813 205.859 75.828C205.772 76.1573 205.746 76.504 205.781 76.868C205.833 77.232 205.963 77.5787 206.171 77.908C206.379 78.2373 206.708 78.506 207.159 78.714C207.401 78.8353 207.471 78.9913 207.367 79.182C207.28 79.3207 207.167 79.4767 207.029 79.65C206.907 79.8233 206.769 79.9967 206.613 80.17C206.457 80.326 206.301 80.4733 206.145 80.612C205.989 80.7507 205.85 80.8547 205.729 80.924C205.625 80.9933 205.512 81.028 205.391 81.028C205.269 81.028 205.174 80.9847 205.105 80.898C204.689 80.482 204.385 80.0487 204.195 79.598C204.021 79.13 203.926 78.6533 203.909 78.168C203.909 77.6827 203.987 77.2147 204.143 76.764C204.299 76.296 204.507 75.854 204.767 75.438C204.784 75.3687 204.836 75.282 204.923 75.178L205.001 75.1L205.287 74.736C205.703 74.2333 206.153 73.852 206.639 73.592C207.141 73.3147 207.635 73.124 208.121 73.02C208.623 72.8987 209.1 72.8553 209.551 72.89C210.001 72.9073 210.4 72.9507 210.747 73.02C211.579 73.2107 212.281 73.4967 212.853 73.878C213.442 74.2593 213.901 74.7013 214.231 75.204C214.56 75.6893 214.759 76.218 214.829 76.79C214.915 77.3447 214.881 77.8907 214.725 78.428C214.586 78.896 214.387 79.3293 214.127 79.728C213.884 80.1267 213.615 80.482 213.321 80.794C213.026 81.106 212.714 81.3833 212.385 81.626C212.073 81.8687 211.778 82.068 211.501 82.224V82.302V85.5C211.501 85.8987 211.397 86.202 211.189 86.41C211.033 86.566 210.773 86.8087 210.409 87.138C210.045 87.45 209.689 87.736 209.343 87.996C209.117 88.1693 208.892 88.2127 208.667 88.126C208.459 88.022 208.355 87.8053 208.355 87.476V83.706C208.355 83.5327 208.381 83.3853 208.433 83.264C208.502 83.1427 208.632 83.0127 208.823 82.874ZM210.383 89.66C210.452 89.7293 210.556 89.816 210.695 89.92C210.851 90.024 211.007 90.1367 211.163 90.258C211.319 90.362 211.475 90.466 211.631 90.57C211.787 90.674 211.917 90.7607 212.021 90.83C212.263 90.986 212.376 91.2027 212.359 91.48C212.341 91.584 212.298 91.6793 212.229 91.766C212.159 91.8353 212.047 91.9307 211.891 92.052C211.787 92.1213 211.657 92.2167 211.501 92.338C211.362 92.4593 211.206 92.5807 211.033 92.702C210.877 92.8407 210.721 92.9707 210.565 93.092C210.426 93.2307 210.313 93.3433 210.227 93.43C210.123 93.5513 209.975 93.6033 209.785 93.586C209.611 93.586 209.412 93.508 209.187 93.352L207.549 92.156C207.271 91.9827 207.159 91.7487 207.211 91.454C207.211 91.3153 207.271 91.2113 207.393 91.142C207.531 91.0553 207.653 90.9773 207.757 90.908C207.999 90.752 208.277 90.5527 208.589 90.31C208.901 90.0673 209.143 89.8507 209.317 89.66C209.629 89.348 209.984 89.348 210.383 89.66Z" fill="#E6EDEA"/>
</svg>
