<svg width="618" height="731" viewBox="0 0 618 731" fill="none" xmlns="http://www.w3.org/2000/svg">
<path d="M616.553 728.07L491.019 718.06L369.676 730.06L248.333 718.06L126.981 730.06L9.82996 720.05L0 580.45L11.2772 436.84L0 293.23L11.2772 149.61L1.43784 1.99L126.981 12L248.324 0L369.667 12L491.009 0L608.17 10.01L618 149.61L606.723 293.22L618 436.83L606.723 580.54L616.553 728.07Z" stroke="#E6EDEA" stroke-width="0.75" stroke-miterlimit="10"/>
<path d="M308.986 692.36C311.186 692.36 312.97 690.462 312.97 688.12C312.97 685.778 311.186 683.88 308.986 683.88C306.785 683.88 305.001 685.778 305.001 688.12C305.001 690.462 306.785 692.36 308.986 692.36Z" stroke="#E6EDEA" stroke-miterlimit="10"/>
<path d="M286.45 692.36C288.651 692.36 290.435 690.462 290.435 688.12C290.435 685.778 288.651 683.88 286.45 683.88C284.249 683.88 282.465 685.778 282.465 688.12C282.465 690.462 284.249 692.36 286.45 692.36Z" fill="#E6EDEA"/>
<path d="M331.54 692.36C333.741 692.36 335.525 690.462 335.525 688.12C335.525 685.778 333.741 683.88 331.54 683.88C329.34 683.88 327.556 685.778 327.556 688.12C327.556 690.462 329.34 692.36 331.54 692.36Z" stroke="#E6EDEA" stroke-miterlimit="10"/>
<path d="M95.958 63.2002C96.3047 63.2002 96.478 63.2869 96.478 63.4602C96.478 63.6162 96.3133 63.7982 95.984 64.0062C95.7413 64.1622 95.5073 64.3269 95.282 64.5002C95.074 64.6736 94.8747 64.8556 94.684 65.0462C94.4413 65.2889 94.008 65.4102 93.384 65.4102H87.768C87.612 65.4102 87.482 65.3842 87.378 65.3322C87.274 65.2802 87.222 65.2109 87.222 65.1242C87.222 65.0376 87.2913 64.9509 87.43 64.8642C87.5687 64.7602 87.7073 64.6649 87.846 64.5782C87.9847 64.4916 88.158 64.3616 88.366 64.1882C88.574 64.0149 88.7733 63.8416 88.964 63.6682C89.2933 63.3562 89.822 63.2002 90.55 63.2002H95.958ZM107.06 67.1782C106.731 66.7449 106.514 66.2769 106.41 65.7742C106.323 65.2542 106.358 64.7256 106.514 64.1882C106.67 63.6509 106.965 63.1222 107.398 62.6022C107.831 62.0649 108.412 61.5449 109.14 61.0422C109.781 60.5916 110.414 60.2969 111.038 60.1582C111.662 60.0022 112.251 59.9676 112.806 60.0542C113.361 60.1409 113.872 60.3402 114.34 60.6522C114.808 60.9642 115.215 61.3542 115.562 61.8222C115.926 62.3249 116.143 62.8536 116.212 63.4082C116.299 63.9456 116.247 64.4829 116.056 65.0202C115.865 65.5576 115.553 66.0776 115.12 66.5802C114.687 67.0829 114.141 67.5422 113.482 67.9582C112.217 68.7556 111.012 69.0762 109.868 68.9202C108.724 68.7469 107.788 68.1662 107.06 67.1782ZM124.298 56.8302C124.61 56.6049 124.861 56.5442 125.052 56.6482C125.243 56.7349 125.338 56.9949 125.338 57.4282V69.5442C125.338 69.9429 125.234 70.2462 125.026 70.4542C124.87 70.6102 124.61 70.8442 124.246 71.1562C123.882 71.4856 123.527 71.7802 123.18 72.0402C122.955 72.2136 122.729 72.2482 122.504 72.1442C122.296 72.0576 122.192 71.8496 122.192 71.5202V65.4102H118.058C117.815 65.4102 117.651 65.4016 117.564 65.3842C117.495 65.3669 117.417 65.3149 117.33 65.2282C117.243 65.1416 117.226 65.0636 117.278 64.9942C117.347 64.9249 117.451 64.8382 117.59 64.7342C117.677 64.6822 117.798 64.5956 117.954 64.4742C118.127 64.3356 118.301 64.1969 118.474 64.0582C118.665 63.9196 118.829 63.7982 118.968 63.6942C119.124 63.5729 119.228 63.4949 119.28 63.4602C119.384 63.3736 119.54 63.3129 119.748 63.2782C119.956 63.2262 120.155 63.2002 120.346 63.2002H122.192V60.3402C122.192 60.1322 122.131 60.0109 122.01 59.9762C121.906 59.9416 121.733 60.0109 121.49 60.1842C121.334 60.3056 121.169 60.3662 120.996 60.3662C120.823 60.3662 120.693 60.3056 120.606 60.1842C120.502 60.0456 120.476 59.8896 120.528 59.7162C120.597 59.5429 120.727 59.3869 120.918 59.2482L124.298 56.8302ZM113.066 73.5222C113.309 73.2796 113.586 73.0456 113.898 72.8202C114.227 72.5949 114.687 72.3956 115.276 72.2222C115.64 72.1182 115.935 72.1442 116.16 72.3002C116.42 72.4562 116.68 72.7769 116.94 73.2622C117.408 74.1462 117.919 74.8482 118.474 75.3682C119.046 75.9056 119.601 76.2696 120.138 76.4602C120.883 76.7202 121.681 76.8156 122.53 76.7462C123.379 76.6942 124.211 76.3649 125.026 75.7582C125.165 75.6542 125.286 75.6022 125.39 75.6022C125.494 75.6022 125.572 75.6282 125.624 75.6802C125.815 75.8709 125.763 76.1136 125.468 76.4082C124.913 76.9456 124.333 77.3962 123.726 77.7602C123.137 78.1416 122.539 78.4362 121.932 78.6442C121.325 78.8522 120.719 78.9649 120.112 78.9822C119.523 79.0169 118.968 78.9562 118.448 78.8002C117.564 78.5402 116.793 78.1329 116.134 77.5782C115.475 77.0236 114.955 76.3822 114.574 75.6542C114.349 75.2209 114.167 74.9349 114.028 74.7962C113.889 74.6749 113.707 74.6229 113.482 74.6402C113.326 74.6576 113.179 74.6489 113.04 74.6142C112.919 74.5796 112.832 74.5189 112.78 74.4322C112.711 74.3109 112.702 74.1636 112.754 73.9902C112.823 73.8169 112.927 73.6609 113.066 73.5222ZM109.712 65.5662C109.972 65.8782 110.275 66.1296 110.622 66.3202C110.969 66.5109 111.307 66.6496 111.636 66.7362C111.983 66.8229 112.295 66.8662 112.572 66.8662C112.849 66.8489 113.04 66.7969 113.144 66.7102C113.248 66.6409 113.343 66.4849 113.43 66.2422C113.517 65.9996 113.56 65.7136 113.56 65.3842C113.577 65.0376 113.534 64.6822 113.43 64.3182C113.326 63.9369 113.144 63.5816 112.884 63.2522C112.607 62.9402 112.286 62.6889 111.922 62.4982C111.558 62.2902 111.194 62.1429 110.83 62.0562C110.483 61.9696 110.163 61.9262 109.868 61.9262C109.573 61.9262 109.374 61.9609 109.27 62.0302C109.166 62.1169 109.079 62.2902 109.01 62.5502C108.941 62.7929 108.915 63.0876 108.932 63.4342C108.949 63.7636 109.019 64.1189 109.14 64.5002C109.261 64.8816 109.452 65.2369 109.712 65.5662ZM146.512 53.3982C146.824 53.1729 147.075 53.1122 147.266 53.2162C147.457 53.3029 147.552 53.5629 147.552 53.9962V69.8302C147.552 70.2289 147.448 70.5322 147.24 70.7402C147.084 70.8962 146.876 71.0869 146.616 71.3122C146.373 71.5376 146.079 71.7802 145.732 72.0402C145.507 72.2136 145.281 72.2482 145.056 72.1442C144.848 72.0576 144.744 71.8496 144.744 71.5202V65.4102H140.61C140.367 65.4102 140.203 65.4016 140.116 65.3842C140.047 65.3669 139.969 65.3149 139.882 65.2282C139.795 65.1416 139.778 65.0636 139.83 64.9942C139.899 64.9249 140.003 64.8382 140.142 64.7342C140.229 64.6822 140.35 64.5956 140.506 64.4742C140.679 64.3356 140.853 64.1969 141.026 64.0582C141.217 63.9196 141.381 63.7982 141.52 63.6942C141.676 63.5729 141.78 63.4949 141.832 63.4602C141.936 63.3736 142.092 63.3129 142.3 63.2782C142.508 63.2262 142.707 63.2002 142.898 63.2002H144.744V56.6222C144.744 56.4142 144.683 56.2929 144.562 56.2582C144.458 56.2236 144.285 56.2929 144.042 56.4662C143.886 56.5876 143.721 56.6482 143.548 56.6482C143.375 56.6482 143.245 56.5876 143.158 56.4662C143.054 56.3276 143.028 56.1716 143.08 55.9982C143.149 55.8249 143.279 55.6689 143.47 55.5302L146.512 53.3982ZM151.712 52.3582C152.024 52.1329 152.275 52.0722 152.466 52.1762C152.657 52.2629 152.752 52.5229 152.752 52.9562V69.8302C152.752 70.2289 152.648 70.5322 152.44 70.7402C152.284 70.8962 152.076 71.0869 151.816 71.3122C151.573 71.5376 151.279 71.7802 150.932 72.0402C150.707 72.2136 150.481 72.2482 150.256 72.1442C150.048 72.0576 149.944 71.8496 149.944 71.5202V55.5822C149.944 55.3742 149.883 55.2529 149.762 55.2182C149.658 55.1836 149.485 55.2529 149.242 55.4262C149.086 55.5476 148.921 55.6082 148.748 55.6082C148.575 55.6082 148.445 55.5476 148.358 55.4262C148.254 55.2876 148.228 55.1316 148.28 54.9582C148.349 54.7849 148.479 54.6289 148.67 54.4902L151.712 52.3582ZM140.662 60.2362C141.009 60.2362 141.182 60.3229 141.182 60.4962C141.182 60.6522 141.017 60.8342 140.688 61.0422C140.445 61.1982 140.211 61.3629 139.986 61.5362C139.778 61.7096 139.579 61.8916 139.388 62.0822C139.145 62.3249 138.712 62.4462 138.088 62.4462H137.386C137.455 62.5502 137.499 62.6282 137.516 62.6802C137.585 62.9056 137.585 63.2089 137.516 63.5902C137.447 63.9716 137.291 64.4482 137.048 65.0202C136.753 65.7136 136.346 66.3809 135.826 67.0222C135.306 67.6462 134.751 68.1662 134.162 68.5822C133.59 68.9809 132.966 69.3189 132.29 69.5962C131.631 69.8736 131.059 70.0556 130.574 70.1422C130.331 70.1769 130.132 70.1856 129.976 70.1682C129.837 70.1336 129.751 70.0816 129.716 70.0122C129.681 69.9429 129.716 69.8562 129.82 69.7522C129.924 69.6309 130.063 69.5096 130.236 69.3882C130.323 69.3362 130.461 69.2496 130.652 69.1282C130.843 68.9896 131.059 68.8336 131.302 68.6602C131.545 68.4869 131.796 68.3049 132.056 68.1142C132.316 67.9062 132.55 67.6982 132.758 67.4902C133.157 67.1089 133.469 66.7016 133.694 66.2682C133.937 65.8349 134.093 65.4362 134.162 65.0722C134.231 64.7082 134.257 64.4136 134.24 64.1882C134.223 63.9456 134.188 63.7289 134.136 63.5382C134.084 63.3302 134.11 63.1742 134.214 63.0702C134.335 62.9662 134.457 62.8969 134.578 62.8622L135.852 62.4462H131.042C130.886 62.4462 130.756 62.4202 130.652 62.3682C130.548 62.3162 130.496 62.2469 130.496 62.1602C130.496 62.0736 130.565 61.9869 130.704 61.9002C130.843 61.7962 130.981 61.7009 131.12 61.6142C131.259 61.5276 131.432 61.3976 131.64 61.2242C131.848 61.0509 132.047 60.8776 132.238 60.7042C132.567 60.3922 133.096 60.2362 133.824 60.2362H140.662ZM137.568 66.1382C137.689 65.9649 137.906 65.9042 138.218 65.9562C138.443 65.9909 138.677 66.0429 138.92 66.1122C139.163 66.1642 139.44 66.2509 139.752 66.3722C140.064 66.4936 140.341 66.6756 140.584 66.9182C140.827 67.1609 140.983 67.4642 141.052 67.8282C141.156 68.3829 140.853 69.0589 140.142 69.8562C140.021 69.9949 139.899 70.0556 139.778 70.0382C139.657 70.0036 139.561 69.9082 139.492 69.7522C139.457 69.6656 139.405 69.5702 139.336 69.4662C139.267 69.3449 139.154 69.1889 138.998 68.9982C138.565 68.4782 138.088 68.1662 137.568 68.0622C137.36 68.0276 137.195 68.0016 137.074 67.9842C136.953 67.9496 136.823 67.9149 136.684 67.8802C136.545 67.8456 136.459 67.7589 136.424 67.6202C136.389 67.4816 136.407 67.3602 136.476 67.2562C136.545 67.1522 136.632 67.0482 136.736 66.9442C136.84 66.8229 136.935 66.7362 137.022 66.6842C137.247 66.5109 137.429 66.3289 137.568 66.1382ZM172.439 53.3462C172.751 53.1209 173.003 53.0602 173.193 53.1642C173.384 53.2509 173.479 53.5109 173.479 53.9442V69.5962C173.479 69.9949 173.375 70.2982 173.167 70.5062C173.011 70.6622 172.751 70.8962 172.387 71.2082C172.023 71.5376 171.668 71.8322 171.321 72.0922C171.096 72.2656 170.871 72.3002 170.645 72.1962C170.437 72.1096 170.333 71.9016 170.333 71.5722V56.8562C170.333 56.6482 170.273 56.5269 170.151 56.4922C170.047 56.4576 169.874 56.5269 169.631 56.7002C169.475 56.8216 169.311 56.8822 169.137 56.8822C168.964 56.8822 168.834 56.8216 168.747 56.7002C168.643 56.5616 168.617 56.4056 168.669 56.2322C168.739 56.0589 168.869 55.9029 169.059 55.7642L172.439 53.3462ZM157.463 62.9142C156.874 62.1342 156.709 61.2589 156.969 60.2882C157.229 59.3002 158.001 58.3729 159.283 57.5062C159.855 57.1076 160.419 56.8476 160.973 56.7262C161.528 56.5876 162.048 56.5616 162.533 56.6482C163.019 56.7176 163.469 56.8909 163.885 57.1682C164.301 57.4456 164.657 57.7922 164.951 58.2082C165.263 58.6416 165.454 59.1009 165.523 59.5862C165.593 60.0716 165.541 60.5569 165.367 61.0422C165.211 61.5102 164.943 61.9696 164.561 62.4202C164.18 62.8536 163.703 63.2522 163.131 63.6162C162.005 64.3269 160.939 64.6129 159.933 64.4742C158.928 64.3182 158.105 63.7982 157.463 62.9142ZM167.473 67.6202C167.82 67.6202 167.993 67.7069 167.993 67.8802C167.993 68.0362 167.829 68.2182 167.499 68.4262C167.257 68.5822 167.023 68.7469 166.797 68.9202C166.589 69.0936 166.39 69.2756 166.199 69.4662C165.957 69.7089 165.523 69.8302 164.899 69.8302H155.019C154.863 69.8302 154.733 69.8042 154.629 69.7522C154.525 69.7002 154.473 69.6309 154.473 69.5442C154.473 69.4576 154.543 69.3709 154.681 69.2842C154.82 69.1802 154.959 69.0849 155.097 68.9982C155.236 68.9116 155.409 68.7816 155.617 68.6082C155.825 68.4349 156.025 68.2616 156.215 68.0882C156.545 67.7762 157.073 67.6202 157.801 67.6202H167.473ZM159.881 61.4582C160.089 61.7182 160.341 61.9262 160.635 62.0822C160.93 62.2382 161.216 62.3509 161.493 62.4202C161.771 62.4722 162.022 62.4982 162.247 62.4982C162.473 62.4809 162.629 62.4376 162.715 62.3682C162.802 62.3162 162.88 62.1862 162.949 61.9782C163.019 61.7702 163.053 61.5362 163.053 61.2762C163.071 60.9989 163.036 60.7042 162.949 60.3922C162.863 60.0802 162.715 59.7942 162.507 59.5342C162.282 59.2742 162.013 59.0662 161.701 58.9102C161.407 58.7369 161.103 58.6156 160.791 58.5462C160.497 58.4596 160.228 58.4162 159.985 58.4162C159.76 58.4162 159.595 58.4422 159.491 58.4942C159.405 58.5636 159.335 58.7022 159.283 58.9102C159.231 59.1182 159.214 59.3696 159.231 59.6642C159.249 59.9416 159.309 60.2449 159.413 60.5742C159.517 60.8862 159.673 61.1809 159.881 61.4582ZM202.324 53.3462C202.636 53.1209 202.887 53.0602 203.078 53.1642C203.269 53.2509 203.364 53.5109 203.364 53.9442V69.5962C203.364 69.9949 203.26 70.2982 203.052 70.5062C202.896 70.6622 202.636 70.8962 202.272 71.2082C201.908 71.5376 201.553 71.8322 201.206 72.0922C200.981 72.2656 200.755 72.3002 200.53 72.1962C200.322 72.1096 200.218 71.9016 200.218 71.5722V56.8562C200.218 56.6482 200.157 56.5269 200.036 56.4922C199.932 56.4576 199.759 56.5269 199.516 56.7002C199.36 56.8216 199.195 56.8822 199.022 56.8822C198.849 56.8822 198.719 56.8216 198.632 56.7002C198.528 56.5616 198.502 56.4056 198.554 56.2322C198.623 56.0589 198.753 55.9029 198.944 55.7642L202.324 53.3462ZM194.342 60.6262C194.931 61.8396 194.888 63.3042 194.212 65.0202C194.073 65.3496 193.874 65.7136 193.614 66.1122C193.354 66.5109 193.059 66.9009 192.73 67.2822C192.401 67.6636 192.063 68.0189 191.716 68.3482C191.369 68.6776 191.049 68.9289 190.754 69.1022C190.511 69.2409 190.277 69.3189 190.052 69.3362C189.844 69.3536 189.705 69.3189 189.636 69.2322C189.549 69.0936 189.532 68.9289 189.584 68.7382C189.653 68.5302 189.74 68.3569 189.844 68.2182C190.035 67.9409 190.199 67.6982 190.338 67.4902C190.494 67.2649 190.633 67.0482 190.754 66.8402C190.875 66.6149 190.988 66.3896 191.092 66.1642C191.196 65.9216 191.309 65.6442 191.43 65.3322C191.551 64.9856 191.638 64.5956 191.69 64.1622C191.742 63.7289 191.725 63.3909 191.638 63.1482C191.551 62.8362 191.404 62.6022 191.196 62.4462C191.005 62.2902 190.789 62.2209 190.546 62.2382C190.217 62.2556 189.896 62.2729 189.584 62.2902C189.289 62.3076 188.891 62.3249 188.388 62.3422C188.128 62.3422 187.842 62.3422 187.53 62.3422C187.218 62.3422 186.915 62.3336 186.62 62.3162C186.325 62.2989 186.048 62.2729 185.788 62.2382C185.528 62.1862 185.311 62.1342 185.138 62.0822C184.895 61.9956 184.791 61.8656 184.826 61.6922C184.878 61.5016 185.077 61.3109 185.424 61.1202C185.615 61.0162 185.823 60.8862 186.048 60.7302C186.291 60.5742 186.499 60.4269 186.672 60.2882C186.863 60.1496 187.045 60.0629 187.218 60.0282C187.409 59.9762 187.669 59.9676 187.998 60.0022C188.293 60.0369 188.605 60.0629 188.934 60.0802C189.263 60.0976 189.705 60.0976 190.26 60.0802C190.607 60.0629 190.962 60.0369 191.326 60.0022C191.707 59.9676 192.245 59.9329 192.938 59.8982C193.25 59.8809 193.527 59.9329 193.77 60.0542C194.013 60.1582 194.203 60.3489 194.342 60.6262ZM208.47 67.1782C208.141 66.7449 207.924 66.2769 207.82 65.7742C207.733 65.2542 207.768 64.7256 207.924 64.1882C208.08 63.6509 208.375 63.1222 208.808 62.6022C209.241 62.0649 209.822 61.5449 210.55 61.0422C211.191 60.5916 211.824 60.2969 212.448 60.1582C213.072 60.0022 213.661 59.9676 214.216 60.0542C214.771 60.1409 215.282 60.3402 215.75 60.6522C216.218 60.9642 216.625 61.3542 216.972 61.8222C217.336 62.3249 217.553 62.8536 217.622 63.4082C217.709 63.9456 217.657 64.4829 217.466 65.0202C217.275 65.5576 216.963 66.0776 216.53 66.5802C216.097 67.0829 215.551 67.5422 214.892 67.9582C213.627 68.7556 212.422 69.0762 211.278 68.9202C210.134 68.7469 209.198 68.1662 208.47 67.1782ZM225.708 56.8302C226.02 56.6049 226.271 56.5442 226.462 56.6482C226.653 56.7349 226.748 56.9949 226.748 57.4282V67.6722C226.748 68.0709 226.644 68.3742 226.436 68.5822C226.28 68.7382 226.02 68.9809 225.656 69.3102C225.292 69.6222 224.937 69.9082 224.59 70.1682C224.365 70.3416 224.139 70.3849 223.914 70.2982C223.706 70.1942 223.602 69.9776 223.602 69.6482V65.4102H218.87C218.627 65.4102 218.463 65.4016 218.376 65.3842C218.307 65.3669 218.229 65.3149 218.142 65.2282C218.055 65.1416 218.038 65.0636 218.09 64.9942C218.159 64.9249 218.263 64.8382 218.402 64.7342C218.489 64.6822 218.61 64.5956 218.766 64.4742C218.939 64.3356 219.113 64.1969 219.286 64.0582C219.477 63.9196 219.641 63.7982 219.78 63.6942C219.936 63.5729 220.04 63.4949 220.092 63.4602C220.196 63.3736 220.352 63.3129 220.56 63.2782C220.768 63.2262 220.967 63.2002 221.158 63.2002H223.602V60.3402C223.602 60.1322 223.541 60.0109 223.42 59.9762C223.316 59.9416 223.143 60.0109 222.9 60.1842C222.744 60.3056 222.579 60.3662 222.406 60.3662C222.233 60.3662 222.103 60.3056 222.016 60.1842C221.912 60.0456 221.886 59.8896 221.938 59.7162C222.007 59.5429 222.137 59.3869 222.328 59.2482L225.708 56.8302ZM216.036 72.0662C216.192 71.9622 216.365 71.8929 216.556 71.8582C216.747 71.8409 216.972 71.8496 217.232 71.8842C217.561 71.9189 217.951 71.9362 218.402 71.9362C218.87 71.9362 219.286 71.9276 219.65 71.9102C219.875 71.9102 220.161 71.8929 220.508 71.8582C220.872 71.8409 221.253 71.8236 221.652 71.8062C222.051 71.7889 222.458 71.7802 222.874 71.7802C223.29 71.7802 223.671 71.7889 224.018 71.8062C224.538 71.8409 224.954 71.9622 225.266 72.1702C225.595 72.3782 225.847 72.6382 226.02 72.9502C226.193 73.2622 226.289 73.6176 226.306 74.0162C226.323 74.4322 226.28 74.8569 226.176 75.2902C226.072 75.7409 225.89 76.2089 225.63 76.6942C225.37 77.1969 225.084 77.6736 224.772 78.1242C224.46 78.5749 224.139 78.9736 223.81 79.3202C223.498 79.6842 223.229 79.9356 223.004 80.0742C222.761 80.2129 222.579 80.2736 222.458 80.2562C222.354 80.2562 222.285 80.2129 222.25 80.1262C222.215 80.0396 222.207 79.9356 222.224 79.8142C222.259 79.6929 222.302 79.5802 222.354 79.4762C222.406 79.3896 222.475 79.2336 222.562 79.0082C222.666 78.8002 222.77 78.5402 222.874 78.2282C222.978 77.9336 223.065 77.5956 223.134 77.2142C223.221 76.8329 223.273 76.4429 223.29 76.0442C223.307 75.5416 223.203 75.1342 222.978 74.8222C222.753 74.5102 222.441 74.3282 222.042 74.2762C221.817 74.2416 221.513 74.2156 221.132 74.1982C220.751 74.1982 220.343 74.1982 219.91 74.1982C219.477 74.2156 219.052 74.2242 218.636 74.2242C218.22 74.2416 217.873 74.2502 217.596 74.2502C217.336 74.2502 217.05 74.2416 216.738 74.2242C216.426 74.2242 216.114 74.2156 215.802 74.1982C215.507 74.1809 215.23 74.1549 214.97 74.1202C214.71 74.0856 214.502 74.0422 214.346 73.9902C214.138 73.9209 214.034 73.7996 214.034 73.6262C214.051 73.4529 214.233 73.2449 214.58 73.0022L216.036 72.0662ZM211.122 65.5662C211.382 65.8782 211.685 66.1296 212.032 66.3202C212.379 66.5109 212.717 66.6496 213.046 66.7362C213.393 66.8229 213.705 66.8662 213.982 66.8662C214.259 66.8489 214.45 66.7969 214.554 66.7102C214.658 66.6409 214.753 66.4849 214.84 66.2422C214.927 65.9996 214.97 65.7136 214.97 65.3842C214.987 65.0376 214.944 64.6822 214.84 64.3182C214.736 63.9369 214.554 63.5816 214.294 63.2522C214.017 62.9402 213.696 62.6889 213.332 62.4982C212.968 62.2902 212.604 62.1429 212.24 62.0562C211.893 61.9696 211.573 61.9262 211.278 61.9262C210.983 61.9262 210.784 61.9609 210.68 62.0302C210.576 62.1169 210.489 62.2902 210.42 62.5502C210.351 62.7929 210.325 63.0876 210.342 63.4342C210.359 63.7636 210.429 64.1189 210.55 64.5002C210.671 64.8816 210.862 65.2369 211.122 65.5662ZM233.18 67.2562C232.851 66.8229 232.634 66.3549 232.53 65.8522C232.444 65.3322 232.478 64.8036 232.634 64.2662C232.79 63.7289 233.085 63.2002 233.518 62.6802C233.952 62.1429 234.532 61.6229 235.26 61.1202C235.902 60.6696 236.534 60.3749 237.158 60.2362C237.782 60.0802 238.372 60.0456 238.926 60.1322C239.481 60.2189 239.992 60.4182 240.46 60.7302C240.928 61.0422 241.336 61.4322 241.682 61.9002C242.046 62.4029 242.263 62.9316 242.332 63.4862C242.419 64.0236 242.367 64.5609 242.176 65.0982C241.986 65.6356 241.674 66.1556 241.24 66.6582C240.807 67.1609 240.261 67.6202 239.602 68.0362C238.337 68.8336 237.132 69.1542 235.988 68.9982C234.844 68.8249 233.908 68.2442 233.18 67.2562ZM249.118 56.8302C249.43 56.6049 249.682 56.5442 249.872 56.6482C250.063 56.7349 250.158 56.9949 250.158 57.4282V69.5442C250.158 69.9429 250.054 70.2462 249.846 70.4542C249.69 70.6102 249.43 70.8442 249.066 71.1562C248.702 71.4856 248.347 71.7802 248 72.0402C247.775 72.2136 247.55 72.2482 247.324 72.1442C247.116 72.0576 247.012 71.8496 247.012 71.5202V60.3402C247.012 60.1322 246.952 60.0109 246.83 59.9762C246.726 59.9416 246.553 60.0109 246.31 60.1842C246.154 60.3056 245.99 60.3662 245.816 60.3662C245.643 60.3662 245.513 60.3056 245.426 60.1842C245.322 60.0456 245.296 59.8896 245.348 59.7162C245.418 59.5429 245.548 59.3869 245.738 59.2482L249.118 56.8302ZM237.886 73.5222C238.129 73.2796 238.406 73.0456 238.718 72.8202C239.048 72.5949 239.507 72.3956 240.096 72.2222C240.46 72.1182 240.755 72.1442 240.98 72.3002C241.24 72.4562 241.5 72.7769 241.76 73.2622C242.228 74.1462 242.74 74.8482 243.294 75.3682C243.866 75.9056 244.421 76.2696 244.958 76.4602C245.704 76.7202 246.501 76.8156 247.35 76.7462C248.2 76.6942 249.032 76.3649 249.846 75.7582C249.985 75.6542 250.106 75.6022 250.21 75.6022C250.314 75.6022 250.392 75.6282 250.444 75.6802C250.635 75.8709 250.583 76.1136 250.288 76.4082C249.734 76.9456 249.153 77.3962 248.546 77.7602C247.957 78.1416 247.359 78.4362 246.752 78.6442C246.146 78.8522 245.539 78.9649 244.932 78.9822C244.343 79.0169 243.788 78.9562 243.268 78.8002C242.384 78.5402 241.613 78.1329 240.954 77.5782C240.296 77.0236 239.776 76.3822 239.394 75.6542C239.169 75.2209 238.987 74.9349 238.848 74.7962C238.71 74.6749 238.528 74.6229 238.302 74.6402C238.146 74.6576 237.999 74.6489 237.86 74.6142C237.739 74.5796 237.652 74.5189 237.6 74.4322C237.531 74.3109 237.522 74.1636 237.574 73.9902C237.644 73.8169 237.748 73.6609 237.886 73.5222ZM235.832 65.6442C236.092 65.9562 236.396 66.2076 236.742 66.3982C237.089 66.5889 237.427 66.7276 237.756 66.8142C238.103 66.9009 238.415 66.9442 238.692 66.9442C238.97 66.9269 239.16 66.8749 239.264 66.7882C239.368 66.7189 239.464 66.5629 239.55 66.3202C239.637 66.0776 239.68 65.7916 239.68 65.4622C239.698 65.1156 239.654 64.7602 239.55 64.3962C239.446 64.0149 239.264 63.6596 239.004 63.3302C238.727 63.0182 238.406 62.7669 238.042 62.5762C237.678 62.3682 237.314 62.2209 236.95 62.1342C236.604 62.0476 236.283 62.0042 235.988 62.0042C235.694 62.0042 235.494 62.0389 235.39 62.1082C235.286 62.1949 235.2 62.3682 235.13 62.6282C235.061 62.8709 235.035 63.1656 235.052 63.5122C235.07 63.8416 235.139 64.1969 235.26 64.5782C235.382 64.9596 235.572 65.3149 235.832 65.6442ZM271.644 53.3462C271.956 53.1209 272.208 53.0602 272.398 53.1642C272.589 53.2509 272.684 53.5109 272.684 53.9442V63.5382C272.996 63.3129 273.248 63.2002 273.438 63.2002H276.22C276.567 63.2002 276.74 63.2869 276.74 63.4602C276.74 63.6162 276.576 63.7982 276.246 64.0062C276.004 64.1622 275.77 64.3269 275.544 64.5002C275.336 64.6736 275.137 64.8556 274.946 65.0462C274.704 65.2889 274.27 65.4102 273.646 65.4102H272.684V69.5962C272.684 69.9949 272.58 70.2982 272.372 70.5062C272.216 70.6622 271.956 70.8962 271.592 71.2082C271.228 71.5376 270.873 71.8322 270.526 72.0922C270.301 72.2656 270.076 72.3002 269.85 72.1962C269.642 72.1096 269.538 71.9016 269.538 71.5722V56.8562C269.538 56.6482 269.478 56.5269 269.356 56.4922C269.252 56.4576 269.079 56.5269 268.836 56.7002C268.68 56.8216 268.516 56.8822 268.342 56.8822C268.169 56.8822 268.039 56.8216 267.952 56.7002C267.848 56.5616 267.822 56.4056 267.874 56.2322C267.944 56.0589 268.074 55.9029 268.264 55.7642L271.644 53.3462ZM264.832 60.3662C265.422 61.5796 265.378 63.0442 264.702 64.7602C264.564 65.0896 264.364 65.4536 264.104 65.8522C263.844 66.2509 263.55 66.6409 263.22 67.0222C262.891 67.4036 262.553 67.7589 262.206 68.0882C261.86 68.4176 261.539 68.6689 261.244 68.8422C261.002 68.9809 260.768 69.0589 260.542 69.0762C260.334 69.0936 260.196 69.0589 260.126 68.9722C260.04 68.8336 260.022 68.6689 260.074 68.4782C260.144 68.2702 260.23 68.0969 260.334 67.9582C260.525 67.6809 260.69 67.4382 260.828 67.2302C260.984 67.0049 261.123 66.7882 261.244 66.5802C261.366 66.3549 261.478 66.1296 261.582 65.9042C261.686 65.6616 261.799 65.3842 261.92 65.0722C262.042 64.7256 262.128 64.3356 262.18 63.9022C262.232 63.4689 262.215 63.1309 262.128 62.8882C262.042 62.5762 261.894 62.3422 261.686 62.1862C261.496 62.0302 261.279 61.9609 261.036 61.9782C260.707 61.9956 260.386 62.0129 260.074 62.0302C259.78 62.0476 259.381 62.0649 258.878 62.0822C258.618 62.0822 258.332 62.0822 258.02 62.0822C257.708 62.0822 257.405 62.0736 257.11 62.0562C256.816 62.0389 256.538 62.0129 256.278 61.9782C256.018 61.9262 255.802 61.8742 255.628 61.8222C255.386 61.7356 255.282 61.6056 255.316 61.4322C255.368 61.2416 255.568 61.0509 255.914 60.8602C256.105 60.7562 256.313 60.6262 256.538 60.4702C256.781 60.3142 256.989 60.1669 257.162 60.0282C257.353 59.8896 257.535 59.8029 257.708 59.7682C257.899 59.7162 258.159 59.7076 258.488 59.7422C258.783 59.7769 259.095 59.8029 259.424 59.8202C259.754 59.8376 260.196 59.8376 260.75 59.8202C261.097 59.8029 261.452 59.7769 261.816 59.7422C262.198 59.7076 262.735 59.6729 263.428 59.6382C263.74 59.6209 264.018 59.6729 264.26 59.7942C264.503 59.8982 264.694 60.0889 264.832 60.3662ZM292.949 61.8742C292.949 62.2729 292.845 62.5762 292.637 62.7842L292.195 63.2002H297.915C298.261 63.2002 298.435 63.2869 298.435 63.4602C298.435 63.6162 298.27 63.7982 297.941 64.0062C297.698 64.1622 297.464 64.3269 297.239 64.5002C297.031 64.6736 296.831 64.8556 296.641 65.0462C296.398 65.2889 295.965 65.4102 295.341 65.4102H278.441C278.285 65.4102 278.155 65.3842 278.051 65.3322C277.947 65.2802 277.895 65.2109 277.895 65.1242C277.895 65.0376 277.964 64.9509 278.103 64.8642C278.241 64.7602 278.38 64.6649 278.519 64.5782C278.657 64.4916 278.831 64.3616 279.039 64.1882C279.247 64.0149 279.446 63.8416 279.637 63.6682C279.966 63.3562 280.495 63.2002 281.223 63.2002H284.187V61.4062C284.187 61.0076 284.291 60.7042 284.499 60.4962C284.603 60.3922 284.767 60.2449 284.993 60.0542C285.218 59.8462 285.452 59.6382 285.695 59.4302C285.417 59.2742 285.157 59.0922 284.915 58.8842C284.672 58.6762 284.447 58.4249 284.239 58.1302C283.909 57.6969 283.693 57.2289 283.589 56.7262C283.502 56.2062 283.537 55.6776 283.693 55.1402C283.849 54.6029 284.143 54.0742 284.577 53.5542C285.01 53.0169 285.591 52.4969 286.319 51.9942C286.96 51.5436 287.593 51.2489 288.217 51.1102C288.841 50.9542 289.43 50.9196 289.985 51.0062C290.539 51.0929 291.051 51.2922 291.519 51.6042C291.987 51.9162 292.394 52.3062 292.741 52.7742C293.105 53.2769 293.321 53.8056 293.391 54.3602C293.477 54.8976 293.425 55.4349 293.235 55.9722C293.044 56.5096 292.732 57.0296 292.299 57.5322C291.865 58.0349 291.319 58.4942 290.661 58.9102C289.499 59.6382 288.39 59.9589 287.333 59.8722V61.8742C287.333 62.2729 287.229 62.5762 287.021 62.7842L286.579 63.2002H289.803V61.4062C289.803 61.0076 289.907 60.7042 290.115 60.4962C290.271 60.3402 290.531 60.1062 290.895 59.7942C291.259 59.4649 291.614 59.1702 291.961 58.9102C292.186 58.7369 292.403 58.7022 292.611 58.8062C292.836 58.8929 292.949 59.1009 292.949 59.4302V61.8742ZM286.891 56.5182C287.151 56.8302 287.454 57.0816 287.801 57.2722C288.147 57.4629 288.485 57.6016 288.815 57.6882C289.161 57.7749 289.473 57.8182 289.751 57.8182C290.028 57.8009 290.219 57.7489 290.323 57.6622C290.427 57.5929 290.522 57.4369 290.609 57.1942C290.695 56.9516 290.739 56.6656 290.739 56.3362C290.756 55.9896 290.713 55.6342 290.609 55.2702C290.505 54.8889 290.323 54.5336 290.063 54.2042C289.785 53.8922 289.465 53.6409 289.101 53.4502C288.737 53.2422 288.373 53.0949 288.009 53.0082C287.662 52.9216 287.341 52.8782 287.047 52.8782C286.752 52.8782 286.553 52.9129 286.449 52.9822C286.345 53.0689 286.258 53.2422 286.189 53.5022C286.119 53.7449 286.093 54.0396 286.111 54.3862C286.128 54.7156 286.197 55.0709 286.319 55.4522C286.44 55.8336 286.631 56.1889 286.891 56.5182ZM306.323 61.6142C306.427 61.5276 306.626 61.3802 306.921 61.1722C307.233 60.9469 307.553 60.7216 307.883 60.4962C307.883 60.4962 307.891 60.4876 307.909 60.4702C307.909 60.4702 307.926 60.4616 307.961 60.4442C308.255 60.2362 308.498 60.1756 308.689 60.2622C308.879 60.3316 308.983 60.5656 309.001 60.9642L308.559 61.2242C308.247 61.3976 307.969 61.5276 307.727 61.6142C307.484 61.6836 307.302 61.6662 307.181 61.5622C306.973 61.3889 307.068 61.1462 307.467 60.8342C307.536 60.7822 307.597 60.7302 307.649 60.6782C307.718 60.6089 307.796 60.5482 307.883 60.4962C307.883 60.4962 307.891 60.4876 307.909 60.4702C308.394 60.0542 308.801 59.5776 309.131 59.0402C309.46 58.5029 309.668 57.8876 309.755 57.1942C309.893 56.1889 309.659 55.3222 309.053 54.5942C308.463 53.8662 307.545 53.4416 306.297 53.3202C305.361 53.2336 304.511 53.3549 303.749 53.6842C303.593 53.9269 303.463 54.2216 303.359 54.5682C303.272 54.8976 303.246 55.2442 303.281 55.6082C303.333 55.9722 303.463 56.3189 303.671 56.6482C303.879 56.9776 304.208 57.2462 304.659 57.4542C304.901 57.5756 304.971 57.7316 304.867 57.9222C304.78 58.0609 304.667 58.2169 304.529 58.3902C304.407 58.5636 304.269 58.7369 304.113 58.9102C303.957 59.0662 303.801 59.2136 303.645 59.3522C303.489 59.4909 303.35 59.5949 303.229 59.6642C303.125 59.7336 303.012 59.7682 302.891 59.7682C302.769 59.7682 302.674 59.7249 302.605 59.6382C302.189 59.2222 301.885 58.7889 301.695 58.3382C301.521 57.8702 301.426 57.3936 301.409 56.9082C301.409 56.4229 301.487 55.9549 301.643 55.5042C301.799 55.0362 302.007 54.5942 302.267 54.1782C302.284 54.1089 302.336 54.0222 302.423 53.9182L302.501 53.8402L302.787 53.4762C303.203 52.9736 303.653 52.5922 304.139 52.3322C304.641 52.0549 305.135 51.8642 305.621 51.7602C306.123 51.6389 306.6 51.5956 307.051 51.6302C307.501 51.6476 307.9 51.6909 308.247 51.7602C309.079 51.9509 309.781 52.2369 310.353 52.6182C310.942 52.9996 311.401 53.4416 311.731 53.9442C312.06 54.4296 312.259 54.9582 312.329 55.5302C312.415 56.0849 312.381 56.6309 312.225 57.1682C312.086 57.6362 311.887 58.0696 311.627 58.4682C311.384 58.8669 311.115 59.2222 310.821 59.5342C310.526 59.8462 310.214 60.1236 309.885 60.3662C309.573 60.6089 309.278 60.8082 309.001 60.9642V61.0422V64.2402C309.001 64.6389 308.897 64.9422 308.689 65.1502C308.533 65.3062 308.273 65.5489 307.909 65.8782C307.545 66.1902 307.189 66.4762 306.843 66.7362C306.617 66.9096 306.392 66.9529 306.167 66.8662C305.959 66.7622 305.855 66.5456 305.855 66.2162V62.4462C305.855 62.2729 305.881 62.1256 305.933 62.0042C306.002 61.8829 306.132 61.7529 306.323 61.6142ZM307.883 68.4002C307.952 68.4696 308.056 68.5562 308.195 68.6602C308.351 68.7642 308.507 68.8769 308.663 68.9982C308.819 69.1022 308.975 69.2062 309.131 69.3102C309.287 69.4142 309.417 69.5009 309.521 69.5702C309.763 69.7262 309.876 69.9429 309.859 70.2202C309.841 70.3242 309.798 70.4196 309.729 70.5062C309.659 70.5756 309.547 70.6709 309.391 70.7922C309.287 70.8616 309.157 70.9569 309.001 71.0782C308.862 71.1996 308.706 71.3209 308.533 71.4422C308.377 71.5809 308.221 71.7109 308.065 71.8322C307.926 71.9709 307.813 72.0836 307.727 72.1702C307.623 72.2916 307.475 72.3436 307.285 72.3262C307.111 72.3262 306.912 72.2482 306.687 72.0922L305.049 70.8962C304.771 70.7229 304.659 70.4889 304.711 70.1942C304.711 70.0556 304.771 69.9516 304.893 69.8822C305.031 69.7956 305.153 69.7176 305.257 69.6482C305.499 69.4922 305.777 69.2929 306.089 69.0502C306.401 68.8076 306.643 68.5909 306.817 68.4002C307.129 68.0882 307.484 68.0882 307.883 68.4002Z" fill="#E6EDEA"/>
</svg>
