<svg width="618" height="731" viewBox="0 0 618 731" fill="none" xmlns="http://www.w3.org/2000/svg">
<path d="M616.553 728.07L491.019 718.06L369.676 730.06L248.333 718.06L126.981 730.06L9.82996 720.05L0 580.45L11.2772 436.84L0 293.23L11.2772 149.61L1.43784 1.99L126.981 12L248.324 0L369.667 12L491.009 0L608.17 10.01L618 149.61L606.723 293.22L618 436.83L606.723 580.54L616.553 728.07Z" stroke="#E6EDEA" stroke-width="0.75" stroke-miterlimit="10"/>
<path d="M308.986 692.36C311.186 692.36 312.97 690.462 312.97 688.12C312.97 685.778 311.186 683.88 308.986 683.88C306.785 683.88 305.001 685.778 305.001 688.12C305.001 690.462 306.785 692.36 308.986 692.36Z" fill="#E6EDEA"/>
<path d="M286.45 684.38C288.345 684.38 289.934 686.025 289.934 688.12C289.934 690.215 288.345 691.86 286.45 691.86C284.554 691.86 282.965 690.215 282.965 688.12C282.965 686.025 284.554 684.38 286.45 684.38Z" stroke="#E6EDEA"/>
<path d="M331.54 692.36C333.741 692.36 335.525 690.462 335.525 688.12C335.525 685.778 333.741 683.88 331.54 683.88C329.34 683.88 327.556 685.778 327.556 688.12C327.556 690.462 329.34 692.36 331.54 692.36Z" stroke="#E6EDEA" stroke-miterlimit="10"/>
<path d="M95.958 63.46C96.3047 63.46 96.478 63.5467 96.478 63.72C96.478 63.876 96.3133 64.058 95.984 64.266C95.7413 64.422 95.5073 64.5867 95.282 64.76C95.074 64.9333 94.8747 65.1153 94.684 65.306C94.4413 65.5487 94.008 65.67 93.384 65.67H87.768C87.612 65.67 87.482 65.644 87.378 65.592C87.274 65.54 87.222 65.4707 87.222 65.384C87.222 65.2973 87.2913 65.2107 87.43 65.124C87.5687 65.02 87.7073 64.9247 87.846 64.838C87.9847 64.7513 88.158 64.6213 88.366 64.448C88.574 64.2747 88.7733 64.1013 88.964 63.928C89.2933 63.616 89.822 63.46 90.55 63.46H95.958ZM126.274 63.46C126.621 63.46 126.794 63.5467 126.794 63.72C126.794 63.876 126.629 64.058 126.3 64.266C126.057 64.422 125.823 64.5867 125.598 64.76C125.39 64.9333 125.191 65.1153 125 65.306C124.757 65.5487 124.324 65.67 123.7 65.67H106.8C106.644 65.67 106.514 65.644 106.41 65.592C106.306 65.54 106.254 65.4707 106.254 65.384C106.254 65.2973 106.323 65.2107 106.462 65.124C106.601 65.02 106.739 64.9247 106.878 64.838C107.017 64.7513 107.19 64.6213 107.398 64.448C107.606 64.2747 107.805 64.1013 107.996 63.928C108.325 63.616 108.854 63.46 109.582 63.46H126.274ZM111.844 55.062C112.035 54.958 112.243 54.828 112.468 54.672C112.711 54.516 112.919 54.3687 113.092 54.23C113.283 54.0913 113.465 54.0047 113.638 53.97C113.829 53.918 114.089 53.9093 114.418 53.944C114.713 53.9787 115.051 54.0047 115.432 54.022C115.813 54.0393 116.316 54.0393 116.94 54.022C117.287 54.0047 117.711 53.9787 118.214 53.944C118.717 53.9093 119.271 53.8747 119.878 53.84C120.19 53.8227 120.519 53.8573 120.866 53.944C121.213 54.0307 121.481 54.1693 121.672 54.36C121.984 54.6893 122.166 55.1227 122.218 55.66C122.287 56.1973 122.253 56.7867 122.114 57.428C121.958 58.104 121.681 58.7713 121.282 59.43C120.901 60.0713 120.259 60.7473 119.358 61.458C119.167 61.5967 118.985 61.692 118.812 61.744C118.639 61.796 118.517 61.796 118.448 61.744C118.361 61.6573 118.327 61.5273 118.344 61.354C118.361 61.1633 118.405 61.0073 118.474 60.886C118.699 60.4007 118.873 59.9933 118.994 59.664C119.115 59.3173 119.211 58.884 119.28 58.364C119.367 57.74 119.237 57.2287 118.89 56.83C118.717 56.622 118.465 56.4573 118.136 56.336C117.824 56.2147 117.521 56.1627 117.226 56.18C116.897 56.1973 116.55 56.2147 116.186 56.232C115.839 56.2493 115.38 56.2667 114.808 56.284C114.548 56.284 114.262 56.284 113.95 56.284C113.638 56.284 113.335 56.2753 113.04 56.258C112.745 56.2407 112.468 56.2147 112.208 56.18C111.948 56.128 111.731 56.076 111.558 56.024C111.315 55.9373 111.211 55.8073 111.246 55.634C111.298 55.4433 111.497 55.2527 111.844 55.062ZM155.529 53.606C155.841 53.3807 156.092 53.32 156.283 53.424C156.474 53.5107 156.569 53.7707 156.569 54.204V69.856C156.569 70.2547 156.465 70.558 156.257 70.766C156.101 70.922 155.841 71.156 155.477 71.468C155.113 71.7973 154.758 72.092 154.411 72.352C154.186 72.5253 153.96 72.56 153.735 72.456C153.527 72.3693 153.423 72.1613 153.423 71.832V57.116C153.423 56.908 153.362 56.7867 153.241 56.752C153.137 56.7173 152.964 56.7867 152.721 56.96C152.565 57.0813 152.4 57.142 152.227 57.142C152.054 57.142 151.924 57.0813 151.837 56.96C151.733 56.8213 151.707 56.6653 151.759 56.492C151.828 56.3187 151.958 56.1627 152.149 56.024L155.529 53.606ZM147.547 60.886C148.136 62.0993 148.093 63.564 147.417 65.28C147.278 65.6093 147.079 65.9733 146.819 66.372C146.559 66.7707 146.264 67.1607 145.935 67.542C145.606 67.9233 145.268 68.2787 144.921 68.608C144.574 68.9373 144.254 69.1887 143.959 69.362C143.716 69.5007 143.482 69.5787 143.257 69.596C143.049 69.6133 142.91 69.5787 142.841 69.492C142.754 69.3533 142.737 69.1887 142.789 68.998C142.858 68.79 142.945 68.6167 143.049 68.478C143.24 68.2007 143.404 67.958 143.543 67.75C143.699 67.5247 143.838 67.308 143.959 67.1C144.08 66.8747 144.193 66.6493 144.297 66.424C144.401 66.1813 144.514 65.904 144.635 65.592C144.756 65.2453 144.843 64.8553 144.895 64.422C144.947 63.9887 144.93 63.6507 144.843 63.408C144.756 63.096 144.609 62.862 144.401 62.706C144.21 62.55 143.994 62.4807 143.751 62.498C143.422 62.5153 143.101 62.5327 142.789 62.55C142.494 62.5673 142.096 62.5847 141.593 62.602C141.333 62.602 141.047 62.602 140.735 62.602C140.423 62.602 140.12 62.5933 139.825 62.576C139.53 62.5587 139.253 62.5327 138.993 62.498C138.733 62.446 138.516 62.394 138.343 62.342C138.1 62.2553 137.996 62.1253 138.031 61.952C138.083 61.7613 138.282 61.5707 138.629 61.38C138.82 61.276 139.028 61.146 139.253 60.99C139.496 60.834 139.704 60.6867 139.877 60.548C140.068 60.4093 140.25 60.3227 140.423 60.288C140.614 60.236 140.874 60.2273 141.203 60.262C141.498 60.2967 141.81 60.3227 142.139 60.34C142.468 60.3573 142.91 60.3573 143.465 60.34C143.812 60.3227 144.167 60.2967 144.531 60.262C144.912 60.2273 145.45 60.1927 146.143 60.158C146.455 60.1407 146.732 60.1927 146.975 60.314C147.218 60.418 147.408 60.6087 147.547 60.886ZM161.675 67.438C161.346 67.0047 161.129 66.5367 161.025 66.034C160.939 65.514 160.973 64.9853 161.129 64.448C161.285 63.9107 161.58 63.382 162.013 62.862C162.447 62.3247 163.027 61.8047 163.755 61.302C164.397 60.8513 165.029 60.5567 165.653 60.418C166.277 60.262 166.867 60.2273 167.421 60.314C167.976 60.4007 168.487 60.6 168.955 60.912C169.423 61.224 169.831 61.614 170.177 62.082C170.541 62.5847 170.758 63.1133 170.827 63.668C170.914 64.2053 170.862 64.7427 170.671 65.28C170.481 65.8173 170.169 66.3373 169.735 66.84C169.302 67.3427 168.756 67.802 168.097 68.218C166.832 69.0153 165.627 69.336 164.483 69.18C163.339 69.0067 162.403 68.426 161.675 67.438ZM178.913 57.09C179.225 56.8647 179.477 56.804 179.667 56.908C179.858 56.9947 179.953 57.2547 179.953 57.688V67.932C179.953 68.3307 179.849 68.634 179.641 68.842C179.485 68.998 179.225 69.2407 178.861 69.57C178.497 69.882 178.142 70.168 177.795 70.428C177.57 70.6013 177.345 70.6447 177.119 70.558C176.911 70.454 176.807 70.2373 176.807 69.908V65.67H172.075C171.833 65.67 171.668 65.6613 171.581 65.644C171.512 65.6267 171.434 65.5747 171.347 65.488C171.261 65.4013 171.243 65.3233 171.295 65.254C171.365 65.1847 171.469 65.098 171.607 64.994C171.694 64.942 171.815 64.8553 171.971 64.734C172.145 64.5953 172.318 64.4567 172.491 64.318C172.682 64.1793 172.847 64.058 172.985 63.954C173.141 63.8327 173.245 63.7547 173.297 63.72C173.401 63.6333 173.557 63.5727 173.765 63.538C173.973 63.486 174.173 63.46 174.363 63.46H176.807V60.6C176.807 60.392 176.747 60.2707 176.625 60.236C176.521 60.2013 176.348 60.2707 176.105 60.444C175.949 60.5653 175.785 60.626 175.611 60.626C175.438 60.626 175.308 60.5653 175.221 60.444C175.117 60.3053 175.091 60.1493 175.143 59.976C175.213 59.8027 175.343 59.6467 175.533 59.508L178.913 57.09ZM169.241 72.326C169.397 72.222 169.571 72.1527 169.761 72.118C169.952 72.1007 170.177 72.1093 170.437 72.144C170.767 72.1787 171.157 72.196 171.607 72.196C172.075 72.196 172.491 72.1873 172.855 72.17C173.081 72.17 173.367 72.1527 173.713 72.118C174.077 72.1007 174.459 72.0833 174.857 72.066C175.256 72.0487 175.663 72.04 176.079 72.04C176.495 72.04 176.877 72.0487 177.223 72.066C177.743 72.1007 178.159 72.222 178.471 72.43C178.801 72.638 179.052 72.898 179.225 73.21C179.399 73.522 179.494 73.8773 179.511 74.276C179.529 74.692 179.485 75.1167 179.381 75.55C179.277 76.0007 179.095 76.4687 178.835 76.954C178.575 77.4567 178.289 77.9333 177.977 78.384C177.665 78.8347 177.345 79.2333 177.015 79.58C176.703 79.944 176.435 80.1953 176.209 80.334C175.967 80.4727 175.785 80.5333 175.663 80.516C175.559 80.516 175.49 80.4727 175.455 80.386C175.421 80.2993 175.412 80.1953 175.429 80.074C175.464 79.9527 175.507 79.84 175.559 79.736C175.611 79.6493 175.681 79.4933 175.767 79.268C175.871 79.06 175.975 78.8 176.079 78.488C176.183 78.1933 176.27 77.8553 176.339 77.474C176.426 77.0927 176.478 76.7027 176.495 76.304C176.513 75.8013 176.409 75.394 176.183 75.082C175.958 74.77 175.646 74.588 175.247 74.536C175.022 74.5013 174.719 74.4753 174.337 74.458C173.956 74.458 173.549 74.458 173.115 74.458C172.682 74.4753 172.257 74.484 171.841 74.484C171.425 74.5013 171.079 74.51 170.801 74.51C170.541 74.51 170.255 74.5013 169.943 74.484C169.631 74.484 169.319 74.4753 169.007 74.458C168.713 74.4407 168.435 74.4147 168.175 74.38C167.915 74.3453 167.707 74.302 167.551 74.25C167.343 74.1807 167.239 74.0593 167.239 73.886C167.257 73.7127 167.439 73.5047 167.785 73.262L169.241 72.326ZM164.327 65.826C164.587 66.138 164.891 66.3893 165.237 66.58C165.584 66.7707 165.922 66.9093 166.251 66.996C166.598 67.0827 166.91 67.126 167.187 67.126C167.465 67.1087 167.655 67.0567 167.759 66.97C167.863 66.9007 167.959 66.7447 168.045 66.502C168.132 66.2593 168.175 65.9733 168.175 65.644C168.193 65.2973 168.149 64.942 168.045 64.578C167.941 64.1967 167.759 63.8413 167.499 63.512C167.222 63.2 166.901 62.9487 166.537 62.758C166.173 62.55 165.809 62.4027 165.445 62.316C165.099 62.2293 164.778 62.186 164.483 62.186C164.189 62.186 163.989 62.2207 163.885 62.29C163.781 62.3767 163.695 62.55 163.625 62.81C163.556 63.0527 163.53 63.3473 163.547 63.694C163.565 64.0233 163.634 64.3787 163.755 64.76C163.877 65.1413 164.067 65.4967 164.327 65.826ZM201.127 53.658C201.439 53.4327 201.691 53.372 201.881 53.476C202.072 53.5627 202.167 53.8227 202.167 54.256V70.09C202.167 70.4887 202.063 70.792 201.855 71C201.699 71.156 201.491 71.3467 201.231 71.572C200.989 71.7973 200.694 72.04 200.347 72.3C200.122 72.4733 199.897 72.508 199.671 72.404C199.463 72.3173 199.359 72.1093 199.359 71.78V65.67H195.251C194.801 66.6927 193.986 67.568 192.807 68.296C191.542 69.0933 190.337 69.414 189.193 69.258C188.049 69.0847 187.113 68.504 186.385 67.516C186.056 67.0827 185.839 66.6147 185.735 66.112C185.649 65.592 185.683 65.0633 185.839 64.526C185.995 63.9887 186.29 63.46 186.723 62.94C187.157 62.4027 187.737 61.8827 188.465 61.38C189.107 60.9293 189.739 60.6347 190.363 60.496C190.987 60.34 191.577 60.3053 192.131 60.392C192.686 60.4787 193.197 60.678 193.665 60.99C194.133 61.302 194.541 61.692 194.887 62.16C195.39 62.8707 195.615 63.6073 195.563 64.37C195.754 64.2313 195.927 64.1013 196.083 63.98C196.257 63.8413 196.378 63.7547 196.447 63.72C196.551 63.6333 196.707 63.5727 196.915 63.538C197.123 63.486 197.323 63.46 197.513 63.46H199.359V56.882C199.359 56.674 199.299 56.5527 199.177 56.518C199.073 56.4833 198.9 56.5527 198.657 56.726C198.501 56.8473 198.337 56.908 198.163 56.908C197.99 56.908 197.86 56.8473 197.773 56.726C197.669 56.5873 197.643 56.4313 197.695 56.258C197.765 56.0847 197.895 55.9287 198.085 55.79L201.127 53.658ZM206.327 52.618C206.639 52.3927 206.891 52.332 207.081 52.436C207.272 52.5227 207.367 52.7827 207.367 53.216V70.09C207.367 70.4887 207.263 70.792 207.055 71C206.899 71.156 206.691 71.3467 206.431 71.572C206.189 71.7973 205.894 72.04 205.547 72.3C205.322 72.4733 205.097 72.508 204.871 72.404C204.663 72.3173 204.559 72.1093 204.559 71.78V55.842C204.559 55.634 204.499 55.5127 204.377 55.478C204.273 55.4433 204.1 55.5127 203.857 55.686C203.701 55.8073 203.537 55.868 203.363 55.868C203.19 55.868 203.06 55.8073 202.973 55.686C202.869 55.5473 202.843 55.3913 202.895 55.218C202.965 55.0447 203.095 54.8887 203.285 54.75L206.327 52.618ZM189.037 65.904C189.297 66.216 189.601 66.4673 189.947 66.658C190.294 66.8487 190.632 66.9873 190.961 67.074C191.308 67.1607 191.62 67.204 191.897 67.204C192.175 67.1867 192.365 67.1347 192.469 67.048C192.573 66.9787 192.669 66.8227 192.755 66.58C192.842 66.3373 192.885 66.0513 192.885 65.722C192.903 65.3753 192.859 65.02 192.755 64.656C192.651 64.2747 192.469 63.9193 192.209 63.59C191.932 63.278 191.611 63.0267 191.247 62.836C190.883 62.628 190.519 62.4807 190.155 62.394C189.809 62.3073 189.488 62.264 189.193 62.264C188.899 62.264 188.699 62.2987 188.595 62.368C188.491 62.4547 188.405 62.628 188.335 62.888C188.266 63.1307 188.24 63.4253 188.257 63.772C188.275 64.1013 188.344 64.4567 188.465 64.838C188.587 65.2193 188.777 65.5747 189.037 65.904ZM238.827 52.618C239.139 52.3927 239.391 52.332 239.581 52.436C239.772 52.5227 239.867 52.7827 239.867 53.216V70.09C239.867 70.4887 239.763 70.792 239.555 71C239.399 71.156 239.191 71.3467 238.931 71.572C238.689 71.7973 238.394 72.04 238.047 72.3C237.822 72.4733 237.597 72.508 237.371 72.404C237.163 72.3173 237.059 72.1093 237.059 71.78V64.552C236.886 64.6733 236.73 64.7947 236.591 64.916C236.453 65.0373 236.314 65.1673 236.175 65.306C235.933 65.5487 235.499 65.67 234.875 65.67H234.407V70.09C234.407 70.4887 234.303 70.792 234.095 71C233.939 71.156 233.731 71.3467 233.471 71.572C233.229 71.7973 232.934 72.04 232.587 72.3C232.362 72.4733 232.137 72.508 231.911 72.404C231.703 72.3173 231.599 72.1093 231.599 71.78V56.882C231.599 56.674 231.539 56.5527 231.417 56.518C231.313 56.4833 231.14 56.5527 230.897 56.726C230.741 56.8473 230.577 56.908 230.403 56.908C230.23 56.908 230.1 56.8473 230.013 56.726C229.909 56.5873 229.883 56.4313 229.935 56.258C230.005 56.0847 230.135 55.9287 230.325 55.79L233.367 53.658C233.679 53.4327 233.931 53.372 234.121 53.476C234.312 53.5627 234.407 53.8227 234.407 54.256V63.46H237.059V55.842C237.059 55.634 236.999 55.5127 236.877 55.478C236.773 55.4433 236.6 55.5127 236.357 55.686C236.201 55.8073 236.037 55.868 235.863 55.868C235.69 55.868 235.56 55.8073 235.473 55.686C235.369 55.5473 235.343 55.3913 235.395 55.218C235.465 55.0447 235.595 54.8887 235.785 54.75L238.827 52.618ZM228.193 60.6C228.54 60.6 228.713 60.6867 228.713 60.86C228.713 61.016 228.549 61.198 228.219 61.406C227.977 61.562 227.743 61.7267 227.517 61.9C227.309 62.0733 227.11 62.2553 226.919 62.446C226.677 62.6887 226.243 62.81 225.619 62.81H221.771C221.737 62.914 221.719 63.0007 221.719 63.07C221.65 63.3993 221.633 63.798 221.667 64.266C221.702 64.7167 221.823 65.1673 222.031 65.618C222.274 66.1553 222.629 66.5973 223.097 66.944C223.583 67.2733 224.051 67.4727 224.501 67.542C224.952 67.6113 225.394 67.5593 225.827 67.386C226.261 67.1953 226.625 66.944 226.919 66.632C227.162 66.3893 227.387 66.3287 227.595 66.45C227.682 66.502 227.725 66.5973 227.725 66.736C227.743 66.8747 227.717 66.9873 227.647 67.074C227.405 67.438 227.162 67.7673 226.919 68.062C226.677 68.3393 226.408 68.582 226.113 68.79C225.836 68.998 225.515 69.18 225.151 69.336C224.805 69.492 224.397 69.6307 223.929 69.752C223.011 69.9773 222.187 69.8993 221.459 69.518C220.731 69.1193 220.142 68.4693 219.691 67.568C219.501 67.204 219.353 66.8487 219.249 66.502C219.163 66.138 219.102 65.8087 219.067 65.514C219.033 65.2193 219.024 64.968 219.041 64.76C219.059 64.5347 219.085 64.37 219.119 64.266C219.206 64.0407 219.379 63.824 219.639 63.616C219.899 63.408 220.203 63.2087 220.549 63.018L220.809 62.81H217.871C217.715 62.81 217.585 62.784 217.481 62.732C217.377 62.68 217.325 62.6107 217.325 62.524C217.325 62.4373 217.395 62.3507 217.533 62.264C217.672 62.16 217.811 62.0647 217.949 61.978C218.088 61.8913 218.261 61.7613 218.469 61.588C218.677 61.4147 218.877 61.2413 219.067 61.068C219.397 60.756 219.925 60.6 220.653 60.6H228.193ZM263.532 52.618C263.844 52.3927 264.096 52.332 264.286 52.436C264.477 52.5227 264.572 52.7827 264.572 53.216V70.09C264.572 70.4887 264.468 70.792 264.26 71C264.104 71.156 263.896 71.3467 263.636 71.572C263.394 71.7973 263.099 72.04 262.752 72.3C262.527 72.4733 262.302 72.508 262.076 72.404C261.868 72.3173 261.764 72.1093 261.764 71.78V64.552C261.591 64.6733 261.435 64.7947 261.296 64.916C261.158 65.0373 261.019 65.1673 260.88 65.306C260.638 65.5487 260.204 65.67 259.58 65.67H259.112V70.09C259.112 70.4887 259.008 70.792 258.8 71C258.644 71.156 258.436 71.3467 258.176 71.572C257.934 71.7973 257.639 72.04 257.292 72.3C257.067 72.4733 256.842 72.508 256.616 72.404C256.408 72.3173 256.304 72.1093 256.304 71.78V56.882C256.304 56.674 256.244 56.5527 256.122 56.518C256.018 56.4833 255.845 56.5527 255.602 56.726C255.446 56.8473 255.282 56.908 255.108 56.908C254.935 56.908 254.805 56.8473 254.718 56.726C254.614 56.5873 254.588 56.4313 254.64 56.258C254.71 56.0847 254.84 55.9287 255.03 55.79L258.072 53.658C258.384 53.4327 258.636 53.372 258.826 53.476C259.017 53.5627 259.112 53.8227 259.112 54.256V63.46H261.764V55.842C261.764 55.634 261.704 55.5127 261.582 55.478C261.478 55.4433 261.305 55.5127 261.062 55.686C260.906 55.8073 260.742 55.868 260.568 55.868C260.395 55.868 260.265 55.8073 260.178 55.686C260.074 55.5473 260.048 55.3913 260.1 55.218C260.17 55.0447 260.3 54.8887 260.49 54.75L263.532 52.618ZM244.708 68.686C244.483 68.3567 244.327 67.984 244.24 67.568C244.171 67.152 244.197 66.7273 244.318 66.294C244.44 65.8433 244.665 65.3927 244.994 64.942C245.341 64.4913 245.818 64.058 246.424 63.642C246.962 63.278 247.49 63.0527 248.01 62.966C248.548 62.862 249.05 62.8533 249.518 62.94C249.986 63.0267 250.411 63.2 250.792 63.46C251.174 63.7027 251.477 63.98 251.702 64.292C251.928 64.604 252.066 64.9853 252.118 65.436C252.17 65.8693 252.127 66.32 251.988 66.788C251.85 67.256 251.616 67.7153 251.286 68.166C250.957 68.6167 250.524 69.0067 249.986 69.336C249.466 69.6653 248.938 69.882 248.4 69.986C247.88 70.09 247.378 70.1073 246.892 70.038C246.424 69.9513 246 69.7953 245.618 69.57C245.237 69.3273 244.934 69.0327 244.708 68.686ZM253.678 60.418C254.025 60.418 254.198 60.5047 254.198 60.678C254.198 60.834 254.034 61.016 253.704 61.224C253.548 61.328 253.384 61.4493 253.21 61.588C253.054 61.7267 252.898 61.8653 252.742 62.004C252.5 62.2467 252.066 62.368 251.442 62.368H242.862C242.706 62.368 242.576 62.342 242.472 62.29C242.368 62.238 242.316 62.1687 242.316 62.082C242.316 61.9953 242.386 61.9087 242.524 61.822C242.663 61.718 242.802 61.6227 242.94 61.536C243.027 61.484 243.14 61.3973 243.278 61.276C243.417 61.1547 243.564 61.0247 243.72 60.886C244.05 60.574 244.578 60.418 245.306 60.418H253.678ZM251.598 57.454C251.945 57.454 252.118 57.5407 252.118 57.714C252.118 57.87 251.954 58.052 251.624 58.26C251.468 58.364 251.304 58.4853 251.13 58.624C250.974 58.7627 250.818 58.9013 250.662 59.04C250.42 59.2827 249.986 59.404 249.362 59.404H246.294C246.138 59.404 246.008 59.378 245.904 59.326C245.8 59.274 245.748 59.2047 245.748 59.118C245.748 59.0313 245.818 58.9447 245.956 58.858C246.095 58.754 246.234 58.6587 246.372 58.572C246.459 58.52 246.572 58.4333 246.71 58.312C246.849 58.1907 246.996 58.0607 247.152 57.922C247.482 57.61 248.01 57.454 248.738 57.454H251.598ZM247.074 67.204C247.248 67.4293 247.456 67.6113 247.698 67.75C247.941 67.8713 248.175 67.9667 248.4 68.036C248.643 68.088 248.86 68.114 249.05 68.114C249.241 68.0967 249.38 68.062 249.466 68.01C249.536 67.958 249.596 67.8453 249.648 67.672C249.718 67.4987 249.752 67.2993 249.752 67.074C249.77 66.8487 249.735 66.606 249.648 66.346C249.579 66.086 249.458 65.8433 249.284 65.618C249.094 65.3927 248.868 65.2193 248.608 65.098C248.348 64.9593 248.097 64.8553 247.854 64.786C247.612 64.7167 247.386 64.682 247.178 64.682C246.988 64.682 246.858 64.708 246.788 64.76C246.719 64.812 246.658 64.9247 246.606 65.098C246.554 65.2713 246.528 65.4793 246.528 65.722C246.546 65.9473 246.589 66.1987 246.658 66.476C246.745 66.736 246.884 66.9787 247.074 67.204ZM291.144 53.606C291.456 53.3807 291.708 53.32 291.898 53.424C292.089 53.5107 292.184 53.7707 292.184 54.204V63.798C292.496 63.5727 292.748 63.46 292.938 63.46H295.72C296.067 63.46 296.24 63.5467 296.24 63.72C296.24 63.876 296.076 64.058 295.746 64.266C295.504 64.422 295.27 64.5867 295.044 64.76C294.836 64.9333 294.637 65.1153 294.446 65.306C294.204 65.5487 293.77 65.67 293.146 65.67H292.184V69.856C292.184 70.2547 292.08 70.558 291.872 70.766C291.716 70.922 291.456 71.156 291.092 71.468C290.728 71.7973 290.373 72.092 290.026 72.352C289.801 72.5253 289.576 72.56 289.35 72.456C289.142 72.3693 289.038 72.1613 289.038 71.832V57.116C289.038 56.908 288.978 56.7867 288.856 56.752C288.752 56.7173 288.579 56.7867 288.336 56.96C288.18 57.0813 288.016 57.142 287.842 57.142C287.669 57.142 287.539 57.0813 287.452 56.96C287.348 56.8213 287.322 56.6653 287.374 56.492C287.444 56.3187 287.574 56.1627 287.764 56.024L291.144 53.606ZM284.982 60.236C285.329 60.236 285.502 60.3227 285.502 60.496C285.502 60.652 285.338 60.834 285.008 61.042C284.766 61.198 284.532 61.3627 284.306 61.536C284.098 61.7093 283.899 61.8913 283.708 62.082C283.466 62.3247 283.032 62.446 282.408 62.446H281.706C281.776 62.55 281.819 62.628 281.836 62.68C281.906 62.9053 281.906 63.2087 281.836 63.59C281.767 63.9713 281.611 64.448 281.368 65.02C281.074 65.7133 280.666 66.3807 280.146 67.022C279.626 67.646 279.072 68.166 278.482 68.582C277.91 68.9807 277.286 69.3187 276.61 69.596C275.952 69.8733 275.38 70.0553 274.894 70.142C274.652 70.1767 274.452 70.1853 274.296 70.168C274.158 70.1333 274.071 70.0813 274.036 70.012C274.002 69.9427 274.036 69.856 274.14 69.752C274.244 69.6307 274.383 69.5093 274.556 69.388C274.643 69.336 274.782 69.2493 274.972 69.128C275.163 68.9893 275.38 68.8333 275.622 68.66C275.865 68.4867 276.116 68.3047 276.376 68.114C276.636 67.906 276.87 67.698 277.078 67.49C277.477 67.1087 277.789 66.7013 278.014 66.268C278.257 65.8347 278.413 65.436 278.482 65.072C278.552 64.708 278.578 64.4133 278.56 64.188C278.543 63.9453 278.508 63.7287 278.456 63.538C278.404 63.33 278.43 63.174 278.534 63.07C278.656 62.966 278.777 62.8967 278.898 62.862L280.172 62.446H275.362C275.206 62.446 275.076 62.42 274.972 62.368C274.868 62.316 274.816 62.2467 274.816 62.16C274.816 62.0733 274.886 61.9867 275.024 61.9C275.163 61.796 275.302 61.7007 275.44 61.614C275.579 61.5273 275.752 61.3973 275.96 61.224C276.168 61.0507 276.368 60.8773 276.558 60.704C276.888 60.392 277.416 60.236 278.144 60.236H284.982ZM281.888 66.138C282.01 65.9647 282.226 65.904 282.538 65.956C282.764 65.9907 282.998 66.0427 283.24 66.112C283.483 66.164 283.76 66.2507 284.072 66.372C284.384 66.4933 284.662 66.6753 284.904 66.918C285.147 67.1607 285.303 67.464 285.372 67.828C285.476 68.3827 285.173 69.0587 284.462 69.856C284.341 69.9947 284.22 70.0553 284.098 70.038C283.977 70.0033 283.882 69.908 283.812 69.752C283.778 69.6653 283.726 69.57 283.656 69.466C283.587 69.3447 283.474 69.1887 283.318 68.998C282.885 68.478 282.408 68.166 281.888 68.062C281.68 68.0273 281.516 68.0013 281.394 67.984C281.273 67.9493 281.143 67.9147 281.004 67.88C280.866 67.8453 280.779 67.7587 280.744 67.62C280.71 67.4813 280.727 67.36 280.796 67.256C280.866 67.152 280.952 67.048 281.056 66.944C281.16 66.8227 281.256 66.736 281.342 66.684C281.568 66.5107 281.75 66.3287 281.888 66.138ZM302.699 65.67H297.941C297.785 65.67 297.655 65.644 297.551 65.592C297.447 65.54 297.395 65.4707 297.395 65.384C297.395 65.2973 297.464 65.2107 297.603 65.124C297.741 65.02 297.88 64.9247 298.019 64.838C298.157 64.7513 298.331 64.6213 298.539 64.448C298.747 64.2747 298.946 64.1013 299.137 63.928C299.466 63.616 299.995 63.46 300.723 63.46H317.415C317.761 63.46 317.935 63.5467 317.935 63.72C317.935 63.876 317.77 64.058 317.441 64.266C317.198 64.422 316.964 64.5867 316.739 64.76C316.531 64.9333 316.331 65.1153 316.141 65.306C315.898 65.5487 315.465 65.67 314.841 65.67H312.423V71.52C312.423 71.9187 312.319 72.222 312.111 72.43C311.955 72.586 311.695 72.82 311.331 73.132C310.967 73.4613 310.611 73.756 310.265 74.016C310.039 74.1893 309.814 74.224 309.589 74.12C309.381 74.0333 309.277 73.8253 309.277 73.496V65.67H305.845V70.48C305.845 70.8787 305.741 71.182 305.533 71.39C305.377 71.546 305.117 71.78 304.753 72.092C304.389 72.4213 304.033 72.716 303.687 72.976C303.461 73.1493 303.236 73.184 303.011 73.08C302.803 72.9933 302.699 72.7853 302.699 72.456V65.67ZM303.401 59.066C303.071 58.6327 302.855 58.1647 302.751 57.662C302.664 57.142 302.699 56.6133 302.855 56.076C303.011 55.5387 303.305 55.01 303.739 54.49C304.172 53.9527 304.753 53.4327 305.481 52.93C306.122 52.4793 306.755 52.1847 307.379 52.046C308.003 51.89 308.592 51.8553 309.147 51.942C309.701 52.0287 310.213 52.228 310.681 52.54C311.149 52.852 311.556 53.242 311.903 53.71C312.267 54.2127 312.483 54.7413 312.553 55.296C312.639 55.8333 312.587 56.3707 312.397 56.908C312.206 57.4453 311.894 57.9653 311.461 58.468C311.027 58.9707 310.481 59.43 309.823 59.846C308.557 60.6433 307.353 60.964 306.209 60.808C305.065 60.6347 304.129 60.054 303.401 59.066ZM306.053 57.454C306.313 57.766 306.616 58.0173 306.963 58.208C307.309 58.3987 307.647 58.5373 307.977 58.624C308.323 58.7107 308.635 58.754 308.913 58.754C309.19 58.7367 309.381 58.6847 309.485 58.598C309.589 58.5287 309.684 58.3727 309.771 58.13C309.857 57.87 309.901 57.5753 309.901 57.246C309.918 56.9167 309.875 56.57 309.771 56.206C309.667 55.8247 309.485 55.4693 309.225 55.14C308.965 54.828 308.644 54.5767 308.263 54.386C307.899 54.178 307.535 54.0307 307.171 53.944C306.824 53.84 306.503 53.7967 306.209 53.814C305.914 53.814 305.715 53.8487 305.611 53.918C305.507 54.0047 305.42 54.178 305.351 54.438C305.281 54.6807 305.255 54.9753 305.273 55.322C305.29 55.6513 305.359 56.0067 305.481 56.388C305.602 56.7693 305.793 57.1247 306.053 57.454ZM327.903 49.602C328.128 49.6367 328.397 49.6713 328.709 49.706C329.038 49.7233 329.437 49.7233 329.905 49.706C330.026 49.706 330.251 49.6973 330.581 49.68C330.91 49.6627 331.265 49.6453 331.647 49.628C332.028 49.6107 332.401 49.5933 332.765 49.576C333.146 49.5587 333.449 49.5413 333.675 49.524C334.004 49.4893 334.351 49.5327 334.715 49.654C335.079 49.758 335.347 49.8793 335.521 50.018C335.815 50.278 335.989 50.6333 336.041 51.084C336.11 51.5173 336.075 52.0027 335.937 52.54C335.85 52.852 335.737 53.1553 335.599 53.45C335.477 53.7447 335.295 54.0393 335.053 54.334H335.911C335.997 54.334 336.101 54.3427 336.223 54.36C336.361 54.3773 336.457 54.412 336.509 54.464C336.578 54.5333 336.613 54.594 336.613 54.646C336.613 54.6807 336.561 54.75 336.457 54.854C336.405 54.906 336.292 55.01 336.119 55.166C335.945 55.3047 335.755 55.452 335.547 55.608C335.356 55.764 335.174 55.9113 335.001 56.05C334.827 56.1887 334.706 56.2753 334.637 56.31C334.498 56.3967 334.368 56.4573 334.247 56.492C334.143 56.5267 333.969 56.544 333.727 56.544H328.449C328.83 57.1507 329.263 57.6793 329.749 58.13C330.251 58.5633 330.806 58.8667 331.413 59.04C331.967 59.2133 332.609 59.248 333.337 59.144C334.065 59.04 334.845 58.7193 335.677 58.182C335.937 58.0087 336.119 57.974 336.223 58.078C336.292 58.1473 336.309 58.2427 336.275 58.364C336.24 58.4853 336.171 58.6153 336.067 58.754C335.46 59.482 334.836 60.0367 334.195 60.418C333.571 60.782 332.955 61.0247 332.349 61.146V62.004C332.349 62.4027 332.245 62.706 332.037 62.914C331.95 63.0007 331.863 63.0873 331.777 63.174C331.69 63.2607 331.577 63.356 331.439 63.46H340.669C341.015 63.46 341.189 63.5467 341.189 63.72C341.189 63.876 341.024 64.058 340.695 64.266C340.452 64.422 340.218 64.5867 339.993 64.76C339.785 64.9333 339.585 65.1153 339.395 65.306C339.152 65.5487 338.719 65.67 338.095 65.67H321.195C321.039 65.67 320.909 65.644 320.805 65.592C320.701 65.54 320.649 65.4707 320.649 65.384C320.649 65.2973 320.718 65.2107 320.857 65.124C320.995 65.02 321.134 64.9247 321.273 64.838C321.411 64.7513 321.585 64.6213 321.793 64.448C322.001 64.2747 322.2 64.1013 322.391 63.928C322.72 63.616 323.249 63.46 323.977 63.46H329.541V61.822C329.541 61.4753 329.61 61.2067 329.749 61.016L329.411 60.886C329.116 60.782 328.804 60.6347 328.475 60.444C328.145 60.236 327.825 60.002 327.513 59.742C327.201 59.4647 326.906 59.1787 326.629 58.884C326.369 58.572 326.161 58.26 326.005 57.948C325.814 57.5667 325.658 57.324 325.537 57.22C325.415 57.0987 325.259 57.0467 325.069 57.064C324.757 57.0987 324.549 57.038 324.445 56.882C324.393 56.7953 324.375 56.6913 324.393 56.57C324.427 56.4487 324.488 56.336 324.575 56.232C324.575 56.1627 324.687 56.0413 324.913 55.868C324.913 55.868 324.93 55.8593 324.965 55.842C325.051 55.7727 325.129 55.712 325.199 55.66C325.285 55.5907 325.381 55.5213 325.485 55.452L326.603 54.594C326.707 54.5073 326.863 54.4467 327.071 54.412C327.279 54.36 327.478 54.334 327.669 54.334H333.051C333.103 54.1953 333.146 54.048 333.181 53.892C333.215 53.7187 333.25 53.528 333.285 53.32C333.319 53.0773 333.328 52.852 333.311 52.644C333.311 52.436 333.25 52.2453 333.129 52.072C333.077 51.9853 332.981 51.9247 332.843 51.89C332.704 51.8553 332.548 51.838 332.375 51.838C332.219 51.8207 332.054 51.8207 331.881 51.838C331.725 51.838 331.595 51.838 331.491 51.838L328.293 51.942C328.033 51.942 327.747 51.942 327.435 51.942C327.123 51.942 326.819 51.9333 326.525 51.916C326.23 51.8987 325.953 51.8727 325.693 51.838C325.433 51.786 325.216 51.734 325.043 51.682C324.8 51.5953 324.696 51.4653 324.731 51.292C324.783 51.1013 324.982 50.9107 325.329 50.72C325.519 50.616 325.727 50.486 325.953 50.33C326.195 50.174 326.403 50.0267 326.577 49.888C326.767 49.7493 326.949 49.654 327.123 49.602C327.313 49.55 327.573 49.55 327.903 49.602ZM345.001 67.516C344.671 67.0827 344.455 66.6147 344.351 66.112C344.264 65.592 344.299 65.0633 344.455 64.526C344.611 63.9887 344.905 63.46 345.339 62.94C345.772 62.4027 346.353 61.8827 347.081 61.38C347.722 60.9293 348.355 60.6347 348.979 60.496C349.603 60.34 350.192 60.3053 350.747 60.392C351.301 60.4787 351.813 60.678 352.281 60.99C352.749 61.302 353.156 61.692 353.503 62.16C353.867 62.6627 354.083 63.1913 354.153 63.746C354.239 64.2833 354.187 64.8207 353.997 65.358C353.806 65.8953 353.494 66.4153 353.061 66.918C352.627 67.4207 352.081 67.88 351.423 68.296C350.157 69.0933 348.953 69.414 347.809 69.258C346.665 69.0847 345.729 68.504 345.001 67.516ZM360.965 53.606C361.277 53.3807 361.528 53.32 361.719 53.424C361.909 53.5107 362.005 53.7707 362.005 54.204V69.856C362.005 70.2547 361.901 70.558 361.693 70.766C361.537 70.922 361.277 71.156 360.913 71.468C360.549 71.7973 360.193 72.092 359.847 72.352C359.621 72.5253 359.396 72.56 359.171 72.456C358.963 72.3693 358.859 72.1613 358.859 71.832V57.116C358.859 56.908 358.798 56.7867 358.677 56.752C358.573 56.7173 358.399 56.7867 358.157 56.96C358.001 57.0813 357.836 57.142 357.663 57.142C357.489 57.142 357.359 57.0813 357.273 56.96C357.169 56.8213 357.143 56.6653 357.195 56.492C357.264 56.3187 357.394 56.1627 357.585 56.024L360.965 53.606ZM347.653 65.904C347.913 66.216 348.216 66.4673 348.563 66.658C348.909 66.8487 349.247 66.9873 349.577 67.074C349.923 67.1607 350.235 67.204 350.513 67.204C350.79 67.1867 350.981 67.1347 351.085 67.048C351.189 66.9787 351.284 66.8227 351.371 66.58C351.457 66.3373 351.501 66.0513 351.501 65.722C351.518 65.3753 351.475 65.02 351.371 64.656C351.267 64.2747 351.085 63.9193 350.825 63.59C350.547 63.278 350.227 63.0267 349.863 62.836C349.499 62.628 349.135 62.4807 348.771 62.394C348.424 62.3073 348.103 62.264 347.809 62.264C347.514 62.264 347.315 62.2987 347.211 62.368C347.107 62.4547 347.02 62.628 346.951 62.888C346.881 63.1307 346.855 63.4253 346.873 63.772C346.89 64.1013 346.959 64.4567 347.081 64.838C347.202 65.2193 347.393 65.5747 347.653 65.904ZM374.885 67.516C374.556 67.0827 374.339 66.6147 374.235 66.112C374.149 65.592 374.183 65.0633 374.339 64.526C374.495 63.9887 374.79 63.46 375.223 62.94C375.657 62.4027 376.237 61.8827 376.965 61.38C377.607 60.9293 378.239 60.6347 378.863 60.496C379.487 60.34 380.077 60.3053 380.631 60.392C381.186 60.4787 381.697 60.678 382.165 60.99C382.633 61.302 383.041 61.692 383.387 62.16C383.751 62.6627 383.968 63.1913 384.037 63.746C384.124 64.2833 384.072 64.8207 383.881 65.358C383.691 65.8953 383.379 66.4153 382.945 66.918C382.512 67.4207 381.966 67.88 381.307 68.296C380.042 69.0933 378.837 69.414 377.693 69.258C376.549 69.0847 375.613 68.504 374.885 67.516ZM390.849 53.606C391.161 53.3807 391.413 53.32 391.603 53.424C391.794 53.5107 391.889 53.7707 391.889 54.204V69.856C391.889 70.2547 391.785 70.558 391.577 70.766C391.421 70.922 391.161 71.156 390.797 71.468C390.433 71.7973 390.078 72.092 389.731 72.352C389.506 72.5253 389.281 72.56 389.055 72.456C388.847 72.3693 388.743 72.1613 388.743 71.832V57.116C388.743 56.908 388.683 56.7867 388.561 56.752C388.457 56.7173 388.284 56.7867 388.041 56.96C387.885 57.0813 387.721 57.142 387.547 57.142C387.374 57.142 387.244 57.0813 387.157 56.96C387.053 56.8213 387.027 56.6653 387.079 56.492C387.149 56.3187 387.279 56.1627 387.469 56.024L390.849 53.606ZM377.537 65.904C377.797 66.216 378.101 66.4673 378.447 66.658C378.794 66.8487 379.132 66.9873 379.461 67.074C379.808 67.1607 380.12 67.204 380.397 67.204C380.675 67.1867 380.865 67.1347 380.969 67.048C381.073 66.9787 381.169 66.8227 381.255 66.58C381.342 66.3373 381.385 66.0513 381.385 65.722C381.403 65.3753 381.359 65.02 381.255 64.656C381.151 64.2747 380.969 63.9193 380.709 63.59C380.432 63.278 380.111 63.0267 379.747 62.836C379.383 62.628 379.019 62.4807 378.655 62.394C378.309 62.3073 377.988 62.264 377.693 62.264C377.399 62.264 377.199 62.2987 377.095 62.368C376.991 62.4547 376.905 62.628 376.835 62.888C376.766 63.1307 376.74 63.4253 376.757 63.772C376.775 64.1013 376.844 64.4567 376.965 64.838C377.087 65.2193 377.277 65.5747 377.537 65.904ZM412.029 53.606C412.341 53.3807 412.593 53.32 412.783 53.424C412.974 53.5107 413.069 53.7707 413.069 54.204V61.744C413.381 61.5187 413.633 61.406 413.823 61.406H416.605C416.952 61.406 417.125 61.4927 417.125 61.666C417.125 61.822 416.961 62.004 416.631 62.212C416.389 62.368 416.155 62.5327 415.929 62.706C415.721 62.8793 415.522 63.0613 415.331 63.252C415.089 63.4947 414.655 63.616 414.031 63.616H413.069V66.008C413.381 65.7827 413.633 65.67 413.823 65.67H416.605C416.952 65.67 417.125 65.7567 417.125 65.93C417.125 66.086 416.961 66.268 416.631 66.476C416.389 66.632 416.155 66.7967 415.929 66.97C415.721 67.1433 415.522 67.3253 415.331 67.516C415.089 67.7587 414.655 67.88 414.031 67.88H413.069V69.856C413.069 70.2547 412.965 70.558 412.757 70.766C412.601 70.922 412.341 71.156 411.977 71.468C411.613 71.7973 411.258 72.092 410.911 72.352C410.686 72.5253 410.461 72.56 410.235 72.456C410.027 72.3693 409.923 72.1613 409.923 71.832V57.116C409.923 56.908 409.863 56.7867 409.741 56.752C409.637 56.7173 409.464 56.7867 409.221 56.96C409.065 57.0813 408.901 57.142 408.727 57.142C408.554 57.142 408.424 57.0813 408.337 56.96C408.233 56.8213 408.207 56.6653 408.259 56.492C408.329 56.3187 408.459 56.1627 408.649 56.024L412.029 53.606ZM396.975 67.516C396.646 67.0827 396.429 66.6147 396.325 66.112C396.239 65.592 396.273 65.0633 396.429 64.526C396.585 63.9887 396.88 63.46 397.313 62.94C397.747 62.4027 398.327 61.8827 399.055 61.38C399.697 60.9293 400.329 60.6347 400.953 60.496C401.577 60.34 402.167 60.3053 402.721 60.392C403.276 60.4787 403.787 60.678 404.255 60.99C404.723 61.302 405.131 61.692 405.477 62.16C405.841 62.6627 406.058 63.1913 406.127 63.746C406.214 64.2833 406.162 64.8207 405.971 65.358C405.781 65.8953 405.469 66.4153 405.035 66.918C404.602 67.4207 404.056 67.88 403.397 68.296C402.132 69.0933 400.927 69.414 399.783 69.258C398.639 69.0847 397.703 68.504 396.975 67.516ZM399.627 65.904C399.887 66.216 400.191 66.4673 400.537 66.658C400.884 66.8487 401.222 66.9873 401.551 67.074C401.898 67.1607 402.21 67.204 402.487 67.204C402.765 67.1867 402.955 67.1347 403.059 67.048C403.163 66.9787 403.259 66.8227 403.345 66.58C403.432 66.3373 403.475 66.0513 403.475 65.722C403.493 65.3753 403.449 65.02 403.345 64.656C403.241 64.2747 403.059 63.9193 402.799 63.59C402.522 63.278 402.201 63.0267 401.837 62.836C401.473 62.628 401.109 62.4807 400.745 62.394C400.399 62.3073 400.078 62.264 399.783 62.264C399.489 62.264 399.289 62.2987 399.185 62.368C399.081 62.4547 398.995 62.628 398.925 62.888C398.856 63.1307 398.83 63.4253 398.847 63.772C398.865 64.1013 398.934 64.4567 399.055 64.838C399.177 65.2193 399.367 65.5747 399.627 65.904ZM436.349 53.606C436.661 53.3807 436.913 53.32 437.103 53.424C437.294 53.5107 437.389 53.7707 437.389 54.204V69.856C437.389 70.2547 437.285 70.558 437.077 70.766C436.921 70.922 436.661 71.156 436.297 71.468C435.933 71.7973 435.578 72.092 435.231 72.352C435.006 72.5253 434.781 72.56 434.555 72.456C434.347 72.3693 434.243 72.1613 434.243 71.832V57.116C434.243 56.908 434.183 56.7867 434.061 56.752C433.957 56.7173 433.784 56.7867 433.541 56.96C433.385 57.0813 433.221 57.142 433.047 57.142C432.874 57.142 432.744 57.0813 432.657 56.96C432.553 56.8213 432.527 56.6653 432.579 56.492C432.649 56.3187 432.779 56.1627 432.969 56.024L436.349 53.606ZM428.367 60.886C428.957 62.0993 428.913 63.564 428.237 65.28C428.099 65.6093 427.899 65.9733 427.639 66.372C427.379 66.7707 427.085 67.1607 426.755 67.542C426.426 67.9233 426.088 68.2787 425.741 68.608C425.395 68.9373 425.074 69.1887 424.779 69.362C424.537 69.5007 424.303 69.5787 424.077 69.596C423.869 69.6133 423.731 69.5787 423.661 69.492C423.575 69.3533 423.557 69.1887 423.609 68.998C423.679 68.79 423.765 68.6167 423.869 68.478C424.06 68.2007 424.225 67.958 424.363 67.75C424.519 67.5247 424.658 67.308 424.779 67.1C424.901 66.8747 425.013 66.6493 425.117 66.424C425.221 66.1813 425.334 65.904 425.455 65.592C425.577 65.2453 425.663 64.8553 425.715 64.422C425.767 63.9887 425.75 63.6507 425.663 63.408C425.577 63.096 425.429 62.862 425.221 62.706C425.031 62.55 424.814 62.4807 424.571 62.498C424.242 62.5153 423.921 62.5327 423.609 62.55C423.315 62.5673 422.916 62.5847 422.413 62.602C422.153 62.602 421.867 62.602 421.555 62.602C421.243 62.602 420.94 62.5933 420.645 62.576C420.351 62.5587 420.073 62.5327 419.813 62.498C419.553 62.446 419.337 62.394 419.163 62.342C418.921 62.2553 418.817 62.1253 418.851 61.952C418.903 61.7613 419.103 61.5707 419.449 61.38C419.64 61.276 419.848 61.146 420.073 60.99C420.316 60.834 420.524 60.6867 420.697 60.548C420.888 60.4093 421.07 60.3227 421.243 60.288C421.434 60.236 421.694 60.2273 422.023 60.262C422.318 60.2967 422.63 60.3227 422.959 60.34C423.289 60.3573 423.731 60.3573 424.285 60.34C424.632 60.3227 424.987 60.2967 425.351 60.262C425.733 60.2273 426.27 60.1927 426.963 60.158C427.275 60.1407 427.553 60.1927 427.795 60.314C428.038 60.418 428.229 60.6087 428.367 60.886ZM463.738 52.618C464.05 52.3927 464.301 52.332 464.492 52.436C464.682 52.5227 464.778 52.7827 464.778 53.216V70.09C464.778 70.4887 464.674 70.792 464.466 71C464.31 71.156 464.102 71.3467 463.842 71.572C463.599 71.7973 463.304 72.04 462.958 72.3C462.732 72.4733 462.507 72.508 462.282 72.404C462.074 72.3173 461.97 72.1093 461.97 71.78V64.552C461.796 64.6733 461.64 64.7947 461.502 64.916C461.363 65.0373 461.224 65.1673 461.086 65.306C460.843 65.5487 460.41 65.67 459.786 65.67H459.318V70.09C459.318 70.4887 459.214 70.792 459.006 71C458.85 71.156 458.642 71.3467 458.382 71.572C458.139 71.7973 457.844 72.04 457.498 72.3C457.272 72.4733 457.047 72.508 456.822 72.404C456.614 72.3173 456.51 72.1093 456.51 71.78V56.882C456.51 56.674 456.449 56.5527 456.328 56.518C456.224 56.4833 456.05 56.5527 455.808 56.726C455.652 56.8473 455.487 56.908 455.314 56.908C455.14 56.908 455.01 56.8473 454.924 56.726C454.82 56.5873 454.794 56.4313 454.846 56.258C454.915 56.0847 455.045 55.9287 455.236 55.79L458.278 53.658C458.59 53.4327 458.841 53.372 459.032 53.476C459.222 53.5627 459.318 53.8227 459.318 54.256V63.46H461.97V55.842C461.97 55.634 461.909 55.5127 461.788 55.478C461.684 55.4433 461.51 55.5127 461.268 55.686C461.112 55.8073 460.947 55.868 460.774 55.868C460.6 55.868 460.47 55.8073 460.384 55.686C460.28 55.5473 460.254 55.3913 460.306 55.218C460.375 55.0447 460.505 54.8887 460.696 54.75L463.738 52.618ZM444.914 68.686C444.688 68.3567 444.532 67.984 444.446 67.568C444.376 67.152 444.402 66.7273 444.524 66.294C444.645 65.8433 444.87 65.3927 445.2 64.942C445.546 64.4913 446.023 64.058 446.63 63.642C447.167 63.278 447.696 63.0527 448.216 62.966C448.753 62.862 449.256 62.8533 449.724 62.94C450.192 63.0267 450.616 63.2 450.998 63.46C451.379 63.7027 451.682 63.98 451.908 64.292C452.133 64.604 452.272 64.9853 452.324 65.436C452.376 65.8693 452.332 66.32 452.194 66.788C452.055 67.256 451.821 67.7153 451.492 68.166C451.162 68.6167 450.729 69.0067 450.192 69.336C449.672 69.6653 449.143 69.882 448.606 69.986C448.086 70.09 447.583 70.1073 447.098 70.038C446.63 69.9513 446.205 69.7953 445.824 69.57C445.442 69.3273 445.139 69.0327 444.914 68.686ZM453.884 60.418C454.23 60.418 454.404 60.5047 454.404 60.678C454.404 60.834 454.239 61.016 453.91 61.224C453.754 61.328 453.589 61.4493 453.416 61.588C453.26 61.7267 453.104 61.8653 452.948 62.004C452.705 62.2467 452.272 62.368 451.648 62.368H443.068C442.912 62.368 442.782 62.342 442.678 62.29C442.574 62.238 442.522 62.1687 442.522 62.082C442.522 61.9953 442.591 61.9087 442.73 61.822C442.868 61.718 443.007 61.6227 443.146 61.536C443.232 61.484 443.345 61.3973 443.484 61.276C443.622 61.1547 443.77 61.0247 443.926 60.886C444.255 60.574 444.784 60.418 445.512 60.418H453.884ZM451.804 57.454C452.15 57.454 452.324 57.5407 452.324 57.714C452.324 57.87 452.159 58.052 451.83 58.26C451.674 58.364 451.509 58.4853 451.336 58.624C451.18 58.7627 451.024 58.9013 450.868 59.04C450.625 59.2827 450.192 59.404 449.568 59.404H446.5C446.344 59.404 446.214 59.378 446.11 59.326C446.006 59.274 445.954 59.2047 445.954 59.118C445.954 59.0313 446.023 58.9447 446.162 58.858C446.3 58.754 446.439 58.6587 446.578 58.572C446.664 58.52 446.777 58.4333 446.916 58.312C447.054 58.1907 447.202 58.0607 447.358 57.922C447.687 57.61 448.216 57.454 448.944 57.454H451.804ZM447.28 67.204C447.453 67.4293 447.661 67.6113 447.904 67.75C448.146 67.8713 448.38 67.9667 448.606 68.036C448.848 68.088 449.065 68.114 449.256 68.114C449.446 68.0967 449.585 68.062 449.672 68.01C449.741 67.958 449.802 67.8453 449.854 67.672C449.923 67.4987 449.958 67.2993 449.958 67.074C449.975 66.8487 449.94 66.606 449.854 66.346C449.784 66.086 449.663 65.8433 449.49 65.618C449.299 65.3927 449.074 65.2193 448.814 65.098C448.554 64.9593 448.302 64.8553 448.06 64.786C447.817 64.7167 447.592 64.682 447.384 64.682C447.193 64.682 447.063 64.708 446.994 64.76C446.924 64.812 446.864 64.9247 446.812 65.098C446.76 65.2713 446.734 65.4793 446.734 65.722C446.751 65.9473 446.794 66.1987 446.864 66.476C446.95 66.736 447.089 66.9787 447.28 67.204ZM475.703 65.67H466.941C466.785 65.67 466.655 65.644 466.551 65.592C466.447 65.54 466.395 65.4707 466.395 65.384C466.395 65.2973 466.464 65.2107 466.603 65.124C466.741 65.02 466.88 64.9247 467.019 64.838C467.157 64.7513 467.331 64.6213 467.539 64.448C467.747 64.2747 467.946 64.1013 468.137 63.928C468.466 63.616 468.995 63.46 469.723 63.46H486.415C486.761 63.46 486.935 63.5467 486.935 63.72C486.935 63.876 486.77 64.058 486.441 64.266C486.198 64.422 485.964 64.5867 485.739 64.76C485.531 64.9333 485.331 65.1153 485.141 65.306C484.898 65.5487 484.465 65.67 483.841 65.67H478.849V71.338C478.849 71.7367 478.745 72.04 478.537 72.248C478.381 72.404 478.121 72.638 477.757 72.95C477.393 73.2793 477.037 73.574 476.691 73.834C476.465 74.0073 476.24 74.042 476.015 73.938C475.807 73.8513 475.703 73.6433 475.703 73.314V65.67ZM482.827 53.294C483.173 53.294 483.347 53.3807 483.347 53.554C483.347 53.71 483.182 53.892 482.853 54.1C482.61 54.256 482.376 54.4207 482.151 54.594C481.943 54.7673 481.743 54.9493 481.553 55.14C481.31 55.3827 480.877 55.504 480.253 55.504H478.511C478.58 55.608 478.623 55.686 478.641 55.738C478.71 55.9633 478.701 56.2407 478.615 56.57C478.545 56.882 478.311 57.2807 477.913 57.766C477.358 58.4767 476.769 59.0747 476.145 59.56C475.521 60.0453 474.957 60.4267 474.455 60.704C474.247 60.8253 473.995 60.9467 473.701 61.068C473.423 61.1893 473.137 61.302 472.843 61.406C472.548 61.51 472.262 61.6053 471.985 61.692C471.707 61.7613 471.465 61.822 471.257 61.874C471.014 61.9433 470.815 61.9607 470.659 61.926C470.52 61.874 470.433 61.8133 470.399 61.744C470.364 61.6747 470.373 61.5707 470.425 61.432C470.494 61.2933 470.624 61.172 470.815 61.068C470.901 61.016 471.031 60.9467 471.205 60.86C471.395 60.756 471.595 60.6433 471.803 60.522C472.011 60.3833 472.219 60.2533 472.427 60.132C472.635 60.0107 472.817 59.898 472.973 59.794C473.129 59.7073 473.302 59.586 473.493 59.43C473.701 59.274 473.909 59.1007 474.117 58.91C474.325 58.7193 474.515 58.5287 474.689 58.338C474.862 58.13 475.001 57.9393 475.105 57.766C475.295 57.454 475.382 57.2373 475.365 57.116C475.365 56.9773 475.33 56.804 475.261 56.596C475.191 56.388 475.217 56.2407 475.339 56.154C475.46 56.05 475.581 55.972 475.703 55.92C475.789 55.8853 475.963 55.8333 476.223 55.764C476.483 55.6773 476.743 55.5907 477.003 55.504H471.387C471.231 55.504 471.101 55.478 470.997 55.426C470.893 55.374 470.841 55.3047 470.841 55.218C470.841 55.1313 470.91 55.0447 471.049 54.958C471.187 54.854 471.326 54.7587 471.465 54.672C471.603 54.5853 471.777 54.4553 471.985 54.282C472.193 54.1087 472.392 53.9353 472.583 53.762C472.912 53.45 473.441 53.294 474.169 53.294H482.827ZM479.213 58.156C479.317 57.9827 479.533 57.922 479.863 57.974C480.088 58.0087 480.322 58.0607 480.565 58.13C480.807 58.182 481.085 58.2687 481.397 58.39C481.709 58.5113 481.986 58.6933 482.229 58.936C482.471 59.1787 482.627 59.482 482.697 59.846C482.801 60.4007 482.497 61.0767 481.787 61.874C481.665 62.0127 481.535 62.0733 481.397 62.056C481.258 62.0213 481.171 61.926 481.137 61.77C481.102 61.6313 480.937 61.38 480.643 61.016C480.209 60.496 479.733 60.184 479.213 60.08C479.005 60.0453 478.84 60.0193 478.719 60.002C478.597 59.9673 478.467 59.9327 478.329 59.898C478.19 59.8633 478.103 59.7767 478.069 59.638C478.034 59.4993 478.051 59.378 478.121 59.274C478.19 59.17 478.277 59.066 478.381 58.962C478.485 58.8407 478.58 58.754 478.667 58.702C478.788 58.6153 478.892 58.5287 478.979 58.442C479.083 58.338 479.161 58.2427 479.213 58.156ZM505.332 53.658C505.644 53.4327 505.896 53.372 506.086 53.476C506.277 53.5627 506.372 53.8227 506.372 54.256V70.09C506.372 70.4887 506.268 70.792 506.06 71C505.904 71.156 505.696 71.3467 505.436 71.572C505.194 71.7973 504.899 72.04 504.552 72.3C504.327 72.4733 504.102 72.508 503.876 72.404C503.668 72.3173 503.564 72.1093 503.564 71.78V65.67H499.43C499.188 65.67 499.023 65.6613 498.936 65.644C498.867 65.6267 498.789 65.5747 498.702 65.488C498.616 65.4013 498.598 65.3233 498.65 65.254C498.72 65.1847 498.824 65.098 498.962 64.994C499.049 64.942 499.17 64.8553 499.326 64.734C499.5 64.5953 499.673 64.4567 499.846 64.318C500.037 64.1793 500.202 64.058 500.34 63.954C500.496 63.8327 500.6 63.7547 500.652 63.72C500.756 63.6333 500.912 63.5727 501.12 63.538C501.328 63.486 501.528 63.46 501.718 63.46H503.564V56.882C503.564 56.674 503.504 56.5527 503.382 56.518C503.278 56.4833 503.105 56.5527 502.862 56.726C502.706 56.8473 502.542 56.908 502.368 56.908C502.195 56.908 502.065 56.8473 501.978 56.726C501.874 56.5873 501.848 56.4313 501.9 56.258C501.97 56.0847 502.1 55.9287 502.29 55.79L505.332 53.658ZM510.532 52.618C510.844 52.3927 511.096 52.332 511.286 52.436C511.477 52.5227 511.572 52.7827 511.572 53.216V70.09C511.572 70.4887 511.468 70.792 511.26 71C511.104 71.156 510.896 71.3467 510.636 71.572C510.394 71.7973 510.099 72.04 509.752 72.3C509.527 72.4733 509.302 72.508 509.076 72.404C508.868 72.3173 508.764 72.1093 508.764 71.78V55.842C508.764 55.634 508.704 55.5127 508.582 55.478C508.478 55.4433 508.305 55.5127 508.062 55.686C507.906 55.8073 507.742 55.868 507.568 55.868C507.395 55.868 507.265 55.8073 507.178 55.686C507.074 55.5473 507.048 55.3913 507.1 55.218C507.17 55.0447 507.3 54.8887 507.49 54.75L510.532 52.618ZM492.15 61.666C492.393 61.4753 492.766 61.2673 493.268 61.042C493.771 60.8167 494.282 60.6607 494.802 60.574C495.097 60.522 495.357 60.5827 495.582 60.756C495.756 60.8947 495.912 61.0853 496.05 61.328C496.206 61.5533 496.302 61.8307 496.336 62.16C496.371 62.4547 496.362 62.862 496.31 63.382C496.258 63.902 496.111 64.448 495.868 65.02C495.574 65.7133 495.166 66.3807 494.646 67.022C494.126 67.646 493.572 68.166 492.982 68.582C492.41 68.9807 491.786 69.3187 491.11 69.596C490.452 69.8733 489.88 70.0553 489.394 70.142C489.152 70.1767 488.952 70.1853 488.796 70.168C488.658 70.1333 488.571 70.0813 488.536 70.012C488.502 69.9427 488.536 69.856 488.64 69.752C488.744 69.6307 488.883 69.5093 489.056 69.388C489.143 69.336 489.273 69.2493 489.446 69.128C489.637 68.9893 489.845 68.8333 490.07 68.66C490.313 68.4867 490.556 68.3047 490.798 68.114C491.058 67.906 491.292 67.698 491.5 67.49C491.899 67.1087 492.22 66.7013 492.462 66.268C492.722 65.8173 492.896 65.4187 492.982 65.072C493.069 64.7253 493.104 64.37 493.086 64.006C493.086 63.6247 493.043 63.3127 492.956 63.07C492.887 62.8967 492.8 62.7927 492.696 62.758C492.61 62.706 492.506 62.68 492.384 62.68C492.09 62.6453 491.908 62.5587 491.838 62.42C491.786 62.316 491.786 62.186 491.838 62.03C491.908 61.874 492.012 61.7527 492.15 61.666ZM496.622 66.008C496.778 65.852 497.004 65.8173 497.298 65.904C497.506 65.9733 497.723 66.0513 497.948 66.138C498.191 66.2247 498.46 66.346 498.754 66.502C499.049 66.658 499.3 66.8747 499.508 67.152C499.734 67.412 499.855 67.7327 499.872 68.114C499.924 68.686 499.543 69.3187 498.728 70.012C498.59 70.1333 498.46 70.1767 498.338 70.142C498.217 70.1073 498.139 70.0033 498.104 69.83C498.07 69.7433 498.026 69.6393 497.974 69.518C497.922 69.3967 497.827 69.232 497.688 69.024C497.498 68.7293 497.29 68.4953 497.064 68.322C496.856 68.1487 496.631 68.0187 496.388 67.932C496.198 67.8627 496.042 67.8107 495.92 67.776C495.799 67.7413 495.669 67.698 495.53 67.646C495.409 67.5767 495.331 67.4727 495.296 67.334C495.279 67.1953 495.314 67.0827 495.4 66.996C495.487 66.892 495.591 66.7967 495.712 66.71C495.834 66.606 495.938 66.528 496.024 66.476C496.146 66.4067 496.25 66.3373 496.336 66.268C496.44 66.1813 496.536 66.0947 496.622 66.008ZM528.244 62.134C528.244 62.5327 528.14 62.836 527.932 63.044L527.49 63.46H533.21C533.556 63.46 533.73 63.5467 533.73 63.72C533.73 63.876 533.565 64.058 533.236 64.266C532.993 64.422 532.759 64.5867 532.534 64.76C532.326 64.9333 532.126 65.1153 531.936 65.306C531.693 65.5487 531.26 65.67 530.636 65.67H513.736C513.58 65.67 513.45 65.644 513.346 65.592C513.242 65.54 513.19 65.4707 513.19 65.384C513.19 65.2973 513.259 65.2107 513.398 65.124C513.536 65.02 513.675 64.9247 513.814 64.838C513.952 64.7513 514.126 64.6213 514.334 64.448C514.542 64.2747 514.741 64.1013 514.932 63.928C515.261 63.616 515.79 63.46 516.518 63.46H519.482V61.666C519.482 61.2673 519.586 60.964 519.794 60.756C519.898 60.652 520.062 60.5047 520.288 60.314C520.513 60.106 520.747 59.898 520.99 59.69C520.712 59.534 520.452 59.352 520.21 59.144C519.967 58.936 519.742 58.6847 519.534 58.39C519.204 57.9567 518.988 57.4887 518.884 56.986C518.797 56.466 518.832 55.9373 518.988 55.4C519.144 54.8627 519.438 54.334 519.872 53.814C520.305 53.2767 520.886 52.7567 521.614 52.254C522.255 51.8033 522.888 51.5087 523.512 51.37C524.136 51.214 524.725 51.1793 525.28 51.266C525.834 51.3527 526.346 51.552 526.814 51.864C527.282 52.176 527.689 52.566 528.036 53.034C528.4 53.5367 528.616 54.0653 528.686 54.62C528.772 55.1573 528.72 55.6947 528.53 56.232C528.339 56.7693 528.027 57.2893 527.594 57.792C527.16 58.2947 526.614 58.754 525.956 59.17C524.794 59.898 523.685 60.2187 522.628 60.132V62.134C522.628 62.5327 522.524 62.836 522.316 63.044L521.874 63.46H525.098V61.666C525.098 61.2673 525.202 60.964 525.41 60.756C525.566 60.6 525.826 60.366 526.19 60.054C526.554 59.7247 526.909 59.43 527.256 59.17C527.481 58.9967 527.698 58.962 527.906 59.066C528.131 59.1527 528.244 59.3607 528.244 59.69V62.134ZM522.186 56.778C522.446 57.09 522.749 57.3413 523.096 57.532C523.442 57.7227 523.78 57.8613 524.11 57.948C524.456 58.0347 524.768 58.078 525.046 58.078C525.323 58.0607 525.514 58.0087 525.618 57.922C525.722 57.8527 525.817 57.6967 525.904 57.454C525.99 57.2113 526.034 56.9253 526.034 56.596C526.051 56.2493 526.008 55.894 525.904 55.53C525.8 55.1487 525.618 54.7933 525.358 54.464C525.08 54.152 524.76 53.9007 524.396 53.71C524.032 53.502 523.668 53.3547 523.304 53.268C522.957 53.1813 522.636 53.138 522.342 53.138C522.047 53.138 521.848 53.1727 521.744 53.242C521.64 53.3287 521.553 53.502 521.484 53.762C521.414 54.0047 521.388 54.2993 521.406 54.646C521.423 54.9753 521.492 55.3307 521.614 55.712C521.735 56.0933 521.926 56.4487 522.186 56.778ZM541.644 52.02C541.956 51.7947 542.207 51.734 542.398 51.838C542.588 51.9247 542.684 52.1847 542.684 52.618V63.018C542.684 63.4167 542.58 63.72 542.372 63.928C542.216 64.084 541.956 64.3267 541.592 64.656C541.228 64.968 540.872 65.254 540.526 65.514C540.3 65.6873 540.075 65.7307 539.85 65.644C539.642 65.54 539.538 65.3233 539.538 64.994V55.53C539.538 55.322 539.477 55.2007 539.356 55.166C539.252 55.1313 539.078 55.2007 538.836 55.374C538.68 55.4953 538.515 55.556 538.342 55.556C538.168 55.556 538.038 55.4953 537.952 55.374C537.848 55.2353 537.822 55.0793 537.874 54.906C537.943 54.7327 538.073 54.5767 538.264 54.438L541.644 52.02ZM541.514 68.036C541.583 68.1053 541.687 68.192 541.826 68.296C541.982 68.4 542.138 68.5127 542.294 68.634C542.45 68.738 542.606 68.842 542.762 68.946C542.918 69.05 543.048 69.1367 543.152 69.206C543.394 69.362 543.507 69.5787 543.49 69.856C543.472 69.96 543.429 70.0553 543.36 70.142C543.29 70.2113 543.178 70.3067 543.022 70.428C542.918 70.4973 542.788 70.5927 542.632 70.714C542.493 70.8353 542.337 70.9567 542.164 71.078C542.008 71.2167 541.852 71.3467 541.696 71.468C541.557 71.6067 541.444 71.7193 541.358 71.806C541.254 71.9273 541.106 71.9793 540.916 71.962C540.742 71.962 540.543 71.884 540.318 71.728L538.68 70.532C538.402 70.3587 538.29 70.1247 538.342 69.83C538.342 69.6913 538.402 69.5873 538.524 69.518C538.662 69.4313 538.784 69.3533 538.888 69.284C539.13 69.128 539.408 68.9287 539.72 68.686C540.032 68.4433 540.274 68.2267 540.448 68.036C540.76 67.724 541.115 67.724 541.514 68.036Z" fill="#E6EDEA"/>
</svg>
