<svg width="1733" height="931" viewBox="0 0 1733 931" fill="none" xmlns="http://www.w3.org/2000/svg">
<path d="M17.96 805.8C17.2 805.8 16.52 805.5 15.99 804.92L15.93 804.85L15.88 804.77C15.23 803.73 15.82 801.07 17.48 795.11C17.83 793.86 18.13 792.79 18.23 792.28C18.29 792 18.28 791.67 18.28 791.32C18.28 790.91 18.27 790.48 18.35 790.03L18.44 789.57C19.15 785.93 19.87 782.2 20.53 778.48C19.73 779.22 18.89 779.97 17.93 780.62C16.42 781.64 12.39 784.05 10.6 784.76C9.84 785.06 9.15 785.21 8.56 785.21C7.28 785.21 6.7 784.53 6.47 784.12C5.95 783.2 6.14 781.89 7.02 780.44L7.17 780.19L7.43 780.06C11.13 778.2 14.93 776.13 17.56 773.02C16.2 773.11 14.19 773.32 12.23 773.53C9.47 773.82 6.87 774.1 5.6 774.1C5.43 774.1 5.29 774.1 5.17 774.09C3.25 773.94 1.81 773.51 0.56 771.81L0 771.05L2.04 769.36L2.3 769.31C6.82 768.5 11.51 768.1 16.04 767.71C16.97 767.63 17.9 767.55 18.83 767.47C18.05 766 16.93 764.64 15.43 763.35C15.13 763.09 14.38 762.6 13.71 762.16C12.45 761.33 11.96 760.99 11.72 760.68C10.96 759.7 11.17 758.91 11.35 758.53C11.98 757.24 14.02 757.05 15.18 757.05C15.71 757.05 17.06 757.1 17.97 757.54L18.13 757.61L23.22 762.71L24.16 750.64L27.5 749L27.85 749.09C29.23 749.43 30.17 750.68 30.43 752.51C30.72 754.54 30.59 758.22 30.49 760.66L30.47 761.12C30.45 761.67 30.35 762.2 30.25 762.72C30.2 763 30.15 763.27 30.11 763.53C30.34 763.42 30.57 763.3 30.79 763.19C32.97 762.1 35.95 760.62 38.03 760.62C39.34 760.62 40 761.21 40.31 761.71C40.88 762.6 40.57 763.26 40.36 763.69C39.87 764.73 37.97 765.72 34.05 767.59C33.1 768.04 32.19 768.47 31.48 768.84C32.22 768.99 33.09 769.15 33.78 769.28C35.18 769.54 36.39 769.77 36.85 769.91C38.12 770.28 39.61 770.87 39.82 772.12C39.95 772.89 39.56 773.6 38.66 774.24C37.65 774.96 36.57 775.31 35.34 775.31C34.9 775.31 34.47 775.27 34.04 775.2L36.24 776.98L36.31 777.08C37.04 778.05 37.77 779.05 38.51 780.06C40.23 782.41 42 784.84 43.9 786.99C44.19 787.32 45.2 788.16 45.86 788.72C46.89 789.58 47.03 789.71 47.16 789.92C47.58 790.65 47.58 791.47 47.14 792.22C46.4 793.51 44.49 794.38 43.18 794.38C43.01 794.38 42.85 794.36 42.7 794.34C41.15 794.04 38.89 791.36 34.41 785.47C33.21 783.89 32.17 782.53 31.58 781.89C30.84 781.09 28.74 779.12 27.51 778.21L26.59 783.9L26.57 783.96C25.92 786.11 25.55 788.64 25.16 791.33C24.69 794.57 24.2 797.91 23.16 800.62C23.06 800.88 21.11 804.48 20.37 804.95C19.48 805.52 18.69 805.8 17.95 805.8H17.96Z" fill="#FF92AA"/>
<path d="M1698.49 95.1C1697.78 95.1 1697.18 94.93 1696.7 94.61L1696.53 94.49L1696.42 94.31C1695.9 93.49 1696.31 91.15 1696.31 91.13C1696.67 89.59 1697.52 87.81 1698.34 86.09C1698.93 84.85 1699.48 83.68 1699.83 82.67C1701.65 77.37 1703.72 71.36 1703.33 64.94C1703.16 62.07 1702.62 56.08 1702.13 54.59C1701.67 53.21 1701.51 53.18 1700.92 53.1C1700.48 53.04 1699.88 52.96 1699.13 52.59C1695.87 50.98 1695.1 46.12 1694.63 42.76C1693.45 42.83 1692.25 42.96 1691.08 43.09C1689.25 43.29 1687.35 43.49 1685.47 43.49C1684.13 43.49 1682.93 43.39 1681.79 43.18L1681.47 43.12L1681.25 42.89C1680.24 41.84 1680.34 40.85 1680.48 40.35C1680.77 39.39 1681.7 38.64 1682.96 38.36C1684.58 38 1686.39 37.98 1688.31 37.95C1690.05 37.93 1691.85 37.91 1693.43 37.61C1694.78 37.35 1694.78 37.23 1694.75 36.26C1694.74 35.63 1694.71 34.77 1695.13 33.84C1695.78 32.41 1697.21 31.14 1698.48 30.02C1699.17 29.41 1700.11 28.57 1700.25 28.21C1700.42 27.74 1700.4 27.11 1700.37 26.5C1700.35 25.97 1700.32 25.42 1700.42 24.9C1700.82 22.76 1701.44 20.68 1702.04 18.66C1702.85 15.94 1703.69 13.12 1703.96 10.2C1704.03 9.49 1703.99 8.4 1703.95 7.25C1703.87 5.03 1703.79 2.93 1704.3 1.74C1704.88 0.37 1707.07 0 1708.27 0C1708.66 0 1709 0.04 1709.28 0.11L1709.84 0.26L1709.99 0.81C1710.22 1.65 1710.36 2.53 1710.42 3.51C1710.75 9.31 1709.79 13.18 1708.68 17.65C1708.25 19.37 1707.81 21.15 1707.42 23.15C1707.32 23.68 1707.28 24.26 1707.24 24.88C1707.22 25.15 1707.2 25.42 1707.18 25.69C1707.31 25.67 1707.45 25.64 1707.58 25.61C1708.1 25.51 1708.64 25.4 1709.25 25.4C1709.38 25.4 1709.52 25.4 1709.66 25.42C1711.64 25.59 1713.98 28.05 1715.09 30.33C1715.67 31.51 1715.92 32.61 1715.83 33.56C1717.25 33.47 1719.39 33.25 1719.89 33.18C1720.95 33.03 1722.17 32.72 1723.36 32.41C1725 31.99 1726.69 31.55 1728.16 31.49C1728.27 31.49 1728.38 31.49 1728.51 31.49C1729.86 31.49 1731.58 31.73 1732.07 32.89C1732.28 33.39 1732.33 34.18 1731.37 35.16C1729.96 36.61 1720.62 38.19 1720.53 38.2C1719.95 38.29 1719.17 38.32 1718.35 38.35C1717.1 38.39 1715 38.47 1714.45 38.9C1714.06 39.28 1713.49 41.46 1713.15 42.77C1712.82 44.07 1712.5 45.29 1712.14 46.09C1711.35 47.85 1710.18 49.29 1709.06 50.69C1708.77 51.05 1708.48 51.41 1708.2 51.78C1709.08 54.04 1709.17 56.32 1709.25 58.52C1709.28 59.35 1709.32 60.21 1709.39 61.03C1709.44 61.6 1709.57 62.19 1709.7 62.82C1709.86 63.56 1710.02 64.33 1710.07 65.12C1710.52 72.41 1707.76 79.62 1705.08 86.59C1704.59 87.86 1704.11 89.12 1703.66 90.36C1703.61 90.5 1703.59 90.73 1703.58 90.97C1703.55 91.38 1703.51 91.88 1703.3 92.41C1702.67 93.99 1700.25 95.08 1698.49 95.08V95.1ZM1700.79 34.3C1700.11 35.36 1700.19 37.02 1700.25 38.41C1700.39 41.4 1701.47 46.85 1702.38 47.38C1702.58 47.47 1702.69 47.48 1702.71 47.48C1702.85 47.39 1703.03 46.81 1703.1 46.57C1703.24 46.11 1703.38 45.67 1703.73 45.37C1704.14 45.03 1704.64 45.03 1704.91 45.03H1705.12C1705.59 45.03 1705.9 45 1706.23 44.45C1706.63 43.78 1707.83 39.67 1707.98 38.58L1708.1 37.7C1708.23 36.73 1708.26 36.55 1708.67 35.06C1709 33.89 1708.78 32.48 1708.14 31.64C1707.89 31.31 1707.59 31.08 1707.23 30.95C1706.96 31.94 1706.33 32.89 1705.71 33.57C1705.14 34.18 1703.99 35.21 1702.6 35.21C1702.2 35.21 1701.82 35.12 1701.47 34.95C1701.13 34.78 1700.91 34.53 1700.75 34.29L1700.79 34.3Z" fill="#FF92AA"/>
<path d="M1591.67 39.5402C1588.51 39.5402 1585.47 38.2702 1583.93 36.3102C1583.07 35.2202 1580.01 28.0302 1579.88 26.8102C1579.57 23.7702 1579.7 18.0302 1580.93 15.3402C1582.23 12.5002 1586.29 11.4902 1589.65 11.4902C1590.81 11.4902 1591.91 11.6102 1592.82 11.8502C1594.05 12.1602 1598.61 14.1102 1599.39 14.8802C1600.89 16.5002 1600.57 19.6502 1600.32 22.1902C1600.25 22.9002 1600.18 23.5702 1600.17 24.1202C1600.15 24.8002 1600.17 25.2602 1600.17 25.6302C1600.19 26.5202 1600.18 26.9702 1599.9 28.5502C1599.72 29.5502 1599.61 30.5102 1599.5 31.4402C1599.04 35.4802 1598.67 38.6402 1593.18 39.4402C1592.7 39.5102 1592.19 39.5502 1591.68 39.5502L1591.67 39.5402ZM1588.87 14.3302C1585 14.3302 1584.48 17.8202 1584.27 21.4002C1584.07 24.8802 1585.52 31.5402 1588.31 34.5102C1589.34 35.6002 1590.49 36.1502 1591.72 36.1502C1591.87 36.1502 1592.03 36.1502 1592.18 36.1202C1594 35.9202 1594.27 34.9102 1594.6 33.1502L1594.92 31.4202C1595.64 27.6302 1596.52 22.9302 1596.42 19.3902C1596.38 19.0502 1595.93 17.0902 1595.69 16.5702C1595.11 16.1602 1592.43 15.0502 1591.55 14.7202C1590.51 14.4502 1589.64 14.3202 1588.86 14.3202L1588.87 14.3302Z" fill="#FF92AA"/>
<path d="M1617.19 114.89C1615.91 114.89 1614.97 114.25 1614.68 113.19C1613.89 110.34 1615.2 105.02 1616.33 102.32C1616.58 101.71 1616.95 101.2 1617.27 100.74C1617.73 100.09 1618.03 99.6398 1618.09 99.1298C1614.88 97.8098 1611.98 95.7398 1609.31 93.6898L1609.05 93.4898L1608.96 93.1798C1608.75 92.4598 1608.89 91.7298 1609.35 91.1098C1610.29 89.8498 1612.32 89.3898 1613.38 89.3898C1613.98 89.3998 1615.43 89.7498 1618.46 90.5998L1618.62 90.6398C1619.06 90.7598 1619.38 91.0198 1619.64 91.2198C1619.74 91.2998 1619.92 91.4398 1619.98 91.4598C1620.17 91.4598 1620.47 91.3798 1620.76 91.3098C1620.98 91.2498 1621.22 91.1898 1621.47 91.1398C1621.48 90.5298 1621.71 90.0399 1621.88 89.6898C1621.99 89.4599 1622.08 89.2698 1622.09 89.1098C1622.13 88.7398 1622.03 88.0098 1621.94 87.2898C1621.83 86.4398 1621.71 85.5699 1621.73 84.7999V84.5298C1621.8 81.6698 1621.9 77.3398 1625.7 77.3398C1626.31 77.3398 1626.97 77.4598 1627.72 77.7098L1627.98 77.7999L1628.16 78.0098C1629.14 79.1398 1628.85 81.4698 1628.29 84.8998C1628.08 86.1698 1627.87 87.4798 1627.91 88.1298C1627.92 88.3098 1628.04 88.6298 1628.15 88.9398C1628.26 89.2399 1628.38 89.5898 1628.47 89.9698C1628.58 89.9298 1628.68 89.8798 1628.79 89.8398C1630.78 88.9998 1633.04 88.0499 1635.27 88.0499C1636.62 88.0499 1637.84 88.4099 1638.88 89.1199L1639.56 89.5798L1639.24 90.3298C1637.88 93.5998 1634.62 94.9599 1631.74 96.1599C1631.23 96.3699 1630.73 96.5798 1630.26 96.7898C1630.65 97.4498 1631.06 98.0998 1631.46 98.7398C1633.1 101.37 1634.8 104.09 1635.51 107.23L1635.58 107.52L1635.47 107.8C1634.93 109.22 1633.14 110.74 1631.32 110.75C1631.04 110.75 1630.77 110.71 1630.51 110.64C1629.62 110.38 1629.12 109.62 1628.76 109.06C1628.65 108.89 1628.49 108.65 1628.41 108.58C1628.21 108.41 1627.96 108.25 1627.7 108.08C1627.35 107.86 1626.95 107.61 1626.6 107.27C1626.41 107.09 1626.06 106.69 1625.63 106.2C1625.06 105.55 1623.77 104.07 1622.89 103.31C1622.84 103.56 1622.78 103.81 1622.73 104.05C1622.6 104.61 1622.48 105.14 1622.44 105.62C1622.43 105.74 1622.49 105.96 1622.55 106.18C1622.65 106.55 1622.78 107.02 1622.74 107.56C1622.66 108.74 1621.31 112.75 1620.29 113.72C1619.56 114.42 1618.32 114.89 1617.2 114.89H1617.19Z" fill="#FF92AA"/>
<path d="M53.9801 905.67C51.6201 905.67 49.5601 905.24 48.0301 904.42C46.2101 903.45 44.8801 901.64 44.1901 899.17C42.8201 894.31 44.1201 887.67 46.1101 884.31C48.7201 879.89 56.4501 875.02 60.8601 873.12L61.2201 872.96C63.1601 872.12 64.7001 871.46 66.1201 871.46C68.8001 871.46 69.9501 873.83 70.6601 875.9C71.9201 879.59 73.4501 884.97 72.1201 888.98C72.0901 889.06 69.2001 897.06 67.7401 898.27C67.3901 898.56 67.0001 898.72 66.6901 898.85C66.5501 898.91 66.3301 899 66.2701 899.05C66.1401 899.18 65.9101 899.69 65.7601 900.04C65.4701 900.68 65.1401 901.41 64.6501 901.94C62.5601 904.21 58.3701 905.67 53.9701 905.67H53.9801ZM63.8801 877.38C61.5601 878.22 54.7901 882.72 53.7501 883.78C49.8201 887.78 48.5801 894.81 50.9801 899.47C51.6501 900.77 53.1001 901.05 54.1901 901.05C56.6701 901.05 59.5501 899.61 60.3501 897.98C60.5901 897.49 60.6701 896.74 60.7601 896.01C60.8701 895.01 60.9901 893.98 61.5101 893.19C62.1101 892.29 63.0301 892.02 63.7001 891.82C64.0601 891.71 64.3801 891.62 64.5301 891.47C64.8001 890.87 65.9401 887.78 66.0401 887.38C66.5001 884.92 65.3201 879.89 64.0701 877.8C63.9901 877.66 63.9301 877.52 63.8801 877.39V877.38Z" fill="#FF92AA"/>
<path d="M122.09 930.35C120.96 930.35 120.12 929.78 119.86 928.82C119.13 926.19 120.46 921.61 121.22 919.8C121.44 919.29 121.74 918.86 122.01 918.48C122.33 918.02 122.55 917.7 122.62 917.38C120.02 916.29 117.68 914.61 115.53 912.96L115.27 912.76L115.18 912.45C114.99 911.8 115.11 911.15 115.52 910.6C116.33 909.52 118.07 909.11 118.97 909.11C119.42 909.11 120.27 909.29 123.21 910.12L123.31 910.15C123.71 910.26 123.99 910.49 124.21 910.66C124.28 910.72 124.39 910.81 124.44 910.82C124.51 910.82 124.77 910.74 124.97 910.69C125.11 910.65 125.27 910.61 125.42 910.58C125.46 910.12 125.64 909.74 125.77 909.46C125.85 909.3 125.92 909.14 125.93 909.04C125.96 908.76 125.88 908.14 125.81 907.59C125.72 906.89 125.62 906.17 125.64 905.53V905.31C125.7 902.89 125.79 899.25 129.07 899.25C129.59 899.25 130.15 899.35 130.78 899.56L131.04 899.65L131.22 899.86C132.07 900.85 131.84 902.71 131.37 905.65C131.2 906.68 131.03 907.74 131.06 908.26C131.06 908.38 131.17 908.65 131.24 908.87C131.31 909.07 131.39 909.29 131.46 909.52C131.48 909.52 131.5 909.5 131.53 909.49C133.18 908.8 135.05 908.01 136.9 908.01C138.04 908.01 139.07 908.31 139.96 908.91L140.64 909.37L140.32 910.12C139.18 912.86 136.47 914 134.08 914.99C133.73 915.14 133.39 915.28 133.06 915.42C133.35 915.89 133.64 916.36 133.93 916.84C135.28 919.01 136.68 921.25 137.27 923.84L137.34 924.13L137.23 924.41C136.77 925.63 135.22 926.94 133.66 926.94C133.41 926.94 133.17 926.91 132.95 926.84C132.16 926.61 131.73 925.95 131.42 925.47C131.34 925.35 131.22 925.16 131.17 925.11C131 924.96 130.8 924.84 130.61 924.72C130.32 924.53 129.99 924.32 129.68 924.04C129.52 923.89 129.23 923.56 128.88 923.16C128.46 922.69 127.57 921.66 126.88 921.02C126.86 921.12 126.83 921.23 126.81 921.33C126.71 921.78 126.61 922.21 126.57 922.59C126.57 922.66 126.61 922.85 126.65 922.98C126.74 923.3 126.84 923.69 126.81 924.16C126.74 925.15 125.6 928.5 124.75 929.32C124.12 929.92 123.05 930.33 122.1 930.33L122.09 930.35Z" fill="#FF92AA"/>
</svg>
