<svg xmlns="http://www.w3.org/2000/svg" version="1.1" xmlns:xlink="http://www.w3.org/1999/xlink" width="800" height="200" viewBox="0 0 800 200"><line x1="20" y1="20" x2="780" y2="20" stroke-width="1" stroke="#cccccc"></line><line x1="20" y1="30" x2="780" y2="30" stroke-width="1" stroke="#cccccc"></line><line x1="20" y1="40" x2="780" y2="40" stroke-width="1" stroke="#cccccc"></line><line x1="20" y1="50" x2="780" y2="50" stroke-width="1" stroke="#cccccc"></line><line x1="20" y1="60" x2="780" y2="60" stroke-width="2" stroke="#cccccc"></line><line x1="20" y1="70" x2="780" y2="70" stroke-width="1" stroke="#cccccc"></line><line x1="20" y1="80" x2="780" y2="80" stroke-width="2" stroke="#cccccc"></line><line x1="20" y1="90" x2="780" y2="90" stroke-width="1" stroke="#cccccc"></line><line x1="20" y1="100" x2="780" y2="100" stroke-width="2" stroke="#cccccc"></line><line x1="20" y1="110" x2="780" y2="110" stroke-width="1" stroke="#cccccc"></line><line x1="20" y1="120" x2="780" y2="120" stroke-width="2" stroke="#cccccc"></line><line x1="20" y1="130" x2="780" y2="130" stroke-width="1" stroke="#cccccc"></line><line x1="20" y1="140" x2="780" y2="140" stroke-width="2" stroke="#cccccc"></line><line x1="20" y1="150" x2="780" y2="150" stroke-width="1" stroke="#cccccc"></line><line x1="20" y1="160" x2="780" y2="160" stroke-width="1" stroke="#cccccc"></line><circle r="3" cx="20.48686739269699" cy="20" fill="black"></circle><circle r="3" cx="35.092889173606665" cy="80" fill="black"></circle><circle r="3" cx="49.698910954516336" cy="110" fill="black"></circle><circle r="3" cx="64.30493273542601" cy="130" fill="black"></circle><circle r="3" cx="78.91095451633568" cy="150" fill="black"></circle><circle r="3" cx="93.51697629724536" cy="70" fill="black"></circle><circle r="3" cx="108.12299807815502" cy="80" fill="black"></circle><circle r="3" cx="122.7290198590647" cy="50" fill="black"></circle><circle r="3" cx="137.3350416399744" cy="20" fill="black"></circle><circle r="3" cx="151.94106342088403" cy="70" fill="black"></circle><circle r="3" cx="166.54708520179372" cy="20" fill="black"></circle><circle r="3" cx="181.1531069827034" cy="140" fill="black"></circle><circle r="3" cx="195.75912876361306" cy="160" fill="black"></circle><circle r="3" cx="210.36515054452275" cy="90" fill="black"></circle><circle r="3" cx="224.9711723254324" cy="70" fill="black"></circle><circle r="3" cx="239.5771941063421" cy="160" fill="black"></circle><circle r="3" cx="254.18321588725175" cy="80" fill="black"></circle><circle r="3" cx="268.78923766816143" cy="130" fill="black"></circle><circle r="3" cx="283.3952594490711" cy="60" fill="black"></circle><circle r="3" cx="298.0012812299808" cy="30" fill="black"></circle><circle r="3" cx="312.60730301089046" cy="100" fill="black"></circle><circle r="3" cx="327.2133247918001" cy="80" fill="black"></circle><circle r="3" cx="341.8193465727098" cy="60" fill="black"></circle><circle r="3" cx="356.4253683536195" cy="80" fill="black"></circle><circle r="3" cx="371.03139013452915" cy="100" fill="black"></circle><circle r="3" cx="385.6374119154388" cy="20" fill="black"></circle><circle r="3" cx="400.2434336963485" cy="50" fill="black"></circle><circle r="3" cx="414.8494554772582" cy="70" fill="black"></circle><circle r="3" cx="429.4554772581679" cy="160" fill="black"></circle><circle r="3" cx="444.06149903907755" cy="130" fill="black"></circle><circle r="3" cx="458.6675208199872" cy="110" fill="black"></circle><circle r="3" cx="473.2735426008968" cy="140" fill="black"></circle><circle r="3" cx="487.8795643818065" cy="90" fill="black"></circle><circle r="3" cx="502.4855861627162" cy="130" fill="black"></circle><circle r="3" cx="517.0916079436258" cy="160" fill="black"></circle><circle r="3" cx="531.6976297245355" cy="50" fill="black"></circle><circle r="3" cx="546.3036515054453" cy="140" fill="black"></circle><circle r="3" cx="560.9096732863549" cy="70" fill="black"></circle><circle r="3" cx="575.5156950672646" cy="90" fill="black"></circle><circle r="3" cx="590.1217168481743" cy="160" fill="black"></circle><circle r="3" cx="604.7277386290839" cy="70" fill="black"></circle><circle r="3" cx="619.3337604099936" cy="80" fill="black"></circle><circle r="3" cx="633.9397821909033" cy="150" fill="black"></circle><circle r="3" cx="648.5458039718129" cy="130" fill="black"></circle><circle r="3" cx="663.1518257527226" cy="60" fill="black"></circle><circle r="3" cx="677.7578475336322" cy="80" fill="black"></circle><circle r="3" cx="692.363869314542" cy="160" fill="black"></circle><circle r="3" cx="706.9698910954517" cy="130" fill="black"></circle><circle r="3" cx="721.5759128763613" cy="70" fill="black"></circle><circle r="3" cx="736.181934657271" cy="140" fill="black"></circle><circle r="3" cx="750.7879564381807" cy="160" fill="black"></circle><circle r="3" cx="765.3939782190903" cy="80" fill="black"></circle><circle r="3" cx="780" cy="150" fill="black"></circle></svg>