<svg xmlns="http://www.w3.org/2000/svg" version="1.1" xmlns:xlink="http://www.w3.org/1999/xlink" width="800" height="200" viewBox="0 0 800 200"><line x1="20" y1="20" x2="780" y2="20" stroke-width="1" stroke="#cccccc"></line><line x1="20" y1="30" x2="780" y2="30" stroke-width="1" stroke="#cccccc"></line><line x1="20" y1="40" x2="780" y2="40" stroke-width="1" stroke="#cccccc"></line><line x1="20" y1="50" x2="780" y2="50" stroke-width="1" stroke="#cccccc"></line><line x1="20" y1="60" x2="780" y2="60" stroke-width="2" stroke="#cccccc"></line><line x1="20" y1="70" x2="780" y2="70" stroke-width="1" stroke="#cccccc"></line><line x1="20" y1="80" x2="780" y2="80" stroke-width="2" stroke="#cccccc"></line><line x1="20" y1="90" x2="780" y2="90" stroke-width="1" stroke="#cccccc"></line><line x1="20" y1="100" x2="780" y2="100" stroke-width="2" stroke="#cccccc"></line><line x1="20" y1="110" x2="780" y2="110" stroke-width="1" stroke="#cccccc"></line><line x1="20" y1="120" x2="780" y2="120" stroke-width="2" stroke="#cccccc"></line><line x1="20" y1="130" x2="780" y2="130" stroke-width="1" stroke="#cccccc"></line><line x1="20" y1="140" x2="780" y2="140" stroke-width="2" stroke="#cccccc"></line><line x1="20" y1="150" x2="780" y2="150" stroke-width="1" stroke="#cccccc"></line><line x1="20" y1="160" x2="780" y2="160" stroke-width="1" stroke="#cccccc"></line><circle r="3" cx="21.296928327645052" cy="160" fill="black"></circle><circle r="3" cx="40.750853242320815" cy="130" fill="black"></circle><circle r="3" cx="60.20477815699659" cy="110" fill="black"></circle><circle r="3" cx="79.65870307167236" cy="40" fill="black"></circle><circle r="3" cx="99.11262798634812" cy="150" fill="black"></circle><circle r="3" cx="118.56655290102388" cy="150" fill="black"></circle><circle r="3" cx="138.02047781569968" cy="130" fill="black"></circle><circle r="3" cx="157.47440273037543" cy="110" fill="black"></circle><circle r="3" cx="176.92832764505118" cy="130" fill="black"></circle><circle r="3" cx="196.38225255972696" cy="60" fill="black"></circle><circle r="3" cx="215.83617747440275" cy="150" fill="black"></circle><circle r="3" cx="235.2901023890785" cy="150" fill="black"></circle><circle r="3" cx="254.74402730375425" cy="130" fill="black"></circle><circle r="3" cx="274.19795221843003" cy="110" fill="black"></circle><circle r="3" cx="293.6518771331058" cy="130" fill="black"></circle><circle r="3" cx="313.1058020477816" cy="20" fill="black"></circle><circle r="3" cx="332.5597269624574" cy="40" fill="black"></circle><circle r="3" cx="352.0136518771331" cy="100" fill="black"></circle><circle r="3" cx="371.4675767918089" cy="70" fill="black"></circle><circle r="3" cx="390.9215017064846" cy="40" fill="black"></circle><circle r="3" cx="410.3754266211604" cy="60" fill="black"></circle><circle r="3" cx="429.8293515358362" cy="70" fill="black"></circle><circle r="3" cx="449.2832764505119" cy="110" fill="black"></circle><circle r="3" cx="468.73720136518773" cy="130" fill="black"></circle><circle r="3" cx="488.19112627986345" cy="110" fill="black"></circle><circle r="3" cx="507.64505119453923" cy="130" fill="black"></circle><circle r="3" cx="527.0989761092151" cy="20" fill="black"></circle><circle r="3" cx="546.5529010238907" cy="130" fill="black"></circle><circle r="3" cx="566.0068259385665" cy="20" fill="black"></circle><circle r="3" cx="585.4607508532423" cy="110" fill="black"></circle><circle r="3" cx="604.9146757679181" cy="40" fill="black"></circle><circle r="3" cx="624.3686006825939" cy="130" fill="black"></circle><circle r="3" cx="643.8225255972696" cy="140" fill="black"></circle><circle r="3" cx="663.2764505119454" cy="20" fill="black"></circle><circle r="3" cx="682.7303754266211" cy="140" fill="black"></circle><circle r="3" cx="702.184300341297" cy="30" fill="black"></circle><circle r="3" cx="721.6382252559727" cy="50" fill="black"></circle><circle r="3" cx="741.0921501706484" cy="70" fill="black"></circle><circle r="3" cx="760.5460750853242" cy="20" fill="black"></circle><circle r="3" cx="780" cy="50" fill="black"></circle></svg>