<svg xmlns="http://www.w3.org/2000/svg" version="1.1" xmlns:xlink="http://www.w3.org/1999/xlink" width="800" height="200" viewBox="0 0 800 200"><line x1="20" y1="20" x2="780" y2="20" stroke-width="1" stroke="#cccccc"></line><line x1="20" y1="30" x2="780" y2="30" stroke-width="1" stroke="#cccccc"></line><line x1="20" y1="40" x2="780" y2="40" stroke-width="1" stroke="#cccccc"></line><line x1="20" y1="50" x2="780" y2="50" stroke-width="1" stroke="#cccccc"></line><line x1="20" y1="60" x2="780" y2="60" stroke-width="2" stroke="#cccccc"></line><line x1="20" y1="70" x2="780" y2="70" stroke-width="1" stroke="#cccccc"></line><line x1="20" y1="80" x2="780" y2="80" stroke-width="2" stroke="#cccccc"></line><line x1="20" y1="90" x2="780" y2="90" stroke-width="1" stroke="#cccccc"></line><line x1="20" y1="100" x2="780" y2="100" stroke-width="2" stroke="#cccccc"></line><line x1="20" y1="110" x2="780" y2="110" stroke-width="1" stroke="#cccccc"></line><line x1="20" y1="120" x2="780" y2="120" stroke-width="2" stroke="#cccccc"></line><line x1="20" y1="130" x2="780" y2="130" stroke-width="1" stroke="#cccccc"></line><line x1="20" y1="140" x2="780" y2="140" stroke-width="2" stroke="#cccccc"></line><line x1="20" y1="150" x2="780" y2="150" stroke-width="1" stroke="#cccccc"></line><line x1="20" y1="160" x2="780" y2="160" stroke-width="1" stroke="#cccccc"></line><circle r="3" cx="20.38364462392731" cy="80" fill="black"></circle><circle r="3" cx="31.892983341746593" cy="150" fill="black"></circle><circle r="3" cx="43.402322059565876" cy="130" fill="black"></circle><circle r="3" cx="54.91166077738516" cy="20" fill="black"></circle><circle r="3" cx="66.42099949520444" cy="60" fill="black"></circle><circle r="3" cx="77.93033821302373" cy="40" fill="black"></circle><circle r="3" cx="89.439676930843" cy="20" fill="black"></circle><circle r="3" cx="100.9490156486623" cy="90" fill="black"></circle><circle r="3" cx="112.45835436648157" cy="20" fill="black"></circle><circle r="3" cx="123.96769308430085" cy="90" fill="black"></circle><circle r="3" cx="135.47703180212014" cy="60" fill="black"></circle><circle r="3" cx="146.98637051993944" cy="20" fill="black"></circle><circle r="3" cx="158.4957092377587" cy="40" fill="black"></circle><circle r="3" cx="170.005047955578" cy="60" fill="black"></circle><circle r="3" cx="181.51438667339727" cy="90" fill="black"></circle><circle r="3" cx="193.02372539121657" cy="110" fill="black"></circle><circle r="3" cx="204.53306410903585" cy="40" fill="black"></circle><circle r="3" cx="216.04240282685512" cy="110" fill="black"></circle><circle r="3" cx="227.5517415446744" cy="20" fill="black"></circle><circle r="3" cx="239.0610802624937" cy="20" fill="black"></circle><circle r="3" cx="250.57041898031298" cy="90" fill="black"></circle><circle r="3" cx="262.07975769813225" cy="110" fill="black"></circle><circle r="3" cx="273.58909641595153" cy="60" fill="black"></circle><circle r="3" cx="285.0984351337708" cy="40" fill="black"></circle><circle r="3" cx="296.6077738515901" cy="60" fill="black"></circle><circle r="3" cx="308.1171125694094" cy="20" fill="black"></circle><circle r="3" cx="319.6264512872287" cy="20" fill="black"></circle><circle r="3" cx="331.1357900050479" cy="60" fill="black"></circle><circle r="3" cx="342.64512872286724" cy="90" fill="black"></circle><circle r="3" cx="354.1544674406865" cy="110" fill="black"></circle><circle r="3" cx="365.6638061585058" cy="40" fill="black"></circle><circle r="3" cx="377.17314487632507" cy="130" fill="black"></circle><circle r="3" cx="388.68248359414434" cy="110" fill="black"></circle><circle r="3" cx="400.1918223119636" cy="40" fill="black"></circle><circle r="3" cx="411.7011610297829" cy="20" fill="black"></circle><circle r="3" cx="423.2104997476022" cy="20" fill="black"></circle><circle r="3" cx="434.7198384654215" cy="90" fill="black"></circle><circle r="3" cx="446.2291771832408" cy="40" fill="black"></circle><circle r="3" cx="457.73851590106005" cy="110" fill="black"></circle><circle r="3" cx="469.24785461887933" cy="60" fill="black"></circle><circle r="3" cx="480.7571933366986" cy="90" fill="black"></circle><circle r="3" cx="492.26653205451794" cy="40" fill="black"></circle><circle r="3" cx="503.7758707723372" cy="110" fill="black"></circle><circle r="3" cx="515.2852094901565" cy="20" fill="black"></circle><circle r="3" cx="526.7945482079758" cy="90" fill="black"></circle><circle r="3" cx="538.303886925795" cy="110" fill="black"></circle><circle r="3" cx="549.8132256436144" cy="60" fill="black"></circle><circle r="3" cx="561.3225643614336" cy="110" fill="black"></circle><circle r="3" cx="572.8319030792529" cy="90" fill="black"></circle><circle r="3" cx="584.3412417970721" cy="60" fill="black"></circle><circle r="3" cx="595.8505805148915" cy="100" fill="black"></circle><circle r="3" cx="607.3599192327107" cy="30" fill="black"></circle><circle r="3" cx="618.86925795053" cy="30" fill="black"></circle><circle r="3" cx="630.3785966683494" cy="100" fill="black"></circle><circle r="3" cx="641.8879353861686" cy="100" fill="black"></circle><circle r="3" cx="653.3972741039879" cy="80" fill="black"></circle><circle r="3" cx="664.9066128218071" cy="30" fill="black"></circle><circle r="3" cx="676.4159515396265" cy="30" fill="black"></circle><circle r="3" cx="687.9252902574458" cy="100" fill="black"></circle><circle r="3" cx="699.434628975265" cy="100" fill="black"></circle><circle r="3" cx="710.9439676930843" cy="80" fill="black"></circle><circle r="3" cx="722.4533064109036" cy="100" fill="black"></circle><circle r="3" cx="733.9626451287229" cy="80" fill="black"></circle><circle r="3" cx="745.4719838465421" cy="80" fill="black"></circle><circle r="3" cx="756.9813225643614" cy="100" fill="black"></circle><circle r="3" cx="768.4906612821808" cy="80" fill="black"></circle><circle r="3" cx="780" cy="70" fill="black"></circle></svg>