<svg width="1532" height="111" viewBox="0 0 1532 111" fill="none" xmlns="http://www.w3.org/2000/svg">
<path d="M21.868 29.088C21.868 34.128 16.772 34.38 12.936 34.38C9.1 34.38 4.004 34.128 4.004 29.088C4.004 24.048 9.1 23.796 12.936 23.796C16.772 23.796 21.868 24.048 21.868 29.088ZM17.192 18.112V20.884C14.448 21.388 10.724 21.5 7.084 21.5H2.1V10.02H14.672V12.82H5.292V18.672H7.084C10.528 18.672 13.888 18.616 17.192 18.112ZM21.42 23.656H18.228V9.04H21.42V14.164H24.724V17.076H21.42V23.656ZM18.676 29.088C18.676 27.744 17.696 26.736 14.644 26.624C13.608 26.596 12.264 26.596 11.228 26.624C8.176 26.736 7.196 27.744 7.196 29.088C7.196 30.432 8.176 31.44 11.228 31.552C12.264 31.58 13.608 31.58 14.644 31.552C17.696 31.44 18.676 30.432 18.676 29.088ZM47.2795 27.072H44.0875V9.04H47.2795V27.072ZM47.8395 33.68H30.3395V24.944H33.5875V30.88H47.8395V33.68ZM41.8195 20.436L40.1115 22.928C37.5075 21.836 34.9315 19.82 33.6715 17.552C32.6915 19.82 30.0035 22.228 26.8955 23.712L24.8795 21.416C29.0515 19.596 31.9355 16.236 31.9355 12.288V9.46H35.2395V12.288C35.2395 15.956 38.1795 18.98 41.8195 20.436ZM74.3711 24.272H50.7391V21.472H74.3711V24.272ZM72.2151 33.68H53.7351V26.036H56.9831V30.88H72.2151V33.68ZM71.5431 14.164C71.5431 17.02 69.2471 19.4 64.0951 19.54C63.0591 19.568 62.0511 19.568 61.0151 19.54C55.8631 19.4 53.5671 17.02 53.5671 14.164C53.5671 11.308 55.8631 8.928 61.0151 8.788C62.0511 8.76 63.0591 8.76 64.0951 8.788C69.2471 8.928 71.5431 11.308 71.5431 14.164ZM68.2391 14.164C68.2391 11.56 64.4871 11.56 62.5551 11.56C60.6231 11.56 56.8711 11.56 56.8711 14.164C56.8711 16.768 60.6231 16.768 62.5551 16.768C64.4871 16.768 68.2391 16.768 68.2391 14.164ZM105.105 25.476H94.9414V34.1H91.6374V25.476H81.4734V22.62H105.105V25.476ZM102.613 19.68H84.5254V9.488H87.7174V16.824H102.613V19.68ZM119.821 34.1H116.517V23.796H106.493V20.94H123.125C123.713 18.224 124.105 15.228 124.161 12.82H109.041V9.964H127.465C127.409 13.884 127.045 17.692 126.373 20.94H130.125V23.796H119.821V34.1ZM153.073 27.072H149.881V9.04H153.073V27.072ZM153.633 33.68H136.133V24.944H139.381V30.88H153.633V33.68ZM146.297 16.012C146.297 19.708 143.273 22.62 139.241 22.62C135.209 22.62 132.185 19.708 132.185 16.012C132.185 12.316 135.209 9.404 139.241 9.404C143.273 9.404 146.297 12.316 146.297 16.012ZM143.105 16.012C143.105 13.884 141.537 12.204 139.241 12.204C136.945 12.204 135.377 13.884 135.377 16.012C135.377 18.14 136.945 19.82 139.241 19.82C141.537 19.82 143.105 18.14 143.105 16.012ZM158.604 30.768L156.504 28.5C162.748 25.14 166.304 19.652 166.752 13.996H158.044V11.14H170.112C170.168 20.66 164.932 27.1 158.604 30.768ZM176.972 34.1H173.78V9.04H176.972V18.644H180.556V21.612H176.972V34.1ZM202.664 16.88C202.664 20.94 199.5 23.656 194.964 23.964C194.012 24.02 192.724 24.02 191.772 23.964C187.236 23.656 184.072 20.94 184.072 16.88C184.072 12.82 187.236 10.104 191.772 9.796C192.724 9.74 194.012 9.74 194.964 9.796C199.5 10.104 202.664 12.82 202.664 16.88ZM205.184 31.664H181.552V28.808H186.508V24.412H189.756V28.808H196.98V24.412H200.228V28.808H205.184V31.664ZM199.36 16.88C199.36 14.752 197.792 12.876 194.964 12.652C194.488 12.596 193.928 12.596 193.368 12.596C192.808 12.596 192.248 12.596 191.772 12.652C188.944 12.876 187.376 14.752 187.376 16.88C187.376 19.008 188.944 20.884 191.772 21.108C192.248 21.136 192.808 21.164 193.368 21.164C193.928 21.164 194.488 21.136 194.964 21.108C197.792 20.884 199.36 19.008 199.36 16.88ZM215.335 25.196H212.115C211.695 22.984 212.703 21.5 214.943 20.212C216.763 19.204 218.107 18.14 218.107 16.6C218.107 14.976 216.455 13.688 214.439 13.688C212.367 13.688 210.715 15.144 210.715 16.88H207.383C207.383 13.268 210.547 10.804 214.439 10.804C218.303 10.804 221.467 13.128 221.467 16.488C221.467 19.54 219.675 20.744 216.427 22.704C215.335 23.348 214.971 24.048 215.335 25.196ZM213.991 31.86C212.787 31.86 211.863 30.964 211.863 29.76C211.863 28.556 212.787 27.632 213.991 27.632C215.195 27.632 216.119 28.556 216.119 29.76C216.119 30.964 215.195 31.86 213.991 31.86Z" fill="#6D606B"/>
<rect x="1" y="56" width="1531" height="55" fill="#6D606B"/>
</svg>
