<svg width="1532" height="113" viewBox="0 0 1532 113" fill="none" xmlns="http://www.w3.org/2000/svg">
<path d="M24.332 26.316H0.7V23.628H10.836V22.284C6.412 22.06 4.06 20.912 4.06 18.896C4.06 16.656 7.028 15.48 12.516 15.48C18.004 15.48 20.972 16.656 20.972 18.896C20.972 20.912 18.592 22.06 14.196 22.284V23.628H24.332V26.316ZM21.336 34.24H18.144V30.264H3.304V27.576H21.336V34.24ZM22.596 14.808H2.436V12.064H22.596V14.808ZM18.116 11.14H6.916V8.284H18.116V11.14ZM17.668 18.896C17.668 18.252 16.296 18.056 12.516 18.056C8.736 18.056 7.364 18.252 7.364 18.896C7.364 19.54 8.736 19.736 12.516 19.736C16.296 19.736 17.668 19.54 17.668 18.896ZM46.9995 34.1H43.8075V9.04H46.9995V34.1ZM42.2395 27.1L40.3635 29.536C37.5075 27.912 34.9875 25.392 33.5595 22.62C32.4115 25.392 29.7235 28.192 26.5035 30.208L24.3475 27.94C28.4915 25.504 31.8235 21.36 31.8235 16.096V10.58H35.1275V16.152C35.1275 21.136 38.4595 25.112 42.2395 27.1ZM70.7339 15.816C70.7339 19.372 67.8499 22.228 63.8179 22.228C59.7859 22.228 56.9019 19.372 56.9019 15.816C56.9019 12.26 59.7859 9.404 63.8179 9.404C67.8499 9.404 70.7339 12.26 70.7339 15.816ZM77.1179 34.24H73.9259V27.492H59.8419V24.692H77.1179V34.24ZM77.1739 23.572H73.9819V9.04H77.1739V14.304H80.4779V17.216H77.1739V23.572ZM67.5419 15.816C67.5419 13.828 66.1139 12.204 63.8179 12.204C61.5219 12.204 60.0939 13.828 60.0939 15.816C60.0939 17.804 61.5219 19.428 63.8179 19.428C66.1139 19.428 67.5419 17.804 67.5419 15.816ZM105.105 31.888H81.4734V29.032H91.6094V24.496H84.5254V10.412H87.7174V14.5H98.8614V10.412H102.053V24.496H94.9694V29.032H105.105V31.888ZM98.8614 21.64V17.3H87.7174V21.64H98.8614ZM128.56 25.756V28.556C125.256 29.032 120.608 29.172 117.08 29.172H112.264V26.316H115.344L115.26 13.968H112.88V11.14H127.468V13.968H125.032L124.92 26.092C126.208 26.008 127.44 25.896 128.56 25.756ZM132.648 34.1H129.456V9.04H132.648V18.364H136.232V21.332H132.648V34.1ZM121.784 26.26L121.868 13.968H118.424L118.48 26.316C119.544 26.316 120.664 26.288 121.784 26.26ZM158.759 21.612H155.567V9.04H158.759V21.612ZM151.843 15.172C151.843 18.476 148.903 21.108 144.955 21.108C141.007 21.108 138.067 18.476 138.067 15.172C138.067 11.868 141.007 9.236 144.955 9.236C148.903 9.236 151.843 11.868 151.843 15.172ZM148.651 15.172C148.651 13.38 147.167 11.924 144.955 11.924C142.743 11.924 141.259 13.38 141.259 15.172C141.259 16.964 142.743 18.42 144.955 18.42C147.167 18.42 148.651 16.964 148.651 15.172ZM159.263 33.82H141.707V26.96H155.511V25.42H141.707V22.732H158.703V29.48H144.899V31.104H159.263V33.82ZM177.09 31.496V34.324C172.75 33.876 169.054 30.656 169.054 23.376V19.596C169.054 12.344 172.75 9.096 177.09 8.648V11.504C174.626 11.84 172.414 14.248 172.414 19.512V23.516C172.414 28.752 174.626 31.16 177.09 31.496ZM191.952 26.344C191.952 24.916 191.392 23.768 187.584 22.984L185.764 22.592C181.788 21.752 179.856 19.876 179.856 16.852C179.856 13.184 182.88 10.804 187.304 10.804H187.332C191.644 10.804 194.836 13.492 195.144 17.748H191.784C191.448 15.144 189.712 13.688 187.108 13.688H187.08C184.924 13.688 183.384 14.976 183.384 16.6C183.384 18.084 184.364 18.98 186.996 19.54L188.844 19.932C193.576 20.912 195.508 22.704 195.508 26.036C195.508 29.508 192.232 32.168 187.528 32.168H187.472C183.384 32.168 179.548 29.62 179.212 25.084H182.544C182.908 27.604 184.952 29.312 187.724 29.312H187.752C190.328 29.312 191.952 27.968 191.952 26.344ZM206.373 28.388L212.001 11.252H215.865L208.697 31.72H204.077L196.909 11.252H200.773L206.373 28.388ZM227.555 23.852V20.912H236.011V23.572C235.899 28.948 231.615 32.168 226.687 32.168H226.659C221.675 32.168 217.195 28.948 217.195 22.592V20.436C217.195 14.052 221.675 10.804 226.631 10.804H226.659C231.391 10.804 235.535 13.772 235.983 18.616H232.427C232.035 15.648 229.431 13.828 226.687 13.828H226.659C223.663 13.828 220.835 15.928 220.835 20.016V22.984C220.835 27.072 223.663 29.172 226.659 29.172H226.687C229.655 29.172 232.427 27.24 232.623 23.852H227.555ZM238.486 34.324V31.496C240.95 31.16 243.19 28.752 243.19 23.516V19.512C243.19 14.248 240.95 11.84 238.486 11.504V8.648C242.854 9.096 246.578 12.344 246.578 19.596V23.376C246.578 30.656 242.854 33.876 238.486 34.324ZM278.383 21.808H254.751V19.12H278.383V21.808ZM275.947 33.82H257.747V27.324H272.195V26.008H257.747V23.376H275.387V29.788H260.939V31.16H275.947V33.82ZM275.555 13.296C275.555 17.72 269.843 17.832 266.567 17.832C263.291 17.832 257.579 17.72 257.579 13.296C257.579 8.872 263.291 8.76 266.567 8.76C269.843 8.76 275.555 8.872 275.555 13.296ZM272.251 13.296C272.251 12.26 271.439 11.588 268.107 11.476C267.071 11.448 266.063 11.448 265.027 11.476C261.695 11.588 260.883 12.26 260.883 13.296C260.883 14.332 261.471 15.004 265.027 15.116C266.063 15.144 267.071 15.144 268.107 15.116C271.439 15.004 272.251 14.332 272.251 13.296ZM299.177 21.78H286.773V9.74H289.965V13.072H295.985V9.74H299.177V21.78ZM306.709 33.82H289.433V24.412H306.149V27.184H292.625V31.02H306.709V33.82ZM306.205 23.292H303.013V9.04H306.205V14.164H309.509V17.076H306.205V23.292ZM295.985 18.98V15.816H289.965V18.98H295.985ZM334.137 31.888H310.505V29.032H319.101V20.044H322.461V29.032H334.137V31.888ZM329.881 26.036H326.689C327.669 22.032 328.173 17.3 328.229 13.66H313.053V10.804H331.477C331.477 15.788 331.141 21.584 329.881 26.036ZM362.799 22.732H359.607V9.04H362.799V22.732ZM356.947 30.992L357.087 26.708H351.235L351.403 30.992H356.947ZM363.555 33.792H344.683V30.992H348.183L348.043 26.708H344.991V23.964H363.219V26.708H360.307L360.139 30.992H363.555V33.792ZM357.339 19.316L355.631 21.808C353.027 20.716 350.451 18.868 349.191 16.656C348.211 18.868 345.523 21.108 342.415 22.592L340.399 20.296C344.571 18.476 347.455 15.452 347.455 11.504V9.46H350.759V11.504C350.759 15.116 353.699 17.86 357.339 19.316ZM389.891 31.608H366.259V28.752H389.891V31.608ZM387.371 17.076C387.371 21.22 384.207 24.048 379.671 24.356C378.719 24.412 377.431 24.412 376.479 24.356C371.943 24.048 368.779 21.22 368.779 17.076C368.779 12.932 371.943 10.104 376.479 9.796C377.431 9.74 378.719 9.74 379.671 9.796C384.207 10.104 387.371 12.932 387.371 17.076ZM379.671 21.5C382.499 21.276 384.067 19.288 384.067 17.076C384.067 14.864 382.499 12.876 379.671 12.652C379.195 12.596 378.635 12.596 378.075 12.596C377.515 12.596 376.955 12.596 376.479 12.652C373.651 12.876 372.083 14.864 372.083 17.076C372.083 19.288 373.651 21.276 376.479 21.5C376.955 21.528 377.515 21.556 378.075 21.556C378.635 21.556 379.195 21.528 379.671 21.5ZM412.558 34.1H409.366V9.04H412.558V34.1ZM407.798 27.1L405.922 29.536C403.066 27.912 400.546 25.392 399.118 22.62C397.97 25.392 395.282 28.192 392.062 30.208L389.906 27.94C394.05 25.504 397.382 21.36 397.382 16.096V10.58H400.686V16.152C400.686 21.136 404.018 25.112 407.798 27.1ZM436.738 34.1H433.546V9.04H436.738V17.944H440.322V20.912H436.738V34.1ZM432.51 25.588V28.416C429.374 29.032 425.65 29.172 422.206 29.172H417.698V11.14H430.158V13.996H420.89V26.288H422.206C425.594 26.288 429.15 26.148 432.51 25.588ZM462.877 27.072H459.685V20.352H455.177V22.508H442.885V10.02H455.177V11.98H459.685V9.04H462.877V27.072ZM463.437 33.68H445.937V24.944H449.185V30.88H463.437V33.68ZM451.985 19.708V12.82H446.077V19.708H451.985ZM459.685 17.552V14.78H455.177V17.552H459.685ZM471.013 36.508H467.737V28.052H471.013V36.508ZM500.796 34.1H497.604V9.04H500.796V34.1ZM487.104 30.404C482.792 30.404 480.524 26.932 480.328 22.396C480.272 21.136 480.272 19.568 480.328 18.308C480.524 13.772 482.792 10.3 487.104 10.3C491.416 10.3 493.684 13.772 493.88 18.308C493.936 19.568 493.936 21.136 493.88 22.396C493.684 26.932 491.416 30.404 487.104 30.404ZM487.104 27.548C489.092 27.548 490.52 25.868 490.688 22.396C490.744 21.136 490.744 19.568 490.688 18.308C490.52 14.836 489.092 13.156 487.104 13.156C485.116 13.156 483.688 14.836 483.52 18.308C483.464 19.568 483.464 21.136 483.52 22.396C483.688 25.868 485.116 27.548 487.104 27.548ZM521.756 32.924H518.676V21.108H515.988V29.228H505.992V11.252H515.988V18.196H518.676V9.46H521.756V32.924ZM526.46 34.1H523.324V9.04H526.46V34.1ZM512.908 26.372V14.108H509.072V26.372H512.908ZM551.087 21.612H547.895V9.04H551.087V21.612ZM544.171 15.172C544.171 18.476 541.231 21.108 537.283 21.108C533.335 21.108 530.395 18.476 530.395 15.172C530.395 11.868 533.335 9.236 537.283 9.236C541.231 9.236 544.171 11.868 544.171 15.172ZM540.979 15.172C540.979 13.38 539.495 11.924 537.283 11.924C535.071 11.924 533.587 13.38 533.587 15.172C533.587 16.964 535.071 18.42 537.283 18.42C539.495 18.42 540.979 16.964 540.979 15.172ZM551.591 33.82H534.035V26.96H547.839V25.42H534.035V22.732H551.031V29.48H537.227V31.104H551.591V33.82ZM583.194 18.756L581.402 21.332C577.622 20.52 573.898 18.504 572.106 16.04C570.314 18.504 566.59 20.52 562.81 21.332L561.018 18.756C565.694 17.748 569.586 15.396 570.342 12.764H562.95V9.908H581.262V12.764H573.87C574.626 15.396 578.49 17.748 583.194 18.756ZM583.922 26.036H573.758V34.1H570.454V26.036H560.29V23.18H583.922V26.036ZM608.157 21.836L606.365 24.356C602.473 23.04 598.973 20.688 597.125 17.692C595.277 20.688 591.777 23.04 587.885 24.356L586.093 21.836C591.217 20.296 595.501 16.6 595.501 12.652V10.132H598.749V12.652C598.749 16.6 603.033 20.296 608.157 21.836ZM608.941 31.888H585.309V29.032H595.445V23.656H598.805V29.032H608.941V31.888ZM631.525 33.82H613.325V27.772H627.773V26.736H613.325V24.16H630.965V30.124H616.517V31.216H631.525V33.82ZM631.385 19.092H613.325V13.1H627.633V12.12H613.325V9.544H630.825V15.452H616.517V16.488H631.385V19.092ZM633.961 22.872H610.329V20.296H633.961V22.872ZM661.727 33.82H645.011V23.684H661.727V33.82ZM657.555 17.328V20.1C654.811 20.604 651.087 20.716 647.447 20.716H642.575V9.6H645.767V17.888H647.447C650.891 17.888 654.251 17.832 657.555 17.328ZM661.783 22.564H658.591V9.04H661.783V13.184H665.087V16.096H661.783V22.564ZM658.535 31.02V26.456H648.203V31.02H658.535ZM687.363 34.1H684.171V25.532H679.915V22.676H684.171V18.196H680.475V15.34H684.171V9.04H687.363V34.1ZM668.435 30.768L666.335 28.5C672.579 25.084 675.995 19.652 676.443 13.996H667.875V11.14H679.803C679.859 20.66 674.763 27.1 668.435 30.768ZM714.006 18.756L712.214 21.332C708.434 20.52 704.71 18.504 702.918 16.04C701.126 18.504 697.402 20.52 693.622 21.332L691.83 18.756C696.506 17.748 700.398 15.396 701.154 12.764H693.762V9.908H712.074V12.764H704.682C705.438 15.396 709.302 17.748 714.006 18.756ZM714.734 26.036H704.57V34.1H701.266V26.036H691.102V23.18H714.734V26.036ZM729.646 27.324L727.826 29.536C725.446 27.744 723.542 25.392 722.702 22.956C721.862 25.56 719.734 28.192 717.046 30.292L714.806 28.164C718.334 25.672 721.022 21.304 721.022 16.18V10.692H724.27V16.18C724.27 21.08 726.79 25.28 729.646 27.324ZM733.734 33.064H730.654V19.82H726.986V16.852H730.654V9.32H733.734V33.064ZM738.326 34.1H735.19V9.04H738.326V34.1ZM762.253 16.88C762.253 20.94 759.089 23.656 754.553 23.964C753.601 24.02 752.313 24.02 751.361 23.964C746.825 23.656 743.661 20.94 743.661 16.88C743.661 12.82 746.825 10.104 751.361 9.796C752.313 9.74 753.601 9.74 754.553 9.796C759.089 10.104 762.253 12.82 762.253 16.88ZM764.773 31.664H741.141V28.808H746.097V24.412H749.345V28.808H756.569V24.412H759.817V28.808H764.773V31.664ZM758.949 16.88C758.949 14.752 757.381 12.876 754.553 12.652C754.077 12.596 753.517 12.596 752.957 12.596C752.397 12.596 751.837 12.596 751.361 12.652C748.533 12.876 746.965 14.752 746.965 16.88C746.965 19.008 748.533 20.884 751.361 21.108C751.837 21.136 752.397 21.164 752.957 21.164C753.517 21.164 754.077 21.136 754.553 21.108C757.381 20.884 758.949 19.008 758.949 16.88ZM769.409 31.86C768.205 31.86 767.281 30.964 767.281 29.76C767.281 28.556 768.205 27.632 769.409 27.632C770.613 27.632 771.537 28.556 771.537 29.76C771.537 30.964 770.613 31.86 769.409 31.86Z" fill="#6D606B"/>
<rect x="1" y="58" width="1531" height="55" fill="#6D606B"/>
</svg>
