<svg width="751" height="229" viewBox="0 0 751 229" fill="none" xmlns="http://www.w3.org/2000/svg">
<path d="M14.44 18.04H12.76V0.219956H14.44V7.29996H17V8.81996H14.44V18.04ZM11.96 13.14V14.54C10.1 14.92 7.70003 15.04 5.16003 15.04H2.93404e-05V13.6H3.58003V7.17996H5.26003V13.6C7.64003 13.6 10.16 13.48 11.96 13.14ZM9.46003 11.1H7.82003C8.24003 8.95996 8.52003 5.29996 8.52003 3.01996H0.660029V1.57995H10.24C10.2 4.55996 9.92003 8.63996 9.46003 11.1ZM32.7311 18.04H31.0511V9.13996H27.2711V7.65996H31.0511V0.219956H32.7311V18.04ZM19.2111 15.6L18.1311 14.44C22.6511 11.8 25.3111 7.51996 25.6311 3.19996H19.0511V1.75995H27.4311C27.3911 8.19996 23.6111 12.96 19.2111 15.6ZM48.5222 12.94V14.34C46.6622 14.72 44.3022 14.84 41.7622 14.84H36.1422V13.4H41.7622C44.1822 13.4 46.7022 13.28 48.5222 12.94ZM51.0022 18.04H49.3222V0.219956H51.0022V18.04ZM46.9022 5.79996C46.9022 8.39996 44.7622 10.5 41.9622 10.5C39.1622 10.5 37.0222 8.39996 37.0222 5.79996C37.0222 3.19996 39.1622 1.09996 41.9622 1.09996C44.7622 1.09996 46.9022 3.19996 46.9022 5.79996ZM41.9622 9.05996C43.9822 9.05996 45.2222 7.55996 45.2222 5.79996C45.2222 4.01996 43.9822 2.53996 41.9622 2.53996C39.9422 2.53996 38.7022 4.01996 38.7022 5.79996C38.7022 7.55996 39.9422 9.05996 41.9622 9.05996ZM72.5339 14.64C72.5339 16.58 70.9539 18.12 67.4139 18.22C66.6739 18.24 65.8739 18.24 65.1339 18.22C61.5939 18.12 60.0139 16.58 60.0139 14.64C60.0139 12.7 61.5939 11.16 65.1339 11.06C65.8739 11.04 66.6739 11.04 67.4139 11.06C70.9539 11.16 72.5339 12.7 72.5339 14.64ZM68.8739 8.21996L67.9939 9.49996C66.0739 8.75996 64.0739 7.27996 63.1539 5.63996C62.3939 7.27996 60.3939 8.99996 58.1739 10.06L57.1139 8.83996C59.8739 7.59996 62.2339 5.31996 62.2339 2.63996V2.37996H58.2339V0.959956H68.0939V2.37996H63.9939V2.61996C63.9939 5.23996 66.3939 7.27996 68.8739 8.21996ZM70.8539 14.64C70.8539 12.48 67.8739 12.44 66.2739 12.44C64.6739 12.44 61.6939 12.48 61.6939 14.64C61.6939 16.8 64.6739 16.84 66.2739 16.84C67.8739 16.84 70.8539 16.8 70.8539 14.64ZM72.2139 10.62H70.5339V0.219956H72.2139V4.13996H74.6539V5.61996H72.2139V10.62ZM90.685 13.04H89.005V7.77996H85.225V9.59996H76.645V0.959956H85.225V2.55996H89.005V0.219956H90.685V13.04ZM83.545 8.15996V2.39996H78.325V8.15996H83.545ZM91.085 17.74H78.825V11.54H80.525V16.3H91.085V17.74ZM89.005 6.35996V3.97995H85.225V6.35996H89.005ZM108.296 17.84H95.5361V13.54H106.216V12.08H95.5361V10.7H107.896V14.88H97.2161V16.44H108.296V17.84ZM110.116 9.07996H93.3161V7.69996H110.116V9.07996ZM108.096 6.17996H95.5361V0.739955H107.896V2.11996H97.2161V4.79996H108.096V6.17996ZM127.987 10.72H111.187V9.29996H127.987V10.72ZM126.367 17.74H113.407V12.32H115.107V16.3H126.367V17.74ZM126.207 3.85996C126.207 5.89996 124.367 7.47996 120.827 7.57996C120.087 7.59996 119.087 7.59996 118.347 7.57996C114.807 7.47996 112.967 5.89996 112.967 3.85996C112.967 1.81996 114.807 0.239955 118.347 0.139956C119.087 0.119956 120.087 0.119956 120.827 0.139956C124.367 0.239955 126.207 1.81996 126.207 3.85996ZM124.527 3.85996C124.527 2.71996 123.447 1.61996 120.827 1.53996C120.087 1.51996 119.087 1.51996 118.347 1.53996C115.727 1.61996 114.647 2.71996 114.647 3.85996C114.647 4.99995 115.727 6.09996 118.347 6.17996C119.087 6.19995 120.087 6.19995 120.827 6.17996C123.447 6.09996 124.527 4.99995 124.527 3.85996ZM147.639 18.04H145.959V0.219956H147.639V7.03996H150.279V8.55996H147.639V18.04ZM141.059 13V3.19996H135.879V13H141.059ZM142.739 14.44H134.199V1.75995H142.739V14.44ZM162.91 13.9L161.95 15.14C160.01 14.16 157.91 12.22 156.89 10.32C156.07 12.26 153.93 14.4 151.73 15.62L150.59 14.44C153.49 12.86 155.97 9.97996 155.97 7.11996V5.71996H151.71V4.27996H162.01V5.71996H157.73V7.15996C157.73 9.93996 160.37 12.62 162.91 13.9ZM166.11 18.04H164.43V0.219956H166.11V18.04ZM159.81 2.45996H154.05V1.01995H159.81V2.45996ZM189.882 16.26H173.082V14.82H180.622V10.86C180.542 10.86 180.482 10.84 180.422 10.84C177.122 10.62 174.922 8.59996 174.922 5.83996C174.922 3.07996 177.122 1.05996 180.422 0.839955C181.102 0.799955 181.862 0.799955 182.542 0.839955C185.782 1.05996 188.042 3.07996 188.042 5.83996C188.042 8.59996 185.782 10.62 182.542 10.84C182.462 10.84 182.402 10.86 182.342 10.86V14.82H189.882V16.26ZM186.402 5.83996C186.402 4.03996 184.962 2.43996 182.542 2.27996C181.862 2.23996 181.102 2.23996 180.422 2.27996C178.002 2.43996 176.562 4.03996 176.562 5.83996C176.562 7.63996 178.002 9.23996 180.422 9.39996C181.102 9.43996 181.862 9.43996 182.542 9.39996C184.962 9.23996 186.402 7.63996 186.402 5.83996ZM206.453 18.04H204.793V8.77996H202.593V17.3H200.953V0.419955H202.593V7.21996H204.793V0.219956H206.453V18.04ZM200.053 13V14.42C198.473 14.58 196.353 14.66 194.813 14.66H192.073V7.29996H197.233V3.05995H192.073V1.63996H198.853V8.69996H193.673V13.22H194.813C196.333 13.22 198.433 13.18 200.053 13ZM221.784 9.21996V10.6C219.904 10.94 217.344 11.04 214.804 11.04H209.404V9.61996H214.724V7.21996H210.824V0.899955H219.844V2.31995H212.504V5.79996H220.244V7.21996H216.444V9.61996C218.364 9.57996 220.324 9.47996 221.784 9.21996ZM224.664 17.74H212.204V12.56H213.904V16.3H224.664V17.74ZM224.264 13.78H222.584V0.219956H224.264V13.78ZM240.916 4.95996C240.916 7.47996 238.936 9.39996 236.076 9.39996C233.216 9.39996 231.236 7.47996 231.236 4.95996C231.236 2.43996 233.216 0.519955 236.076 0.519955C238.936 0.519955 240.916 2.43996 240.916 4.95996ZM239.236 4.95996C239.236 3.23995 238.056 1.95996 236.076 1.95996C234.096 1.95996 232.916 3.23995 232.916 4.95996C232.916 6.67996 234.096 7.95996 236.076 7.95996C238.056 7.95996 239.236 6.67996 239.236 4.95996ZM245.476 10.56H243.796V0.219956H245.476V4.23996H247.916V5.71996H245.476V10.56ZM245.436 18.14H243.756V12.88H233.336V11.44H245.436V18.14ZM265.507 16.26H248.707V14.82H256.247V11.02H250.967V1.23996H252.647V4.57996H261.567V1.23996H263.247V11.02H257.967V14.82H265.507V16.26ZM261.567 9.57996V5.99996H252.647V9.57996H261.567ZM278.338 13.9L277.378 15.14C275.438 14.16 273.378 12.22 272.358 10.32C271.538 12.26 269.438 14.4 267.238 15.62L266.098 14.44C268.998 12.86 271.438 9.97996 271.438 7.11996V5.71996H267.218V4.27996H277.438V5.71996H273.198V7.15996C273.198 9.93996 275.798 12.62 278.338 13.9ZM281.618 18.04H279.938V9.47996H276.398V7.99996H279.938V0.219956H281.618V18.04ZM275.238 2.45996H269.558V1.01995H275.238V2.45996ZM299.649 17.84H287.749V11.24H299.649V17.84ZM296.409 7.75996V9.15996C294.389 9.45996 291.989 9.47996 289.449 9.47996H285.649V4.39996H292.029V2.25996H285.649V0.839955H293.709V5.77996H287.329V8.03996H289.449C291.929 8.03996 294.269 8.01996 296.409 7.75996ZM297.969 16.44V12.64H289.429V16.44H297.969ZM299.689 10.36H298.009V5.29996H294.589V3.85996H298.009V0.219956H299.689V10.36ZM304.96 19.68H303.2V13.94H304.96V19.68ZM326.13 18.04H324.45V0.219956H326.13V18.04ZM322.67 13.38L321.71 14.62C319.59 13.46 317.51 11.34 316.63 9.31996C315.83 11.44 313.79 13.66 311.43 15.1L310.31 13.94C313.23 12.3 315.71 9.17996 315.71 5.39996V1.35996H317.47V5.43996C317.47 9.21996 320.11 12.02 322.67 13.38ZM344.201 17.74H331.941V11.54H333.641V16.3H344.201V17.74ZM343.601 13.04H341.921V0.219956H343.601V4.79996H346.041V6.27996H343.601V13.04ZM329.881 10.66L328.941 9.39996C333.461 8.07996 336.381 5.39996 336.901 2.39996H330.161V0.959956H338.821C338.621 6.19995 334.261 9.31996 329.881 10.66ZM361.872 18.04H360.192V0.219956H361.872V18.04ZM352.132 15.24C349.252 15.24 347.732 12.8 347.592 9.55996C347.552 8.65996 347.552 7.73996 347.592 6.83996C347.732 3.59996 349.252 1.15996 352.132 1.15996C355.012 1.15996 356.532 3.59996 356.672 6.83996C356.712 7.73996 356.712 8.65996 356.672 9.55996C356.532 12.8 355.012 15.24 352.132 15.24ZM352.132 13.8C353.952 13.8 354.912 12.04 355.032 9.55996C355.072 8.65996 355.072 7.73996 355.032 6.83996C354.912 4.35996 353.952 2.59995 352.132 2.59995C350.312 2.59995 349.352 4.35996 349.232 6.83996C349.192 7.73996 349.192 8.65996 349.232 9.55996C349.352 12.04 350.312 13.8 352.132 13.8ZM383.823 17.84H371.063V13.98H381.743V12.92H371.063V11.58H383.423V15.28H372.743V16.48H383.823V17.84ZM383.063 6.05996C383.063 7.39996 381.623 7.97996 378.483 8.07996C377.743 8.09996 376.743 8.09996 376.003 8.07996C372.863 7.97996 371.423 7.39996 371.423 6.05996C371.423 4.71995 372.863 4.13996 376.003 4.03996C376.743 4.01996 377.743 4.01996 378.483 4.03996C381.623 4.13996 383.063 4.71995 383.063 6.05996ZM385.643 10.4H368.843V9.05996H385.643V10.4ZM384.323 3.43996H370.163V2.11996H384.323V3.43996ZM380.763 1.33996H373.723V-4.50611e-05H380.763V1.33996ZM381.383 6.05996C381.383 5.57996 380.703 5.37996 378.483 5.29996C377.743 5.27996 376.743 5.27996 376.003 5.29996C373.783 5.37996 373.103 5.57996 373.103 6.05996C373.103 6.53996 373.783 6.73996 376.003 6.81996C376.743 6.83996 377.743 6.83996 378.483 6.81996C380.703 6.73996 381.383 6.53996 381.383 6.05996ZM398.475 12.8V14.2C396.315 14.58 393.755 14.64 391.275 14.64H387.915V7.21996H394.175V2.97996H387.915V1.55996H395.855V8.61996H389.595V13.2H391.275C393.755 13.2 396.195 13.14 398.475 12.8ZM401.755 18.04H400.075V8.39996H396.735V6.91996H400.075V0.219956H401.755V18.04ZM421.386 16.26H404.586V14.82H412.346V10.42H406.846V1.43996H419.226V2.87995H408.526V8.97996H419.526V10.42H414.066V14.82H421.386V16.26ZM443.397 16.06H426.597V14.62H443.397V16.06ZM442.037 5.09996H427.957V3.67996H442.037V5.09996ZM438.677 2.23996H431.317V0.799955H438.677V2.23996ZM440.757 9.25996C440.757 11.1 439.077 12.34 436.057 12.46C435.717 12.46 435.357 12.48 434.997 12.48C434.637 12.48 434.277 12.46 433.937 12.46C430.917 12.34 429.237 11.1 429.237 9.25996C429.237 7.41996 430.917 6.17996 433.937 6.05996C434.277 6.03996 434.637 6.03996 434.997 6.03996C435.357 6.03996 435.717 6.03996 436.057 6.05996C439.077 6.17996 440.757 7.41996 440.757 9.25996ZM439.117 9.25996C439.117 7.53996 436.317 7.37996 434.997 7.37996C433.677 7.37996 430.877 7.53996 430.877 9.25996C430.877 10.98 433.677 11.12 434.997 11.12C436.317 11.12 439.117 10.98 439.117 9.25996ZM459.708 12.36H458.028V0.219956H459.708V12.36ZM456.928 8.07996V9.47996C454.908 9.77996 452.008 9.79996 449.468 9.79996H445.668V4.55996H452.768V2.25996H445.668V0.839955H454.448V5.93996H447.348V8.35996H449.468C451.948 8.35996 454.788 8.33996 456.928 8.07996ZM460.548 16.72L459.808 18.02C457.228 17.38 454.628 15.88 453.548 13.96C452.468 15.88 449.868 17.38 447.288 18.02L446.548 16.72C449.588 16.02 452.668 13.96 452.668 11.72V11.14H454.428V11.72C454.428 13.96 457.508 16.02 460.548 16.72ZM472.42 11.24C472.42 13.64 470.64 15.68 467.94 15.68C465.24 15.68 463.46 13.64 463.46 11.24C463.46 8.83996 465.24 6.79996 467.94 6.79996C470.64 6.79996 472.42 8.83996 472.42 11.24ZM476.78 18.04H475.1V0.219956H476.78V8.15996H479.42V9.67996H476.78V18.04ZM473.34 5.55996H462.54V4.11996H473.34V5.55996ZM470.66 2.47996H465.22V1.03996H470.66V2.47996ZM467.94 14.28C469.76 14.28 470.74 12.94 470.74 11.24C470.74 9.53996 469.76 8.19996 467.94 8.19996C466.12 8.19996 465.14 9.53996 465.14 11.24C465.14 12.94 466.12 14.28 467.94 14.28ZM481.211 15.56L480.051 14.48C483.851 11.74 486.111 7.49996 486.411 3.27996H481.091V1.83996H488.171C488.171 8.01996 485.091 12.62 481.211 15.56ZM492.291 17.3H490.651V8.93996H488.011V7.45996H490.651V0.419955H492.291V17.3ZM495.591 18.04H493.931V0.219956H495.591V18.04ZM512.522 18.04H510.842V0.219956H512.522V6.53996H515.162V8.05996H512.522V18.04ZM509.842 12.48V13.9C507.682 14.28 504.622 14.34 502.142 14.34H499.242V1.45996H500.922V12.88H502.142C504.622 12.88 507.562 12.82 509.842 12.48ZM530.393 18.04H528.713V0.219956H530.393V7.03996H533.033V8.55996H530.393V18.04ZM523.813 13V3.19996H518.633V13H523.813ZM525.493 14.44H516.953V1.75995H525.493V14.44ZM554.765 15.96H537.965V14.52H549.345C550.165 11.34 550.785 6.23996 550.905 2.95995H539.865V1.51996H552.625C552.505 5.71996 551.885 11.08 551.045 14.52H554.765V15.96ZM571.476 13.5L570.516 14.74C568.396 13.58 566.356 11.54 565.476 9.51996C564.636 11.7 562.716 13.74 560.316 15.22L559.196 14.06C562.036 12.38 564.556 9.29996 564.556 5.51996V3.19996H560.556V1.75995H570.416V3.19996H566.316V5.55996C566.316 9.33996 568.876 12.14 571.476 13.5ZM574.396 18.04H572.716V0.219956H574.396V7.13996H577.056V8.65996H574.396V18.04ZM592.887 18.04H591.207V0.219956H592.887V18.04ZM590.107 12.8V14.2C587.947 14.58 584.887 14.64 582.407 14.64H579.047V7.21996H586.027V2.97996H579.047V1.55996H587.707V8.61996H580.727V13.2H582.407C584.887 13.2 587.827 13.14 590.107 12.8ZM610.698 17.84H597.938V13.8H608.618V12.58H597.938V11.22H610.298V15.12H599.618V16.46H610.698V17.84ZM610.598 7.17996H597.938V3.21996H608.518V1.97996H597.938V0.619955H610.198V4.53995H599.618V5.79996H610.598V7.17996ZM612.518 9.83996H595.718V8.47996H612.518V9.83996ZM629.51 13.5L628.55 14.74C626.43 13.58 624.35 11.5 623.47 9.47996C622.63 11.66 620.67 13.74 618.29 15.22L617.15 14.04C619.99 12.38 622.55 9.29996 622.55 5.51996V3.19996H618.51V1.75995H628.45V3.19996H624.31V5.55996C624.31 9.33996 626.91 12.14 629.51 13.5ZM632.77 18.04H631.09V0.219956H632.77V18.04ZM637.121 15.6L636.041 14.44C639.321 12.9 641.481 10.72 642.661 8.23996C641.501 8.39996 640.081 8.41996 638.801 8.41996H636.561V6.99996H638.741C640.261 6.99996 641.961 6.93996 643.241 6.77996C643.621 5.63996 643.801 4.43995 643.821 3.19996H637.081V1.75995H645.621C645.821 8.27996 642.201 13.12 637.121 15.6ZM650.641 18.04H648.961V0.219956H650.641V18.04ZM670.272 16.26H653.472V14.82H659.892V8.09996H661.612V14.82H670.272V16.26ZM667.112 12.26H665.472C666.212 9.45996 666.532 5.63996 666.572 2.95995H655.372V1.51996H668.292C668.292 4.91996 667.932 9.29996 667.112 12.26ZM690.724 10.16H689.044V0.219956H690.724V10.16ZM692.264 16.96L691.304 18.08C689.724 17.22 688.284 15.82 687.784 14.5C687.164 15.94 685.804 17.3 684.484 18.08C683.164 17.3 681.804 15.94 681.184 14.5C680.684 15.82 679.244 17.22 677.664 18.08L676.704 16.96C678.644 16.02 680.364 14.02 680.364 12.14V11.04H682.004V12.14C682.004 13.66 683.364 15.62 684.484 16.36C685.604 15.62 686.964 13.66 686.964 12.14V11.04H688.604V12.14C688.604 14.02 690.324 16.02 692.264 16.96ZM685.884 4.99995C685.884 7.45996 683.884 9.47996 680.984 9.47996C678.084 9.47996 676.084 7.45996 676.084 4.99995C676.084 2.53996 678.084 0.519955 680.984 0.519955C683.884 0.519955 685.884 2.53996 685.884 4.99995ZM684.204 4.99995C684.204 3.31996 683.004 1.95996 680.984 1.95996C678.964 1.95996 677.764 3.31996 677.764 4.99995C677.764 6.63996 678.964 8.03996 680.984 8.03996C683.004 8.03996 684.204 6.63996 684.204 4.99995ZM706.255 16.42V14.28H697.255V16.42H706.255ZM707.935 17.82H695.575V10.9H697.255V12.92H706.255V10.9H707.935V17.82ZM710.155 9.55996H693.355V8.15996H710.155V9.55996ZM709.215 5.57996L708.355 6.87996C705.775 6.37996 702.955 4.97996 701.755 3.21996C700.555 4.97996 697.735 6.37996 695.155 6.87996L694.295 5.57996C697.615 4.89996 700.895 3.01996 700.895 1.05996V0.339955H702.615V1.05996C702.615 3.01996 705.895 4.89996 709.215 5.57996ZM726.266 18.04H724.586V0.219956H726.266V18.04ZM723.486 12.48V13.9C721.326 14.28 718.266 14.34 715.786 14.34H712.586V1.45996H714.266V12.88H715.786C718.266 12.88 721.206 12.82 723.486 12.48ZM743.537 18.04H741.857V0.219956H743.537V6.83996H746.177V8.35996H743.537V18.04ZM740.857 12.38V13.8C738.697 14.28 735.637 14.44 733.157 14.44H730.177V1.75995H738.817V3.19996H731.857V12.98H733.157C735.637 12.98 738.577 12.82 740.857 12.38ZM749.128 16.54C748.448 16.54 747.908 16 747.908 15.32C747.908 14.64 748.448 14.1 749.128 14.1C749.808 14.1 750.348 14.64 750.348 15.32C750.348 16 749.808 16.54 749.128 16.54ZM234.11 45.96H217.31V44.52H228.69C229.51 41.34 230.13 36.24 230.25 32.96H219.21V31.52H231.97C231.85 35.72 231.23 41.08 230.39 44.52H234.11V45.96ZM254.322 47.84H242.222V43.1H252.242V41.24H242.222V39.84H253.922V44.46H243.902V46.42H254.322V47.84ZM253.962 38.96H252.282V30.22H253.962V33.12H256.402V34.56H253.962V38.96ZM251.282 35.96V37.36C249.262 37.76 246.362 37.88 243.822 37.88H240.482V30.66H242.162V36.44H243.822C246.302 36.44 249.142 36.32 251.282 35.96ZM270.153 42.94V44.34C268.293 44.72 265.933 44.84 263.393 44.84H257.773V43.4H263.393C265.813 43.4 268.333 43.28 270.153 42.94ZM272.633 48.04H270.953V30.22H272.633V48.04ZM268.533 35.8C268.533 38.4 266.393 40.5 263.593 40.5C260.793 40.5 258.653 38.4 258.653 35.8C258.653 33.2 260.793 31.1 263.593 31.1C266.393 31.1 268.533 33.2 268.533 35.8ZM263.593 39.06C265.613 39.06 266.853 37.56 266.853 35.8C266.853 34.02 265.613 32.54 263.593 32.54C261.573 32.54 260.333 34.02 260.333 35.8C260.333 37.56 261.573 39.06 263.593 39.06ZM296.005 40.4H279.205V38.98H286.745V36.82H281.425V30.74H293.785V36.82H288.465V38.98H296.005V40.4ZM292.105 35.4V32.16H283.105V35.4H292.105ZM293.785 48.14H292.105V43.64H281.145V42.2H293.785V48.14ZM313.876 46.26H297.076V44.82H304.616V40.64H306.336V44.82H313.876V46.26ZM313.156 39.58L312.196 40.9C309.416 39.98 306.676 38.14 305.476 35.86C304.276 38.14 301.536 39.98 298.756 40.9L297.796 39.58C301.336 38.5 304.616 35.78 304.616 32.86V31.04H306.336V32.86C306.336 35.78 309.616 38.5 313.156 39.58ZM329.987 48.04H328.307V30.22H329.987V48.04ZM327.207 42.8V44.2C325.047 44.58 321.987 44.64 319.507 44.64H316.147V37.22H323.127V32.98H316.147V31.56H324.807V38.62H317.827V43.2H319.507C321.987 43.2 324.927 43.14 327.207 42.8ZM335.458 49.68H333.698V43.94H335.458V49.68ZM356.608 33.7C356.608 35.76 354.768 37.16 351.228 37.26C350.488 37.28 349.488 37.28 348.748 37.26C345.208 37.16 343.368 35.76 343.368 33.7C343.368 31.64 345.208 30.24 348.748 30.14C349.488 30.12 350.488 30.12 351.228 30.14C354.768 30.24 356.608 31.64 356.608 33.7ZM354.928 33.7C354.928 31.52 351.608 31.52 349.988 31.52C348.368 31.52 345.048 31.52 345.048 33.7C345.048 35.88 348.368 35.88 349.988 35.88C351.608 35.88 354.928 35.88 354.928 33.7ZM358.388 39.76H350.848V41.6H349.128V39.76H341.588V38.34H358.388V39.76ZM357.548 46.68L356.728 48.02C354.088 47.58 351.228 46.34 349.988 44.6C348.748 46.34 345.888 47.58 343.248 48.02L342.428 46.68C345.688 46.22 349.088 44.46 349.088 42.52V42.2H350.888V42.52C350.888 44.46 354.288 46.22 357.548 46.68ZM376.259 39.84H359.459V38.42H376.259V39.84ZM374.039 47.84H361.679V41.72H374.039V47.84ZM372.359 46.42V43.14H363.359V46.42H372.359ZM374.479 33.56C374.479 36.8 370.279 37 367.859 37C365.439 37 361.239 36.8 361.239 33.56C361.239 30.32 365.439 30.12 367.859 30.12C370.279 30.12 374.479 30.32 374.479 33.56ZM372.799 33.56C372.799 32.42 371.719 31.62 369.099 31.54C368.359 31.52 367.359 31.52 366.619 31.54C363.999 31.62 362.919 32.42 362.919 33.56C362.919 34.7 363.999 35.5 366.619 35.58C367.359 35.6 368.359 35.6 369.099 35.58C371.719 35.5 372.799 34.7 372.799 33.56ZM379.97 49.68H378.21V43.94H379.97V49.68ZM401.099 47.84H388.999V43.26H399.019V41.56H388.999V40.16H400.699V44.62H390.679V46.42H401.099V47.84ZM400.739 39.28H399.059V30.22H400.739V33.68H403.179V35.12H400.739V39.28ZM395.759 38.36H387.099V30.76H388.779V33.18H394.079V30.76H395.759V38.36ZM394.079 36.96V34.56H388.779V36.96H394.079ZM419.57 47.84H407.27V43.26H417.49V41.56H407.27V40.16H419.17V44.62H408.95V46.42H419.57V47.84ZM412.11 32.38H405.37V30.96H414.03C413.95 35.8 409.07 38.44 405.03 39.42L404.15 38.14C408.31 37.24 411.55 35 412.11 32.38ZM419.21 39.28H417.53V35.76H413.83V34.36H417.53V30.22H419.21V39.28ZM438.642 39.84H421.842V38.42H438.642V39.84ZM436.422 47.84H424.062V41.72H436.422V47.84ZM434.742 46.42V43.14H425.742V46.42H434.742ZM436.862 33.56C436.862 36.8 432.662 37 430.242 37C427.822 37 423.622 36.8 423.622 33.56C423.622 30.32 427.822 30.12 430.242 30.12C432.662 30.12 436.862 30.32 436.862 33.56ZM435.182 33.56C435.182 32.42 434.102 31.62 431.482 31.54C430.742 31.52 429.742 31.52 429.002 31.54C426.382 31.62 425.302 32.42 425.302 33.56C425.302 34.7 426.382 35.5 429.002 35.58C429.742 35.6 430.742 35.6 431.482 35.58C434.102 35.5 435.182 34.7 435.182 33.56ZM442.353 49.68H440.593V43.94H442.353V49.68ZM458.022 44.56H449.482V31.56H451.162V36.56H456.342V31.56H458.022V44.56ZM456.342 43.12V37.98H451.162V43.12H456.342ZM462.922 48.04H461.242V30.22H462.922V37.34H465.562V38.86H462.922V48.04ZM480.993 40.36H479.313V30.22H480.993V34.14H483.433V35.62H480.993V40.36ZM480.953 47.84H469.253V41.24H480.953V47.84ZM479.273 46.44V42.64H470.933V46.44H479.273ZM478.313 37.68V39.08C476.293 39.38 473.393 39.4 470.853 39.4H467.353V34.36H474.333V32.26H467.353V30.84H476.013V35.74H469.033V37.96H470.853C473.333 37.96 476.173 37.94 478.313 37.68ZM501.024 46.26H484.224V44.82H491.764V40.64H493.484V44.82H501.024V46.26ZM500.304 39.58L499.344 40.9C496.564 39.98 493.824 38.14 492.624 35.86C491.424 38.14 488.684 39.98 485.904 40.9L484.944 39.58C488.484 38.5 491.764 35.78 491.764 32.86V31.04H493.484V32.86C493.484 35.78 496.764 38.5 500.304 39.58ZM517.135 48.04H515.455V30.22H517.135V48.04ZM514.355 42.8V44.2C512.195 44.58 509.135 44.64 506.655 44.64H503.295V37.22H510.275V32.98H503.295V31.56H511.955V38.62H504.975V43.2H506.655C509.135 43.2 512.075 43.14 514.355 42.8ZM522.127 46.54C521.447 46.54 520.907 46 520.907 45.32C520.907 44.64 521.447 44.1 522.127 44.1C522.807 44.1 523.347 44.64 523.347 45.32C523.347 46 522.807 46.54 522.127 46.54ZM527.498 46.54C526.818 46.54 526.278 46 526.278 45.32C526.278 44.64 526.818 44.1 527.498 44.1C528.178 44.1 528.718 44.64 528.718 45.32C528.718 46 528.178 46.54 527.498 46.54ZM235.114 78.04H233.434V69.14H229.654V67.66H233.434V60.22H235.114V78.04ZM221.594 75.6L220.514 74.44C225.034 71.8 227.694 67.52 228.014 63.2H221.434V61.76H229.814C229.774 68.2 225.994 72.96 221.594 75.6ZM252.985 78.04H251.305V60.22H252.985V78.04ZM239.465 75.6L238.385 74.44C242.905 71.8 245.685 67.52 246.005 63.2H239.305V61.76H247.805C247.765 68.2 243.865 72.96 239.465 75.6ZM268.036 72.84H266.396V66.04H264.276C263.996 68.22 262.416 69.92 260.176 69.92C257.696 69.92 256.016 67.84 256.016 65.32C256.016 62.8 257.696 60.72 260.176 60.72C262.396 60.72 263.976 62.4 264.276 64.56H266.396V60.42H268.036V72.84ZM271.716 77.74H259.056V71.54H260.756V76.3H271.716V77.74ZM260.156 68.48C261.736 68.48 262.696 67.12 262.696 65.32C262.696 63.52 261.736 62.16 260.156 62.16C258.616 62.16 257.656 63.52 257.656 65.32C257.656 67.12 258.616 68.48 260.156 68.48ZM271.316 73.24H269.656V60.22H271.316V73.24ZM292.268 78.04H290.588V60.22H292.268V67.04H294.908V68.56H292.268V78.04ZM282.868 75.24C279.988 75.24 278.528 72.8 278.388 69.56C278.348 68.66 278.348 67.74 278.388 66.84C278.528 63.6 279.988 61.16 282.868 61.16C285.748 61.16 287.208 63.6 287.348 66.84C287.388 67.74 287.388 68.66 287.348 69.56C287.208 72.8 285.748 75.24 282.868 75.24ZM282.868 73.8C284.688 73.8 285.588 72.04 285.708 69.56C285.748 68.66 285.748 67.74 285.708 66.84C285.588 64.36 284.688 62.6 282.868 62.6C281.048 62.6 280.148 64.36 280.028 66.84C279.988 67.74 279.988 68.66 280.028 69.56C280.148 72.04 281.048 73.8 282.868 73.8ZM307.279 68.3L306.399 69.58C304.479 68.84 302.439 67.36 301.519 65.72C300.759 67.36 298.719 69.08 296.499 70.14L295.439 68.92C298.199 67.68 300.599 65.4 300.599 62.72V62.38H296.559V60.96H306.499V62.38H302.359V62.7C302.359 65.32 304.799 67.36 307.279 68.3ZM310.899 78.14H309.219V72.88H298.599V71.44H310.899V78.14ZM310.939 70.56H309.259V60.22H310.939V70.56ZM332.151 78.04H330.471V60.22H332.151V66.54H334.791V68.06H332.151V78.04ZM329.471 72.48V73.9C327.311 74.28 324.251 74.34 321.771 74.34H318.871V61.46H320.551V72.88H321.771C324.251 72.88 327.191 72.82 329.471 72.48ZM350.822 77.74H338.562V71.54H340.262V76.3H350.822V77.74ZM343.562 67.92V62.4H338.262V67.92H343.562ZM345.242 69.36H336.582V60.96H345.242V69.36ZM350.222 73.04H348.542V60.22H350.222V64.4H352.662V65.88H350.222V73.04ZM366.413 72.94V74.34C364.553 74.72 362.193 74.84 359.653 74.84H354.033V73.4H359.653C362.073 73.4 364.593 73.28 366.413 72.94ZM368.893 78.04H367.213V60.22H368.893V78.04ZM364.793 65.8C364.793 68.4 362.653 70.5 359.853 70.5C357.053 70.5 354.913 68.4 354.913 65.8C354.913 63.2 357.053 61.1 359.853 61.1C362.653 61.1 364.793 63.2 364.793 65.8ZM359.853 69.06C361.873 69.06 363.113 67.56 363.113 65.8C363.113 64.02 361.873 62.54 359.853 62.54C357.833 62.54 356.593 64.02 356.593 65.8C356.593 67.56 357.833 69.06 359.853 69.06ZM387.585 69.08H385.945V65.18H383.525V68.2H376.465V61H383.525V63.78H385.945V60.42H387.585V69.08ZM391.325 77.84H378.625V73.16H389.245V71.36H378.625V69.96H390.925V74.52H380.305V76.42H391.325V77.84ZM381.925 66.8V62.4H378.065V66.8H381.925ZM390.965 69.08H389.305V60.22H390.965V69.08ZM410.136 76.26H393.336V74.82H400.976V71.62H395.596V65.72H406.096V62.74H395.596V61.32H407.776V67.12H397.276V70.18H408.176V71.62H402.696V74.82H410.136V76.26ZM426.247 78.04H424.567V60.22H426.247V78.04ZM423.467 72.38V73.8C421.307 74.28 417.947 74.44 415.467 74.44H412.487V61.76H421.247V63.2H414.167V72.98H415.467C417.947 72.98 421.187 72.82 423.467 72.38ZM430.398 75.6L429.318 74.44C433.838 71.8 436.498 67.52 436.818 63.2H430.238V61.76H438.618C438.578 68.2 434.798 72.96 430.398 75.6ZM443.518 78.04H441.838V60.22H443.518V67.64H446.158V69.16H443.518V78.04ZM465.73 69.84H464.05V60.22H465.73V63.44H468.17V64.92H465.73V69.84ZM465.69 77.84H453.99V70.72H465.69V77.84ZM464.01 76.42V72.14H455.67V76.42H464.01ZM463.05 66.38V67.8C461.03 68.2 458.13 68.32 455.59 68.32H452.25V60.66H453.93V66.86H455.59C458.07 66.86 460.91 66.74 463.05 66.38ZM483.401 78.04H481.721V60.22H483.401V67.04H486.041V68.56H483.401V78.04ZM474.001 75.24C471.121 75.24 469.661 72.8 469.521 69.56C469.481 68.66 469.481 67.74 469.521 66.84C469.661 63.6 471.121 61.16 474.001 61.16C476.881 61.16 478.341 63.6 478.481 66.84C478.521 67.74 478.521 68.66 478.481 69.56C478.341 72.8 476.881 75.24 474.001 75.24ZM474.001 73.8C475.821 73.8 476.721 72.04 476.841 69.56C476.881 68.66 476.881 67.74 476.841 66.84C476.721 64.36 475.821 62.6 474.001 62.6C472.181 62.6 471.281 64.36 471.161 66.84C471.121 67.74 471.121 68.66 471.161 69.56C471.281 72.04 472.181 73.8 474.001 73.8ZM506.212 70.16H504.532V60.22H506.212V70.16ZM507.752 76.96L506.792 78.08C505.212 77.22 503.772 75.82 503.272 74.5C502.652 75.94 501.292 77.3 499.972 78.08C498.652 77.3 497.292 75.94 496.672 74.5C496.172 75.82 494.732 77.22 493.152 78.08L492.192 76.96C494.132 76.02 495.852 74.02 495.852 72.14V71.04H497.492V72.14C497.492 73.66 498.852 75.62 499.972 76.36C501.092 75.62 502.452 73.66 502.452 72.14V71.04H504.092V72.14C504.092 74.02 505.812 76.02 507.752 76.96ZM501.372 65C501.372 67.46 499.372 69.48 496.472 69.48C493.572 69.48 491.572 67.46 491.572 65C491.572 62.54 493.572 60.52 496.472 60.52C499.372 60.52 501.372 62.54 501.372 65ZM499.692 65C499.692 63.32 498.492 61.96 496.472 61.96C494.452 61.96 493.252 63.32 493.252 65C493.252 66.64 494.452 68.04 496.472 68.04C498.492 68.04 499.692 66.64 499.692 65ZM524.923 70.1L523.963 71.42C521.083 70.7 518.463 68.86 517.243 66.82C516.023 68.86 513.403 70.7 510.523 71.42L509.563 70.1C513.323 69.14 516.363 66.6 516.363 64.18V63.06H510.823V61.62H523.663V63.06H518.123V64.18C518.123 66.6 521.163 69.14 524.923 70.1ZM525.643 76.26H508.843V74.82H513.323V71.04H514.963V74.82H519.523V71.04H521.163V74.82H525.643V76.26ZM528.875 76.54C528.195 76.54 527.655 76 527.655 75.32C527.655 74.64 528.195 74.1 528.875 74.1C529.555 74.1 530.095 74.64 530.095 75.32C530.095 76 529.555 76.54 528.875 76.54ZM139.237 135.96H122.437V134.52H133.817C134.637 131.34 135.257 126.24 135.377 122.96H124.337V121.52H137.097C136.977 125.72 136.357 131.08 135.517 134.52H139.237V135.96ZM156.108 138.04H154.468V128.6H152.588V137.3H150.968V120.42H152.588V127.04H154.468V120.22H156.108V138.04ZM150.348 132.92V134.32C149.608 134.5 148.568 134.56 147.968 134.56H145.788V121.84H149.768V123.26H147.388V133.12H148.088C148.828 133.12 149.688 133.04 150.348 132.92ZM145.288 132.96V134.36C144.548 134.5 143.568 134.56 143.168 134.56H141.368V121.84H145.188V123.26H142.968V133.12H143.308C143.728 133.12 144.508 133.08 145.288 132.96ZM177.3 137.84H164.54V133.54H175.22V132.08H164.54V130.7H176.9V134.88H166.22V136.44H177.3V137.84ZM179.12 129.08H162.32V127.7H179.12V129.08ZM177.1 126.18H164.54V120.74H176.9V122.12H166.22V124.8H177.1V126.18ZM195.231 138.04H193.551V120.22H195.231V138.04ZM192.451 132.8V134.2C190.291 134.58 187.231 134.64 184.751 134.64H181.391V127.22H188.371V122.98H181.391V121.56H190.051V128.62H183.071V133.2H184.751C187.231 133.2 190.171 133.14 192.451 132.8ZM210.062 127.7V129.12C208.042 129.52 205.202 129.64 202.662 129.64H199.342V120.96H207.982V122.4H201.022V128.18H202.662C205.142 128.18 207.922 128.06 210.062 127.7ZM213.302 133.12H211.622V125.68H206.482V124.26H211.622V120.22H213.302V133.12ZM213.702 137.74H201.442V131.62H203.142V136.3H213.702V137.74ZM236.874 136.26H220.074V134.82H227.614V130.64H229.334V134.82H236.874V136.26ZM236.154 129.58L235.194 130.9C232.414 129.98 229.674 128.14 228.474 125.86C227.274 128.14 224.534 129.98 221.754 130.9L220.794 129.58C224.334 128.5 227.614 125.78 227.614 122.86V121.04H229.334V122.86C229.334 125.78 232.614 128.5 236.154 129.58ZM252.985 138.04H251.305V120.22H252.985V138.04ZM250.205 132.8V134.2C248.045 134.58 244.985 134.64 242.505 134.64H239.145V127.22H246.125V122.98H239.145V121.56H247.805V128.62H240.825V133.2H242.505C244.985 133.2 247.925 133.14 250.205 132.8ZM272.616 130.32H255.816V128.9H272.616V130.32ZM270.996 137.74H258.036V132.12H259.736V136.3H270.996V137.74ZM270.696 126.7H258.036V120.44H259.716V125.28H270.696V126.7ZM288.228 124.86C288.228 127.26 286.228 129.24 283.328 129.24C280.428 129.24 278.428 127.26 278.428 124.86C278.428 122.44 280.428 120.48 283.328 120.48C286.228 120.48 288.228 122.44 288.228 124.86ZM294.088 136.7L293.328 138.02C290.828 137.46 288.068 136 286.988 134.34C285.908 136 283.148 137.46 280.648 138.02L279.888 136.7C282.768 136.1 285.728 134.42 286.068 132.54H280.708V131.12H293.268V132.54H287.888C288.248 134.42 291.208 136.1 294.088 136.7ZM286.548 124.86C286.548 123.26 285.348 121.92 283.328 121.92C281.308 121.92 280.108 123.26 280.108 124.86C280.108 126.46 281.308 127.8 283.328 127.8C285.348 127.8 286.548 126.46 286.548 124.86ZM293.068 130.16H291.388V120.22H293.068V130.16ZM312.499 136.26H295.699V134.82H302.119V128.1H303.839V134.82H312.499V136.26ZM309.339 132.26H307.699C308.439 129.46 308.759 125.64 308.799 122.96H297.599V121.52H310.519C310.519 124.92 310.159 129.3 309.339 132.26ZM332.951 130.16H331.271V120.22H332.951V130.16ZM334.491 136.96L333.531 138.08C331.951 137.22 330.511 135.82 330.011 134.5C329.391 135.94 328.031 137.3 326.711 138.08C325.391 137.3 324.031 135.94 323.411 134.5C322.911 135.82 321.471 137.22 319.891 138.08L318.931 136.96C320.871 136.02 322.591 134.02 322.591 132.14V131.04H324.231V132.14C324.231 133.66 325.591 135.62 326.711 136.36C327.831 135.62 329.191 133.66 329.191 132.14V131.04H330.831V132.14C330.831 134.02 332.551 136.02 334.491 136.96ZM328.111 125C328.111 127.46 326.111 129.48 323.211 129.48C320.311 129.48 318.311 127.46 318.311 125C318.311 122.54 320.311 120.52 323.211 120.52C326.111 120.52 328.111 122.54 328.111 125ZM326.431 125C326.431 123.32 325.231 121.96 323.211 121.96C321.191 121.96 319.991 123.32 319.991 125C319.991 126.64 321.191 128.04 323.211 128.04C325.231 128.04 326.431 126.64 326.431 125ZM347.582 127.7V129.12C345.562 129.52 342.722 129.64 340.182 129.64H336.862V120.96H345.502V122.4H338.542V128.18H340.182C342.662 128.18 345.442 128.06 347.582 127.7ZM350.822 133.12H349.142V125.68H344.002V124.26H349.142V120.22H350.822V133.12ZM351.222 137.74H338.962V131.62H340.662V136.3H351.222V137.74ZM374.393 130.64H367.133V134.3H365.453V130.64H357.593V129.22H374.393V130.64ZM372.773 137.74H359.813V132.32H361.513V136.3H372.773V137.74ZM373.453 126.3L372.593 127.6C369.973 127.02 367.233 125.58 365.993 123.62C364.753 125.58 362.013 127.02 359.393 127.6L358.533 126.3C361.933 125.58 365.133 123.42 365.133 121.3V120.34H366.853V121.3C366.853 123.42 370.053 125.58 373.453 126.3ZM390.705 137.74H378.445V131.54H380.145V136.3H390.705V137.74ZM390.105 133.04H388.425V120.22H390.105V124.8H392.545V126.28H390.105V133.04ZM376.385 130.66L375.445 129.4C379.965 128.08 382.885 125.4 383.405 122.4H376.665V120.96H385.325C385.125 126.2 380.765 129.32 376.385 130.66ZM408.316 137.84H395.556V133.54H406.236V132.08H395.556V130.7H407.916V134.88H397.236V136.44H408.316V137.84ZM410.136 129.08H393.336V127.7H410.136V129.08ZM408.116 126.18H395.556V120.74H407.916V122.12H397.236V124.8H408.116V126.18ZM428.007 129.16H411.207V127.78H428.007V129.16ZM426.187 137.84H413.427V133.54H424.107V132.08H413.427V130.7H425.787V134.88H415.107V136.44H426.187V137.84ZM426.227 123.32C426.227 126.38 421.887 126.52 419.607 126.52C417.327 126.52 412.987 126.38 412.987 123.32C412.987 120.26 417.327 120.12 419.607 120.12C421.887 120.12 426.227 120.26 426.227 123.32ZM424.547 123.32C424.547 122.3 423.467 121.58 420.847 121.5C420.107 121.48 419.107 121.48 418.367 121.5C415.747 121.58 414.667 122.3 414.667 123.32C414.667 124.34 415.747 125.06 418.367 125.14C419.107 125.16 420.107 125.16 420.847 125.14C423.467 125.06 424.547 124.34 424.547 123.32ZM444.538 129.32L443.658 130.6C441.838 130.06 439.958 128.84 438.858 127.14C437.918 128.88 436.098 130.38 433.918 131.12L432.858 129.9C435.838 128.76 437.938 126.76 437.938 124.3V124.18H433.798V122.8H443.938V124.18H439.698V124.28C439.698 126.84 441.958 128.56 444.538 129.32ZM447.858 133.44H446.178V120.22H447.858V124.74H450.298V126.22H447.858V133.44ZM448.458 137.74H436.198V131.94H437.898V136.3H448.458V137.74ZM441.758 121.48H436.098V120.12H441.758V121.48ZM462.41 129.32L461.53 130.6C459.71 130.06 457.83 128.84 456.73 127.14C455.79 128.88 453.97 130.38 451.79 131.12L450.73 129.9C453.71 128.76 455.81 126.76 455.81 124.3V124.18H451.67V122.8H461.81V124.18H457.57V124.28C457.57 126.84 459.83 128.56 462.41 129.32ZM465.73 133.44H464.05V120.22H465.73V124.74H468.17V126.22H465.73V133.44ZM466.33 137.74H454.07V131.94H455.77V136.3H466.33V137.74ZM459.63 121.48H453.97V120.12H459.63V121.48ZM479.321 131.24C479.321 133.64 477.501 135.68 474.801 135.68C472.101 135.68 470.281 133.64 470.281 131.24C470.281 128.84 472.101 126.8 474.801 126.8C477.501 126.8 479.321 128.84 479.321 131.24ZM484.161 138.04H482.481V120.22H484.161V138.04ZM480.241 125.56H469.361V124.12H480.241V125.56ZM477.561 122.48H472.041V121.04H477.561V122.48ZM474.801 134.28C476.621 134.28 477.641 132.94 477.641 131.24C477.641 129.54 476.621 128.2 474.801 128.2C472.981 128.2 471.961 129.54 471.961 131.24C471.961 132.94 472.981 134.28 474.801 134.28ZM506.212 138.04H504.572V128.44H501.452V126.96H504.572V120.22H506.212V138.04ZM503.332 132.76V134.18C502.112 134.46 500.772 134.52 499.912 134.52H497.492V121.76H502.372V123.18H499.132V133.06H499.892C500.992 133.06 502.192 133 503.332 132.76ZM496.892 132.86V134.28C495.952 134.46 494.772 134.52 494.052 134.52H492.052V121.76H496.692V123.18H493.692V133.06H494.092C494.952 133.06 496.032 133 496.892 132.86ZM525.643 129.4H508.843V128.02H516.383V126.52C514.323 126.52 510.623 126.06 510.623 123.32C510.623 120.26 514.963 120.12 517.243 120.12C519.523 120.12 523.863 120.26 523.863 123.32C523.863 126.06 520.163 126.52 518.103 126.52V128.02H525.643V129.4ZM523.823 137.84H511.063V133.58H521.743V132.16H511.063V130.78H523.423V134.92H512.743V136.44H523.823V137.84ZM522.183 123.32C522.183 122.3 521.103 121.58 518.483 121.5C517.743 121.48 516.743 121.48 516.003 121.5C513.383 121.58 512.303 122.3 512.303 123.32C512.303 124.34 513.383 125.06 516.003 125.14C516.743 125.16 517.743 125.16 518.483 125.14C521.103 125.06 522.183 124.34 522.183 123.32ZM541.755 138.04H540.075V120.22H541.755V138.04ZM538.975 132.8V134.2C536.815 134.58 533.755 134.64 531.275 134.64H527.915V127.22H534.895V122.98H527.915V121.56H536.575V128.62H529.595V133.2H531.275C533.755 133.2 536.695 133.14 538.975 132.8ZM545.586 135.56L544.426 134.48C548.226 131.74 550.486 127.5 550.786 123.28H545.466V121.84H552.546C552.546 128.02 549.466 132.62 545.586 135.56ZM556.666 137.3H555.026V128.94H552.386V127.46H555.026V120.42H556.666V137.3ZM559.966 138.04H558.306V120.22H559.966V138.04ZM579.517 136.44V134.44H571.177V136.44H579.517ZM581.197 137.82H569.497V131.2H571.177V133.1H579.517V131.2H581.197V137.82ZM581.237 130.32H579.557V120.22H581.237V124.68H583.677V126.12H581.237V130.32ZM575.137 121.56H569.477V120.2H575.137V121.56ZM577.677 124.04H566.957V122.64H577.677V124.04ZM576.857 127.6C576.857 129.2 575.017 130.36 572.317 130.36C569.617 130.36 567.777 129.2 567.777 127.6C567.777 126 569.617 124.84 572.317 124.84C575.017 124.84 576.857 126 576.857 127.6ZM575.177 127.6C575.177 126.72 574.117 126.16 572.317 126.16C570.517 126.16 569.457 126.72 569.457 127.6C569.457 128.48 570.517 129.04 572.317 129.04C574.117 129.04 575.177 128.48 575.177 127.6ZM599.508 138.04H597.828V120.22H599.508V138.04ZM596.728 132.48V133.9C594.568 134.28 591.508 134.34 589.028 134.34H585.828V121.46H587.508V132.88H589.028C591.508 132.88 594.448 132.82 596.728 132.48ZM616.78 138.04H615.1V120.22H616.78V126.84H619.42V128.36H616.78V138.04ZM614.1 132.38V133.8C611.94 134.28 608.88 134.44 606.4 134.44H603.42V121.76H612.06V123.2H605.1V132.98H606.4C608.88 132.98 611.82 132.82 614.1 132.38ZM622.371 136.54C621.691 136.54 621.151 136 621.151 135.32C621.151 134.64 621.691 134.1 622.371 134.1C623.051 134.1 623.591 134.64 623.591 135.32C623.591 136 623.051 136.54 622.371 136.54ZM109.665 168.04H107.985V150.22H109.665V168.04ZM96.1447 165.6L95.0647 164.44C99.5847 161.8 102.365 157.52 102.685 153.2H95.9847V151.76H104.485C104.445 158.2 100.545 162.96 96.1447 165.6ZM127.736 160.56H126.056V155.64H122.636C122.336 157.8 120.556 159.48 117.896 159.48C114.976 159.48 113.096 157.46 113.096 155C113.096 152.54 115.056 150.52 117.896 150.52C120.416 150.52 122.256 152.12 122.616 154.2H126.056V150.22H127.736V160.56ZM121.016 155C121.016 153.32 119.856 151.96 117.896 151.96C115.936 151.96 114.776 153.32 114.776 155C114.776 156.64 115.936 158.04 117.896 158.04C119.856 158.04 121.016 156.64 121.016 155ZM127.696 168.14H126.016V162.88H115.396V161.44H127.696V168.14ZM147.167 159.16H130.367V157.78H147.167V159.16ZM145.347 167.84H132.587V163.54H143.267V162.08H132.587V160.7H144.947V164.88H134.267V166.44H145.347V167.84ZM145.387 153.32C145.387 156.38 141.047 156.52 138.767 156.52C136.487 156.52 132.147 156.38 132.147 153.32C132.147 150.26 136.487 150.12 138.767 150.12C141.047 150.12 145.387 150.26 145.387 153.32ZM143.707 153.32C143.707 152.3 142.627 151.58 140.007 151.5C139.267 151.48 138.267 151.48 137.527 151.5C134.907 151.58 133.827 152.3 133.827 153.32C133.827 154.34 134.907 155.06 137.527 155.14C138.267 155.16 139.267 155.16 140.007 155.14C142.627 155.06 143.707 154.34 143.707 153.32ZM167.019 168.04H165.379V150.22H167.019V156.84H169.559V158.36H167.019V168.04ZM158.199 162.86V164.28C157.259 164.46 156.079 164.52 155.359 164.52H153.259V151.76H157.999V153.18H154.899V163.06H155.399C156.259 163.06 157.339 163 158.199 162.86ZM164.539 162.76V164.18C163.319 164.46 161.979 164.52 161.119 164.52H158.799V151.76H163.579V153.18H160.439V163.06H161.099C162.199 163.06 163.399 163 164.539 162.76ZM184.69 168.04H183.01V150.22H184.69V157.14H187.33V158.66H184.69V168.04ZM182.01 162.8V164.2C179.85 164.58 176.79 164.64 174.31 164.64H171.25V157.22H177.91V152.98H171.25V151.56H179.59V158.62H172.93V163.2H174.31C176.79 163.2 179.73 163.14 182.01 162.8ZM189.441 165.6L188.361 164.44C192.881 161.8 195.541 157.52 195.861 153.2H189.281V151.76H197.661C197.621 158.2 193.841 162.96 189.441 165.6ZM202.561 168.04H200.881V150.22H202.561V157.64H205.201V159.16H202.561V168.04ZM221.232 163.04H219.552V157.78H215.772V159.6H207.192V150.96H215.772V152.56H219.552V150.22H221.232V163.04ZM214.092 158.16V152.4H208.872V158.16H214.092ZM221.632 167.74H209.372V161.54H211.072V166.3H221.632V167.74ZM219.552 156.36V153.98H215.772V156.36H219.552ZM235.703 163.4L234.763 164.62C232.603 163.42 230.663 161.42 229.743 159.4C228.903 161.58 226.943 163.62 224.583 165.1L223.463 163.94C226.343 162.3 228.823 159.34 228.823 155.4V151.36H230.583V155.44C230.583 159.22 233.123 162.02 235.703 163.4ZM239.103 168.04H237.423V157.4H233.563V155.92H237.423V150.22H239.103V168.04ZM262.675 165.96H245.875V164.52H257.255C258.075 161.34 258.695 156.24 258.815 152.96H247.775V151.52H260.535C260.415 155.72 259.795 161.08 258.955 164.52H262.675V165.96ZM278.746 167.84H266.646V163.1H276.666V161.24H266.646V159.84H278.346V164.46H268.326V166.42H278.746V167.84ZM278.386 158.96H276.706V150.22H278.386V153.12H280.826V154.56H278.386V158.96ZM275.706 155.96V157.36C273.686 157.76 270.786 157.88 268.246 157.88H264.906V150.66H266.586V156.44H268.246C270.726 156.44 273.566 156.32 275.706 155.96ZM294.577 162.94V164.34C292.717 164.72 290.357 164.84 287.817 164.84H282.197V163.4H287.817C290.237 163.4 292.757 163.28 294.577 162.94ZM297.057 168.04H295.377V150.22H297.057V168.04ZM292.957 155.8C292.957 158.4 290.817 160.5 288.017 160.5C285.217 160.5 283.077 158.4 283.077 155.8C283.077 153.2 285.217 151.1 288.017 151.1C290.817 151.1 292.957 153.2 292.957 155.8ZM288.017 159.06C290.037 159.06 291.277 157.56 291.277 155.8C291.277 154.02 290.037 152.54 288.017 152.54C285.997 152.54 284.757 154.02 284.757 155.8C284.757 157.56 285.997 159.06 288.017 159.06ZM320.429 166.26H303.629V164.82H311.169V160.64H312.889V164.82H320.429V166.26ZM319.709 159.58L318.749 160.9C315.969 159.98 313.229 158.14 312.029 155.86C310.829 158.14 308.089 159.98 305.309 160.9L304.349 159.58C307.889 158.5 311.169 155.78 311.169 152.86V151.04H312.889V152.86C312.889 155.78 316.169 158.5 319.709 159.58ZM336.54 168.04H334.86V150.22H336.54V168.04ZM333.76 162.8V164.2C331.6 164.58 328.54 164.64 326.06 164.64H322.7V157.22H329.68V152.98H322.7V151.56H331.36V158.62H324.38V163.2H326.06C328.54 163.2 331.48 163.14 333.76 162.8ZM354.351 167.84H341.591V163.8H352.271V162.58H341.591V161.22H353.951V165.12H343.271V166.46H354.351V167.84ZM354.251 157.18H341.591V153.22H352.171V151.98H341.591V150.62H353.851V154.54H343.271V155.8H354.251V157.18ZM356.171 159.84H339.371V158.48H356.171V159.84ZM372.963 158.3L372.083 159.58C370.163 158.84 368.123 157.36 367.203 155.72C366.443 157.36 364.403 159.08 362.183 160.14L361.123 158.92C363.883 157.68 366.283 155.4 366.283 152.72V152.38H362.243V150.96H372.183V152.38H368.043V152.7C368.043 155.32 370.483 157.36 372.963 158.3ZM376.583 168.14H374.903V162.88H364.283V161.44H376.583V168.14ZM376.623 160.56H374.943V150.22H376.623V160.56ZM394.454 167.82H382.554V160.2H384.234V162.58H392.774V160.2H394.454V167.82ZM390.754 157.72L389.894 159.02C388.034 158.44 385.994 157.04 385.034 155.48C384.314 157 382.234 158.68 380.034 159.58L378.994 158.34C381.794 157.28 384.114 155.12 384.114 152.72V152.36H380.114V150.96H389.974V152.36H385.874V152.7C385.874 155.04 388.214 156.96 390.754 157.72ZM392.774 166.4V163.96H384.234V166.4H392.774ZM394.494 159.32H392.814V155.34H389.454V153.94H392.814V150.22H394.494V159.32ZM418.065 165.96H401.265V164.52H412.645C413.465 161.34 414.085 156.24 414.205 152.96H403.165V151.52H415.925C415.805 155.72 415.185 161.08 414.345 164.52H418.065V165.96ZM430.896 162.8V164.2C428.736 164.58 426.176 164.64 423.696 164.64H420.336V157.22H426.596V152.98H420.336V151.56H428.276V158.62H422.016V163.2H423.696C426.176 163.2 428.616 163.14 430.896 162.8ZM434.176 168.04H432.496V160.08H429.156V158.64H432.496V155.44H429.156V154H432.496V150.22H434.176V168.04ZM453.808 166.26H437.008V164.82H444.548V161.02H439.268V151.24H440.948V154.58H449.868V151.24H451.548V161.02H446.268V164.82H453.808V166.26ZM449.868 159.58V156H440.948V159.58H449.868ZM471.679 166.26H454.879V164.82H461.299V158.1H463.019V164.82H471.679V166.26ZM468.519 162.26H466.879C467.619 159.46 467.939 155.64 467.979 152.96H456.779V151.52H469.699C469.699 154.92 469.339 159.3 468.519 162.26ZM491.87 167.84H479.11V163.54H489.79V162.08H479.11V160.7H491.47V164.88H480.79V166.44H491.87V167.84ZM493.69 159.08H476.89V157.7H493.69V159.08ZM491.67 156.18H479.11V150.74H491.47V152.12H480.79V154.8H491.67V156.18ZM509.801 168.04H508.121V158.74H504.621C504.621 161.7 503.661 165.24 500.061 165.24C497.181 165.24 495.661 162.8 495.521 159.56C495.481 158.66 495.481 157.74 495.521 156.84C495.661 153.6 497.181 151.16 500.061 151.16C503.401 151.16 504.621 154.4 504.621 157.26H508.121V150.22H509.801V168.04ZM500.061 163.8C501.881 163.8 502.841 162.04 502.961 159.56C503.001 158.66 503.001 157.74 502.961 156.84C502.841 154.36 501.881 152.6 500.061 152.6C498.241 152.6 497.281 154.36 497.161 156.84C497.121 157.74 497.121 158.66 497.161 159.56C497.281 162.04 498.241 163.8 500.061 163.8ZM529.433 166.26H512.633V164.82H520.173V161.02H514.893V151.24H516.573V154.58H525.493V151.24H527.173V161.02H521.893V164.82H529.433V166.26ZM525.493 159.58V156H516.573V159.58H525.493ZM547.304 160.32H530.504V158.9H547.304V160.32ZM545.684 167.74H532.724V162.12H534.424V166.3H545.684V167.74ZM545.384 156.7H532.724V150.44H534.404V155.28H545.384V156.7ZM553.635 160.66L552.695 159.4C557.215 158.08 560.135 155.4 560.655 152.4H553.915V150.96H562.575C562.375 156.2 558.015 159.32 553.635 160.66ZM567.755 163.04H566.075V156.7H562.375V155.26H566.075V150.22H567.755V163.04ZM568.155 167.74H555.895V161.54H557.595V166.3H568.155V167.74ZM589.567 168.04H587.887V158.74H584.387C584.387 161.7 583.427 165.24 579.827 165.24C576.947 165.24 575.427 162.8 575.287 159.56C575.247 158.66 575.247 157.74 575.287 156.84C575.427 153.6 576.947 151.16 579.827 151.16C583.167 151.16 584.387 154.4 584.387 157.26H587.887V150.22H589.567V168.04ZM579.827 163.8C581.647 163.8 582.607 162.04 582.727 159.56C582.767 158.66 582.767 157.74 582.727 156.84C582.607 154.36 581.647 152.6 579.827 152.6C578.007 152.6 577.047 154.36 576.927 156.84C576.887 157.74 576.887 158.66 576.927 159.56C577.047 162.04 578.007 163.8 579.827 163.8ZM608.198 167.84H595.898V163.2H606.118V161.44H595.898V160.04H607.798V164.56H597.578V166.42H608.198V167.84ZM604.958 156.74V158.1C603.838 158.36 602.498 158.4 601.478 158.4H599.018V150.96H603.998V152.34H600.678V157H601.518C602.698 157 603.958 156.96 604.958 156.74ZM598.418 156.8V158.18C597.498 158.36 596.238 158.4 595.518 158.4H593.478V150.96H598.218V152.34H595.118V157H595.538C596.478 157 597.578 156.96 598.418 156.8ZM607.838 159.16H606.198V155.12H602.978V153.74H606.198V150.22H607.838V159.16ZM625.109 168.04H623.469V150.22H625.109V157.24H627.649V158.76H625.109V168.04ZM617.209 166.18L615.849 165.26C618.849 161.82 619.689 157.78 619.809 153.18H616.569V151.76H621.529C621.489 158.06 620.489 162.22 617.209 166.18ZM611.429 164.96L610.029 164.12C612.909 160.94 614.049 157.06 614.249 153.18H611.229V151.76H615.969C615.889 157.38 614.509 161.42 611.429 164.96ZM644.94 166.26H628.14V164.82H632.04V161.32H633.68V164.82H639.4V161.32H641.04V164.82H644.94V166.26ZM643.1 155.74C643.1 158.46 640.84 160.42 637.6 160.64C636.92 160.68 636.16 160.68 635.48 160.64C632.18 160.42 629.98 158.46 629.98 155.74C629.98 153.02 632.18 151.06 635.48 150.84C636.16 150.8 636.92 150.8 637.6 150.84C640.84 151.06 643.1 153.02 643.1 155.74ZM641.46 155.74C641.46 153.98 640.02 152.44 637.6 152.28C636.92 152.24 636.16 152.24 635.48 152.28C633.06 152.44 631.62 153.98 631.62 155.74C631.62 157.5 633.06 159.04 635.48 159.2C636.16 159.24 636.92 159.24 637.6 159.2C640.02 159.04 641.46 157.5 641.46 155.74ZM651.471 161.88H649.911C649.511 160.16 650.191 159.1 651.851 158.16C653.311 157.32 654.271 156.56 654.271 155.36C654.271 153.98 652.931 152.96 651.251 152.96C649.491 152.96 648.191 154.12 648.191 155.64H646.551C646.551 153.18 648.591 151.52 651.251 151.52C653.851 151.52 655.911 153.06 655.911 155.28C655.911 157.22 654.751 158.1 652.511 159.44C651.491 160.02 651.111 160.68 651.471 161.88ZM650.871 166.54C650.191 166.54 649.671 166 649.671 165.32C649.671 164.64 650.191 164.1 650.871 164.1C651.551 164.1 652.091 164.64 652.091 165.32C652.091 166 651.551 166.54 650.871 166.54ZM234.714 220.62H233.034V210.22H234.714V213.94H237.154V215.42H234.714V220.62ZM235.034 224.64C235.034 226.58 233.454 228.12 229.914 228.22C229.174 228.24 228.374 228.24 227.634 228.22C224.094 228.12 222.514 226.58 222.514 224.64C222.514 222.7 224.094 221.16 227.634 221.06C228.374 221.04 229.174 221.04 229.914 221.06C233.454 221.16 235.034 222.7 235.034 224.64ZM233.354 224.64C233.354 222.48 230.374 222.44 228.774 222.44C227.174 222.44 224.194 222.48 224.194 224.64C224.194 226.8 227.174 226.84 228.774 226.84C230.374 226.84 233.354 226.8 233.354 224.64ZM231.974 217.14V218.56C229.954 218.96 227.114 219.08 224.574 219.08H221.154V210.96H229.894V212.4H222.834V217.62H224.574C227.054 217.62 229.834 217.5 231.974 217.14ZM253.585 227.74H241.325V221.54H243.025V226.3H253.585V227.74ZM253.185 223.04H251.505V210.22H253.185V223.04ZM249.325 218.6L248.445 219.88C246.485 219.02 244.485 217.42 243.565 215.7C242.845 217.42 240.765 219.3 238.545 220.44L237.485 219.22C240.325 217.86 242.645 215.38 242.645 212.58V210.56H244.405V212.56C244.405 215.26 246.765 217.54 249.325 218.6ZM268.776 222.94V224.34C266.916 224.72 264.556 224.84 262.016 224.84H256.396V223.4H262.016C264.436 223.4 266.956 223.28 268.776 222.94ZM271.256 228.04H269.576V210.22H271.256V228.04ZM267.156 215.8C267.156 218.4 265.016 220.5 262.216 220.5C259.416 220.5 257.276 218.4 257.276 215.8C257.276 213.2 259.416 211.1 262.216 211.1C265.016 211.1 267.156 213.2 267.156 215.8ZM262.216 219.06C264.236 219.06 265.476 217.56 265.476 215.8C265.476 214.02 264.236 212.54 262.216 212.54C260.196 212.54 258.956 214.02 258.956 215.8C258.956 217.56 260.196 219.06 262.216 219.06ZM294.628 226.26H277.828V224.82H285.368V220.86C285.288 220.86 285.228 220.84 285.168 220.84C281.868 220.62 279.668 218.6 279.668 215.84C279.668 213.08 281.868 211.06 285.168 210.84C285.848 210.8 286.608 210.8 287.288 210.84C290.528 211.06 292.788 213.08 292.788 215.84C292.788 218.6 290.528 220.62 287.288 220.84C287.208 220.84 287.148 220.86 287.088 220.86V224.82H294.628V226.26ZM291.148 215.84C291.148 214.04 289.708 212.44 287.288 212.28C286.608 212.24 285.848 212.24 285.168 212.28C282.748 212.44 281.308 214.04 281.308 215.84C281.308 217.64 282.748 219.24 285.168 219.4C285.848 219.44 286.608 219.44 287.288 219.4C289.708 219.24 291.148 217.64 291.148 215.84ZM311.199 228.04H309.539V218.78H307.339V227.3H305.699V210.42H307.339V217.22H309.539V210.22H311.199V228.04ZM304.799 223V224.42C303.219 224.58 301.099 224.66 299.559 224.66H296.819V217.3H301.979V213.06H296.819V211.64H303.599V218.7H298.419V223.22H299.559C301.079 223.22 303.179 223.18 304.799 223ZM326.53 219.22V220.6C324.65 220.94 322.09 221.04 319.55 221.04H314.15V219.62H319.47V217.22H315.57V210.9H324.59V212.32H317.25V215.8H324.99V217.22H321.19V219.62C323.11 219.58 325.07 219.48 326.53 219.22ZM329.41 227.74H316.95V222.56H318.65V226.3H329.41V227.74ZM329.01 223.78H327.33V210.22H329.01V223.78ZM345.662 214.96C345.662 217.48 343.682 219.4 340.822 219.4C337.962 219.4 335.982 217.48 335.982 214.96C335.982 212.44 337.962 210.52 340.822 210.52C343.682 210.52 345.662 212.44 345.662 214.96ZM343.982 214.96C343.982 213.24 342.802 211.96 340.822 211.96C338.842 211.96 337.662 213.24 337.662 214.96C337.662 216.68 338.842 217.96 340.822 217.96C342.802 217.96 343.982 216.68 343.982 214.96ZM350.222 220.56H348.542V210.22H350.222V214.24H352.662V215.72H350.222V220.56ZM350.182 228.14H348.502V222.88H338.082V221.44H350.182V228.14ZM370.253 226.26H353.453V224.82H360.993V221.02H355.713V211.24H357.393V214.58H366.313V211.24H367.993V221.02H362.713V224.82H370.253V226.26ZM366.313 219.58V216H357.393V219.58H366.313ZM386.304 227.84H373.544V223.8H384.224V222.58H373.544V221.22H385.904V225.12H375.224V226.46H386.304V227.84ZM386.204 217.18H373.544V213.22H384.124V211.98H373.544V210.62H385.804V214.54H375.224V215.8H386.204V217.18ZM388.124 219.84H371.324V218.48H388.124V219.84ZM407.776 228.04H406.096V210.22H407.776V216.84H410.416V218.36H407.776V228.04ZM405.096 222.38V223.8C402.936 224.28 399.876 224.44 397.396 224.44H394.416V211.76H403.056V213.2H396.096V222.98H397.396C399.876 222.98 402.816 222.82 405.096 222.38ZM426.247 228.04H424.567V210.22H426.247V228.04ZM422.787 223.38L421.827 224.62C419.707 223.46 417.627 221.34 416.747 219.32C415.947 221.44 413.907 223.66 411.547 225.1L410.427 223.94C413.347 222.3 415.827 219.18 415.827 215.4V211.36H417.587V215.44C417.587 219.22 420.227 222.02 422.787 223.38ZM445.338 216.88V218.24C443.338 218.54 440.478 218.64 437.938 218.64H433.718V217.24H435.918L435.818 212.34H434.198V210.96H444.298V212.34H442.478L442.358 217.14C443.418 217.08 444.438 217 445.338 216.88ZM448.818 227.84H436.518V223.26H446.738V221.56H436.518V220.16H448.418V224.62H438.198V226.42H448.818V227.84ZM448.458 219.28H446.778V216.48H444.078V215.12H446.778V214.06H444.078V212.7H446.778V210.22H448.458V219.28ZM440.718 217.22L440.818 212.34H437.478L437.558 217.24H437.938C438.838 217.24 439.778 217.24 440.718 217.22ZM462.85 223.9L461.89 225.14C459.95 224.16 457.89 222.22 456.87 220.32C456.05 222.26 453.95 224.4 451.75 225.62L450.61 224.44C453.51 222.86 455.95 219.98 455.95 217.12V215.72H451.73V214.28H461.95V215.72H457.71V217.16C457.71 219.94 460.31 222.62 462.85 223.9ZM466.13 228.04H464.45V221.38H461.31V219.94H464.45V218.14H461.31V216.7H464.45V210.22H466.13V228.04ZM459.75 212.46H454.07V211.02H459.75V212.46ZM489.901 226.26H473.101V224.82H480.641V221.02H475.361V211.24H477.041V214.58H485.961V211.24H487.641V221.02H482.361V224.82H489.901V226.26ZM485.961 219.58V216H477.041V219.58H485.961ZM500.752 223.48L499.792 224.64C498.012 223.34 496.532 221.5 495.832 219.54C495.212 221.62 493.592 223.62 491.592 225.2L490.452 224.14C492.992 222.38 494.952 219.1 494.952 215.52V211.44H496.632V215.52C496.632 219.1 498.612 222.02 500.752 223.48ZM503.392 227.3H501.752V217.62H498.732V216.14H501.752V210.42H503.392V227.3ZM506.692 228.04H505.032V210.22H506.692V228.04ZM525.643 226.26H508.843V224.82H512.743V221.32H514.383V224.82H520.103V221.32H521.743V224.82H525.643V226.26ZM523.803 215.74C523.803 218.46 521.543 220.42 518.303 220.64C517.623 220.68 516.863 220.68 516.183 220.64C512.883 220.42 510.683 218.46 510.683 215.74C510.683 213.02 512.883 211.06 516.183 210.84C516.863 210.8 517.623 210.8 518.303 210.84C521.543 211.06 523.803 213.02 523.803 215.74ZM522.163 215.74C522.163 213.98 520.723 212.44 518.303 212.28C517.623 212.24 516.863 212.24 516.183 212.28C513.763 212.44 512.323 213.98 512.323 215.74C512.323 217.5 513.763 219.04 516.183 219.2C516.863 219.24 517.623 219.24 518.303 219.2C520.723 219.04 522.163 217.5 522.163 215.74ZM528.875 226.54C528.195 226.54 527.655 226 527.655 225.32C527.655 224.64 528.195 224.1 528.875 224.1C529.555 224.1 530.095 224.64 530.095 225.32C530.095 226 529.555 226.54 528.875 226.54Z" fill="#6D606B"/>
</svg>
