<svg width="567" height="32" viewBox="0 0 567 32" fill="none" xmlns="http://www.w3.org/2000/svg">
<path d="M29.54 28.21H1.30385e-08V24.64H19.67C21 19.005 22.015 11.27 22.155 5.775H3.185V2.205H26.215C26.005 9.555 25.095 18.375 23.695 24.64H29.54V28.21ZM65.018 31.325H61.028V-1.07288e-06H65.018V31.325ZM41.358 27.16L38.733 24.325C46.538 20.125 51.193 13.265 51.753 6.195H40.658V2.625H55.953C56.023 14.525 49.338 22.575 41.358 27.16ZM96.6424 18.165H92.6524V10.08H87.6124C86.8774 13.825 83.5874 16.625 79.1774 16.625C74.1724 16.625 70.6024 13.02 70.6024 8.54C70.6024 4.06 74.1724 0.454999 79.1774 0.454999C83.3774 0.454999 86.5974 3.045 87.5074 6.51H92.6524V-1.07288e-06H96.6424V18.165ZM96.5724 31.5H92.5824V23.065H74.6274V19.565H96.5724V31.5ZM83.7624 8.54C83.7624 6.02 82.0124 3.955 79.1774 3.955C76.3424 3.955 74.5924 6.02 74.5924 8.54C74.5924 11.06 76.3424 13.125 79.1774 13.125C82.0124 13.125 83.7624 11.06 83.7624 8.54ZM122.667 30.03H118.817V15.61H115.877C115.877 20.37 114.722 26.53 108.772 26.53C103.662 26.53 101.947 22.19 101.702 16.52C101.632 14.945 101.632 13.335 101.702 11.76C101.947 6.09 103.662 1.75 108.772 1.75C113.882 1.75 115.597 6.09 115.842 11.76V11.97H118.817V0.349999H122.667V30.03ZM128.547 31.325H124.627V-1.07288e-06H128.547V31.325ZM108.772 22.96C110.662 22.96 111.782 20.86 111.992 16.52C112.062 14.945 112.062 13.335 111.992 11.76C111.782 7.42 110.662 5.32 108.772 5.32C106.882 5.32 105.762 7.42 105.552 11.76C105.482 13.335 105.482 14.945 105.552 16.52C105.762 20.86 106.882 22.96 108.772 22.96ZM166.79 31.325H162.87V15.05H159.86V30.03H156.01V0.349999H159.86V11.27H162.87V-1.07288e-06H166.79V31.325ZM154.75 21.14V24.675C151.915 25.165 149.185 25.235 146.63 25.235H141.345V2.765H153.245V6.335H145.265V21.63H146.63C149.255 21.63 152.055 21.56 154.75 21.14ZM198.414 31.325H194.494V16.625H191.834V29.855H187.984V0.524998H191.834V12.845H194.494V-1.07288e-06H198.414V31.325ZM178.989 26.425C174.894 26.425 171.779 23.24 171.779 18.865C171.779 14.49 174.894 11.305 178.989 11.305C183.084 11.305 186.199 14.49 186.199 18.865C186.199 23.24 183.084 26.425 178.989 26.425ZM186.934 10.15H170.974V6.58H186.934V10.15ZM178.989 22.925C180.984 22.925 182.349 21.385 182.349 18.865C182.349 16.345 180.984 14.805 178.989 14.805C176.994 14.805 175.629 16.345 175.629 18.865C175.629 21.385 176.994 22.925 178.989 22.925ZM183.749 4.83H174.299V1.26H183.749V4.83ZM229.447 22.715L227.102 25.76C223.532 23.73 220.452 20.58 218.807 17.115C217.512 20.58 214.222 24.08 210.197 26.6L207.502 23.765C212.682 20.79 216.637 15.47 216.637 8.96V6.195H209.952V2.625H227.452V6.195H220.767V9.03C220.767 15.26 224.722 20.23 229.447 22.715ZM234.592 31.325H230.602V-1.07288e-06H234.592V11.655H239.107V15.365H234.592V31.325ZM266.357 7.63C266.357 11.55 263.487 15.015 257.047 15.19C255.752 15.225 254.492 15.225 253.197 15.19C246.757 15.015 243.887 11.55 243.887 7.63C243.887 3.71 246.757 0.245 253.197 0.0700001C254.492 0.0349985 255.752 0.0349985 257.047 0.0700001C263.487 0.245 266.357 3.71 266.357 7.63ZM262.927 31.325H258.867V20.895H251.377V31.045H247.317V20.895H240.352V17.325H269.892V20.895H262.927V31.325ZM262.227 7.63C262.227 5.635 260.932 3.71 257.047 3.57C256.417 3.535 255.752 3.535 255.122 3.535C254.492 3.535 253.862 3.535 253.197 3.57C249.312 3.71 248.017 5.635 248.017 7.63C248.017 9.625 249.312 11.55 253.197 11.69C253.862 11.69 254.492 11.725 255.122 11.725C255.752 11.725 256.417 11.69 257.047 11.69C260.932 11.55 262.227 9.625 262.227 7.63ZM301.166 28.56H271.626V24.99H284.471V20.44H275.441V9.24H293.186V5.39H275.441V1.855H297.176V12.74H279.431V16.87H297.876V20.44H288.671V24.99H301.166V28.56ZM329.5 31.325H325.51V-1.07288e-06H329.5V31.325ZM312.385 26.705C306.995 26.705 304.16 22.365 303.915 16.695C303.845 15.12 303.845 13.16 303.915 11.585C304.16 5.915 306.995 1.575 312.385 1.575C317.775 1.575 320.61 5.915 320.855 11.585C320.925 13.16 320.925 15.12 320.855 16.695C320.61 22.365 317.775 26.705 312.385 26.705ZM312.385 23.135C314.87 23.135 316.655 21.035 316.865 16.695C316.935 15.12 316.935 13.16 316.865 11.585C316.655 7.245 314.87 5.145 312.385 5.145C309.9 5.145 308.115 7.245 307.905 11.585C307.835 13.16 307.835 15.12 307.905 16.695C308.115 21.035 309.9 23.135 312.385 23.135ZM367.918 31.325H363.928V-1.07288e-06H367.918V31.325ZM350.803 26.705C345.413 26.705 342.578 22.365 342.333 16.695C342.263 15.12 342.263 13.16 342.333 11.585C342.578 5.915 345.413 1.575 350.803 1.575C356.193 1.575 359.028 5.915 359.273 11.585C359.343 13.16 359.343 15.12 359.273 16.695C359.028 22.365 356.193 26.705 350.803 26.705ZM350.803 23.135C353.288 23.135 355.073 21.035 355.283 16.695C355.353 15.12 355.353 13.16 355.283 11.585C355.073 7.245 353.288 5.145 350.803 5.145C348.318 5.145 346.533 7.245 346.323 11.585C346.253 13.16 346.253 15.12 346.323 16.695C346.533 21.035 348.318 23.135 350.803 23.135ZM381.623 26.705C376.233 26.705 373.503 22.365 373.258 16.695C373.188 15.12 373.188 13.16 373.258 11.585C373.503 5.915 376.233 1.575 381.623 1.575C387.013 1.575 389.743 5.915 389.988 11.585C390.058 13.16 390.058 15.12 389.988 16.695C389.743 22.365 387.013 26.705 381.623 26.705ZM398.143 31.325H394.153V-1.07288e-06H398.143V7.14H402.448V10.78H398.143V17.885H402.448V21.525H398.143V31.325ZM381.623 23.135C384.108 23.135 385.788 21.035 385.998 16.695C386.068 15.12 386.068 13.16 385.998 11.585C385.788 7.245 384.108 5.145 381.623 5.145C379.138 5.145 377.458 7.245 377.248 11.585C377.178 13.16 377.178 15.12 377.248 16.695C377.458 21.035 379.138 23.135 381.623 23.135ZM430.467 31.325H426.477V-1.07288e-06H430.467V31.325ZM406.807 27.16L404.182 24.325C411.987 20.125 416.642 13.265 417.202 6.195H406.107V2.625H421.402C421.472 14.525 414.787 22.575 406.807 27.16ZM462.897 31.325H458.977V16.625H456.317V29.855H452.467V0.524998H456.317V12.845H458.977V-1.07288e-06H462.897V31.325ZM443.472 26.425C439.377 26.425 436.262 23.24 436.262 18.865C436.262 14.49 439.377 11.305 443.472 11.305C447.567 11.305 450.682 14.49 450.682 18.865C450.682 23.24 447.567 26.425 443.472 26.425ZM451.417 10.15H435.457V6.58H451.417V10.15ZM443.472 22.925C445.467 22.925 446.832 21.385 446.832 18.865C446.832 16.345 445.467 14.805 443.472 14.805C441.477 14.805 440.112 16.345 440.112 18.865C440.112 21.385 441.477 22.925 443.472 22.925ZM448.232 4.83H438.782V1.26H448.232V4.83ZM495.046 12.145L492.806 15.365C488.081 14.35 483.426 11.83 481.186 8.75C478.946 11.83 474.291 14.35 469.566 15.365L467.326 12.145C473.171 10.885 478.036 7.945 478.981 4.655H469.741V1.085H492.631V4.655H483.391C484.336 7.945 489.166 10.885 495.046 12.145ZM495.956 21.245H483.251V31.325H479.121V21.245H466.416V17.675H495.956V21.245ZM514.595 22.855L512.32 25.62C509.345 23.38 506.965 20.44 505.915 17.395C504.865 20.65 502.205 23.94 498.845 26.565L496.045 23.905C500.455 20.79 503.815 15.33 503.815 8.925V2.065H507.875V8.925C507.875 15.05 511.025 20.3 514.595 22.855ZM519.705 30.03H515.855V13.475H511.27V9.765H515.855V0.349999H519.705V30.03ZM525.445 31.325H521.525V-1.07288e-06H525.445V31.325ZM555.355 9.8C555.355 14.875 551.4 18.27 545.73 18.655C544.54 18.725 542.93 18.725 541.74 18.655C536.07 18.27 532.115 14.875 532.115 9.8C532.115 4.725 536.07 1.33 541.74 0.944999C542.93 0.875 544.54 0.875 545.73 0.944999C551.4 1.33 555.355 4.725 555.355 9.8ZM558.505 28.28H528.965V24.71H535.16V19.215H539.22V24.71H548.25V19.215H552.31V24.71H558.505V28.28ZM551.225 9.8C551.225 7.14 549.265 4.795 545.73 4.515C545.135 4.445 544.435 4.445 543.735 4.445C543.035 4.445 542.335 4.445 541.74 4.515C538.205 4.795 536.245 7.14 536.245 9.8C536.245 12.46 538.205 14.805 541.74 15.085C542.335 15.12 543.035 15.155 543.735 15.155C544.435 15.155 545.135 15.12 545.73 15.085C549.265 14.805 551.225 12.46 551.225 9.8ZM566.084 20.09H562.479L561.849 2.765H566.679L566.084 20.09ZM564.299 28.525C562.794 28.525 561.639 27.405 561.639 25.9C561.639 24.395 562.794 23.24 564.299 23.24C565.804 23.24 566.959 24.395 566.959 25.9C566.959 27.405 565.804 28.525 564.299 28.525Z" fill="#E6EDEA"/>
</svg>
