<svg width="257" height="421" viewBox="0 0 257 421" fill="none" xmlns="http://www.w3.org/2000/svg">
<path d="M253.205 6.74C253.635 7.2 256.815 5.67 256.045 8.13C252.155 15.21 247.755 22.12 245.085 29.82C234.005 61.8 224.175 94.15 215.275 126.73C211.795 139.48 208.965 145.45 204.455 157.19C197.885 174.32 193.335 193.14 187.875 210.69C179.535 237.49 176.575 266.92 168.255 292.83C167.195 296.12 164.845 297.83 164.165 302.18C163.295 307.77 164.985 311.42 164.905 316.28C164.865 319.11 163.125 329.21 162.065 331.76C159.955 336.83 153.065 338.84 151.365 343.14C148.945 349.27 153.355 361.52 148.965 367.62C146.385 371.2 135.595 374.17 131.245 372.99C120.005 369.94 127.145 354.19 128.255 345.95C132.075 317.71 136.065 306.99 144.745 280.84C149.525 266.46 150.515 255.45 150.455 240.48C150.395 226.6 147.375 226.29 143.285 215.03C137.015 197.78 147.565 192.65 145.435 179.27C144.685 174.54 140.775 170.29 141.835 165.12C158.725 167.26 159.805 192.95 162.955 206.4L167.715 193.41C171.945 185.36 179.155 184.49 182.625 174.72C187.835 160.08 185.265 145.33 188.125 131.26C189.515 124.42 193.225 120.85 193.705 111.88C194.055 105.24 192.015 101.15 191.785 96.4C191.575 91.97 194.775 86.2 193.615 79.25C192.895 74.97 187.855 71.04 186.225 67.45C183.335 61.08 188.825 51.66 188.865 44.64C188.885 39.43 185.815 33.02 187.095 27.5L187.845 26.33C199.745 23.9 197.305 34.62 199.665 41.52C201.165 45.92 207.675 50.77 209.545 58.52C210.185 61.18 209.255 72.99 211.435 72.93L225.125 51.12C223.995 37.91 228.865 26.72 236.365 16.26C237.175 15.13 238.975 14.73 240.095 13.2C242.475 9.95 245.455 3.89 246.495 0L253.315 2.34L253.185 6.71L253.205 6.74ZM221.515 73.94C217.975 78.49 211.915 86.61 205.185 82.11C203.115 80.73 201.575 67.85 201.355 64.82C201.235 63.13 202.525 61.5 202.175 59.29C201.995 58.16 197.755 48.11 196.575 48.98C196.425 54.27 192.745 61.84 193.695 66.71C194.245 69.52 199.955 75.13 201.265 78.35C203.205 83.11 201.865 88.37 201.135 93.39C199.805 102.52 202.205 112 201.355 121.37C201.085 124.32 196.825 131.46 195.865 136.12C194.095 144.67 194.675 153.62 193.695 162.25C195.965 161.08 195.445 157.16 196.365 154.85C198.145 150.4 201.525 145.95 203.235 141.56C208.615 127.74 210.465 112.14 214.325 97.93C216.505 89.9 220.585 82.24 221.525 73.94H221.515ZM177.055 225.35C178.565 221.76 179.275 211.71 180.935 206.63C182.155 202.88 184.735 199.58 185.775 196.11C186.735 192.92 186.925 186.97 187.915 183.38C185.835 184.96 184.335 188.02 182.545 190C176.675 196.46 173.835 197.36 171.845 207.14C171.215 210.23 172.805 215.73 168.995 216.82C159.285 219.59 153.145 201.33 153.355 193.94C151.975 194.05 151.855 195.36 151.415 196.31C142.905 214.7 157.095 220.37 158.145 235.71C158.605 242.39 157.575 251.15 157.315 257.88C156.325 282.7 142.745 300.95 138.435 324.44C135.995 337.72 136.365 351.6 133.215 364.81C150.405 363.88 140.815 350.11 143.475 340.03C145.395 332.74 153.585 331.2 154.905 325.45C155.385 323.33 154.295 322 154.525 320.38C154.795 318.44 156.835 316.6 157.245 313.48C158.165 306.35 155.065 301.15 158.005 294.07C166.955 272.52 168.235 246.44 177.075 225.35H177.055Z" fill="#FF92AA"/>
<path d="M121.298 118.447L139.808 120.577C141.158 121.647 146.548 122.567 146.278 124.637C145.638 129.617 136.608 138.167 133.388 142.537C121.608 158.507 113.548 169.287 107.588 188.737C105.298 196.217 104.128 205.377 101.898 212.807C101.338 214.657 97.3584 217.307 95.9184 219.307C87.5984 230.907 88.7984 260.777 83.7884 275.337C82.9484 277.767 81.7484 278.557 80.0284 280.217V281.637C84.6784 280.017 102.098 295.137 102.868 297.687C105.528 306.447 92.8184 306.587 89.1684 310.477C84.5084 315.457 83.5784 323.807 76.3884 329.657C70.8184 334.187 65.6384 334.217 60.4884 337.487C46.0384 346.647 39.6684 380.937 32.0384 396.397C28.2784 404.027 20.5784 410.267 16.3184 417.647C12.1884 421.647 5.87841 419.947 1.52841 417.297C-4.17159 413.817 7.83841 404.977 8.77841 401.937C10.3784 396.747 5.85841 395.227 6.14841 393.627C12.4684 387.157 12.3484 376.867 14.9984 368.807C18.8084 357.197 23.4084 351.477 28.2184 341.707C34.7184 328.507 37.6284 309.517 43.3384 295.387C52.0084 273.927 65.4784 255.437 63.6284 230.357C57.9984 219.167 60.6484 208.597 61.9284 196.897C62.3184 195.777 62.8884 195.267 64.1184 195.247C67.8684 195.187 77.7684 204.157 77.1384 208.697C83.1484 203.247 82.8684 194.567 84.8684 187.157C89.4484 170.177 94.5384 153.237 99.1584 136.167C102.838 122.557 104.588 106.137 111.488 93.7774C113.298 90.5374 117.358 86.4674 119.228 83.2774C121.918 78.6674 120.708 73.3674 127.328 75.4774C132.278 77.0474 129.768 80.4774 129.888 83.3874C130.188 90.3874 129.768 95.7074 127.078 102.657C125.128 107.687 120.348 112.277 121.288 118.477L121.298 118.447ZM119.658 95.9974L115.918 102.757L117.188 103.467L120.928 96.7074L119.658 95.9974ZM116.498 105.957V104.047H115.558V105.957H116.498ZM136.668 125.177L126.128 124.627C121.678 130.447 120.418 139.247 111.218 133.817L110.738 128.047L109.288 128.987C104.638 147.587 99.7784 166.147 94.9084 184.687C91.5884 197.347 88.5484 210.247 82.4784 222.177C81.2184 224.657 78.9084 226.047 77.9184 228.667L70.4184 227.887C72.4084 231.137 71.7284 236.847 71.3684 240.827C69.0784 266.317 59.3084 277.777 50.4884 299.627C43.7584 316.297 41.6184 335.497 32.1584 350.417C28.3184 356.467 24.0684 365.997 21.9684 372.867C19.4884 380.967 19.8384 390.727 13.9084 397.497L17.1484 401.627C19.5784 398.347 23.3684 394.997 25.0584 391.317C33.0884 373.887 38.5784 338.897 56.6484 329.787C62.8284 326.667 67.0284 326.907 72.8184 320.997C77.5684 316.147 78.2384 309.757 82.8684 305.127C86.9084 301.077 91.6384 301.447 95.3684 297.487L83.1584 287.527C82.4884 287.427 75.6484 290.817 74.8584 291.367C73.1684 292.537 72.0084 295.917 70.4784 296.487C68.9484 297.057 61.3084 296.137 62.7284 292.747C65.3684 289.577 66.7084 284.317 68.6384 281.307C70.3884 278.567 75.9284 273.707 76.7184 271.147C79.8984 260.917 81.2584 241.397 82.9084 230.297C84.9184 216.827 90.1884 217.167 93.9384 208.687C99.6984 195.667 100.958 178.977 107.678 164.827C114.188 151.117 128.538 138.227 136.648 125.167L136.668 125.177ZM69.4584 224.047V220.217H68.5184V224.047H69.4584Z" fill="#FF92AA"/>
</svg>
