<svg width="483" height="69" viewBox="0 0 483 69" fill="none" xmlns="http://www.w3.org/2000/svg">
<rect width="483" height="68.5424" fill="#D9D9D9"/>
<path d="M59.6687 49.7873H57.0718V22.2419H59.6687V32.0111H63.7495V34.3606H59.6687V49.7873ZM55.526 41.1929V43.3879C52.1872 43.9753 47.4572 44.068 43.6237 44.068H39.141V24.1586H41.7379V41.8112H43.6237C47.4572 41.8112 52.0017 41.7185 55.526 41.1929ZM85.0053 41.904V44.068C82.1302 44.6554 78.4822 44.8409 74.556 44.8409H65.8688V42.615H74.556C78.2967 42.615 82.1921 42.4295 85.0053 41.904ZM88.8388 49.7873H86.242V22.2419H88.8388V49.7873ZM82.5012 30.8672C82.5012 34.8862 79.1933 38.1323 74.8652 38.1323C70.537 38.1323 67.2291 34.8862 67.2291 30.8672C67.2291 26.8483 70.537 23.6022 74.8652 23.6022C79.1933 23.6022 82.5012 26.8483 82.5012 30.8672ZM74.8652 35.9064C77.9876 35.9064 79.9043 33.5878 79.9043 30.8672C79.9043 28.1158 77.9876 25.8281 74.8652 25.8281C71.7427 25.8281 69.826 28.1158 69.826 30.8672C69.826 33.5878 71.7427 35.9064 74.8652 35.9064ZM102.503 42.1325C101.993 41.4611 101.657 40.736 101.496 39.9572C101.362 39.1516 101.415 38.3325 101.657 37.4999C101.899 36.6674 102.355 35.8483 103.027 35.0427C103.698 34.2101 104.598 33.4045 105.726 32.6257C106.719 31.9274 107.7 31.4709 108.666 31.256C109.633 31.0143 110.546 30.9606 111.406 31.0949C112.265 31.2292 113.057 31.538 113.782 32.0214C114.507 32.5048 115.139 33.1091 115.676 33.8342C116.24 34.613 116.575 35.4321 116.683 36.2914C116.817 37.124 116.736 37.9565 116.441 38.789C116.146 39.6215 115.662 40.4272 114.991 41.206C114.319 41.9848 113.474 42.6965 112.453 43.341C110.493 44.5764 108.626 45.0732 106.854 44.8315C105.081 44.563 103.631 43.6633 102.503 42.1325ZM125.827 20.5809C126.311 20.2318 126.7 20.1378 126.995 20.2989C127.291 20.4332 127.438 20.836 127.438 21.5074V36.372C127.922 36.0229 128.311 35.8483 128.607 35.8483H132.917C133.454 35.8483 133.723 35.9826 133.723 36.2512C133.723 36.4929 133.468 36.7748 132.957 37.0971C132.581 37.3388 132.219 37.5939 131.87 37.8625C131.547 38.1311 131.239 38.413 130.943 38.7084C130.567 39.0844 129.896 39.2724 128.929 39.2724H127.438V45.758C127.438 46.3757 127.277 46.8457 126.955 47.168C126.713 47.4097 126.311 47.7722 125.747 48.2556C125.183 48.7659 124.632 49.2224 124.095 49.6253C123.746 49.8938 123.397 49.9475 123.048 49.7864C122.725 49.6521 122.564 49.3298 122.564 48.8196V26.0192C122.564 25.6969 122.47 25.5089 122.282 25.4552C122.121 25.4015 121.852 25.5089 121.477 25.7775C121.235 25.9655 120.98 26.0595 120.711 26.0595C120.443 26.0595 120.241 25.9655 120.107 25.7775C119.946 25.5626 119.905 25.3209 119.986 25.0524C120.093 24.7838 120.295 24.5421 120.59 24.3273L125.827 20.5809ZM106.612 39.635C107.015 40.1184 107.485 40.5078 108.022 40.8032C108.559 41.0986 109.083 41.3134 109.593 41.4477C110.13 41.582 110.613 41.6491 111.043 41.6491C111.473 41.6223 111.768 41.5417 111.929 41.4074C112.09 41.3 112.238 41.0583 112.372 40.6823C112.507 40.3064 112.574 39.8632 112.574 39.353C112.601 38.8159 112.534 38.2653 112.372 37.7014C112.211 37.1105 111.929 36.56 111.527 36.0497C111.097 35.5663 110.6 35.1769 110.036 34.8815C109.472 34.5593 108.908 34.331 108.344 34.1967C107.807 34.0624 107.31 33.9953 106.854 33.9953C106.397 33.9953 106.088 34.049 105.927 34.1564C105.766 34.2907 105.632 34.5593 105.524 34.9621C105.417 35.3381 105.377 35.7946 105.403 36.3317C105.43 36.842 105.538 37.3925 105.726 37.9833C105.914 38.5742 106.209 39.1247 106.612 39.635ZM159.077 20.5809C159.56 20.2318 159.949 20.1378 160.245 20.2989C160.54 20.4332 160.688 20.836 160.688 21.5074V45.758C160.688 46.3757 160.527 46.8457 160.205 47.168C159.963 47.4097 159.56 47.7722 158.996 48.2556C158.432 48.7659 157.882 49.2224 157.344 49.6253C156.995 49.8938 156.646 49.9475 156.297 49.7864C155.975 49.6521 155.814 49.3298 155.814 48.8196V26.0192C155.814 25.6969 155.72 25.5089 155.532 25.4552C155.371 25.4015 155.102 25.5089 154.726 25.7775C154.484 25.9655 154.229 26.0595 153.961 26.0595C153.692 26.0595 153.491 25.9655 153.356 25.7775C153.195 25.5626 153.155 25.3209 153.236 25.0524C153.343 24.7838 153.544 24.5421 153.84 24.3273L159.077 20.5809ZM149.127 30.4503C149.664 30.4503 149.932 30.5846 149.932 30.8532C149.932 31.0949 149.677 31.3769 149.167 31.6991C148.791 31.9408 148.428 32.196 148.079 32.4645C147.757 32.7331 147.448 33.0151 147.153 33.3105C146.777 33.6864 146.105 33.8744 145.139 33.8744H144.051C144.158 34.0356 144.226 34.1564 144.252 34.237C144.36 34.5861 144.36 35.0561 144.252 35.6469C144.145 36.2377 143.903 36.9763 143.527 37.8625C143.071 38.9367 142.44 39.9707 141.634 40.9643C140.828 41.9311 139.969 42.7368 139.056 43.3813C138.17 43.999 137.203 44.5227 136.155 44.9524C135.135 45.3821 134.249 45.6641 133.497 45.7983C133.121 45.852 132.812 45.8655 132.57 45.8386C132.355 45.7849 132.221 45.7043 132.167 45.5969C132.114 45.4895 132.167 45.3552 132.328 45.1941C132.49 45.0061 132.704 44.8181 132.973 44.6301C133.107 44.5495 133.322 44.4153 133.618 44.2273C133.913 44.0124 134.249 43.7707 134.625 43.5022C135.001 43.2336 135.39 42.9516 135.793 42.6562C136.196 42.334 136.558 42.0117 136.881 41.6894C137.498 41.0986 137.982 40.4675 138.331 39.7961C138.707 39.1247 138.948 38.507 139.056 37.9431C139.163 37.3791 139.204 36.9225 139.177 36.5734C139.15 36.1974 139.096 35.8618 139.016 35.5663C138.935 35.2441 138.975 35.0024 139.136 34.8412C139.324 34.6801 139.512 34.5727 139.7 34.519L141.674 33.8744H134.222C133.98 33.8744 133.779 33.8342 133.618 33.7536C133.456 33.673 133.376 33.5656 133.376 33.4313C133.376 33.297 133.483 33.1628 133.698 33.0285C133.913 32.8674 134.128 32.7196 134.343 32.5854C134.557 32.4511 134.826 32.2497 135.148 31.9811C135.471 31.7126 135.779 31.444 136.075 31.1754C136.585 30.692 137.404 30.4503 138.532 30.4503H149.127ZM144.333 39.5947C144.521 39.3261 144.857 39.2321 145.34 39.3127C145.689 39.3664 146.052 39.447 146.428 39.5544C146.804 39.635 147.233 39.7692 147.717 39.9572C148.2 40.1452 148.63 40.4272 149.006 40.8032C149.382 41.1792 149.623 41.6491 149.731 42.2131C149.892 43.0725 149.422 44.1199 148.321 45.3552C148.133 45.5701 147.945 45.6641 147.757 45.6372C147.569 45.5835 147.421 45.4358 147.314 45.1941C147.26 45.0598 147.18 44.9121 147.072 44.751C146.965 44.563 146.79 44.3213 146.549 44.0259C145.877 43.2202 145.139 42.7368 144.333 42.5757C144.011 42.5219 143.756 42.4817 143.568 42.4548C143.38 42.4011 143.178 42.3474 142.963 42.2937C142.748 42.24 142.614 42.1057 142.56 41.8908C142.507 41.676 142.534 41.488 142.641 41.3269C142.748 41.1657 142.883 41.0046 143.044 40.8435C143.205 40.6555 143.353 40.5212 143.487 40.4406C143.836 40.1721 144.118 39.8901 144.333 39.5947ZM187.613 18.1639C188.15 18.1639 188.419 18.2982 188.419 18.5667C188.419 18.8084 188.164 19.0904 187.653 19.4127C187.277 19.6544 186.915 19.9095 186.566 20.1781C186.243 20.4466 185.935 20.7286 185.639 21.024C185.263 21.4 184.592 21.588 183.625 21.588H174.561C174.454 22.7159 174.696 23.7767 175.286 24.7704C175.877 25.7372 176.737 26.516 177.864 27.1068C178.643 27.5365 179.449 27.8051 180.281 27.9125C181.141 27.9931 181.947 27.9796 182.699 27.8722C183.477 27.7648 184.189 27.5902 184.834 27.3485C185.505 27.08 186.055 26.798 186.485 26.5026C186.7 26.3683 186.901 26.2743 187.089 26.2206C187.304 26.14 187.479 26.1534 187.613 26.2609C187.721 26.3414 187.774 26.4623 187.774 26.6234C187.801 26.7846 187.747 26.9725 187.613 27.1874C186.969 28.1005 186.176 28.8927 185.236 29.5641C184.323 30.2355 183.33 30.7458 182.255 31.0949C181.181 31.4171 180.08 31.5783 178.952 31.5783C177.851 31.5783 176.804 31.35 175.81 30.8935C174.924 30.4906 174.105 29.9804 173.353 29.3627C172.601 28.7182 171.97 28.0199 171.459 27.268C170.976 26.516 170.64 25.764 170.452 25.0121C170.291 24.2333 170.345 23.5082 170.613 22.8368C170.775 22.4339 171.137 22.0177 171.701 21.588H169.566C169.324 21.588 169.123 21.5477 168.962 21.4671C168.801 21.3866 168.72 21.2792 168.72 21.1449C168.72 21.0106 168.828 20.8763 169.042 20.742C169.257 20.5809 169.472 20.4332 169.687 20.2989C169.902 20.1646 170.17 19.9632 170.493 19.6947C170.815 19.4261 171.124 19.1576 171.419 18.889C171.929 18.4056 172.748 18.1639 173.876 18.1639H187.613ZM193.938 35.8483C194.475 35.8483 194.743 35.9826 194.743 36.2512C194.743 36.4929 194.488 36.7748 193.978 37.0971C193.602 37.3388 193.239 37.5939 192.89 37.8625C192.568 38.1311 192.259 38.413 191.964 38.7084C191.588 39.0844 190.916 39.2724 189.95 39.2724H163.765C163.524 39.2724 163.322 39.2321 163.161 39.1516C163 39.071 162.919 38.9636 162.919 38.8293C162.919 38.695 163.027 38.5607 163.242 38.4265C163.456 38.2653 163.671 38.1176 163.886 37.9833C164.101 37.8491 164.37 37.6477 164.692 37.3791C165.014 37.1105 165.323 36.842 165.618 36.5734C166.129 36.09 166.948 35.8483 168.076 35.8483H193.938ZM185.035 12.4034C185.572 12.4034 185.841 12.5376 185.841 12.8062C185.841 13.0479 185.585 13.3299 185.075 13.6522C184.699 13.8939 184.337 14.149 183.988 14.4175C183.665 14.6861 183.356 14.9681 183.061 15.2635C182.685 15.6395 182.014 15.8275 181.047 15.8275H173.635C173.393 15.8275 173.192 15.7872 173.03 15.7066C172.869 15.626 172.789 15.5186 172.789 15.3843C172.789 15.2501 172.896 15.1158 173.111 14.9815C173.326 14.8204 173.541 14.6727 173.756 14.5384C173.97 14.4041 174.239 14.2027 174.561 13.9341C174.884 13.6656 175.192 13.397 175.488 13.1285C175.998 12.6451 176.817 12.4034 177.945 12.4034H185.035ZM228.04 37.8541H202.071V35.6591H228.04V37.8541ZM225.536 49.3236H205.503V40.6364H208.131V47.0977H225.536V49.3236ZM225.072 32.2584H205.503V22.582H208.1V30.0634H225.072V32.2584ZM258.572 34.1752H239.59V23.2621H258.572V34.1752ZM255.975 31.9493V25.488H242.187V31.9493H255.975ZM262.065 40.2345H250.379V49.7873H247.782V40.2345H236.096V38.0086H262.065V40.2345ZM287.278 40.2345H284.681V30.6199H279.395C278.931 33.9588 276.18 36.5556 272.068 36.5556C267.554 36.5556 264.648 33.4332 264.648 29.6306C264.648 25.8281 267.678 22.7056 272.068 22.7056C275.963 22.7056 278.807 25.1788 279.364 28.394H284.681V22.2419H287.278V40.2345ZM276.891 29.6306C276.891 27.0337 275.097 24.9315 272.068 24.9315C269.038 24.9315 267.245 27.0337 267.245 29.6306C267.245 32.1657 269.038 34.3297 272.068 34.3297C275.097 34.3297 276.891 32.1657 276.891 29.6306ZM288.576 47.7469L287.433 49.7564C283.383 48.6435 279.426 46.263 277.756 43.1715C276.087 46.263 272.13 48.6435 268.08 49.7564L266.936 47.7469C271.635 46.6031 276.396 43.1715 276.396 39.709V38.5033H279.116V39.709C279.116 43.1715 283.877 46.6031 288.576 47.7469ZM314.593 49.7873H311.996V22.2419H314.593V49.7873ZM299.538 45.4592C295.086 45.4592 292.736 41.6875 292.52 36.6793C292.458 35.2881 292.458 33.866 292.52 32.4748C292.736 27.4666 295.086 23.6949 299.538 23.6949C303.989 23.6949 306.339 27.4666 306.555 32.4748C306.617 33.866 306.617 35.2881 306.555 36.6793C306.339 41.6875 303.989 45.4592 299.538 45.4592ZM299.538 43.2333C302.351 43.2333 303.835 40.5128 304.02 36.6793C304.082 35.2881 304.082 33.866 304.02 32.4748C303.835 28.6413 302.351 25.9208 299.538 25.9208C296.724 25.9208 295.24 28.6413 295.055 32.4748C294.993 33.866 294.993 35.2881 295.055 36.6793C295.24 40.5128 296.724 43.2333 299.538 43.2333ZM342.527 37.6067H339.93V30.6199H334.644C334.18 33.9588 331.428 36.5556 327.317 36.5556C322.803 36.5556 319.897 33.4332 319.897 29.6306C319.897 25.8281 322.927 22.7056 327.317 22.7056C331.212 22.7056 334.056 25.1788 334.613 28.394H339.93V22.2419H342.527V37.6067ZM344.907 48.1179L343.423 49.8492C340.981 48.5198 338.755 46.3557 337.982 44.3153C337.024 46.5412 334.922 48.6435 332.881 49.8492C330.841 48.6435 328.739 46.5412 327.78 44.3153C327.007 46.3557 324.782 48.5198 322.339 49.8492L320.855 48.1179C323.854 46.6649 326.513 43.5734 326.513 40.6673V38.967H329.048V40.6673C329.048 43.0169 331.15 46.0466 332.881 47.1905C334.613 46.0466 336.715 43.0169 336.715 40.6673V38.967H339.25V40.6673C339.25 43.5734 341.909 46.6649 344.907 48.1179ZM332.139 29.6306C332.139 27.0337 330.346 24.9315 327.317 24.9315C324.287 24.9315 322.494 27.0337 322.494 29.6306C322.494 32.1657 324.287 34.3297 327.317 34.3297C330.346 34.3297 332.139 32.1657 332.139 29.6306ZM372.563 36.061H346.594V33.9278H372.563V36.061ZM369.749 49.4782H350.025V42.8314H366.534V40.5746H350.025V38.4415H369.131V44.9027H352.622V47.3141H369.749V49.4782ZM369.811 27.0337C369.811 31.7638 363.103 31.9802 359.578 31.9802C356.054 31.9802 349.345 31.7638 349.345 27.0337C349.345 22.3037 356.054 22.0873 359.578 22.0873C363.103 22.0873 369.811 22.3037 369.811 27.0337ZM367.214 27.0337C367.214 25.4571 365.545 24.3441 361.495 24.2205C360.351 24.1896 358.805 24.1896 357.662 24.2205C353.612 24.3441 351.942 25.4571 351.942 27.0337C351.942 28.6104 353.612 29.7234 357.662 29.847C358.805 29.8779 360.351 29.8779 361.495 29.847C365.545 29.7234 367.214 28.6104 367.214 27.0337ZM397.157 49.7873H394.622V22.2419H397.157V33.0931H401.084V35.4427H397.157V49.7873ZM384.946 46.9122L382.844 45.4901C387.481 40.1727 388.779 33.9278 388.965 26.8173H383.957V24.6224H391.624C391.562 34.3606 390.016 40.791 384.946 46.9122ZM376.011 45.0264L373.847 43.7279C378.299 38.8124 380.061 32.8149 380.37 26.8173H375.702V24.6224H383.029C382.905 33.3095 380.772 39.5544 376.011 45.0264ZM427.811 47.0359H401.843V44.81H407.871V39.3998H410.406V44.81H419.248V39.3998H421.783V44.81H427.811V47.0359ZM424.967 30.7745C424.967 34.979 421.474 38.0086 416.466 38.3487C415.415 38.4105 414.24 38.4105 413.189 38.3487C408.088 38.0086 404.687 34.979 404.687 30.7745C404.687 26.57 408.088 23.5403 413.189 23.2003C414.24 23.1384 415.415 23.1384 416.466 23.2003C421.474 23.5403 424.967 26.57 424.967 30.7745ZM422.432 30.7745C422.432 28.0539 420.206 25.6735 416.466 25.4262C415.415 25.3643 414.24 25.3643 413.189 25.4262C409.448 25.6735 407.222 28.0539 407.222 30.7745C407.222 33.495 409.448 35.8755 413.189 36.1228C414.24 36.1846 415.415 36.1846 416.466 36.1228C420.206 35.8755 422.432 33.495 422.432 30.7745ZM437.907 40.2654H435.496C434.877 37.6067 435.928 35.9682 438.494 34.5152C440.751 33.2168 442.235 32.042 442.235 30.1871C442.235 28.0539 440.164 26.4773 437.567 26.4773C434.846 26.4773 432.837 28.2704 432.837 30.6199H430.302C430.302 26.8173 433.455 24.2514 437.567 24.2514C441.586 24.2514 444.77 26.6319 444.77 30.0634C444.77 33.0622 442.977 34.4225 439.515 36.4938C437.938 37.3903 437.35 38.4105 437.907 40.2654ZM436.98 47.4687C435.928 47.4687 435.125 46.634 435.125 45.5829C435.125 44.5317 435.928 43.697 436.98 43.697C438.031 43.697 438.865 44.5317 438.865 45.5829C438.865 46.634 438.031 47.4687 436.98 47.4687Z" fill="#564F56"/>
</svg>
