<svg width="256" height="82" viewBox="0 0 256 82" fill="none" xmlns="http://www.w3.org/2000/svg">
<path d="M35.1748 24.7694L33.2648 31.9794L38.5348 38.1794L42.4948 33.5194L48.5048 35.4193L49.0848 41.0894C49.9748 42.6194 51.2748 42.9094 52.9148 43.0694C55.9348 43.3594 67.9348 41.7393 70.4348 40.3194C73.8048 38.4094 71.0248 37.5794 72.0848 35.3594C73.2948 32.6994 78.4148 33.3694 80.5048 34.3993C81.7548 35.0193 81.7548 36.8694 82.7548 37.1294C83.5048 37.3194 96.0748 33.7794 97.7948 33.1493C105.435 30.3393 111.065 22.7894 119.035 25.7094C120.065 25.7593 119.845 27.4194 119.675 28.1294C118.245 34.1394 92.5148 42.8894 86.0548 43.0093C85.6348 43.4293 87.8048 53.1894 88.2648 54.7294C90.4548 62.0793 94.1348 68.0894 96.9748 74.3894C97.1348 74.7394 98.5048 74.7494 98.5748 75.2494C99.1748 79.4594 91.2648 83.2994 87.4148 80.5194C83.3148 77.5594 78.2448 51.7194 75.4848 45.8894C66.7648 49.1394 58.8048 50.0593 49.5048 50.1493C46.4248 56.8993 49.0848 63.4994 50.3648 70.2894C35.0048 83.5094 38.7248 57.5993 38.8248 48.4794L27.4548 39.5993C25.3748 38.5393 17.5748 45.0494 15.0148 46.3894C10.5748 48.6994 3.70483 52.7694 0.0848261 47.8194C-1.14517 45.0894 11.3748 40.3694 13.4448 39.0194C15.2248 37.8594 18.1248 33.9894 20.7048 32.8094C21.1748 31.2394 13.4048 21.2593 11.9548 18.6994C10.2948 15.7593 4.74483 5.22935 5.84483 2.73935C7.31483 -0.600648 12.2648 -0.840648 14.4848 1.76935C15.8948 3.42935 18.6648 12.5194 20.5648 15.8394C22.1448 18.5894 24.5648 21.0194 25.9948 23.9294L35.1548 24.7794L35.1748 24.7694Z" fill="#FF92AA"/>
<path d="M177.085 6.68935C179.285 8.63935 180.715 28.9494 190.705 26.6794L189.745 30.5094C198.575 29.7794 208.435 31.6494 217.115 30.5194C221.235 29.9894 233.525 27.6794 237.015 26.4194C247.135 22.7694 243.395 7.49935 255.955 11.3594C255.155 21.7294 246.315 32.6094 235.825 33.8794C235.805 34.5994 240.685 35.3894 242.105 36.2494C242.855 36.7094 254.595 47.4893 255.085 48.2294C257.955 52.5494 249.875 55.9794 246.405 54.0194C245.055 53.2594 240.945 47.4494 239.195 45.8794C237.725 44.5694 234.905 42.2994 233.305 41.1894C230.665 39.3694 227.945 41.1693 228.115 35.3493L206.495 39.0894C205.655 40.2894 205.935 55.0093 206.065 57.8694C206.285 62.5694 209.875 66.3093 205.175 71.3593C196.765 80.4094 195.645 60.1693 195.465 55.0294C195.265 49.3793 196.815 43.4693 195.565 38.5993L182.755 37.3993C176.275 44.8393 165.625 56.9794 155.245 49.0993C155.585 42.5894 160.855 45.4994 164.035 44.7194C168.765 43.5594 172.965 34.4194 176.145 30.8094C173.275 27.0794 162.485 7.67935 170.265 5.67935C171.185 5.43935 176.695 6.33935 177.075 6.67935L177.085 6.68935Z" fill="#FF92AA"/>
</svg>
