<svg width="278" height="32" viewBox="0 0 278 32" fill="none" xmlns="http://www.w3.org/2000/svg">
<path d="M23.8 31.325H19.81V-5.06639e-05H23.8V11.1299H28.28V14.84H23.8V31.325ZM18.515 20.685V24.22C14.595 24.99 9.94 25.165 5.635 25.165H1.04308e-07V2.62495H15.575V6.19495H3.99V21.56H5.635C9.87 21.56 14.315 21.385 18.515 20.685ZM53.783 16.415H38.278V1.22495H53.783V16.415ZM63.618 30.8H41.743V19.88H45.803V27.3H63.618V30.8ZM62.568 22.54H58.578V-5.06639e-05H62.568V6.75495H66.698V10.395H62.568V22.54ZM49.793 12.9149V4.72495H42.268V12.9149H49.793ZM97.4824 15.89H67.9424V12.53H97.4824V15.89ZM94.4374 30.975H71.6874V22.855H89.7474V21.21H71.6874V17.92H93.7374V25.935H75.6774V27.65H94.4374V30.975ZM94.0874 10.64H71.6874V0.839949H93.7374V4.09495H75.6774V7.34995H94.0874V10.64ZM125.817 31.325H121.827V15.505H116.787C116.787 20.86 114.862 26.705 108.492 26.705C103.102 26.705 100.477 22.365 100.232 16.695C100.162 15.12 100.162 13.1599 100.232 11.585C100.477 5.91495 103.102 1.57495 108.492 1.57495C113.882 1.57495 116.507 5.91495 116.752 11.585V11.8649H121.827V-5.06639e-05H125.817V31.325ZM108.492 23.135C110.977 23.135 112.552 21.035 112.762 16.695C112.832 15.12 112.832 13.1599 112.762 11.585C112.552 7.24495 110.977 5.14495 108.492 5.14495C106.007 5.14495 104.432 7.24495 104.222 11.585C104.152 13.1599 104.152 15.12 104.222 16.695C104.432 21.035 106.007 23.135 108.492 23.135ZM157.83 14.035L155.695 17.15C152.51 15.855 149.5 13.615 147.855 10.9899C146.56 13.685 143.41 16.415 139.595 18.13L137.075 15.26C142.36 12.985 145.685 9.06495 145.685 4.82995V4.72495H139V1.22495H156.15V4.72495H149.815V4.82995C149.815 8.99495 153.28 12.285 157.83 14.035ZM167.315 28.735L164.935 31.395C162.485 29.96 160.175 28 159.055 25.795C158.145 28.07 155.835 30.17 153.455 31.395C151.075 30.17 148.765 28.07 147.855 25.795C146.735 28 144.425 29.96 141.975 31.395L139.595 28.735C143.235 26.95 145.86 23.66 145.86 20.755V19.355H149.85V20.755C149.85 23.38 151.705 25.9 153.455 27.265C155.205 25.9 157.06 23.38 157.06 20.755V19.355H161.05V20.755C161.05 23.66 163.675 26.95 167.315 28.735ZM164.585 17.955H160.595V12.6H156.885V9.09995H160.595V7.17495H156.885V3.67495H160.595V-5.06639e-05H164.585V17.955ZM195.509 31.325H191.519V15.505H186.479C186.479 20.86 184.554 26.705 178.184 26.705C172.794 26.705 170.169 22.365 169.924 16.695C169.854 15.12 169.854 13.1599 169.924 11.585C170.169 5.91495 172.794 1.57495 178.184 1.57495C183.574 1.57495 186.199 5.91495 186.444 11.585V11.8649H191.519V-5.06639e-05H195.509V31.325ZM178.184 23.135C180.669 23.135 182.244 21.035 182.454 16.695C182.524 15.12 182.524 13.1599 182.454 11.585C182.244 7.24495 180.669 5.14495 178.184 5.14495C175.699 5.14495 174.124 7.24495 173.914 11.585C173.844 13.1599 173.844 15.12 173.914 16.695C174.124 21.035 175.699 23.135 178.184 23.135ZM226.574 9.79995C226.574 14.875 222.619 18.27 216.949 18.655C215.759 18.725 214.149 18.725 212.959 18.655C207.289 18.27 203.334 14.875 203.334 9.79995C203.334 4.72495 207.289 1.32995 212.959 0.94495C214.149 0.874951 215.759 0.874951 216.949 0.94495C222.619 1.32995 226.574 4.72495 226.574 9.79995ZM229.724 28.28H200.184V24.71H206.379V19.215H210.439V24.71H219.469V19.215H223.529V24.71H229.724V28.28ZM222.444 9.79995C222.444 7.13995 220.484 4.79495 216.949 4.51495C216.354 4.44495 215.654 4.44495 214.954 4.44495C214.254 4.44495 213.554 4.44495 212.959 4.51495C209.424 4.79495 207.464 7.13995 207.464 9.79995C207.464 12.46 209.424 14.805 212.959 15.085C213.554 15.12 214.254 15.155 214.954 15.155C215.654 15.155 216.354 15.12 216.949 15.085C220.484 14.805 222.444 12.46 222.444 9.79995ZM250.222 2.20495L256.767 13.3H252.322L247.982 5.52995L243.677 13.3H239.232L245.742 2.20495H250.222ZM270.729 2.20495L277.274 13.3H272.829L268.489 5.52995L264.184 13.3H259.739L266.249 2.20495H270.729Z" fill="#E6EDEA"/>
</svg>
