<svg width="483" height="69" viewBox="0 0 483 69" fill="none" xmlns="http://www.w3.org/2000/svg">
<rect width="483" height="68.5424" fill="#D9D9D9"/>
<path d="M79.4646 38.3178H76.8678V22.2419H79.4646V27.9921H83.2363V30.2798H79.4646V38.3178ZM79.9593 44.5317C79.9593 47.5305 77.517 49.911 72.045 50.0656C70.9011 50.0965 69.6645 50.0965 68.5207 50.0656C63.0487 49.911 60.6064 47.5305 60.6064 44.5317C60.6064 41.533 63.0487 39.1525 68.5207 38.9979C69.6645 38.967 70.9011 38.967 72.045 38.9979C77.517 39.1525 79.9593 41.533 79.9593 44.5317ZM77.3624 44.5317C77.3624 41.1929 72.756 41.1311 70.2828 41.1311C67.8096 41.1311 63.2032 41.1929 63.2032 44.5317C63.2032 47.8706 67.8096 47.9324 70.2828 47.9324C72.756 47.9324 77.3624 47.8706 77.3624 44.5317ZM75.2292 32.9385V35.1335C72.1068 35.7518 67.7169 35.9373 63.7906 35.9373H58.5041V23.3858H72.0141V25.6116H61.101V33.6805H63.7906C67.6241 33.6805 71.9213 33.495 75.2292 32.9385ZM108.635 49.3236H89.6838V39.7399H92.3116V47.0977H108.635V49.3236ZM108.016 42.0585H105.42V22.2419H108.016V42.0585ZM102.05 35.1954L100.69 37.1739C97.6599 35.8446 94.5684 33.3714 93.1463 30.7127C92.0333 33.3714 88.8182 36.2774 85.3866 38.0396L83.7481 36.1537C88.138 34.0515 91.7242 30.218 91.7242 25.8899V22.7675H94.4447V25.859C94.4447 30.0325 98.0927 33.5569 102.05 35.1954ZM132.117 41.904V44.068C129.241 44.6554 125.593 44.8409 121.667 44.8409H112.98V42.615H121.667C125.408 42.615 129.303 42.4295 132.117 41.904ZM135.95 49.7873H133.353V22.2419H135.95V49.7873ZM129.612 30.8672C129.612 34.8862 126.305 38.1323 121.976 38.1323C117.648 38.1323 114.34 34.8862 114.34 30.8672C114.34 26.8483 117.648 23.6022 121.976 23.6022C126.305 23.6022 129.612 26.8483 129.612 30.8672ZM121.976 35.9064C125.099 35.9064 127.016 33.5878 127.016 30.8672C127.016 28.1158 125.099 25.8281 121.976 25.8281C118.854 25.8281 116.937 28.1158 116.937 30.8672C116.937 33.5878 118.854 35.9064 121.976 35.9064ZM149.614 42.1325C149.104 41.4611 148.768 40.736 148.607 39.9572C148.473 39.1516 148.527 38.3325 148.768 37.4999C149.01 36.6674 149.467 35.8483 150.138 35.0427C150.809 34.2101 151.709 33.4045 152.837 32.6257C153.831 31.9274 154.811 31.4709 155.778 31.256C156.744 31.0143 157.658 30.9606 158.517 31.0949C159.376 31.2292 160.169 31.538 160.894 32.0214C161.619 32.5048 162.25 33.1091 162.787 33.8342C163.351 34.613 163.687 35.4321 163.794 36.2914C163.928 37.124 163.848 37.9565 163.552 38.789C163.257 39.6215 162.773 40.4272 162.102 41.206C161.431 41.9848 160.585 42.6965 159.564 43.341C157.604 44.5764 155.737 45.0732 153.965 44.8315C152.192 44.563 150.742 43.6633 149.614 42.1325ZM174.348 20.5809C174.832 20.2318 175.221 20.1378 175.516 20.2989C175.812 20.4332 175.96 20.836 175.96 21.5074V45.758C175.96 46.3757 175.798 46.8457 175.476 47.168C175.235 47.4097 174.832 47.7722 174.268 48.2556C173.704 48.7659 173.153 49.2224 172.616 49.6253C172.267 49.8938 171.918 49.9475 171.569 49.7864C171.246 49.6521 171.085 49.3298 171.085 48.8196V26.0192C171.085 25.6969 170.991 25.5089 170.803 25.4552C170.642 25.4015 170.374 25.5089 169.998 25.7775C169.756 25.9655 169.501 26.0595 169.232 26.0595C168.964 26.0595 168.762 25.9655 168.628 25.7775C168.467 25.5626 168.427 25.3209 168.507 25.0524C168.615 24.7838 168.816 24.5421 169.111 24.3273L174.348 20.5809ZM153.723 39.635C154.126 40.1184 154.596 40.5078 155.133 40.8032C155.67 41.0986 156.194 41.3134 156.704 41.4477C157.241 41.582 157.725 41.6491 158.154 41.6491C158.584 41.6223 158.879 41.5417 159.041 41.4074C159.202 41.3 159.349 41.0583 159.484 40.6823C159.618 40.3064 159.685 39.8632 159.685 39.353C159.712 38.8159 159.645 38.2653 159.484 37.7014C159.323 37.1105 159.041 36.56 158.638 36.0497C158.208 35.5663 157.711 35.1769 157.147 34.8815C156.583 34.5593 156.019 34.331 155.455 34.1967C154.918 34.0624 154.421 33.9953 153.965 33.9953C153.508 33.9953 153.199 34.049 153.038 34.1564C152.877 34.2907 152.743 34.5593 152.636 34.9621C152.528 35.3381 152.488 35.7946 152.515 36.3317C152.542 36.842 152.649 37.3925 152.837 37.9833C153.025 38.5742 153.32 39.1247 153.723 39.635ZM202.732 20.5809C203.216 20.2318 203.605 20.1378 203.901 20.2989C204.196 20.4332 204.344 20.836 204.344 21.5074V33.1896C204.827 32.8405 205.216 32.6659 205.512 32.6659H209.822C210.359 32.6659 210.628 32.8002 210.628 33.0688C210.628 33.3105 210.373 33.5925 209.863 33.9147C209.487 34.1564 209.124 34.4115 208.775 34.6801C208.453 34.9487 208.144 35.2306 207.848 35.5261C207.472 35.902 206.801 36.09 205.834 36.09H204.344V39.7961C204.827 39.447 205.216 39.2724 205.512 39.2724H209.822C210.359 39.2724 210.628 39.4067 210.628 39.6752C210.628 39.917 210.373 40.1989 209.863 40.5212C209.487 40.7629 209.124 41.018 208.775 41.2866C208.453 41.5551 208.144 41.8371 207.848 42.1325C207.472 42.5085 206.801 42.6965 205.834 42.6965H204.344V45.758C204.344 46.3757 204.183 46.8457 203.86 47.168C203.619 47.4097 203.216 47.7722 202.652 48.2556C202.088 48.7659 201.537 49.2224 201 49.6253C200.651 49.8938 200.302 49.9475 199.953 49.7864C199.631 49.6521 199.469 49.3298 199.469 48.8196V26.0192C199.469 25.6969 199.375 25.5089 199.187 25.4552C199.026 25.4015 198.758 25.5089 198.382 25.7775C198.14 25.9655 197.885 26.0595 197.616 26.0595C197.348 26.0595 197.146 25.9655 197.012 25.7775C196.851 25.5626 196.811 25.3209 196.891 25.0524C196.999 24.7838 197.2 24.5421 197.495 24.3273L202.732 20.5809ZM179.408 42.1325C178.898 41.4611 178.562 40.736 178.401 39.9572C178.267 39.1516 178.321 38.3325 178.562 37.4999C178.804 36.6674 179.261 35.8483 179.932 35.0427C180.603 34.2101 181.503 33.4045 182.631 32.6257C183.625 31.9274 184.605 31.4709 185.572 31.256C186.538 31.0143 187.451 30.9606 188.311 31.0949C189.17 31.2292 189.962 31.538 190.688 32.0214C191.413 32.5048 192.044 33.1091 192.581 33.8342C193.145 34.613 193.481 35.4321 193.588 36.2914C193.722 37.124 193.642 37.9565 193.346 38.789C193.051 39.6215 192.567 40.4272 191.896 41.206C191.225 41.9848 190.379 42.6965 189.358 43.341C187.398 44.5764 185.531 45.0732 183.759 44.8315C181.986 44.563 180.536 43.6633 179.408 42.1325ZM183.517 39.635C183.92 40.1184 184.39 40.5078 184.927 40.8032C185.464 41.0986 185.988 41.3134 186.498 41.4477C187.035 41.582 187.519 41.6491 187.948 41.6491C188.378 41.6223 188.673 41.5417 188.835 41.4074C188.996 41.3 189.143 41.0583 189.278 40.6823C189.412 40.3064 189.479 39.8632 189.479 39.353C189.506 38.8159 189.439 38.2653 189.278 37.7014C189.117 37.1105 188.835 36.56 188.432 36.0497C188.002 35.5663 187.505 35.1769 186.941 34.8815C186.377 34.5593 185.813 34.331 185.249 34.1967C184.712 34.0624 184.215 33.9953 183.759 33.9953C183.302 33.9953 182.993 34.049 182.832 34.1564C182.671 34.2907 182.537 34.5593 182.429 34.9621C182.322 35.3381 182.282 35.7946 182.309 36.3317C182.335 36.842 182.443 37.3925 182.631 37.9833C182.819 38.5742 183.114 39.1247 183.517 39.635ZM235.982 20.5809C236.465 20.2318 236.855 20.1378 237.15 20.2989C237.446 20.4332 237.593 20.836 237.593 21.5074V45.758C237.593 46.3757 237.432 46.8457 237.11 47.168C236.868 47.4097 236.465 47.7722 235.901 48.2556C235.337 48.7659 234.787 49.2224 234.25 49.6253C233.901 49.8938 233.551 49.9475 233.202 49.7864C232.88 49.6521 232.719 49.3298 232.719 48.8196V26.0192C232.719 25.6969 232.625 25.5089 232.437 25.4552C232.276 25.4015 232.007 25.5089 231.631 25.7775C231.39 25.9655 231.134 26.0595 230.866 26.0595C230.597 26.0595 230.396 25.9655 230.262 25.7775C230.101 25.5626 230.06 25.3209 230.141 25.0524C230.248 24.7838 230.45 24.5421 230.745 24.3273L235.982 20.5809ZM223.615 31.8603C224.528 33.7402 224.461 36.0095 223.413 38.6682C223.199 39.1784 222.89 39.7424 222.487 40.3601C222.084 40.9777 221.628 41.582 221.117 42.1728C220.607 42.7636 220.083 43.3142 219.546 43.8244C219.009 44.3347 218.512 44.7241 218.056 44.9927C217.68 45.2075 217.317 45.3284 216.968 45.3552C216.646 45.3821 216.431 45.3284 216.324 45.1941C216.189 44.9792 216.162 44.7241 216.243 44.4287C216.35 44.1064 216.485 43.8379 216.646 43.623C216.941 43.1933 217.196 42.8174 217.411 42.4951C217.653 42.146 217.868 41.8103 218.056 41.488C218.244 41.1389 218.418 40.7898 218.579 40.4406C218.741 40.0647 218.915 39.635 219.103 39.1516C219.291 38.6145 219.425 38.0102 219.506 37.3388C219.587 36.6674 219.56 36.1437 219.425 35.7678C219.291 35.2844 219.063 34.9218 218.741 34.6801C218.445 34.4384 218.109 34.331 217.734 34.3578C217.223 34.3847 216.726 34.4115 216.243 34.4384C215.786 34.4653 215.169 34.4921 214.39 34.519C213.987 34.519 213.544 34.519 213.061 34.519C212.577 34.519 212.107 34.5055 211.651 34.4787C211.194 34.4518 210.764 34.4115 210.362 34.3578C209.959 34.2773 209.623 34.1967 209.355 34.1161C208.979 33.9819 208.817 33.7804 208.871 33.5119C208.952 33.2165 209.261 32.9211 209.798 32.6257C210.093 32.4645 210.415 32.2631 210.764 32.0214C211.14 31.7797 211.463 31.5514 211.731 31.3366C212.027 31.1217 212.309 30.9875 212.577 30.9337C212.873 30.8532 213.275 30.8398 213.786 30.8935C214.242 30.9472 214.726 30.9875 215.236 31.0143C215.746 31.0412 216.431 31.0412 217.29 31.0143C217.827 30.9875 218.378 30.9472 218.942 30.8935C219.533 30.8398 220.365 30.786 221.44 30.7323C221.923 30.7055 222.353 30.786 222.729 30.974C223.105 31.1352 223.4 31.4306 223.615 31.8603ZM270.293 49.4782H250.569V43.2333H267.077V41.3475H250.569V39.2452H269.674V45.2737H253.165V47.345H270.293V49.4782ZM270.138 33.0004H250.569V26.8792H266.923V24.9624H250.569V22.8602H269.52V28.9196H253.165V30.8672H270.138V33.0004ZM273.106 37.1121H247.137V35.0099H273.106V37.1121ZM304.317 49.4782H284.593V42.8314H301.102V40.5746H284.593V38.4415H303.699V44.9027H287.19V47.3141H304.317V49.4782ZM307.131 35.9373H281.162V33.8042H307.131V35.9373ZM304.008 31.4546H284.593V23.0457H303.699V25.1788H287.19V29.3215H304.008V31.4546ZM326.964 41.6875V43.8516C323.626 44.439 319.668 44.5317 315.835 44.5317H310.641V33.0622H320.318V26.5082H310.641V24.3132H322.915V35.2263H313.238V42.3059H315.835C319.668 42.3059 323.44 42.2131 326.964 41.6875ZM332.034 49.7873H329.438V37.4831H324.275V35.2572H329.438V30.3108H324.275V28.0849H329.438V22.2419H332.034V49.7873ZM361.236 33.1859L359.813 35.1644C355.424 34.3606 351.25 31.7947 349.395 28.9505C347.54 31.7947 343.367 34.3606 338.977 35.1644L337.555 33.1859C342.872 32.1966 347.664 28.765 348.035 25.488H339.471V23.2621H359.319V25.488H350.755C351.126 28.765 355.887 32.1966 361.236 33.1859ZM362.379 40.2345H350.693V49.7873H348.097V40.2345H336.411V38.0086H362.379V40.2345ZM379.153 42.7387L377.669 44.5317C374.917 42.5223 372.63 39.6781 371.547 36.6484C370.589 39.8636 368.085 42.9551 364.993 45.3974L363.231 43.7589C367.158 41.0383 370.187 35.9682 370.187 30.4344V24.1277H372.784V30.4344C372.784 35.9682 375.845 40.4819 379.153 42.7387ZM383.233 48.6435H380.698V33.6805H376.03V31.3928H380.698V22.551H383.233V48.6435ZM388.334 49.7873H385.768V22.2419H388.334V49.7873ZM417.628 47.0359H391.659V44.81H397.688V39.3998H400.223V44.81H409.065V39.3998H411.6V44.81H417.628V47.0359ZM414.784 30.7745C414.784 34.979 411.291 38.0086 406.282 38.3487C405.231 38.4105 404.056 38.4105 403.005 38.3487C397.904 38.0086 394.504 34.979 394.504 30.7745C394.504 26.57 397.904 23.5403 403.005 23.2003C404.056 23.1384 405.231 23.1384 406.282 23.2003C411.291 23.5403 414.784 26.57 414.784 30.7745ZM412.249 30.7745C412.249 28.0539 410.023 25.6735 406.282 25.4262C405.231 25.3643 404.056 25.3643 403.005 25.4262C399.265 25.6735 397.039 28.0539 397.039 30.7745C397.039 33.495 399.265 35.8755 403.005 36.1228C404.056 36.1846 405.231 36.1846 406.282 36.1228C410.023 35.8755 412.249 33.495 412.249 30.7745ZM423.798 40.2345H421.448L421.108 24.6842H424.138L423.798 40.2345ZM422.623 47.4687C421.572 47.4687 420.737 46.634 420.737 45.5829C420.737 44.5317 421.572 43.697 422.623 43.697C423.674 43.697 424.509 44.5317 424.509 45.5829C424.509 46.634 423.674 47.4687 422.623 47.4687Z" fill="#564F56"/>
</svg>
