<svg width="97" height="100" viewBox="0 0 97 100" fill="none" xmlns="http://www.w3.org/2000/svg">
<path d="M52.8963 49.0855L53.8163 59.2055L56.6963 59.5955C58.2063 54.8255 61.2963 51.1655 60.5563 45.7955C60.3963 44.6055 56.0163 35.0655 55.4063 34.5855C51.4563 31.4755 36.6163 40.0255 33.7163 43.7955C23.7063 56.8155 34.5863 80.1955 47.0163 88.0955C54.2163 92.6755 57.7463 92.9355 65.6563 90.1355C90.8063 81.2455 86.9163 55.2655 81.4363 34.4655C80.3363 30.2855 76.1463 15.5755 74.4663 12.6355C70.1163 5.03554 47.0363 6.34554 39.6363 8.44554C30.8763 10.9355 17.5363 24.7355 14.4663 33.1955C11.4863 41.4055 11.4763 50.2055 9.70626 58.6655L14.0263 55.8155L16.1763 58.1855C14.7963 64.6855 1.22626 63.6855 0.136259 58.1855C-0.39374 55.5455 0.756259 47.0755 1.29626 44.0355C6.19626 16.2055 31.6863 -1.38446 59.1863 0.0855428C65.8363 0.435543 83.4663 2.94554 85.8763 9.86554C87.0363 13.2055 87.1363 17.8155 88.3863 21.7555C94.1063 39.8455 102.296 62.0355 90.9663 79.9355C85.0963 89.2056 68.9563 98.8555 58.0763 99.8355C32.6663 102.126 8.83626 65.2555 23.6963 43.3755C29.3463 35.0655 46.3363 26.1455 56.3163 26.0055C67.0763 25.8555 64.8563 29.6955 68.0963 37.2455C68.8763 39.0655 71.1463 40.9955 71.6263 42.3955C73.7463 48.5955 65.0263 67.5855 57.7563 69.7555C53.6463 70.9855 44.6663 66.8855 43.5063 62.7955C42.6963 59.9455 42.0163 52.4155 43.8163 50.0555C46.5263 46.5055 49.0663 49.5455 52.8963 49.0855Z" fill="#FF92AA"/>
</svg>
