<svg width="352" height="281" viewBox="0 0 352 281" fill="none" xmlns="http://www.w3.org/2000/svg">
<path d="M83.2377 79.2792L58.8877 78.6392C50.4477 78.1492 54.2877 92.9392 56.5277 96.8792C58.2677 99.9392 61.8277 97.5792 64.3477 96.3892C67.3877 94.9592 75.4677 88.5392 77.2277 88.0692C79.8577 87.3692 88.7577 90.0692 92.2577 89.8292C93.9877 89.7092 101.128 87.8692 103.228 87.2792C107.568 86.0592 112.268 82.0292 116.838 83.6092C110.178 90.6292 100.608 95.1092 93.7677 101.819C89.8377 105.669 85.6677 113.089 81.9577 116.409C79.3377 118.739 76.1277 119.469 73.1477 122.489C64.9477 130.809 62.6377 144.999 55.9177 152.299C50.2977 158.419 38.1777 163.949 31.3877 170.009C27.4877 173.489 18.2377 183.419 15.2077 187.429C13.3677 189.869 7.44774 198.979 11.2477 200.779C14.8577 202.489 17.0777 194.829 22.7577 198.349L20.8377 201.209C27.7277 200.269 34.4177 197.919 41.5077 198.309C48.1977 198.669 55.5077 202.369 62.7177 203.019C88.8577 205.379 115.118 202.089 141.268 202.229C168.348 202.369 195.198 202.969 221.918 205.099C227.708 205.559 231.928 203.189 234.438 203.149C236.118 203.119 237.728 205.809 240.238 205.999C243.008 206.199 247.728 203.859 250.888 203.479C252.398 203.289 254.248 204.339 256.358 204.049C262.518 203.189 269.018 199.929 274.748 199.309C288.278 197.859 298.068 202.979 310.328 202.989C312.588 202.989 315.808 200.469 313.628 198.859L302.718 197.279C299.948 196.359 300.908 183.229 301.168 180.619C301.688 175.339 303.688 169.759 304.068 164.319C304.728 154.969 303.518 145.409 303.988 136.359C304.098 134.279 303.458 125.269 304.038 124.439C308.968 128.029 319.078 125.359 319.388 118.679C315.518 117.449 312.828 120.809 309.448 120.579C306.628 120.389 304.418 118.149 301.938 117.409C297.458 116.059 284.598 111.969 280.838 112.469C279.298 112.679 275.038 114.539 277.158 116.259C280.458 118.949 294.338 120.399 295.258 123.119C294.948 126.599 295.938 130.479 295.988 133.709C296.278 151.829 294.948 169.289 293.458 187.289C293.288 189.319 292.638 191.339 292.318 193.339C282.788 195.879 271.888 193.159 262.768 198.349C261.898 181.589 261.138 164.849 263.968 148.199L266.598 143.639C261.888 142.189 257.008 143.549 256.088 148.959C253.778 162.559 254.958 174.229 255.098 187.359C255.138 191.309 253.268 195.239 255.068 199.299C251.278 197.819 245.178 201.929 242.308 201.099C240.368 200.539 240.088 197.959 238.698 196.959C234.768 194.149 232.278 196.229 227.268 189.929C216.788 176.729 206.528 154.699 195.048 144.609C177.858 129.509 156.298 116.179 141.138 98.2092C140.138 97.0292 132.478 84.2692 132.348 83.4192L136.998 74.5092C134.528 74.2792 132.438 73.3892 129.848 73.5092C122.538 73.8292 112.558 77.3492 105.738 78.2992C99.4577 79.1692 92.2777 75.1292 85.6577 79.3192M101.518 101.929C107.388 96.8592 115.178 94.1192 120.198 87.9392C121.118 88.0792 120.798 90.0692 120.468 90.6492C120.318 90.9092 118.518 91.4592 117.788 92.2092C110.448 99.7792 103.278 106.959 93.8077 111.939C92.8977 110.959 100.258 103.029 101.528 101.929H101.518ZM80.8477 197.439C75.7477 198.349 69.3877 196.719 64.0377 197.369L74.1177 195.469H83.2277C83.6677 198.229 82.6377 197.119 80.8477 197.439ZM224.348 199.289C213.908 195.179 202.598 198.909 192.208 198.399C167.458 197.179 143.168 195.669 118.228 196.379C115.608 196.449 112.158 198.029 109.828 197.409C108.908 197.169 108.828 195.479 108.128 195.079C106.568 194.179 103.718 193.909 102.918 192.579C100.308 188.249 104.808 181.029 96.6277 177.749C87.8277 174.219 85.8677 183.419 84.5577 189.759L28.5177 192.579C27.8677 172.569 48.2077 168.519 59.6177 157.929C64.3077 153.569 70.0877 144.979 73.8577 139.529C76.8977 135.129 81.7477 124.559 84.7477 121.619C88.2377 118.209 99.3077 115.149 104.668 111.779C112.678 106.739 119.188 99.1892 126.078 92.8192C128.398 92.3992 129.888 97.4292 131.228 98.9892C143.468 113.319 157.998 126.379 172.588 138.269C175.218 140.409 179.088 142.989 182.108 144.599C179.488 148.489 173.398 145.439 169.138 145.469C160.148 145.539 152.028 148.229 142.748 146.029C133.458 143.819 121.578 138.019 111.498 137.839C107.338 137.759 101.968 139.829 97.6277 139.799L97.6777 142.609C102.108 144.769 105.828 142.459 110.458 142.759C123.298 143.589 136.148 151.859 148.048 152.069C152.228 152.139 158.158 150.429 162.398 150.309C169.008 150.129 175.188 151.849 181.668 151.339C184.078 151.149 185.948 149.229 187.908 149.759C193.638 151.339 200.368 166.139 203.988 171.199C205.858 173.809 225.808 197.979 224.358 199.299L224.348 199.289Z" fill="white"/>
<path d="M83.2377 79.2792L58.8877 78.6392C50.4477 78.1492 54.2877 92.9392 56.5277 96.8792C58.2677 99.9392 61.8277 97.5792 64.3477 96.3892C67.3877 94.9592 75.4677 88.5392 77.2277 88.0692C79.8577 87.3692 88.7577 90.0692 92.2577 89.8292C93.9877 89.7092 101.128 87.8692 103.228 87.2792C107.568 86.0592 112.268 82.0292 116.838 83.6092C110.178 90.6292 100.608 95.1092 93.7677 101.819C89.8377 105.669 85.6677 113.089 81.9577 116.409C79.3377 118.739 76.1277 119.469 73.1477 122.489C64.9477 130.809 62.6377 144.999 55.9177 152.299C50.2977 158.419 38.1777 163.949 31.3877 170.009C27.4877 173.489 18.2377 183.419 15.2077 187.429C13.3677 189.869 7.44774 198.979 11.2477 200.779C14.8577 202.489 17.0777 194.829 22.7577 198.349L20.8377 201.209C27.7277 200.269 34.4177 197.919 41.5077 198.309C48.1977 198.669 55.5077 202.369 62.7177 203.019C88.8577 205.379 115.118 202.089 141.268 202.229C168.348 202.369 195.198 202.969 221.918 205.099C227.708 205.559 231.928 203.189 234.438 203.149C236.118 203.119 237.728 205.809 240.238 205.999C243.008 206.199 247.728 203.859 250.888 203.479C252.398 203.289 254.248 204.339 256.358 204.049C262.518 203.189 269.018 199.929 274.748 199.309C288.278 197.859 298.068 202.979 310.328 202.989C312.588 202.989 315.808 200.469 313.628 198.859L302.718 197.279C299.948 196.359 300.908 183.229 301.168 180.619C301.688 175.339 303.688 169.759 304.068 164.319C304.728 154.969 303.518 145.409 303.988 136.359C304.098 134.279 303.458 125.269 304.038 124.439C308.968 128.029 319.078 125.359 319.388 118.679C315.518 117.449 312.828 120.809 309.448 120.579C306.628 120.389 304.418 118.149 301.938 117.409C297.458 116.059 284.598 111.969 280.838 112.469C279.298 112.679 275.038 114.539 277.158 116.259C280.458 118.949 294.338 120.399 295.258 123.119C294.948 126.599 295.938 130.479 295.988 133.709C296.278 151.829 294.948 169.289 293.458 187.289C293.288 189.319 292.638 191.339 292.318 193.339C282.788 195.879 271.888 193.159 262.768 198.349C261.898 181.589 261.138 164.849 263.968 148.199L266.598 143.639C261.888 142.189 257.008 143.549 256.088 148.959C253.778 162.559 254.958 174.229 255.098 187.359C255.138 191.309 253.268 195.239 255.068 199.299C251.278 197.819 245.178 201.929 242.308 201.099C240.368 200.539 240.088 197.959 238.698 196.959C234.768 194.149 232.278 196.229 227.268 189.929C216.788 176.729 206.528 154.699 195.048 144.609C177.858 129.509 156.298 116.179 141.138 98.2092C140.138 97.0292 132.478 84.2692 132.348 83.4192L136.998 74.5092C134.528 74.2792 132.438 73.3892 129.848 73.5092C122.538 73.8292 112.558 77.3492 105.738 78.2992C99.4577 79.1692 92.2777 75.1292 85.6577 79.3192M101.518 101.929C107.388 96.8592 115.178 94.1192 120.198 87.9392C121.118 88.0792 120.798 90.0692 120.468 90.6492C120.318 90.9092 118.518 91.4592 117.788 92.2092C110.448 99.7792 103.278 106.959 93.8077 111.939C92.8977 110.959 100.258 103.029 101.528 101.929H101.518ZM80.8477 197.439C75.7477 198.349 69.3877 196.719 64.0377 197.369L74.1177 195.469H83.2277C83.6677 198.229 82.6377 197.119 80.8477 197.439ZM224.348 199.289C213.908 195.179 202.598 198.909 192.208 198.399C167.458 197.179 143.168 195.669 118.228 196.379C115.608 196.449 112.158 198.029 109.828 197.409C108.908 197.169 108.828 195.479 108.128 195.079C106.568 194.179 103.718 193.909 102.918 192.579C100.308 188.249 104.808 181.029 96.6277 177.749C87.8277 174.219 85.8677 183.419 84.5577 189.759L28.5177 192.579C27.8677 172.569 48.2077 168.519 59.6177 157.929C64.3077 153.569 70.0877 144.979 73.8577 139.529C76.8977 135.129 81.7477 124.559 84.7477 121.619C88.2377 118.209 99.3077 115.149 104.668 111.779C112.678 106.739 119.188 99.1892 126.078 92.8192C128.398 92.3992 129.888 97.4292 131.228 98.9892C143.468 113.319 157.998 126.379 172.588 138.269C175.218 140.409 179.088 142.989 182.108 144.599C179.488 148.489 173.398 145.439 169.138 145.469C160.148 145.539 152.028 148.229 142.748 146.029C133.458 143.819 121.578 138.019 111.498 137.839C107.338 137.759 101.968 139.829 97.6277 139.799L97.6777 142.609C102.108 144.769 105.828 142.459 110.458 142.759C123.298 143.589 136.148 151.859 148.048 152.069C152.228 152.139 158.158 150.429 162.398 150.309C169.008 150.129 175.188 151.849 181.668 151.339C184.078 151.149 185.948 149.229 187.908 149.759C193.638 151.339 200.368 166.139 203.988 171.199C205.858 173.809 225.808 197.979 224.358 199.299L224.348 199.289Z" stroke="white" stroke-width="20" stroke-miterlimit="10"/>
<path d="M324.418 30.5792L323.028 48.3792L317.488 50.4992L316.508 43.7792L301.848 47.4792C294.988 42.5992 303.908 33.8092 308.818 30.8192C306.478 24.6092 294.628 30.4492 295.358 24.1392C296.158 17.2292 307.908 16.8292 312.668 19.7792V10.1792C321.628 9.21921 318.138 12.1992 319.658 17.1292C322.548 26.5392 327.628 20.0392 333.778 25.0692L324.418 30.5892V30.5792ZM306.918 41.8492C309.958 43.1292 314.278 34.9392 313.628 34.1692C310.618 36.1692 305.718 37.4192 306.918 41.8492Z" fill="white" stroke="white" stroke-width="20" stroke-miterlimit="10"/>
<path d="M249.228 40.0292L249.328 54.3292C252.598 55.6292 257.938 47.4292 260.398 51.4492C261.928 53.9392 257.358 56.0892 257.008 56.7392C255.728 59.1392 260.958 57.1292 259.878 59.5992C259.048 61.4992 255.418 61.0892 255.098 62.9592C258.978 63.4592 261.928 65.1092 262.838 69.1492L257.578 71.6892C255.478 66.0492 252.248 69.4792 248.388 66.8092C247.468 70.6592 245.908 74.3192 244.818 78.1292C244.198 80.2992 244.518 84.6092 244.328 84.8892C243.048 86.8392 236.938 88.3792 237.808 83.6892L242.618 65.8592L234.628 66.7092L232.058 61.0492C232.758 60.3292 238.008 63.7692 238.768 60.0992C236.398 58.6892 221.648 59.6392 222.458 55.7792C226.298 50.6392 233.218 55.7192 238.768 54.3192C238.008 52.7592 233.028 51.6592 232.278 50.2792C228.008 42.4192 240.928 49.8092 242.018 49.4792C245.858 46.5092 242.768 38.1292 249.238 40.0292H249.228Z" fill="white" stroke="white" stroke-width="20" stroke-miterlimit="10"/>
<path d="M83.2377 79.2792L58.8877 78.6392C50.4477 78.1492 54.2877 92.9392 56.5277 96.8792C58.2677 99.9392 61.8277 97.5792 64.3477 96.3892C67.3877 94.9592 75.4677 88.5392 77.2277 88.0692C79.8577 87.3692 88.7577 90.0692 92.2577 89.8292C93.9877 89.7092 101.128 87.8692 103.228 87.2792C107.568 86.0592 112.268 82.0292 116.838 83.6092C110.178 90.6292 100.608 95.1092 93.7677 101.819C89.8377 105.669 85.6677 113.089 81.9577 116.409C79.3377 118.739 76.1277 119.469 73.1477 122.489C64.9477 130.809 62.6377 144.999 55.9177 152.299C50.2977 158.419 38.1777 163.949 31.3877 170.009C27.4877 173.489 18.2377 183.419 15.2077 187.429C13.3677 189.869 7.44774 198.979 11.2477 200.779C14.8577 202.489 17.0777 194.829 22.7577 198.349L20.8377 201.209C27.7277 200.269 34.4177 197.919 41.5077 198.309C48.1977 198.669 55.5077 202.369 62.7177 203.019C88.8577 205.379 115.118 202.089 141.268 202.229C168.348 202.369 195.198 202.969 221.918 205.099C227.708 205.559 231.928 203.189 234.438 203.149C236.118 203.119 237.728 205.809 240.238 205.999C243.008 206.199 247.728 203.859 250.888 203.479C252.398 203.289 254.248 204.339 256.358 204.049C262.518 203.189 269.018 199.929 274.748 199.309C288.278 197.859 298.068 202.979 310.328 202.989C312.588 202.989 315.808 200.469 313.628 198.859L302.718 197.279C299.948 196.359 300.908 183.229 301.168 180.619C301.688 175.339 303.688 169.759 304.068 164.319C304.728 154.969 303.518 145.409 303.988 136.359C304.098 134.279 303.458 125.269 304.038 124.439C308.968 128.029 319.078 125.359 319.388 118.679C315.518 117.449 312.828 120.809 309.448 120.579C306.628 120.389 304.418 118.149 301.938 117.409C297.458 116.059 284.598 111.969 280.838 112.469C279.298 112.679 275.038 114.539 277.158 116.259C280.458 118.949 294.338 120.399 295.258 123.119C294.948 126.599 295.938 130.479 295.988 133.709C296.278 151.829 294.948 169.289 293.458 187.289C293.288 189.319 292.638 191.339 292.318 193.339C282.788 195.879 271.888 193.159 262.768 198.349C261.898 181.589 261.138 164.849 263.968 148.199L266.598 143.639C261.888 142.189 257.008 143.549 256.088 148.959C253.778 162.559 254.958 174.229 255.098 187.359C255.138 191.309 253.268 195.239 255.068 199.299C251.278 197.819 245.178 201.929 242.308 201.099C240.368 200.539 240.088 197.959 238.698 196.959C234.768 194.149 232.278 196.229 227.268 189.929C216.788 176.729 206.528 154.699 195.048 144.609C177.858 129.509 156.298 116.179 141.138 98.2092C140.138 97.0292 132.478 84.2692 132.348 83.4192L136.998 74.5092C134.528 74.2792 132.438 73.3892 129.848 73.5092C122.538 73.8292 112.558 77.3492 105.738 78.2992C99.4577 79.1692 92.2777 75.1292 85.6577 79.3192M101.518 101.929C107.388 96.8592 115.178 94.1192 120.198 87.9392C121.118 88.0792 120.798 90.0692 120.468 90.6492C120.318 90.9092 118.518 91.4592 117.788 92.2092C110.448 99.7792 103.278 106.959 93.8077 111.939C92.8977 110.959 100.258 103.029 101.528 101.929H101.518ZM80.8477 197.439C75.7477 198.349 69.3877 196.719 64.0377 197.369L74.1177 195.469H83.2277C83.6677 198.229 82.6377 197.119 80.8477 197.439ZM224.348 199.289C213.908 195.179 202.598 198.909 192.208 198.399C167.458 197.179 143.168 195.669 118.228 196.379C115.608 196.449 112.158 198.029 109.828 197.409C108.908 197.169 108.828 195.479 108.128 195.079C106.568 194.179 103.718 193.909 102.918 192.579C100.308 188.249 104.808 181.029 96.6277 177.749C87.8277 174.219 85.8677 183.419 84.5577 189.759L28.5177 192.579C27.8677 172.569 48.2077 168.519 59.6177 157.929C64.3077 153.569 70.0877 144.979 73.8577 139.529C76.8977 135.129 81.7477 124.559 84.7477 121.619C88.2377 118.209 99.3077 115.149 104.668 111.779C112.678 106.739 119.188 99.1892 126.078 92.8192C128.398 92.3992 129.888 97.4292 131.228 98.9892C143.468 113.319 157.998 126.379 172.588 138.269C175.218 140.409 179.088 142.989 182.108 144.599C179.488 148.489 173.398 145.439 169.138 145.469C160.148 145.539 152.028 148.229 142.748 146.029C133.458 143.819 121.578 138.019 111.498 137.839C107.338 137.759 101.968 139.829 97.6277 139.799L97.6777 142.609C102.108 144.769 105.828 142.459 110.458 142.759C123.298 143.589 136.148 151.859 148.048 152.069C152.228 152.139 158.158 150.429 162.398 150.309C169.008 150.129 175.188 151.849 181.668 151.339C184.078 151.149 185.948 149.229 187.908 149.759C193.638 151.339 200.368 166.139 203.988 171.199C205.858 173.809 225.808 197.979 224.358 199.299L224.348 199.289Z" fill="#6D606B"/>
<path d="M324.418 30.5792L323.028 48.3792L317.488 50.4992L316.508 43.7792L301.848 47.4792C294.988 42.5992 303.908 33.8092 308.818 30.8192C306.478 24.6092 294.628 30.4492 295.358 24.1392C296.158 17.2292 307.908 16.8292 312.668 19.7792V10.1792C321.628 9.21921 318.138 12.1992 319.658 17.1292C322.548 26.5392 327.628 20.0392 333.778 25.0692L324.418 30.5892V30.5792ZM306.918 41.8492C309.958 43.1292 314.278 34.9392 313.628 34.1692C310.618 36.1692 305.718 37.4192 306.918 41.8492Z" fill="#6D606B"/>
<path d="M249.228 40.0292L249.328 54.3292C252.598 55.6292 257.938 47.4292 260.398 51.4492C261.928 53.9392 257.358 56.0892 257.008 56.7392C255.728 59.1392 260.958 57.1292 259.878 59.5992C259.048 61.4992 255.418 61.0892 255.098 62.9592C258.978 63.4592 261.928 65.1092 262.838 69.1492L257.578 71.6892C255.478 66.0492 252.248 69.4792 248.388 66.8092C247.468 70.6592 245.908 74.3192 244.818 78.1292C244.198 80.2992 244.518 84.6092 244.328 84.8892C243.048 86.8392 236.938 88.3792 237.808 83.6892L242.618 65.8592L234.628 66.7092L232.058 61.0492C232.758 60.3292 238.008 63.7692 238.768 60.0992C236.398 58.6892 221.648 59.6392 222.458 55.7792C226.298 50.6392 233.218 55.7192 238.768 54.3192C238.008 52.7592 233.028 51.6592 232.278 50.2792C228.008 42.4192 240.928 49.8092 242.018 49.4792C245.858 46.5092 242.768 38.1292 249.238 40.0292H249.228Z" fill="#6D606B"/>
<path d="M247.098 248.059C246.648 250.989 246.498 253.969 246.128 256.909C246.038 257.659 245.538 258.389 245.438 259.149C244.428 266.779 246.398 273.439 238.818 278.379C237.728 279.089 236.118 280.039 234.828 279.519C234.568 279.339 234.658 277.619 234.678 277.169C234.748 275.659 234.928 273.009 235.188 271.579C235.448 270.149 236.078 269.249 237.608 269.489L236.878 277.049C241.638 275.459 242.748 269.169 242.988 264.739C243.018 264.119 243.188 261.919 242.578 261.719C240.678 261.049 238.528 262.809 236.958 262.839C235.548 262.859 235.398 259.739 235.398 258.639C235.398 256.489 237.028 252.279 238.848 251.089C239.288 250.799 242.198 249.489 242.628 249.469C243.918 249.419 243.858 250.329 244.688 250.949C244.698 249.409 245.088 247.119 247.098 248.049V248.059ZM237.858 256.439C237.698 257.479 237.858 259.199 237.858 260.339C237.858 260.379 238.118 260.939 238.248 260.949C239.118 260.229 241.138 260.709 241.758 260.339C241.868 260.269 243.238 258.509 243.348 258.269C243.808 257.249 243.628 256.269 243.928 255.239L242.748 254.839C242.608 253.979 242.598 252.949 242.418 252.109C242.328 251.719 242.388 251.419 241.898 251.439C240.118 251.509 238.088 254.899 237.858 256.439Z" fill="#6D606B"/>
<path d="M192.808 250.889C192.558 253.199 193.198 255.849 193.098 258.059C193.058 258.969 192.648 259.869 192.608 260.739C192.328 265.939 192.938 269.819 190.498 274.729C189.318 277.109 186.188 282.279 183.338 279.019C182.838 278.449 180.988 275.469 180.918 274.859C180.708 273.199 181.278 271.969 183.058 272.599C182.838 274.889 184.618 276.559 185.648 278.419C185.838 278.419 187.178 276.579 187.388 276.259C190.678 271.199 190.228 265.199 190.408 259.399C187.628 260.079 184.318 266.259 181.318 263.559C180.738 263.039 180.238 260.379 180.168 259.519C180.068 258.319 179.978 253.999 180.278 253.039C180.518 252.279 181.708 252.329 182.328 252.609C182.718 254.509 182.218 256.339 182.388 258.279C182.458 259.049 182.998 262.729 183.908 262.559C184.138 262.519 186.618 259.959 187.398 259.449C188.308 258.859 189.588 258.299 190.618 257.909L190.808 251.159C191.068 250.579 192.328 250.579 192.808 250.899V250.889Z" fill="#6D606B"/>
<path d="M36.9177 264.979C36.0577 261.929 36.1577 258.249 34.6877 255.379C34.5577 255.129 34.8177 254.919 34.1777 255.029C33.9577 255.729 34.0377 256.629 33.8677 257.289C33.4277 258.989 31.9977 261.589 31.7777 263.019C31.6777 263.679 31.9977 264.449 31.8577 264.779C31.6277 265.349 30.4077 265.909 29.7777 265.759L26.3877 249.549C26.5077 249.079 28.2277 248.559 28.3677 249.469L30.7477 260.869C31.5777 260.179 32.2377 257.659 32.3877 256.539C32.6877 254.299 31.8377 249.769 35.3577 250.159L37.4077 257.019L38.4277 259.159C39.2377 256.999 39.7477 254.439 40.1977 252.149C40.4777 250.699 40.4477 244.529 43.0377 245.279C43.9477 245.939 42.9377 247.239 42.7677 248.129C41.8077 253.159 41.1777 256.589 39.5277 261.479C39.0677 262.819 39.0277 265.619 36.9077 264.959L36.9177 264.979Z" fill="#6D606B"/>
<path d="M65.1377 257.399C63.5877 260.919 67.8677 264.869 71.2377 263.619C71.4977 263.519 74.0277 262.039 74.1577 261.899C74.6677 261.369 74.3677 260.619 75.5977 260.439C76.5077 260.309 76.5477 261.099 76.3177 261.859C76.1677 262.329 72.3377 264.729 71.6477 264.999C68.6077 266.179 66.2477 265.179 64.0377 263.009C62.4377 261.439 62.6777 261.179 62.6877 258.969C62.6877 258.459 62.9877 257.909 62.9477 257.519C62.8977 257.069 62.2677 256.789 62.5677 256.409C64.5777 255.949 65.7177 253.729 67.3177 252.869C68.1677 252.409 71.2077 251.539 72.0477 251.819C72.8877 252.099 73.8877 256.199 73.8077 257.039C73.7477 257.649 71.5777 259.259 70.9777 259.449C68.4177 260.289 67.2577 258.109 65.1377 257.389V257.399ZM68.8777 257.809C69.7377 258.359 71.2177 258.339 71.6677 257.249C71.4377 256.519 71.0077 253.749 70.3377 253.529C69.0277 253.099 67.1477 254.879 66.3577 255.819C67.3277 256.139 68.2477 257.419 68.8677 257.809H68.8777Z" fill="#6D606B"/>
<path d="M128.798 260.949C127.778 261.909 127.558 263.069 126.348 263.979C125.798 264.389 123.558 265.679 122.978 265.309C122.648 262.459 121.148 258.859 122.808 256.299L124.648 256.069C124.238 257.969 124.298 260.469 124.818 262.369C124.878 262.599 124.828 263.109 125.258 262.899C126.768 262.139 127.578 255.699 128.408 255.069C128.718 254.829 129.788 254.639 130.048 254.989L130.998 261.919C133.438 262.209 133.158 259.509 133.548 257.999C133.808 256.979 134.458 254.789 135.448 254.289C136.438 253.789 136.738 254.459 136.598 255.429C136.418 256.709 135.238 260.629 134.518 261.649C133.198 263.519 132.538 263.109 130.638 263.379C130.268 263.429 129.958 263.879 129.688 263.829C128.658 263.669 128.728 261.709 128.798 260.929V260.949Z" fill="#6D606B"/>
<path d="M80.9977 258.259C81.5077 258.729 82.8077 256.389 83.0277 256.149C85.5977 253.439 87.4477 255.719 88.7577 258.179C90.4577 261.389 90.2977 264.639 90.7577 268.129C90.6977 268.749 89.7077 269.249 89.1577 269.479C87.7777 268.969 88.3877 267.339 88.3177 266.439C88.0177 262.809 87.4877 259.389 84.9877 256.569C84.5477 256.499 81.6477 259.509 81.5277 259.889C80.8777 262.089 82.9977 267.209 81.3577 268.749C80.1977 269.839 79.4077 269.349 79.3277 267.819C79.2977 267.179 79.7177 266.919 79.7377 266.439C79.7777 265.389 79.3877 262.319 79.2477 261.089C79.0477 259.339 78.4477 257.509 78.4177 255.809C80.5277 254.259 80.5577 256.719 80.9877 258.249L80.9977 258.259Z" fill="#6D606B"/>
<path d="M50.4977 256.309C53.6877 255.679 56.2277 254.179 57.6977 258.009C58.3877 259.789 60.1677 266.579 56.8177 266.209C56.4577 265.949 56.4477 259.239 55.1277 257.469C54.2877 256.349 52.0877 257.299 50.9677 257.649C50.4877 258.119 50.7977 260.889 50.7277 261.799C50.6477 262.899 50.4977 265.479 50.1877 266.379C50.0977 266.649 49.0677 267.719 48.8677 267.759L48.1777 267.289L48.2977 249.609C48.1877 248.869 50.0477 248.739 50.2277 249.019C50.0277 249.599 50.4877 250.519 50.4877 250.829V256.319L50.4977 256.309Z" fill="#6D606B"/>
<path d="M161.458 250.249C162.078 251.429 162.478 253.579 160.428 252.859C160.008 252.709 160.088 252.049 159.418 251.919C156.808 251.399 154.598 253.599 156.388 255.929C157.218 257.009 161.798 256.929 163.198 257.899C165.938 263.629 160.018 268.259 155.018 264.369C154.928 262.399 154.038 259.079 157.098 259.729L157.378 263.589C160.608 265.529 162.328 262.869 161.378 259.709C160.748 257.629 156.018 258.509 154.528 257.289C153.908 256.789 153.438 254.609 153.548 253.849C153.988 250.789 158.958 250.019 161.458 250.239V250.249Z" fill="#6D606B"/>
<path d="M146.798 251.239C147.368 251.159 147.688 251.049 148.058 251.569C148.428 252.089 149.758 258.199 149.798 259.099C149.888 261.259 149.458 264.029 146.928 264.549C146.358 264.659 142.648 264.669 142.168 264.549C141.348 264.339 139.368 261.959 139.368 261.119C139.368 260.279 139.968 259.289 140.638 258.759C142.228 257.519 145.348 258.229 147.088 256.909L145.998 253.389C145.498 253.269 144.108 255.609 142.048 254.409C139.988 253.209 143.828 253.169 144.168 253.019C144.948 252.669 145.228 251.459 146.798 251.249V251.239ZM147.098 258.749L142.218 259.599C140.948 260.199 142.768 262.669 143.618 263.099L146.578 262.859C146.818 261.919 147.848 261.199 147.588 260.139C147.568 260.059 146.688 259.669 147.098 258.749Z" fill="#6D606B"/>
<path d="M105.608 244.869C107.798 250.989 108.468 257.499 108.098 263.969L108.468 264.329C109.328 265.049 112.708 262.839 112.948 263.999C113.108 264.799 110.498 265.909 109.838 266.009C107.798 266.329 106.948 266.189 105.198 265.639C104.118 265.299 103.018 265.899 102.208 264.919C102.188 264.339 102.148 263.329 102.758 263.059C104.248 262.409 103.758 263.269 103.968 263.569C104.178 263.869 105.228 263.739 105.618 263.869C106.038 262.899 105.598 261.749 105.618 260.839C105.738 256.289 105.518 253.479 104.578 248.949C104.218 247.189 102.338 244.629 105.608 244.869Z" fill="#6D606B"/>
<path d="M210.898 255.699L213.348 253.879C214.558 252.659 214.438 250.919 215.168 249.359C215.278 249.119 216.168 247.579 216.258 247.519C216.588 247.289 217.878 247.299 218.108 247.629C218.228 247.799 218.468 251.129 218.478 251.669C218.488 252.779 218.128 253.239 217.988 254.129C217.758 255.669 218.198 258.599 215.518 257.239L215.768 253.739C213.408 255.239 212.378 257.849 208.978 257.119C208.718 256.959 208.548 253.039 208.548 252.359C208.548 251.549 208.588 248.599 208.748 248.059C209.078 246.939 210.898 247.359 210.898 248.249V255.689V255.699Z" fill="#6D606B"/>
<path d="M205.708 249.309C205.538 249.429 205.108 249.309 205.058 249.359C204.818 249.609 206.008 253.179 205.958 254.049C205.788 256.919 203.218 258.879 200.498 259.089C198.868 259.219 197.148 256.539 196.998 255.079C196.798 253.259 197.428 250.639 198.698 249.289C199.548 248.379 203.938 246.779 205.038 247.279C205.618 247.539 206.338 248.859 205.708 249.299V249.309ZM202.328 249.389C198.608 249.049 198.638 255.599 200.758 257.179C201.918 258.049 203.388 256.219 203.568 255.069C203.908 252.919 203.138 251.279 202.328 249.379V249.389Z" fill="#6D606B"/>
<path d="M226.508 249.269L226.258 252.199C226.598 252.549 230.478 251.859 231.268 251.939C231.598 251.969 231.988 251.969 232.098 252.349L230.598 260.559C230.308 261.259 229.128 261.319 228.488 261.189C227.908 260.819 229.258 256.239 229.388 255.209C229.438 254.819 229.768 253.489 229.308 253.439C229.208 253.439 228.908 253.669 228.608 253.639C227.878 253.559 226.548 253.029 225.988 253.759C225.428 254.489 225.548 258.989 224.738 259.949C224.508 260.219 222.868 260.799 222.638 260.089C222.448 259.499 222.718 256.039 222.858 255.259C222.988 254.539 223.548 254.009 223.698 253.419C224.178 251.529 223.688 248.759 226.498 249.269H226.508Z" fill="#6D606B"/>
<path d="M271.718 254.149C272.468 255.279 271.198 256.229 272.488 256.689C272.708 257.529 269.258 259.689 268.338 259.129C266.978 257.169 269.198 253.319 271.718 254.149Z" fill="#6D606B"/>
<path d="M281.208 256.619C285.838 255.419 282.838 261.589 279.738 261.159C277.608 259.769 279.218 257.139 281.208 256.619Z" fill="#6D606B"/>
<path d="M306.338 255.899C306.428 255.999 306.358 256.309 306.468 256.469C306.608 256.659 306.988 256.679 307.098 256.959C307.628 258.429 303.728 261.149 302.598 260.249C301.188 258.719 305.058 254.449 306.338 255.909V255.899Z" fill="#6D606B"/>
<path d="M257.048 258.919C256.718 259.389 254.368 261.029 253.818 260.229C253.268 259.429 253.888 255.929 254.928 255.469C257.468 254.329 258.008 257.569 257.048 258.929V258.919Z" fill="#6D606B"/>
<path d="M296.148 256.559C296.068 257.709 295.318 259.139 294.268 259.659C292.828 260.379 292.908 259.409 292.388 259.319C291.828 259.229 290.138 260.499 289.578 259.699C288.698 258.429 292.258 257.739 292.838 257.489C293.938 257.029 294.608 255.749 296.148 256.549V256.559Z" fill="#6D606B"/>
<path d="M110.748 241.189C109.458 244.259 105.958 242.899 103.318 243.139C102.148 243.249 101.168 243.799 100.018 243.869C99.8877 242.869 101.388 242.489 102.208 242.279C105.088 241.549 107.928 242.369 110.748 241.189Z" fill="#6D606B"/>
</svg>
