<svg width="340" height="296" viewBox="0 0 340 296" fill="none" xmlns="http://www.w3.org/2000/svg">
<path d="M297.415 91.5244C297.39 98.2062 293.311 119.247 290.872 125.615C280.526 152.679 252.081 163.585 226.424 171.128C208.418 176.421 192.126 180.733 173.218 178.248C162.661 176.859 149.831 170.516 144.437 161.015L147.781 156.02C135.2 144.984 129.836 124.638 128.701 108.215C127.61 92.4373 131.681 77.2603 142.177 65.1723C146.528 60.1704 155.689 52.4097 161.038 47.3825C167.611 41.2109 175.225 42.3185 182.39 39.9799C188.238 38.0642 193.724 32.8378 200.29 32.485C203.751 32.2956 209.853 34.5523 213.802 34.8712C217.881 35.2055 222.7 34.1286 226.04 34.5412C230.312 35.0707 236.229 38.3712 240.819 39.4467C253.566 42.4341 264.664 44.4172 276.413 51.8801C286.895 58.5323 297.468 79.0913 297.419 91.5111L297.415 91.5244ZM181.244 171.566C201.683 173.104 245.386 160.581 263.098 149.903C279.143 140.238 285.301 131.681 288.682 113.318C292.447 92.9166 290.424 74.2799 273.433 60.0067C260.62 49.2493 221.046 42.4273 204.094 40.6646C194.247 39.6442 193.482 42.9424 185.59 45.7754C180.679 47.5397 175.062 47.8353 170.528 49.4845C160.648 53.0748 142.694 71.5492 137.899 81.3481C129.514 98.4906 137.615 132.846 149.693 146.987C153.183 151.079 158.599 151.102 149.787 156.775C157.725 166.649 169.003 170.643 181.231 171.561L181.244 171.566Z" fill="#FF92AA"/>
<path d="M178.769 206.983C179.695 207.247 180.939 205.106 183.101 207.683C184.481 209.328 186.925 217.773 186.725 220.1C186.594 221.628 183.889 231.709 183.115 232.891C180.116 237.475 178.025 235.874 176.185 237.448C175.134 238.353 174.883 240.438 173.302 241.233C171.458 242.153 157.385 235.187 155.158 233.696C145.088 227.001 141.419 216.104 149.331 206.003C155.693 197.891 166.267 198.739 174.459 203.309C176.109 204.224 177.571 206.639 178.769 206.983ZM152.092 210.101C151.055 211.544 150.373 216.722 151.168 218.281C153.049 221.982 162.643 229.949 166.802 230.333C168.45 230.483 169.472 228.804 170.935 228.499C174.879 227.655 179.125 233.225 180.484 224.658C180.919 221.918 180.347 218.032 178.726 215.749C174.753 210.17 157.294 202.925 152.087 210.115L152.092 210.101Z" fill="#FF92AA"/>
<path d="M140.036 256.234C140.289 257.289 141.687 258.003 142.24 258.991C139.629 260.436 140.691 263.243 140.5 263.424C139.842 264.062 138.213 264.181 137.208 265.275C133.257 269.541 133.575 271.862 126.643 273.024C117.231 274.59 108.617 270.136 106.637 260.257C106.508 259.62 107.576 248.374 107.823 247.389C109.96 239.169 116.542 240.485 122.951 239.575C127.962 238.872 128.305 236.31 134.47 240.335C138.554 243.008 140.365 246.265 140.851 251.147C141.049 253.172 139.966 255.879 140.045 256.229L140.036 256.234ZM113.414 248.261C109.667 253.249 114.828 263.373 120.07 265.755C127.36 269.072 136.008 261.768 135.176 254.367C133.804 242.087 124.125 247.433 115.878 247.153C114.976 247.309 114.017 247.46 113.414 248.261Z" fill="#FF92AA"/>
<path d="M78.5226 277.429C80.364 275.144 87.7636 269.974 90.6273 271.081C92.6284 271.849 96.0911 277.43 96.3305 279.356C96.5135 280.866 93.6633 287.765 92.7452 288.74C86.1102 295.707 71.9412 285.591 78.5269 277.438L78.5226 277.429ZM87.3503 278.107C82.4301 281.097 85.5346 285.818 90.2558 283.268C92.6864 281.954 87.8611 279.238 87.3503 278.107Z" fill="#FF92AA"/>
</svg>
