<svg width="582" height="85" viewBox="0 0 582 85" fill="none" xmlns="http://www.w3.org/2000/svg">
<path d="M19.25 11.62H3.29V1.33005H19.25V11.62ZM27.3 24.29H23.31V21.91H17.185V18.62H23.31V0.350047H27.3V24.29ZM28 31.15H5.775V22.995H9.835V27.65H28V31.15ZM22.085 13.09V16.45C19.53 16.87 16.275 17.08 12.845 17.15V21.665H8.715V17.15H0.945V13.72H9.905C14.14 13.72 18.9 13.545 22.085 13.09ZM15.26 8.19005V4.76005H7.28V8.19005H15.26ZM33.8644 27.51L31.2394 24.675C39.0444 20.475 43.4894 13.615 44.0494 6.54505H33.1644V2.97505H48.2494C48.3194 14.875 41.7744 22.925 33.8644 27.51ZM56.8244 31.675H52.8344V0.350047H56.8244V12.355H61.3044V16.065H56.8244V31.675ZM90.3038 31.675H86.3838V15.575H83.8638V30.38H80.0138V0.700047H83.8638V11.795H86.3838V0.350047H90.3038V31.675ZM79.4538 23.205L77.1788 25.97C74.2038 23.73 71.8238 20.79 70.7738 17.745C69.7238 21 67.0638 24.29 63.7038 26.915L60.9038 24.255C65.3138 21.14 68.6738 15.68 68.6738 9.27505V2.41505H72.7338V9.27505C72.7338 15.4 75.8838 20.65 79.4538 23.205ZM123.363 28.91H93.8232V25.34H106.668V20.79H97.6382V9.59005H115.383V5.74005H97.6382V2.20505H119.373V13.09H101.628V17.22H120.073V20.79H110.868V25.34H123.363V28.91ZM151.103 6.75505C151.103 10.325 148.233 13.3 141.793 13.475C140.498 13.51 139.238 13.51 137.943 13.475C131.503 13.3 128.633 10.325 128.633 6.75505C128.633 3.18505 131.503 0.210047 137.943 0.0350469C139.238 4.73261e-05 140.498 4.73261e-05 141.793 0.0350469C148.233 0.210047 151.103 3.18505 151.103 6.75505ZM154.638 19.18H142.633V24.885H138.503V19.18H125.098V15.68H154.638V19.18ZM151.943 31.15H128.843V21.595H132.903V27.65H151.943V31.15ZM146.973 6.75505C146.973 3.50005 142.283 3.50005 139.868 3.50005C137.453 3.50005 132.763 3.50005 132.763 6.75505C132.763 10.01 137.453 10.01 139.868 10.01C142.283 10.01 146.973 10.01 146.973 6.75505ZM183.952 31.325H162.007V22.785H179.262V20.825H162.007V17.465H183.252V25.935H165.997V27.93H183.952V31.325ZM176.847 12.145L174.782 15.33C171.527 14.21 168.377 12.215 166.662 9.62505C165.297 12.215 161.937 14.77 158.122 16.345L155.672 13.405C160.537 11.585 163.967 8.26005 164.422 4.93505H157.737V1.57505H175.377V4.93505H168.657C169.182 8.01505 172.647 10.885 176.847 12.145ZM183.322 16.065H179.332V0.350047H183.322V16.065ZM213.441 12.81H191.391V1.19005H213.441V12.81ZM217.186 19.18H205.181V24.885H201.051V19.18H187.646V15.68H217.186V19.18ZM214.491 31.15H191.391V21.595H195.451V27.65H214.491V31.15ZM209.451 9.31005V4.69005H195.381V9.31005H209.451ZM245.521 31.675H241.531V0.350047H245.521V31.675ZM228.406 27.055C223.016 27.055 220.181 22.715 219.936 17.045C219.866 15.47 219.866 13.51 219.936 11.935C220.181 6.26505 223.016 1.92505 228.406 1.92505C233.796 1.92505 236.631 6.26505 236.876 11.935C236.946 13.51 236.946 15.47 236.876 17.045C236.631 22.715 233.796 27.055 228.406 27.055ZM228.406 23.485C230.891 23.485 232.676 21.385 232.886 17.045C232.956 15.47 232.956 13.51 232.886 11.935C232.676 7.59505 230.891 5.49505 228.406 5.49505C225.921 5.49505 224.136 7.59505 223.926 11.935C223.856 13.51 223.856 15.47 223.926 17.045C224.136 21.385 225.921 23.485 228.406 23.485ZM279.735 16.24H250.195V12.88H279.735V16.24ZM276.69 31.325H253.94V23.205H272V21.56H253.94V18.27H275.99V26.285H257.93V28H276.69V31.325ZM276.34 10.99H253.94V1.19005H275.99V4.44505H257.93V7.70005H276.34V10.99ZM308.07 31.675H304.08V15.855H299.04C299.04 21.21 297.115 27.055 290.745 27.055C285.355 27.055 282.73 22.715 282.485 17.045C282.415 15.47 282.415 13.51 282.485 11.935C282.73 6.26505 285.355 1.92505 290.745 1.92505C296.135 1.92505 298.76 6.26505 299.005 11.935V12.215H304.08V0.350047H308.07V31.675ZM290.745 23.485C293.23 23.485 294.805 21.385 295.015 17.045C295.085 15.47 295.085 13.51 295.015 11.935C294.805 7.59505 293.23 5.49505 290.745 5.49505C288.26 5.49505 286.685 7.59505 286.475 11.935C286.405 13.51 286.405 15.47 286.475 17.045C286.685 21.385 288.26 23.485 290.745 23.485ZM339.274 31.325H317.679V22.75H334.584V20.825H317.679V17.465H338.574V25.9H321.669V27.93H339.274V31.325ZM314.599 16.66L312.359 13.51C319.254 12.145 324.399 9.06505 325.624 5.00505H314.704V1.57505H330.244C330.139 10.675 321.214 15.155 314.599 16.66ZM338.644 16.065H334.654V0.350047H338.644V6.33505H342.774V9.90505H338.644V16.065ZM373.559 21.245H360.854V31.675H356.724V21.245H344.019V17.675H373.559V21.245ZM372.649 12.005L370.409 15.225C365.719 14.105 361.029 11.41 358.789 7.91005C356.549 11.41 351.859 14.105 347.169 15.225L344.929 12.005C351.474 10.57 356.759 6.51005 356.759 2.31005V0.735048H360.819V2.31005C360.819 6.51005 366.104 10.57 372.649 12.005ZM404.833 28.91H375.293V25.34H388.068V18.69H379.108V2.41505H401.193V5.95005H383.098V15.12H401.718V18.69H392.268V25.34H404.833V28.91ZM433.517 17.815H429.527V0.350047H433.517V17.815ZM424.977 8.82005C424.977 13.3 421.232 16.835 416.227 16.835C411.222 16.835 407.477 13.3 407.477 8.82005C407.477 4.34005 411.222 0.805047 416.227 0.805047C421.232 0.805047 424.977 4.34005 424.977 8.82005ZM420.987 8.82005C420.987 6.30005 419.062 4.30505 416.227 4.30505C413.392 4.30505 411.467 6.30005 411.467 8.82005C411.467 11.34 413.392 13.335 416.227 13.335C419.062 13.335 420.987 11.34 420.987 8.82005ZM436.247 29.085L433.867 31.745C431.417 30.31 429.107 28.35 427.987 26.145C427.077 28.42 424.767 30.52 422.387 31.745C420.007 30.52 417.697 28.42 416.787 26.145C415.667 28.35 413.357 30.31 410.907 31.745L408.527 29.085C412.167 27.3 414.792 24.01 414.792 21.105V19.215H418.782V21.105C418.782 23.73 420.637 26.25 422.387 27.615C424.137 26.25 425.992 23.73 425.992 21.105V19.215H429.982V21.105C429.982 24.01 432.607 27.3 436.247 29.085ZM458.702 23.065L456.357 26.11C452.787 24.08 449.637 20.93 447.992 17.465C446.697 20.93 443.337 24.43 439.312 26.95L436.617 24.115C441.797 21.14 445.822 15.82 445.822 9.31005V6.54505H439.067V2.97505H456.707V6.54505H449.952V9.38005C449.952 15.61 453.977 20.58 458.702 23.065ZM464.442 31.675H460.452V0.350047H464.442V31.675ZM486.826 8.33005C486.826 12.6 483.291 15.995 478.321 15.995C473.351 15.995 469.816 12.6 469.816 8.33005C469.816 4.06005 473.351 0.665047 478.321 0.665047C483.291 0.665047 486.826 4.06005 486.826 8.33005ZM496.136 28.21C496.136 30.1 494.351 32.305 489.766 32.305C485.181 32.305 483.396 30.1 483.396 28.21C483.396 26.32 485.181 24.115 489.766 24.115C494.351 24.115 496.136 26.32 496.136 28.21ZM495.016 15.645H491.026V0.350047H495.016V5.98505H499.146V9.55505H495.016V15.645ZM482.521 27.685V30.905C480.701 31.22 479.301 31.325 477.586 31.325H472.756V17.885H476.676V28.035H477.586C479.161 28.035 480.631 28 482.521 27.685ZM482.836 8.33005C482.836 5.98505 481.121 4.09505 478.321 4.09505C475.521 4.09505 473.806 5.98505 473.806 8.33005C473.806 10.675 475.521 12.565 478.321 12.565C481.121 12.565 482.836 10.675 482.836 8.33005ZM497.116 23.52H482.206V20.37H497.116V23.52ZM494.316 19.46H485.006V16.31H494.316V19.46ZM492.146 28.21C492.146 27.65 491.586 27.265 489.766 27.265C487.946 27.265 487.386 27.65 487.386 28.21C487.386 28.77 487.946 29.155 489.766 29.155C491.586 29.155 492.146 28.77 492.146 28.21ZM529.931 16.31H500.391V12.95H529.931V16.31ZM526.886 31.325H504.136V23.205H522.196V21.56H504.136V18.27H526.186V26.285H508.126V28H526.886V31.325ZM526.396 5.67005C526.396 11.2 519.256 11.34 515.161 11.34C511.066 11.34 503.926 11.2 503.926 5.67005C503.926 0.140048 511.066 4.73261e-05 515.161 4.73261e-05C519.256 4.73261e-05 526.396 0.140048 526.396 5.67005ZM522.266 5.67005C522.266 4.37505 521.251 3.53505 517.086 3.39505C515.791 3.36005 514.531 3.36005 513.236 3.39505C509.071 3.53505 508.056 4.37505 508.056 5.67005C508.056 6.96505 508.791 7.80505 513.236 7.94505C514.531 7.98005 515.791 7.98005 517.086 7.94505C521.251 7.80505 522.266 6.96505 522.266 5.67005ZM557.915 31.675H553.995V0.350047H557.915V12.355H562.22V16.065H557.915V31.675ZM544.02 28.525L540.695 26.25C545.7 20.405 547.45 13.79 547.52 6.47505H542.69V2.97505H551.65C551.72 14.14 549.97 21.315 544.02 28.525ZM534.115 26.25L530.79 24.115C535.515 18.655 537.3 13.02 537.65 6.47505H533.205V2.97505H541.78C541.78 13.37 539.365 19.985 534.115 26.25ZM573.894 20.545H569.869C569.344 17.78 570.604 15.925 573.404 14.315C575.679 13.055 577.359 11.725 577.359 9.80005C577.359 7.77005 575.294 6.16005 572.774 6.16005C570.184 6.16005 568.119 7.98005 568.119 10.15H563.954C563.954 5.63505 567.909 2.55505 572.774 2.55505C577.604 2.55505 581.559 5.46005 581.559 9.66005C581.559 13.475 579.319 14.98 575.259 17.43C573.894 18.235 573.439 19.11 573.894 20.545ZM572.214 28.875C570.709 28.875 569.554 27.755 569.554 26.25C569.554 24.745 570.709 23.59 572.214 23.59C573.719 23.59 574.874 24.745 574.874 26.25C574.874 27.755 573.719 28.875 572.214 28.875ZM29.54 73.945H1.30385e-08V70.585H12.67V68.905C7.14 68.625 4.2 67.19 4.2 64.67C4.2 61.87 7.91 60.4 14.77 60.4C21.63 60.4 25.34 61.87 25.34 64.67C25.34 67.19 22.365 68.625 16.87 68.905V70.585H29.54V73.945ZM25.795 83.85H21.805V78.88H3.255V75.52H25.795V83.85ZM27.37 59.56H2.17V56.13H27.37V59.56ZM21.77 54.975H7.77V51.405H21.77V54.975ZM21.21 64.67C21.21 63.865 19.495 63.62 14.77 63.62C10.045 63.62 8.33 63.865 8.33 64.67C8.33 65.475 10.045 65.72 14.77 65.72C19.495 65.72 21.21 65.475 21.21 64.67ZM57.8744 83.675H53.8844V52.35H57.8744V83.675ZM51.9244 74.925L49.5794 77.97C46.0094 75.94 42.8594 72.79 41.0744 69.325C39.6394 72.79 36.2794 76.29 32.2544 78.81L29.5594 75.975C34.7394 72.93 38.9044 67.75 38.9044 61.17V54.275H43.0344V61.24C43.0344 67.47 47.1994 72.44 51.9244 74.925ZM92.0888 68.66H62.5488V65.3H75.2188V62.92H66.2938V53.19H88.3438V62.92H79.4188V65.3H92.0888V68.66ZM89.0438 83.325H66.2938V75.275H84.3538V73.7H66.2938V70.41H88.3438V78.355H70.2838V80H89.0438V83.325ZM84.3538 59.56V56.55H70.2838V59.56H84.3538ZM114.088 73.42V76.92C110.168 77.69 105.513 77.865 101.208 77.865H95.4332V64.39H106.458V58.16H95.4332V54.625H110.448V67.89H99.4232V74.295H101.208C105.443 74.295 109.888 74.12 114.088 73.42ZM119.373 83.675H115.383V52.35H119.373V64.18H123.853V67.89H119.373V83.675ZM145.608 74.925L143.263 77.97C139.693 75.94 136.613 72.79 134.828 69.325C133.393 72.79 130.103 76.29 126.078 78.81L123.383 75.975C128.563 72.93 132.658 67.75 132.658 61.17V54.275H136.788V61.24C136.788 67.47 140.883 72.44 145.608 74.925ZM151.698 83.675H147.708V65.58H141.618V61.87H147.708V52.35H151.698V83.675ZM173.487 68.765H157.982V53.575H173.487V68.765ZM183.322 83.15H161.447V72.23H165.507V79.65H183.322V83.15ZM182.272 74.89H178.282V52.35H182.272V59.105H186.402V62.745H182.272V74.89ZM169.497 65.265V57.075H161.972V65.265H169.497ZM217.186 68.24H187.646V64.88H217.186V68.24ZM214.141 83.325H191.391V75.205H209.451V73.56H191.391V70.27H213.441V78.285H195.381V80H214.141V83.325ZM213.791 62.99H191.391V53.19H213.441V56.445H195.381V59.7H213.791V62.99ZM245.521 83.675H241.531V67.855H236.491C236.491 73.21 234.566 79.055 228.196 79.055C222.806 79.055 220.181 74.715 219.936 69.045C219.866 67.47 219.866 65.51 219.936 63.935C220.181 58.265 222.806 53.925 228.196 53.925C233.586 53.925 236.211 58.265 236.456 63.935V64.215H241.531V52.35H245.521V83.675ZM228.196 75.485C230.681 75.485 232.256 73.385 232.466 69.045C232.536 67.47 232.536 65.51 232.466 63.935C232.256 59.595 230.681 57.495 228.196 57.495C225.711 57.495 224.136 59.595 223.926 63.935C223.856 65.51 223.856 67.47 223.926 69.045C224.136 73.385 225.711 75.485 228.196 75.485ZM270.845 74.505V78.005C267.59 78.6 263.11 78.775 258.665 78.775H250.44V75.205H258.77V68.695H252.085V54.135H256.075V65.125H269.27V68.695H262.83V75.17C265.77 75.065 268.675 74.855 270.845 74.505ZM276.06 83.675H272.07V52.35H276.06V64.285H280.4V67.995H276.06V83.675ZM304.185 63.935L301.875 66.735C299.95 65.44 298.41 63.585 297.57 61.765C296.695 63.865 294.84 65.965 292.74 67.365C290.605 65.965 288.75 63.865 287.91 61.765C287.175 63.585 285.565 65.685 283.36 67.33L280.63 64.81C283.99 62.43 286.02 58.79 286.02 54.765V52.875H289.87V54.765C289.87 58.545 291.34 61.24 292.74 62.815C294.105 61.24 295.61 58.545 295.61 54.765V52.875H299.46V54.765C299.46 58.965 301.42 62.08 304.185 63.935ZM308.035 79.965C308.035 82.345 306.145 83.885 300.475 83.99C299.355 84.025 296.94 84.025 295.82 83.99C290.15 83.885 288.26 82.345 288.26 79.965C288.26 77.515 290.15 75.975 295.82 75.87C296.94 75.835 299.355 75.835 300.475 75.87C306.145 75.975 308.035 77.515 308.035 79.965ZM309.12 68.625H305.2V60.33H301.315V56.83H305.2V52.35H309.12V68.625ZM310.275 75.03H286.02V71.845H310.275V75.03ZM304.22 70.865H292.215V67.715H304.22V70.865ZM304.045 79.965C304.045 79.335 303.73 79.125 300.475 79.02C299.355 78.985 296.94 78.985 295.82 79.02C292.565 79.125 292.25 79.335 292.25 79.965C292.25 80.525 292.565 80.77 295.82 80.875C296.94 80.91 299.355 80.91 300.475 80.875C303.73 80.77 304.045 80.525 304.045 79.965ZM327.514 81.19C320.899 81.19 316.734 77.83 316.734 73.42C316.734 68.94 320.899 65.58 327.514 65.58C334.129 65.58 338.294 68.94 338.294 73.42C338.294 77.83 334.129 81.19 327.514 81.19ZM327.514 69.01C323.804 69.01 320.934 70.62 320.934 73.42C320.934 76.15 323.804 77.76 327.514 77.76C331.224 77.76 334.094 76.15 334.094 73.42C334.094 70.62 331.224 69.01 327.514 69.01ZM341.374 64.04H313.654V60.435H341.374V64.04ZM335.144 54.835H319.884V58.44H335.144V54.835ZM358.789 81.19C352.174 81.19 348.009 77.83 348.009 73.42C348.009 68.94 352.174 65.58 358.789 65.58C365.404 65.58 369.569 68.94 369.569 73.42C369.569 77.83 365.404 81.19 358.789 81.19ZM358.789 69.01C355.079 69.01 352.209 70.62 352.209 73.42C352.209 76.15 355.079 77.76 358.789 77.76C362.499 77.76 365.369 76.15 365.369 73.42C365.369 70.62 362.499 69.01 358.789 69.01ZM372.649 64.04H344.929V60.435H372.649V64.04ZM366.419 54.835H351.159V58.44H366.419V54.835ZM382.083 76.255H402.628V79.86H378.023V56.865H402.103V60.47H382.083V66.455H401.753V69.99H382.083V76.255ZM413.357 76.255H433.902V79.86H409.297V56.865H433.377V60.47H413.357V66.455H433.027V69.99H413.357V76.255ZM464.722 83.85H460.732V80.245C460.137 80.315 459.542 80.385 458.877 80.42C455.412 80.63 451.947 80.7 448.482 80.7H443.057V77.27H448.447C450.582 77.27 453.032 77.235 455.447 77.2L458.947 77.06L460.732 76.955V74.715H442.427V71.215H464.722V83.85ZM440.362 70.34L438.052 67.26C441.517 66.455 445.542 64.985 448.132 62.395H447.957C446.382 62.57 444.737 62.64 443.372 62.64H439.662V59.28H443.302C445.542 59.28 447.782 59.175 450.022 58.965L450.757 58.895C451.037 58.3 451.247 57.67 451.422 57.005H440.432V53.575H455.902C455.622 62.675 448.552 68.205 440.362 70.34ZM464.792 69.815H460.802V63.445H455.552V59.875H460.802V52.35H464.792V69.815Z" fill="#E6EDEA"/>
</svg>
