<svg xmlns="http://www.w3.org/2000/svg" version="1.1" xmlns:xlink="http://www.w3.org/1999/xlink" width="800" height="200" viewBox="0 0 800 200"><line x1="20" y1="20" x2="780" y2="20" stroke-width="1" stroke="#cccccc"></line><line x1="20" y1="30" x2="780" y2="30" stroke-width="1" stroke="#cccccc"></line><line x1="20" y1="40" x2="780" y2="40" stroke-width="1" stroke="#cccccc"></line><line x1="20" y1="50" x2="780" y2="50" stroke-width="1" stroke="#cccccc"></line><line x1="20" y1="60" x2="780" y2="60" stroke-width="2" stroke="#cccccc"></line><line x1="20" y1="70" x2="780" y2="70" stroke-width="1" stroke="#cccccc"></line><line x1="20" y1="80" x2="780" y2="80" stroke-width="2" stroke="#cccccc"></line><line x1="20" y1="90" x2="780" y2="90" stroke-width="1" stroke="#cccccc"></line><line x1="20" y1="100" x2="780" y2="100" stroke-width="2" stroke="#cccccc"></line><line x1="20" y1="110" x2="780" y2="110" stroke-width="1" stroke="#cccccc"></line><line x1="20" y1="120" x2="780" y2="120" stroke-width="2" stroke="#cccccc"></line><line x1="20" y1="130" x2="780" y2="130" stroke-width="1" stroke="#cccccc"></line><line x1="20" y1="140" x2="780" y2="140" stroke-width="2" stroke="#cccccc"></line><line x1="20" y1="150" x2="780" y2="150" stroke-width="1" stroke="#cccccc"></line><line x1="20" y1="160" x2="780" y2="160" stroke-width="1" stroke="#cccccc"></line><circle r="3" cx="20.790842872008326" cy="80" fill="black"></circle><circle r="3" cx="44.516129032258064" cy="100" fill="black"></circle><circle r="3" cx="68.2414151925078" cy="130" fill="black"></circle><circle r="3" cx="91.96670135275755" cy="150" fill="black"></circle><circle r="3" cx="115.69198751300728" cy="100" fill="black"></circle><circle r="3" cx="139.41727367325703" cy="130" fill="black"></circle><circle r="3" cx="163.14255983350677" cy="120" fill="black"></circle><circle r="3" cx="186.8678459937565" cy="160" fill="black"></circle><circle r="3" cx="210.59313215400624" cy="100" fill="black"></circle><circle r="3" cx="234.31841831425598" cy="100" fill="black"></circle><circle r="3" cx="258.0437044745057" cy="120" fill="black"></circle><circle r="3" cx="281.7689906347555" cy="160" fill="black"></circle><circle r="3" cx="305.4942767950052" cy="50" fill="black"></circle><circle r="3" cx="329.21956295525496" cy="120" fill="black"></circle><circle r="3" cx="352.94484911550467" cy="140" fill="black"></circle><circle r="3" cx="376.67013527575443" cy="160" fill="black"></circle><circle r="3" cx="400.39542143600414" cy="120" fill="black"></circle><circle r="3" cx="424.1207075962539" cy="160" fill="black"></circle><circle r="3" cx="447.8459937565037" cy="140" fill="black"></circle><circle r="3" cx="471.5712799167534" cy="120" fill="black"></circle><circle r="3" cx="495.29656607700315" cy="140" fill="black"></circle><circle r="3" cx="519.0218522372529" cy="160" fill="black"></circle><circle r="3" cx="542.7471383975026" cy="90" fill="black"></circle><circle r="3" cx="566.4724245577523" cy="140" fill="black"></circle><circle r="3" cx="590.1977107180021" cy="100" fill="black"></circle><circle r="3" cx="613.9229968782518" cy="100" fill="black"></circle><circle r="3" cx="637.6482830385015" cy="130" fill="black"></circle><circle r="3" cx="661.3735691987513" cy="60" fill="black"></circle><circle r="3" cx="685.098855359001" cy="130" fill="black"></circle><circle r="3" cx="708.8241415192508" cy="80" fill="black"></circle><circle r="3" cx="732.5494276795006" cy="60" fill="black"></circle><circle r="3" cx="756.2747138397502" cy="130" fill="black"></circle><circle r="3" cx="780" cy="100" fill="black"></circle></svg>