<svg width="181" height="111" viewBox="0 0 181 111" fill="none" xmlns="http://www.w3.org/2000/svg">
<path d="M181 0H0V111H181V0Z" fill="#E6EDEA"/>
<path d="M41.5484 39.6707L29.008 39.3428C24.6604 39.0867 26.6393 46.6991 27.7878 48.7277C28.6798 50.3055 30.5153 49.0863 31.8175 48.4716C33.3761 47.7339 37.5391 44.4348 38.4517 44.1889C39.8052 43.8303 44.3887 45.2237 46.1933 45.0905C47.0854 45.0291 50.7563 44.0865 51.8432 43.7791C54.0785 43.1541 56.4984 41.0743 58.8465 41.8939C55.4217 45.5106 50.4897 47.8056 46.9624 51.2583C44.9424 53.2357 42.7891 57.0573 40.8819 58.7581C39.5386 59.9568 37.8775 60.3359 36.3497 61.883C32.1251 66.1656 30.9357 73.4604 27.4801 77.2205C24.5886 80.3659 18.344 83.2141 14.8475 86.339C12.8377 88.132 8.07996 93.2343 6.52139 95.3039C5.57804 96.5641 2.52241 101.246 4.48088 102.168C6.33682 103.049 7.48524 99.1049 10.4076 100.918L9.42321 102.394C12.971 101.912 16.4163 100.703 20.0667 100.898C23.5119 101.082 27.2751 102.988 30.9869 103.326C44.4502 104.535 57.9647 102.845 71.4382 102.916C85.3833 102.988 99.2054 103.295 112.966 104.392C115.95 104.627 118.124 103.408 119.416 103.388C120.287 103.377 121.108 104.76 122.4 104.853C123.825 104.955 126.255 103.756 127.885 103.551C128.665 103.459 129.618 103.992 130.705 103.838C133.874 103.398 137.227 101.718 140.169 101.4C147.142 100.652 152.177 103.285 158.493 103.295C159.652 103.295 161.313 101.994 160.195 101.175L154.576 100.355C153.151 99.8836 153.643 93.1216 153.776 91.7794C154.043 89.0643 155.078 86.1853 155.273 83.3986C155.612 78.5934 154.996 73.6756 155.232 69.0138C155.283 67.9381 154.955 63.3071 155.253 62.887C157.785 64.7312 162.994 63.3583 163.158 59.9261C161.169 59.2908 159.775 61.0223 158.042 60.9096C156.586 60.8174 155.448 59.6597 154.176 59.2806C151.869 58.5839 145.245 56.4836 143.307 56.7397C142.517 56.8422 140.323 57.8052 141.41 58.6966C143.112 60.0797 150.259 60.8277 150.731 62.2211C150.567 64.014 151.079 66.0017 151.11 67.6717C151.264 76.9951 150.577 85.9804 149.808 95.2424C149.726 96.2874 149.388 97.3222 149.223 98.357C144.312 99.6582 138.703 98.2648 134.007 100.939C133.556 92.3122 133.166 83.7059 134.622 75.1304L135.976 72.7842C133.545 72.0363 131.043 72.7432 130.562 75.5197C129.372 82.5174 129.977 88.5213 130.049 95.2731C130.069 97.3017 129.106 99.3303 130.039 101.42C128.09 100.662 124.942 102.773 123.466 102.353C122.471 102.066 122.317 100.734 121.61 100.222C119.58 98.7771 118.298 99.8426 115.724 96.605C110.321 89.8123 105.05 78.4807 99.1337 73.2862C90.2846 65.5201 79.1798 58.6556 71.3766 49.4142C70.864 48.8097 66.9162 42.2423 66.8547 41.8017L69.2541 37.222C67.9826 37.099 66.906 36.6482 65.573 36.7097C61.8099 36.8736 56.6624 38.6871 53.1556 39.1686C49.9154 39.6194 46.2241 37.5396 42.8198 39.6912M50.9716 51.3198C53.9965 48.7072 58.0057 47.3036 60.5896 44.1275C61.0613 44.1992 60.8973 45.2237 60.7229 45.5209C60.6409 45.654 59.7181 45.9409 59.3387 46.32C55.555 50.2133 51.8637 53.9119 46.9931 56.4733C46.5317 55.9713 50.3153 51.8936 50.9716 51.3198ZM40.3179 100.457C37.6929 100.929 34.422 100.089 31.6637 100.416L36.8521 99.443H41.5381C41.7637 100.867 41.2305 100.293 40.3179 100.457ZM114.217 101.41C108.844 99.2894 103.02 101.216 97.6674 100.949C84.9219 100.324 72.4123 99.5455 59.5745 99.9041C58.2313 99.9451 56.4471 100.754 55.2474 100.437C54.7757 100.314 54.7347 99.443 54.3758 99.2381C53.5658 98.7771 52.1098 98.6336 51.6894 97.9472C50.3461 95.7239 52.6635 92.0048 48.4492 90.3143C43.917 88.5008 42.9121 93.2343 42.2354 96.4923L13.3812 97.9472C13.0428 87.6504 23.5222 85.5706 29.3976 80.12C31.8175 77.8762 34.7911 73.4604 36.7291 70.6531C38.2876 68.3889 40.7896 62.9485 42.3379 61.4424C44.1323 59.6904 49.8334 58.1126 52.6019 56.3811C56.724 53.789 60.077 49.9059 63.6248 46.6274C64.8245 46.4122 65.5832 48.9941 66.2805 49.8035C72.5866 57.1803 80.0616 63.8911 87.5776 70.0179C88.9311 71.1244 90.9204 72.4461 92.479 73.276C91.1255 75.2739 87.998 73.7063 85.7935 73.7268C81.169 73.7678 76.9855 75.1509 72.2072 74.0137C67.4187 72.8764 61.3074 69.895 56.119 69.8027C53.976 69.7618 51.2177 70.8273 48.9721 70.8068L48.9926 72.2514C51.2689 73.3682 53.1864 72.1797 55.5755 72.3334C62.1892 72.7637 68.8029 77.0156 74.9245 77.1283C77.0778 77.1693 80.1334 76.2779 82.3174 76.2267C85.7217 76.1345 88.9004 77.0258 92.2431 76.7595C93.4838 76.657 94.4477 75.6734 95.4526 75.9501C98.4056 76.7595 101.871 84.3821 103.738 86.9845C104.701 88.3267 114.976 100.765 114.227 101.441L114.217 101.41Z" fill="#6D606B"/>
<path d="M165.742 14.6102L165.024 23.7696L162.174 24.8557L161.671 21.3927L154.124 23.2984C150.587 20.7882 155.18 16.2597 157.713 14.7229C156.513 11.5262 150.402 14.5282 150.782 11.2804C151.192 7.72516 157.241 7.52025 159.692 9.03658V4.09824C164.306 3.60646 162.512 5.13304 163.291 7.67393C164.778 12.5201 167.393 9.16978 170.561 11.7619L165.742 14.5999V14.6102ZM156.729 20.4091C158.298 21.0648 160.523 16.8539 160.184 16.4646C158.636 17.4994 156.114 18.1346 156.729 20.4091Z" fill="#6D606B"/>
<path d="M127.024 19.4665L127.076 26.8228C128.757 27.499 131.505 23.2676 132.777 25.3372C133.566 26.6179 131.208 27.7244 131.034 28.0625C130.377 29.3022 133.064 28.2674 132.51 29.5276C132.08 30.501 130.213 30.2961 130.049 31.2591C132.049 31.5153 133.566 32.3657 134.028 34.4455L131.321 35.7569C130.234 32.8574 128.573 34.6197 126.584 33.2468C126.112 35.2242 125.312 37.1093 124.748 39.0662C124.43 40.183 124.594 42.396 124.492 42.5395C123.836 43.5435 120.688 44.3324 121.129 41.9247L123.6 32.755L119.488 33.1955L118.165 30.2858C118.524 29.917 121.231 31.6894 121.621 29.794C120.401 29.0666 112.802 29.5584 113.223 27.5707C115.202 24.9274 118.76 27.54 121.621 26.8126C121.231 26.0134 118.668 25.4499 118.278 24.7327C116.084 20.6858 122.728 24.4868 123.292 24.3229C125.271 22.7963 123.671 18.483 127.014 19.4563L127.024 19.4665Z" fill="#6D606B"/>
</svg>
