<svg width="1920" height="1080" viewBox="0 0 1920 1080" fill="none" xmlns="http://www.w3.org/2000/svg">
<path d="M1920 0H0V1080H1920V0Z" fill="#E6EDEA"/>
<g opacity="0.1">
<path d="M569.69 601.65V597.39C573.07 596.68 571.58 599.52 571.82 601.66C579.66 604.08 587.02 596.64 593.66 596.29C596.73 596.13 594.83 599.63 595.28 601.65H614.47L615.01 597.39H616.59V601.65H636.85L637.39 597.39H638.97V601.65H659.23L659.77 597.39H661.35V601.65H681.61L682.15 597.39H683.73V601.65H703.99L704.53 597.39H706.11V601.65H726.37L726.91 597.39H728.49V601.65H748.75L749.29 597.39H750.87V601.65H771.13V597.39H772.72L773.26 601.65H793.52C793.78 601.65 793.29 597.34 795.64 597.39V601.65H815.91C816.17 601.65 815.68 597.34 818.03 597.39V601.65H838.3C838.56 601.65 838.07 597.34 840.42 597.39V601.65H860.69V597.39H862.28L862.82 601.65H883.08C883.34 601.65 882.85 597.34 885.2 597.39V601.65H905.47C905.73 601.65 905.24 597.34 907.59 597.39V601.65H927.86L929.46 597.4L929.98 601.66C937.92 604.59 945.85 596.7 951.81 596.28C954.88 596.07 953 599.67 953.44 601.65H972.63C972.89 601.65 972.4 597.34 974.75 597.39V601.65H995.02C995.28 601.65 994.79 597.34 997.14 597.39V601.65H1017.41C1017.67 601.65 1017.18 597.34 1019.53 597.39V601.65H1039.8L1040.34 597.39H1041.92V601.65H1062.18L1062.72 597.39H1064.3V601.65H1084.56L1085.1 597.39H1086.68V601.65H1106.94V597.39H1108.53L1109.07 601.65H1129.33L1129.87 597.39H1131.45V601.65H1151.71L1152.25 597.39H1153.83V601.65H1174.09L1174.63 597.39H1176.21V601.65H1196.47L1197.01 597.39H1198.59V601.65H1218.85L1219.39 597.39H1220.97V601.65H1241.23L1241.77 597.39H1243.35V601.65H1263.61L1264.15 597.39H1265.73V601.65H1285.99V597.39C1289.37 596.68 1287.89 599.52 1288.12 601.66C1296.06 604.59 1303.99 596.7 1309.95 596.28C1313.02 596.07 1311.14 599.67 1311.58 601.65H1330.77L1331.31 597.39H1332.89V601.65H1353.15L1353.69 597.39H1355.27V601.65H1375.53L1376.07 597.39H1377.65V601.65H1397.91L1398.45 597.39H1400.03V601.65H1420.29L1420.83 597.39H1422.41V601.65H1442.67L1443.21 597.39H1444.79V601.65H1465.05L1465.59 597.39H1467.17V601.65H1487.43L1487.97 597.39H1489.55V601.65H1509.81L1510.35 597.39H1511.93V601.65H1532.19L1532.73 597.39H1534.31V601.65H1554.57L1555.11 597.39H1556.69V601.65H1576.95V597.39H1578.54L1579.08 601.65H1599.34C1599.6 601.65 1599.11 597.34 1601.46 597.39V601.65H1621.73C1621.99 601.65 1621.5 597.34 1623.85 597.39V601.65H1644.12L1645.72 597.4L1646.24 601.66C1654.18 604.59 1662.11 596.7 1668.07 596.28C1671.14 596.07 1669.26 599.67 1669.7 601.65H1688.89C1689.15 601.65 1688.65 597.34 1691.02 597.39V968.74C1687.31 966.99 1689.34 961.46 1688.89 958.1H1669.7V969.81H1665.97L1665.44 961.29L1657.49 961.37L1656.32 958.03L1646.24 958.1L1645.72 968.74C1642.85 966.05 1644.48 961.55 1644.12 958.11H1623.86V968.75C1620.13 966.92 1622.2 961.41 1621.73 958.11H1601.47V968.75C1597.74 966.92 1599.81 961.41 1599.34 958.11H1579.08L1578.54 968.76C1576.06 969.47 1577.02 966.48 1576.95 965.04C1576.84 962.74 1577.02 960.4 1576.95 958.11H1556.69V968.75C1552.96 966.92 1555.03 961.41 1554.56 958.11H1534.3V968.75C1530.57 966.92 1532.64 961.41 1532.17 958.11H1511.91V968.75C1508.18 966.92 1510.25 961.41 1509.78 958.11H1489.52L1488.98 968.76C1486.5 969.47 1487.46 966.48 1487.39 965.04C1487.28 962.74 1487.46 960.4 1487.39 958.11H1467.13V968.75C1463.4 966.92 1465.47 961.41 1465 958.11H1444.74V968.75C1441.01 966.92 1443.08 961.41 1442.61 958.11H1422.35V968.75C1418.62 966.92 1420.69 961.41 1420.22 958.11H1399.96L1399.42 968.76C1396.94 969.47 1397.9 966.48 1397.83 965.04C1397.72 962.74 1397.9 960.4 1397.83 958.11H1377.57L1377.03 968.76C1374.55 969.47 1375.51 966.48 1375.44 965.04C1375.33 962.74 1375.51 960.4 1375.44 958.11H1355.18L1354.64 968.76C1352.16 969.47 1353.12 966.48 1353.05 965.04C1352.94 962.74 1353.12 960.4 1353.05 958.11H1332.79C1332.72 960.4 1332.9 962.74 1332.79 965.04C1332.72 966.47 1333.68 969.47 1331.2 968.76L1330.66 958.11H1311.47V969.82H1307.74L1307.21 961.3L1299.26 961.38L1298.09 958.04L1288.01 958.11C1287.6 958.52 1289.12 972.99 1285.89 968.75V958.12H1265.63L1265.09 968.77C1262.61 969.48 1263.57 966.49 1263.5 965.05C1263.39 962.75 1263.57 960.41 1263.5 958.12H1243.24L1242.7 968.77C1240.22 969.48 1241.18 966.49 1241.11 965.05C1241 962.75 1241.18 960.41 1241.11 958.12H1220.85L1220.31 968.77C1217.83 969.48 1218.79 966.49 1218.72 965.05C1218.61 962.75 1218.79 960.41 1218.72 958.12H1198.46L1197.92 968.77C1195.44 969.48 1196.4 966.49 1196.33 965.05C1196.22 962.75 1196.4 960.41 1196.33 958.12H1176.07L1175.53 968.77C1173.05 969.48 1174.01 966.49 1173.94 965.05C1173.83 962.75 1174.01 960.41 1173.94 958.12H1153.68L1153.14 968.77C1150.66 969.48 1151.62 966.49 1151.55 965.05C1151.44 962.75 1151.62 960.41 1151.55 958.12H1131.29L1130.75 968.77C1128.27 969.48 1129.23 966.49 1129.16 965.05C1129.05 962.75 1129.23 960.41 1129.16 958.12H1108.9L1108.36 968.77C1105.88 969.48 1106.84 966.49 1106.77 965.05C1106.66 962.75 1106.84 960.41 1106.77 958.12H1086.51L1085.97 968.77C1083.49 969.48 1084.45 966.49 1084.38 965.05C1084.27 962.75 1084.45 960.41 1084.38 958.12H1064.12L1063.58 968.77C1061.1 969.48 1062.06 966.49 1061.99 965.05C1061.88 962.75 1062.06 960.41 1061.99 958.12H1041.73L1041.19 968.77C1038.71 969.48 1039.67 966.49 1039.6 965.05C1039.49 962.75 1039.67 960.41 1039.6 958.12H1019.34V968.76C1015.61 966.93 1017.68 961.42 1017.21 958.12H996.95V968.76C993.22 966.93 995.29 961.42 994.82 958.12H974.56V968.76C970.83 966.93 972.9 961.42 972.43 958.12H953.24V969.83H949.51L948.98 961.31L941.03 961.39L939.86 958.05L929.78 958.12L929.26 968.76C926.39 966.07 928.02 961.57 927.66 958.13H907.4V968.77C903.67 966.94 905.74 961.43 905.27 958.13H885.01V968.77C881.28 966.94 883.35 961.43 882.88 958.13H862.62L862.08 968.78C859.6 969.49 860.56 966.5 860.49 965.06C860.38 962.76 860.56 960.42 860.49 958.13H840.23V968.77C836.5 966.94 838.57 961.43 838.1 958.13H817.84V968.77C814.11 966.94 816.18 961.43 815.71 958.13H795.45V968.77C791.72 966.94 793.79 961.43 793.32 958.13H773.06L772.52 968.78C770.04 969.49 771 966.5 770.93 965.06C770.82 962.76 771 960.42 770.93 958.13H750.67V968.77C746.94 966.94 749.01 961.43 748.54 958.13H728.28V968.77C724.55 966.94 726.62 961.43 726.15 958.13H705.89V968.77C702.16 966.94 704.23 961.43 703.76 958.13H683.5L682.96 968.78C680.48 969.49 681.44 966.5 681.37 965.06C681.26 962.76 681.44 960.42 681.37 958.13H661.11V968.77C657.38 966.94 659.45 961.43 658.98 958.13H638.72V968.77C634.99 966.94 637.06 961.43 636.59 958.13H616.33V968.77C612.6 966.94 614.67 961.43 614.2 958.13H595.01V969.84H591.28L590.75 961.32L581.73 961.4L580.56 958.06L571.54 958.13C571.13 958.54 572.65 973.01 569.42 968.77V958.14H549.16L548.62 968.79C546.14 969.5 547.1 966.51 547.03 965.07C546.92 962.77 547.1 960.43 547.03 958.14H526.77L526.23 968.79C523.75 969.5 524.71 966.51 524.64 965.07C524.53 962.77 524.71 960.43 524.64 958.14H504.38L503.84 968.79C501.36 969.5 502.32 966.51 502.25 965.07C502.14 962.77 502.32 960.43 502.25 958.14H481.99L481.45 968.79C478.97 969.5 479.93 966.51 479.86 965.07C479.75 962.77 479.93 960.43 479.86 958.14H459.6L459.06 968.79C456.58 969.5 457.54 966.51 457.47 965.07C457.36 962.77 457.54 960.43 457.47 958.14H437.21L436.67 968.79C434.19 969.5 435.15 966.51 435.08 965.07C434.97 962.77 435.15 960.43 435.08 958.14H414.82L414.28 968.79C411.8 969.5 412.76 966.51 412.69 965.07C412.58 962.77 412.76 960.43 412.69 958.14H392.43L391.89 968.79C389.41 969.5 390.37 966.51 390.3 965.07C390.19 962.77 390.37 960.43 390.3 958.14H370.04L369.5 968.79C367.02 969.5 367.98 966.51 367.91 965.07C367.8 962.77 367.98 960.43 367.91 958.14H347.65L347.11 968.79C344.63 969.5 345.59 966.51 345.52 965.07C345.41 962.77 345.59 960.43 345.52 958.14H325.26L324.72 968.79C322.24 969.5 323.2 966.51 323.13 965.07C323.02 962.77 323.2 960.43 323.13 958.14H302.87L302.33 968.79C299.85 969.5 300.81 966.51 300.74 965.07C300.63 962.77 300.81 960.43 300.74 958.14H280.48L279.94 968.79C277.46 969.5 278.42 966.51 278.35 965.07C278.24 962.77 278.42 960.43 278.35 958.14H258.09L257.55 968.79C255.07 969.5 256.03 966.51 255.96 965.07C255.85 962.77 256.03 960.43 255.96 958.14H235.7C235.8 958.83 236.4 972.48 233.57 968.77V958.13L226.09 957.6L233.56 957.07V933.66C231.48 933.94 228.75 933.18 226.85 933.65C225.68 933.94 225.26 938.16 220.31 937.89C215.92 937.65 214.78 934.42 215.44 930.47C219.23 929.43 216.88 934.06 217.57 934.73L222.95 934.23L222.9 930.48C225.94 929.22 226 932.41 226.82 932.58C228.87 933.01 231.42 932.39 233.57 932.6V920.89H226.1V925.16H215.44C215.07 920.23 215.24 916.27 221.21 916.67C224.91 916.92 224.98 919.64 225.78 919.82C228.08 920.32 231.12 919.55 233.57 919.84V896.43L226.1 895.9L233.57 895.37V871.96L226.1 871.43L233.57 870.9V847.49L226.17 847.61L225.52 850.75L215.44 850.68L215.59 846.03C221.55 840.11 226.62 848.16 233.57 846.42L233.59 836.39C226.32 833.21 215.35 846.36 215.45 831.52C219.24 830.48 216.89 835.11 217.58 835.78L222.96 835.28L222.91 831.53C225.95 830.27 226.01 833.46 226.83 833.63C228.89 834.06 231.42 833.43 233.58 833.65V774.06L226.11 773.53L233.58 773V749.59C228.38 747.15 219.08 756.91 215.99 750.66C215.34 749.34 214 743.21 217.59 744.28L217.74 749.44C220.59 751.1 222.64 750.61 223.99 747.48L219.73 748.53V744.28C220.91 744.38 222.38 744 223.46 744.26C227.11 745.15 225.38 748.21 226.77 748.6L233.59 748.53V725.12L226.12 724.59L233.59 724.06V700.65C231.45 700.89 228.87 700.21 226.86 700.67C226 700.87 226.58 702.6 224.6 702.86C221.82 703.22 218.37 702.46 215.46 702.78L215.93 697.39C216.59 696.47 221.87 695.58 223.08 695.87C225.71 696.5 227.05 702.09 233.6 699.59L233.62 689.56C226.35 686.38 215.38 699.53 215.48 684.69C219.27 683.65 216.92 688.28 217.61 688.95L222.99 688.45L222.94 684.7C225.98 683.44 226.04 686.63 226.86 686.8C228.92 687.23 231.45 686.6 233.61 686.82V627.23C231.47 627.47 228.89 626.79 226.88 627.25C226.02 627.45 226.6 629.18 224.62 629.44C221.84 629.8 218.39 629.03 215.48 629.36V622.98L217.62 627.24L219.75 622.97C223.12 622.26 221.64 625.09 221.88 627.24L233.61 626.17V602.75L226.15 601.7H233.61V597.43C236.96 596.71 235.54 599.56 235.74 601.69H256L256.54 597.43H258.12V601.69H278.38L278.92 597.43H280.5V601.69H300.76L301.3 597.43H302.88V601.69H323.14L323.68 597.43H325.26V601.69H345.52L346.06 597.43H347.64V601.69H367.9L368.44 597.43H370.02V601.69H390.28L390.82 597.43H392.4V601.69H412.66L413.2 597.43H414.78V601.69H435.04L435.58 597.43H437.16V601.69H457.42L457.96 597.43H459.54V601.69H479.8L480.34 597.43H481.92V601.69H502.18L502.72 597.43H504.3V601.69H524.56L525.1 597.43H526.68V601.69H546.94L547.48 597.43H549.06V601.69H569.32L569.69 601.65ZM256.27 602.71H236.01V626.12H256.27V602.71ZM278.65 602.71H258.39V626.12H278.65V602.71ZM301.04 602.71H280.78V626.12H301.04V602.71ZM323.43 602.71H303.17V626.12H323.43V602.71ZM345.82 602.71H325.56V626.12H345.82V602.71ZM368.2 602.71H347.94V626.12H368.2V602.71ZM390.59 602.71H370.33V626.12H390.59V602.71ZM412.98 602.71H392.72V626.12H412.98V602.71ZM435.37 602.71H415.11V626.12H435.37V602.71ZM457.75 602.71H437.49V626.12H457.75V602.71ZM480.14 602.71H459.88V626.12H480.14V602.71ZM502.53 602.71H482.27V626.12H502.53V602.71ZM524.92 602.71H504.66V626.12H524.92V602.71ZM547.3 602.71H527.04V626.12H547.3V602.71ZM569.69 602.71H549.43V626.12H569.69V602.71ZM571.82 602.71V626.12L580.83 626.19L581.95 622.92L585.67 626.12L587.26 622.92L587.81 626.12H591V617.61C584.46 620.89 577.52 616.01 583.53 610.16L583.68 615.34C588.85 618.45 594.29 611.59 585.68 614.42V610.17H591.01C593 605.44 585.42 603.6 581.69 602.98C578.41 602.44 575.1 602.8 571.82 602.72V602.71ZM614.47 602.71H595.28V626.12H614.47V602.71ZM636.85 602.71H616.59V626.12H636.85V602.71ZM659.24 602.71H638.98V626.12H659.24V602.71ZM681.63 602.71H661.37V626.12H681.63V602.71ZM704.02 602.71H683.76V626.12H704.02V602.71ZM726.4 602.71H706.14V626.12H726.4V602.71ZM748.79 602.71H728.53V626.12H748.79V602.71ZM771.18 602.71H750.92V626.12H771.18V602.71ZM793.57 602.71H773.31V626.12H793.57V602.71ZM815.95 602.71H795.69V626.12H815.95V602.71ZM838.34 602.71H818.08V626.12H838.34V602.71ZM860.73 602.71H840.47V626.12H860.73V602.71ZM883.12 602.71H862.86V626.12H883.12V602.71ZM905.5 602.71H885.24V626.12H905.5V602.71ZM927.89 602.71H907.63V626.12H927.89V602.71ZM930.02 602.71V626.12L940.1 626.19C940.75 621.88 943.09 620.86 942.82 626.12C946.42 627.08 944.08 623.32 945.49 622.92C948.56 622.04 945.4 627.28 949.2 626.11V618.67C943.17 619.7 937.83 615.67 942.28 610.17C944.32 614.1 942.79 617.96 949.21 615.45L944.96 614.4V611.75L949.27 609.59L948.73 605.84C942.96 602.5 936.59 602.38 930.03 602.7L930.02 602.71ZM972.67 602.71H953.48V626.12H972.67V602.71ZM995.05 602.71H974.79V626.12H995.05V602.71ZM1017.44 602.71H997.18V626.12H1017.44V602.71ZM1039.83 602.71H1019.57V626.12H1039.83V602.71ZM1062.22 602.71H1041.96V626.12H1062.22V602.71ZM1084.6 602.71H1064.34V626.12H1084.6V602.71ZM1106.99 602.71H1086.73V626.12H1106.99V602.71ZM1129.38 602.71H1109.12V626.12H1129.38V602.71ZM1151.77 602.71H1131.51V626.12H1151.77V602.71ZM1174.15 602.71H1153.89V626.12H1174.15V602.71ZM1196.54 602.71H1176.28V626.12H1196.54V602.71ZM1218.93 602.71H1198.67V626.12H1218.93V602.71ZM1241.32 602.71H1221.06V626.12H1241.32V602.71ZM1263.7 602.71H1243.44V626.12H1263.7V602.71ZM1286.09 602.71H1265.83V626.12H1286.09V602.71ZM1288.22 602.71V626.12L1298.3 626.19C1298.95 621.88 1301.29 620.86 1301.02 626.12C1304.62 627.08 1302.28 623.32 1303.69 622.92C1306.76 622.04 1303.6 627.28 1307.4 626.11V617.6C1301.32 621.38 1295.28 614.81 1301 610.15L1301.15 615.33C1306.32 618.44 1311.76 611.58 1303.15 614.41L1303.13 610.16L1306.69 610.18C1312.07 602.66 1289.23 601.69 1288.21 602.71H1288.22ZM1330.87 602.71H1311.68V626.12H1330.87V602.71ZM1353.25 602.71H1332.99V626.12H1353.25V602.71ZM1375.64 602.71H1355.38V626.12H1375.64V602.71ZM1398.03 602.71H1377.77V626.12H1398.03V602.71ZM1420.42 602.71H1400.16V626.12H1420.42V602.71ZM1442.8 602.71H1422.54V626.12H1442.8V602.71ZM1465.19 602.71H1444.93V626.12H1465.19V602.71ZM1487.58 602.71H1467.32V626.12H1487.58V602.71ZM1509.97 602.71H1489.71V626.12H1509.97V602.71ZM1532.35 602.71H1512.09V626.12H1532.35V602.71ZM1554.74 602.71H1534.48V626.12H1554.74V602.71ZM1577.13 602.71H1556.87V626.12H1577.13V602.71ZM1599.52 602.71H1579.26V626.12H1599.52V602.71ZM1621.9 602.71H1601.64V626.12H1621.9V602.71ZM1644.29 602.71H1624.03V626.12H1644.29V602.71ZM1646.42 602.71V626.12L1656.5 626.19C1657.15 621.88 1659.49 620.86 1659.22 626.12C1662.82 627.08 1660.48 623.32 1661.89 622.92C1664.96 622.04 1661.8 627.28 1665.6 626.11V618.67C1659.57 619.7 1654.23 615.67 1658.68 610.17C1660.72 614.1 1659.19 617.96 1665.61 615.45L1661.36 614.4V611.75L1665.67 609.59L1665.13 605.84C1659.36 602.5 1652.99 602.38 1646.43 602.7L1646.42 602.71ZM1689.07 602.71H1669.88V626.12H1689.07V602.71ZM256.27 627.18H236.01V650.59L241.35 651.12L236.01 651.65V675.06L241.35 675.59L236 676.12V686.77H256.26V627.18H256.27ZM278.65 627.18H258.39V650.59L262.67 651.12L258.39 651.65V675.06L262.67 675.59L258.39 676.12V686.77H278.65L278.68 676.81L276.51 675.59L278.75 673.54L278.68 652.33L276.51 651.11L278.68 649.89L278.65 627.16V627.18ZM301.04 627.18H280.78L280.71 650.01L283.99 651.12L280.71 652.23V674.47L283.99 675.58L280.86 676.17L280.78 686.75H301.04L300.96 676.17L297.83 675.58L301.11 674.47V652.23L297.83 651.12L301.11 650.01L301.04 627.18ZM323.43 627.18H303.17L303.14 649.91L305.31 651.13L303.14 652.35C304.01 656.51 301.92 672.52 303.44 674.89C303.77 675.41 305.47 674.63 305.32 675.61L303.15 676.83L303.18 686.79H323.44L323.36 676.21L320.23 675.62L323.51 674.51V652.27L320.23 651.16L323.51 650.05L323.44 627.22L323.43 627.18ZM345.82 627.18H325.56V686.77H345.82V676.12L341.54 675.59L345.82 675.06V651.65L341.54 651.12L345.82 650.59V627.18ZM368.2 627.18H347.94V686.77H368.2V676.12L362.86 675.59L368.2 675.06V651.65L362.86 651.12L368.2 650.59V627.18ZM390.59 627.18H370.33V686.77H390.59V676.12L384.18 675.59L390.59 675.06V651.65L384.18 651.12L390.59 650.59V627.18ZM412.98 627.18H392.72V686.77H412.98V676.12L405.51 675.59L412.98 675.06V651.65L405.51 651.12L412.98 650.59V627.18ZM435.37 627.18H415.11V686.77H435.37V627.18ZM457.75 627.18H437.49V686.77H457.75V627.18ZM480.14 627.18H459.88V650.59L467.35 651.12L459.88 651.65V675.06L467.35 675.59L459.87 676.12V686.77H480.13V627.18H480.14ZM502.53 627.18H482.27V650.59L488.68 651.12L482.27 651.65V675.06L488.68 675.59L482.27 676.12V686.77H502.53V627.18ZM524.92 627.18H504.66V650.59L510 651.12L504.66 651.65V675.06L510 675.59L504.65 676.12V686.77H524.91V627.18H524.92ZM547.3 627.18H527.04V650.59L531.32 651.12L527.04 651.65V675.06L531.32 675.59L527.04 676.12V686.77H547.3V627.18ZM569.69 627.18H549.43V650.59L553.71 651.12L549.43 651.65V675.06L553.71 675.59L549.43 676.12V686.77H569.69L569.72 676.81L567.55 675.59L569.79 673.54L569.72 652.33L567.55 651.11L569.72 649.89L569.69 627.16V627.18ZM581.13 627.52C578.71 626.41 574.58 627.57 571.82 627.17L571.75 650L575.03 651.11L571.75 652.22V674.46L575.03 675.57L571.9 676.16L571.82 686.75C575.48 686.11 580.83 688.67 581.96 684.61C584.41 684.07 583.03 686.45 584.24 686.77C585.85 687.19 588.18 686.53 589.95 686.74L589.19 684.86C592.32 684.34 590.77 680.88 591.01 678.24C583.8 681.84 580.32 673.92 573.95 673.97L574.04 669.81C582.84 665 582.5 677.58 588.27 676.09C590.67 675.47 588.96 672.59 589.21 672.08C589.36 671.78 592.33 671.41 591.02 667.61H581.41C580.45 659.74 583.73 657.54 591 660.15V654.83L582 654.91L581.27 651.83L578.22 651.64L581.4 648.46L573.96 648.41L574.03 644.29C577.27 643.22 583.1 642.31 581.41 647.39C584.98 646.2 587.43 646.15 591 647.39V642.07L581.39 641.46L581.41 635.69L585.66 639.95L587.79 635.68L589.92 639.95L591 629.3C590.57 628.86 584.01 629.72 582.13 629.28C581.37 629.1 581.39 627.64 581.11 627.52H581.13ZM614.47 627.18H595.28V686.77H614.47V676.12L610.19 675.59L614.47 675.06V651.65L610.19 651.12L614.47 650.59V627.18ZM636.85 627.18H616.59V686.77H636.85V676.12L631.51 675.59L636.85 675.06V651.65L631.51 651.12L636.85 650.59V627.18ZM659.24 627.18H638.98V686.77H659.24V676.12L653.9 675.59L659.24 675.06V651.65L653.9 651.12L659.24 650.59V627.18ZM681.63 627.18H661.37V686.77H681.63V676.12L675.22 675.59L681.63 675.06V651.65L675.22 651.12L681.63 650.59V627.18ZM704.02 627.18H683.76V686.77H704.02V676.12L696.55 675.59L704.02 675.06V651.65L696.55 651.12L704.02 650.59V627.18ZM726.4 627.18H706.14V686.77H726.4V627.18ZM748.79 627.18H728.53V650.59L736 651.12L728.53 651.65V675.06L736 675.59L728.52 676.12V686.77H748.78V627.18H748.79ZM771.18 627.18H750.92V650.59L757.33 651.12L750.92 651.65V675.06L757.33 675.59L750.92 676.12V686.77H771.18V627.18ZM793.57 627.18H773.31V650.59L779.72 651.12L773.31 651.65V675.06L779.72 675.59L773.31 676.12V686.77H793.57V627.18ZM815.95 627.18H795.69V650.59L801.03 651.12L795.69 651.65V675.06L801.03 675.59L795.68 676.12V686.77H815.94V627.18H815.95ZM838.34 627.18H818.08V650.59L822.36 651.12L818.08 651.65V675.06L822.36 675.59L818.08 676.12V686.77H838.34L838.37 676.81L836.2 675.59L838.44 673.54L838.37 652.33L836.2 651.11L838.37 649.89L838.34 627.16V627.18ZM860.73 627.18H840.47L840.4 650.01L843.68 651.12L840.4 652.23V674.47L843.68 675.58L840.55 676.17L840.47 686.75H860.73L860.76 676.79L858.59 675.57L860.83 673.52L860.76 652.31L858.59 651.09L860.76 649.87L860.73 627.14V627.18ZM883.12 627.18H862.86L862.83 649.91L865 651.13L862.83 652.35C863.7 656.51 861.61 672.52 863.13 674.89C863.46 675.41 865.16 674.63 865.01 675.61L862.84 676.83L862.87 686.79H883.13L883.05 676.21L879.92 675.62L883.2 674.51V652.27L879.92 651.16L883.2 650.05L883.13 627.22L883.12 627.18ZM905.5 627.18H885.24L885.21 649.91L887.38 651.13L885.21 652.35C886.08 656.51 883.99 672.52 885.51 674.89C885.84 675.41 887.54 674.63 887.39 675.61L885.22 676.83L885.25 686.79H905.51V676.14L901.23 675.61L905.51 675.08V651.67L901.23 651.14L905.51 650.61V627.2L905.5 627.18ZM927.89 627.18H907.63V686.77H927.89V676.12L922.55 675.59L927.89 675.06V651.65L922.55 651.12L927.89 650.59V627.18ZM930.02 627.18V686.77C933.74 686.06 940.09 688.79 941.22 684.62L943.89 684.65L942.81 686.76H949.22L949.2 678.26C944.69 681.94 941.68 676.29 941.01 676.15C939.55 675.84 933.15 676.72 933.21 675.6C937.23 675.09 932.97 672.39 933.23 669.81C937.9 667.8 939.93 669.81 943.79 671.97L942.81 675.05H949.21L949.22 668.22C948.91 666.11 940.64 669.72 940.63 666.01C940.63 659.92 943.51 657.7 949.19 660.16L949.21 654.84L941.26 654.92L940.61 651.78L933.2 651.13L941.73 649C936.48 649.38 933.97 650.6 933.23 644.29L941.74 644.22L940.67 647.39H949.19L949.21 642.07L940.66 641.46L940.68 635.69L942.81 639.95L944.94 635.68L949.19 639.94V629.3C946.76 629 943.69 629.81 941.4 629.28C940.54 629.08 941.11 627.35 939.14 627.09C936.36 626.73 932.91 627.5 930.01 627.17L930.02 627.18ZM972.67 627.18H953.48V686.77H972.67V676.12L965.2 675.59L972.67 675.06V651.65L966.26 651.12L972.67 650.59V627.18ZM995.05 627.18H974.79V686.77H995.05V676.12L987.58 675.59L995.05 675.06V651.65L987.58 651.12L995.05 650.59V627.18ZM1017.44 627.18H997.18V686.77H1017.44V627.18ZM1039.83 627.18H1019.57V650.59L1027.04 651.12L1019.57 651.65V675.06L1027.04 675.59L1019.56 676.12V686.77H1039.82V627.18H1039.83ZM1062.22 627.18H1041.96V650.59L1048.37 651.12L1041.96 651.65V675.06L1048.37 675.59L1041.96 676.12V686.77H1062.22V627.18ZM1084.6 627.18H1064.34V650.59L1069.68 651.12L1064.34 651.65V675.06L1069.68 675.59L1064.33 676.12V686.77H1084.59V627.18H1084.6ZM1106.99 627.18H1086.73V650.59L1091.01 651.12L1086.73 651.65V675.06L1091.01 675.59L1086.73 676.12V686.77H1106.99L1107.02 676.81L1104.85 675.59L1107.09 673.54L1107.02 652.33L1104.85 651.11L1107.02 649.89L1106.99 627.16V627.18ZM1129.38 627.18H1109.12L1109.05 650.01L1112.33 651.12L1109.05 652.23V674.47L1112.33 675.58L1109.2 676.17L1109.12 686.75H1129.38L1129.41 676.79L1127.24 675.57L1129.48 673.52L1129.41 652.31L1127.24 651.09L1129.41 649.87L1129.38 627.14V627.18ZM1151.77 627.18H1131.51L1131.44 650.01L1134.72 651.12L1131.44 652.23V674.47L1134.72 675.58L1131.59 676.17L1131.51 686.75H1151.77L1151.69 676.17L1148.56 675.58L1151.84 674.47V652.23L1148.56 651.12L1151.84 650.01L1151.77 627.18ZM1174.15 627.18H1153.89L1153.86 649.91L1156.03 651.13L1153.86 652.35C1154.73 656.51 1152.64 672.52 1154.16 674.89C1154.49 675.41 1156.19 674.63 1156.04 675.61L1153.87 676.83L1153.9 686.79H1174.16V676.14L1169.88 675.61L1174.16 675.08V651.67L1169.88 651.14L1174.16 650.61V627.2L1174.15 627.18ZM1196.54 627.18H1176.28V686.77H1196.54V676.12L1191.2 675.59L1196.54 675.06V651.65L1191.2 651.12L1196.54 650.59V627.18ZM1218.93 627.18H1198.67V686.77H1218.93V676.12L1212.52 675.59L1218.93 675.06V651.65L1212.52 651.12L1218.93 650.59V627.18ZM1241.32 627.18H1221.06V686.77H1241.32V676.12L1234.91 675.59L1241.32 675.06V651.65L1234.91 651.12L1241.32 650.59V627.18ZM1263.7 627.18H1243.44V686.77H1263.7V676.12L1256.23 675.59L1263.7 675.06V651.65L1256.23 651.12L1263.7 650.59V627.18ZM1286.09 627.18H1265.83V686.77H1286.09V627.18ZM1288.22 627.18V650.59L1295.69 651.12L1288.22 651.65V675.06H1293.55C1293.99 673.29 1292.15 674.41 1291.62 673.79C1291.17 673.27 1292.27 670.92 1291.53 669.83C1296.58 667.95 1300.34 669.02 1301.17 674.89L1307.42 675.05L1307.44 668.16L1298.89 667.61C1297.93 660.98 1300.75 656.95 1307.41 660.16L1307.43 654.84H1298.89V648.46L1291.45 648.41L1291.52 644.29C1294.76 643.22 1300.59 642.31 1298.9 647.39C1302.05 646.68 1304.37 645.51 1307.42 647.39L1307.44 642.07L1298.89 641.46L1298.91 635.69L1301.04 639.95L1303.17 635.68L1307.42 639.94V629.3C1304.99 629 1301.92 629.81 1299.63 629.28C1298.77 629.08 1299.34 627.35 1297.37 627.09C1294.59 626.73 1291.14 627.5 1288.24 627.17L1288.22 627.18ZM1330.87 627.18H1311.68V650.59L1317.02 651.12L1311.68 651.65V675.06L1317.02 675.59L1311.67 676.12V686.77H1330.87V627.18ZM1353.25 627.18H1332.99V650.59L1338.33 651.12L1332.99 651.65V675.06L1338.33 675.59L1332.98 676.12V686.77H1353.24V627.18H1353.25ZM1375.64 627.18H1355.38V650.59L1360.72 651.12L1355.38 651.65V675.06L1360.72 675.59L1355.37 676.12V686.77H1375.63V627.18H1375.64ZM1398.03 627.18H1377.77V650.59L1382.05 651.12L1377.77 651.65V675.06L1382.05 675.59L1377.77 676.12V686.77H1398.03L1398.06 676.81L1395.89 675.59L1398.13 673.54L1398.06 652.33L1395.89 651.11L1398.06 649.89L1398.03 627.16V627.18ZM1420.42 627.18H1400.16L1400.09 650.01L1403.37 651.12L1400.09 652.23V674.47L1403.37 675.58L1400.24 676.17L1400.16 686.75H1420.42L1420.34 676.17L1417.21 675.58L1420.49 674.47V652.23L1417.21 651.12L1420.49 650.01L1420.42 627.18ZM1442.8 627.18H1422.54L1422.51 649.91L1424.68 651.13L1422.51 652.35C1423.38 656.51 1421.29 672.52 1422.81 674.89C1423.14 675.41 1424.84 674.63 1424.69 675.61L1422.52 676.83L1422.55 686.79H1442.81L1442.73 676.21L1439.6 675.62L1442.88 674.51V652.27L1439.6 651.16L1442.88 650.05L1442.81 627.22L1442.8 627.18ZM1465.19 627.18H1444.93V686.77H1465.19V676.12L1460.91 675.59L1465.19 675.06V651.65L1460.91 651.12L1465.19 650.59V627.18ZM1487.58 627.18H1467.32V686.77H1487.58V676.12L1482.24 675.59L1487.58 675.06V651.65L1482.24 651.12L1487.58 650.59V627.18ZM1509.97 627.18H1489.71V686.77H1509.97V676.12L1503.56 675.59L1509.97 675.06V651.65L1503.56 651.12L1509.97 650.59V627.18ZM1532.35 627.18H1512.09V686.77H1532.35V676.12L1524.88 675.59L1532.35 675.06V651.65L1524.88 651.12L1532.35 650.59V627.18ZM1554.74 627.18H1534.48V686.77H1554.74V627.18ZM1577.13 627.18H1556.87V686.77H1577.13V627.18ZM1599.52 627.18H1579.26V650.59L1586.73 651.12L1579.26 651.65V675.06L1586.73 675.59L1579.25 676.12V686.77H1599.51V627.18H1599.52ZM1621.9 627.18H1601.64V650.59L1608.05 651.12L1601.64 651.65V675.06L1608.05 675.59L1601.64 676.12V686.77H1621.9V627.18ZM1644.29 627.18H1624.03V650.59L1629.37 651.12L1624.03 651.65V675.06L1629.37 675.59L1624.02 676.12V686.77H1644.28V627.18H1644.29ZM1646.42 627.18V650.59L1650.7 651.12L1646.42 651.65V675.06L1650.7 675.59L1646.42 676.12V686.77C1650.14 686.05 1656.5 688.78 1657.63 684.62L1660.3 684.65L1659.22 686.76H1665.63L1665.61 678.26C1660.59 681.47 1659.52 677.36 1657.27 676.23C1653.39 674.3 1649.9 675.31 1649.65 669.82C1654.35 667.79 1656.32 669.82 1660.21 671.98L1659.22 675.05L1665.62 676.13L1665.64 668.23C1665.33 666.12 1657.06 669.73 1657.05 666.02C1657.05 659.93 1659.93 657.71 1665.61 660.17L1665.63 654.85L1657.21 654.68C1657.12 652.79 1657.24 651.29 1654.98 651.64L1658.16 648.48L1651.74 649.03L1649.65 644.29L1658.16 644.22L1657.09 647.39H1665.61L1665.63 642.07L1657.08 641.46L1657.1 635.69L1659.23 639.95L1661.36 635.68L1665.61 639.94V629.3C1663.18 629 1660.11 629.81 1657.82 629.28C1656.96 629.08 1657.53 627.35 1655.56 627.09C1652.78 626.73 1649.33 627.5 1646.43 627.17L1646.42 627.18ZM1689.07 627.18H1669.88L1669.81 650.01L1673.09 651.12L1669.81 652.23V674.47L1673.09 675.58L1669.96 676.17L1669.88 686.75H1689.07L1689.1 676.79L1686.93 675.57L1689.17 673.52L1689.1 652.31L1686.93 651.09L1689.1 649.87L1689.07 627.14V627.18ZM1307.4 678.26C1303.46 680.44 1298.61 678.93 1298.87 674C1295.54 676.33 1292.19 676.4 1288.22 676.13V686.78C1292.06 686.05 1298.19 688.81 1299.43 684.64C1301.88 684.1 1300.5 686.48 1301.71 686.8C1303.32 687.22 1305.65 686.56 1307.42 686.77L1307.4 678.27V678.26ZM256.27 688.9H236.01V699.54H256.27V688.9ZM278.65 688.9H258.39V699.54H278.65V688.9ZM301.04 688.9H280.78V699.54H301.04V688.9ZM323.43 688.9H303.17V699.54H323.43V688.9ZM345.82 688.9H325.56V699.54H345.82V688.9ZM368.2 688.9H347.94V699.54H368.2V688.9ZM390.59 688.9H370.33V699.54H390.59V688.9ZM412.98 688.9H392.72V699.54H412.98V688.9ZM435.37 688.9H415.11V699.54H435.37V688.9ZM457.75 688.9H437.49V699.54H457.75V688.9ZM480.14 688.9H459.88V699.54H480.14V688.9ZM502.53 688.9H482.27V699.54H502.53V688.9ZM524.92 688.9H504.66V699.54H524.92V688.9ZM547.3 688.9H527.04V699.54H547.3V688.9ZM569.69 688.9H549.43V699.54H569.69V688.9ZM591 691.03C583.95 693.94 579.79 686.61 571.81 688.89V699.54C574.44 699.12 578.34 700.16 580.66 699.56C581.7 699.29 581.59 697.25 583.19 696.56C585.28 695.66 588.73 695.89 591 696.35V691.03ZM614.47 688.9H595.28V699.54H614.47V688.9ZM636.85 688.9H616.59V699.54H636.85V688.9ZM659.24 688.9H638.98V699.54H659.24V688.9ZM681.63 688.9H661.37V699.54H681.63V688.9ZM704.02 688.9H683.76V699.54H704.02V688.9ZM726.4 688.9H706.14V699.54H726.4V688.9ZM748.79 688.9H728.53V699.54H748.79V688.9ZM771.18 688.9H750.92V699.54H771.18V688.9ZM793.57 688.9H773.31V699.54H793.57V688.9ZM815.95 688.9H795.69V699.54H815.95V688.9ZM838.34 688.9H818.08V699.54H838.34V688.9ZM860.73 688.9H840.47V699.54H860.73V688.9ZM883.12 688.9H862.86V699.54H883.12V688.9ZM905.5 688.9H885.24V699.54H905.5V688.9ZM927.89 688.9H907.63V699.54H927.89V688.9ZM941.49 689.19C938.76 688.01 933.23 689.41 930.01 688.89V699.54C932.92 699.1 937.44 700.28 940.02 699.37C941.37 698.89 941.39 696.99 942 696.61C943.41 695.73 947.24 696.54 949.06 695.12L949.2 691.02C944.39 694.49 942.44 689.6 941.49 689.19ZM972.67 688.9H953.48V699.54H972.67V688.9ZM995.05 688.9H974.79V699.54H995.05V688.9ZM1017.44 688.9H997.18V699.54H1017.44V688.9ZM1039.83 688.9H1019.57V699.54H1039.83V688.9ZM1062.22 688.9H1041.96V699.54H1062.22V688.9ZM1084.6 688.9H1064.34V699.54H1084.6V688.9ZM1106.99 688.9H1086.73V699.54H1106.99V688.9ZM1129.38 688.9H1109.12V699.54H1129.38V688.9ZM1151.77 688.9H1131.51V699.54H1151.77V688.9ZM1174.15 688.9H1153.89V699.54H1174.15V688.9ZM1196.54 688.9H1176.28V699.54H1196.54V688.9ZM1218.93 688.9H1198.67V699.54H1218.93V688.9ZM1241.32 688.9H1221.06V699.54H1241.32V688.9ZM1263.7 688.9H1243.44V699.54H1263.7V688.9ZM1286.09 688.9H1265.83V699.54H1286.09V688.9ZM1307.4 691.03C1301.07 693.48 1296.03 686.43 1288.22 688.9V699.55C1291.13 699.07 1295.58 700.23 1298.14 699.57C1298.68 699.43 1302.67 693.54 1307.4 696.36V691.04V691.03ZM1330.87 688.9H1311.68V699.54H1330.87V688.9ZM1353.25 688.9H1332.99V699.54H1353.25V688.9ZM1375.64 688.9H1355.38V699.54H1375.64V688.9ZM1398.03 688.9H1377.77V699.54H1398.03V688.9ZM1420.42 688.9H1400.16V699.54H1420.42V688.9ZM1442.8 688.9H1422.54V699.54H1442.8V688.9ZM1465.19 688.9H1444.93V699.54H1465.19V688.9ZM1487.58 688.9H1467.32V699.54H1487.58V688.9ZM1509.97 688.9H1489.71V699.54H1509.97V688.9ZM1532.35 688.9H1512.09V699.54H1532.35V688.9ZM1554.74 688.9H1534.48V699.54H1554.74V688.9ZM1577.13 688.9H1556.87V699.54H1577.13V688.9ZM1599.52 688.9H1579.26V699.54H1599.52V688.9ZM1621.9 688.9H1601.64V699.54H1621.9V688.9ZM1644.29 688.9H1624.03V699.54H1644.29V688.9ZM1657.89 689.19C1655.16 688.01 1649.63 689.41 1646.41 688.89V699.54C1649.32 699.1 1653.84 700.28 1656.42 699.37C1657.77 698.89 1657.79 696.99 1658.4 696.61C1659.81 695.73 1663.64 696.54 1665.46 695.12L1665.6 691.02C1660.79 694.49 1658.84 689.6 1657.89 689.19ZM1689.07 688.9H1669.88V699.54H1689.07V688.9ZM256.27 700.6H236.01V724.01H256.27V700.6ZM278.65 700.6H258.39V724.01H278.65V700.6ZM301.04 700.6H280.78V724.01H301.04V700.6ZM323.43 700.6H303.17V724.01H323.43V700.6ZM345.82 700.6H325.56V724.01H345.82V700.6ZM368.2 700.6H347.94V724.01H368.2V700.6ZM390.59 700.6H370.33V724.01H390.59V700.6ZM412.98 700.6H392.72V724.01H412.98V700.6ZM435.37 700.6H415.11V724.01H435.37V700.6ZM457.75 700.6H437.49V724.01H457.75V700.6ZM480.14 700.6H459.88V724.01H480.14V700.6ZM502.53 700.6H482.27V724.01H502.53V700.6ZM524.92 700.6H504.66V724.01H524.92V700.6ZM547.3 700.6H527.04V724.01H547.3V700.6ZM569.69 700.6H549.43V724.01H569.69V700.6ZM571.82 700.6V724.01C574.26 725.85 590.64 720.44 591.03 719.22C591.23 718.59 591.37 716.66 590.38 716.46C588.16 715.56 585.25 715.24 583.18 714.23C581.75 713.53 581.64 711.74 581.24 711.47C580.94 711.27 575.39 712.52 573.97 711.18L574.04 707.06C577.31 705.94 583.18 705.16 581.42 710.16L590.38 708.16L591.02 702.72C588.44 702.43 585.42 703.13 582.95 702.81C580.98 702.56 581.55 700.82 580.69 700.62C578.15 700.03 574.57 700.95 571.83 700.6H571.82ZM614.47 700.6H595.28V724.01H614.47V700.6ZM636.85 700.6H616.59V724.01H636.85V700.6ZM659.24 700.6H638.98V724.01H659.24V700.6ZM681.63 700.6H661.37V724.01H681.63V700.6ZM704.02 700.6H683.76V724.01H704.02V700.6ZM726.4 700.6H706.14V724.01H726.4V700.6ZM748.79 700.6H728.53V724.01H748.79V700.6ZM771.18 700.6H750.92V724.01H771.18V700.6ZM793.57 700.6H773.31V724.01H793.57V700.6ZM815.95 700.6H795.69V724.01H815.95V700.6ZM838.34 700.6H818.08V724.01H838.34V700.6ZM860.73 700.6H840.47V724.01H860.73V700.6ZM883.12 700.6H862.86V724.01H883.12V700.6ZM905.5 700.6H885.24V724.01H905.5V700.6ZM927.89 700.6H907.63V724.01H927.89V700.6ZM930.02 700.6V724.01C933.3 725.24 947.16 722.08 948.74 719.81C951.76 715.47 944.39 715.36 942.44 714.25C940.91 713.38 940.85 711.6 940.55 711.39C940.2 711.14 936.78 713.24 935.33 711.8L933.24 707.05C934.21 706.09 941.08 706.16 941.75 706.98C942.52 707.91 938.78 710.41 942.28 710.19C947.5 709.86 950.2 708.39 949.21 702.72C946.76 702.41 943.7 703.23 941.41 702.7C940.55 702.5 941.12 700.77 939.15 700.51C936.37 700.15 932.92 700.92 930.02 700.59V700.6ZM972.67 700.6H953.48V724.01H972.67V700.6ZM995.05 700.6H974.79V724.01H995.05V700.6ZM1017.44 700.6H997.18V724.01H1017.44V700.6ZM1039.83 700.6H1019.57V724.01H1039.83V700.6ZM1062.22 700.6H1041.96V724.01H1062.22V700.6ZM1084.6 700.6H1064.34V724.01H1084.6V700.6ZM1106.99 700.6H1086.73V724.01H1106.99V700.6ZM1129.38 700.6H1109.12V724.01H1129.38V700.6ZM1151.77 700.6H1131.51V724.01H1151.77V700.6ZM1174.15 700.6H1153.89V724.01H1174.15V700.6ZM1196.54 700.6H1176.28V724.01H1196.54V700.6ZM1218.93 700.6H1198.67V724.01H1218.93V700.6ZM1241.32 700.6H1221.06V724.01H1241.32V700.6ZM1263.7 700.6H1243.44V724.01H1263.7V700.6ZM1286.09 700.6H1265.83V724.01H1286.09V700.6ZM1288.22 700.6V724.01C1291.5 725.24 1305.36 722.08 1306.94 719.81C1309.9 715.56 1302.76 715.32 1300.64 714.24C1299.22 713.52 1299.1 711.74 1298.7 711.47C1298.4 711.27 1292.85 712.52 1291.43 711.18L1291.5 707.06C1294.77 705.94 1300.64 705.16 1298.88 710.16C1304.38 710.1 1308.66 709.28 1307.41 702.72C1304.96 702.41 1301.9 703.23 1299.61 702.7C1298.75 702.5 1299.32 700.77 1297.35 700.51C1294.57 700.15 1291.12 700.92 1288.22 700.59V700.6ZM1330.87 700.6H1311.68V724.01H1330.87V700.6ZM1353.25 700.6H1332.99V724.01H1353.25V700.6ZM1375.64 700.6H1355.38V724.01H1375.64V700.6ZM1398.03 700.6H1377.77V724.01H1398.03V700.6ZM1420.42 700.6H1400.16V724.01H1420.42V700.6ZM1442.8 700.6H1422.54V724.01H1442.8V700.6ZM1465.19 700.6H1444.93V724.01H1465.19V700.6ZM1487.58 700.6H1467.32V724.01H1487.58V700.6ZM1509.97 700.6H1489.71V724.01H1509.97V700.6ZM1532.35 700.6H1512.09V724.01H1532.35V700.6ZM1554.74 700.6H1534.48V724.01H1554.74V700.6ZM1577.13 700.6H1556.87V724.01H1577.13V700.6ZM1599.52 700.6H1579.26V724.01H1599.52V700.6ZM1621.9 700.6H1601.64V724.01H1621.9V700.6ZM1644.29 700.6H1624.03V724.01H1644.29V700.6ZM1646.42 700.6V724.01C1649.7 725.24 1663.56 722.08 1665.14 719.81C1668.16 715.47 1660.79 715.36 1658.84 714.25C1657.31 713.38 1657.25 711.6 1656.95 711.39C1656.6 711.14 1653.18 713.24 1651.73 711.8L1649.64 707.05C1650.61 706.09 1657.48 706.16 1658.15 706.98C1658.92 707.91 1655.18 710.41 1658.68 710.19C1663.9 709.86 1666.6 708.39 1665.61 702.72C1663.16 702.41 1660.1 703.23 1657.81 702.7C1656.95 702.5 1657.52 700.77 1655.55 700.51C1652.77 700.15 1649.32 700.92 1646.42 700.59V700.6ZM1689.07 700.6H1669.88V724.01H1689.07V700.6ZM236.01 725.07V748.48H256.27V725.07H236.01ZM258.4 725.07V748.48H278.66V725.07H258.4ZM301.04 725.07H280.78V748.48H301.04V725.07ZM323.43 725.07H303.17V748.48H323.43V725.07ZM345.82 725.07H325.56V748.48H345.82V725.07ZM368.2 725.07H347.94V748.48H368.2V725.07ZM390.59 725.07H370.33V748.48H390.59V725.07ZM412.98 725.07H392.72V748.48H412.98V725.07ZM435.37 725.07H415.11V748.48H435.37V725.07ZM457.75 725.07H437.49V748.48H457.75V725.07ZM480.14 725.07H459.88V748.48H480.14V725.07ZM502.53 725.07H482.27V748.48H502.53V725.07ZM524.92 725.07H504.66V748.48H524.92V725.07ZM547.3 725.07H527.04V748.48H547.3V725.07ZM569.69 725.07H549.43V748.48H569.69V725.07ZM571.82 725.07V748.48L580.76 748.55L583.54 744.23L585.68 748.49V744.22H591.02V739.97C585.41 741.93 580.94 741.63 581.41 734.63L573.97 734.59L574.04 730.47C577.24 729.4 581.36 728.81 583.01 732.55C583.8 734.34 583.19 736.82 583.71 737.67C584.42 738.83 591.03 739.37 589.95 735.71L585.7 736.77V732.52H591.03C593.02 727.79 585.44 725.95 581.71 725.33C578.43 724.79 575.12 725.15 571.84 725.07H571.82ZM614.47 725.07H595.28V748.48H614.47V725.07ZM636.85 725.07H616.59V748.48H636.85V725.07ZM659.24 725.07H638.98V748.48H659.24V725.07ZM681.63 725.07H661.37V748.48H681.63V725.07ZM704.02 725.07H683.76V748.48H704.02V725.07ZM726.4 725.07H706.14V748.48H726.4V725.07ZM748.79 725.07H728.53V748.48H748.79V725.07ZM771.18 725.07H750.92V748.48H771.18V725.07ZM793.57 725.07H773.31V748.48H793.57V725.07ZM815.95 725.07H795.69V748.48H815.95V725.07ZM838.34 725.07H818.08V748.48H838.34V725.07ZM860.73 725.07H840.47V748.48H860.73V725.07ZM883.12 725.07H862.86V748.48H883.12V725.07ZM905.5 725.07H885.24V748.48H905.5V725.07ZM927.89 725.07H907.63V748.48H927.89V725.07ZM930.02 725.07V748.48L940.03 748.55L942.28 744.24L942.8 747.93L944.94 748.48C944.69 745.25 945.94 744.07 949.17 744.16L949.22 741.03C940.21 743.1 941.89 735.79 940.67 734.63C940.47 734.44 936.8 736.76 935.33 735.2L933.24 730.46C935.17 729.81 939.21 729.12 940.95 730.3C944.2 732.49 942.14 738.01 945.64 738.69C946.92 738.94 950.03 738.12 949.2 735.71L944.95 736.77V734.12L949.26 731.96L948.72 728.21C942.95 724.87 936.58 724.76 930.02 725.07ZM972.67 725.07H953.48V748.48H972.67V725.07ZM995.05 725.07H974.79V748.48H995.05V725.07ZM1017.44 725.07H997.18V748.48H1017.44V725.07ZM1039.83 725.07H1019.57V748.48H1039.83V725.07ZM1062.22 725.07H1041.96V748.48H1062.22V725.07ZM1084.6 725.07H1064.34V748.48H1084.6V725.07ZM1106.99 725.07H1086.73V748.48H1106.99V725.07ZM1129.38 725.07H1109.12V748.48H1129.38V725.07ZM1151.77 725.07H1131.51V748.48H1151.77V725.07ZM1174.15 725.07H1153.89V748.48H1174.15V725.07ZM1196.54 725.07H1176.28V748.48H1196.54V725.07ZM1218.93 725.07H1198.67V748.48H1218.93V725.07ZM1241.32 725.07H1221.06V748.48H1241.32V725.07ZM1263.7 725.07H1243.44V748.48H1263.7V725.07ZM1286.09 725.07H1265.83V748.48H1286.09V725.07ZM1288.22 725.07V748.48L1298.23 748.55L1301.01 744.23L1303.15 748.49V744.22H1307.43L1307.41 739.97C1302.32 742.61 1298.3 740.55 1298.88 734.64L1291.44 734.6L1291.51 730.48C1294.71 729.41 1298.83 728.82 1300.48 732.56C1301.27 734.35 1300.66 736.83 1301.18 737.68C1301.89 738.84 1308.5 739.38 1307.42 735.72L1303.17 736.78L1303.15 732.53L1306.71 732.55C1312.09 725.03 1289.25 724.06 1288.23 725.08L1288.22 725.07ZM1330.87 725.07H1311.68V748.48H1330.87V725.07ZM1353.25 725.07H1332.99V748.48H1353.25V725.07ZM1375.64 725.07H1355.38V748.48H1375.64V725.07ZM1398.03 725.07H1377.77V748.48H1398.03V725.07ZM1420.42 725.07H1400.16V748.48H1420.42V725.07ZM1442.8 725.07H1422.54V748.48H1442.8V725.07ZM1465.19 725.07H1444.93V748.48H1465.19V725.07ZM1487.58 725.07H1467.32V748.48H1487.58V725.07ZM1509.97 725.07H1489.71V748.48H1509.97V725.07ZM1532.35 725.07H1512.09V748.48H1532.35V725.07ZM1554.74 725.07H1534.48V748.48H1554.74V725.07ZM1577.13 725.07H1556.87V748.48H1577.13V725.07ZM1599.52 725.07H1579.26V748.48H1599.52V725.07ZM1621.9 725.07H1601.64V748.48H1621.9V725.07ZM1644.29 725.07H1624.03V748.48H1644.29V725.07ZM1646.42 725.07V748.48L1656.43 748.55L1658.68 744.24L1659.2 747.93L1661.34 748.48C1661.09 745.25 1662.34 744.07 1665.57 744.16L1665.62 741.03C1656.61 743.1 1658.29 735.79 1657.07 734.63C1656.87 734.44 1653.2 736.76 1651.73 735.2L1649.64 730.46C1651.57 729.81 1655.61 729.12 1657.35 730.3C1660.6 732.49 1658.54 738.01 1662.04 738.69C1663.32 738.94 1666.43 738.12 1665.6 735.71L1661.35 736.77V734.12L1665.66 731.96L1665.12 728.21C1659.35 724.87 1652.98 724.76 1646.42 725.07ZM1689.07 725.07H1669.88V748.48H1689.07V725.07ZM236.01 749.55V772.96H256.27V749.55H236.01ZM258.4 749.55V772.96H278.66V749.55H258.4ZM301.04 749.55H280.78V772.96H301.04V749.55ZM323.43 749.55H303.17V772.96H323.43V749.55ZM345.82 749.55H325.56V772.96H345.82V749.55ZM368.2 749.55H347.94V772.96H368.2V749.55ZM390.59 749.55H370.33V772.96H390.59V749.55ZM412.98 749.55H392.72V772.96H412.98V749.55ZM435.37 749.55H415.11V772.96H435.37V749.55ZM457.75 749.55H437.49V772.96H457.75V749.55ZM480.14 749.55H459.88V772.96H480.14V749.55ZM502.53 749.55H482.27V772.96H502.53V749.55ZM524.92 749.55H504.66V772.96H524.92V749.55ZM547.3 749.55H527.04V772.96H547.3V749.55ZM569.69 749.55H549.43V772.96H569.69V749.55ZM571.82 749.55V772.96C574.88 772.3 581.71 774.89 581.44 770.87L583 770.82L583.57 772.91H585.64L586.21 770.81L591 772.96L591.02 765.06L581.4 764.45V759.12L573.95 759.07L574.02 754.95C580.42 751.96 583.27 756.86 583.53 762.32C587.49 763.27 584.57 758.58 586.2 758.05C589.11 757.11 587.2 761.75 587.79 762.32H590.98V751.67C583.51 754.94 580.17 747.17 571.8 749.54L571.82 749.55ZM614.47 749.55H595.28V772.96H614.47V749.55ZM636.85 749.55H616.59V772.96H636.85V749.55ZM659.24 749.55H638.98V772.96H659.24V749.55ZM681.63 749.55H661.37V772.96H681.63V749.55ZM704.02 749.55H683.76V772.96H704.02V749.55ZM726.4 749.55H706.14V772.96H726.4V749.55ZM748.79 749.55H728.53V772.96H748.79V749.55ZM771.18 749.55H750.92V772.96H771.18V749.55ZM793.57 749.55H773.31V772.96H793.57V749.55ZM815.95 749.55H795.69V772.96H815.95V749.55ZM838.34 749.55H818.08V772.96H838.34V749.55ZM860.73 749.55H840.47V772.96H860.73V749.55ZM883.12 749.55H862.86V772.96H883.12V749.55ZM905.5 749.55H885.24V772.96H905.5V749.55ZM927.89 749.55H907.63V772.96H927.89V749.55ZM930.02 749.55V772.96C933.24 772.21 940.89 775 940.71 770.87L942.27 770.81L942.84 772.9H944.91L944.98 770.88L949.2 772.95V764.44L940.67 764.45V759.12L935.32 759.68C930.12 753.53 936.64 753.52 941.75 754.87L940.81 757.54C943.39 758.45 943.01 759.72 942.81 762.32L944.94 758.05L949.19 762.31L949.23 753.34C949.08 752.4 944.75 752.71 943.01 752.01C941.8 751.52 941.88 749.76 940.99 749.56C937.9 748.88 933.35 749.99 930 749.54L930.02 749.55ZM972.67 749.55H953.48V772.96H972.67V749.55ZM995.05 749.55H974.79V772.96H995.05V749.55ZM1017.44 749.55H997.18V772.96H1017.44V749.55ZM1039.83 749.55H1019.57V772.96H1039.83V749.55ZM1062.22 749.55H1041.96V772.96H1062.22V749.55ZM1084.6 749.55H1064.34V772.96H1084.6V749.55ZM1106.99 749.55H1086.73V772.96H1106.99V749.55ZM1129.38 749.55H1109.12V772.96H1129.38V749.55ZM1151.77 749.55H1131.51V772.96H1151.77V749.55ZM1174.15 749.55H1153.89V772.96H1174.15V749.55ZM1196.54 749.55H1176.28V772.96H1196.54V749.55ZM1218.93 749.55H1198.67V772.96H1218.93V749.55ZM1241.32 749.55H1221.06V772.96H1241.32V749.55ZM1263.7 749.55H1243.44V772.96H1263.7V749.55ZM1286.09 749.55H1265.83V772.96H1286.09V749.55ZM1288.22 749.55V772.96C1291.44 772.21 1299.09 775 1298.91 770.87L1300.47 770.81L1301.04 772.9H1303.11L1303.18 770.88L1307.4 772.95L1307.42 765.06L1298.87 764.45V759.12L1291.42 759.07L1291.49 754.95C1297.89 751.96 1300.74 756.86 1301 762.32L1303.13 758.05L1307.38 762.31V751.68C1302.26 755.26 1300.47 750.19 1297.24 749.57C1294.53 749.04 1291.04 749.87 1288.19 749.55H1288.22ZM1330.87 749.55H1311.68V772.96H1330.87V749.55ZM1353.25 749.55H1332.99V772.96H1353.25V749.55ZM1375.64 749.55H1355.38V772.96H1375.64V749.55ZM1398.03 749.55H1377.77V772.96H1398.03V749.55ZM1420.42 749.55H1400.16V772.96H1420.42V749.55ZM1442.8 749.55H1422.54V772.96H1442.8V749.55ZM1465.19 749.55H1444.93V772.96H1465.19V749.55ZM1487.58 749.55H1467.32V772.96H1487.58V749.55ZM1509.97 749.55H1489.71V772.96H1509.97V749.55ZM1532.35 749.55H1512.09V772.96H1532.35V749.55ZM1554.74 749.55H1534.48V772.96H1554.74V749.55ZM1577.13 749.55H1556.87V772.96H1577.13V749.55ZM1599.52 749.55H1579.26V772.96H1599.52V749.55ZM1621.9 749.55H1601.64V772.96H1621.9V749.55ZM1644.29 749.55H1624.03V772.96H1644.29V749.55ZM1646.42 749.55V772.96C1649.64 772.21 1657.29 775 1657.11 770.87L1658.67 770.81L1659.24 772.9H1661.31L1661.38 770.88L1665.6 772.95V764.44L1657.07 764.45V759.12L1651.72 759.68C1646.52 753.53 1653.04 753.52 1658.15 754.87L1657.21 757.54C1659.79 758.45 1659.41 759.72 1659.21 762.32L1661.34 758.05L1665.59 762.31L1665.63 753.34C1665.48 752.4 1661.15 752.71 1659.41 752.01C1658.2 751.52 1658.28 749.76 1657.39 749.56C1654.3 748.88 1649.75 749.99 1646.4 749.54L1646.42 749.55ZM1689.07 749.55H1669.88V772.96H1689.07V749.55ZM256.27 774.02H236.01V797.43L241.35 797.96L236.01 798.49V821.9L241.35 822.43L236 822.96V833.61H256.26V774.02H256.27ZM278.65 774.02H258.39V797.43L262.67 797.96L258.39 798.49V821.9L262.67 822.43L258.39 822.96V833.61H278.65L278.68 823.65L276.51 822.43L278.75 820.38L278.68 799.17L276.51 797.95L278.68 796.73L278.65 774V774.02ZM301.04 774.02H280.78L280.71 796.85L283.99 797.96L280.71 799.07V821.31L283.99 822.42L280.86 823.01L280.78 833.59H301.04L300.96 823.01L297.83 822.42L301.11 821.31V799.07L297.83 797.96L301.11 796.85L301.04 774.02ZM323.43 774.02H303.17L303.14 796.75L305.31 797.97L303.14 799.19C304.01 803.35 301.92 819.36 303.44 821.73C303.77 822.25 305.47 821.47 305.32 822.45L303.15 823.67L303.18 833.63H323.44L323.36 823.05L320.23 822.46L323.51 821.35V799.11L320.23 798L323.51 796.89L323.44 774.06L323.43 774.02ZM345.82 774.02H325.56V833.61H345.82V822.96L341.54 822.43L345.82 821.9V798.49L341.54 797.96L345.82 797.43V774.02ZM368.2 774.02H347.94V833.61H368.2V822.96L362.86 822.43L368.2 821.9V798.49L362.86 797.96L368.2 797.43V774.02ZM390.59 774.02H370.33V833.61H390.59V822.96L384.18 822.43L390.59 821.9V798.49L384.18 797.96L390.59 797.43V774.02ZM412.98 774.02H392.72V833.61H412.98V822.96L405.51 822.43L412.98 821.9V798.49L405.51 797.96L412.98 797.43V774.02ZM435.37 774.02H415.11V833.61H435.37V774.02ZM457.75 774.02H437.49V833.61H457.75V774.02ZM480.14 774.02H459.88V797.43L467.35 797.96L459.88 798.49V821.9L467.35 822.43L459.87 822.96V833.61H480.13V774.02H480.14ZM502.53 774.02H482.27V797.43L488.68 797.96L482.27 798.49V821.9L488.68 822.43L482.27 822.96V833.61H502.53V774.02ZM524.92 774.02H504.66V797.43L510 797.96L504.66 798.49V821.9L510 822.43L504.65 822.96V833.61H524.91V774.02H524.92ZM547.3 774.02H527.04V797.43L531.32 797.96L527.04 798.49V821.9L531.32 822.43L527.04 822.96V833.61H547.3V774.02ZM569.69 774.02H549.43V797.43L553.71 797.96L549.43 798.49V821.9L553.71 822.43L549.43 822.96V833.61H569.69L569.72 823.65L567.55 822.43L569.79 820.38L569.72 799.17L567.55 797.95L569.72 796.73L569.69 774V774.02ZM581.35 774.14L571.82 774.01L571.75 796.84L575.03 797.95L571.75 799.06V821.3L575.03 822.41L571.9 823L571.82 833.59C575.48 832.95 580.83 835.51 581.96 831.45C584.41 830.91 583.03 833.29 584.24 833.61C585.85 834.03 588.18 833.37 589.95 833.58L589.19 831.7C592.07 831.23 590.92 828.59 591.01 826.15C583.82 829.71 583.42 823.43 578.23 822.94L581.41 819.76L573.97 819.71L574.04 815.59C583.52 811.87 579.99 819.53 585.67 821.9L583.55 824.01C591.23 824.96 587.97 822.97 589.14 820.3C589.47 819.54 592.56 818.57 591.02 814.45H581.42C580.46 806.59 583.74 804.38 591.01 807V802.75H581.42C582.83 798.16 577.72 796.66 573.95 796.35L574.04 792.19C577.28 791.12 583.11 790.21 581.42 795.29C584.99 794.11 587.44 794.05 591.01 795.29V788.9L581.4 788.29L581.42 782.52L585.67 786.78L587.8 782.51L589.93 786.78L591.01 777.2L582 777.27L581.35 774.13V774.14ZM614.47 774.02H595.28V833.61H614.47V822.96L610.19 822.43L614.47 821.9V798.49L610.19 797.96L614.47 797.43V774.02ZM636.85 774.02H616.59V833.61H636.85V822.96L631.51 822.43L636.85 821.9V798.49L631.51 797.96L636.85 797.43V774.02ZM659.24 774.02H638.98V833.61H659.24V822.96L653.9 822.43L659.24 821.9V798.49L653.9 797.96L659.24 797.43V774.02ZM681.63 774.02H661.37V833.61H681.63V822.96L675.22 822.43L681.63 821.9V798.49L675.22 797.96L681.63 797.43V774.02ZM704.02 774.02H683.76V833.61H704.02V822.96L696.55 822.43L704.02 821.9V798.49L696.55 797.96L704.02 797.43V774.02ZM726.4 774.02H706.14V833.61H726.4V774.02ZM748.79 774.02H728.53V797.43L736 797.96L728.53 798.49V821.9L736 822.43L728.52 822.96V833.61H748.78V774.02H748.79ZM771.18 774.02H750.92V797.43L757.33 797.96L750.92 798.49V821.9L757.33 822.43L750.92 822.96V833.61H771.18V774.02ZM793.57 774.02H773.31V797.43L779.72 797.96L773.31 798.49V821.9L779.72 822.43L773.31 822.96V833.61H793.57V774.02ZM815.95 774.02H795.69V797.43L801.03 797.96L795.69 798.49V821.9L801.03 822.43L795.68 822.96V833.61H815.94V774.02H815.95ZM838.34 774.02H818.08V797.43L822.36 797.96L818.08 798.49V821.9L822.36 822.43L818.08 822.96V833.61H838.34L838.37 823.65L836.2 822.43L838.44 820.38L838.37 799.17L836.2 797.95L838.37 796.73L838.34 774V774.02ZM860.73 774.02H840.47L840.4 796.85L843.68 797.96L840.4 799.07V821.31L843.68 822.42L840.55 823.01L840.47 833.59H860.73L860.76 823.63L858.59 822.41L860.83 820.36L860.76 799.15L858.59 797.93L860.76 796.71L860.73 773.98V774.02ZM883.12 774.02H862.86L862.83 796.75L865 797.97L862.83 799.19C863.7 803.35 861.61 819.36 863.13 821.73C863.46 822.25 865.16 821.47 865.01 822.45L862.84 823.67L862.87 833.63H883.13L883.05 823.05L879.92 822.46L883.2 821.35V799.11L879.92 798L883.2 796.89L883.13 774.06L883.12 774.02ZM905.5 774.02H885.24L885.21 796.75L887.38 797.97L885.21 799.19C886.08 803.35 883.99 819.36 885.51 821.73C885.84 822.25 887.54 821.47 887.39 822.45L885.22 823.67L885.25 833.63H905.51V822.98L901.23 822.45L905.51 821.92V798.51L901.23 797.98L905.51 797.45V774.04L905.5 774.02ZM927.89 774.02H907.63V833.61H927.89V822.96L922.55 822.43L927.89 821.9V798.49L922.55 797.96L927.89 797.43V774.02ZM930.02 774.02V833.61C933.74 832.9 940.09 835.63 941.22 831.46L943.89 831.49L942.81 833.6H949.22L949.2 826.16C941.9 829.95 941.38 820.32 933.22 822.96L940.68 821.36L935.32 820.34L933.23 815.6L941.75 815.54L941.16 818.78L943.77 819.88L942.81 822.97L949.24 821.31L949.21 814.46C947.28 813.76 940.64 816.19 940.64 812.87C940.64 806.78 943.52 804.56 949.2 807.02V802.77H940.68V798.5L933.21 797.98C937.24 797.47 932.96 794.77 933.23 792.2L941.75 792.14L940.68 795.31H949.2L949.22 788.93L940.67 788.32L940.69 782.55L942.82 786.81L944.95 782.54L949.2 786.8V777.22L941.26 777.3L940.09 773.96L930.01 774.03L930.02 774.02ZM972.67 774.02H953.48V833.61H972.67V822.96L965.2 822.43L972.67 821.9V798.49L965.2 797.96L972.67 797.43V774.02ZM995.05 774.02H974.79V833.61H995.05V822.96L987.58 822.43L995.05 821.9V798.49L987.58 797.96L995.05 797.43V774.02ZM1017.44 774.02H997.18V833.61H1017.44V774.02ZM1039.83 774.02H1019.57V797.43L1027.04 797.96L1019.57 798.49V821.9L1027.04 822.43L1019.56 822.96V833.61H1039.82V774.02H1039.83ZM1062.22 774.02H1041.96V797.43L1048.37 797.96L1041.96 798.49V821.9L1048.37 822.43L1041.96 822.96V833.61H1062.22V774.02ZM1084.6 774.02H1064.34V797.43L1069.68 797.96L1064.34 798.49V821.9L1069.68 822.43L1064.33 822.96V833.61H1084.59V774.02H1084.6ZM1106.99 774.02H1086.73V797.43L1091.01 797.96L1086.73 798.49V821.9L1091.01 822.43L1086.73 822.96V833.61H1106.99L1107.02 823.65L1104.85 822.43L1107.09 820.38L1107.02 799.17L1104.85 797.95L1107.02 796.73L1106.99 774V774.02ZM1129.38 774.02H1109.12L1109.05 796.85L1112.33 797.96L1109.05 799.07V821.31L1112.33 822.42L1109.2 823.01L1109.12 833.59H1129.38L1129.41 823.63L1127.24 822.41L1129.48 820.36L1129.41 799.15L1127.24 797.93L1129.41 796.71L1129.38 773.98V774.02ZM1151.77 774.02H1131.51L1131.44 796.85L1134.72 797.96L1131.44 799.07V821.31L1134.72 822.42L1131.59 823.01L1131.51 833.59H1151.77L1151.69 823.01L1148.56 822.42L1151.84 821.31V799.07L1148.56 797.96L1151.84 796.85L1151.77 774.02ZM1174.15 774.02H1153.89L1153.86 796.75L1156.03 797.97L1153.86 799.19C1154.73 803.35 1152.64 819.36 1154.16 821.73C1154.49 822.25 1156.19 821.47 1156.04 822.45L1153.87 823.67L1153.9 833.63H1174.16V822.98L1169.88 822.45L1174.16 821.92V798.51L1169.88 797.98L1174.16 797.45V774.04L1174.15 774.02ZM1196.54 774.02H1176.28V833.61H1196.54V822.96L1191.2 822.43L1196.54 821.9V798.49L1191.2 797.96L1196.54 797.43V774.02ZM1218.93 774.02H1198.67V833.61H1218.93V822.96L1212.52 822.43L1218.93 821.9V798.49L1212.52 797.96L1218.93 797.43V774.02ZM1241.32 774.02H1221.06V833.61H1241.32V822.96L1234.91 822.43L1241.32 821.9V798.49L1234.91 797.96L1241.32 797.43V774.02ZM1263.7 774.02H1243.44V833.61H1263.7V822.96L1256.23 822.43L1263.7 821.9V798.49L1256.23 797.96L1263.7 797.43V774.02ZM1286.09 774.02H1265.83V833.61H1286.09V774.02ZM1288.22 774.02V797.43H1293.55C1293.99 795.66 1292.15 796.78 1291.62 796.16C1291.17 795.64 1292.27 793.29 1291.53 792.2C1294.73 791.1 1300.58 790.22 1298.89 795.29C1302.04 794.58 1304.35 793.41 1307.41 795.29L1307.43 788.9L1298.88 788.29L1298.9 782.52L1301.03 786.78L1303.16 782.51L1307.41 786.77L1307.43 777.81L1298.95 777.07L1298.3 773.93L1288.22 774V774.02ZM1330.87 774.02H1311.68V797.43L1317.02 797.96L1311.68 798.49V821.9L1317.02 822.43L1311.67 822.96V833.61H1330.87V774.02ZM1353.25 774.02H1332.99V797.43L1338.33 797.96L1332.99 798.49V821.9L1338.33 822.43L1332.98 822.96V833.61H1353.24V774.02H1353.25ZM1375.64 774.02H1355.38V797.43L1360.72 797.96L1355.38 798.49V821.9L1360.72 822.43L1355.37 822.96V833.61H1375.63V774.02H1375.64ZM1398.03 774.02H1377.77V797.43L1382.05 797.96L1377.77 798.49V821.9L1382.05 822.43L1377.77 822.96V833.61H1398.03L1398.06 823.65L1395.89 822.43L1398.13 820.38L1398.06 799.17L1395.89 797.95L1398.06 796.73L1398.03 774V774.02ZM1420.42 774.02H1400.16L1400.09 796.85L1403.37 797.96L1400.09 799.07V821.31L1403.37 822.42L1400.24 823.01L1400.16 833.59H1420.42L1420.34 823.01L1417.21 822.42L1420.49 821.31V799.07L1417.21 797.96L1420.49 796.85L1420.42 774.02ZM1442.8 774.02H1422.54L1422.51 796.75L1424.68 797.97L1422.51 799.19C1423.38 803.35 1421.29 819.36 1422.81 821.73C1423.14 822.25 1424.84 821.47 1424.69 822.45L1422.52 823.67L1422.55 833.63H1442.81L1442.73 823.05L1439.6 822.46L1442.88 821.35V799.11L1439.6 798L1442.88 796.89L1442.81 774.06L1442.8 774.02ZM1465.19 774.02H1444.93V833.61H1465.19V822.96L1460.91 822.43L1465.19 821.9V798.49L1460.91 797.96L1465.19 797.43V774.02ZM1487.58 774.02H1467.32V833.61H1487.58V822.96L1482.24 822.43L1487.58 821.9V798.49L1482.24 797.96L1487.58 797.43V774.02ZM1509.97 774.02H1489.71V833.61H1509.97V822.96L1503.56 822.43L1509.97 821.9V798.49L1503.56 797.96L1509.97 797.43V774.02ZM1532.35 774.02H1512.09V833.61H1532.35V822.96L1524.88 822.43L1532.35 821.9V798.49L1524.88 797.96L1532.35 797.43V774.02ZM1554.74 774.02H1534.48V833.61H1554.74V774.02ZM1577.13 774.02H1556.87V833.61H1577.13V774.02ZM1599.52 774.02H1579.26V797.43L1586.73 797.96L1579.26 798.49V821.9L1586.73 822.43L1579.25 822.96V833.61H1599.51V774.02H1599.52ZM1621.9 774.02H1601.64V797.43L1608.05 797.96L1601.64 798.49V821.9L1608.05 822.43L1601.64 822.96V833.61H1621.9V774.02ZM1644.29 774.02H1624.03V797.43L1629.37 797.96L1624.03 798.49V821.9L1629.37 822.43L1624.02 822.96V833.61H1644.28V774.02H1644.29ZM1646.42 774.02V797.43L1650.7 797.96L1646.42 798.49V821.9L1650.7 822.43L1646.42 822.96V833.61C1650.14 832.89 1656.5 835.62 1657.63 831.46L1660.3 831.49L1659.22 833.6H1665.63L1665.61 826.16C1660.16 829.3 1659.1 824.87 1654.96 822.95L1657.08 819.78L1651.74 820.34L1649.65 815.6L1658.17 815.54C1656.06 819.74 1659.24 818.81 1660.03 820C1660.3 820.4 1658.5 821.55 1661.07 822.47L1660.28 824.03L1665.63 823.43V814.46C1663.69 813.76 1657.05 816.19 1657.04 812.87C1657.04 806.78 1659.92 804.56 1665.6 807.02V802.77H1657.08C1658.7 796.62 1653.18 798.18 1651.14 796.42C1646.18 792.14 1654.06 790.13 1658.16 792.14L1657.09 795.31H1665.61L1665.63 788.93L1657.08 788.32L1657.1 782.55L1659.23 786.81L1661.36 782.54L1665.61 786.8V777.22L1657.67 777.3L1656.5 773.96L1646.42 774.03V774.02ZM1689.07 774.02H1669.88L1669.81 796.85L1673.09 797.96L1669.81 799.07V821.31L1673.09 822.42L1669.96 823.01L1669.88 833.59H1689.07L1689.1 823.63L1686.93 822.41L1689.17 820.36L1689.1 799.15L1686.93 797.93L1689.1 796.71L1689.07 773.98V774.02ZM1288.22 798.49V821.9L1295.69 822.43L1288.21 822.96V833.61C1292.05 832.88 1298.18 835.64 1299.42 831.47C1301.87 830.93 1300.49 833.31 1301.7 833.63C1303.31 834.05 1305.64 833.39 1307.41 833.6L1307.39 826.16C1302.09 828.76 1297.71 825.9 1298.86 819.77L1291.42 819.72L1291.49 815.6C1300.7 811.56 1298.79 820.23 1301.25 821.65C1302.57 822.41 1305.65 821.63 1307.39 822.96L1307.42 815.01L1298.87 814.46C1297.91 807.83 1300.73 803.81 1307.39 807.01L1307.41 802.76H1298.87V796.37C1295.55 798.68 1292.18 798.77 1288.22 798.5V798.49ZM256.27 835.73H236.01V846.37H256.27V835.73ZM278.65 835.73H258.39V846.37H278.65V835.73ZM301.04 835.73H280.78V846.37H301.04V835.73ZM323.43 835.73H303.17V846.37H323.43V835.73ZM345.82 835.73H325.56V846.37H345.82V835.73ZM368.2 835.73H347.94V846.37H368.2V835.73ZM390.59 835.73H370.33V846.37H390.59V835.73ZM412.98 835.73H392.72V846.37H412.98V835.73ZM435.37 835.73H415.11V846.37H435.37V835.73ZM457.75 835.73H437.49V846.37H457.75V835.73ZM480.14 835.73H459.88V846.37H480.14V835.73ZM502.53 835.73H482.27V846.37H502.53V835.73ZM524.92 835.73H504.66V846.37H524.92V835.73ZM547.3 835.73H527.04V846.37H547.3V835.73ZM569.69 835.73H549.43V846.37H569.69V835.73ZM591 837.86C583.95 840.77 579.79 833.44 571.81 835.72V846.37C579.02 848.1 584.18 842.59 591 844.24V837.86ZM614.47 835.73H595.28V846.37H614.47V835.73ZM636.85 835.73H616.59V846.37H636.85V835.73ZM659.24 835.73H638.98V846.37H659.24V835.73ZM681.63 835.73H661.37V846.37H681.63V835.73ZM704.02 835.73H683.76V846.37H704.02V835.73ZM726.4 835.73H706.14V846.37H726.4V835.73ZM748.79 835.73H728.53V846.37H748.79V835.73ZM771.18 835.73H750.92V846.37H771.18V835.73ZM793.57 835.73H773.31V846.37H793.57V835.73ZM815.95 835.73H795.69V846.37H815.95V835.73ZM838.34 835.73H818.08V846.37H838.34V835.73ZM860.73 835.73H840.47V846.37H860.73V835.73ZM883.12 835.73H862.86V846.37H883.12V835.73ZM905.5 835.73H885.24V846.37H905.5V835.73ZM927.89 835.73H907.63V846.37H927.89V835.73ZM941.49 836.03C938.76 834.85 933.23 836.25 930.01 835.73V846.38C933.32 845.91 937.96 847.07 941 846.35C941.75 846.17 941.62 844.63 942.54 844.33C944.37 843.72 947.15 844.34 949.06 843.04L949.2 837.87C944.39 841.34 942.43 836.45 941.49 836.04V836.03ZM972.67 835.73H953.48V846.37H972.67V835.73ZM995.05 835.73H974.79V846.37H995.05V835.73ZM1017.44 835.73H997.18V846.37H1017.44V835.73ZM1039.83 835.73H1019.57V846.37H1039.83V835.73ZM1062.22 835.73H1041.96V846.37H1062.22V835.73ZM1084.6 835.73H1064.34V846.37H1084.6V835.73ZM1106.99 835.73H1086.73V846.37H1106.99V835.73ZM1129.38 835.73H1109.12V846.37H1129.38V835.73ZM1151.77 835.73H1131.51V846.37H1151.77V835.73ZM1174.15 835.73H1153.89V846.37H1174.15V835.73ZM1196.54 835.73H1176.28V846.37H1196.54V835.73ZM1218.93 835.73H1198.67V846.37H1218.93V835.73ZM1241.32 835.73H1221.06V846.37H1241.32V835.73ZM1263.7 835.73H1243.44V846.37H1263.7V835.73ZM1286.09 835.73H1265.83V846.37H1286.09V835.73ZM1307.4 837.86C1301.07 840.31 1296.03 833.26 1288.22 835.73V846.38L1307.4 844.25V837.86ZM1330.87 835.73H1311.68V846.37H1330.87V835.73ZM1353.25 835.73H1332.99V846.37H1353.25V835.73ZM1375.64 835.73H1355.38V846.37H1375.64V835.73ZM1398.03 835.73H1377.77V846.37H1398.03V835.73ZM1420.42 835.73H1400.16V846.37H1420.42V835.73ZM1442.8 835.73H1422.54V846.37H1442.8V835.73ZM1465.19 835.73H1444.93V846.37H1465.19V835.73ZM1487.58 835.73H1467.32V846.37H1487.58V835.73ZM1509.97 835.73H1489.71V846.37H1509.97V835.73ZM1532.35 835.73H1512.09V846.37H1532.35V835.73ZM1554.74 835.73H1534.48V846.37H1554.74V835.73ZM1577.13 835.73H1556.87V846.37H1577.13V835.73ZM1599.52 835.73H1579.26V846.37H1599.52V835.73ZM1621.9 835.73H1601.64V846.37H1621.9V835.73ZM1644.29 835.73H1624.03V846.37H1644.29V835.73ZM1657.89 836.03C1655.16 834.85 1649.63 836.25 1646.41 835.73V846.38C1649.72 845.91 1654.36 847.07 1657.4 846.35C1658.15 846.17 1658.02 844.63 1658.94 844.33C1660.77 843.72 1663.55 844.34 1665.46 843.04L1665.6 837.87C1660.79 841.34 1658.83 836.45 1657.89 836.04V836.03ZM1689.07 835.73H1669.88V846.37H1689.07V835.73ZM256.27 847.44H236.01V870.85H256.27V847.44ZM278.65 847.44H258.39V870.85H278.65V847.44ZM301.04 847.44H280.78V870.85H301.04V847.44ZM323.43 847.44H303.17V870.85H323.43V847.44ZM345.82 847.44H325.56V870.85H345.82V847.44ZM368.2 847.44H347.94V870.85H368.2V847.44ZM390.59 847.44H370.33V870.85H390.59V847.44ZM412.98 847.44H392.72V870.85H412.98V847.44ZM435.37 847.44H415.11V870.85H435.37V847.44ZM457.75 847.44H437.49V870.85H457.75V847.44ZM480.14 847.44H459.88V870.85H480.14V847.44ZM502.53 847.44H482.27V870.85H502.53V847.44ZM524.92 847.44H504.66V870.85H524.92V847.44ZM547.3 847.44H527.04V870.85H547.3V847.44ZM549.44 847.44V870.85H569.7V847.44H549.44ZM571.82 847.44V870.85C578.55 871.59 584.19 870.09 590.37 867.77C593.63 862.09 586.28 862.57 582.52 860.64C581.78 860.26 581.61 858.58 581.23 858.32C580.93 858.12 575.38 859.37 573.96 858.03L574.03 853.91C577.3 852.79 583.17 852.01 581.41 857.01L590.84 854.74L591.01 850.64L581.99 850.71L580.82 847.37L571.81 847.44H571.82ZM614.47 847.44H595.28V870.85H614.47V847.44ZM636.85 847.44H616.59V870.85H636.85V847.44ZM659.24 847.44H638.98V870.85H659.24V847.44ZM681.63 847.44H661.37V870.85H681.63V847.44ZM704.02 847.44H683.76V870.85H704.02V847.44ZM726.4 847.44H706.14V870.85H726.4V847.44ZM748.79 847.44H728.53V870.85H748.79V847.44ZM771.18 847.44H750.92V870.85H771.18V847.44ZM793.57 847.44H773.31V870.85H793.57V847.44ZM815.95 847.44H795.69V870.85H815.95V847.44ZM838.34 847.44H818.08V870.85H838.34V847.44ZM860.73 847.44H840.47V870.85H860.73V847.44ZM883.12 847.44H862.86V870.85H883.12V847.44ZM905.5 847.44H885.24V870.85H905.5V847.44ZM927.89 847.44H907.63V870.85H927.89V847.44ZM930.02 847.44V870.85C933.89 871.3 948.79 870.86 949.28 866.06C949.88 861.5 944.92 862.51 942.43 861.1C940.9 860.23 940.84 858.45 940.54 858.24C940.19 857.99 936.77 860.09 935.32 858.65L933.23 853.9L941.74 853.83L940.67 857C945.28 856.9 950.33 856.4 949.2 850.63L941.25 850.7L940.08 847.36L930 847.43L930.02 847.44ZM972.67 847.44H953.48V870.85H972.67V847.44ZM995.05 847.44H974.79V870.85H995.05V847.44ZM1017.44 847.44H997.18V870.85H1017.44V847.44ZM1039.83 847.44H1019.57V870.85H1039.83V847.44ZM1062.22 847.44H1041.96V870.85H1062.22V847.44ZM1084.6 847.44H1064.34V870.85H1084.6V847.44ZM1106.99 847.44H1086.73V870.85H1106.99V847.44ZM1129.38 847.44H1109.12V870.85H1129.38V847.44ZM1151.77 847.44H1131.51V870.85H1151.77V847.44ZM1174.15 847.44H1153.89V870.85H1174.15V847.44ZM1196.54 847.44H1176.28V870.85H1196.54V847.44ZM1218.93 847.44H1198.67V870.85H1218.93V847.44ZM1241.32 847.44H1221.06V870.85H1241.32V847.44ZM1263.7 847.44H1243.44V870.85H1263.7V847.44ZM1286.09 847.44H1265.83V870.85H1286.09V847.44ZM1288.22 847.44V870.85C1292.09 871.3 1306.99 870.86 1307.48 866.06C1307.94 861.51 1303.35 862.48 1300.63 861.09C1299.21 860.36 1299.09 858.59 1298.69 858.32C1298.39 858.12 1292.84 859.37 1291.42 858.03L1291.49 853.91C1294.63 852.83 1300.64 851.95 1298.87 857.01C1303.53 856.92 1308.53 856.38 1307.4 850.64L1299.45 850.71L1298.28 847.37L1288.2 847.44H1288.22ZM1330.87 847.44H1311.68V870.85H1330.87V847.44ZM1353.25 847.44H1332.99V870.85H1353.25V847.44ZM1375.64 847.44H1355.38V870.85H1375.64V847.44ZM1398.03 847.44H1377.77V870.85H1398.03V847.44ZM1420.42 847.44H1400.16V870.85H1420.42V847.44ZM1442.8 847.44H1422.54V870.85H1442.8V847.44ZM1465.19 847.44H1444.93V870.85H1465.19V847.44ZM1487.58 847.44H1467.32V870.85H1487.58V847.44ZM1509.97 847.44H1489.71V870.85H1509.97V847.44ZM1532.35 847.44H1512.09V870.85H1532.35V847.44ZM1554.74 847.44H1534.48V870.85H1554.74V847.44ZM1577.13 847.44H1556.87V870.85H1577.13V847.44ZM1599.52 847.44H1579.26V870.85H1599.52V847.44ZM1621.9 847.44H1601.64V870.85H1621.9V847.44ZM1644.29 847.44H1624.03V870.85H1644.29V847.44ZM1646.42 847.44V870.85C1650.29 871.3 1665.19 870.86 1665.68 866.06C1666.28 861.5 1661.32 862.51 1658.83 861.1C1657.3 860.23 1657.24 858.45 1656.94 858.24C1656.59 857.99 1653.17 860.09 1651.72 858.65L1649.63 853.9L1658.14 853.83L1657.07 857C1661.68 856.9 1666.73 856.4 1665.6 850.63L1657.65 850.7L1656.48 847.36L1646.4 847.43L1646.42 847.44ZM1689.07 847.44H1669.88V870.85H1689.07V847.44ZM256.27 871.91H236.01V895.32H256.27V871.91ZM278.65 871.91H258.39V895.32H278.65V871.91ZM301.04 871.91H280.78V895.32H301.04V871.91ZM323.43 871.91H303.17V895.32H323.43V871.91ZM345.82 871.91H325.56V895.32H345.82V871.91ZM368.2 871.91H347.94V895.32H368.2V871.91ZM390.59 871.91H370.33V895.32H390.59V871.91ZM412.98 871.91H392.72V895.32H412.98V871.91ZM435.37 871.91H415.11V895.32H435.37V871.91ZM457.75 871.91H437.49V895.32H457.75V871.91ZM480.14 871.91H459.88V895.32H480.14V871.91ZM502.53 871.91H482.27V895.32H502.53V871.91ZM524.92 871.91H504.66V895.32H524.92V871.91ZM547.3 871.91H527.04V895.32H547.3V871.91ZM549.44 871.91V895.32H569.7V871.91H549.44ZM571.82 871.91V895.32C574.88 894.66 581.71 897.25 581.44 893.23L583 893.18C585.02 899.42 586.34 889.39 588.05 894.98L590.99 895.33V886.82C584.45 890.1 577.51 885.22 583.52 879.37L583.67 884.55C588.84 887.66 594.28 880.8 585.67 883.63V879.38L590.37 879.39L591.01 876.71C584.77 874.18 578.83 870.71 571.8 871.92L571.82 871.91ZM614.47 871.91H595.28V895.32H614.47V871.91ZM636.85 871.91H616.59V895.32H636.85V871.91ZM659.24 871.91H638.98V895.32H659.24V871.91ZM681.63 871.91H661.37V895.32H681.63V871.91ZM704.02 871.91H683.76V895.32H704.02V871.91ZM726.4 871.91H706.14V895.32H726.4V871.91ZM748.79 871.91H728.53V895.32H748.79V871.91ZM771.18 871.91H750.92V895.32H771.18V871.91ZM793.57 871.91H773.31V895.32H793.57V871.91ZM815.95 871.91H795.69V895.32H815.95V871.91ZM838.34 871.91H818.08V895.32H838.34V871.91ZM860.73 871.91H840.47V895.32H860.73V871.91ZM883.12 871.91H862.86V895.32H883.12V871.91ZM905.5 871.91H885.24V895.32H905.5V871.91ZM927.89 871.91H907.63V895.32H927.89V871.91ZM930.02 871.91V895.32C933.24 894.57 940.89 897.36 940.71 893.23L942.27 893.17L942.84 895.26H944.91L944.98 893.24L949.2 895.31L949.24 888.47C943.4 888.03 937.69 885.58 942.27 879.38C944.31 883.31 942.78 887.17 949.2 884.66L944.95 883.61C943.43 878.2 951.95 880.71 948.72 876.12C947.21 873.98 931.68 870.25 930.02 871.91ZM972.67 871.91H953.48V895.32H972.67V871.91ZM995.05 871.91H974.79V895.32H995.05V871.91ZM1017.44 871.91H997.18V895.32H1017.44V871.91ZM1039.83 871.91H1019.57V895.32H1039.83V871.91ZM1062.22 871.91H1041.96V895.32H1062.22V871.91ZM1084.6 871.91H1064.34V895.32H1084.6V871.91ZM1106.99 871.91H1086.73V895.32H1106.99V871.91ZM1129.38 871.91H1109.12V895.32H1129.38V871.91ZM1151.77 871.91H1131.51V895.32H1151.77V871.91ZM1174.15 871.91H1153.89V895.32H1174.15V871.91ZM1196.54 871.91H1176.28V895.32H1196.54V871.91ZM1218.93 871.91H1198.67V895.32H1218.93V871.91ZM1241.32 871.91H1221.06V895.32H1241.32V871.91ZM1263.7 871.91H1243.44V895.32H1263.7V871.91ZM1286.09 871.91H1265.83V895.32H1286.09V871.91ZM1288.22 871.91V895.32C1291.44 894.57 1299.09 897.36 1298.91 893.23L1300.47 893.17L1301.04 895.26H1303.11L1303.18 893.24L1307.4 895.31V886.8C1301.32 890.58 1295.28 884.01 1301 879.35L1301.15 884.53C1306.32 887.64 1311.76 880.78 1303.15 883.61L1303.13 879.36H1307.41C1310.05 876.72 1300 872.62 1298.06 872.19C1294.82 871.46 1291.47 872.09 1288.21 871.91H1288.22ZM1330.87 871.91H1311.68V895.32H1330.87V871.91ZM1353.25 871.91H1332.99V895.32H1353.25V871.91ZM1375.64 871.91H1355.38V895.32H1375.64V871.91ZM1398.03 871.91H1377.77V895.32H1398.03V871.91ZM1420.42 871.91H1400.16V895.32H1420.42V871.91ZM1442.8 871.91H1422.54V895.32H1442.8V871.91ZM1465.19 871.91H1444.93V895.32H1465.19V871.91ZM1487.58 871.91H1467.32V895.32H1487.58V871.91ZM1509.97 871.91H1489.71V895.32H1509.97V871.91ZM1532.35 871.91H1512.09V895.32H1532.35V871.91ZM1554.74 871.91H1534.48V895.32H1554.74V871.91ZM1577.13 871.91H1556.87V895.32H1577.13V871.91ZM1599.52 871.91H1579.26V895.32H1599.52V871.91ZM1621.9 871.91H1601.64V895.32H1621.9V871.91ZM1644.29 871.91H1624.03V895.32H1644.29V871.91ZM1646.42 871.91V895.32C1649.64 894.57 1657.29 897.36 1657.11 893.23L1658.67 893.17L1659.24 895.26H1661.31L1661.38 893.24L1665.6 895.31L1665.64 888.47C1659.8 888.03 1654.09 885.58 1658.67 879.38C1660.71 883.31 1659.18 887.17 1665.6 884.66L1661.35 883.61C1659.83 878.2 1668.35 880.71 1665.12 876.12C1663.61 873.98 1648.08 870.25 1646.42 871.91ZM1689.07 871.91H1669.88V895.32H1689.07V871.91ZM256.27 896.38H236.01V919.79H256.27V896.38ZM278.65 896.38H258.39V919.79H278.65V896.38ZM301.04 896.38H280.78V919.79H301.04V896.38ZM323.43 896.38H303.17V919.79H323.43V896.38ZM345.82 896.38H325.56V919.79H345.82V896.38ZM368.2 896.38H347.94V919.79H368.2V896.38ZM390.59 896.38H370.33V919.79H390.59V896.38ZM412.98 896.38H392.72V919.79H412.98V896.38ZM435.37 896.38H415.11V919.79H435.37V896.38ZM457.75 896.38H437.49V919.79H457.75V896.38ZM480.14 896.38H459.88V919.79H480.14V896.38ZM502.53 896.38H482.27V919.79H502.53V896.38ZM524.92 896.38H504.66V919.79H524.92V896.38ZM547.3 896.38H527.04V919.79H547.3V896.38ZM549.44 896.38V919.79H569.7V896.38H549.44ZM571.82 896.38V919.79C580.19 922.16 583.53 914.39 591 917.66V911.27L581.41 911.28V905.42L583.56 905.52L585.67 909.15L587.8 904.88L589.93 909.15C589.78 906.43 591.01 903.88 591.04 901.17C591.08 897.74 583.81 900.48 581.47 899.44L580.82 896.3L571.81 896.37L571.82 896.38ZM614.47 896.38H595.28V919.79H614.47V896.38ZM636.85 896.38H616.59V919.79H636.85V896.38ZM659.24 896.38H638.98V919.79H659.24V896.38ZM681.63 896.38H661.37V919.79H681.63V896.38ZM704.02 896.38H683.76V919.79H704.02V896.38ZM726.4 896.38H706.14V919.79H726.4V896.38ZM748.79 896.38H728.53V919.79H748.79V896.38ZM771.18 896.38H750.92V919.79H771.18V896.38ZM793.57 896.38H773.31V919.79H793.57V896.38ZM815.95 896.38H795.69V919.79H815.95V896.38ZM838.34 896.38H818.08V919.79H838.34V896.38ZM860.73 896.38H840.47V919.79H860.73V896.38ZM883.12 896.38H862.86V919.79H883.12V896.38ZM905.5 896.38H885.24V919.79H905.5V896.38ZM927.89 896.38H907.63V919.79H927.89V896.38ZM930.02 896.38V919.79C933.36 919.34 937.91 920.46 941.01 919.77C941.72 919.61 944.62 914 949.2 917.66L949.22 911.27L940.67 910.66L940.69 904.89L942.82 909.15L944.95 904.88L949.2 909.14L949.22 900.18L940.74 899.44L940.09 896.3L930.01 896.37L930.02 896.38ZM972.67 896.38H953.48V919.79H972.67V896.38ZM995.05 896.38H974.79V919.79H995.05V896.38ZM1017.44 896.38H997.18V919.79H1017.44V896.38ZM1039.83 896.38H1019.57V919.79H1039.83V896.38ZM1062.22 896.38H1041.96V919.79H1062.22V896.38ZM1084.6 896.38H1064.34V919.79H1084.6V896.38ZM1106.99 896.38H1086.73V919.79H1106.99V896.38ZM1129.38 896.38H1109.12V919.79H1129.38V896.38ZM1151.77 896.38H1131.51V919.79H1151.77V896.38ZM1174.15 896.38H1153.89V919.79H1174.15V896.38ZM1196.54 896.38H1176.28V919.79H1196.54V896.38ZM1218.93 896.38H1198.67V919.79H1218.93V896.38ZM1241.32 896.38H1221.06V919.79H1241.32V896.38ZM1263.7 896.38H1243.44V919.79H1263.7V896.38ZM1286.09 896.38H1265.83V919.79H1286.09V896.38ZM1288.22 896.38V919.79C1291.07 919.48 1294.56 920.3 1297.27 919.77C1300.5 919.14 1302.29 914.07 1307.4 917.66L1307.42 911.27L1298.87 910.66L1298.89 904.89L1301.02 909.15L1303.15 904.88L1307.4 909.14L1307.42 900.18L1298.94 899.44L1298.29 896.3L1288.21 896.37L1288.22 896.38ZM1330.87 896.38H1311.68V919.79H1330.87V896.38ZM1353.25 896.38H1332.99V919.79H1353.25V896.38ZM1375.64 896.38H1355.38V919.79H1375.64V896.38ZM1398.03 896.38H1377.77V919.79H1398.03V896.38ZM1420.42 896.38H1400.16V919.79H1420.42V896.38ZM1442.8 896.38H1422.54V919.79H1442.8V896.38ZM1465.19 896.38H1444.93V919.79H1465.19V896.38ZM1487.58 896.38H1467.32V919.79H1487.58V896.38ZM1509.97 896.38H1489.71V919.79H1509.97V896.38ZM1532.35 896.38H1512.09V919.79H1532.35V896.38ZM1554.74 896.38H1534.48V919.79H1554.74V896.38ZM1577.13 896.38H1556.87V919.79H1577.13V896.38ZM1599.52 896.38H1579.26V919.79H1599.52V896.38ZM1621.9 896.38H1601.64V919.79H1621.9V896.38ZM1644.29 896.38H1624.03V919.79H1644.29V896.38ZM1646.42 896.38V919.79C1649.76 919.34 1654.31 920.46 1657.41 919.77C1658.12 919.61 1661.02 914 1665.6 917.66L1665.62 911.27L1657.07 910.66L1657.09 904.89L1659.22 909.15L1661.35 904.88L1665.6 909.14L1665.62 900.18L1657.14 899.44L1656.49 896.3L1646.41 896.37L1646.42 896.38ZM1689.07 896.38H1669.88V919.79H1689.07V896.38ZM256.27 920.85H236.01V932.55H256.27V920.85ZM278.65 920.85H258.39V932.55H278.65V920.85ZM301.04 920.85H280.78V932.55H301.04V920.85ZM323.43 920.85H303.17V932.55H323.43V920.85ZM345.82 920.85H325.56V932.55H345.82V920.85ZM368.2 920.85H347.94V932.55H368.2V920.85ZM390.59 920.85H370.33V932.55H390.59V920.85ZM412.98 920.85H392.72V932.55H412.98V920.85ZM435.37 920.85H415.11V932.55H435.37V920.85ZM457.75 920.85H437.49V932.55H457.75V920.85ZM480.14 920.85H459.88V932.55H480.14V920.85ZM502.53 920.85H482.27V932.55H502.53V920.85ZM524.92 920.85H504.66V932.55H524.92V920.85ZM547.3 920.85H527.04V932.55H547.3V920.85ZM569.69 920.85H549.43V932.55H569.69V920.85ZM581.42 920.84H571.81V932.56C575.47 931.92 580.82 934.48 581.95 930.42C584.4 929.88 583.02 932.26 584.23 932.58C585.84 933 588.17 932.34 589.94 932.55L589.18 930.67C592.05 930.21 590.91 927.55 591.01 925.11H581.4L581.41 920.85L581.42 920.84ZM614.47 920.85H595.28V932.55H614.47V920.85ZM636.85 920.85H616.59V932.55H636.85V920.85ZM659.24 920.85H638.98V932.55H659.24V920.85ZM681.63 920.85H661.37V932.55H681.63V920.85ZM704.02 920.85H683.76V932.55H704.02V920.85ZM726.4 920.85H706.14V932.55H726.4V920.85ZM748.79 920.85H728.53V932.55H748.79V920.85ZM771.18 920.85H750.92V932.55H771.18V920.85ZM793.57 920.85H773.31V932.55H793.57V920.85ZM815.95 920.85H795.69V932.55H815.95V920.85ZM838.34 920.85H818.08V932.55H838.34V920.85ZM860.73 920.85H840.47V932.55H860.73V920.85ZM883.12 920.85H862.86V932.55H883.12V920.85ZM905.5 920.85H885.24V932.55H905.5V920.85ZM927.89 920.85H907.63V932.55H927.89V920.85ZM940.69 920.84H930.02V932.56C933.74 931.84 940.1 934.57 941.22 930.41L943.89 930.44L942.81 932.55H949.22V925.1H940.68L940.69 920.84ZM972.67 920.85H953.48V932.55H972.67V920.85ZM995.05 920.85H974.79V932.55H995.05V920.85ZM1017.44 920.85H997.18V932.55H1017.44V920.85ZM1039.83 920.85H1019.57V932.55H1039.83V920.85ZM1062.22 920.85H1041.96V932.55H1062.22V920.85ZM1084.6 920.85H1064.34V932.55H1084.6V920.85ZM1106.99 920.85H1086.73V932.55H1106.99V920.85ZM1129.38 920.85H1109.12V932.55H1129.38V920.85ZM1151.77 920.85H1131.51V932.55H1151.77V920.85ZM1174.15 920.85H1153.89V932.55H1174.15V920.85ZM1196.54 920.85H1176.28V932.55H1196.54V920.85ZM1218.93 920.85H1198.67V932.55H1218.93V920.85ZM1241.32 920.85H1221.06V932.55H1241.32V920.85ZM1263.7 920.85H1243.44V932.55H1263.7V920.85ZM1286.09 920.85H1265.83V932.55H1286.09V920.85ZM1298.89 920.84H1288.22V932.56C1292.06 931.83 1298.19 934.59 1299.43 930.42C1301.88 929.88 1300.5 932.26 1301.71 932.58C1303.31 933 1305.65 932.34 1307.42 932.55V925.11H1298.88V920.84H1298.89ZM1330.87 920.85H1311.68V932.55H1330.87V920.85ZM1353.25 920.85H1332.99V932.55H1353.25V920.85ZM1375.64 920.85H1355.38V932.55H1375.64V920.85ZM1398.03 920.85H1377.77V932.55H1398.03V920.85ZM1420.42 920.85H1400.16V932.55H1420.42V920.85ZM1442.8 920.85H1422.54V932.55H1442.8V920.85ZM1465.19 920.85H1444.93V932.55H1465.19V920.85ZM1487.58 920.85H1467.32V932.55H1487.58V920.85ZM1509.97 920.85H1489.71V932.55H1509.97V920.85ZM1532.35 920.85H1512.09V932.55H1532.35V920.85ZM1554.74 920.85H1534.48V932.55H1554.74V920.85ZM1577.13 920.85H1556.87V932.55H1577.13V920.85ZM1599.52 920.85H1579.26V932.55H1599.52V920.85ZM1621.9 920.85H1601.64V932.55H1621.9V920.85ZM1644.29 920.85H1624.03V932.55H1644.29V920.85ZM1657.09 920.84H1646.42V932.56C1650.14 931.84 1656.5 934.57 1657.62 930.41L1660.29 930.44L1659.21 932.55H1665.62V925.1H1657.08L1657.09 920.84ZM1689.07 920.85H1669.88V932.55H1689.07V920.85ZM256.27 933.62H236.01V957.03H256.27V933.62ZM278.65 933.62H258.39V957.03H278.65V933.62ZM301.04 933.62H280.78V957.03H301.04V933.62ZM323.43 933.62H303.17V957.03H323.43V933.62ZM345.82 933.62H325.56V957.03H345.82V933.62ZM368.2 933.62H347.94V957.03H368.2V933.62ZM390.59 933.62H370.33V957.03H390.59V933.62ZM412.98 933.62H392.72V957.03H412.98V933.62ZM435.37 933.62H415.11V957.03H435.37V933.62ZM457.75 933.62H437.49V957.03H457.75V933.62ZM480.14 933.62H459.88V957.03H480.14V933.62ZM502.53 933.62H482.27V957.03H502.53V933.62ZM524.92 933.62H504.66V957.03H524.92V933.62ZM547.3 933.62H527.04V957.03H547.3V933.62ZM549.44 933.62V957.03H569.7V933.62H549.44ZM571.82 933.62V957.03C575.47 956.4 580.83 958.96 581.96 954.89L583.52 954.96L583.58 956.99H585.65L586.22 954.89L588.34 957.06L591.03 956.44L591.01 948.52C584.47 951.8 577.53 946.92 583.54 941.07L583.69 946.25C588.86 949.36 594.3 942.5 585.69 945.33V941.08H591.02V936.83C584.74 940.8 582 933.98 580.66 933.62C578.36 933 574.44 934.06 571.82 933.63V933.62ZM614.47 933.62H595.28V957.03H614.47V933.62ZM636.85 933.62H616.59V957.03H636.85V933.62ZM659.24 933.62H638.98V957.03H659.24V933.62ZM681.63 933.62H661.37V957.03H681.63V933.62ZM704.02 933.62H683.76V957.03H704.02V933.62ZM726.4 933.62H706.14V957.03H726.4V933.62ZM748.79 933.62H728.53V957.03H748.79V933.62ZM771.18 933.62H750.92V957.03H771.18V933.62ZM793.57 933.62H773.31V957.03H793.57V933.62ZM815.95 933.62H795.69V957.03H815.95V933.62ZM838.34 933.62H818.08V957.03H838.34V933.62ZM860.73 933.62H840.47V957.03H860.73V933.62ZM883.12 933.62H862.86V957.03H883.12V933.62ZM905.5 933.62H885.24V957.03H905.5V933.62ZM927.89 933.62H907.63V957.03H927.89V933.62ZM930.02 933.62V957.03C933.24 956.28 940.89 959.07 940.71 954.94L942.27 954.88L942.84 956.97H944.91L944.98 954.95L949.2 957.02V949.58C943.17 950.61 937.83 946.58 942.28 941.08C944.32 945.01 942.79 948.87 949.21 946.36L944.96 945.31V942.66L949.28 940.45L949.21 936.8C943.63 940.68 941.78 934.35 940.02 933.78C937.29 932.9 933.03 934.01 930.03 933.61L930.02 933.62ZM972.67 933.62H953.48V957.03H972.67V933.62ZM995.05 933.62H974.79V957.03H995.05V933.62ZM1017.44 933.62H997.18V957.03H1017.44V933.62ZM1039.83 933.62H1019.57V957.03H1039.83V933.62ZM1062.22 933.62H1041.96V957.03H1062.22V933.62ZM1084.6 933.62H1064.34V957.03H1084.6V933.62ZM1106.99 933.62H1086.73V957.03H1106.99V933.62ZM1129.38 933.62H1109.12V957.03H1129.38V933.62ZM1151.77 933.62H1131.51V957.03H1151.77V933.62ZM1174.15 933.62H1153.89V957.03H1174.15V933.62ZM1196.54 933.62H1176.28V957.03H1196.54V933.62ZM1218.93 933.62H1198.67V957.03H1218.93V933.62ZM1241.32 933.62H1221.06V957.03H1241.32V933.62ZM1263.7 933.62H1243.44V957.03H1263.7V933.62ZM1286.09 933.62H1265.83V957.03H1286.09V933.62ZM1288.22 933.62V957.03C1291.44 956.28 1299.09 959.07 1298.91 954.94L1300.47 954.88L1301.04 956.97H1303.11L1303.18 954.95L1307.4 957.02V948.51C1301.32 952.29 1295.28 945.72 1301 941.06L1301.15 946.24C1306.32 949.35 1311.76 942.49 1303.15 945.32L1303.13 941.07H1307.41L1307.39 936.81C1302.09 940.81 1299.35 933.94 1298.11 933.6C1295.58 932.91 1291.09 934.09 1288.21 933.61L1288.22 933.62ZM1330.87 933.62H1311.68V957.03H1330.87V933.62ZM1353.25 933.62H1332.99V957.03H1353.25V933.62ZM1375.64 933.62H1355.38V957.03H1375.64V933.62ZM1398.03 933.62H1377.77V957.03H1398.03V933.62ZM1420.42 933.62H1400.16V957.03H1420.42V933.62ZM1442.8 933.62H1422.54V957.03H1442.8V933.62ZM1465.19 933.62H1444.93V957.03H1465.19V933.62ZM1487.58 933.62H1467.32V957.03H1487.58V933.62ZM1509.97 933.62H1489.71V957.03H1509.97V933.62ZM1532.35 933.62H1512.09V957.03H1532.35V933.62ZM1554.74 933.62H1534.48V957.03H1554.74V933.62ZM1577.13 933.62H1556.87V957.03H1577.13V933.62ZM1599.52 933.62H1579.26V957.03H1599.52V933.62ZM1621.9 933.62H1601.64V957.03H1621.9V933.62ZM1644.29 933.62H1624.03V957.03H1644.29V933.62ZM1646.42 933.62V957.03C1649.64 956.28 1657.29 959.07 1657.11 954.94L1658.67 954.88L1659.24 956.97H1661.31L1661.38 954.95L1665.6 957.02V949.58C1659.57 950.61 1654.23 946.58 1658.68 941.08C1660.72 945.01 1659.19 948.87 1665.61 946.36L1661.36 945.31V942.66L1665.68 940.45L1665.61 936.8C1660.03 940.68 1658.18 934.35 1656.42 933.78C1653.69 932.9 1649.43 934.01 1646.43 933.61L1646.42 933.62ZM1689.07 933.62H1669.88V957.03H1689.07V933.62Z" fill="#575E5C"/>
<path d="M215.75 795.29C219.03 794.55 221.4 793.42 224.61 795.31C225.18 795.65 225.27 796.99 225.6 797.14C227.27 797.89 229.79 796.51 229.6 798.48C225.41 797.78 226.28 799.41 226.41 802.76H215.74V796.37L208.41 796.27C205.08 790.5 218.08 789.09 215.75 795.29Z" fill="#575E5C"/>
<path d="M215.75 647.39L223.3 646.76L229.6 651.64L226.55 651.83L225.82 654.91L215.74 654.84V648.45L208.4 648.35C205.07 642.58 218.07 641.17 215.74 647.37L215.75 647.39Z" fill="#575E5C"/>
<path d="M218.05 737.66C220.89 739.34 222.34 738.84 224.28 736.24L220.03 736.77V732.52L225.41 732.98C230.46 741.88 214.64 745.06 215.74 734.63C211.78 735.98 206.68 735.96 208.4 730.48C214.6 728.09 218.34 730.85 218.04 737.65L218.05 737.66Z" fill="#575E5C"/>
<path d="M215.76 710.17L226.41 708.06C226.89 711.64 223.92 708.7 224.22 712.89C224.4 715.47 227.23 713.35 226.41 716.56L215.88 714.26L215.75 711.24C211.78 712.58 206.69 712.57 208.41 707.08C211.54 705.93 217.54 705.18 215.76 710.17Z" fill="#575E5C"/>
<path d="M215.76 857L226.41 854.89C226.89 858.47 223.92 855.53 224.22 859.72C224.4 862.3 227.23 860.18 226.41 863.39L215.88 861.09L215.75 858.07C211.78 859.41 206.69 859.4 208.41 853.91C211.54 852.76 217.54 852.01 215.76 857Z" fill="#575E5C"/>
<path d="M217.95 823.96L223.27 823.53L223.22 819.78L229.62 821.91C229.97 823.83 227.7 822.49 226.75 823.25C225.8 824.01 225.75 825.6 224.07 826.46C219.11 829 214.36 825.26 215.76 819.77L208.42 819.68V815.61L215.32 815.44L217.96 823.97L217.95 823.96Z" fill="#575E5C"/>
<path d="M217.93 676.09L223.26 675.64L223.21 671.88L226.39 671.91L226.54 674.9L229.6 675.08L223.24 678.88C219.38 680.13 215.43 678.29 215.7 674L208.4 673.91V669.84C213.85 667.67 218.19 669.65 217.92 676.09H217.93Z" fill="#575E5C"/>
<path d="M225.1 807.26C226.55 808.71 226.44 812.45 226.42 814.45H215.75L217.25 806.9C219.03 805.34 223.56 805.72 225.1 807.26Z" fill="#575E5C"/>
<path d="M225.1 660.42C226.55 661.87 226.44 665.61 226.42 667.61H215.75L217.25 660.06C219.03 658.5 223.56 658.88 225.1 660.42Z" fill="#575E5C"/>
<path d="M216.22 757.76C216.41 758.16 219.19 759 217.89 762.32L222.15 758.05V762.32C222.78 762.99 227.47 760.65 226.41 764.43H215.75V759.12L208.42 759.02C206.02 753.97 213.53 752.69 215.86 755.35C216.45 756.03 215.91 757.07 216.23 757.75L216.22 757.76Z" fill="#575E5C"/>
<path d="M217.88 610.16L218.03 615.32C220.85 616.96 222.93 616.51 224.28 613.36L220.02 614.41V610.16L225.4 610.62C230.68 617.65 217.82 621.99 215.96 615.79C215.43 614.02 214.63 609.09 217.87 610.16H217.88Z" fill="#575E5C"/>
<path d="M217.88 941.07L218.03 946.23C220.85 947.87 222.93 947.42 224.28 944.27L220.02 945.32V941.07L225.4 941.53C230.68 948.56 217.82 952.9 215.96 946.7C215.43 944.93 214.63 940 217.87 941.07H217.88Z" fill="#575E5C"/>
<path d="M217.88 879.36L218.03 884.52C220.85 886.16 222.93 885.71 224.28 882.56L220.02 883.61V879.36L225.4 879.82C230.68 886.85 217.82 891.19 215.96 884.99C215.43 883.22 214.63 878.29 217.87 879.36H217.88Z" fill="#575E5C"/>
<path d="M226.41 719.76C228.49 721.41 224.38 722.03 224.26 722.54C223.12 727.2 226.84 724.85 226.41 728.26L215.75 726.13C213.3 721.95 225.71 719.2 226.41 719.76Z" fill="#575E5C"/>
<path d="M226.41 597.4C228.49 599.05 224.38 599.67 224.26 600.18C223.12 604.84 226.84 602.49 226.41 605.9L215.75 603.77C213.3 599.59 225.71 596.84 226.41 597.4Z" fill="#575E5C"/>
<path d="M226.41 867.66C228.49 869.31 224.38 869.93 224.26 870.44C223.12 875.1 226.84 872.75 226.41 876.16L215.75 874.03C213.3 869.85 225.71 867.1 226.41 867.66Z" fill="#575E5C"/>
<path d="M217.88 635.69V639.96L220.02 635.69L222.15 639.96L226.4 635.7V642.08H215.74C216.23 639.87 214.07 634.83 217.87 635.68L217.88 635.69Z" fill="#575E5C"/>
<path d="M217.88 782.52V786.79L220.02 782.52L222.15 786.79L226.4 782.53V788.91H215.74C216.23 786.7 214.07 781.66 217.87 782.51L217.88 782.52Z" fill="#575E5C"/>
<path d="M217.88 904.89V909.16L220.02 904.89L222.15 909.16L226.4 904.9V911.28H215.74C216.23 909.07 214.07 904.03 217.87 904.88L217.88 904.89Z" fill="#575E5C"/>
<path d="M217.88 770.82V775.09L222.14 770.82V775.09C222.77 775.76 227.46 773.42 226.4 777.2H215.74C216.23 775 214.07 769.96 217.87 770.81L217.88 770.82Z" fill="#575E5C"/>
<path d="M217.88 893.18V897.45L222.14 893.18V897.45C222.77 898.12 227.46 895.78 226.4 899.56H215.74C216.23 897.36 214.07 892.32 217.87 893.17L217.88 893.18Z" fill="#575E5C"/>
<path d="M217.88 954.9V959.17L222.14 954.9V959.17C222.77 959.84 227.46 957.5 226.4 961.28H215.74C216.23 959.08 214.07 954.04 217.87 954.89L217.88 954.9Z" fill="#575E5C"/>
<path d="M681.63 632.79C685.314 632.79 688.3 629.804 688.3 626.12C688.3 622.436 685.314 619.45 681.63 619.45C677.946 619.45 674.96 622.436 674.96 626.12C674.96 629.804 677.946 632.79 681.63 632.79Z" fill="#575E5C"/>
<path d="M659.24 657.01C662.924 657.01 665.91 654.024 665.91 650.34C665.91 646.656 662.924 643.67 659.24 643.67C655.556 643.67 652.57 646.656 652.57 650.34C652.57 654.024 655.556 657.01 659.24 657.01Z" fill="#575E5C"/>
<path d="M524.92 695.11C528.604 695.11 531.59 692.124 531.59 688.44C531.59 684.756 528.604 681.77 524.92 681.77C521.236 681.77 518.25 684.756 518.25 688.44C518.25 692.124 521.236 695.11 524.92 695.11Z" fill="#575E5C"/>
<path d="M524.92 731.74C528.604 731.74 531.59 728.754 531.59 725.07C531.59 721.386 528.604 718.4 524.92 718.4C521.236 718.4 518.25 721.386 518.25 725.07C518.25 728.754 521.236 731.74 524.92 731.74Z" fill="#575E5C"/>
<path d="M435.37 780.68C439.054 780.68 442.04 777.694 442.04 774.01C442.04 770.326 439.054 767.34 435.37 767.34C431.686 767.34 428.7 770.326 428.7 774.01C428.7 777.694 431.686 780.68 435.37 780.68Z" fill="#575E5C"/>
<path d="M457.75 841.95C461.434 841.95 464.42 838.964 464.42 835.28C464.42 831.596 461.434 828.61 457.75 828.61C454.066 828.61 451.08 831.596 451.08 835.28C451.08 838.964 454.066 841.95 457.75 841.95Z" fill="#575E5C"/>
<path d="M742.89 577.55L739.6 577.49L736.69 579.02L735.1 576.14L732.32 574.38L734.01 571.57L734.14 568.28L737.43 568.34L740.34 566.81L741.94 569.68L744.72 571.44L743.03 574.26L742.89 577.55Z" fill="#575E5C"/>
<path d="M731.13 487.97L726.07 486.05L722.42 490.04L721.55 484.7L716.28 483.53L720.46 480.11L718.84 474.96L723.9 476.87L727.55 472.89L728.41 478.23L733.69 479.4L729.5 482.82L731.13 487.97Z" fill="#575E5C"/>
<path d="M770.74 470.12L765.32 466.63L762.04 472.18L762.35 465.74L755.89 465.68L761.63 462.72L758.46 457.1L763.89 460.59L767.17 455.04L766.86 461.48L773.31 461.54L767.57 464.5L770.74 470.12Z" fill="#575E5C"/>
<path d="M866.87 451.31L861.86 449.57L858.16 453.37L857.16 448.17L852.02 446.87L856.03 443.39L854.59 438.29L859.6 440.03L863.29 436.23L864.3 441.43L869.44 442.74L865.43 446.21L866.87 451.31Z" fill="#575E5C"/>
<path d="M927.46 396.63L922.03 393.14L918.75 398.7L919.06 392.25L912.61 392.19L918.34 389.24L915.17 383.61L920.6 387.11L923.88 381.55L923.57 388L930.02 388.06L924.28 391.01L927.46 396.63Z" fill="#575E5C"/>
<path d="M937.11 301.72L926.61 294.96L920.26 305.72L920.86 293.24L908.37 293.12L919.48 287.41L913.34 276.53L923.84 283.29L930.19 272.54L929.59 285.01L942.07 285.13L930.97 290.85L937.11 301.72Z" fill="#575E5C"/>
<path d="M980.94 277.6L975.93 275.87L972.23 279.67L971.23 274.46L966.09 273.16L970.1 269.69L968.66 264.58L973.67 266.32L977.36 262.52L978.37 267.73L983.51 269.03L979.5 272.5L980.94 277.6Z" fill="#575E5C"/>
<path d="M1029.99 182.85C1034.32 182.85 1037.83 179.34 1037.83 175.01C1037.83 170.68 1034.32 167.17 1029.99 167.17C1025.66 167.17 1022.15 170.68 1022.15 175.01C1022.15 179.34 1025.66 182.85 1029.99 182.85Z" fill="#575E5C"/>
<path d="M1157.98 189.36L1152.97 187.63L1149.27 191.43L1148.27 186.22L1143.13 184.92L1147.14 181.45L1145.7 176.35L1150.71 178.08L1154.4 174.28L1155.41 179.49L1160.55 180.79L1156.54 184.26L1157.98 189.36Z" fill="#575E5C"/>
<path d="M1274.81 159.2L1258.88 148.95L1249.24 165.27L1250.15 146.34L1231.21 146.15L1248.05 137.48L1238.74 120.98L1254.67 131.23L1264.31 114.91L1263.4 133.84L1282.35 134.03L1265.5 142.7L1274.81 159.2Z" fill="#575E5C"/>
<path d="M1321.92 162.31C1324.91 162.31 1327.33 159.888 1327.33 156.9C1327.33 153.912 1324.91 151.49 1321.92 151.49C1318.93 151.49 1316.51 153.912 1316.51 156.9C1316.51 159.888 1318.93 162.31 1321.92 162.31Z" fill="#575E5C"/>
<path d="M1368.54 149.42L1363.12 145.93L1359.84 151.49L1360.15 145.04L1353.69 144.98L1359.43 142.03L1356.26 136.41L1361.69 139.9L1364.97 134.34L1364.66 140.79L1371.11 140.85L1365.37 143.8L1368.54 149.42Z" fill="#575E5C"/>
<path d="M1489.38 121.22L1484.37 119.49L1480.67 123.29L1479.67 118.08L1474.53 116.78L1478.54 113.31L1477.09 108.2L1482.1 109.94L1485.8 106.14L1486.81 111.35L1491.94 112.65L1487.94 116.12L1489.38 121.22Z" fill="#575E5C"/>
</g>
</svg>
