<svg width="127" height="78" viewBox="0 0 127 78" fill="none" xmlns="http://www.w3.org/2000/svg">
<path d="M127 0H0V78H127V0Z" fill="#6D606B"/>
<path d="M29.1527 27.8767L20.3537 27.6463C17.3031 27.4663 18.6917 32.8156 19.4975 34.2411C20.1234 35.3498 21.4113 34.4931 22.325 34.0611C23.4186 33.5427 26.3396 31.2245 26.9799 31.0517C27.9296 30.7997 31.1456 31.7788 32.4119 31.6853C33.0378 31.6421 35.6135 30.9797 36.3762 30.7637C37.9446 30.3245 39.6425 28.863 41.2901 29.439C38.8871 31.9804 35.4265 33.5931 32.9515 36.0194C31.5341 37.4089 30.0233 40.0943 28.6851 41.2895C27.7426 42.1318 26.577 42.3982 25.505 43.4853C22.5408 46.4947 21.7063 51.6208 19.2817 54.2631C17.2528 56.4733 12.8712 58.4748 10.4178 60.6707C9.0077 61.9306 5.66938 65.516 4.57579 66.9703C3.91388 67.8558 1.76988 71.146 3.14405 71.794C4.44629 72.4131 5.25209 69.6413 7.30256 70.9156L6.61188 71.9524C9.10123 71.614 11.5186 70.7645 14.0799 70.9012C16.4973 71.0308 19.1378 72.3699 21.7422 72.6075C31.1888 73.4571 40.6714 72.2692 50.1251 72.3195C59.9099 72.3699 69.6082 72.5859 79.2635 73.3563C81.3571 73.5219 82.8824 72.6651 83.7889 72.6507C84.4005 72.6435 84.976 73.6155 85.8826 73.6803C86.8826 73.7523 88.5877 72.9099 89.7317 72.7659C90.2785 72.7011 90.9476 73.0755 91.7102 72.9675C93.9334 72.6579 96.286 71.4772 98.3509 71.254C103.243 70.7285 106.776 72.5787 111.208 72.5859C112.021 72.5859 113.186 71.6716 112.402 71.0956L108.459 70.5197C107.459 70.1885 107.805 65.4368 107.898 64.4936C108.085 62.5858 108.812 60.5627 108.949 58.6044C109.186 55.2278 108.754 51.772 108.92 48.4962C108.956 47.7403 108.726 44.4861 108.934 44.1909C110.711 45.4868 114.366 44.5221 114.481 42.1102C113.086 41.6638 112.107 42.8806 110.891 42.8014C109.87 42.7366 109.071 41.923 108.179 41.6566C106.56 41.1671 101.912 39.6912 100.552 39.8712C99.9985 39.9431 98.4588 40.6199 99.2214 41.2463C100.416 42.2182 105.43 42.7438 105.761 43.7229C105.646 44.9828 106.006 46.3796 106.028 47.5531C106.135 54.1047 105.653 60.4187 105.114 66.9271C105.056 67.6614 104.819 68.3886 104.704 69.1157C101.258 70.0301 97.3221 69.051 94.0269 70.93C93.7103 64.868 93.4369 58.8204 94.4586 52.7944L95.4083 51.1457C93.7031 50.6201 91.9476 51.1169 91.6095 53.0679C90.7749 57.9852 91.1994 62.2042 91.2498 66.9487C91.2642 68.3742 90.5879 69.7997 91.2426 71.2684C89.8756 70.7356 87.6668 72.2188 86.6308 71.9236C85.9329 71.722 85.825 70.786 85.3286 70.4261C83.904 69.4109 83.0047 70.1597 81.1988 67.8846C77.4072 63.1113 73.7092 55.1486 69.5579 51.4984C63.3489 46.0412 55.5571 41.2175 50.082 34.7235C49.7222 34.2987 46.9523 29.6838 46.9091 29.3742L48.5927 26.156C47.7005 26.0696 46.9451 25.7528 46.0098 25.796C43.3694 25.9112 39.7576 27.1855 37.2971 27.5239C35.0236 27.8407 32.4335 26.3792 30.0449 27.8911M35.7646 36.0626C37.887 34.2267 40.7001 33.2404 42.5132 31.0085C42.8441 31.0589 42.729 31.7788 42.6067 31.9876C42.5492 32.0812 41.9016 32.2828 41.6354 32.5492C38.9806 35.285 36.3905 37.8841 32.9731 39.684C32.6493 39.3312 35.3041 36.4658 35.7646 36.0626ZM28.2894 70.5917C26.4475 70.9228 24.1524 70.3325 22.2171 70.5629L25.8576 69.8789H29.1455C29.3038 70.8796 28.9297 70.4765 28.2894 70.5917ZM80.1412 71.2612C76.3712 69.7709 72.2847 71.1244 68.5291 70.9372C59.5861 70.4981 50.8086 69.9509 41.8009 70.2029C40.8584 70.2317 39.6066 70.8004 38.7648 70.5773C38.4338 70.4909 38.405 69.8789 38.1532 69.7349C37.5849 69.4109 36.5632 69.3101 36.2682 68.8278C35.3257 67.2655 36.9517 64.652 33.9947 63.4641C30.8147 62.1898 30.1096 65.516 29.6348 67.8054L9.38901 68.8278C9.15159 61.5922 16.5045 60.1307 20.6271 56.3005C22.325 54.7238 24.4114 51.6208 25.7712 49.6481C26.8648 48.057 28.6203 44.2341 29.7067 43.1757C30.9658 41.9446 34.966 40.8359 36.9086 39.6192C39.8008 37.7977 42.1535 35.069 44.6428 32.7652C45.4846 32.614 46.017 34.4283 46.5062 34.9971C50.9309 40.1807 56.1758 44.8964 61.4495 49.2018C62.3992 49.9793 63.795 50.9081 64.8886 51.4912C63.9389 52.8951 61.7445 51.7936 60.1976 51.808C56.9529 51.8368 54.0174 52.8088 50.6647 52.0096C47.3048 51.2105 43.0168 49.1154 39.3763 49.0506C37.8726 49.0218 35.9373 49.7705 34.3616 49.7561L34.376 50.7713C35.9733 51.556 37.3187 50.7209 38.995 50.8289C43.6356 51.1313 48.2761 54.1191 52.5713 54.1983C54.0822 54.2271 56.2262 53.6007 57.7587 53.5647C60.1473 53.4999 62.3776 54.1263 64.7231 53.9391C65.5936 53.8671 66.2699 53.1759 66.975 53.3703C69.0471 53.9391 71.4789 59.2956 72.7883 61.1242C73.4646 62.0674 80.6736 70.8076 80.1484 71.2828L80.1412 71.2612Z" fill="#E6EDEA"/>
<path d="M116.294 10.2665L115.791 16.7029L113.791 17.4661L113.438 15.0326L108.143 16.3718C105.661 14.6079 108.884 11.4257 110.661 10.3457C109.819 8.09948 105.531 10.2089 105.797 7.92669C106.085 5.42844 110.33 5.28445 112.05 6.34998V2.8798C115.287 2.53422 114.028 3.60695 114.575 5.39244C115.618 8.79783 117.453 6.44358 119.676 8.26506L116.294 10.2593V10.2665ZM109.97 14.3415C111.071 14.8023 112.632 11.8432 112.395 11.5697C111.309 12.2968 109.539 12.7432 109.97 14.3415Z" fill="#E6EDEA"/>
<path d="M89.1273 13.6791L89.1633 18.8484C90.3432 19.3236 92.2714 16.3502 93.1635 17.8045C93.7175 18.7044 92.0627 19.482 91.9404 19.7195C91.48 20.5907 93.365 19.8635 92.9764 20.7491C92.6743 21.433 91.3648 21.2891 91.2497 21.9658C92.6527 22.1458 93.7175 22.7434 94.0413 24.2049L92.1419 25.1264C91.3792 23.0889 90.2137 24.3273 88.8179 23.3625C88.487 24.752 87.9258 26.0768 87.5301 27.4519C87.3071 28.2366 87.4222 29.7917 87.3502 29.8925C86.8898 30.5981 84.681 31.1524 84.9904 29.4606L86.7243 23.0169L83.8392 23.3265L82.9111 21.2819C83.1629 21.0227 85.0623 22.2682 85.3357 20.9363C84.4796 20.4251 79.1483 20.7707 79.4433 19.374C80.8319 17.5165 83.3284 19.3524 85.3357 18.8412C85.0623 18.2796 83.2637 17.8837 82.9903 17.3797C81.4506 14.5359 86.1127 17.2069 86.5085 17.0917C87.897 16.019 86.7747 12.988 89.1201 13.6719L89.1273 13.6791Z" fill="#E6EDEA"/>
</svg>
