<svg width="667" height="299" viewBox="0 0 667 299" fill="none" xmlns="http://www.w3.org/2000/svg">
<path d="M66.5785 157.658L77.0785 162.418C77.3385 166.918 74.8485 171.618 74.8685 175.958C74.8885 179.588 76.7485 182.848 77.0285 186.418C78.3785 204.088 72.8685 215.518 71.8185 231.358C71.4285 237.298 72.9785 248.328 71.7985 253.118C71.5985 253.938 69.6785 253.818 69.6585 254.378C69.6285 255.658 72.0685 259.538 72.3985 262.118C72.7285 264.698 70.3085 268.258 73.8885 269.488C76.1585 258.318 81.8285 267.318 82.8985 273.638C83.6485 278.068 81.1985 282.118 80.1785 286.198L90.9785 284.988L92.5985 283.508L90.5685 260.548C94.3485 250.278 85.0685 247.798 84.3485 237.578C83.8885 230.948 87.2985 223.468 87.2385 218.588C87.2185 216.828 84.8585 215.658 85.4285 213.698C85.7885 212.458 88.1685 211.958 88.9785 210.888C90.8385 208.408 91.8285 204.998 93.9285 202.258C94.9085 200.978 100.988 193.498 101.508 193.118C102.908 192.108 116.408 189.738 117.678 192.828C118.858 202.398 112.038 206.878 108.528 214.468C111.918 216.588 111.928 220.798 113.628 222.948C114.608 224.178 121.988 228.788 122.028 229.318C121.758 234.798 111.158 243.788 110.468 247.088C109.578 251.398 112.228 250.318 112.888 251.928C115.598 258.588 111.918 268.658 112.558 275.748L123.888 274.888L126.088 281.358L121.958 285.148C132.578 285.298 143.238 284.998 153.878 285.118C159.178 285.178 164.628 286.428 170.608 286.258C187.358 285.778 207.608 277.978 224.338 274.158C251.958 267.838 280.108 265.058 308.508 265.218C337.718 265.388 369.198 279.028 398.368 276.788C408.608 276.008 418.358 272.128 428.648 271.538C454.018 270.068 475.748 277.858 501.818 275.738C506.278 275.378 541.469 267.098 542.638 265.348C543.688 262.168 542.768 258.878 543.359 255.618C544.629 248.568 547.549 232.798 550.119 226.838C552.389 221.558 558.268 217.628 559.589 213.308C562.229 204.638 558.239 192.158 564.549 185.878C566.749 183.678 571.638 181.288 574.518 183.228C577.159 185.008 576.199 203.148 576.689 207.188C577.359 212.738 581.049 215.668 581.729 219.918C583.328 229.928 578.018 239.738 578.669 249.628L588.679 224.638C597.139 218.518 594.219 215.488 595.489 207.418C596.539 200.778 598.509 191.588 602.419 186.158C602.939 185.438 602.198 184.378 604.229 184.868C609.999 191.018 614.849 191.978 612.629 201.578C611.549 206.228 605.039 213.398 604.979 217.978C604.948 220.168 608.018 220.518 607.888 223.878C607.768 226.908 607.129 233.368 606.609 236.308C605.429 242.978 601.049 248.988 601.659 255.918L604.809 255.208L607.129 246.718L613.069 246.598L613.169 257.998C617.309 259.098 619.498 252.588 622.268 251.878L627.289 253.818C629.229 258.578 625.479 266.748 629.958 269.958C632.208 271.578 640.008 273.568 642.849 273.568C651.258 273.548 660.719 265.948 666.448 273.158C666.448 273.838 655.239 277.928 653.789 278.248C632.578 282.938 623.719 270.178 607.398 270.448C603.239 270.518 601.569 273.648 599.059 273.628C596.609 273.608 589.599 270.608 585.249 270.828C583.689 270.908 582.809 272.448 581.359 272.538C579.039 272.678 575.089 270.668 572.009 271.538C566.859 289.798 555.208 272.908 553.109 272.888C552.599 272.888 551.089 274.838 548.909 274.858C546.568 274.878 545.169 272.628 542.679 272.568C537.579 272.458 522.479 278.408 516.249 279.698C501.959 282.658 481.878 283.898 467.498 281.948C461.778 281.168 455.318 278.548 449.498 277.998C426.748 275.858 403.648 284.808 380.608 283.138C374.118 282.668 369.508 280.108 363.668 279.178C314.178 271.288 276.178 268.158 226.498 279.428C209.408 283.308 191.178 290.638 173.928 292.078C152.438 293.868 122.008 291.738 100.528 290.478C90.7485 289.898 81.2885 293.678 71.4385 292.438C66.9985 305.558 60.4785 293.348 52.5285 292.478C46.5685 291.828 41.4885 294.218 35.8185 294.628C28.9685 295.118 13.1885 294.678 6.56849 293.498C-0.721508 292.188 -1.65151 284.238 2.33849 278.938C4.59849 280.088 5.42849 280.258 4.95849 283.108L6.85849 282.248C7.74849 285.348 9.96849 286.488 13.0385 287.028C23.5585 288.888 34.3185 286.738 44.6585 287.278C45.1785 284.858 41.5985 276.058 41.6885 275.448C41.8485 274.348 44.1585 272.698 44.6085 269.988C45.2385 266.178 45.5485 257.748 45.7485 253.368C45.9485 249.098 46.0685 224.288 44.6485 222.498L39.4385 223.538C39.3985 213.078 43.7785 203.368 46.4585 193.468C48.8085 184.788 50.1285 174.088 54.2585 165.718C54.8885 164.448 55.8385 163.988 57.1885 163.948L52.9285 161.218C54.4585 154.558 53.3185 149.018 56.2785 142.678C57.9685 139.058 68.6085 124.248 72.3585 130.518C75.3285 135.488 68.9885 152.288 66.5985 157.688L66.5785 157.658ZM70.7485 206.778C70.8085 204.558 72.6085 202.338 69.7285 201.558V206.778H70.7485ZM92.6985 233.948L94.7885 221.418C92.9685 222.118 92.0285 226.598 91.7485 228.298C91.5685 229.378 90.7885 233.998 92.6885 233.948H92.6985ZM101.068 252.778H98.9885V259.028H100.008L101.058 252.778H101.068Z" fill="#6D606B"/>
<path d="M480.418 17.6281C478.288 30.4381 462.838 30.7981 453.718 34.2981C432.288 42.5081 411.008 67.3281 388.848 69.7581C383.928 70.2981 370.598 72.0681 372.778 64.6681C379.088 63.7081 385.528 65.4881 391.868 64.4081C399.518 63.1081 415.128 53.0981 421.818 48.3681C432.438 40.8581 439.268 35.5381 451.918 30.3981C461.408 26.5381 471.178 27.6881 477.268 17.0881L480.428 17.6281H480.418Z" fill="#6D606B"/>
<path d="M41.4985 36.4481L42.5885 45.8181L55.0785 42.7181C58.0785 46.1081 42.5285 52.8181 42.5385 53.6981C42.5585 57.2281 48.6385 56.2081 50.6085 57.6481C52.5785 59.0881 56.7285 66.5181 52.9985 68.3181C48.5185 70.4881 47.1285 66.0381 45.5185 62.6981L44.2185 62.5481C37.5685 63.2581 34.6585 69.3981 28.4685 70.9181C22.4785 65.3581 36.8185 64.4081 36.3785 58.9381C36.0785 55.2381 31.9585 53.3481 31.8585 49.2181C20.6785 46.3081 25.7885 39.1181 35.2285 42.6981L35.2485 37.4781L41.5085 36.4381L41.4985 36.4481Z" fill="#6D606B"/>
<path d="M592.228 15.5181C587.018 18.1781 581.768 22.2381 576.098 23.9481C568.698 26.1781 561.458 26.6281 553.898 29.9681C546.978 33.0181 522.278 50.2681 515.948 46.4181C514.238 45.3781 513.658 41.5281 513.868 39.5881C524.478 42.8181 533.108 33.2581 542.418 28.9481C553.248 23.9381 562.688 22.5381 573.648 19.4281C579.518 17.7581 589.138 9.18811 592.228 15.5281V15.5181Z" fill="#6D606B"/>
<path d="M597.459 66.7381L598.509 84.5081C602.749 83.5781 605.029 80.0981 609.989 81.3881C610.599 81.9281 606.979 88.2781 606.639 88.4681C605.089 89.3381 601.869 87.8381 600.579 90.2881L603.839 100.728L600.049 104.358C597.749 104.708 598.829 103.988 598.479 102.838C597.369 99.2181 596.569 95.4181 595.349 91.8281C590.579 92.7681 587.979 98.0281 583.889 92.3481C584.389 90.0581 591.089 89.1181 590.129 87.1381C589.749 86.3581 575.109 76.4681 582.419 74.1481C587.069 72.6781 587.789 78.9581 591.709 80.3081C596.229 76.1581 587.609 65.4681 597.449 66.7381H597.459Z" fill="#6D606B"/>
<path d="M214.978 101.238C215.678 106.238 210.328 106.678 206.618 106.468L209.618 114.648L202.958 117.928L200.888 109.608C197.228 113.038 194.878 118.788 188.938 117.898C185.628 111.098 194.418 111.818 195.128 104.948C194.648 102.848 187.048 103.128 187.828 99.1682C191.538 96.0882 194.658 98.7482 197.728 98.1682C198.098 98.0982 198.318 93.2082 202.888 94.0382L205.508 100.788L214.978 101.238Z" fill="#6D606B"/>
<path d="M367.549 1.95816C369.219 7.12816 355.339 8.50816 364.489 10.8782L364.409 17.6182C361.629 18.1182 360.319 16.3082 358.669 14.5082C355.229 16.2482 359.729 20.6982 357.149 22.3782C350.489 26.7282 352.629 15.3082 351.869 14.4982L343.519 16.5782C342.229 12.1882 348.839 12.1982 350.389 9.26816L348.889 3.67816C355.189 -5.56184 354.389 5.43816 357.729 6.10816C361.209 4.51816 363.029 1.06816 367.549 1.96816V1.95816Z" fill="#6D606B"/>
<path d="M175.258 61.5282C178.538 64.7282 165.948 68.0782 164.298 68.8382C155.038 73.1382 147.128 74.9582 138.438 78.5082C136.278 79.3882 133.478 82.2582 130.858 83.4882C129.698 84.0282 128.658 84.9882 128.238 82.9182C127.818 80.8482 131.968 75.7982 133.738 74.8482C137.838 72.6482 150.748 70.3082 156.428 68.2782C162.558 66.0882 168.038 60.9882 175.258 61.5182V61.5282Z" fill="#6D606B"/>
<path d="M121.658 83.7882C122.188 84.3882 122.678 85.2382 122.578 86.0382C119.838 91.8382 118.068 99.7682 110.468 100.768C108.118 99.6982 107.908 87.8582 108.938 85.5782C110.768 81.5082 118.388 80.0582 121.668 83.7882H121.658Z" fill="#6D606B"/>
<path d="M362.188 63.7781C361.418 66.5381 365.528 68.0081 365.538 68.3881C365.538 68.7981 363.118 75.4881 362.788 76.0881C361.058 79.1781 355.478 82.1981 351.888 81.3881C352.308 74.0181 351.328 61.6981 362.198 63.7781H362.188Z" fill="#6D606B"/>
<path d="M501.098 45.0482C504.138 44.3482 510.848 47.0582 509.198 50.0582C507.738 52.7182 496.488 55.3782 493.968 53.7082C489.778 50.9282 498.478 45.6482 501.088 45.0382L501.098 45.0482Z" fill="#6D606B"/>
</svg>
