<svg width="1314" height="218" viewBox="0 0 1314 218" fill="none" xmlns="http://www.w3.org/2000/svg">
<path d="M337.917 107.04L341.187 113.5C342.967 113.35 343.527 108.44 345.557 109.7C346.807 110.48 345.227 112.49 345.217 112.86C345.177 114.24 347.097 112.15 347.157 113.51C347.207 114.56 345.477 115.19 345.747 116.11C347.617 115.46 349.327 115.54 350.647 117.17L348.837 119.51C346.617 117.43 345.927 119.71 343.577 119.37C344.027 121.32 344.147 123.33 344.517 125.3C344.727 126.42 345.837 128.3 345.817 128.47C345.677 129.64 343.257 131.72 342.587 129.39L340.747 120.23L337.317 122.42L334.877 120.44C335.027 119.96 338.187 120.33 337.697 118.5C336.307 118.39 329.837 122.15 329.337 120.22C329.917 117.03 334.197 117.77 336.397 115.88C335.697 115.35 333.197 115.97 332.547 115.51C328.847 112.91 336.357 113.35 336.777 112.95C337.847 110.74 334.557 107.64 337.917 107.04Z" fill="#FF92AA"/>
<path d="M1026.9 105.92L1026.2 114.92L1023.4 115.99L1022.91 112.59L1015.49 114.46C1012.02 111.99 1016.53 107.54 1019.02 106.03C1017.84 102.89 1011.84 105.84 1012.21 102.65C1012.61 99.15 1018.56 98.95 1020.97 100.44V95.58C1025.5 95.1 1023.74 96.6 1024.5 99.09C1025.96 103.85 1028.53 100.56 1031.64 103.11L1026.9 105.9V105.92ZM1018.05 111.62C1019.59 112.27 1021.78 108.12 1021.44 107.74C1019.92 108.75 1017.44 109.39 1018.05 111.62Z" fill="#FF92AA"/>
<path d="M1296.57 173.87C1294.94 164.68 1306.24 168.49 1308.34 160.45C1306.63 158.27 1304.25 158.78 1302.14 157.6C1300.03 156.42 1297.42 153.04 1294.99 151.64C1294.28 151.23 1290.27 149.18 1289.68 150.75L1292.43 152.13C1292.65 152.62 1291.43 152.33 1291.04 152.93C1289.79 154.86 1288.04 178.89 1288.37 182.42C1288.88 187.82 1293.11 199.48 1291.91 204.03C1291.09 207.15 1289.02 206.49 1287.97 207.7C1286.44 209.46 1286.37 214.54 1283.64 215.79C1278.33 218.23 1273.81 216.86 1268.63 216.59C1266.2 216.46 1262.99 217.99 1260.29 216C1259.01 214.33 1265.6 204.36 1266.27 201.87C1272.43 199.5 1279.42 198.3 1286.23 198.7C1285.21 191.34 1282.29 183.13 1282.35 175.7C1282.39 171.33 1283.79 166.29 1284.15 161.77C1284.48 157.62 1283.62 152.69 1284.2 148.71C1284.58 146.12 1286.45 139.42 1289.4 139.36C1294.06 139.27 1291.75 144.9 1294.13 146.98C1295.02 147.76 1297.92 148.67 1299.57 149.82C1301.07 150.87 1302.2 152.65 1303.54 153.44C1306.66 155.28 1312.41 155.79 1313.68 160.56C1314.34 163.07 1312.11 166.83 1310.34 168.62C1309.85 169.12 1301.57 173.51 1300.93 173.7C1299.57 174.1 1297.99 173.78 1296.58 173.85L1296.57 173.87ZM1271.04 211.83H1269.67V212.51H1271.04V211.83Z" fill="#FF92AA"/>
<path d="M72.937 149.22C73.287 149.62 73.727 150.35 73.727 150.84C73.707 152.04 67.087 158.25 65.227 158.63C65.197 161.63 64.587 164.73 63.847 167.64C62.287 173.84 59.477 178.95 59.347 185.23C59.317 186.55 60.297 187.96 60.067 189.24C59.987 189.7 58.927 189.66 58.727 190.24C58.287 191.51 58.517 193.33 57.607 194.52C57.397 194.79 55.087 196.91 54.307 197.73C53.607 198.47 50.687 201.65 50.377 201.79C45.797 203.92 37.007 197.46 38.087 192.29C38.697 189.38 50.227 176.48 54.517 180.75L62.797 153.16C55.307 150.96 47.977 151.34 40.357 151.1C38.267 151.03 35.467 149.25 33.887 151.48C33.027 152.7 31.997 156.33 31.757 157.97C32.437 158.75 49.777 159.38 52.317 158.88C55.977 154.24 57.187 159.75 56.997 163.51C56.217 164.58 50.327 164.27 48.637 164.21C45.767 164.1 30.787 161.88 29.697 162.42C27.007 163.76 28.387 175.22 28.337 178.36C28.287 181.5 26.567 186.61 27.977 189.71C28.417 190.67 30.667 191.62 30.377 192.81C27.307 194.48 25.047 197.26 22.317 199.27C19.587 201.28 15.727 201.36 15.877 204.92C11.387 204 7.37702 205.44 2.61702 203.35C-3.50298 200.66 2.63702 195.22 5.59702 192.89C8.89702 190.29 13.427 187.33 17.647 186.94C19.677 186.75 21.087 188.75 22.277 186.11C22.747 185.06 23.487 177.9 23.507 176.3C23.557 172.45 22.477 169.13 22.867 165.3C23.727 156.88 31.767 148.33 30.387 139.36C31.547 138.16 34.467 141.69 34.797 142.78C35.127 143.87 33.867 145.42 35.617 146.19C36.497 146.07 37.337 145.55 38.257 145.63C43.707 146.08 55.837 148.13 60.457 147.68C64.227 147.31 64.547 144.58 67.987 148.84C69.727 147.5 71.477 147.51 72.947 149.22H72.937ZM53.147 189.03C53.367 188.02 52.857 187.59 52.117 186.98L50.387 187.66V188.33L53.137 189.03H53.147ZM47.617 195.24L48.307 189.72C46.827 190.63 45.127 194.52 47.617 195.24Z" fill="#FF92AA"/>
<path d="M443.177 0.12994L443.227 7.35994C444.877 8.01994 447.577 3.86994 448.827 5.89994C449.597 7.15994 447.287 8.24994 447.107 8.57994C446.457 9.78994 449.107 8.77994 448.557 10.0299C448.137 10.9899 446.297 10.7799 446.137 11.7299C448.097 11.9799 449.597 12.8199 450.047 14.8599L447.387 16.1499C446.327 13.2999 444.687 15.0299 442.737 13.6799C442.267 15.6299 441.487 17.4799 440.937 19.4099C440.627 20.5099 440.787 22.6899 440.687 22.8299C440.037 23.8199 436.947 24.5999 437.387 22.2199L439.817 13.1999L435.777 13.6299L434.477 10.7699C434.827 10.4099 437.487 12.1499 437.877 10.2899C436.677 9.56994 429.217 10.0599 429.627 8.10994C431.567 5.50994 435.067 8.07994 437.877 7.36994C437.487 6.57994 434.977 6.02994 434.597 5.32994C432.437 1.35994 438.967 5.08994 439.527 4.91994C441.467 3.41994 439.907 -0.82006 443.177 0.13994V0.12994Z" fill="#FF92AA"/>
</svg>
