<svg width="185" height="254" viewBox="0 0 185 254" fill="none" xmlns="http://www.w3.org/2000/svg">
<path d="M96.8841 83.672C98.5241 83.112 99.3241 78.652 99.5041 77.192C100.854 66.102 101.444 51.132 100.694 40.012C100.154 31.932 93.3741 7.812 106.064 5.952C110.904 5.242 112.814 6.372 114.994 10.352C122.154 23.402 122.074 44.372 123.874 59.072C125.514 72.472 126.174 80.302 126.834 93.752C126.984 96.722 128.934 111.912 129.994 113.442C131.184 115.002 130.954 114.072 131.914 113.442C134.194 111.962 137.844 106.342 140.534 103.792C145.934 98.692 165.574 85.092 172.244 84.612C173.754 84.502 175.364 84.402 176.834 84.832C181.814 86.292 185.264 103.142 184.004 107.912C180.264 122.032 145.564 144.242 134.304 155.172C118.884 170.132 121.824 175.172 116.564 194.072C112.084 210.142 105.374 224.842 107.004 242.072C96.2341 249.062 83.6741 249.082 71.5141 250.782C67.6241 251.322 63.3041 253.242 58.9441 253.572C56.5341 253.752 46.2541 254.612 46.9641 251.202C49.5141 247.302 53.9541 249.292 57.8841 248.672C63.5741 247.772 97.0441 242.552 98.6341 239.992C97.2841 227.382 102.834 216.802 105.644 205.232C110.834 183.842 109.564 170.492 126.624 154.212C140.704 140.782 161.624 129.752 172.554 113.742C179.084 104.182 175.594 100.042 171.734 90.382C166.724 93.292 158.384 96.102 153.824 99.342C145.804 105.042 138.114 118.662 130.424 123.462C128.254 124.822 126.384 125.292 123.774 124.922C122.184 114.232 119.484 103.592 118.914 92.742C118.034 76.022 117.454 58.912 114.994 42.022C113.694 33.092 111.854 20.672 106.474 13.592C103.324 22.732 107.704 31.272 108.414 39.952C109.774 56.542 107.914 85.122 100.144 99.912C98.9341 102.222 94.6541 105.272 92.1741 103.702C90.8841 102.892 87.7941 77.372 87.2741 73.572C85.0041 57.092 82.2241 40.162 80.6341 23.562C80.2041 19.052 81.1941 15.792 79.7141 10.042C79.3541 8.632 80.3241 7.482 78.1341 7.802C72.3341 8.662 72.3041 21.192 72.8341 25.612C75.3841 46.672 81.7241 68.332 81.5741 89.912C81.5641 91.532 80.4541 100.992 80.0541 101.892C78.0641 106.382 72.7741 106.402 69.5841 102.782C58.1741 89.862 61.7941 78.602 59.2041 63.242C58.0941 56.682 52.7041 37.152 48.8841 32.282C48.1141 31.302 42.8841 27.112 42.1641 27.972C41.4041 34.172 40.8141 40.282 41.3241 46.562C42.5141 61.242 47.0041 81.572 50.1041 96.342C51.3441 102.242 58.1641 111.592 48.1641 114.182C43.4741 115.402 43.1941 109.772 41.2041 107.122C33.3741 96.692 28.6641 86.462 21.8541 75.632C17.3641 68.492 12.2641 62.632 9.9641 74.952C6.2341 94.912 24.0041 120.862 34.3441 137.062C36.9041 141.062 39.9341 149.142 43.1241 152.282C45.7441 154.862 51.6841 156.012 52.5041 156.822C52.8841 157.202 56.1641 165.852 56.3441 166.902C57.8841 175.932 54.7441 183.222 53.8141 191.752C51.9841 208.402 54.3641 225.712 54.6641 242.522C53.9041 246.372 45.3541 249.042 44.2441 244.242C43.8841 242.682 45.2541 240.552 45.1441 238.662C44.3541 225.402 43.2341 211.682 44.0541 198.302C44.6341 188.932 49.4841 175.932 47.1341 167.462C45.1841 160.442 40.8841 161.622 36.2041 157.542C29.7141 151.882 28.8141 144.512 24.7441 138.012C22.4041 134.272 17.3241 130.402 15.1041 126.532C11.4641 120.272 0.824105 94.332 0.134105 87.732C-1.0559 76.342 5.6741 57.032 20.3141 60.872C23.6941 61.762 28.7441 68.752 30.4641 71.852C31.0541 72.912 36.8441 89.122 39.2641 86.562C37.7241 77.892 36.5241 69.142 35.1641 60.432C33.4441 49.402 31.4141 43.412 33.5841 31.452C35.6141 20.242 44.5241 16.252 53.2141 24.152C62.8841 32.942 67.5541 58.912 68.9641 71.842C69.3741 75.642 68.1541 79.792 69.2641 84.892C69.5641 86.242 70.3541 90.022 71.8941 90.412C73.3741 76.492 69.5641 63.042 68.0841 49.602C67.1341 41.022 64.3841 23.672 65.2941 16.122C66.3141 7.712 76.5441 -1.098 84.8541 0.111997C88.5541 0.651997 86.8841 4.572 87.3541 7.282C89.6741 20.752 89.8341 36.362 92.1641 50.482C93.5441 58.892 95.5941 67.472 96.8441 75.572C97.2441 78.162 96.6741 81.042 96.8941 83.682L96.8841 83.672Z" fill="#FF92AA"/>
</svg>
