<svg width="1427" height="139" viewBox="0 0 1427 139" fill="none" xmlns="http://www.w3.org/2000/svg">
<g opacity="0.4">
<path d="M9.55 108.95L6.99 101.96L0 99.4L6.99 96.84L9.55 89.85L12.11 96.84L19.1 99.4L12.11 101.96L9.55 108.95ZM9.55 138.9L6.99 131.91L0 129.35L6.99 126.79L9.55 119.8L12.11 126.79L19.1 129.35L12.11 131.91L9.55 138.9ZM39.5 49.05L36.94 42.06L29.95 39.5L36.94 36.94L39.5 29.95L42.06 36.94L49.05 39.5L42.06 42.06L39.5 49.05ZM39.5 108.95L36.94 101.96L29.95 99.4L36.94 96.84L39.5 89.85L42.06 96.84L49.05 99.4L42.06 101.96L39.5 108.95ZM69.45 19.1L66.89 12.11L59.9 9.55L66.89 6.99L69.45 0L72.01 6.99L79 9.55L72.01 12.11L69.45 19.1ZM69.45 49.05L66.89 42.06L59.9 39.5L66.89 36.94L69.45 29.95L72.01 36.94L79 39.5L72.01 42.06L69.45 49.05ZM69.45 108.95L66.89 101.96L59.9 99.4L66.89 96.84L69.45 89.85L72.01 96.84L79 99.4L72.01 101.96L69.45 108.95ZM99.4 49.05L96.84 42.06L89.85 39.5L96.84 36.94L99.4 29.95L101.96 36.94L108.95 39.5L101.96 42.06L99.4 49.05ZM99.4 108.95L96.84 101.96L89.85 99.4L96.84 96.84L99.4 89.85L101.96 96.84L108.95 99.4L101.96 101.96L99.4 108.95ZM129.35 108.95L126.79 101.96L119.8 99.4L126.79 96.84L129.35 89.85L131.91 96.84L138.9 99.4L131.91 101.96L129.35 108.95ZM129.35 138.9L126.79 131.91L119.8 129.35L126.79 126.79L129.35 119.8L131.91 126.79L138.9 129.35L131.91 131.91L129.35 138.9Z" fill="#FF92AA"/>
<path d="M219.2 49.05L216.64 42.06L209.65 39.5L216.64 36.94L219.2 29.95L221.76 36.94L228.75 39.5L221.76 42.06L219.2 49.05ZM219.2 79L216.64 72.01L209.65 69.45L216.64 66.89L219.2 59.9L221.76 66.89L228.75 69.45L221.76 72.01L219.2 79ZM219.2 108.95L216.64 101.96L209.65 99.4L216.64 96.84L219.2 89.85L221.76 96.84L228.75 99.4L221.76 101.96L219.2 108.95ZM249.15 19.1L246.59 12.11L239.6 9.55L246.59 6.99L249.15 0L251.71 6.99L258.7 9.55L251.71 12.11L249.15 19.1ZM249.15 138.9L246.59 131.91L239.6 129.35L246.59 126.79L249.15 119.8L251.71 126.79L258.7 129.35L251.71 131.91L249.15 138.9ZM279.1 19.1L276.54 12.11L269.55 9.55L276.54 6.99L279.1 0L281.66 6.99L288.65 9.55L281.66 12.11L279.1 19.1ZM279.1 138.9L276.54 131.91L269.55 129.35L276.54 126.79L279.1 119.8L281.66 126.79L288.65 129.35L281.66 131.91L279.1 138.9ZM309.04 19.1L306.48 12.11L299.49 9.55L306.48 6.99L309.04 0L311.6 6.99L318.59 9.55L311.6 12.11L309.04 19.1ZM309.04 138.9L306.48 131.91L299.49 129.35L306.48 126.79L309.04 119.8L311.6 126.79L318.59 129.35L311.6 131.91L309.04 138.9Z" fill="#FF92AA"/>
<path d="M398.89 19.1L396.33 12.11L389.34 9.55L396.33 6.99L398.89 0L401.45 6.99L408.44 9.55L401.45 12.11L398.89 19.1ZM398.89 49.05L396.33 42.06L389.34 39.5L396.33 36.94L398.89 29.95L401.45 36.94L408.44 39.5L401.45 42.06L398.89 49.05ZM398.89 79L396.33 72.01L389.34 69.45L396.33 66.89L398.89 59.9L401.45 66.89L408.44 69.45L401.45 72.01L398.89 79ZM398.89 108.95L396.33 101.96L389.34 99.4L396.33 96.84L398.89 89.85L401.45 96.84L408.44 99.4L401.45 101.96L398.89 108.95ZM398.89 138.9L396.33 131.91L389.34 129.35L396.33 126.79L398.89 119.8L401.45 126.79L408.44 129.35L401.45 131.91L398.89 138.9ZM428.84 79L426.28 72.01L419.29 69.45L426.28 66.89L428.84 59.9L431.4 66.89L438.39 69.45L431.4 72.01L428.84 79ZM458.79 79L456.23 72.01L449.24 69.45L456.23 66.89L458.79 59.9L461.35 66.89L468.34 69.45L461.35 72.01L458.79 79ZM488.74 79L486.18 72.01L479.19 69.45L486.18 66.89L488.74 59.9L491.3 66.89L498.29 69.45L491.3 72.01L488.74 79ZM518.69 19.1L516.13 12.11L509.14 9.55L516.13 6.99L518.69 0L521.25 6.99L528.24 9.55L521.25 12.11L518.69 19.1ZM518.69 79L516.13 72.01L509.14 69.45L516.13 66.89L518.69 59.9L521.25 66.89L528.24 69.45L521.25 72.01L518.69 79ZM518.69 108.95L516.13 101.96L509.14 99.4L516.13 96.84L518.69 89.85L521.25 96.84L528.24 99.4L521.25 101.96L518.69 108.95ZM518.69 138.9L516.13 131.91L509.14 129.35L516.13 126.79L518.69 119.8L521.25 126.79L528.24 129.35L521.25 131.91L518.69 138.9Z" fill="#FF92AA"/>
<path d="M608.54 19.1L605.98 12.11L598.99 9.55L605.98 6.99L608.54 0L611.1 6.99L618.09 9.55L611.1 12.11L608.54 19.1ZM608.54 138.9L605.98 131.91L598.99 129.35L605.98 126.79L608.54 119.8L611.1 126.79L618.09 129.35L611.1 131.91L608.54 138.9ZM638.49 19.1L635.93 12.11L628.94 9.55L635.93 6.99L638.49 0L641.05 6.99L648.04 9.55L641.05 12.11L638.49 19.1ZM638.49 79L635.93 72.01L628.94 69.45L635.93 66.89L638.49 59.9L641.05 66.89L648.04 69.45L641.05 72.01L638.49 79ZM638.49 108.95L635.93 101.96L628.94 99.4L635.93 96.84L638.49 89.85L641.05 96.84L648.04 99.4L641.05 101.96L638.49 108.95ZM638.49 138.9L635.93 131.91L628.94 129.35L635.93 126.79L638.49 119.8L641.05 126.79L648.04 129.35L641.05 131.91L638.49 138.9ZM668.44 19.1L665.88 12.11L658.89 9.55L665.88 6.99L668.44 0L671 6.99L677.99 9.55L671 12.11L668.44 19.1ZM668.44 138.9L665.88 131.91L658.89 129.35L665.88 126.79L668.44 119.8L671 126.79L677.99 129.35L671 131.91L668.44 138.9Z" fill="#FF92AA"/>
<path d="M758.29 19.1L755.73 12.11L748.74 9.55L755.73 6.99L758.29 0L760.85 6.99L767.84 9.55L760.85 12.11L758.29 19.1ZM758.29 49.05L755.73 42.06L748.74 39.5L755.73 36.94L758.29 29.95L760.85 36.94L767.84 39.5L760.85 42.06L758.29 49.05ZM758.29 79L755.73 72.01L748.74 69.45L755.73 66.89L758.29 59.9L760.85 66.89L767.84 69.45L760.85 72.01L758.29 79ZM758.29 108.95L755.73 101.96L748.74 99.4L755.73 96.84L758.29 89.85L760.85 96.84L767.84 99.4L760.85 101.96L758.29 108.95ZM758.29 138.9L755.73 131.91L748.74 129.35L755.73 126.79L758.29 119.8L760.85 126.79L767.84 129.35L760.85 131.91L758.29 138.9ZM788.24 108.95L785.68 101.96L778.69 99.4L785.68 96.84L788.24 89.85L790.8 96.84L797.79 99.4L790.8 101.96L788.24 108.95ZM818.19 79L815.63 72.01L808.64 69.45L815.63 66.89L818.19 59.9L820.75 66.89L827.74 69.45L820.75 72.01L818.19 79ZM848.14 49.05L845.58 42.06L838.59 39.5L845.58 36.94L848.14 29.95L850.7 36.94L857.69 39.5L850.7 42.06L848.14 49.05ZM878.09 19.1L875.53 12.11L868.54 9.55L875.53 6.99L878.09 0L880.65 6.99L887.64 9.55L880.65 12.11L878.09 19.1Z" fill="#FF92AA"/>
<path d="M937.99 19.1L935.43 12.11L928.44 9.55L935.43 6.99L937.99 0L940.55 6.99L947.54 9.55L940.55 12.11L937.99 19.1ZM937.99 138.9L935.43 131.91L928.44 129.35L935.43 126.79L937.99 119.8L940.55 126.79L947.54 129.35L940.55 131.91L937.99 138.9ZM967.94 19.1L965.38 12.11L958.39 9.55L965.38 6.99L967.94 0L970.5 6.99L977.49 9.55L970.5 12.11L967.94 19.1ZM967.94 79L965.38 72.01L958.39 69.45L965.38 66.89L967.94 59.9L970.5 66.89L977.49 69.45L970.5 72.01L967.94 79ZM967.94 108.95L965.38 101.96L958.39 99.4L965.38 96.84L967.94 89.85L970.5 96.84L977.49 99.4L970.5 101.96L967.94 108.95ZM967.94 138.9L965.38 131.91L958.39 129.35L965.38 126.79L967.94 119.8L970.5 126.79L977.49 129.35L970.5 131.91L967.94 138.9ZM997.88 19.1L995.32 12.11L988.33 9.55L995.32 6.99L997.88 0L1000.44 6.99L1007.43 9.55L1000.44 12.11L997.88 19.1ZM997.88 138.9L995.32 131.91L988.33 129.35L995.32 126.79L997.88 119.8L1000.44 126.79L1007.43 129.35L1000.44 131.91L997.88 138.9Z" fill="#FF92AA"/>
<path d="M1087.73 19.1L1085.17 12.11L1078.18 9.55L1085.17 6.99L1087.73 0L1090.29 6.99L1097.28 9.55L1090.29 12.11L1087.73 19.1ZM1087.73 49.05L1085.17 42.06L1078.18 39.5L1085.17 36.94L1087.73 29.95L1090.29 36.94L1097.28 39.5L1090.29 42.06L1087.73 49.05ZM1087.73 79L1085.17 72.01L1078.18 69.45L1085.17 66.89L1087.73 59.9L1090.29 66.89L1097.28 69.45L1090.29 72.01L1087.73 79ZM1087.73 108.95L1085.17 101.96L1078.18 99.4L1085.17 96.84L1087.73 89.85L1090.29 96.84L1097.28 99.4L1090.29 101.96L1087.73 108.95ZM1087.73 138.9L1085.17 131.91L1078.18 129.35L1085.17 126.79L1087.73 119.8L1090.29 126.79L1097.28 129.35L1090.29 131.91L1087.73 138.9ZM1117.68 19.1L1115.12 12.11L1108.13 9.55L1115.12 6.99L1117.68 0L1120.24 6.99L1127.23 9.55L1120.24 12.11L1117.68 19.1ZM1147.63 19.1L1145.07 12.11L1138.08 9.55L1145.07 6.99L1147.63 0L1150.19 6.99L1157.18 9.55L1150.19 12.11L1147.63 19.1ZM1147.63 49.05L1145.07 42.06L1138.08 39.5L1145.07 36.94L1147.63 29.95L1150.19 36.94L1157.18 39.5L1150.19 42.06L1147.63 49.05ZM1147.63 79L1145.07 72.01L1138.08 69.45L1145.07 66.89L1147.63 59.9L1150.19 66.89L1157.18 69.45L1150.19 72.01L1147.63 79ZM1147.63 108.95L1145.07 101.96L1138.08 99.4L1145.07 96.84L1147.63 89.85L1150.19 96.84L1157.18 99.4L1150.19 101.96L1147.63 108.95ZM1147.63 138.9L1145.07 131.91L1138.08 129.35L1145.07 126.79L1147.63 119.8L1150.19 126.79L1157.18 129.35L1150.19 131.91L1147.63 138.9ZM1177.58 138.9L1175.02 131.91L1168.03 129.35L1175.02 126.79L1177.58 119.8L1180.14 126.79L1187.13 129.35L1180.14 131.91L1177.58 138.9ZM1207.53 19.1L1204.97 12.11L1197.98 9.55L1204.97 6.99L1207.53 0L1210.09 6.99L1217.08 9.55L1210.09 12.11L1207.53 19.1ZM1207.53 49.05L1204.97 42.06L1197.98 39.5L1204.97 36.94L1207.53 29.95L1210.09 36.94L1217.08 39.5L1210.09 42.06L1207.53 49.05ZM1207.53 79L1204.97 72.01L1197.98 69.45L1204.97 66.89L1207.53 59.9L1210.09 66.89L1217.08 69.45L1210.09 72.01L1207.53 79ZM1207.53 108.95L1204.97 101.96L1197.98 99.4L1204.97 96.84L1207.53 89.85L1210.09 96.84L1217.08 99.4L1210.09 101.96L1207.53 108.95ZM1207.53 138.9L1204.97 131.91L1197.98 129.35L1204.97 126.79L1207.53 119.8L1210.09 126.79L1217.08 129.35L1210.09 131.91L1207.53 138.9Z" fill="#FF92AA"/>
<path d="M1297.38 49.05L1294.82 42.06L1287.83 39.5L1294.82 36.94L1297.38 29.95L1299.94 36.94L1306.93 39.5L1299.94 42.06L1297.38 49.05ZM1297.38 79L1294.82 72.01L1287.83 69.45L1294.82 66.89L1297.38 59.9L1299.94 66.89L1306.93 69.45L1299.94 72.01L1297.38 79ZM1297.38 108.95L1294.82 101.96L1287.83 99.4L1294.82 96.84L1297.38 89.85L1299.94 96.84L1306.93 99.4L1299.94 101.96L1297.38 108.95ZM1327.33 19.1L1324.77 12.11L1317.78 9.55L1324.77 6.99L1327.33 0L1329.89 6.99L1336.88 9.55L1329.89 12.11L1327.33 19.1ZM1327.33 138.9L1324.77 131.91L1317.78 129.35L1324.77 126.79L1327.33 119.8L1329.89 126.79L1336.88 129.35L1329.89 131.91L1327.33 138.9ZM1357.28 19.1L1354.72 12.11L1347.73 9.55L1354.72 6.99L1357.28 0L1359.84 6.99L1366.83 9.55L1359.84 12.11L1357.28 19.1ZM1357.28 138.9L1354.72 131.91L1347.73 129.35L1354.72 126.79L1357.28 119.8L1359.84 126.79L1366.83 129.35L1359.84 131.91L1357.28 138.9ZM1387.23 19.1L1384.67 12.11L1377.68 9.55L1384.67 6.99L1387.23 0L1389.79 6.99L1396.78 9.55L1389.79 12.11L1387.23 19.1ZM1387.23 79L1384.67 72.01L1377.68 69.45L1384.67 66.89L1387.23 59.9L1389.79 66.89L1396.78 69.45L1389.79 72.01L1387.23 79ZM1387.23 138.9L1384.67 131.91L1377.68 129.35L1384.67 126.79L1387.23 119.8L1389.79 126.79L1396.78 129.35L1389.79 131.91L1387.23 138.9ZM1417.18 79L1414.62 72.01L1407.63 69.45L1414.62 66.89L1417.18 59.9L1419.74 66.89L1426.73 69.45L1419.74 72.01L1417.18 79Z" fill="#FF92AA"/>
</g>
</svg>
