<svg width="1303" height="227" viewBox="0 0 1303 227" fill="none" xmlns="http://www.w3.org/2000/svg">
<path d="M15.5977 178.054L11.4165 166.63L0 162.446L11.4165 158.263L15.5977 146.839L19.7788 158.263L31.1953 162.446L19.7788 166.63L15.5977 178.054ZM15.5977 227L11.4165 215.576L0 211.393L11.4165 207.209L15.5977 195.785L19.7788 207.209L31.1953 211.393L19.7788 215.576L15.5977 227ZM64.5138 80.1609L60.3327 68.7374L48.9162 64.5536L60.3327 60.3699L64.5138 48.9464L68.695 60.3699L80.1115 64.5536L68.695 68.7374L64.5138 80.1609ZM64.5138 178.054L60.3327 166.63L48.9162 162.446L60.3327 158.263L64.5138 146.839L68.695 158.263L80.1115 162.446L68.695 166.63L64.5138 178.054ZM113.43 31.2145L109.249 19.791L97.8324 15.6073L109.249 11.4235L113.43 0L117.611 11.4235L129.028 15.6073L117.611 19.791L113.43 31.2145ZM113.43 80.1609L109.249 68.7374L97.8324 64.5536L109.249 60.3699L113.43 48.9464L117.611 60.3699L129.028 64.5536L117.611 68.7374L113.43 80.1609ZM113.43 178.054L109.249 166.63L97.8324 162.446L109.249 158.263L113.43 146.839L117.611 158.263L129.028 162.446L117.611 166.63L113.43 178.054ZM162.346 80.1609L158.165 68.7374L146.749 64.5536L158.165 60.3699L162.346 48.9464L166.527 60.3699L177.944 64.5536L166.527 68.7374L162.346 80.1609ZM162.346 178.054L158.165 166.63L146.749 162.446L158.165 158.263L162.346 146.839L166.527 158.263L177.944 162.446L166.527 166.63L162.346 178.054ZM211.262 178.054L207.081 166.63L195.665 162.446L207.081 158.263L211.262 146.839L215.444 158.263L226.86 162.446L215.444 166.63L211.262 178.054ZM211.262 227L207.081 215.576L195.665 211.393L207.081 207.209L211.262 195.785L215.444 207.209L226.86 211.393L215.444 215.576L211.262 227Z" fill="#FF92AA" fill-opacity="0.5"/>
<path d="M358.011 129.107L353.83 117.684L342.413 113.5L353.83 109.316L358.011 97.8928L362.192 109.316L373.609 113.5L362.192 117.684L358.011 129.107ZM406.927 129.107L402.746 117.684L391.33 113.5L402.746 109.316L406.927 97.8928L411.108 109.316L422.525 113.5L411.108 117.684L406.927 129.107ZM455.843 129.107L451.662 117.684L440.246 113.5L451.662 109.316L455.843 97.8928L460.025 109.316L471.441 113.5L460.025 117.684L455.843 129.107Z" fill="#FF92AA" fill-opacity="0.5"/>
<path d="M602.592 31.2145L598.411 19.791L586.994 15.6073L598.411 11.4235L602.592 0L606.773 11.4235L618.19 15.6073L606.773 19.791L602.592 31.2145ZM602.592 129.107L598.411 117.684L586.994 113.5L598.411 109.316L602.592 97.8927L606.773 109.316L618.19 113.5L606.773 117.684L602.592 129.107ZM602.592 178.054L598.411 166.63L586.994 162.446L598.411 158.263L602.592 146.839L606.773 158.263L618.19 162.446L606.773 166.63L602.592 178.054ZM602.592 227L598.411 215.576L586.994 211.393L598.411 207.209L602.592 195.785L606.773 207.209L618.19 211.393L606.773 215.576L602.592 227ZM651.508 31.2145L647.327 19.791L635.911 15.6073L647.327 11.4235L651.508 0L655.689 11.4235L667.106 15.6073L655.689 19.791L651.508 31.2145ZM651.508 129.107L647.327 117.684L635.911 113.5L647.327 109.316L651.508 97.8927L655.689 109.316L667.106 113.5L655.689 117.684L651.508 129.107ZM651.508 227L647.327 215.576L635.911 211.393L647.327 207.209L651.508 195.785L655.689 207.209L667.106 211.393L655.689 215.576L651.508 227ZM700.408 31.2145L696.227 19.791L684.81 15.6073L696.227 11.4235L700.408 0L704.589 11.4235L716.006 15.6073L704.589 19.791L700.408 31.2145ZM700.408 129.107L696.227 117.684L684.81 113.5L696.227 109.316L700.408 97.8927L704.589 109.316L716.006 113.5L704.589 117.684L700.408 129.107ZM700.408 227L696.227 215.576L684.81 211.393L696.227 207.209L700.408 195.785L704.589 207.209L716.006 211.393L704.589 215.576L700.408 227ZM749.324 31.2145L745.143 19.791L733.727 15.6073L745.143 11.4235L749.324 0L753.505 11.4235L764.922 15.6073L753.505 19.791L749.324 31.2145ZM749.324 80.1609L745.143 68.7374L733.727 64.5536L745.143 60.3699L749.324 48.9464L753.505 60.3699L764.922 64.5536L753.505 68.7374L749.324 80.1609ZM749.324 129.107L745.143 117.684L733.727 113.5L745.143 109.316L749.324 97.8927L753.505 109.316L764.922 113.5L753.505 117.684L749.324 129.107ZM749.324 227L745.143 215.576L733.727 211.393L745.143 207.209L749.324 195.785L753.505 207.209L764.922 211.393L753.505 215.576L749.324 227Z" fill="#FF92AA" fill-opacity="0.5"/>
<path d="M896.073 227L891.892 215.576L880.475 211.393L891.892 207.209L896.073 195.785L900.254 207.209L911.67 211.393L900.254 215.576L896.073 227ZM944.989 31.2145L940.808 19.791L929.391 15.6073L940.808 11.4235L944.989 0L949.17 11.4235L960.587 15.6073L949.17 19.791L944.989 31.2145ZM944.989 129.107L940.808 117.684L929.391 113.5L940.808 109.316L944.989 97.8927L949.17 109.316L960.587 113.5L949.17 117.684L944.989 129.107ZM944.989 178.054L940.808 166.63L929.391 162.446L940.808 158.263L944.989 146.839L949.17 158.263L960.587 162.446L949.17 166.63L944.989 178.054ZM944.989 227L940.808 215.576L929.391 211.393L940.808 207.209L944.989 195.785L949.17 207.209L960.587 211.393L949.17 215.576L944.989 227ZM993.905 227L989.724 215.576L978.308 211.393L989.724 207.209L993.905 195.785L998.086 207.209L1009.5 211.393L998.086 215.576L993.905 227Z" fill="#FF92AA" fill-opacity="0.5"/>
<path d="M1091.74 31.2145L1087.56 19.791L1076.14 15.6073L1087.56 11.4235L1091.74 0L1095.92 11.4235L1107.34 15.6073L1095.92 19.791L1091.74 31.2145ZM1140.65 31.2145L1136.47 19.791L1125.06 15.6073L1136.47 11.4235L1140.65 0L1144.84 11.4235L1156.25 15.6073L1144.84 19.791L1140.65 31.2145ZM1189.57 31.2145L1185.39 19.791L1173.97 15.6073L1185.39 11.4235L1189.57 0L1193.75 11.4235L1205.17 15.6073L1193.75 19.791L1189.57 31.2145ZM1189.57 129.107L1185.39 117.684L1173.97 113.5L1185.39 109.316L1189.57 97.8927L1193.75 109.316L1205.17 113.5L1193.75 117.684L1189.57 129.107ZM1189.57 178.054L1185.39 166.63L1173.97 162.446L1185.39 158.263L1189.57 146.839L1193.75 158.263L1205.17 162.446L1193.75 166.63L1189.57 178.054ZM1189.57 227L1185.39 215.576L1173.97 211.393L1185.39 207.209L1189.57 195.785L1193.75 207.209L1205.17 211.393L1193.75 215.576L1189.57 227ZM1238.49 31.2145L1234.31 19.791L1222.89 15.6073L1234.31 11.4235L1238.49 0L1242.67 11.4235L1254.08 15.6073L1242.67 19.791L1238.49 31.2145ZM1287.4 31.2145L1283.22 19.791L1271.8 15.6073L1283.22 11.4235L1287.4 0L1291.58 11.4235L1303 15.6073L1291.58 19.791L1287.4 31.2145Z" fill="#FF92AA" fill-opacity="0.5"/>
</svg>
