<svg width="391" height="133" viewBox="0 0 391 133" fill="none" xmlns="http://www.w3.org/2000/svg">
<rect x="30" y="30" width="331" height="73" fill="#877E87"/>
<path d="M88.644 82.387H84.676V54.518H88.644V64.996H92.457V68.406H88.644V82.387ZM66.169 69.367C66.138 68.716 66.107 67.817 66.107 67.104C66.107 66.329 66.138 65.554 66.169 64.841C66.603 60.16 69.114 55.913 73.795 55.913C78.476 55.913 80.987 60.16 81.421 64.841C81.452 65.492 81.452 66.422 81.452 67.104C81.452 67.879 81.452 68.685 81.421 69.367C80.987 74.048 78.476 78.295 73.795 78.295C69.114 78.295 66.603 74.048 66.169 69.367ZM73.795 75.009C75.81 75.009 77.205 72.994 77.453 69.367C77.484 68.747 77.484 67.786 77.484 67.104C77.484 66.329 77.484 65.554 77.453 64.841C77.205 61.214 75.81 59.199 73.795 59.199C70.292 59.199 70.075 64.469 70.075 67.104C70.075 69.739 70.292 75.009 73.795 75.009ZM95.9152 78.853L93.4662 76.187C97.6822 74.017 100.782 71.041 102.673 67.631C101.154 67.724 99.5732 67.755 98.1162 67.755H94.3342V64.562H98.0232C99.9142 64.562 102.084 64.5 104.099 64.314C104.502 62.95 104.719 61.524 104.781 60.067H95.1402V56.843H108.873C108.873 57.184 108.904 57.556 108.904 57.897C108.904 68.158 103.169 74.854 95.9152 78.853ZM116.344 82.387H112.376V54.518H116.344V65.151H120.157V68.561H116.344V82.387ZM144.974 82.387H141.006V54.518H144.974V82.387ZM121.879 69.367C121.848 68.716 121.817 67.817 121.817 67.104C121.817 66.329 121.848 65.554 121.879 64.841C122.313 60.16 124.917 55.913 129.598 55.913C134.279 55.913 136.883 60.16 137.317 64.841C137.348 65.492 137.348 66.422 137.348 67.104C137.348 67.879 137.348 68.685 137.317 69.367C136.883 74.048 134.279 78.295 129.598 78.295C124.917 78.295 122.313 74.048 121.879 69.367ZM129.598 75.009C131.613 75.009 133.101 72.994 133.349 69.367C133.38 68.747 133.38 67.786 133.38 67.104C133.38 66.329 133.38 65.554 133.349 64.841C133.101 61.214 131.613 59.199 129.598 59.199C127.583 59.199 126.095 61.214 125.847 64.841C125.816 65.492 125.785 66.391 125.785 67.104C125.785 67.879 125.816 68.685 125.847 69.367C126.095 72.994 127.583 75.009 129.598 75.009ZM164.77 69.181H150.417V55.293H154.385V59.199H160.802V55.293H164.77V69.181ZM160.802 65.957V62.361H154.385V65.957H160.802ZM172.985 71.134H169.017V54.518H172.985V71.134ZM173.481 76.931C173.481 82.17 167.219 82.697 163.22 82.697C159.221 82.697 152.959 82.17 152.959 76.931C152.959 71.413 159.066 71.165 163.22 71.165C167.374 71.165 173.481 71.413 173.481 76.931ZM165.111 74.358H161.329C158.105 74.482 156.927 75.474 156.927 76.931C156.927 78.388 158.105 79.38 161.329 79.504C161.887 79.535 162.569 79.535 163.22 79.535C163.871 79.535 164.522 79.535 165.111 79.504C168.335 79.38 169.513 78.388 169.513 76.931C169.513 75.474 168.335 74.482 165.111 74.358ZM197.991 73.304V76.559C194.922 76.869 190.861 76.993 188.505 76.993H182.832V73.707H185.374L185.312 60.222H183.266V56.967H197.216V60.222H194.984L194.86 73.521C195.945 73.459 196.999 73.397 197.991 73.304ZM202.672 81.24H198.828V68.065H195.821V64.717H198.828V54.828H202.672V81.24ZM207.725 82.387H203.819V54.518H207.725V82.387ZM191.047 73.676L191.14 60.222H189.156C189.156 64.717 189.187 69.212 189.218 73.707C189.776 73.707 190.396 73.707 191.047 73.676ZM234.402 82.387H230.434V54.518H234.402V82.387ZM211.307 69.367C211.276 68.716 211.245 67.817 211.245 67.104C211.245 66.329 211.276 65.554 211.307 64.841C211.741 60.16 214.345 55.913 219.026 55.913C223.707 55.913 226.311 60.16 226.745 64.841C226.776 65.492 226.776 66.422 226.776 67.104C226.776 67.879 226.776 68.685 226.745 69.367C226.311 74.048 223.707 78.295 219.026 78.295C214.345 78.295 211.741 74.048 211.307 69.367ZM219.026 75.009C221.041 75.009 222.529 72.994 222.777 69.367C222.808 68.747 222.808 67.786 222.808 67.104C222.808 66.329 222.808 65.554 222.777 64.841C222.529 61.214 221.041 59.199 219.026 59.199C217.011 59.199 215.523 61.214 215.275 64.841C215.244 65.492 215.213 66.391 215.213 67.104C215.213 67.879 215.244 68.685 215.275 69.367C215.523 72.994 217.011 75.009 219.026 75.009ZM257.018 74.699L254.817 77.551C251.562 75.66 248.803 73.149 247.346 70.235C246.044 73.087 243.068 76.125 239.596 78.295L237.054 75.629C241.611 73.025 245.176 68.313 245.176 62.516V60.129H239.193V56.843H255.251V60.129H249.268V62.578C249.268 68.096 252.833 72.498 257.018 74.699ZM262.102 82.387H258.134V54.518H262.102V82.387ZM274.616 78.791L272.136 76.125C278.987 72.467 282.924 66.391 283.451 60.129H273.81V56.843H287.605C287.667 67.445 281.746 74.668 274.616 78.791ZM295.2 82.387H291.232V54.518H295.2V65.151H299.013V68.561H295.2V82.387ZM323.83 82.387H319.862V54.518H323.83V82.387ZM302.595 78.791L300.146 76.125C306.997 72.436 311.12 66.36 311.647 60.129H301.82V56.843H315.801C315.863 67.414 309.818 74.637 302.595 78.791Z" fill="#E6EDEA"/>
<g filter="url(#filter0_d_1165_58)">
<rect x="30" y="30" width="331" height="73" fill="#877E87"/>
<path d="M64.3159 71.774C63.8219 71.124 63.4969 70.422 63.3409 69.668C63.2109 68.888 63.2629 68.095 63.4969 67.289C63.7309 66.483 64.1729 65.69 64.8229 64.91C65.4729 64.104 66.3439 63.324 67.4359 62.57C68.3979 61.894 69.3469 61.452 70.2829 61.244C71.2189 61.01 72.1029 60.958 72.9349 61.088C73.7669 61.218 74.5339 61.517 75.2359 61.985C75.9379 62.453 76.5489 63.038 77.0689 63.74C77.6149 64.494 77.9399 65.287 78.0439 66.119C78.1739 66.925 78.0959 67.731 77.8099 68.537C77.5239 69.343 77.0559 70.123 76.4059 70.877C75.7559 71.631 74.9369 72.32 73.9489 72.944C72.0509 74.14 70.2439 74.621 68.5279 74.387C66.8119 74.127 65.4079 73.256 64.3159 71.774ZM86.8969 50.909C87.3649 50.571 87.7419 50.48 88.0279 50.636C88.3139 50.766 88.4569 51.156 88.4569 51.806V66.197C88.9249 65.859 89.3019 65.69 89.5879 65.69H93.7609C94.2809 65.69 94.5409 65.82 94.5409 66.08C94.5409 66.314 94.2939 66.587 93.7999 66.899C93.4359 67.133 93.0849 67.38 92.7469 67.64C92.4349 67.9 92.1359 68.173 91.8499 68.459C91.4859 68.823 90.8359 69.005 89.8999 69.005H88.4569V75.284C88.4569 75.882 88.3009 76.337 87.9889 76.649C87.7549 76.883 87.3649 77.234 86.8189 77.702C86.2729 78.196 85.7399 78.638 85.2199 79.028C84.8819 79.288 84.5439 79.34 84.2059 79.184C83.8939 79.054 83.7379 78.742 83.7379 78.248V56.174C83.7379 55.862 83.6469 55.68 83.4649 55.628C83.3089 55.576 83.0489 55.68 82.6849 55.94C82.4509 56.122 82.2039 56.213 81.9439 56.213C81.6839 56.213 81.4889 56.122 81.3589 55.94C81.2029 55.732 81.1639 55.498 81.2419 55.238C81.3459 54.978 81.5409 54.744 81.8269 54.536L86.8969 50.909ZM68.2939 69.356C68.6839 69.824 69.1389 70.201 69.6589 70.487C70.1789 70.773 70.6859 70.981 71.1799 71.111C71.6999 71.241 72.1679 71.306 72.5839 71.306C72.9999 71.28 73.2859 71.202 73.4419 71.072C73.5979 70.968 73.7409 70.734 73.8709 70.37C74.0009 70.006 74.0659 69.577 74.0659 69.083C74.0919 68.563 74.0269 68.03 73.8709 67.484C73.7149 66.912 73.4419 66.379 73.0519 65.885C72.6359 65.417 72.1549 65.04 71.6089 64.754C71.0629 64.442 70.5169 64.221 69.9709 64.091C69.4509 63.961 68.9699 63.896 68.5279 63.896C68.0859 63.896 67.7869 63.948 67.6309 64.052C67.4749 64.182 67.3449 64.442 67.2409 64.832C67.1369 65.196 67.0979 65.638 67.1239 66.158C67.1499 66.652 67.2539 67.185 67.4359 67.757C67.6179 68.329 67.9039 68.862 68.2939 69.356ZM122.012 50.909C122.48 50.571 122.857 50.48 123.143 50.636C123.429 50.766 123.572 51.156 123.572 51.806V66.197C124.04 65.859 124.417 65.69 124.703 65.69H128.876C129.396 65.69 129.656 65.82 129.656 66.08C129.656 66.314 129.409 66.587 128.915 66.899C128.551 67.133 128.2 67.38 127.862 67.64C127.55 67.9 127.251 68.173 126.965 68.459C126.601 68.823 125.951 69.005 125.015 69.005H123.572V75.284C123.572 75.882 123.416 76.337 123.104 76.649C122.87 76.883 122.48 77.234 121.934 77.702C121.388 78.196 120.855 78.638 120.335 79.028C119.997 79.288 119.659 79.34 119.321 79.184C119.009 79.054 118.853 78.742 118.853 78.248V56.174C118.853 55.862 118.762 55.68 118.58 55.628C118.424 55.576 118.164 55.68 117.8 55.94C117.566 56.122 117.319 56.213 117.059 56.213C116.799 56.213 116.604 56.122 116.474 55.94C116.318 55.732 116.279 55.498 116.357 55.238C116.461 54.978 116.656 54.744 116.942 54.536L122.012 50.909ZM107.816 66.626H107.855C107.855 65.976 107.816 65.508 107.738 65.222C107.608 64.754 107.387 64.403 107.075 64.169C106.789 63.935 106.464 63.831 106.1 63.857C105.606 63.883 105.125 63.909 104.657 63.935C104.215 63.961 103.617 63.987 102.863 64.013C102.473 64.013 102.044 64.013 101.576 64.013C101.108 64.013 100.653 64 100.211 63.974C99.7691 63.948 99.3531 63.909 98.9631 63.857C98.5731 63.779 98.2481 63.701 97.9881 63.623C97.6241 63.493 97.4681 63.298 97.5201 63.038C97.5981 62.752 97.8971 62.466 98.4171 62.18C98.7031 62.024 99.0151 61.829 99.3531 61.595C99.7171 61.361 100.029 61.14 100.289 60.932C100.575 60.724 100.848 60.594 101.108 60.542C101.394 60.464 101.784 60.451 102.278 60.503C102.72 60.555 103.188 60.594 103.682 60.62C104.176 60.646 104.839 60.646 105.671 60.62C106.191 60.594 106.724 60.555 107.27 60.503C107.842 60.451 108.648 60.399 109.688 60.347C110.156 60.321 110.572 60.399 110.936 60.581C111.3 60.737 111.586 61.023 111.794 61.439C112.002 61.881 112.158 62.401 112.262 62.999C112.392 63.597 112.444 64.247 112.418 64.949C112.418 65.625 112.34 66.327 112.184 67.055C112.054 67.757 111.859 68.459 111.599 69.161C111.391 69.655 111.092 70.201 110.702 70.799C110.312 71.397 109.87 71.982 109.376 72.554C108.882 73.126 108.375 73.659 107.855 74.153C107.335 74.647 106.854 75.024 106.412 75.284C106.048 75.492 105.697 75.609 105.359 75.635C105.047 75.661 104.839 75.609 104.735 75.479C104.605 75.271 104.579 75.024 104.657 74.738C104.761 74.426 104.891 74.166 105.047 73.958C105.333 73.568 105.58 73.204 105.788 72.866C106.022 72.528 106.23 72.203 106.412 71.891C106.594 71.553 106.763 71.215 106.919 70.877C107.101 70.513 107.27 70.097 107.426 69.629C107.504 69.421 107.569 69.174 107.621 68.888C107.673 68.576 107.725 68.251 107.777 67.913C107.413 68.121 107.075 68.355 106.763 68.615C106.451 68.875 106.165 69.135 105.905 69.395C105.541 69.759 104.891 69.941 103.955 69.941H98.3001C98.0661 69.941 97.8711 69.902 97.7151 69.824C97.5591 69.746 97.4811 69.642 97.4811 69.512C97.4811 69.382 97.5851 69.252 97.7931 69.122C98.0011 68.966 98.2091 68.823 98.4171 68.693C98.6251 68.563 98.8851 68.368 99.1971 68.108C99.5091 67.848 99.8081 67.588 100.094 67.328C100.588 66.86 101.381 66.626 102.473 66.626H107.816ZM134.546 71.774C134.052 71.124 133.727 70.422 133.571 69.668C133.441 68.888 133.493 68.095 133.727 67.289C133.961 66.483 134.403 65.69 135.053 64.91C135.703 64.104 136.574 63.324 137.666 62.57C138.628 61.894 139.577 61.452 140.513 61.244C141.449 61.01 142.333 60.958 143.165 61.088C143.997 61.218 144.764 61.517 145.466 61.985C146.168 62.453 146.779 63.038 147.299 63.74C147.845 64.494 148.17 65.287 148.274 66.119C148.404 66.925 148.326 67.731 148.04 68.537C147.754 69.343 147.286 70.123 146.636 70.877C145.986 71.631 145.167 72.32 144.179 72.944C142.281 74.14 140.474 74.621 138.758 74.387C137.042 74.127 135.638 73.256 134.546 71.774ZM158.492 50.909C158.96 50.571 159.337 50.48 159.623 50.636C159.909 50.766 160.052 51.156 160.052 51.806V75.284C160.052 75.882 159.896 76.337 159.584 76.649C159.35 76.883 158.96 77.234 158.414 77.702C157.868 78.196 157.335 78.638 156.815 79.028C156.477 79.288 156.139 79.34 155.801 79.184C155.489 79.054 155.333 78.742 155.333 78.248V56.174C155.333 55.862 155.242 55.68 155.06 55.628C154.904 55.576 154.644 55.68 154.28 55.94C154.046 56.122 153.799 56.213 153.539 56.213C153.279 56.213 153.084 56.122 152.954 55.94C152.798 55.732 152.759 55.498 152.837 55.238C152.941 54.978 153.136 54.744 153.422 54.536L158.492 50.909ZM138.524 69.356C138.914 69.824 139.369 70.201 139.889 70.487C140.409 70.773 140.916 70.981 141.41 71.111C141.93 71.241 142.398 71.306 142.814 71.306C143.23 71.28 143.516 71.202 143.672 71.072C143.828 70.968 143.971 70.734 144.101 70.37C144.231 70.006 144.296 69.577 144.296 69.083C144.322 68.563 144.257 68.03 144.101 67.484C143.945 66.912 143.672 66.379 143.282 65.885C142.866 65.417 142.385 65.04 141.839 64.754C141.293 64.442 140.747 64.221 140.201 64.091C139.681 63.961 139.2 63.896 138.758 63.896C138.316 63.896 138.017 63.948 137.861 64.052C137.705 64.182 137.575 64.442 137.471 64.832C137.367 65.196 137.328 65.638 137.354 66.158C137.38 66.652 137.484 67.185 137.666 67.757C137.848 68.329 138.134 68.862 138.524 69.356ZM179.108 58.826C179.576 58.488 179.953 58.397 180.239 58.553C180.525 58.683 180.668 59.073 180.668 59.723C180.668 59.879 180.668 60.204 180.668 60.698C180.668 61.192 180.668 61.764 180.668 62.414C180.668 63.038 180.655 63.714 180.629 64.442C180.629 65.144 180.629 65.807 180.629 66.431C180.629 67.029 180.629 67.549 180.629 67.991C180.629 68.407 180.629 68.654 180.629 68.732C180.629 69.33 180.473 69.785 180.161 70.097C179.953 70.305 179.602 70.63 179.108 71.072C178.614 71.514 178.12 71.917 177.626 72.281H180.512C180.642 72.281 180.798 72.294 180.98 72.32C181.188 72.346 181.331 72.398 181.409 72.476C181.461 72.528 181.487 72.606 181.487 72.71C181.513 72.814 181.461 72.931 181.331 73.061C181.253 73.139 181.097 73.282 180.863 73.49C180.629 73.672 180.369 73.88 180.083 74.114C179.823 74.322 179.563 74.517 179.303 74.699C179.069 74.881 178.9 74.998 178.796 75.05C178.588 75.18 178.393 75.271 178.211 75.323C178.055 75.375 177.795 75.401 177.431 75.401H167.876H167.837L167.525 75.635C167.187 75.895 166.849 75.96 166.511 75.83C166.199 75.674 166.043 75.349 166.043 74.855V64.481C166.043 64.169 165.952 63.987 165.77 63.935C165.614 63.883 165.354 63.987 164.99 64.247C164.756 64.429 164.509 64.52 164.249 64.52C163.989 64.52 163.794 64.429 163.664 64.247C163.508 64.039 163.469 63.805 163.547 63.545C163.651 63.285 163.846 63.051 164.132 62.843L169.202 59.216C169.67 58.878 170.047 58.787 170.333 58.943C170.619 59.073 170.762 59.463 170.762 60.113V66.704H175.949V64.091C175.949 63.779 175.858 63.597 175.676 63.545C175.52 63.493 175.26 63.597 174.896 63.857C174.662 64.039 174.415 64.13 174.155 64.13C173.895 64.13 173.7 64.039 173.57 63.857C173.414 63.649 173.375 63.415 173.453 63.155C173.557 62.895 173.752 62.661 174.038 62.453L179.108 58.826ZM179.42 81.251C180.356 80.289 181.435 79.509 182.657 78.911C183.879 78.313 185.01 78.001 186.05 77.975C187.09 77.923 188.052 78.157 188.936 78.677C189.846 79.197 190.613 79.873 191.237 80.705C191.939 81.667 192.251 82.759 192.173 83.981C192.095 85.203 191.653 86.295 190.847 87.257C189.313 89.129 187.402 90.364 185.114 90.962C184.568 91.118 183.97 91.17 183.32 91.118C182.696 91.066 182.085 90.923 181.487 90.689C180.889 90.455 180.317 90.143 179.771 89.753C179.251 89.363 178.796 88.895 178.406 88.349C178.016 87.803 177.756 87.218 177.626 86.594C177.522 85.97 177.522 85.346 177.626 84.722C177.73 84.098 177.938 83.487 178.25 82.889C178.562 82.291 178.952 81.745 179.42 81.251ZM191.588 56.135C192.056 55.797 192.433 55.706 192.719 55.862C193.005 55.992 193.148 56.382 193.148 57.032V71.852C193.148 72.45 192.992 72.905 192.68 73.217C192.446 73.451 192.056 73.815 191.51 74.309C190.964 74.777 190.431 75.206 189.911 75.596C189.573 75.856 189.235 75.921 188.897 75.791C188.585 75.635 188.429 75.31 188.429 74.816V61.4C188.429 61.088 188.338 60.906 188.156 60.854C188 60.802 187.74 60.906 187.376 61.166C187.142 61.348 186.895 61.439 186.635 61.439C186.375 61.439 186.18 61.348 186.05 61.166C185.894 60.958 185.855 60.724 185.933 60.464C186.037 60.204 186.232 59.97 186.518 59.762L191.588 56.135ZM187.103 82.343C186.843 82.031 186.492 81.719 186.05 81.407C185.634 81.095 185.179 80.861 184.685 80.705C184.217 80.549 183.736 80.484 183.242 80.51C182.748 80.536 182.306 80.718 181.916 81.056C181.552 81.368 181.331 81.758 181.253 82.226C181.201 82.694 181.227 83.175 181.331 83.669C181.461 84.189 181.643 84.683 181.877 85.151C182.137 85.619 182.41 86.009 182.696 86.321C183.086 86.737 183.515 87.088 183.983 87.374C184.477 87.66 184.958 87.855 185.426 87.959C185.92 88.089 186.375 88.115 186.791 88.037C187.233 87.985 187.597 87.816 187.883 87.53C188.169 87.27 188.351 86.932 188.429 86.516C188.533 86.1 188.546 85.645 188.468 85.151C188.39 84.683 188.234 84.202 188 83.708C187.766 83.24 187.467 82.785 187.103 82.343ZM170.762 71.891C170.762 72.073 170.749 72.216 170.723 72.32C170.827 72.294 170.957 72.281 171.113 72.281H176.027C175.949 72.125 175.91 71.93 175.91 71.696V68.693C175.39 69.109 175.039 69.369 174.857 69.473C174.649 69.603 174.454 69.694 174.272 69.746C174.116 69.798 173.856 69.824 173.492 69.824H170.762V71.891ZM218.63 71.168V74.003C215.957 74.273 212.42 74.381 210.368 74.381H205.427V71.519H207.641L207.587 59.774H205.805V56.939H217.955V59.774H216.011L215.903 71.357C216.848 71.303 217.766 71.249 218.63 71.168ZM222.707 78.08H219.359V66.605H216.74V63.689H219.359V55.076H222.707V78.08ZM227.108 79.079H223.706V54.806H227.108V79.079ZM212.582 71.492L212.663 59.774H210.935C210.935 63.689 210.962 67.604 210.989 71.519C211.475 71.519 212.015 71.519 212.582 71.492ZM250.343 79.079H246.887V54.806H250.343V79.079ZM230.228 67.739C230.201 67.172 230.174 66.389 230.174 65.768C230.174 65.093 230.201 64.418 230.228 63.797C230.606 59.72 232.874 56.021 236.951 56.021C241.028 56.021 243.296 59.72 243.674 63.797C243.701 64.364 243.701 65.174 243.701 65.768C243.701 66.443 243.701 67.145 243.674 67.739C243.296 71.816 241.028 75.515 236.951 75.515C232.874 75.515 230.606 71.816 230.228 67.739ZM236.951 72.653C238.706 72.653 240.002 70.898 240.218 67.739C240.245 67.199 240.245 66.362 240.245 65.768C240.245 65.093 240.245 64.418 240.218 63.797C240.002 60.638 238.706 58.883 236.951 58.883C235.196 58.883 233.9 60.638 233.684 63.797C233.657 64.364 233.63 65.147 233.63 65.768C233.63 66.443 233.657 67.145 233.684 67.739C233.9 70.898 235.196 72.653 236.951 72.653ZM270.041 72.383L268.124 74.867C265.289 73.22 262.886 71.033 261.617 68.495C260.483 70.979 257.891 73.625 254.867 75.515L252.653 73.193C256.622 70.925 259.727 66.821 259.727 61.772V59.693H254.516V56.831H268.502V59.693H263.291V61.826C263.291 66.632 266.396 70.466 270.041 72.383ZM274.469 79.079H271.013V54.806H274.469V79.079ZM285.368 75.947L283.208 73.625C289.175 70.439 292.604 65.147 293.063 59.693H284.666V56.831H296.681C296.735 66.065 291.578 72.356 285.368 75.947ZM303.296 79.079H299.84V54.806H303.296V64.067H306.617V67.037H303.296V79.079ZM328.232 79.079H324.776V54.806H328.232V79.079ZM309.737 75.947L307.604 73.625C313.571 70.412 317.162 65.12 317.621 59.693H309.062V56.831H321.239C321.293 66.038 316.028 72.329 309.737 75.947Z" fill="#E6EDEA"/>
</g>
<defs>
<filter id="filter0_d_1165_58" x="0" y="0" width="391" height="133" filterUnits="userSpaceOnUse" color-interpolation-filters="sRGB">
<feFlood flood-opacity="0" result="BackgroundImageFix"/>
<feColorMatrix in="SourceAlpha" type="matrix" values="0 0 0 0 0 0 0 0 0 0 0 0 0 0 0 0 0 0 127 0" result="hardAlpha"/>
<feOffset/>
<feGaussianBlur stdDeviation="15"/>
<feComposite in2="hardAlpha" operator="out"/>
<feColorMatrix type="matrix" values="0 0 0 0 0 0 0 0 0 0 0 0 0 0 0 0 0 0 0.25 0"/>
<feBlend mode="normal" in2="BackgroundImageFix" result="effect1_dropShadow_1165_58"/>
<feBlend mode="normal" in="SourceGraphic" in2="effect1_dropShadow_1165_58" result="shape"/>
</filter>
</defs>
</svg>
