<svg width="644" height="233" viewBox="0 0 644 233" fill="none" xmlns="http://www.w3.org/2000/svg">
<path d="M149.473 16.362H147.169V8.22595H144.829C144.829 8.42395 144.811 8.62195 144.811 8.80195C144.577 11.52 143.155 13.986 140.437 13.986C137.719 13.986 136.297 11.52 136.063 8.80195C136.045 8.42395 136.027 7.90195 136.027 7.48795C136.027 7.03795 136.045 6.58795 136.063 6.17395C136.297 3.45595 137.719 0.989952 140.437 0.989952C143.155 0.989952 144.577 3.45595 144.811 6.17395V6.28195H147.169V0.179952H149.473V16.362ZM140.437 12.078C141.607 12.078 142.363 10.908 142.507 8.80195C142.525 8.44195 142.525 7.88395 142.525 7.48795C142.525 7.03795 142.525 6.58795 142.507 6.17395C142.363 4.06795 141.607 2.89795 140.437 2.89795C138.439 2.89795 138.331 5.97595 138.331 7.48795C138.331 8.99995 138.439 12.078 140.437 12.078ZM165.737 12.204H163.433V0.179952H165.737V12.204ZM166.097 16.092H154.595V10.764H156.935V14.238H166.097V16.092ZM162.929 7.34395V9.17995C161.093 9.52195 158.663 9.59395 156.305 9.59395H152.633V4.19395H158.663V2.55595H152.633V0.701951H160.967V6.01195H154.937V7.72195H156.305C158.519 7.72195 160.697 7.68595 162.929 7.34395ZM185.315 16.362H183.011V0.179952H185.315V16.362ZM182.255 11.826L180.977 13.482C179.123 12.438 177.503 10.854 176.567 9.17995C175.775 10.872 174.047 12.618 171.995 13.914L170.519 12.348C173.165 10.8 175.307 8.13595 175.307 4.75195V1.16995H177.683V4.78795C177.683 7.99195 179.825 10.548 182.255 11.826ZM201.903 16.182H190.365V11.736H199.239V10.854H190.365V9.05395H201.543V13.428H192.669V14.364H201.903V16.182ZM198.177 6.37195L197.061 8.09995C195.351 7.50595 193.767 6.51595 192.867 5.27395C192.111 6.53395 190.419 7.81195 188.457 8.62195L187.125 7.03795C189.645 6.08395 191.391 4.33795 191.589 2.60995H188.169V0.809951H197.421V2.60995H194.001C194.217 4.21195 195.981 5.72395 198.177 6.37195ZM201.579 8.40595H199.275V5.21995H196.611V3.34795H199.275V0.179952H201.579V8.40595ZM215.161 11.376V13.248C213.397 13.572 211.075 13.662 208.771 13.662H204.037V11.754H208.771C210.967 11.754 213.433 11.664 215.161 11.376ZM217.843 16.362H215.539V0.179952H217.843V16.362ZM214.081 5.34595C214.081 7.68595 212.191 9.77395 209.419 9.77395C206.647 9.77395 204.757 7.68595 204.757 5.34595C204.757 3.00595 206.647 0.917952 209.419 0.917952C212.191 0.917952 214.081 3.00595 214.081 5.34595ZM209.419 7.86595C210.985 7.86595 211.777 6.64195 211.777 5.34595C211.777 4.04995 210.985 2.82595 209.419 2.82595C207.853 2.82595 207.061 4.04995 207.061 5.34595C207.061 6.64195 207.853 7.86595 209.419 7.86595ZM238.141 7.28995L236.953 9.01795C234.685 8.63995 232.327 7.70395 231.049 6.33595C229.753 7.64995 227.377 8.63995 225.145 9.01795L223.957 7.28995C226.549 6.82195 228.709 5.84995 229.519 4.69795H224.911V2.78995H237.151V4.69795H232.561C233.389 5.84995 235.531 6.82195 238.141 7.28995ZM238.753 11.61H232.219V16.362H229.843V11.61H223.309V9.70195H238.753V11.61ZM234.775 1.97995H227.287V0.0719509H234.775V1.97995ZM253.505 9.59395H251.201V5.43595H248.843C248.447 7.36195 246.719 8.80195 244.397 8.80195C241.751 8.80195 239.861 6.92995 239.861 4.60795C239.861 2.28595 241.751 0.413952 244.397 0.413952C246.611 0.413952 248.303 1.72795 248.789 3.52795H251.201V0.179952H253.505V9.59395ZM253.469 16.452H251.165V12.114H241.931V10.242H253.469V16.452ZM244.397 6.92995C245.783 6.92995 246.629 5.88595 246.629 4.60795C246.629 3.32995 245.783 2.28595 244.397 2.28595C243.011 2.28595 242.165 3.32995 242.165 4.60795C242.165 5.88595 243.011 6.92995 244.397 6.92995ZM270.921 8.45995H255.477V6.65995H270.921V8.45995ZM269.355 16.182H257.403V11.934H266.691V11.16H257.403V9.39595H268.995V13.59H259.707V14.4H269.355V16.182ZM269.103 2.95195C269.103 5.75995 265.287 5.90395 263.199 5.90395C261.111 5.90395 257.295 5.75995 257.295 2.95195C257.295 0.0899518 261.075 -4.81606e-05 263.199 -4.81606e-05C265.323 -4.81606e-05 269.103 0.0899518 269.103 2.95195ZM264.189 1.81795H262.209C260.175 1.88995 259.671 2.30395 259.671 2.95195C259.671 3.59995 260.031 4.03195 262.209 4.08595C262.533 4.10395 262.875 4.10395 263.199 4.10395C263.523 4.10395 263.847 4.10395 264.189 4.08595C266.223 4.01395 266.727 3.59995 266.727 2.95195C266.727 2.30395 266.223 1.88995 264.189 1.81795ZM289.094 13.104C289.094 16.182 285.584 16.542 283.226 16.542C280.868 16.542 277.358 16.182 277.358 13.104C277.358 9.84595 280.742 9.66595 283.226 9.66595C285.71 9.66595 289.094 9.84595 289.094 13.104ZM286.088 5.99395V7.84795C284.252 8.18995 281.822 8.26195 279.464 8.26195H276.134V0.809951H284.468V2.68195H278.438V6.37195H279.464C281.678 6.37195 283.856 6.33595 286.088 5.99395ZM288.806 9.64795H286.502V0.179952H288.806V3.47395H290.84V5.41795H288.806V9.64795ZM284.324 11.556H282.128C280.256 11.628 279.662 12.258 279.662 13.104C279.662 13.95 280.256 14.58 282.128 14.652C282.452 14.67 282.848 14.67 283.226 14.67C283.604 14.67 283.982 14.67 284.324 14.652C286.196 14.58 286.79 13.95 286.79 13.104C286.79 12.258 286.196 11.628 284.324 11.556ZM305.43 11.844H303.126V0.179952H305.43V11.844ZM305.79 16.092H294.288V10.404H296.628V14.22H305.79V16.092ZM301.92 7.54195L300.75 9.23395C299.04 8.51395 297.402 7.27195 296.556 5.90395C295.908 7.30795 294.198 8.74795 292.164 9.71995L290.796 8.15395C293.46 7.00195 295.314 4.84195 295.314 2.30395V0.449951H297.69V2.30395C297.69 4.66195 299.58 6.60595 301.92 7.54195ZM316.456 8.69395H308.23V0.809951H316.456V8.69395ZM320.974 11.844H318.67V0.179952H320.974V3.65395H323.008V5.59795H320.974V11.844ZM321.514 16.092H310.012V10.404H312.352V14.22H321.514V16.092ZM314.152 6.82195V2.68195H310.534V6.82195H314.152ZM335.096 11.376V13.248C333.332 13.572 331.01 13.662 328.706 13.662H323.972V11.754H328.706C330.902 11.754 333.368 11.664 335.096 11.376ZM337.778 16.362H335.474V0.179952H337.778V16.362ZM334.016 5.34595C334.016 7.68595 332.126 9.77395 329.354 9.77395C326.582 9.77395 324.692 7.68595 324.692 5.34595C324.692 3.00595 326.582 0.917952 329.354 0.917952C332.126 0.917952 334.016 3.00595 334.016 5.34595ZM329.354 7.86595C330.92 7.86595 331.712 6.64195 331.712 5.34595C331.712 4.04995 330.92 2.82595 329.354 2.82595C327.788 2.82595 326.996 4.04995 326.996 5.34595C326.996 6.64195 327.788 7.86595 329.354 7.86595ZM358.184 8.44195L356.978 10.134C354.422 9.28795 352.154 7.79395 350.966 5.97595C349.76 7.79395 347.492 9.28795 344.954 10.134L343.748 8.44195C347.042 7.45195 349.796 5.07595 349.796 2.53795V0.881951H352.136V2.53795C352.136 5.07595 354.89 7.45195 358.184 8.44195ZM358.688 14.94H343.244V13.032H349.76V9.57595H352.172V13.032H358.688V14.94ZM373.26 16.362H370.956V0.179952H373.26V16.362ZM370.452 10.998V12.87C368.346 13.284 365.934 13.374 363.702 13.374H360.336V6.08395H366.258V3.23995H360.336V1.34995H368.562V7.95595H362.64V11.466H363.702C365.898 11.466 368.202 11.376 370.452 10.998ZM390.856 14.94H375.412V13.032H382.018V10.764H377.374V4.93195H386.5V3.02395H377.374V1.13395H388.804V6.80395H379.678V8.85595H389.164V10.764H384.43V13.032H390.856V14.94ZM404.224 8.69395H395.998V0.809951H404.224V8.69395ZM408.742 11.844H406.438V0.179952H408.742V3.65395H410.776V5.59795H408.742V11.844ZM409.282 16.092H397.78V10.404H400.12V14.22H409.282V16.092ZM401.92 6.82195V2.68195H398.302V6.82195H401.92ZM426.698 8.42395H411.254V6.62395H426.698V8.42395ZM425.132 16.182H413.18V11.934H422.468V11.16H413.18V9.39595H424.772V13.59H415.484V14.4H425.132V16.182ZM424.952 5.72395H413.18V0.611951H424.772V2.35795H415.484V3.95995H424.952V5.72395ZM441.27 16.362H438.966V8.22595H436.626C436.626 8.42395 436.608 8.62195 436.608 8.80195C436.374 11.52 434.952 13.986 432.234 13.986C429.516 13.986 428.094 11.52 427.86 8.80195C427.842 8.42395 427.824 7.90195 427.824 7.48795C427.824 7.03795 427.842 6.58795 427.86 6.17395C428.094 3.45595 429.516 0.989952 432.234 0.989952C434.952 0.989952 436.374 3.45595 436.608 6.17395V6.28195H438.966V0.179952H441.27V16.362ZM432.234 12.078C433.404 12.078 434.16 10.908 434.304 8.80195C434.322 8.44195 434.322 7.88395 434.322 7.48795C434.322 7.03795 434.322 6.58795 434.304 6.17395C434.16 4.06795 433.404 2.89795 432.234 2.89795C430.236 2.89795 430.128 5.97595 430.128 7.48795C430.128 8.99995 430.236 12.078 432.234 12.078ZM458.866 14.76H443.422V12.852H458.866V14.76ZM457.264 9.68395H445.384V1.24195H456.994V3.13195H447.688V7.77595H457.264V9.68395ZM470.81 6.35395V8.13595C468.974 8.47795 466.544 8.54995 464.186 8.54995H460.514V3.70795H466.544V2.50195H460.514V0.701951H468.848V5.43595H462.818V6.73195H464.186C466.4 6.73195 468.578 6.69595 470.81 6.35395ZM473.618 8.72995L471.314 8.76595V0.179952H473.618V8.72995ZM473.582 16.182H462.404V9.37795H464.708V11.088H471.278V9.37795H473.582V16.182ZM471.278 14.346V12.834H464.708V14.346H471.278ZM489.522 16.362H487.218V0.179952H489.522V16.362ZM486.714 10.71V12.6C484.608 13.014 482.196 13.104 479.964 13.104H476.742V1.25995H479.046V11.178H479.964C482.16 11.178 484.464 11.088 486.714 10.71ZM505.066 16.362H502.762V0.179952H505.066V5.90395H507.28V7.88395H505.066V16.362ZM502.348 10.8V12.69C500.242 13.104 497.83 13.194 495.598 13.194H492.574V1.52995H500.836V3.43795H494.878V11.268H495.598C497.794 11.268 500.098 11.178 502.348 10.8ZM510.026 14.886C509.216 14.886 508.604 14.274 508.604 13.464C508.604 12.654 509.216 12.024 510.026 12.024C510.836 12.024 511.466 12.654 511.466 13.464C511.466 14.274 510.836 14.886 510.026 14.886ZM15.12 65.07H8.31598V70.29H6.80398V65.07H-2.29366e-05V63.774H15.12V65.07ZM10.602 55.548H4.51798V54.27H10.602V55.548ZM14.49 61.29L13.716 62.478C11.358 62.208 8.76598 61.2 7.55998 59.706C6.35398 61.2 3.76198 62.208 1.40398 62.478L0.629977 61.29C3.50998 60.966 6.38998 59.76 6.74998 58.104H1.56598V56.844H13.554V58.104H8.36998C8.72998 59.76 11.61 60.966 14.49 61.29ZM29.8 63.558H28.288V59.13H25.21C24.94 61.074 23.338 62.586 20.944 62.586C18.316 62.586 16.624 60.768 16.624 58.554C16.624 56.34 18.388 54.522 20.944 54.522C23.212 54.522 24.868 55.962 25.192 57.834H28.288V54.252H29.8V63.558ZM23.752 58.554C23.752 57.042 22.708 55.818 20.944 55.818C19.18 55.818 18.136 57.042 18.136 58.554C18.136 60.03 19.18 61.29 20.944 61.29C22.708 61.29 23.752 60.03 23.752 58.554ZM29.764 70.38H28.252V65.646H18.694V64.35H29.764V70.38ZM45.7039 70.29H44.1919V54.252H45.7039V70.29ZM36.9379 67.77C34.3459 67.77 32.9779 65.574 32.8519 62.658C32.8159 61.848 32.8159 61.02 32.8519 60.21C32.9779 57.294 34.3459 55.098 36.9379 55.098C39.5299 55.098 40.8979 57.294 41.0239 60.21C41.0599 61.02 41.0599 61.848 41.0239 62.658C40.8979 65.574 39.5299 67.77 36.9379 67.77ZM36.9379 66.474C38.5759 66.474 39.4399 64.89 39.5479 62.658C39.5839 61.848 39.5839 61.02 39.5479 60.21C39.4399 57.978 38.5759 56.394 36.9379 56.394C35.2999 56.394 34.4359 57.978 34.3279 60.21C34.2919 61.02 34.2919 61.848 34.3279 62.658C34.4359 64.89 35.2999 66.474 36.9379 66.474ZM63.6425 65.88V67.14C61.9685 67.482 59.7905 67.59 57.5045 67.59H52.5005V66.294H57.2165V62.766H53.5985V55.476H61.8965V56.772H55.1105V61.47H62.2565V62.766H58.7645V66.294C60.5465 66.258 62.3105 66.132 63.6425 65.88ZM65.8745 70.29H64.3625V54.252H65.8745V70.29ZM81.5985 70.29H80.0865V61.92H76.9365C76.9365 64.584 76.0725 67.77 72.8325 67.77C70.2405 67.77 68.8725 65.574 68.7465 62.658C68.7105 61.848 68.7105 61.02 68.7465 60.21C68.8725 57.294 70.2405 55.098 72.8325 55.098C75.8385 55.098 76.9365 58.014 76.9365 60.588H80.0865V54.252H81.5985V70.29ZM72.8325 66.474C74.4705 66.474 75.3345 64.89 75.4425 62.658C75.4785 61.848 75.4785 61.02 75.4425 60.21C75.3345 57.978 74.4705 56.394 72.8325 56.394C71.1945 56.394 70.3305 57.978 70.2225 60.21C70.1865 61.02 70.1865 61.848 70.2225 62.658C70.3305 64.89 71.1945 66.474 72.8325 66.474ZM97.6825 70.29H96.1705V61.92H92.8405V67.158H85.1905V55.458H86.7025V59.958H91.3285V55.458H92.8405V60.588H96.1705V54.252H97.6825V70.29ZM91.3285 65.862V61.236H86.7025V65.862H91.3285ZM113.946 66.15H112.434V54.252H113.946V66.15ZM114.306 70.02H103.272V64.8H104.802V68.724H114.306V70.02ZM111.444 61.83V63.09C109.626 63.36 107.016 63.378 104.73 63.378H101.31V58.41H107.7V56.088H101.31V54.81H109.212V59.652H102.822V62.082H104.73C106.962 62.082 109.518 62.064 111.444 61.83ZM133.199 70.29H131.687V54.252H133.199V60.624H135.503V61.992H133.199V70.29ZM130.967 65.88V67.14C129.293 67.482 127.133 67.59 124.847 67.59H120.203V66.294H123.425V60.516H124.937V66.294C127.079 66.294 129.347 66.186 130.967 65.88ZM128.717 64.044H127.241C127.619 62.118 127.871 58.824 127.871 56.772H120.797V55.476H129.419C129.383 58.158 129.131 61.83 128.717 64.044ZM149.661 70.29H148.149V62.28H144.747V60.948H148.149V54.252H149.661V70.29ZM137.493 68.094L136.521 67.05C140.589 64.674 142.983 60.822 143.271 56.934H137.349V55.638H144.891C144.855 61.434 141.453 65.718 137.493 68.094ZM167.329 63.342H152.209V62.064H167.329V63.342ZM165.871 70.02H154.207V64.962H155.737V68.724H165.871V70.02ZM165.601 60.084H154.207V54.45H155.719V58.806H165.601V60.084ZM181.326 61.524C181.326 63.108 179.724 64.35 177.294 64.35C174.864 64.35 173.262 63.108 173.262 61.524C173.262 59.94 174.864 58.698 177.294 58.698C179.724 58.698 181.326 59.94 181.326 61.524ZM185.844 66.24H184.332V63.198H181.794V61.938H184.332V59.958H181.794V58.698H184.332V54.252H185.844V66.24ZM186.384 70.02H175.17V65.43H176.7V68.724H186.384V70.02ZM179.814 61.524C179.814 60.552 178.914 59.886 177.294 59.886C175.674 59.886 174.774 60.552 174.774 61.524C174.774 62.496 175.674 63.162 177.294 63.162C178.914 63.162 179.814 62.496 179.814 61.524ZM182.064 57.906H172.524V56.646H182.064V57.906ZM179.868 55.458H174.702V54.234H179.868V55.458ZM202.143 70.11H191.073V65.898H200.271V64.278H191.073V63.018H201.783V67.122H192.585V68.832H202.143V70.11ZM201.819 62.226H200.307V54.252H201.819V62.226ZM198.345 60.534L197.571 61.704C195.825 61.146 193.989 59.814 193.161 58.338C192.477 59.85 190.605 61.326 188.625 62.208L187.689 61.092C190.209 60.066 192.333 58.05 192.333 55.89V54.558H193.917V55.872C193.917 57.978 196.077 59.85 198.345 60.534ZM221.036 70.38H219.524V66.33H209.66V65.034H221.036V70.38ZM223.034 63.378H207.914V62.1H214.718V59.85H216.23V62.1H223.034V63.378ZM222.188 59.4L221.45 60.534C219.02 60.048 216.626 58.68 215.474 57.042C214.322 58.68 211.928 60.048 209.498 60.534L208.76 59.4C211.676 58.824 214.7 56.88 214.7 55.062V54.36H216.248V55.062C216.248 56.88 219.272 58.824 222.188 59.4ZM235.662 65.7V66.96C233.988 67.302 231.864 67.41 229.578 67.41H224.52V66.114H229.578C231.756 66.114 234.024 66.006 235.662 65.7ZM237.894 70.29H236.382V54.252H237.894V70.29ZM234.204 59.274C234.204 61.614 232.278 63.504 229.758 63.504C227.238 63.504 225.312 61.614 225.312 59.274C225.312 56.934 227.238 55.044 229.758 55.044C232.278 55.044 234.204 56.934 234.204 59.274ZM229.758 62.208C231.576 62.208 232.692 60.858 232.692 59.274C232.692 57.672 231.576 56.34 229.758 56.34C227.94 56.34 226.824 57.672 226.824 59.274C226.824 60.858 227.94 62.208 229.758 62.208ZM257.345 70.29H255.833V54.252H257.345V70.29ZM248.579 67.77C245.987 67.77 244.619 65.574 244.493 62.658C244.457 61.848 244.457 61.02 244.493 60.21C244.619 57.294 245.987 55.098 248.579 55.098C251.171 55.098 252.539 57.294 252.665 60.21C252.701 61.02 252.701 61.848 252.665 62.658C252.539 65.574 251.171 67.77 248.579 67.77ZM248.579 66.474C250.217 66.474 251.081 64.89 251.189 62.658C251.225 61.848 251.225 61.02 251.189 60.21C251.081 57.978 250.217 56.394 248.579 56.394C246.941 56.394 246.077 57.978 245.969 60.21C245.933 61.02 245.933 61.848 245.969 62.658C246.077 64.89 246.941 66.474 248.579 66.474ZM273.069 63.612H271.557V54.252H273.069V57.78H275.265V59.112H273.069V63.612ZM273.357 67.23C273.357 68.976 271.935 70.362 268.749 70.452C268.083 70.47 267.363 70.47 266.697 70.452C263.511 70.362 262.089 68.976 262.089 67.23C262.089 65.484 263.511 64.098 266.697 64.008C267.363 63.99 268.083 63.99 268.749 64.008C271.935 64.098 273.357 65.484 273.357 67.23ZM271.845 67.23C271.845 65.286 269.163 65.25 267.723 65.25C266.283 65.25 263.601 65.286 263.601 67.23C263.601 69.174 266.283 69.21 267.723 69.21C269.163 69.21 271.845 69.174 271.845 67.23ZM269.883 61.38L269.091 62.532C267.363 61.866 265.563 60.462 264.735 58.986C264.051 60.462 262.251 62.118 260.253 63.036L259.299 61.938C261.855 60.822 263.907 58.662 263.907 56.178V54.558H265.491V56.16C265.491 58.698 267.615 60.498 269.883 61.38ZM289.441 59.31C289.441 61.794 287.407 63.612 284.491 63.81C283.879 63.846 283.195 63.846 282.583 63.81C279.613 63.612 277.633 61.794 277.633 59.31C277.633 56.826 279.613 55.008 282.583 54.81C283.195 54.774 283.879 54.774 284.491 54.81C287.407 55.008 289.441 56.826 289.441 59.31ZM287.965 59.31C287.965 57.69 286.669 56.25 284.491 56.106C283.879 56.07 283.195 56.07 282.583 56.106C280.405 56.25 279.109 57.69 279.109 59.31C279.109 60.93 280.405 62.37 282.583 62.514C283.195 62.55 283.879 62.55 284.491 62.514C286.669 62.37 287.965 60.93 287.965 59.31ZM291.097 68.508H275.977V67.212H291.097V68.508ZM307.181 68.688H292.061V67.392H298.937V64.512H294.095V59.202H303.545V56.52H294.095V55.242H305.057V60.462H295.607V63.216H305.417V64.512H300.485V67.392H307.181V68.688ZM322.221 66.204L321.357 67.32C319.449 66.276 317.613 64.44 316.821 62.622C316.065 64.584 314.337 66.42 312.177 67.752L311.169 66.708C313.725 65.196 315.993 62.424 315.993 59.022V56.934H312.393V55.638H321.267V56.934H317.577V59.058C317.577 62.46 319.881 64.98 322.221 66.204ZM324.849 70.29H323.337V54.252H324.849V60.48H327.243V61.848H324.849V70.29ZM341.491 70.29H339.979V54.252H341.491V70.29ZM338.989 65.574V66.834C337.045 67.176 334.291 67.23 332.059 67.23H329.035V60.552H335.317V56.736H329.035V55.458H336.829V61.812H330.547V65.934H332.059C334.291 65.934 336.937 65.88 338.989 65.574ZM360.906 70.092H350.376V63.234H351.888V65.376H359.394V63.234H360.906V70.092ZM357.936 60.822L357.162 61.992C355.488 61.47 353.652 60.21 352.788 58.806C352.14 60.174 350.268 61.686 348.288 62.496L347.352 61.38C349.872 60.426 351.96 58.482 351.96 56.322V56.178H348.36V54.918H357.234V56.178H353.544V56.304C353.544 58.41 355.65 60.138 357.936 60.822ZM359.394 68.814V66.618H351.888V68.814H359.394ZM360.942 62.442H359.43V54.252H360.942V57.42H363.138V58.716H360.942V62.442ZM376.846 70.29H375.334V54.252H376.846V60.39H379.222V61.758H376.846V70.29ZM368.386 67.77C365.794 67.77 364.48 65.574 364.354 62.658C364.318 61.848 364.318 61.02 364.354 60.21C364.48 57.294 365.794 55.098 368.386 55.098C370.978 55.098 372.292 57.294 372.418 60.21C372.454 61.02 372.454 61.848 372.418 62.658C372.292 65.574 370.978 67.77 368.386 67.77ZM368.386 66.474C370.024 66.474 370.834 64.89 370.942 62.658C370.978 61.848 370.978 61.02 370.942 60.21C370.834 57.978 370.024 56.394 368.386 56.394C366.748 56.394 365.938 57.978 365.83 60.21C365.794 61.02 365.794 61.848 365.83 62.658C365.938 64.89 366.748 66.474 368.386 66.474ZM382.31 71.766H380.726V66.6H382.31V71.766ZM402.946 62.514H387.826V61.272H394.702V59.58H389.824V54.72H400.948V55.962H391.336V58.338H401.128V59.58H396.25V61.272H402.946V62.514ZM401.308 70.11H389.824V66.276H399.436V64.998H389.824V63.756H400.948V67.482H391.336V68.85H401.308V70.11ZM416.906 70.29H415.394V54.252H416.906V60.39H419.282V61.758H416.906V70.29ZM408.446 67.77C405.854 67.77 404.54 65.574 404.414 62.658C404.378 61.848 404.378 61.02 404.414 60.21C404.54 57.294 405.854 55.098 408.446 55.098C411.038 55.098 412.352 57.294 412.478 60.21C412.514 61.02 412.514 61.848 412.478 62.658C412.352 65.574 411.038 67.77 408.446 67.77ZM408.446 66.474C410.084 66.474 410.894 64.89 411.002 62.658C411.038 61.848 411.038 61.02 411.002 60.21C410.894 57.978 410.084 56.394 408.446 56.394C406.808 56.394 405.998 57.978 405.89 60.21C405.854 61.02 405.854 61.848 405.89 62.658C405.998 64.89 406.808 66.474 408.446 66.474ZM421.182 68.094L420.21 67.05C424.278 64.674 426.672 60.822 426.96 56.934H421.038V55.638H428.58C428.544 61.434 425.142 65.718 421.182 68.094ZM432.99 70.29H431.478V54.252H432.99V60.93H435.366V62.298H432.99V70.29ZM451.198 68.688H436.078V67.392H441.856V61.344H443.404V67.392H451.198V68.688ZM448.354 65.088H446.878C447.544 62.568 447.832 59.13 447.868 56.718H437.788V55.422H449.416C449.416 58.482 449.092 62.424 448.354 65.088ZM469.605 63.018H468.093V54.252H469.605V63.018ZM466.329 68.814L466.437 65.142H461.883L462.009 68.814H466.329ZM470.091 70.092H458.175V68.814H460.515L460.407 65.142H458.373V63.882H469.875V65.142H467.931L467.805 68.814H470.091V70.092ZM466.131 61.434L465.339 62.586C463.611 61.92 461.811 60.516 460.947 59.04C460.263 60.624 458.463 62.136 456.429 63.09L455.475 61.992C458.031 60.876 460.119 58.788 460.119 56.304V54.648H461.703V56.286C461.703 58.752 463.863 60.552 466.131 61.434ZM487.093 63.702H471.973V62.424H487.093V63.702ZM485.635 70.02H473.971V65.142H475.501V68.724H485.635V70.02ZM485.491 57.528C485.491 59.364 483.835 60.786 480.649 60.876C479.983 60.894 479.083 60.894 478.417 60.876C475.231 60.786 473.575 59.364 473.575 57.528C473.575 55.692 475.231 54.27 478.417 54.18C479.083 54.162 479.983 54.162 480.649 54.18C483.835 54.27 485.491 55.692 485.491 57.528ZM483.979 57.528C483.979 56.502 483.007 55.512 480.649 55.44C479.983 55.422 479.083 55.422 478.417 55.44C476.059 55.512 475.087 56.502 475.087 57.528C475.087 58.554 476.059 59.544 478.417 59.616C479.083 59.634 479.983 59.634 480.649 59.616C483.007 59.544 483.979 58.554 483.979 57.528ZM506.903 63.63H500.369V66.924H498.857V63.63H491.783V62.352H506.903V63.63ZM505.445 70.02H493.781V65.142H495.311V68.724H505.445V70.02ZM506.057 59.724L505.283 60.894C502.925 60.372 500.459 59.076 499.343 57.312C498.227 59.076 495.761 60.372 493.403 60.894L492.629 59.724C495.689 59.076 498.569 57.132 498.569 55.224V54.36H500.117V55.224C500.117 57.132 502.997 59.076 506.057 59.724ZM521.583 70.02H510.549V64.44H512.079V68.724H521.583V70.02ZM521.043 65.79H519.531V54.252H521.043V58.374H523.239V59.706H521.043V65.79ZM508.695 63.648L507.849 62.514C511.917 61.326 514.545 58.914 515.013 56.214H508.947V54.918H516.741C516.561 59.634 512.637 62.442 508.695 63.648ZM537.415 59.31C537.415 61.794 535.381 63.612 532.465 63.81C531.853 63.846 531.169 63.846 530.557 63.81C527.587 63.612 525.607 61.794 525.607 59.31C525.607 56.826 527.587 55.008 530.557 54.81C531.169 54.774 531.853 54.774 532.465 54.81C535.381 55.008 537.415 56.826 537.415 59.31ZM535.939 59.31C535.939 57.69 534.643 56.25 532.465 56.106C531.853 56.07 531.169 56.07 530.557 56.106C528.379 56.25 527.083 57.69 527.083 59.31C527.083 60.93 528.379 62.37 530.557 62.514C531.169 62.55 531.853 62.55 532.465 62.514C534.643 62.37 535.939 60.93 535.939 59.31ZM539.071 68.508H523.951V67.212H539.071V68.508ZM555.155 68.688H540.035V67.392H546.911V64.512H542.069V59.202H551.519V56.52H542.069V55.242H553.031V60.462H543.581V63.216H553.391V64.512H548.459V67.392H555.155V68.688ZM573.382 70.29H571.87V54.252H573.382V70.29ZM561.214 68.094L560.242 67.05C564.31 64.674 566.812 60.822 567.1 56.934H561.07V55.638H568.72C568.684 61.434 565.174 65.718 561.214 68.094ZM589.646 63.558H588.134V59.13H585.056C584.786 61.074 583.184 62.586 580.79 62.586C578.162 62.586 576.47 60.768 576.47 58.554C576.47 56.34 578.234 54.522 580.79 54.522C583.058 54.522 584.714 55.962 585.038 57.834H588.134V54.252H589.646V63.558ZM583.598 58.554C583.598 57.042 582.554 55.818 580.79 55.818C579.026 55.818 577.982 57.042 577.982 58.554C577.982 60.03 579.026 61.29 580.79 61.29C582.554 61.29 583.598 60.03 583.598 58.554ZM589.61 70.38H588.098V65.646H578.54V64.35H589.61V70.38ZM605.874 70.092H594.984V64.026H596.496V65.79H604.362V64.026H605.874V70.092ZM603.678 61.11V62.334C602.004 62.622 599.682 62.73 597.396 62.73H592.554V61.47H597.324V59.688H593.814V54.792H601.932V56.052H595.326V58.428H602.292V59.688H598.872V61.47C600.618 61.434 602.364 61.308 603.678 61.11ZM604.362 68.832V67.014H596.496V68.832H604.362ZM605.91 63.306H604.398V54.252H605.91V63.306ZM621.634 70.29H620.122V54.252H621.634V70.29ZM619.132 65.286V66.564C617.188 66.906 614.434 66.96 612.202 66.96H609.322V55.368H610.834V65.646H612.202C614.434 65.646 617.08 65.592 619.132 65.286ZM637.178 70.29H635.666V54.252H637.178V60.21H639.554V61.578H637.178V70.29ZM634.766 65.196V66.474C632.822 66.906 630.068 67.05 627.836 67.05H625.154V55.638H632.93V56.934H626.666V65.736H627.836C630.068 65.736 632.714 65.592 634.766 65.196ZM642.21 68.94C641.598 68.94 641.112 68.454 641.112 67.842C641.112 67.23 641.598 66.744 642.21 66.744C642.822 66.744 643.308 67.23 643.308 67.842C643.308 68.454 642.822 68.94 642.21 68.94ZM40.159 97.29H38.665V88.434H36.487V96.624H35.011V81.432H36.487V87.03H38.665V81.252H40.159V97.29ZM34.201 92.394V93.69C32.779 93.924 31.231 93.996 29.845 93.996H27.361V82.44H28.801V92.682H29.845C31.213 92.682 32.743 92.646 34.201 92.394ZM43.1929 95.058L42.1489 94.086C45.5689 91.62 47.6029 87.804 47.8729 84.006H43.0849V82.71H49.4569C49.4569 88.272 46.6849 92.412 43.1929 95.058ZM53.1649 96.624H51.6889V89.1H49.3129V87.768H51.6889V81.432H53.1649V96.624ZM56.1349 97.29H54.6409V81.252H56.1349V97.29ZM76.3775 86.832L75.6035 88.002C73.2455 87.552 70.7435 86.328 69.6635 84.744C68.5835 86.328 66.0815 87.552 63.7235 88.002L62.9495 86.832C65.8475 86.292 68.6015 84.636 68.8175 82.998H63.9575V81.72H75.3695V82.998H70.5095C70.7255 84.636 73.4615 86.292 76.3775 86.832ZM77.2235 90.918H62.1035V89.64H68.8895V87.3H70.4375V89.64H77.2235V90.918ZM75.7655 97.02H64.1015V92.214H65.6315V95.724H75.7655V97.02ZM92.3175 97.29H90.8235V88.704H88.9875V96.624H87.5115V81.432H88.9875V87.3H90.8235V81.252H92.3175V97.29ZM86.8095 93.24L85.9275 94.302C84.3435 93.096 83.0115 91.44 82.3815 89.694C81.8595 91.476 80.4195 93.42 78.5835 94.806L77.5215 93.816C79.6995 92.304 81.5715 89.244 81.5715 86.094V83.934H78.7275V82.638H86.0535V83.934H83.1195V86.094C83.1195 89.244 84.9555 91.908 86.8095 93.24ZM108.221 91.098H106.727V87.156H104.819V91.098H103.343V81.432H104.819V85.824H106.727V81.252H108.221V91.098ZM109.463 96.318L108.599 97.326C107.213 96.624 105.917 95.4 105.431 94.284C104.873 95.436 103.685 96.66 102.461 97.326C101.237 96.66 100.049 95.436 99.4915 94.284C99.0055 95.4 97.7095 96.624 96.3235 97.326L95.4595 96.318C97.2055 95.508 98.7535 93.78 98.7535 92.34V91.89H100.229V92.34C100.229 93.456 101.453 95.148 102.461 95.832C103.469 95.148 104.693 93.456 104.693 92.34V91.89H106.169V92.34C106.169 93.78 107.717 95.508 109.463 96.318ZM100.697 82.656H96.3955V81.414H100.697V82.656ZM102.551 84.798H94.5415V83.556H102.551V84.798ZM102.065 88.092C102.065 89.622 100.571 90.738 98.5735 90.738C96.5755 90.738 95.0815 89.622 95.0815 88.092C95.0815 86.562 96.5755 85.464 98.5735 85.464C100.571 85.464 102.065 86.562 102.065 88.092ZM100.625 88.092C100.625 87.21 99.8335 86.652 98.5735 86.652C97.3135 86.652 96.5215 87.21 96.5215 88.092C96.5215 88.992 97.3135 89.55 98.5735 89.55C99.8335 89.55 100.625 88.992 100.625 88.092ZM121.155 87.984V89.262C119.337 89.622 116.781 89.73 114.495 89.73H111.507V81.918H119.283V83.214H113.019V88.416H114.495C116.727 88.416 119.229 88.308 121.155 87.984ZM124.071 92.862H122.559V86.166H117.933V84.888H122.559V81.252H124.071V92.862ZM124.431 97.02H113.397V91.512H114.927V95.724H124.431V97.02ZM145.286 95.418H130.166V94.122H140.408C141.146 91.26 141.704 86.67 141.812 83.718H131.876V82.422H143.36C143.252 86.202 142.694 91.026 141.938 94.122H145.286V95.418ZM164.197 97.29H162.721V88.794H161.029V96.624H159.571V81.432H161.029V87.39H162.721V81.252H164.197V97.29ZM159.013 92.682V93.942C158.347 94.104 157.411 94.158 156.871 94.158H154.909V82.71H158.491V83.988H156.349V92.862H156.979C157.645 92.862 158.419 92.79 159.013 92.682ZM154.459 92.718V93.978C153.793 94.104 152.911 94.158 152.551 94.158H150.931V82.71H154.369V83.988H152.371V92.862H152.677C153.055 92.862 153.757 92.826 154.459 92.718ZM179.543 97.11H168.059V93.474H177.671V92.376H168.059V91.152H179.183V94.662H169.571V95.868H179.543V97.11ZM179.453 87.516H168.059V83.952H177.581V82.836H168.059V81.612H179.093V85.14H169.571V86.274H179.453V87.516ZM181.181 89.91H166.061V88.686H181.181V89.91ZM199.011 97.11H188.481V90.81H199.011V97.11ZM196.041 88.272L195.249 89.424C193.521 88.794 191.721 87.408 190.893 85.95C190.245 87.426 188.373 89.01 186.411 89.928L185.457 88.83C188.013 87.75 190.065 85.554 190.065 83.322V83.196H186.465V81.918H195.339V83.196H191.649V83.304C191.649 85.59 193.773 87.39 196.041 88.272ZM197.499 95.832V92.088H189.993V95.832H197.499ZM199.047 90.018H197.535V81.252H199.047V84.69H201.243V86.022H199.047V90.018ZM215.311 93.15H213.835V81.252H215.311V85.32H217.417V86.652H215.311V93.15ZM215.851 97.02H204.817V91.8H206.347V95.724H215.851V97.02ZM208.057 90.72L206.995 89.838C209.497 88.038 210.505 85.626 210.685 83.16H207.751V81.918H212.233C212.233 85.986 210.577 88.83 208.057 90.72ZM202.891 90L201.811 89.136C204.187 87.57 205.465 85.23 205.699 83.16H202.855V81.918H207.247C207.193 85.59 205.303 88.29 202.891 90ZM231.575 97.29H230.063V81.252H231.575V97.29ZM222.809 94.77C220.217 94.77 218.849 92.574 218.723 89.658C218.687 88.848 218.687 88.02 218.723 87.21C218.849 84.294 220.217 82.098 222.809 82.098C225.401 82.098 226.769 84.294 226.895 87.21C226.931 88.02 226.931 88.848 226.895 89.658C226.769 92.574 225.401 94.77 222.809 94.77ZM222.809 93.474C224.447 93.474 225.311 91.89 225.419 89.658C225.455 88.848 225.455 88.02 225.419 87.21C225.311 84.978 224.447 83.394 222.809 83.394C221.171 83.394 220.307 84.978 220.199 87.21C220.163 88.02 220.163 88.848 220.199 89.658C220.307 91.89 221.171 93.474 222.809 93.474ZM247.119 97.29H245.607V81.252H247.119V86.94H249.495V88.308H247.119V97.29ZM244.707 92.286V93.564C242.763 93.906 240.009 93.96 237.777 93.96H235.167V82.368H236.679V92.646H237.777C240.009 92.646 242.655 92.592 244.707 92.286ZM263.203 97.29H261.691V81.252H263.203V87.39H265.579V88.758H263.203V97.29ZM257.281 92.754V83.934H252.619V92.754H257.281ZM258.793 94.05H251.107V82.638H258.793V94.05ZM281.682 93.24V94.5C280.008 94.842 277.884 94.95 275.598 94.95H270.54V93.654H275.13V91.764C273.06 91.512 271.854 90.252 271.854 88.92C271.854 87.426 273.366 86.04 275.904 86.04C278.442 86.04 279.954 87.426 279.954 88.92C279.954 90.252 278.748 91.512 276.678 91.764V93.654C278.496 93.618 280.314 93.492 281.682 93.24ZM283.914 97.29H282.402V81.252H283.914V97.29ZM278.478 88.92C278.478 88.056 277.596 87.282 275.904 87.282C274.212 87.282 273.33 88.056 273.33 88.92C273.33 89.784 274.212 90.558 275.904 90.558C277.596 90.558 278.478 89.784 278.478 88.92ZM280.836 85.446H270.972V84.168H280.836V85.446ZM278.568 83.178H273.222V81.882H278.568V83.178ZM299.278 90.612H297.766V81.252H299.278V84.78H301.474V86.112H299.278V90.612ZM299.566 94.23C299.566 95.976 298.144 97.362 294.958 97.452C294.292 97.47 293.572 97.47 292.906 97.452C289.72 97.362 288.298 95.976 288.298 94.23C288.298 92.484 289.72 91.098 292.906 91.008C293.572 90.99 294.292 90.99 294.958 91.008C298.144 91.098 299.566 92.484 299.566 94.23ZM298.054 94.23C298.054 92.286 295.372 92.25 293.932 92.25C292.492 92.25 289.81 92.286 289.81 94.23C289.81 96.174 292.492 96.21 293.932 96.21C295.372 96.21 298.054 96.174 298.054 94.23ZM296.092 88.38L295.3 89.532C293.572 88.866 291.772 87.462 290.944 85.986C290.26 87.462 288.46 89.118 286.462 90.036L285.508 88.938C288.064 87.822 290.116 85.662 290.116 83.178V81.558H291.7V83.16C291.7 85.698 293.824 87.498 296.092 88.38ZM311.258 91.17C311.258 93.33 309.656 95.166 307.226 95.166C304.796 95.166 303.194 93.33 303.194 91.17C303.194 89.01 304.796 87.174 307.226 87.174C309.656 87.174 311.258 89.01 311.258 91.17ZM315.182 97.29H313.67V81.252H315.182V88.398H317.558V89.766H315.182V97.29ZM312.086 86.058H302.366V84.762H312.086V86.058ZM309.674 83.286H304.778V81.99H309.674V83.286ZM307.226 93.906C308.864 93.906 309.746 92.7 309.746 91.17C309.746 89.64 308.864 88.434 307.226 88.434C305.588 88.434 304.706 89.64 304.706 91.17C304.706 92.7 305.588 93.906 307.226 93.906ZM333.39 90.342H318.27V89.064H333.39V90.342ZM331.932 97.02H320.268V91.962H321.798V95.724H331.932V97.02ZM331.662 87.084H320.268V81.45H321.78V85.806H331.662V87.084ZM353.2 95.418H338.08V94.122H348.322C349.06 91.26 349.618 86.67 349.726 83.718H339.79V82.422H351.274C351.166 86.202 350.608 91.026 349.852 94.122H353.2V95.418ZM373.011 90.63H366.477V93.924H364.965V90.63H357.891V89.352H373.011V90.63ZM371.553 97.02H359.889V92.142H361.419V95.724H371.553V97.02ZM372.165 86.724L371.391 87.894C369.033 87.372 366.567 86.076 365.451 84.312C364.335 86.076 361.869 87.372 359.511 87.894L358.737 86.724C361.797 86.076 364.677 84.132 364.677 82.224V81.36H366.225V82.224C366.225 84.132 369.105 86.076 372.165 86.724ZM387.691 97.02H376.657V91.44H378.187V95.724H387.691V97.02ZM387.151 92.79H385.639V81.252H387.151V85.374H389.347V86.706H387.151V92.79ZM374.803 90.648L373.957 89.514C378.025 88.326 380.653 85.914 381.121 83.214H375.055V81.918H382.849C382.669 86.634 378.745 89.442 374.803 90.648ZM405.179 90.702H390.059V89.424H405.179V90.702ZM403.721 97.02H392.057V92.142H393.587V95.724H403.721V97.02ZM403.577 84.528C403.577 86.364 401.921 87.786 398.735 87.876C398.069 87.894 397.169 87.894 396.503 87.876C393.317 87.786 391.661 86.364 391.661 84.528C391.661 82.692 393.317 81.27 396.503 81.18C397.169 81.162 398.069 81.162 398.735 81.18C401.921 81.27 403.577 82.692 403.577 84.528ZM402.065 84.528C402.065 83.502 401.093 82.512 398.735 82.44C398.069 82.422 397.169 82.422 396.503 82.44C394.145 82.512 393.173 83.502 393.173 84.528C393.173 85.554 394.145 86.544 396.503 86.616C397.169 86.634 398.069 86.634 398.735 86.616C401.093 86.544 402.065 85.554 402.065 84.528ZM422.865 97.29H421.353V81.252H422.865V87.39H425.241V88.758H422.865V97.29ZM416.943 92.754V83.934H412.281V92.754H416.943ZM418.455 94.05H410.769V82.638H418.455V94.05ZM436.609 93.564L435.745 94.68C433.999 93.798 432.109 92.052 431.191 90.342C430.453 92.088 428.527 94.014 426.547 95.112L425.521 94.05C428.131 92.628 430.363 90.036 430.363 87.462V86.202H426.529V84.906H435.799V86.202H431.947V87.498C431.947 90 434.323 92.412 436.609 93.564ZM439.489 97.29H437.977V81.252H439.489V97.29ZM433.819 83.268H428.635V81.972H433.819V83.268ZM459.3 97.29H457.788V91.926H454.206C453.612 93.654 452.388 94.77 450.534 94.77C447.942 94.77 446.574 92.574 446.448 89.658C446.412 88.848 446.412 88.02 446.448 87.21C446.574 84.294 447.942 82.098 450.534 82.098C452.37 82.098 453.594 83.214 454.188 84.888H457.788V81.252H459.3V97.29ZM450.534 93.474C452.172 93.474 453.036 91.89 453.144 89.658C453.18 88.848 453.18 88.02 453.144 87.21C453.036 84.978 452.172 83.394 450.534 83.394C448.896 83.394 448.032 84.978 447.924 87.21C447.888 88.02 447.888 88.848 447.924 89.658C448.032 91.89 448.896 93.474 450.534 93.474ZM457.788 90.63V86.184H454.512C454.566 86.526 454.602 86.868 454.62 87.21C454.656 88.02 454.656 88.848 454.62 89.658C454.602 90 454.566 90.324 454.53 90.63H457.788ZM475.312 85.14C475.312 87.138 473.656 88.722 470.47 88.812C469.804 88.83 469.012 88.83 468.346 88.812C465.16 88.722 463.504 87.138 463.504 85.14C463.504 83.142 465.16 81.558 468.346 81.468C469.012 81.45 469.804 81.45 470.47 81.468C473.656 81.558 475.312 83.142 475.312 85.14ZM473.152 97.29H471.658V91.728H467.158V97.146H465.664V91.728H461.848V90.432H476.968V91.728H473.152V97.29ZM473.8 85.14C473.8 83.952 472.828 82.818 470.47 82.746C469.804 82.728 469.012 82.728 468.346 82.746C465.988 82.818 465.016 83.952 465.016 85.14C465.016 86.328 465.988 87.462 468.346 87.534C469.012 87.552 469.804 87.552 470.47 87.534C472.828 87.462 473.8 86.328 473.8 85.14ZM493.052 95.688H477.932V94.392H484.808V91.512H479.966V86.202H489.416V83.52H479.966V82.242H490.928V87.462H481.478V90.216H491.288V91.512H486.356V94.392H493.052V95.688ZM509.136 90.63H502.602V93.924H501.09V90.63H494.016V89.352H509.136V90.63ZM507.678 97.02H496.014V92.142H497.544V95.724H507.678V97.02ZM507.534 84.528C507.534 86.364 505.878 87.786 502.692 87.876C502.026 87.894 501.126 87.894 500.46 87.876C497.274 87.786 495.618 86.364 495.618 84.528C495.618 82.692 497.274 81.27 500.46 81.18C501.126 81.162 502.026 81.162 502.692 81.18C505.878 81.27 507.534 82.692 507.534 84.528ZM506.022 84.528C506.022 83.502 505.05 82.512 502.692 82.44C502.026 82.422 501.126 82.422 500.46 82.44C498.102 82.512 497.13 83.502 497.13 84.528C497.13 85.554 498.102 86.544 500.46 86.616C501.126 86.634 502.026 86.634 502.692 86.616C505.05 86.544 506.022 85.554 506.022 84.528ZM526.57 88.02C526.57 90.36 523.132 90.504 521.386 90.504C519.64 90.504 516.202 90.36 516.202 88.02C516.202 85.68 519.64 85.536 521.386 85.536C523.132 85.536 526.57 85.68 526.57 88.02ZM525.076 97.29H523.582V92.934H519.19V97.146H517.696V92.934H513.826V91.656H528.946V92.934H525.076V97.29ZM525.094 88.02C525.094 87.282 524.14 86.814 522.34 86.76C521.728 86.742 521.044 86.742 520.432 86.76C518.632 86.814 517.678 87.282 517.678 88.02C517.678 88.758 518.632 89.226 520.432 89.28C521.044 89.298 521.728 89.298 522.34 89.28C524.14 89.226 525.094 88.758 525.094 88.02ZM527.722 84.78H515.05V83.52H527.722V84.78ZM524.698 82.548H518.074V81.27H524.698V82.548ZM531.098 95.094L530.126 94.05C534.194 91.674 536.588 87.822 536.876 83.934H530.954V82.638H538.496C538.46 88.434 535.058 92.718 531.098 95.094ZM542.906 97.29H541.394V81.252H542.906V87.93H545.282V89.298H542.906V97.29ZM563.221 97.11H552.331V90.27H562.861V91.53H553.843V93.024H562.789V94.248H553.843V95.832H563.221V97.11ZM562.897 89.478H561.385V81.252H562.897V84.726H565.093V86.022H562.897V89.478ZM556.867 83.196H550.801V81.918H558.595C558.523 86.202 554.131 88.65 550.495 89.532L549.703 88.38C553.447 87.57 556.363 85.482 556.867 83.196ZM577.415 95.832V93.906H569.315V95.832H577.415ZM578.927 97.092H567.803V90.864H569.315V92.682H577.415V90.864H578.927V97.092ZM580.925 89.658H565.805V88.398H580.925V89.658ZM580.079 86.076L579.305 87.246C576.983 86.796 574.445 85.536 573.365 83.952C572.285 85.536 569.747 86.796 567.425 87.246L566.651 86.076C569.639 85.464 572.591 83.772 572.591 82.008V81.36H574.139V82.008C574.139 83.772 577.091 85.464 580.079 86.076ZM595.425 97.29H593.913V81.252H595.425V97.29ZM592.923 92.286V93.564C590.979 93.906 588.225 93.96 585.993 93.96H583.113V82.368H584.625V92.646H585.993C588.225 92.646 590.871 92.592 592.923 92.286ZM610.969 97.29H609.457V81.252H610.969V87.21H613.345V88.578H610.969V97.29ZM608.557 92.196V93.474C606.613 93.906 603.859 94.05 601.627 94.05H598.945V82.638H606.721V83.934H600.457V92.736H601.627C603.859 92.736 606.505 92.592 608.557 92.196ZM616.001 95.94C615.389 95.94 614.903 95.454 614.903 94.842C614.903 94.23 615.389 93.744 616.001 93.744C616.613 93.744 617.099 94.23 617.099 94.842C617.099 95.454 616.613 95.94 616.001 95.94ZM132.243 122.472C132.243 123.732 131.019 124.398 128.283 124.452C127.707 124.47 126.123 124.47 125.547 124.452C122.811 124.398 121.587 123.732 121.587 122.472C121.587 121.194 122.811 120.528 125.547 120.474C126.123 120.456 127.707 120.456 128.283 120.474C131.019 120.528 132.243 121.194 132.243 122.472ZM133.719 112.698L133.017 113.796C130.803 113.562 128.283 112.554 127.005 111.114C125.727 112.554 123.207 113.562 120.993 113.796L120.291 112.698C123.045 112.338 125.673 111.168 126.105 109.926H121.299V108.72H132.711V109.926H127.887C128.337 111.168 130.965 112.338 133.719 112.698ZM134.475 115.722H119.355V114.498H126.141V112.788H127.689V114.498H134.475V115.722ZM133.449 119.772H120.381V118.566H133.449V119.772ZM130.731 122.472C130.731 121.95 130.173 121.716 128.283 121.662C127.707 121.644 126.123 121.644 125.547 121.662C123.657 121.716 123.099 121.95 123.099 122.472C123.099 122.976 123.657 123.21 125.547 123.264C126.123 123.282 127.707 123.282 128.283 123.264C130.173 123.21 130.731 122.976 130.731 122.472ZM130.515 117.81H123.315V116.586H130.515V117.81ZM148.615 117.198H147.103V108.252H148.615V111.96H150.811V113.292H148.615V117.198ZM150.181 123.318L149.317 124.326C147.895 123.552 146.599 122.292 146.149 121.104C145.591 122.4 144.367 123.624 143.179 124.326C141.991 123.624 140.767 122.4 140.209 121.104C139.759 122.292 138.463 123.552 137.041 124.326L136.177 123.318C137.923 122.472 139.471 120.672 139.471 118.98V117.99H140.947V118.98C140.947 120.348 142.171 122.112 143.179 122.778C144.187 122.112 145.411 120.348 145.411 118.98V117.99H146.887V118.98C146.887 120.672 148.435 122.472 150.181 123.318ZM144.511 112.518C144.511 114.786 142.729 116.514 140.155 116.514C137.581 116.514 135.799 114.786 135.799 112.518C135.799 110.25 137.581 108.522 140.155 108.522C142.729 108.522 144.511 110.25 144.511 112.518ZM142.999 112.518C142.999 110.97 141.937 109.818 140.155 109.818C138.373 109.818 137.311 110.97 137.311 112.518C137.311 114.066 138.373 115.218 140.155 115.218C141.937 115.218 142.999 114.066 142.999 112.518ZM162.323 114.984V116.262C160.505 116.622 157.949 116.73 155.663 116.73H152.675V108.918H160.451V110.214H154.187V115.416H155.663C157.895 115.416 160.397 115.308 162.323 114.984ZM165.239 119.862H163.727V113.166H159.101V111.888H163.727V108.252H165.239V119.862ZM165.599 124.02H154.565V118.512H156.095V122.724H165.599V124.02ZM184.87 124.29H183.358V108.252H184.87V124.29ZM181.756 120.096L180.892 121.212C178.984 120.168 177.112 118.26 176.32 116.442C175.6 118.35 173.764 120.348 171.64 121.644L170.632 120.6C173.26 119.124 175.492 116.316 175.492 112.914V109.278H177.076V112.95C177.076 116.352 179.452 118.872 181.756 120.096ZM201.458 124.11H190.388V119.898H199.586V118.278H190.388V117.018H201.098V121.122H191.9V122.832H201.458V124.11ZM197.768 114.714L196.994 115.884C195.248 115.326 193.448 114.03 192.62 112.59C191.936 114.102 190.1 115.542 188.12 116.388L187.184 115.272C189.74 114.282 191.792 112.23 191.792 110.286V110.178H188.192V108.918H197.066V110.178H193.376V110.268C193.376 112.194 195.5 114.03 197.768 114.714ZM201.134 116.226H199.622V112.716H196.598V111.456H199.622V108.252H201.134V116.226ZM218.622 116.298H203.502V115.056H218.622V116.298ZM216.984 124.11H205.5V120.24H215.112V118.926H205.5V117.684H216.624V121.446H207.012V122.85H216.984V124.11ZM217.02 111.042C217.02 113.796 213.114 113.922 211.062 113.922C209.01 113.922 205.104 113.796 205.104 111.042C205.104 108.288 209.01 108.162 211.062 108.162C213.114 108.162 217.02 108.288 217.02 111.042ZM215.508 111.042C215.508 110.124 214.536 109.476 212.178 109.404C211.512 109.386 210.612 109.386 209.946 109.404C207.588 109.476 206.616 110.124 206.616 111.042C206.616 111.96 207.588 112.608 209.946 112.68C210.612 112.698 211.512 112.698 212.178 112.68C214.536 112.608 215.508 111.96 215.508 111.042ZM234.22 123.624H232.744V118.422H230.116V117.126H232.744V113.706H230.656V112.41H232.744V108.432H234.22V123.624ZM224.212 122.058L223.168 121.086C226.588 118.62 228.622 114.804 228.892 111.006H224.104V109.71H230.476C230.476 115.272 227.704 119.412 224.212 122.058ZM237.262 124.29H235.768V108.252H237.262V124.29ZM252.518 124.38H251.006V120.33H241.142V119.034H252.518V124.38ZM254.516 117.378H239.396V116.1H246.2V113.85H247.712V116.1H254.516V117.378ZM253.67 113.4L252.932 114.534C250.502 114.048 248.108 112.68 246.956 111.042C245.804 112.68 243.41 114.048 240.98 114.534L240.242 113.4C243.158 112.824 246.182 110.88 246.182 109.062V108.36H247.73V109.062C247.73 110.88 250.754 112.824 253.67 113.4ZM272.689 124.11H261.205V120.24H270.817V118.926H261.205V117.684H272.329V121.446H262.717V122.85H272.689V124.11ZM274.327 116.226H259.207V114.984H274.327V116.226ZM272.509 113.616H261.205V108.72H272.329V109.962H262.717V112.374H272.509V113.616ZM288.827 124.29H287.315V118.926H283.733C283.139 120.654 281.915 121.77 280.061 121.77C277.469 121.77 276.101 119.574 275.975 116.658C275.939 115.848 275.939 115.02 275.975 114.21C276.101 111.294 277.469 109.098 280.061 109.098C281.897 109.098 283.121 110.214 283.715 111.888H287.315V108.252H288.827V124.29ZM280.061 120.474C281.699 120.474 282.563 118.89 282.671 116.658C282.707 115.848 282.707 115.02 282.671 114.21C282.563 111.978 281.699 110.394 280.061 110.394C278.423 110.394 277.559 111.978 277.451 114.21C277.415 115.02 277.415 115.848 277.451 116.658C277.559 118.89 278.423 120.474 280.061 120.474ZM287.315 117.63V113.184H284.039C284.093 113.526 284.129 113.868 284.147 114.21C284.183 115.02 284.183 115.848 284.147 116.658C284.129 117 284.093 117.324 284.057 117.63H287.315ZM304.371 124.29H302.859V108.252H304.371V114.21H306.747V115.578H304.371V124.29ZM301.959 119.196V120.474C300.015 120.906 297.261 121.05 295.029 121.05H292.347V109.638H300.123V110.934H293.859V119.736H295.029C297.261 119.736 299.907 119.592 301.959 119.196ZM322.579 116.694H307.459V115.452H314.245V113.94H309.457V108.36H310.969V109.98H319.069V108.36H320.581V113.94H315.793V115.452H322.579V116.694ZM320.941 124.11H309.457V120.366H319.069V119.178H309.457V117.936H320.581V121.572H310.969V122.85H320.941V124.11ZM319.069 112.698V111.168H310.969V112.698H319.069ZM342.39 118.728H335.586V124.29H334.074V118.728H327.27V117.432H342.39V118.728ZM341.778 114.57L340.968 115.776C338.52 115.236 335.874 113.688 334.83 111.816C333.786 113.688 331.14 115.236 328.692 115.776L327.882 114.57C331.212 113.868 334.056 111.708 334.056 109.44V108.486H335.604V109.44C335.604 111.708 338.448 113.868 341.778 114.57ZM360.796 117.198H359.284V108.252H360.796V117.198ZM362.182 123.318L361.318 124.326C359.896 123.552 358.6 122.292 358.15 121.104C357.592 122.4 356.368 123.624 355.18 124.326C353.992 123.624 352.768 122.4 352.21 121.104C351.76 122.292 350.464 123.552 349.042 124.326L348.178 123.318C349.924 122.472 351.472 120.672 351.472 118.98V117.99H352.948V118.98C352.948 120.348 354.172 122.112 355.18 122.778C356.188 122.112 357.412 120.348 357.412 118.98V117.99H358.888V118.98C358.888 120.672 360.436 122.472 362.182 123.318ZM356.44 112.554C356.44 114.768 354.64 116.586 352.03 116.586C349.42 116.586 347.62 114.768 347.62 112.554C347.62 110.34 349.42 108.522 352.03 108.522C354.64 108.522 356.44 110.34 356.44 112.554ZM354.928 112.554C354.928 111.042 353.848 109.818 352.03 109.818C350.212 109.818 349.132 111.042 349.132 112.554C349.132 114.03 350.212 115.29 352.03 115.29C353.848 115.29 354.928 114.03 354.928 112.554ZM376.628 113.31C376.628 115.794 374.594 117.612 371.678 117.81C371.066 117.846 370.382 117.846 369.77 117.81C366.8 117.612 364.82 115.794 364.82 113.31C364.82 110.826 366.8 109.008 369.77 108.81C370.382 108.774 371.066 108.774 371.678 108.81C374.594 109.008 376.628 110.826 376.628 113.31ZM375.152 113.31C375.152 111.69 373.856 110.25 371.678 110.106C371.066 110.07 370.382 110.07 369.77 110.106C367.592 110.25 366.296 111.69 366.296 113.31C366.296 114.93 367.592 116.37 369.77 116.514C370.382 116.55 371.066 116.55 371.678 116.514C373.856 116.37 375.152 114.93 375.152 113.31ZM378.284 122.508H363.164V121.212H378.284V122.508ZM392.964 119.79H391.452V115.056H388.05V116.694H380.328V108.918H388.05V110.358H391.452V108.252H392.964V119.79ZM386.538 115.398V110.214H381.84V115.398H386.538ZM393.324 124.02H382.29V118.44H383.82V122.724H393.324V124.02ZM391.452 113.778V111.636H388.05V113.778H391.452ZM412.775 116.406H411.263V112.68H408.167C407.897 114.516 406.241 115.938 403.937 115.938C401.417 115.938 399.671 114.246 399.671 112.176C399.671 110.106 401.417 108.414 403.937 108.414C406.133 108.414 407.753 109.71 408.113 111.42H411.263V108.252H412.775V116.406ZM413.099 124.11H402.029V119.988H411.227V118.458H402.029V117.198H412.739V121.212H403.541V122.832H413.099V124.11ZM406.691 112.176C406.691 110.808 405.647 109.674 403.937 109.674C402.227 109.674 401.183 110.808 401.183 112.176C401.183 113.544 402.227 114.678 403.937 114.678C405.647 114.678 406.691 113.544 406.691 112.176ZM428.139 124.29H426.627V108.252H428.139V114.39H430.515V115.758H428.139V124.29ZM422.217 119.754V110.934H417.555V119.754H422.217ZM423.729 121.05H416.043V109.638H423.729V121.05ZM444.223 124.29H442.711V108.252H444.223V113.94H446.599V115.308H444.223V124.29ZM441.811 119.286V120.564C439.867 120.906 437.113 120.96 434.881 120.96H432.271V109.368H433.783V119.646H434.881C437.113 119.646 439.759 119.592 441.811 119.286ZM463.925 122.472C463.925 123.732 462.701 124.398 459.965 124.452C459.389 124.47 457.805 124.47 457.229 124.452C454.493 124.398 453.269 123.732 453.269 122.472C453.269 121.194 454.493 120.528 457.229 120.474C457.805 120.456 459.389 120.456 459.965 120.474C462.701 120.528 463.925 121.194 463.925 122.472ZM465.401 112.698L464.699 113.796C462.485 113.562 459.965 112.554 458.687 111.114C457.409 112.554 454.889 113.562 452.675 113.796L451.973 112.698C454.727 112.338 457.355 111.168 457.787 109.926H452.981V108.72H464.393V109.926H459.569C460.019 111.168 462.647 112.338 465.401 112.698ZM466.157 115.722H451.037V114.498H457.823V112.788H459.371V114.498H466.157V115.722ZM465.131 119.772H452.063V118.566H465.131V119.772ZM462.413 122.472C462.413 121.95 461.855 121.716 459.965 121.662C459.389 121.644 457.805 121.644 457.229 121.662C455.339 121.716 454.781 121.95 454.781 122.472C454.781 122.976 455.339 123.21 457.229 123.264C457.805 123.282 459.389 123.282 459.965 123.264C461.855 123.21 462.413 122.976 462.413 122.472ZM462.197 117.81H454.997V116.586H462.197V117.81ZM482.241 116.298H467.121V115.056H482.241V116.298ZM480.603 124.11H469.119V120.24H478.731V118.926H469.119V117.684H480.243V121.446H470.631V122.85H480.603V124.11ZM480.639 111.042C480.639 113.796 476.733 113.922 474.681 113.922C472.629 113.922 468.723 113.796 468.723 111.042C468.723 108.288 472.629 108.162 474.681 108.162C476.733 108.162 480.639 108.288 480.639 111.042ZM479.127 111.042C479.127 110.124 478.155 109.476 475.797 109.404C475.131 109.386 474.231 109.386 473.565 109.404C471.207 109.476 470.235 110.124 470.235 111.042C470.235 111.96 471.207 112.608 473.565 112.68C474.231 112.698 475.131 112.698 475.797 112.68C478.155 112.608 479.127 111.96 479.127 111.042ZM496.561 124.29H495.085V108.252H496.561V114.57H498.847V115.938H496.561V124.29ZM489.451 122.616L488.227 121.788C490.927 118.692 491.683 115.056 491.791 110.916H488.875V109.638H493.339C493.303 115.308 492.403 119.052 489.451 122.616ZM484.249 121.518L482.989 120.762C485.581 117.9 486.607 114.408 486.787 110.916H484.069V109.638H488.335C488.263 114.696 487.021 118.332 484.249 121.518ZM514.409 122.688H499.289V121.392H502.799V118.242H504.275V121.392H509.423V118.242H510.899V121.392H514.409V122.688ZM512.753 113.22C512.753 115.668 510.719 117.432 507.803 117.63C507.191 117.666 506.507 117.666 505.895 117.63C502.925 117.432 500.945 115.668 500.945 113.22C500.945 110.772 502.925 109.008 505.895 108.81C506.507 108.774 507.191 108.774 507.803 108.81C510.719 109.008 512.753 110.772 512.753 113.22ZM511.277 113.22C511.277 111.636 509.981 110.25 507.803 110.106C507.191 110.07 506.507 110.07 505.895 110.106C503.717 110.25 502.421 111.636 502.421 113.22C502.421 114.804 503.717 116.19 505.895 116.334C506.507 116.37 507.191 116.37 507.803 116.334C509.981 116.19 511.277 114.804 511.277 113.22ZM520.287 118.746H518.883C518.523 117.198 519.135 116.244 520.629 115.398C521.943 114.642 522.807 113.958 522.807 112.878C522.807 111.636 521.601 110.718 520.089 110.718C518.505 110.718 517.335 111.762 517.335 113.13H515.859C515.859 110.916 517.695 109.422 520.089 109.422C522.429 109.422 524.283 110.808 524.283 112.806C524.283 114.552 523.239 115.344 521.223 116.55C520.305 117.072 519.963 117.666 520.287 118.746ZM519.747 122.94C519.135 122.94 518.667 122.454 518.667 121.842C518.667 121.23 519.135 120.744 519.747 120.744C520.359 120.744 520.845 121.23 520.845 121.842C520.845 122.454 520.359 122.94 519.747 122.94ZM80.9508 176.058L79.9068 175.086C83.3268 172.62 85.3608 168.804 85.6308 165.006H80.8428V163.71H87.2148C87.2148 169.272 84.4428 173.412 80.9508 176.058ZM94.0008 178.29H92.5068V169.704H90.4188V177.624H88.9428V162.432H90.4188V168.3H92.5068V162.252H94.0008V178.29ZM109.851 173.79H108.339V162.252H109.851V173.79ZM110.211 178.02H99.1767V172.44H100.707V176.724H110.211V178.02ZM105.495 166.68C105.495 168.966 103.713 170.838 101.085 170.838C98.4567 170.838 96.6747 168.966 96.6747 166.68C96.6747 164.394 98.4567 162.522 101.085 162.522C103.713 162.522 105.495 164.394 105.495 166.68ZM103.983 166.68C103.983 165.114 102.921 163.818 101.085 163.818C99.2487 163.818 98.1867 165.114 98.1867 166.68C98.1867 168.246 99.2487 169.542 101.085 169.542C102.921 169.542 103.983 168.246 103.983 166.68ZM123.883 173.7V174.96C122.209 175.302 120.085 175.41 117.799 175.41H112.741V174.114H117.799C119.977 174.114 122.245 174.006 123.883 173.7ZM126.115 178.29H124.603V162.252H126.115V178.29ZM122.425 167.274C122.425 169.614 120.499 171.504 117.979 171.504C115.459 171.504 113.533 169.614 113.533 167.274C113.533 164.934 115.459 163.044 117.979 163.044C120.499 163.044 122.425 164.934 122.425 167.274ZM117.979 170.208C119.797 170.208 120.913 168.858 120.913 167.274C120.913 165.672 119.797 164.34 117.979 164.34C116.161 164.34 115.045 165.672 115.045 167.274C115.045 168.858 116.161 170.208 117.979 170.208ZM145.565 178.29H144.053V169.92H140.903C140.903 172.584 140.039 175.77 136.799 175.77C134.207 175.77 132.839 173.574 132.713 170.658C132.677 169.848 132.677 169.02 132.713 168.21C132.839 165.294 134.207 163.098 136.799 163.098C139.805 163.098 140.903 166.014 140.903 168.588H144.053V162.252H145.565V178.29ZM136.799 174.474C138.437 174.474 139.301 172.89 139.409 170.658C139.445 169.848 139.445 169.02 139.409 168.21C139.301 165.978 138.437 164.394 136.799 164.394C135.161 164.394 134.297 165.978 134.189 168.21C134.153 169.02 134.153 169.848 134.189 170.658C134.297 172.89 135.161 174.474 136.799 174.474ZM161.829 174.15H160.317V162.252H161.829V174.15ZM162.189 178.02H151.155V172.8H152.685V176.724H162.189V178.02ZM159.327 169.83V171.09C157.509 171.36 154.899 171.378 152.613 171.378H149.193V166.41H155.583V164.088H149.193V162.81H157.095V167.652H150.705V170.082H152.613C154.845 170.082 157.401 170.064 159.327 169.83ZM181.46 178.29H179.948V162.252H181.46V178.29ZM178.346 174.096L177.482 175.212C175.574 174.168 173.702 172.26 172.91 170.442C172.19 172.35 170.354 174.348 168.23 175.644L167.222 174.6C169.85 173.124 172.082 170.316 172.082 166.914V163.278H173.666V166.95C173.666 170.352 176.042 172.872 178.346 174.096ZM198.048 178.11H186.978V173.898H196.176V172.278H186.978V171.018H197.688V175.122H188.49V176.832H198.048V178.11ZM194.358 168.714L193.584 169.884C191.838 169.326 190.038 168.03 189.21 166.59C188.526 168.102 186.69 169.542 184.71 170.388L183.774 169.272C186.33 168.282 188.382 166.23 188.382 164.286V164.178H184.782V162.918H193.656V164.178H189.966V164.268C189.966 166.194 192.09 168.03 194.358 168.714ZM197.724 170.226H196.212V166.716H193.188V165.456H196.212V162.252H197.724V170.226ZM211.756 173.7V174.96C210.082 175.302 207.958 175.41 205.672 175.41H200.614V174.114H205.672C207.85 174.114 210.118 174.006 211.756 173.7ZM213.988 178.29H212.476V162.252H213.988V178.29ZM210.298 167.274C210.298 169.614 208.372 171.504 205.852 171.504C203.332 171.504 201.406 169.614 201.406 167.274C201.406 164.934 203.332 163.044 205.852 163.044C208.372 163.044 210.298 164.934 210.298 167.274ZM205.852 170.208C207.67 170.208 208.786 168.858 208.786 167.274C208.786 165.672 207.67 164.34 205.852 164.34C204.034 164.34 202.918 165.672 202.918 167.274C202.918 168.858 204.034 170.208 205.852 170.208ZM235.022 173.07H228.218V178.29H226.706V173.07H219.902V171.774H235.022V173.07ZM230.504 163.548H224.42V162.27H230.504V163.548ZM234.392 169.29L233.618 170.478C231.26 170.208 228.668 169.2 227.462 167.706C226.256 169.2 223.664 170.208 221.306 170.478L220.532 169.29C223.412 168.966 226.292 167.76 226.652 166.104H221.468V164.844H233.456V166.104H228.272C228.632 167.76 231.512 168.966 234.392 169.29ZM249.702 171.558H248.19V167.13H245.112C244.842 169.074 243.24 170.586 240.846 170.586C238.218 170.586 236.526 168.768 236.526 166.554C236.526 164.34 238.29 162.522 240.846 162.522C243.114 162.522 244.77 163.962 245.094 165.834H248.19V162.252H249.702V171.558ZM243.654 166.554C243.654 165.042 242.61 163.818 240.846 163.818C239.082 163.818 238.038 165.042 238.038 166.554C238.038 168.03 239.082 169.29 240.846 169.29C242.61 169.29 243.654 168.03 243.654 166.554ZM249.666 178.38H248.154V173.646H238.596V172.35H249.666V178.38ZM267.19 170.298H252.07V169.056H267.19V170.298ZM265.552 178.11H254.068V174.24H263.68V172.926H254.068V171.684H265.192V175.446H255.58V176.85H265.552V178.11ZM265.588 165.042C265.588 167.796 261.682 167.922 259.63 167.922C257.578 167.922 253.672 167.796 253.672 165.042C253.672 162.288 257.578 162.162 259.63 162.162C261.682 162.162 265.588 162.288 265.588 165.042ZM264.076 165.042C264.076 164.124 263.104 163.476 260.746 163.404C260.08 163.386 259.18 163.386 258.514 163.404C256.156 163.476 255.184 164.124 255.184 165.042C255.184 165.96 256.156 166.608 258.514 166.68C259.18 166.698 260.08 166.698 260.746 166.68C263.104 166.608 264.076 165.96 264.076 165.042ZM282.411 174.204L281.547 175.32C279.639 174.276 277.803 172.404 277.011 170.586C276.255 172.548 274.527 174.42 272.385 175.752L271.359 174.69C273.915 173.196 276.183 170.424 276.183 167.022V164.934H272.583V163.638H281.457V164.934H277.767V167.058C277.767 170.46 280.071 172.98 282.411 174.204ZM285.417 178.29H283.905V169.416H280.683V168.084H283.905V162.252H285.417V178.29ZM300.961 178.29H299.449V162.252H300.961V168.39H303.337V169.758H300.961V178.29ZM295.039 173.754V164.934H290.377V173.754H295.039ZM296.551 175.05H288.865V163.638H296.551V175.05ZM317.045 178.29H315.533V162.252H317.045V168.21H319.421V169.578H317.045V178.29ZM314.633 173.196V174.474C312.689 174.906 309.935 175.05 307.703 175.05H305.021V163.638H312.797V164.934H306.533V173.736H307.703C309.935 173.736 312.581 173.592 314.633 173.196ZM331.797 173.7V174.96C330.123 175.302 327.999 175.41 325.713 175.41H320.655V174.114H325.713C327.891 174.114 330.159 174.006 331.797 173.7ZM334.029 178.29H332.517V162.252H334.029V178.29ZM330.339 167.274C330.339 169.614 328.413 171.504 325.893 171.504C323.373 171.504 321.447 169.614 321.447 167.274C321.447 164.934 323.373 163.044 325.893 163.044C328.413 163.044 330.339 164.934 330.339 167.274ZM325.893 170.208C327.711 170.208 328.827 168.858 328.827 167.274C328.827 165.672 327.711 164.34 325.893 164.34C324.075 164.34 322.959 165.672 322.959 167.274C322.959 168.858 324.075 170.208 325.893 170.208ZM355.063 176.688H339.943V175.392H346.729V171.63H348.277V175.392H355.063V176.688ZM354.415 170.676L353.551 171.864C351.049 171.036 348.583 169.38 347.503 167.328C346.423 169.38 343.957 171.036 341.455 171.864L340.591 170.676C343.777 169.704 346.729 167.256 346.729 164.628V162.99H348.277V164.628C348.277 167.256 351.229 169.704 354.415 170.676ZM369.563 178.29H368.051V162.252H369.563V178.29ZM367.061 173.574V174.834C365.117 175.176 362.363 175.23 360.131 175.23H357.107V168.552H363.389V164.736H357.107V163.458H364.901V169.812H358.619V173.934H360.131C362.363 173.934 365.009 173.88 367.061 173.574ZM387.231 176.688H372.111V175.392H378.987V172.512H374.145V167.202H383.595V164.52H374.145V163.242H385.107V168.462H375.657V171.216H385.467V172.512H380.535V175.392H387.231V176.688ZM405.638 178.02H394.604V172.44H396.134V176.724H405.638V178.02ZM399.104 169.182V164.214H394.334V169.182H399.104ZM400.616 170.478H392.822V162.918H400.616V170.478ZM405.098 173.79H403.586V162.252H405.098V166.014H407.294V167.346H405.098V173.79ZM421.488 178.11H410.004V174.24H419.616V172.926H410.004V171.684H421.128V175.446H411.516V176.85H421.488V178.11ZM423.126 170.226H408.006V168.984H423.126V170.226ZM421.308 167.616H410.004V162.72H421.128V163.962H411.516V166.374H421.308V167.616ZM437.626 178.29H436.114V169.92H432.964C432.964 172.584 432.1 175.77 428.86 175.77C426.268 175.77 424.9 173.574 424.774 170.658C424.738 169.848 424.738 169.02 424.774 168.21C424.9 165.294 426.268 163.098 428.86 163.098C431.866 163.098 432.964 166.014 432.964 168.588H436.114V162.252H437.626V178.29ZM428.86 174.474C430.498 174.474 431.362 172.89 431.47 170.658C431.506 169.848 431.506 169.02 431.47 168.21C431.362 165.978 430.498 164.394 428.86 164.394C427.222 164.394 426.358 165.978 426.25 168.21C426.214 169.02 426.214 169.848 426.25 170.658C426.358 172.89 427.222 174.474 428.86 174.474ZM459.02 176.508H443.9V175.212H459.02V176.508ZM457.346 171.432H445.934V163.35H457.076V164.646H447.446V170.136H457.346V171.432ZM473.52 178.29H472.008V162.252H473.52V178.29ZM471.018 173.574V174.834C469.074 175.176 466.32 175.23 464.088 175.23H461.064V168.552H467.346V164.736H461.064V163.458H468.858V169.812H462.576V173.934H464.088C466.32 173.934 468.966 173.88 471.018 173.574ZM491.188 176.688H476.068V175.392H481.846V169.344H483.394V175.392H491.188V176.688ZM488.344 173.088H486.868C487.534 170.568 487.822 167.13 487.858 164.718H477.778V163.422H489.406C489.406 166.482 489.082 170.424 488.344 173.088ZM502.502 174.204L501.638 175.32C499.73 174.276 497.894 172.44 497.102 170.622C496.346 172.584 494.618 174.42 492.458 175.752L491.45 174.708C494.006 173.196 496.274 170.424 496.274 167.022V164.934H492.674V163.638H501.548V164.934H497.858V167.058C497.858 170.46 500.162 172.98 502.502 174.204ZM505.13 178.29H503.618V162.252H505.13V168.48H507.524V169.848H505.13V178.29ZM523.591 176.85V175.05H516.085V176.85H523.591ZM525.103 178.092H514.573V172.134H516.085V173.844H523.591V172.134H525.103V178.092ZM525.139 171.342H523.627V162.252H525.139V166.266H527.335V167.562H525.139V171.342ZM519.649 163.458H514.555V162.234H519.649V163.458ZM521.935 165.69H512.287V164.43H521.935V165.69ZM521.197 168.894C521.197 170.334 519.541 171.378 517.111 171.378C514.681 171.378 513.025 170.334 513.025 168.894C513.025 167.454 514.681 166.41 517.111 166.41C519.541 166.41 521.197 167.454 521.197 168.894ZM519.685 168.894C519.685 168.102 518.731 167.598 517.111 167.598C515.491 167.598 514.537 168.102 514.537 168.894C514.537 169.686 515.491 170.19 517.111 170.19C518.731 170.19 519.685 169.686 519.685 168.894ZM541.583 178.29H540.071V162.252H541.583V178.29ZM539.081 173.286V174.564C537.137 174.906 534.383 174.96 532.151 174.96H529.271V163.368H530.783V173.646H532.151C534.383 173.646 537.029 173.592 539.081 173.286ZM557.127 178.29H555.615V162.252H557.127V168.21H559.503V169.578H557.127V178.29ZM554.715 173.196V174.474C552.771 174.906 550.017 175.05 547.785 175.05H545.103V163.638H552.879V164.934H546.615V173.736H547.785C550.017 173.736 552.663 173.592 554.715 173.196ZM562.159 176.94C561.547 176.94 561.061 176.454 561.061 175.842C561.061 175.23 561.547 174.744 562.159 174.744C562.771 174.744 563.257 175.23 563.257 175.842C563.257 176.454 562.771 176.94 562.159 176.94ZM140.617 196.794L149.905 192.042V193.572L141.697 197.766L149.905 201.978V203.508L140.617 198.756V196.794ZM164.968 205.29H163.456V189.252H164.968V195.39H167.344V196.758H164.968V205.29ZM156.508 202.77C153.916 202.77 152.602 200.574 152.476 197.658C152.44 196.848 152.44 196.02 152.476 195.21C152.602 192.294 153.916 190.098 156.508 190.098C159.1 190.098 160.414 192.294 160.54 195.21C160.576 196.02 160.576 196.848 160.54 197.658C160.414 200.574 159.1 202.77 156.508 202.77ZM156.508 201.474C158.146 201.474 158.956 199.89 159.064 197.658C159.1 196.848 159.1 196.02 159.064 195.21C158.956 192.978 158.146 191.394 156.508 191.394C154.87 191.394 154.06 192.978 153.952 195.21C153.916 196.02 153.916 196.848 153.952 197.658C154.06 199.89 154.87 201.474 156.508 201.474ZM178.658 201.204L177.794 202.32C175.886 201.276 174.014 199.404 173.222 197.586C172.466 199.548 170.702 201.42 168.56 202.752L167.534 201.69C170.09 200.196 172.394 197.424 172.394 194.022V191.934H168.758V190.638H177.704V191.934H173.978V194.058C173.978 197.46 176.318 199.98 178.658 201.204ZM181.592 205.29H180.08V189.252H181.592V205.29ZM199.26 203.508H184.14V202.212H199.26V203.508ZM197.406 199.512H186.174V190.242H197.226V191.52H187.686V194.202H197.136V195.462H187.686V198.216H197.406V199.512ZM205.786 204.138V205.47C203.086 205.218 200.908 203.112 200.908 198.648V195.822C200.908 191.394 203.086 189.27 205.786 189V190.368C204.004 190.566 202.492 192.258 202.492 195.786V198.72C202.492 202.212 204.004 203.94 205.786 204.138ZM218.332 203.796H216.64L215.29 199.98H209.728L208.36 203.796H206.686L211.51 190.674H213.49L218.332 203.796ZM212.5 192.15L210.196 198.72H214.84L212.5 192.15ZM225.837 197.532H219.249V196.128H225.837V197.532ZM236.993 192.024L229.685 202.446H237.299V203.796H227.849V202.446L235.157 192.024H227.975V190.674H236.993V192.024ZM241.329 203.796H239.799V190.674H241.329V203.796ZM243.126 190.674H253.728V192.024H249.21V203.796H247.662V192.024H243.126V190.674ZM254.685 205.452V204.138C256.467 203.94 257.997 202.212 257.997 198.72V195.786C257.997 192.258 256.467 190.566 254.685 190.368V189.018C257.385 189.27 259.581 191.394 259.581 195.822V198.648C259.581 203.112 257.385 205.218 254.685 205.452ZM262.173 193.572V192.042L271.461 196.794V198.756L262.173 203.508V201.978L270.381 197.766L262.173 193.572ZM288.486 198.342H273.366V197.064H288.486V198.342ZM287.028 205.02H275.364V199.962H276.894V203.724H287.028V205.02ZM286.758 195.084H275.364V189.45H276.876V193.806H286.758V195.084ZM307.163 205.092H295.913V199.566H297.425V201.078H305.651V199.566H307.163V205.092ZM301.115 191.808C301.115 193.284 299.585 194.436 297.569 194.436C295.553 194.436 294.023 193.284 294.023 191.808C294.023 190.332 295.553 189.18 297.569 189.18C299.585 189.18 301.115 190.332 301.115 191.808ZM304.211 198.846H302.735V198.198H299.801V197.01H302.735V189.432H304.211V198.846ZM307.199 198.846H305.705V189.252H307.199V198.846ZM298.217 198.846H296.669V196.38H293.519V195.156H297.083C298.811 195.156 300.791 195.066 301.925 194.85V196.038C301.043 196.218 299.621 196.326 298.217 196.362V198.846ZM305.651 203.868V202.266H297.425V203.868H305.651ZM299.675 191.808C299.675 191.016 298.829 190.404 297.569 190.404C296.309 190.404 295.463 191.016 295.463 191.808C295.463 192.6 296.309 193.212 297.569 193.212C298.829 193.212 299.675 192.6 299.675 191.808ZM324.381 197.298H309.261V196.056H324.381V197.298ZM322.743 205.11H311.259V201.24H320.871V199.926H311.259V198.684H322.383V202.446H312.771V203.85H322.743V205.11ZM322.779 192.042C322.779 194.796 318.873 194.922 316.821 194.922C314.769 194.922 310.863 194.796 310.863 192.042C310.863 189.288 314.769 189.162 316.821 189.162C318.873 189.162 322.779 189.288 322.779 192.042ZM321.267 192.042C321.267 191.124 320.295 190.476 317.937 190.404C317.271 190.386 316.371 190.386 315.705 190.404C313.347 190.476 312.375 191.124 312.375 192.042C312.375 192.96 313.347 193.608 315.705 193.68C316.371 193.698 317.271 193.698 317.937 193.68C320.295 193.608 321.267 192.96 321.267 192.042ZM344.191 198.81H329.071V197.55H335.947V196.02H331.069V189.612H342.193V190.872H332.581V192.168H342.103V193.392H332.581V194.742H342.373V196.02H337.495V197.55H344.191V198.81ZM342.589 202.68C342.589 205.416 338.665 205.47 336.631 205.47C334.597 205.47 330.673 205.416 330.673 202.68C330.673 199.944 334.597 199.89 336.631 199.89C338.665 199.89 342.589 199.944 342.589 202.68ZM341.077 202.68C341.077 201.726 340.105 201.222 337.747 201.15C337.081 201.132 336.181 201.132 335.515 201.15C333.157 201.222 332.185 201.726 332.185 202.68C332.185 203.634 333.157 204.138 335.515 204.21C336.181 204.228 337.081 204.228 337.747 204.21C340.105 204.138 341.077 203.634 341.077 202.68ZM353.543 194.022H345.245V192.726H353.543V194.022ZM351.707 191.448H347.207V190.152H351.707V191.448ZM349.475 202.788C347.477 202.788 345.875 201.132 345.875 198.936C345.875 196.74 347.477 195.084 349.475 195.084C351.473 195.084 353.075 196.74 353.075 198.936C353.075 201.132 351.473 202.788 349.475 202.788ZM349.475 201.528C350.789 201.528 351.599 200.448 351.599 198.936C351.599 197.424 350.789 196.344 349.475 196.344C348.161 196.344 347.351 197.424 347.351 198.936C347.351 200.448 348.161 201.528 349.475 201.528ZM359.285 205.29H357.791V197.604H355.883V204.624H354.407V189.432H355.883V196.2H357.791V189.252H359.285V205.29ZM378.124 201.276H376.612V189.252H378.124V194.022H380.428V195.354H378.124V201.276ZM378.664 205.02H367.45V200.178H368.98V203.724H378.664V205.02ZM375.892 196.956V198.198C374.2 198.504 371.914 198.594 369.628 198.594H365.128V197.316H368.62V193.59H370.132V197.316C372.166 197.316 374.326 197.226 375.892 196.956ZM373.696 195.912H372.256C372.58 194.472 372.796 192.456 372.796 191.142H365.902V189.864H374.344C374.308 191.988 374.092 194.436 373.696 195.912ZM395 198.558H393.506V194.526H391.418V198.558H389.942V189.432H391.418V193.194H393.506V189.252H395V198.558ZM394.964 205.38H393.452V200.646H383.534V199.35H394.964V205.38ZM381.932 198.45L381.05 197.352C384.254 196.074 386.522 193.734 386.828 191.25H381.986V189.954H388.484C388.484 194.31 385.01 197.118 381.932 198.45ZM408.798 200.7V201.96C407.124 202.302 405 202.41 402.714 202.41H397.656V201.114H402.714C404.892 201.114 407.16 201.006 408.798 200.7ZM411.03 205.29H409.518V189.252H411.03V205.29ZM407.34 194.274C407.34 196.614 405.414 198.504 402.894 198.504C400.374 198.504 398.448 196.614 398.448 194.274C398.448 191.934 400.374 190.044 402.894 190.044C405.414 190.044 407.34 191.934 407.34 194.274ZM402.894 197.208C404.712 197.208 405.828 195.858 405.828 194.274C405.828 192.672 404.712 191.34 402.894 191.34C401.076 191.34 399.96 192.672 399.96 194.274C399.96 195.858 401.076 197.208 402.894 197.208ZM432.064 200.07H425.26V205.29H423.748V200.07H416.944V198.774H432.064V200.07ZM427.546 190.548H421.462V189.27H427.546V190.548ZM431.434 196.29L430.66 197.478C428.302 197.208 425.71 196.2 424.504 194.706C423.298 196.2 420.706 197.208 418.348 197.478L417.574 196.29C420.454 195.966 423.334 194.76 423.694 193.104H418.51V191.844H430.498V193.104H425.314C425.674 194.76 428.554 195.966 431.434 196.29ZM446.744 198.558H445.232V194.13H442.154C441.884 196.074 440.282 197.586 437.888 197.586C435.26 197.586 433.568 195.768 433.568 193.554C433.568 191.34 435.332 189.522 437.888 189.522C440.156 189.522 441.812 190.962 442.136 192.834H445.232V189.252H446.744V198.558ZM440.696 193.554C440.696 192.042 439.652 190.818 437.888 190.818C436.124 190.818 435.08 192.042 435.08 193.554C435.08 195.03 436.124 196.29 437.888 196.29C439.652 196.29 440.696 195.03 440.696 193.554ZM446.708 205.38H445.196V200.646H435.638V199.35H446.708V205.38ZM464.232 197.298H449.112V196.056H464.232V197.298ZM462.594 205.11H451.11V201.24H460.722V199.926H451.11V198.684H462.234V202.446H452.622V203.85H462.594V205.11ZM462.63 192.042C462.63 194.796 458.724 194.922 456.672 194.922C454.62 194.922 450.714 194.796 450.714 192.042C450.714 189.288 454.62 189.162 456.672 189.162C458.724 189.162 462.63 189.288 462.63 192.042ZM461.118 192.042C461.118 191.124 460.146 190.476 457.788 190.404C457.122 190.386 456.222 190.386 455.556 190.404C453.198 190.476 452.226 191.124 452.226 192.042C452.226 192.96 453.198 193.608 455.556 193.68C456.222 193.698 457.122 193.698 457.788 193.68C460.146 193.608 461.118 192.96 461.118 192.042ZM484.043 197.91H468.923V196.632H484.043V197.91ZM482.405 205.11H470.921V199.602H482.135V200.88H472.433V203.832H482.405V205.11ZM482.225 195.048H470.921V189.72H482.045V190.998H472.433V193.77H482.225V195.048ZM500.127 203.688H485.007V202.392H490.785V196.344H492.333V202.392H500.127V203.688ZM497.283 200.088H495.807C496.473 197.568 496.761 194.13 496.797 191.718H486.717V190.422H498.345C498.345 193.482 498.021 197.424 497.283 200.088ZM503.467 206.766H501.883V201.6H503.467V206.766ZM58.9508 230.796H57.2588L55.9088 226.98H50.3468L48.9788 230.796H47.3048L52.1288 217.674H54.1088L58.9508 230.796ZM53.1188 219.15L50.8148 225.72H55.4588L53.1188 219.15ZM62.2258 230.796H60.6958V217.674H62.2258V230.796ZM83.1034 225.99H76.5694V229.104H75.0574V225.99H67.9834V224.712H83.1034V225.99ZM81.6454 232.02H69.9814V227.322H71.5114V230.724H81.6454V232.02ZM81.1054 223.092H69.9814V216.36H71.4934V218.574H79.5934V216.36H81.1054V223.092ZM79.5934 221.814V219.798H71.4934V221.814H79.5934ZM94.2374 223.56L93.4454 224.712C91.7174 224.046 89.9174 222.642 89.0894 221.166C88.4054 222.642 86.6054 224.298 84.6074 225.216L83.6534 224.118C86.2094 223.002 88.2614 220.842 88.2614 218.358V216.558H89.8454V218.34C89.8454 220.878 91.9694 222.678 94.2374 223.56ZM97.7474 232.38H96.2354V227.718H86.6774V226.422H97.7474V232.38ZM97.7834 225.63H96.2714V220.5H92.5814V219.204H96.2714V216.252H97.7834V225.63ZM115.271 224.298H100.151V223.056H115.271V224.298ZM113.633 232.11H102.149V228.24H111.761V226.926H102.149V225.684H113.273V229.446H103.661V230.85H113.633V232.11ZM113.669 219.042C113.669 221.796 109.763 221.922 107.711 221.922C105.659 221.922 101.753 221.796 101.753 219.042C101.753 216.288 105.659 216.162 107.711 216.162C109.763 216.162 113.669 216.288 113.669 219.042ZM112.157 219.042C112.157 218.124 111.185 217.476 108.827 217.404C108.161 217.386 107.261 217.386 106.595 217.404C104.237 217.476 103.265 218.124 103.265 219.042C103.265 219.96 104.237 220.608 106.595 220.68C107.261 220.698 108.161 220.698 108.827 220.68C111.185 220.608 112.157 219.96 112.157 219.042ZM135.082 225.81H119.962V224.55H126.838V223.02H121.96V216.612H133.084V217.872H123.472V219.168H132.994V220.392H123.472V221.742H133.264V223.02H128.386V224.55H135.082V225.81ZM133.48 229.68C133.48 232.416 129.556 232.47 127.522 232.47C125.488 232.47 121.564 232.416 121.564 229.68C121.564 226.944 125.488 226.89 127.522 226.89C129.556 226.89 133.48 226.944 133.48 229.68ZM131.968 229.68C131.968 228.726 130.996 228.222 128.638 228.15C127.972 228.132 127.072 228.132 126.406 228.15C124.048 228.222 123.076 228.726 123.076 229.68C123.076 230.634 124.048 231.138 126.406 231.21C127.072 231.228 127.972 231.228 128.638 231.21C130.996 231.138 131.968 230.634 131.968 229.68ZM144.434 221.022H136.136V219.726H144.434V221.022ZM142.598 218.448H138.098V217.152H142.598V218.448ZM140.366 229.788C138.368 229.788 136.766 228.132 136.766 225.936C136.766 223.74 138.368 222.084 140.366 222.084C142.364 222.084 143.966 223.74 143.966 225.936C143.966 228.132 142.364 229.788 140.366 229.788ZM140.366 228.528C141.68 228.528 142.49 227.448 142.49 225.936C142.49 224.424 141.68 223.344 140.366 223.344C139.052 223.344 138.242 224.424 138.242 225.936C138.242 227.448 139.052 228.528 140.366 228.528ZM150.176 232.29H148.682V224.604H146.774V231.624H145.298V216.432H146.774V223.2H148.682V216.252H150.176V232.29ZM169.032 225.558H167.52V216.252H169.032V220.23H171.228V221.562H169.032V225.558ZM168.996 232.38H167.484V227.646H158.106V226.35H168.996V232.38ZM156.684 225.396L155.838 224.262C159.978 223.11 162.462 220.806 163.002 218.214H156.936V216.918H164.73C164.586 221.454 160.554 224.262 156.684 225.396ZM182.29 228.204L181.426 229.32C179.518 228.276 177.682 226.44 176.89 224.622C176.134 226.584 174.406 228.42 172.246 229.752L171.238 228.708C173.794 227.196 176.062 224.424 176.062 221.022V218.934H172.462V217.638H181.336V218.934H177.646V221.058C177.646 224.46 179.95 226.98 182.29 228.204ZM184.918 232.29H183.406V216.252H184.918V222.48H187.312V223.848H184.918V232.29ZM199.688 227.7V228.96C198.014 229.302 195.89 229.41 193.604 229.41H188.546V228.114H193.604C195.782 228.114 198.05 228.006 199.688 227.7ZM201.92 232.29H200.408V216.252H201.92V232.29ZM198.23 221.274C198.23 223.614 196.304 225.504 193.784 225.504C191.264 225.504 189.338 223.614 189.338 221.274C189.338 218.934 191.264 217.044 193.784 217.044C196.304 217.044 198.23 218.934 198.23 221.274ZM193.784 224.208C195.602 224.208 196.718 222.858 196.718 221.274C196.718 219.672 195.602 218.34 193.784 218.34C191.966 218.34 190.85 219.672 190.85 221.274C190.85 222.858 191.966 224.208 193.784 224.208ZM221.371 232.29H219.859V216.252H221.371V232.29ZM212.605 229.77C210.013 229.77 208.645 227.574 208.519 224.658C208.483 223.848 208.483 223.02 208.519 222.21C208.645 219.294 210.013 217.098 212.605 217.098C215.197 217.098 216.565 219.294 216.691 222.21C216.727 223.02 216.727 223.848 216.691 224.658C216.565 227.574 215.197 229.77 212.605 229.77ZM212.605 228.474C214.243 228.474 215.107 226.89 215.215 224.658C215.251 223.848 215.251 223.02 215.215 222.21C215.107 219.978 214.243 218.394 212.605 218.394C210.967 218.394 210.103 219.978 209.995 222.21C209.959 223.02 209.959 223.848 209.995 224.658C210.103 226.89 210.967 228.474 212.605 228.474ZM236.915 232.29H235.403V216.252H236.915V219.798H239.201V221.13H236.915V225.144H239.201V226.476H236.915V232.29ZM228.455 229.77C225.863 229.77 224.549 227.574 224.423 224.658C224.387 223.848 224.387 223.02 224.423 222.21C224.549 219.294 225.863 217.098 228.455 217.098C231.047 217.098 232.361 219.294 232.487 222.21C232.523 223.02 232.523 223.848 232.487 224.658C232.361 227.574 231.047 229.77 228.455 229.77ZM228.455 228.474C230.093 228.474 230.903 226.89 231.011 224.658C231.047 223.848 231.047 223.02 231.011 222.21C230.903 219.978 230.093 218.394 228.455 218.394C226.817 218.394 226.007 219.978 225.899 222.21C225.863 223.02 225.863 223.848 225.899 224.658C226.007 226.89 226.817 228.474 228.455 228.474ZM253.539 232.29H252.027V216.252H253.539V232.29ZM241.371 230.094L240.399 229.05C244.467 226.674 246.969 222.822 247.257 218.934H241.227V217.638H248.877C248.841 223.434 245.331 227.718 241.371 230.094ZM267.085 231.624H265.609V224.046H263.593C263.593 226.332 262.999 229.752 260.083 229.752C257.761 229.752 256.717 227.556 256.591 224.64C256.555 223.83 256.555 223.11 256.591 222.3C256.717 219.384 257.761 217.188 260.083 217.188C262.909 217.188 263.593 220.464 263.593 222.714H265.609V216.432H267.085V231.624ZM260.083 228.456C261.451 228.456 262.027 226.872 262.135 224.64C262.171 223.83 262.171 223.11 262.135 222.3C262.027 220.068 261.451 218.484 260.083 218.484C258.715 218.484 258.139 220.068 258.031 222.3C257.995 223.11 257.995 223.83 258.031 224.64C258.139 226.872 258.715 228.456 260.083 228.456ZM270.127 232.29H268.633V216.252H270.127V232.29ZM284.591 223.686H276.797V216.918H284.591V223.686ZM290.081 231.084L289.397 232.272C287.201 231.804 284.717 230.454 283.781 228.96C282.845 230.454 280.361 231.804 278.165 232.272L277.481 231.084C280.181 230.562 282.827 228.888 282.971 227.16H278.309V225.882H289.253V227.16H284.573C284.717 228.888 287.381 230.562 290.081 231.084ZM283.079 222.408V218.196H278.309V222.408H283.079ZM289.073 225.018H287.561V216.252H289.073V219.6H291.269V220.932H289.073V225.018ZM307.101 225.342H291.981V224.064H307.101V225.342ZM305.643 232.02H293.979V226.962H295.509V230.724H305.643V232.02ZM305.373 222.084H293.979V216.45H295.491V220.806H305.373V222.084ZM326.912 230.688H311.792V229.392H318.578V225.828C318.506 225.828 318.452 225.81 318.398 225.81C315.428 225.612 313.448 223.794 313.448 221.31C313.448 218.826 315.428 217.008 318.398 216.81C319.01 216.774 319.694 216.774 320.306 216.81C323.222 217.008 325.256 218.826 325.256 221.31C325.256 223.794 323.222 225.612 320.306 225.81C320.234 225.81 320.18 225.828 320.126 225.828V229.392H326.912V230.688ZM323.78 221.31C323.78 219.69 322.484 218.25 320.306 218.106C319.694 218.07 319.01 218.07 318.398 218.106C316.22 218.25 314.924 219.69 314.924 221.31C314.924 222.93 316.22 224.37 318.398 224.514C319.01 224.55 319.694 224.55 320.306 224.514C322.484 224.37 323.78 222.93 323.78 221.31ZM341.232 226.512H329.91V221.202H339.36V218.52H329.91V217.242H340.872V222.462H331.422V225.216H341.232V226.512ZM342.996 230.508H327.876V229.212H342.996V230.508ZM357.442 232.11H345.958V228.042H355.57V226.53H345.958V225.288H357.082V229.248H347.47V230.85H357.442V232.11ZM359.08 223.704H343.96V222.462H349.972V219.582H351.52V222.462H359.08V223.704ZM356.758 221.472H355.282C355.606 220.356 355.75 219.024 355.786 217.962H345.634V216.72H357.334C357.298 218.736 357.082 220.284 356.758 221.472ZM372.842 220.518C372.842 222.786 371.06 224.514 368.486 224.514C365.912 224.514 364.13 222.786 364.13 220.518C364.13 218.25 365.912 216.522 368.486 216.522C371.06 216.522 372.842 218.25 372.842 220.518ZM371.33 220.518C371.33 218.97 370.268 217.818 368.486 217.818C366.704 217.818 365.642 218.97 365.642 220.518C365.642 222.066 366.704 223.218 368.486 223.218C370.268 223.218 371.33 222.066 371.33 220.518ZM376.946 225.558H375.434V216.252H376.946V219.87H379.142V221.202H376.946V225.558ZM376.91 232.38H375.398V227.646H366.02V226.35H376.91V232.38ZM394.974 230.688H379.854V229.392H386.64V225.972H381.888V217.17H383.4V220.176H391.428V217.17H392.94V225.972H388.188V229.392H394.974V230.688ZM391.428 224.676V221.454H383.4V224.676H391.428ZM409.42 232.11H397.936V228.474H407.548V227.376H397.936V226.152H409.06V229.662H399.448V230.868H409.42V232.11ZM409.33 222.516H397.936V218.952H407.458V217.836H397.936V216.612H408.97V220.14H399.448V221.274H409.33V222.516ZM411.058 224.91H395.938V223.686H411.058V224.91ZM429.789 225.738H428.295V221.256H426.459V225.018H424.983V216.432H426.459V219.924H428.295V216.252H429.789V225.738ZM430.095 229.23C430.095 230.976 428.583 232.362 425.217 232.452C424.551 232.47 423.831 232.47 423.165 232.452C419.799 232.362 418.287 230.976 418.287 229.23C418.287 227.484 419.799 226.098 423.165 226.008C423.831 225.99 424.551 225.99 425.217 226.008C428.583 226.098 430.095 227.484 430.095 229.23ZM428.583 229.23C428.583 227.286 425.631 227.25 424.191 227.25C422.751 227.25 419.799 227.286 419.799 229.23C419.799 231.174 422.751 231.21 424.191 231.21C425.631 231.21 428.583 231.174 428.583 229.23ZM424.317 223.524L423.489 224.604C422.013 223.794 420.681 222.498 420.033 221.166C419.529 222.606 418.089 224.118 416.433 225.108L415.461 224.1C417.621 222.858 419.241 220.626 419.241 218.07V216.684H420.789V218.07C420.789 220.734 422.481 222.606 424.317 223.524ZM445.837 229.356C445.837 231.102 444.325 232.362 441.139 232.452C440.815 232.47 440.455 232.47 440.113 232.47C439.771 232.47 439.429 232.47 439.087 232.452C435.901 232.362 434.389 231.102 434.389 229.356C434.389 227.61 435.901 226.35 439.087 226.26C439.429 226.242 439.771 226.242 440.113 226.242C440.455 226.242 440.815 226.242 441.139 226.26C444.325 226.35 445.837 227.61 445.837 229.356ZM444.325 229.356C444.325 227.52 441.481 227.502 440.113 227.502C438.745 227.502 435.901 227.52 435.901 229.356C435.901 231.192 438.745 231.21 440.113 231.21C441.481 231.21 444.325 231.192 444.325 229.356ZM442.003 223.56L441.211 224.712C439.483 224.046 437.683 222.642 436.855 221.166C436.171 222.642 434.371 224.298 432.373 225.216L431.419 224.118C433.975 223.002 436.027 220.842 436.027 218.358V216.558H437.611V218.34C437.611 220.878 439.735 222.678 442.003 223.56ZM445.549 225.864H444.037V220.5H440.347V219.204H444.037V216.252H445.549V225.864ZM456.989 226.17C456.989 228.33 455.387 230.166 452.957 230.166C450.527 230.166 448.925 228.33 448.925 226.17C448.925 224.01 450.527 222.174 452.957 222.174C455.387 222.174 456.989 224.01 456.989 226.17ZM460.913 232.29H459.401V216.252H460.913V223.398H463.289V224.766H460.913V232.29ZM457.817 221.058H448.097V219.762H457.817V221.058ZM455.405 218.286H450.509V216.99H455.405V218.286ZM452.957 228.906C454.595 228.906 455.477 227.7 455.477 226.17C455.477 224.64 454.595 223.434 452.957 223.434C451.319 223.434 450.437 224.64 450.437 226.17C450.437 227.7 451.319 228.906 452.957 228.906ZM479.121 225.342H464.001V224.064H479.121V225.342ZM477.663 232.02H465.999V226.962H467.529V230.724H477.663V232.02ZM477.393 222.084H465.999V216.45H467.511V220.806H477.393V222.084ZM498.932 230.508H483.812V229.212H498.932V230.508ZM497.654 225.612H485.09V224.316H487.502L487.376 218.628H485.45V217.35H497.294V218.628H495.368L495.224 224.316H497.654V225.612ZM493.73 224.316L493.874 218.628H488.87L488.996 224.316H493.73ZM515.015 230.688H499.895V229.392H506.771V226.512H501.929V221.202H511.379V218.52H501.929V217.242H512.891V222.462H503.441V225.216H513.251V226.512H508.319V229.392H515.015V230.688ZM524.547 223.758L523.737 224.856C522.315 224.082 520.947 222.858 520.263 221.49C519.759 222.93 518.319 224.37 516.645 225.36L515.691 224.334C517.959 223.11 519.471 220.842 519.471 218.682V218.232H516.735V216.954H523.773V218.232H521.019V218.682C521.019 220.95 522.639 222.822 524.547 223.758ZM529.983 232.38H528.471V227.718H518.553V226.422H529.983V232.38ZM527.139 225.63H525.663V221.148H523.125V219.852H525.663V216.432H527.139V225.63ZM530.019 225.63H528.525V216.252H530.019V225.63ZM547.183 230.508H532.063V229.212H547.183V230.508ZM545.329 226.512H534.097V217.242H545.149V218.52H535.609V221.202H545.059V222.462H535.609V225.216H545.329V226.512ZM560.315 230.814V228.708H552.629V230.814H560.315ZM561.827 232.092H551.117V225.414H552.629V227.466H560.315V225.414H561.827V232.092ZM561.863 224.622H560.351V216.252H561.863V224.622ZM557.471 220.428C557.471 222.552 555.689 224.316 553.115 224.316C550.541 224.316 548.759 222.552 548.759 220.428C548.759 218.304 550.541 216.54 553.115 216.54C555.689 216.54 557.471 218.304 557.471 220.428ZM555.959 220.428C555.959 219.006 554.879 217.8 553.115 217.8C551.351 217.8 550.271 219.006 550.271 220.428C550.271 221.85 551.351 223.056 553.115 223.056C554.879 223.056 555.959 221.85 555.959 220.428ZM577.767 232.29H576.255V216.252H577.767V232.29ZM575.265 227.286V228.564C573.321 228.906 570.567 228.96 568.335 228.96H565.455V217.368H566.967V227.646H568.335C570.567 227.646 573.213 227.592 575.265 227.286ZM593.311 232.29H591.799V216.252H593.311V222.21H595.687V223.578H593.311V232.29ZM590.899 227.196V228.474C588.955 228.906 586.201 229.05 583.969 229.05H581.287V217.638H589.063V218.934H582.799V227.736H583.969C586.201 227.736 588.847 227.592 590.899 227.196ZM598.343 230.94C597.731 230.94 597.245 230.454 597.245 229.842C597.245 229.23 597.731 228.744 598.343 228.744C598.955 228.744 599.441 229.23 599.441 229.842C599.441 230.454 598.955 230.94 598.343 230.94Z" fill="#6D606B"/>
</svg>
