<svg width="276" height="32" viewBox="0 0 276 32" fill="none" xmlns="http://www.w3.org/2000/svg">
<path d="M26.1102 22.54H22.1202V10.3249H17.1502C16.4502 14.2099 13.0902 17.115 8.64516 17.115C3.60516 17.115 0.000156336 13.405 0.000156336 8.78495C0.000156336 4.16495 3.60516 0.45495 8.64516 0.45495C12.9152 0.45495 16.1702 3.11495 17.0452 6.75495H22.1202V-5.06639e-05H26.1102V22.54ZM26.8102 30.8H4.93516V19.88H8.99516V27.3H26.8102V30.8ZM8.64516 13.615C11.5152 13.615 13.3002 11.445 13.3002 8.78495C13.3002 6.12495 11.5152 3.95495 8.64516 3.95495C5.77516 3.95495 3.99016 6.12495 3.99016 8.78495C3.99016 11.445 5.77516 13.615 8.64516 13.615ZM47.2696 22.995L44.9946 25.76C42.0196 23.52 39.7096 20.51 38.6596 17.535C37.6096 20.79 34.9496 24.08 31.6596 26.705L28.8596 24.045C33.2696 20.93 36.5596 15.47 36.5596 9.06495V6.19495H31.3446V2.62495H45.8346V6.19495H40.6196V9.06495C40.6196 15.12 43.7696 20.44 47.2696 22.995ZM52.4496 30.03H48.5996V14.595H44.3646V10.885H48.5996V0.349949H52.4496V30.03ZM58.1896 31.325H54.2696V-5.06639e-05H58.1896V31.325ZM83.794 21.805V25.305C80.539 25.9 76.059 26.075 71.614 26.075H62.654V22.505H71.614C75.849 22.505 80.609 22.33 83.794 21.805ZM89.009 31.325H85.019V-5.06639e-05H89.009V31.325ZM81.694 9.97495C81.694 14.49 78.124 18.515 72.874 18.515C67.624 18.515 64.054 14.49 64.054 9.97495C64.054 5.45995 67.624 1.43495 72.874 1.43495C78.124 1.43495 81.694 5.45995 81.694 9.97495ZM72.874 14.945C76.094 14.945 77.704 12.53 77.704 9.97495C77.704 7.41995 76.094 5.00495 72.874 5.00495C69.654 5.00495 68.044 7.41995 68.044 9.97495C68.044 12.53 69.654 14.945 72.874 14.945ZM126.727 31.325H122.737V-5.06639e-05H126.727V31.325ZM103.067 27.16L100.442 24.325C108.247 20.125 112.902 13.265 113.462 6.19495H102.367V2.62495H117.662C117.732 14.525 111.047 22.575 103.067 27.16ZM158.351 18.165H154.361V10.08H149.321C148.586 13.825 145.296 16.625 140.886 16.625C135.881 16.625 132.311 13.02 132.311 8.53995C132.311 4.05995 135.881 0.45495 140.886 0.45495C145.086 0.45495 148.306 3.04495 149.216 6.50995H154.361V-5.06639e-05H158.351V18.165ZM158.281 31.5H154.291V23.065H136.336V19.565H158.281V31.5ZM145.471 8.53995C145.471 6.01995 143.721 3.95495 140.886 3.95495C138.051 3.95495 136.301 6.01995 136.301 8.53995C136.301 11.06 138.051 13.125 140.886 13.125C143.721 13.125 145.471 11.06 145.471 8.53995ZM189.626 22.54H185.636V-5.06639e-05H189.626V22.54ZM190.326 30.8H168.451V19.88H172.511V27.3H190.326V30.8ZM181.156 8.71495C181.156 13.335 177.376 16.975 172.336 16.975C167.296 16.975 163.516 13.335 163.516 8.71495C163.516 4.09495 167.296 0.45495 172.336 0.45495C177.376 0.45495 181.156 4.09495 181.156 8.71495ZM177.166 8.71495C177.166 6.05495 175.206 3.95495 172.336 3.95495C169.466 3.95495 167.506 6.05495 167.506 8.71495C167.506 11.3749 169.466 13.475 172.336 13.475C175.206 13.475 177.166 11.3749 177.166 8.71495ZM196.54 27.16L193.915 24.325C201.72 20.125 206.165 13.265 206.725 6.19495H195.84V2.62495H210.925C210.995 14.525 204.45 22.575 196.54 27.16ZM219.5 31.325H215.51V-5.06639e-05H219.5V12.005H223.98V15.715H219.5V31.325ZM251.615 9.79995C251.615 14.875 247.66 18.27 241.99 18.655C240.8 18.725 239.19 18.725 238 18.655C232.33 18.27 228.375 14.875 228.375 9.79995C228.375 4.72495 232.33 1.32995 238 0.94495C239.19 0.874951 240.8 0.874951 241.99 0.94495C247.66 1.32995 251.615 4.72495 251.615 9.79995ZM254.765 28.28H225.225V24.71H231.42V19.215H235.48V24.71H244.51V19.215H248.57V24.71H254.765V28.28ZM247.485 9.79995C247.485 7.13995 245.525 4.79495 241.99 4.51495C241.395 4.44495 240.695 4.44495 239.995 4.44495C239.295 4.44495 238.595 4.44495 238 4.51495C234.465 4.79495 232.505 7.13995 232.505 9.79995C232.505 12.46 234.465 14.805 238 15.085C238.595 15.12 239.295 15.155 239.995 15.155C240.695 15.155 241.395 15.12 241.99 15.085C245.525 14.805 247.485 12.46 247.485 9.79995ZM267.454 20.195H263.429C262.904 17.43 264.164 15.575 266.964 13.9649C269.239 12.705 270.919 11.3749 270.919 9.44995C270.919 7.41995 268.854 5.80995 266.334 5.80995C263.744 5.80995 261.679 7.62995 261.679 9.79995H257.514C257.514 5.28495 261.469 2.20495 266.334 2.20495C271.164 2.20495 275.119 5.10995 275.119 9.30995C275.119 13.125 272.879 14.63 268.819 17.08C267.454 17.885 266.999 18.76 267.454 20.195ZM265.774 28.525C264.269 28.525 263.114 27.405 263.114 25.9C263.114 24.395 264.269 23.24 265.774 23.24C267.279 23.24 268.434 24.395 268.434 25.9C268.434 27.405 267.279 28.525 265.774 28.525Z" fill="#E6EDEA"/>
</svg>
