<svg width="567" height="84" viewBox="0 0 567 84" fill="none" xmlns="http://www.w3.org/2000/svg">
<path d="M26.95 22.54H22.96V10.3249H17.99C17.29 14.2099 13.93 17.115 9.485 17.115C4.445 17.115 0.84 13.405 0.84 8.78495C0.84 4.16495 4.445 0.45495 9.485 0.45495C13.755 0.45495 17.01 3.11495 17.885 6.75495H22.96V-5.06639e-05H26.95V22.54ZM27.65 30.8H5.775V19.88H9.835V27.3H27.65V30.8ZM9.485 13.615C12.355 13.615 14.14 11.445 14.14 8.78495C14.14 6.12495 12.355 3.95495 9.485 3.95495C6.615 3.95495 4.83 6.12495 4.83 8.78495C4.83 11.445 6.615 13.615 9.485 13.615ZM48.1094 22.995L45.8344 25.76C42.8594 23.52 40.5494 20.51 39.4994 17.535C38.4494 20.79 35.7894 24.08 32.4994 26.705L29.6994 24.045C34.1094 20.93 37.3994 15.47 37.3994 9.06495V6.19495H32.1844V2.62495H46.6744V6.19495H41.4594V9.06495C41.4594 15.12 44.6094 20.44 48.1094 22.995ZM53.2894 30.03H49.4394V14.595H45.2044V10.885H49.4394V0.349949H53.2894V30.03ZM59.0294 31.325H55.1094V-5.06639e-05H59.0294V31.325ZM84.6338 21.805V25.305C81.3788 25.9 76.8988 26.075 72.4538 26.075H63.4938V22.505H72.4538C76.6888 22.505 81.4488 22.33 84.6338 21.805ZM89.8488 31.325H85.8588V-5.06639e-05H89.8488V31.325ZM82.5338 9.97495C82.5338 14.49 78.9638 18.515 73.7138 18.515C68.4638 18.515 64.8938 14.49 64.8938 9.97495C64.8938 5.45995 68.4638 1.43495 73.7138 1.43495C78.9638 1.43495 82.5338 5.45995 82.5338 9.97495ZM73.7138 14.945C76.9338 14.945 78.5438 12.53 78.5438 9.97495C78.5438 7.41995 76.9338 5.00495 73.7138 5.00495C70.4938 5.00495 68.8838 7.41995 68.8838 9.97495C68.8838 12.53 70.4938 14.945 73.7138 14.945ZM127.567 31.325H123.577V-5.06639e-05H127.567V31.325ZM103.907 27.16L101.282 24.325C109.087 20.125 113.742 13.265 114.302 6.19495H103.207V2.62495H118.502C118.572 14.525 111.887 22.575 103.907 27.16ZM159.191 18.165H155.201V10.08H150.161C149.426 13.825 146.136 16.625 141.726 16.625C136.721 16.625 133.151 13.02 133.151 8.53995C133.151 4.05995 136.721 0.45495 141.726 0.45495C145.926 0.45495 149.146 3.04495 150.056 6.50995H155.201V-5.06639e-05H159.191V18.165ZM159.121 31.5H155.131V23.065H137.176V19.565H159.121V31.5ZM146.311 8.53995C146.311 6.01995 144.561 3.95495 141.726 3.95495C138.891 3.95495 137.141 6.01995 137.141 8.53995C137.141 11.06 138.891 13.125 141.726 13.125C144.561 13.125 146.311 11.06 146.311 8.53995ZM190.466 22.54H186.476V-5.06639e-05H190.466V22.54ZM191.166 30.8H169.291V19.88H173.351V27.3H191.166V30.8ZM181.996 8.71495C181.996 13.335 178.216 16.975 173.176 16.975C168.136 16.975 164.356 13.335 164.356 8.71495C164.356 4.09495 168.136 0.45495 173.176 0.45495C178.216 0.45495 181.996 4.09495 181.996 8.71495ZM178.006 8.71495C178.006 6.05495 176.046 3.95495 173.176 3.95495C170.306 3.95495 168.346 6.05495 168.346 8.71495C168.346 11.3749 170.306 13.475 173.176 13.475C176.046 13.475 178.006 11.3749 178.006 8.71495ZM197.38 27.16L194.755 24.325C202.56 20.125 207.005 13.265 207.565 6.19495H196.68V2.62495H211.765C211.835 14.525 205.29 22.575 197.38 27.16ZM220.34 31.325H216.35V-5.06639e-05H220.34V12.005H224.82V15.715H220.34V31.325ZM252.454 9.79995C252.454 14.875 248.499 18.27 242.829 18.655C241.639 18.725 240.029 18.725 238.839 18.655C233.169 18.27 229.214 14.875 229.214 9.79995C229.214 4.72495 233.169 1.32995 238.839 0.94495C240.029 0.874951 241.639 0.874951 242.829 0.94495C248.499 1.32995 252.454 4.72495 252.454 9.79995ZM255.604 28.28H226.064V24.71H232.259V19.215H236.319V24.71H245.349V19.215H249.409V24.71H255.604V28.28ZM248.324 9.79995C248.324 7.13995 246.364 4.79495 242.829 4.51495C242.234 4.44495 241.534 4.44495 240.834 4.44495C240.134 4.44495 239.434 4.44495 238.839 4.51495C235.304 4.79495 233.344 7.13995 233.344 9.79995C233.344 12.46 235.304 14.805 238.839 15.085C239.434 15.12 240.134 15.155 240.834 15.155C241.534 15.155 242.234 15.12 242.829 15.085C246.364 14.805 248.324 12.46 248.324 9.79995ZM268.294 20.195H264.269C263.744 17.43 265.004 15.575 267.804 13.9649C270.079 12.705 271.759 11.3749 271.759 9.44995C271.759 7.41995 269.694 5.80995 267.174 5.80995C264.584 5.80995 262.519 7.62995 262.519 9.79995H258.354C258.354 5.28495 262.309 2.20495 267.174 2.20495C272.004 2.20495 275.959 5.10995 275.959 9.30995C275.959 13.125 273.719 14.63 269.659 17.08C268.294 17.885 267.839 18.76 268.294 20.195ZM266.614 28.525C265.109 28.525 263.954 27.405 263.954 25.9C263.954 24.395 265.109 23.24 266.614 23.24C268.119 23.24 269.274 24.395 269.274 25.9C269.274 27.405 268.119 28.525 266.614 28.525ZM29.54 80.21H1.30385e-08V76.64H19.67C21 71.005 22.015 63.27 22.155 57.775H3.185V54.205H26.215C26.005 61.5549 25.095 70.375 23.695 76.64H29.54V80.21ZM65.018 83.325H61.028V51.9999H65.018V83.325ZM41.358 79.16L38.733 76.325C46.538 72.125 51.193 65.265 51.753 58.195H40.658V54.6249H55.953C56.023 66.525 49.338 74.575 41.358 79.16ZM96.6424 70.165H92.6524V62.08H87.6124C86.8774 65.825 83.5874 68.625 79.1774 68.625C74.1724 68.625 70.6024 65.02 70.6024 60.5399C70.6024 56.0599 74.1724 52.4549 79.1774 52.4549C83.3774 52.4549 86.5974 55.0449 87.5074 58.51H92.6524V51.9999H96.6424V70.165ZM96.5724 83.5H92.5824V75.065H74.6274V71.565H96.5724V83.5ZM83.7624 60.5399C83.7624 58.02 82.0124 55.955 79.1774 55.955C76.3424 55.955 74.5924 58.02 74.5924 60.5399C74.5924 63.06 76.3424 65.125 79.1774 65.125C82.0124 65.125 83.7624 63.06 83.7624 60.5399ZM122.667 82.03H118.817V67.61H115.877C115.877 72.37 114.722 78.53 108.772 78.53C103.662 78.53 101.947 74.19 101.702 68.52C101.632 66.945 101.632 65.335 101.702 63.76C101.947 58.09 103.662 53.7499 108.772 53.7499C113.882 53.7499 115.597 58.09 115.842 63.76V63.97H118.817V52.3499H122.667V82.03ZM128.547 83.325H124.627V51.9999H128.547V83.325ZM108.772 74.96C110.662 74.96 111.782 72.86 111.992 68.52C112.062 66.945 112.062 65.335 111.992 63.76C111.782 59.4199 110.662 57.3199 108.772 57.3199C106.882 57.3199 105.762 59.4199 105.552 63.76C105.482 65.335 105.482 66.945 105.552 68.52C105.762 72.86 106.882 74.96 108.772 74.96ZM166.79 83.325H162.87V67.05H159.86V82.03H156.01V52.3499H159.86V63.27H162.87V51.9999H166.79V83.325ZM154.75 73.14V76.675C151.915 77.165 149.185 77.235 146.63 77.235H141.345V54.7649H153.245V58.3349H145.265V73.63H146.63C149.255 73.63 152.055 73.56 154.75 73.14ZM198.414 83.325H194.494V68.625H191.834V81.855H187.984V52.5249H191.834V64.845H194.494V51.9999H198.414V83.325ZM178.989 78.425C174.894 78.425 171.779 75.24 171.779 70.865C171.779 66.49 174.894 63.305 178.989 63.305C183.084 63.305 186.199 66.49 186.199 70.865C186.199 75.24 183.084 78.425 178.989 78.425ZM186.934 62.15H170.974V58.58H186.934V62.15ZM178.989 74.925C180.984 74.925 182.349 73.385 182.349 70.865C182.349 68.345 180.984 66.805 178.989 66.805C176.994 66.805 175.629 68.345 175.629 70.865C175.629 73.385 176.994 74.925 178.989 74.925ZM183.749 56.8299H174.299V53.2599H183.749V56.8299ZM229.447 74.715L227.102 77.76C223.532 75.73 220.452 72.58 218.807 69.115C217.512 72.58 214.222 76.08 210.197 78.6L207.502 75.765C212.682 72.79 216.637 67.47 216.637 60.96V58.195H209.952V54.6249H227.452V58.195H220.767V61.0299C220.767 67.26 224.722 72.23 229.447 74.715ZM234.592 83.325H230.602V51.9999H234.592V63.655H239.107V67.365H234.592V83.325ZM266.357 59.6299C266.357 63.55 263.487 67.015 257.047 67.19C255.752 67.225 254.492 67.225 253.197 67.19C246.757 67.015 243.887 63.55 243.887 59.6299C243.887 55.7099 246.757 52.245 253.197 52.07C254.492 52.0349 255.752 52.0349 257.047 52.07C263.487 52.245 266.357 55.7099 266.357 59.6299ZM262.927 83.325H258.867V72.895H251.377V83.045H247.317V72.895H240.352V69.325H269.892V72.895H262.927V83.325ZM262.227 59.6299C262.227 57.6349 260.932 55.7099 257.047 55.5699C256.417 55.5349 255.752 55.5349 255.122 55.5349C254.492 55.5349 253.862 55.5349 253.197 55.5699C249.312 55.7099 248.017 57.6349 248.017 59.6299C248.017 61.625 249.312 63.55 253.197 63.69C253.862 63.69 254.492 63.725 255.122 63.725C255.752 63.725 256.417 63.69 257.047 63.69C260.932 63.55 262.227 61.625 262.227 59.6299ZM301.166 80.56H271.626V76.99H284.471V72.44H275.441V61.2399H293.186V57.39H275.441V53.855H297.176V64.74H279.431V68.87H297.876V72.44H288.671V76.99H301.166V80.56ZM329.5 83.325H325.51V51.9999H329.5V83.325ZM312.385 78.705C306.995 78.705 304.16 74.365 303.915 68.695C303.845 67.12 303.845 65.1599 303.915 63.585C304.16 57.915 306.995 53.5749 312.385 53.5749C317.775 53.5749 320.61 57.915 320.855 63.585C320.925 65.1599 320.925 67.12 320.855 68.695C320.61 74.365 317.775 78.705 312.385 78.705ZM312.385 75.135C314.87 75.135 316.655 73.035 316.865 68.695C316.935 67.12 316.935 65.1599 316.865 63.585C316.655 59.2449 314.87 57.1449 312.385 57.1449C309.9 57.1449 308.115 59.2449 307.905 63.585C307.835 65.1599 307.835 67.12 307.905 68.695C308.115 73.035 309.9 75.135 312.385 75.135ZM367.918 83.325H363.928V51.9999H367.918V83.325ZM350.803 78.705C345.413 78.705 342.578 74.365 342.333 68.695C342.263 67.12 342.263 65.1599 342.333 63.585C342.578 57.915 345.413 53.5749 350.803 53.5749C356.193 53.5749 359.028 57.915 359.273 63.585C359.343 65.1599 359.343 67.12 359.273 68.695C359.028 74.365 356.193 78.705 350.803 78.705ZM350.803 75.135C353.288 75.135 355.073 73.035 355.283 68.695C355.353 67.12 355.353 65.1599 355.283 63.585C355.073 59.2449 353.288 57.1449 350.803 57.1449C348.318 57.1449 346.533 59.2449 346.323 63.585C346.253 65.1599 346.253 67.12 346.323 68.695C346.533 73.035 348.318 75.135 350.803 75.135ZM381.623 78.705C376.233 78.705 373.503 74.365 373.258 68.695C373.188 67.12 373.188 65.1599 373.258 63.585C373.503 57.915 376.233 53.5749 381.623 53.5749C387.013 53.5749 389.743 57.915 389.988 63.585C390.058 65.1599 390.058 67.12 389.988 68.695C389.743 74.365 387.013 78.705 381.623 78.705ZM398.143 83.325H394.153V51.9999H398.143V59.1399H402.448V62.78H398.143V69.885H402.448V73.525H398.143V83.325ZM381.623 75.135C384.108 75.135 385.788 73.035 385.998 68.695C386.068 67.12 386.068 65.1599 385.998 63.585C385.788 59.2449 384.108 57.1449 381.623 57.1449C379.138 57.1449 377.458 59.2449 377.248 63.585C377.178 65.1599 377.178 67.12 377.248 68.695C377.458 73.035 379.138 75.135 381.623 75.135ZM430.467 83.325H426.477V51.9999H430.467V83.325ZM406.807 79.16L404.182 76.325C411.987 72.125 416.642 65.265 417.202 58.195H406.107V54.6249H421.402C421.472 66.525 414.787 74.575 406.807 79.16ZM462.897 83.325H458.977V68.625H456.317V81.855H452.467V52.5249H456.317V64.845H458.977V51.9999H462.897V83.325ZM443.472 78.425C439.377 78.425 436.262 75.24 436.262 70.865C436.262 66.49 439.377 63.305 443.472 63.305C447.567 63.305 450.682 66.49 450.682 70.865C450.682 75.24 447.567 78.425 443.472 78.425ZM451.417 62.15H435.457V58.58H451.417V62.15ZM443.472 74.925C445.467 74.925 446.832 73.385 446.832 70.865C446.832 68.345 445.467 66.805 443.472 66.805C441.477 66.805 440.112 68.345 440.112 70.865C440.112 73.385 441.477 74.925 443.472 74.925ZM448.232 56.8299H438.782V53.2599H448.232V56.8299ZM495.046 64.145L492.806 67.365C488.081 66.35 483.426 63.83 481.186 60.7499C478.946 63.83 474.291 66.35 469.566 67.365L467.326 64.145C473.171 62.885 478.036 59.9449 478.981 56.6549H469.741V53.0849H492.631V56.6549H483.391C484.336 59.9449 489.166 62.885 495.046 64.145ZM495.956 73.245H483.251V83.325H479.121V73.245H466.416V69.675H495.956V73.245ZM514.595 74.855L512.32 77.62C509.345 75.38 506.965 72.44 505.915 69.395C504.865 72.65 502.205 75.94 498.845 78.565L496.045 75.905C500.455 72.79 503.815 67.33 503.815 60.925V54.0649H507.875V60.925C507.875 67.05 511.025 72.3 514.595 74.855ZM519.705 82.03H515.855V65.475H511.27V61.765H515.855V52.3499H519.705V82.03ZM525.445 83.325H521.525V51.9999H525.445V83.325ZM555.355 61.8C555.355 66.875 551.4 70.27 545.73 70.655C544.54 70.725 542.93 70.725 541.74 70.655C536.07 70.27 532.115 66.875 532.115 61.8C532.115 56.7249 536.07 53.3299 541.74 52.9449C542.93 52.875 544.54 52.875 545.73 52.9449C551.4 53.3299 555.355 56.7249 555.355 61.8ZM558.505 80.28H528.965V76.71H535.16V71.215H539.22V76.71H548.25V71.215H552.31V76.71H558.505V80.28ZM551.225 61.8C551.225 59.1399 549.265 56.795 545.73 56.5149C545.135 56.445 544.435 56.445 543.735 56.445C543.035 56.445 542.335 56.445 541.74 56.5149C538.205 56.795 536.245 59.1399 536.245 61.8C536.245 64.46 538.205 66.805 541.74 67.085C542.335 67.12 543.035 67.155 543.735 67.155C544.435 67.155 545.135 67.12 545.73 67.085C549.265 66.805 551.225 64.46 551.225 61.8ZM566.084 72.09H562.479L561.849 54.7649H566.679L566.084 72.09ZM564.299 80.525C562.794 80.525 561.639 79.405 561.639 77.9C561.639 76.395 562.794 75.24 564.299 75.24C565.804 75.24 566.959 76.395 566.959 77.9C566.959 79.405 565.804 80.525 564.299 80.525Z" fill="#E6EDEA"/>
</svg>
