<svg xmlns="http://www.w3.org/2000/svg" version="1.1" xmlns:xlink="http://www.w3.org/1999/xlink" width="800" height="200" viewBox="0 0 800 200"><line x1="20" y1="20" x2="780" y2="20" stroke-width="1" stroke="#cccccc"></line><line x1="20" y1="30" x2="780" y2="30" stroke-width="1" stroke="#cccccc"></line><line x1="20" y1="40" x2="780" y2="40" stroke-width="1" stroke="#cccccc"></line><line x1="20" y1="50" x2="780" y2="50" stroke-width="1" stroke="#cccccc"></line><line x1="20" y1="60" x2="780" y2="60" stroke-width="2" stroke="#cccccc"></line><line x1="20" y1="70" x2="780" y2="70" stroke-width="1" stroke="#cccccc"></line><line x1="20" y1="80" x2="780" y2="80" stroke-width="2" stroke="#cccccc"></line><line x1="20" y1="90" x2="780" y2="90" stroke-width="1" stroke="#cccccc"></line><line x1="20" y1="100" x2="780" y2="100" stroke-width="2" stroke="#cccccc"></line><line x1="20" y1="110" x2="780" y2="110" stroke-width="1" stroke="#cccccc"></line><line x1="20" y1="120" x2="780" y2="120" stroke-width="2" stroke="#cccccc"></line><line x1="20" y1="130" x2="780" y2="130" stroke-width="1" stroke="#cccccc"></line><line x1="20" y1="140" x2="780" y2="140" stroke-width="2" stroke="#cccccc"></line><line x1="20" y1="150" x2="780" y2="150" stroke-width="1" stroke="#cccccc"></line><line x1="20" y1="160" x2="780" y2="160" stroke-width="1" stroke="#cccccc"></line><circle r="3" cx="20.477686989314897" cy="60" fill="black"></circle><circle r="3" cx="34.808296668761784" cy="80" fill="black"></circle><circle r="3" cx="49.13890634820868" cy="70" fill="black"></circle><circle r="3" cx="63.469516027655565" cy="90" fill="black"></circle><circle r="3" cx="77.80012570710245" cy="20" fill="black"></circle><circle r="3" cx="92.13073538654935" cy="70" fill="black"></circle><circle r="3" cx="106.46134506599623" cy="40" fill="black"></circle><circle r="3" cx="120.79195474544312" cy="90" fill="black"></circle><circle r="3" cx="135.12256442489002" cy="140" fill="black"></circle><circle r="3" cx="149.45317410433688" cy="60" fill="black"></circle><circle r="3" cx="163.7837837837838" cy="40" fill="black"></circle><circle r="3" cx="178.11439346323067" cy="110" fill="black"></circle><circle r="3" cx="192.44500314267756" cy="60" fill="black"></circle><circle r="3" cx="206.77561282212446" cy="90" fill="black"></circle><circle r="3" cx="221.10622250157132" cy="40" fill="black"></circle><circle r="3" cx="235.43683218101825" cy="70" fill="black"></circle><circle r="3" cx="249.7674418604651" cy="110" fill="black"></circle><circle r="3" cx="264.09805153991203" cy="20" fill="black"></circle><circle r="3" cx="278.4286612193589" cy="90" fill="black"></circle><circle r="3" cx="292.75927089880577" cy="90" fill="black"></circle><circle r="3" cx="307.0898805782527" cy="40" fill="black"></circle><circle r="3" cx="321.42049025769956" cy="90" fill="black"></circle><circle r="3" cx="335.7510999371465" cy="60" fill="black"></circle><circle r="3" cx="350.08170961659334" cy="90" fill="black"></circle><circle r="3" cx="364.4123192960402" cy="160" fill="black"></circle><circle r="3" cx="378.74292897548713" cy="90" fill="black"></circle><circle r="3" cx="393.073538654934" cy="70" fill="black"></circle><circle r="3" cx="407.40414833438086" cy="90" fill="black"></circle><circle r="3" cx="421.7347580138278" cy="100" fill="black"></circle><circle r="3" cx="436.06536769327465" cy="100" fill="black"></circle><circle r="3" cx="450.3959773727215" cy="90" fill="black"></circle><circle r="3" cx="464.7265870521685" cy="140" fill="black"></circle><circle r="3" cx="479.05719673161536" cy="100" fill="black"></circle><circle r="3" cx="493.38780641106223" cy="90" fill="black"></circle><circle r="3" cx="507.7184160905091" cy="70" fill="black"></circle><circle r="3" cx="522.049025769956" cy="140" fill="black"></circle><circle r="3" cx="536.3796354494029" cy="90" fill="black"></circle><circle r="3" cx="550.7102451288498" cy="60" fill="black"></circle><circle r="3" cx="565.0408548082967" cy="70" fill="black"></circle><circle r="3" cx="579.3714644877435" cy="90" fill="black"></circle><circle r="3" cx="593.7020741671904" cy="140" fill="black"></circle><circle r="3" cx="608.0326838466373" cy="40" fill="black"></circle><circle r="3" cx="622.3632935260842" cy="90" fill="black"></circle><circle r="3" cx="636.6939032055311" cy="110" fill="black"></circle><circle r="3" cx="651.024512884978" cy="40" fill="black"></circle><circle r="3" cx="665.355122564425" cy="20" fill="black"></circle><circle r="3" cx="679.6857322438718" cy="160" fill="black"></circle><circle r="3" cx="694.0163419233187" cy="70" fill="black"></circle><circle r="3" cx="708.3469516027656" cy="110" fill="black"></circle><circle r="3" cx="722.6775612822124" cy="20" fill="black"></circle><circle r="3" cx="737.0081709616593" cy="140" fill="black"></circle><circle r="3" cx="751.3387806411062" cy="70" fill="black"></circle><circle r="3" cx="765.6693903205531" cy="90" fill="black"></circle><circle r="3" cx="780" cy="20" fill="black"></circle></svg>