<svg xmlns="http://www.w3.org/2000/svg" version="1.1" xmlns:xlink="http://www.w3.org/1999/xlink" width="800" height="200" viewBox="0 0 800 200"><line x1="20" y1="20" x2="780" y2="20" stroke-width="1" stroke="#cccccc"></line><line x1="20" y1="30" x2="780" y2="30" stroke-width="1" stroke="#cccccc"></line><line x1="20" y1="40" x2="780" y2="40" stroke-width="1" stroke="#cccccc"></line><line x1="20" y1="50" x2="780" y2="50" stroke-width="1" stroke="#cccccc"></line><line x1="20" y1="60" x2="780" y2="60" stroke-width="2" stroke="#cccccc"></line><line x1="20" y1="70" x2="780" y2="70" stroke-width="1" stroke="#cccccc"></line><line x1="20" y1="80" x2="780" y2="80" stroke-width="2" stroke="#cccccc"></line><line x1="20" y1="90" x2="780" y2="90" stroke-width="1" stroke="#cccccc"></line><line x1="20" y1="100" x2="780" y2="100" stroke-width="2" stroke="#cccccc"></line><line x1="20" y1="110" x2="780" y2="110" stroke-width="1" stroke="#cccccc"></line><line x1="20" y1="120" x2="780" y2="120" stroke-width="2" stroke="#cccccc"></line><line x1="20" y1="130" x2="780" y2="130" stroke-width="1" stroke="#cccccc"></line><line x1="20" y1="140" x2="780" y2="140" stroke-width="2" stroke="#cccccc"></line><line x1="20" y1="150" x2="780" y2="150" stroke-width="1" stroke="#cccccc"></line><line x1="20" y1="160" x2="780" y2="160" stroke-width="1" stroke="#cccccc"></line><circle r="3" cx="20.316534777176177" cy="110" fill="black"></circle><circle r="3" cx="29.812578092461475" cy="160" fill="black"></circle><circle r="3" cx="39.30862140774677" cy="130" fill="black"></circle><circle r="3" cx="48.804664723032076" cy="160" fill="black"></circle><circle r="3" cx="58.30070803831737" cy="130" fill="black"></circle><circle r="3" cx="67.79675135360267" cy="80" fill="black"></circle><circle r="3" cx="77.29279466888796" cy="160" fill="black"></circle><circle r="3" cx="86.78883798417326" cy="130" fill="black"></circle><circle r="3" cx="96.28488129945856" cy="160" fill="black"></circle><circle r="3" cx="105.78092461474387" cy="110" fill="black"></circle><circle r="3" cx="115.27696793002916" cy="100" fill="black"></circle><circle r="3" cx="124.77301124531445" cy="140" fill="black"></circle><circle r="3" cx="134.26905456059973" cy="150" fill="black"></circle><circle r="3" cx="143.76509787588503" cy="130" fill="black"></circle><circle r="3" cx="153.26114119117034" cy="120" fill="black"></circle><circle r="3" cx="162.75718450645564" cy="150" fill="black"></circle><circle r="3" cx="172.25322782174092" cy="120" fill="black"></circle><circle r="3" cx="181.74927113702623" cy="130" fill="black"></circle><circle r="3" cx="191.24531445231153" cy="160" fill="black"></circle><circle r="3" cx="200.74135776759684" cy="100" fill="black"></circle><circle r="3" cx="210.23740108288214" cy="120" fill="black"></circle><circle r="3" cx="219.73344439816742" cy="140" fill="black"></circle><circle r="3" cx="229.22948771345276" cy="160" fill="black"></circle><circle r="3" cx="238.72553102873803" cy="100" fill="black"></circle><circle r="3" cx="248.2215743440233" cy="160" fill="black"></circle><circle r="3" cx="257.71761765930864" cy="120" fill="black"></circle><circle r="3" cx="267.21366097459395" cy="120" fill="black"></circle><circle r="3" cx="276.70970428987926" cy="160" fill="black"></circle><circle r="3" cx="286.2057476051645" cy="130" fill="black"></circle><circle r="3" cx="295.7017909204498" cy="160" fill="black"></circle><circle r="3" cx="305.1978342357351" cy="100" fill="black"></circle><circle r="3" cx="314.6938775510204" cy="160" fill="black"></circle><circle r="3" cx="324.1899208663057" cy="110" fill="black"></circle><circle r="3" cx="333.685964181591" cy="100" fill="black"></circle><circle r="3" cx="343.1820074968763" cy="150" fill="black"></circle><circle r="3" cx="352.6780508121616" cy="90" fill="black"></circle><circle r="3" cx="362.1740941274469" cy="120" fill="black"></circle><circle r="3" cx="371.6701374427322" cy="150" fill="black"></circle><circle r="3" cx="381.1661807580175" cy="110" fill="black"></circle><circle r="3" cx="390.66222407330275" cy="90" fill="black"></circle><circle r="3" cx="400.1582673885881" cy="160" fill="black"></circle><circle r="3" cx="409.65431070387336" cy="160" fill="black"></circle><circle r="3" cx="419.15035401915867" cy="100" fill="black"></circle><circle r="3" cx="428.64639733444403" cy="160" fill="black"></circle><circle r="3" cx="438.1424406497293" cy="160" fill="black"></circle><circle r="3" cx="447.6384839650146" cy="150" fill="black"></circle><circle r="3" cx="457.13452728029984" cy="110" fill="black"></circle><circle r="3" cx="466.63057059558514" cy="150" fill="black"></circle><circle r="3" cx="476.1266139108705" cy="90" fill="black"></circle><circle r="3" cx="485.6226572261558" cy="160" fill="black"></circle><circle r="3" cx="495.11870054144106" cy="110" fill="black"></circle><circle r="3" cx="504.61474385672636" cy="90" fill="black"></circle><circle r="3" cx="514.1107871720117" cy="100" fill="black"></circle><circle r="3" cx="523.606830487297" cy="150" fill="black"></circle><circle r="3" cx="533.1028738025823" cy="140" fill="black"></circle><circle r="3" cx="542.5989171178676" cy="150" fill="black"></circle><circle r="3" cx="552.0949604331529" cy="110" fill="black"></circle><circle r="3" cx="561.5910037484381" cy="140" fill="black"></circle><circle r="3" cx="571.0870470637235" cy="90" fill="black"></circle><circle r="3" cx="580.5830903790088" cy="160" fill="black"></circle><circle r="3" cx="590.079133694294" cy="110" fill="black"></circle><circle r="3" cx="599.5751770095793" cy="160" fill="black"></circle><circle r="3" cx="609.0712203248646" cy="90" fill="black"></circle><circle r="3" cx="618.5672636401499" cy="110" fill="black"></circle><circle r="3" cx="628.0633069554352" cy="140" fill="black"></circle><circle r="3" cx="637.5593502707205" cy="160" fill="black"></circle><circle r="3" cx="647.0553935860058" cy="110" fill="black"></circle><circle r="3" cx="656.5514369012911" cy="100" fill="black"></circle><circle r="3" cx="666.0474802165764" cy="140" fill="black"></circle><circle r="3" cx="675.5435235318618" cy="130" fill="black"></circle><circle r="3" cx="685.0395668471471" cy="160" fill="black"></circle><circle r="3" cx="694.5356101624322" cy="100" fill="black"></circle><circle r="3" cx="704.0316534777176" cy="90" fill="black"></circle><circle r="3" cx="713.527696793003" cy="110" fill="black"></circle><circle r="3" cx="723.0237401082883" cy="160" fill="black"></circle><circle r="3" cx="732.5197834235735" cy="130" fill="black"></circle><circle r="3" cx="742.0158267388588" cy="110" fill="black"></circle><circle r="3" cx="751.5118700541441" cy="90" fill="black"></circle><circle r="3" cx="761.0079133694294" cy="160" fill="black"></circle><circle r="3" cx="770.5039566847147" cy="130" fill="black"></circle><circle r="3" cx="780" cy="110" fill="black"></circle></svg>