<svg width="529" height="36" viewBox="0 0 529 36" fill="none" xmlns="http://www.w3.org/2000/svg">
<rect width="529" height="36" fill="#6D606B"/>
<path d="M53.6245 10.216H67.9765V12.856H62.3365V27.76H59.2885V12.856H53.6245V10.216ZM78.6109 16.312V14.608H81.5149V27.76H78.6109V25.864C77.7229 27.376 76.1629 28.12 74.4349 28.12H74.4109C71.4109 28.12 68.9869 26.08 68.9869 22.12V20.248C68.9869 16.288 71.4109 14.2 74.4109 14.2H74.4349C76.1629 14.2 77.7229 14.872 78.6109 16.312ZM75.1549 25.696H75.2029C76.9069 25.696 78.6109 24.328 78.6109 21.592V20.776C78.6109 18.016 76.9069 16.648 75.2029 16.648H75.1549C73.3549 16.648 71.8909 17.872 71.8909 20.584V21.784C71.8909 24.472 73.3549 25.696 75.1549 25.696ZM91.4413 14.2H91.4653C94.6333 14.2 97.4653 16.24 97.4653 20.536V21.952H87.9853V22.168C87.9853 24.544 89.5933 25.84 91.5373 25.84H91.5853C93.3133 25.84 94.5853 24.928 94.7293 23.44H97.4653C97.2253 25.816 95.1613 28.144 91.5373 28.144H91.5133C88.0093 28.144 85.1053 25.96 85.1053 21.832V20.536C85.1053 16.36 88.1293 14.2 91.4413 14.2ZM91.4413 16.528H91.4173C89.6893 16.528 88.0813 17.728 87.9853 20.008H94.6093C94.5853 17.632 93.1933 16.528 91.4413 16.528ZM108.13 14.176H108.154C111.058 14.176 113.458 16.24 113.458 20.152V27.76H110.554V20.536C110.554 17.872 109.162 16.624 107.362 16.624H107.338C105.634 16.624 104.002 17.848 104.002 20.728V27.76H101.098V9.592H104.002V16.264C104.938 14.872 106.474 14.176 108.13 14.176ZM123.28 14.2H123.304C126.472 14.2 129.304 16.24 129.304 20.536V21.952H119.824V22.168C119.824 24.544 121.432 25.84 123.376 25.84H123.424C125.152 25.84 126.424 24.928 126.568 23.44H129.304C129.064 25.816 127 28.144 123.376 28.144H123.352C119.848 28.144 116.944 25.96 116.944 21.832V20.536C116.944 16.36 119.968 14.2 123.28 14.2ZM123.28 16.528H123.256C121.528 16.528 119.92 17.728 119.824 20.008H126.448C126.424 17.632 125.032 16.528 123.28 16.528ZM138.625 14.2H138.649C141.817 14.2 144.649 16.24 144.649 20.536V21.952H135.169V22.168C135.169 24.544 136.777 25.84 138.721 25.84H138.769C140.497 25.84 141.769 24.928 141.913 23.44H144.649C144.409 25.816 142.345 28.144 138.721 28.144H138.697C135.193 28.144 132.289 25.96 132.289 21.832V20.536C132.289 16.36 135.313 14.2 138.625 14.2ZM138.625 16.528H138.601C136.873 16.528 135.265 17.728 135.169 20.008H141.793C141.769 17.632 140.377 16.528 138.625 16.528ZM160.956 19.216L168.348 27.76H164.436L157.068 19.072V27.76H154.02V10.216H157.068V18.664L164.532 10.216H168.084L160.956 18.256L160.572 18.712L160.956 19.216ZM172.206 12.616C171.222 12.616 170.382 11.824 170.382 10.792C170.382 9.76 171.222 8.992 172.206 8.992C173.19 8.992 174.054 9.76 174.054 10.792C174.054 11.824 173.19 12.616 172.206 12.616ZM173.646 27.76H170.742V14.608H173.646V27.76ZM180.674 27.76H177.77V14.584H180.674V16.288C181.586 14.848 183.146 14.2 184.778 14.2H184.802C186.842 14.2 188.57 15.184 189.338 17.128C190.202 15.112 191.978 14.2 193.922 14.2H193.946C196.682 14.2 198.914 16.048 198.914 19.576V27.76H196.034V19.96C196.034 17.704 194.762 16.648 193.082 16.648H193.058C191.378 16.648 189.77 17.8 189.77 20.608V27.76H186.89V19.96C186.89 17.704 185.618 16.648 183.962 16.648H183.938C182.282 16.648 180.674 17.8 180.674 20.608V27.76ZM235.702 23.152C235.702 21.928 235.222 20.944 231.958 20.272L230.398 19.936C226.99 19.216 225.334 17.608 225.334 15.016C225.334 11.872 227.926 9.832 231.718 9.832H231.742C235.438 9.832 238.174 12.136 238.438 15.784H235.558C235.27 13.552 233.782 12.304 231.55 12.304H231.526C229.678 12.304 228.358 13.408 228.358 14.8C228.358 16.072 229.198 16.84 231.454 17.32L233.038 17.656C237.094 18.496 238.75 20.032 238.75 22.888C238.75 25.864 235.942 28.144 231.91 28.144H231.862C228.358 28.144 225.07 25.96 224.782 22.072H227.638C227.95 24.232 229.702 25.696 232.078 25.696H232.102C234.31 25.696 235.702 24.544 235.702 23.152ZM247.895 14.2H247.919C251.087 14.2 253.919 16.24 253.919 20.536V21.952H244.439V22.168C244.439 24.544 246.047 25.84 247.991 25.84H248.039C249.767 25.84 251.039 24.928 251.183 23.44H253.919C253.679 25.816 251.615 28.144 247.991 28.144H247.967C244.463 28.144 241.559 25.96 241.559 21.832V20.536C241.559 16.36 244.583 14.2 247.895 14.2ZM247.895 16.528H247.871C246.143 16.528 244.535 17.728 244.439 20.008H251.063C251.039 17.632 249.647 16.528 247.895 16.528ZM263.12 28.144H263.072C259.832 28.144 256.904 26.008 256.904 21.88V20.488C256.904 16.336 259.832 14.2 263.072 14.2H263.12C266.384 14.2 269.288 16.336 269.288 20.488V21.88C269.288 26.008 266.384 28.144 263.12 28.144ZM263.072 25.696H263.12C264.8 25.696 266.384 24.472 266.384 22.144V20.2C266.384 17.872 264.8 16.648 263.12 16.648H263.072C261.416 16.648 259.808 17.872 259.808 20.2V22.144C259.808 24.472 261.416 25.696 263.072 25.696ZM278.153 25L281.585 14.608H284.585L279.449 28.792L278.321 32.248H275.177L276.593 28.312L271.385 14.608H274.553L278.153 25ZM296.351 14.608H299.255V27.76H296.351V26.08C295.415 27.496 293.855 28.144 292.223 28.144H292.199C289.415 28.144 287.207 26.32 287.207 22.768V14.608H290.111V22.408C290.111 24.64 291.383 25.696 293.039 25.696H293.063C294.743 25.696 296.351 24.544 296.351 21.712V14.608ZM310.501 14.2H310.525C313.285 14.2 315.517 16.048 315.517 19.576V27.76H312.637V19.96C312.637 17.704 311.365 16.648 309.685 16.648H309.661C308.005 16.648 306.397 17.824 306.397 20.608V27.76H303.493V14.608H306.397V16.288C307.309 14.872 308.869 14.2 310.501 14.2ZM335.43 23.152C335.43 21.928 334.95 20.944 331.686 20.272L330.126 19.936C326.718 19.216 325.062 17.608 325.062 15.016C325.062 11.872 327.654 9.832 331.446 9.832H331.47C335.166 9.832 337.902 12.136 338.166 15.784H335.286C334.998 13.552 333.51 12.304 331.278 12.304H331.254C329.406 12.304 328.086 13.408 328.086 14.8C328.086 16.072 328.926 16.84 331.182 17.32L332.766 17.656C336.822 18.496 338.478 20.032 338.478 22.888C338.478 25.864 335.67 28.144 331.638 28.144H331.59C328.086 28.144 324.798 25.96 324.51 22.072H327.366C327.678 24.232 329.43 25.696 331.806 25.696H331.83C334.038 25.696 335.43 24.544 335.43 23.152ZM348.967 14.176H348.991C351.895 14.176 354.295 16.24 354.295 20.152V27.76H351.391V20.536C351.391 17.872 349.999 16.624 348.199 16.624H348.175C346.471 16.624 344.839 17.848 344.839 20.728V27.76H341.935V9.592H344.839V16.264C345.775 14.872 347.311 14.176 348.967 14.176ZM359.748 12.616C358.764 12.616 357.924 11.824 357.924 10.792C357.924 9.76 358.764 8.992 359.748 8.992C360.732 8.992 361.596 9.76 361.596 10.792C361.596 11.824 360.732 12.616 359.748 12.616ZM361.188 27.76H358.284V14.608H361.188V27.76ZM372.32 14.2H372.344C375.104 14.2 377.336 16.048 377.336 19.576V27.76H374.456V19.96C374.456 17.704 373.184 16.648 371.504 16.648H371.48C369.824 16.648 368.216 17.824 368.216 20.608V27.76H365.312V14.608H368.216V16.288C369.128 14.872 370.688 14.2 372.32 14.2ZM407.768 28.144H407.744C405.032 28.144 402.68 26.392 402.68 23.152H405.56C405.56 24.712 406.592 25.552 407.72 25.552H407.744C408.872 25.552 409.904 24.808 409.904 23.128V10.216H412.976V22.936C412.976 26.368 410.6 28.144 407.768 28.144ZM418.694 12.616C417.71 12.616 416.87 11.824 416.87 10.792C416.87 9.76 417.71 8.992 418.694 8.992C419.678 8.992 420.542 9.76 420.542 10.792C420.542 11.824 419.678 12.616 418.694 12.616ZM420.134 27.76H417.23V14.608H420.134V27.76ZM429.826 28.144H429.778C426.538 28.144 423.61 26.008 423.61 21.88V20.488C423.61 16.336 426.538 14.2 429.778 14.2H429.826C433.09 14.2 435.994 16.336 435.994 20.488V21.88C435.994 26.008 433.09 28.144 429.826 28.144ZM429.778 25.696H429.826C431.506 25.696 433.09 24.472 433.09 22.144V20.2C433.09 17.872 431.506 16.648 429.826 16.648H429.778C428.122 16.648 426.514 17.872 426.514 20.2V22.144C426.514 24.472 428.122 25.696 429.778 25.696ZM456.789 10.216H460.077L453.405 21.04V27.76H450.381V21.04L443.709 10.216H447.021L451.917 18.472L456.789 10.216ZM471.114 14.608H474.018V27.76H471.114V26.08C470.178 27.496 468.618 28.144 466.986 28.144H466.962C464.178 28.144 461.97 26.32 461.97 22.768V14.608H464.874V22.408C464.874 24.64 466.146 25.696 467.802 25.696H467.826C469.506 25.696 471.114 24.544 471.114 21.712V14.608Z" fill="#E6EDEA"/>
</svg>
