<svg width="619" height="682" viewBox="0 0 619 682" fill="none" xmlns="http://www.w3.org/2000/svg">
<g clip-path="url(#clip0_1082_412)">
<rect width="619" height="682" fill="#E6EDEA"/>
<path d="M55.84 59.8L54.88 61.04C52.76 59.88 50.72 57.64 49.84 55.62C49.04 57.74 47.04 60.08 44.68 61.52L43.56 60.36C46.48 58.72 48.92 55.48 48.92 51.7V47.78H50.68V51.74C50.68 55.52 53.28 58.44 55.84 59.8ZM58.98 64.46H57.3V46.64H58.98V53.46H61.62V54.98H58.98V64.46ZM79.2111 56.7H62.4111V55.28H66.5111V52.9C64.9711 52.32 64.1911 51.32 64.1911 49.98C64.1911 46.74 68.3911 46.54 70.8111 46.54C73.2311 46.54 77.4311 46.74 77.4311 49.98C77.4311 51.32 76.6511 52.32 75.1111 52.9V55.28H79.2111V56.7ZM77.4311 61.4C77.4311 63.36 74.8911 64.82 70.8111 64.82C66.7311 64.82 64.1911 63.36 64.1911 61.4C64.1911 59.44 66.7311 57.98 70.8111 57.98C74.8911 57.98 77.4311 59.44 77.4311 61.4ZM75.7511 49.98C75.7511 48.84 74.6711 48.04 72.0511 47.96C71.3111 47.94 70.3111 47.94 69.5711 47.96C66.9511 48.04 65.8711 48.84 65.8711 49.98C65.8711 51.12 66.9511 51.92 69.5711 52C70.3111 52.02 71.3111 52.02 72.0511 52C74.6711 51.92 75.7511 51.12 75.7511 49.98ZM75.7511 61.4C75.7511 60.16 73.8111 59.4 70.8111 59.4C67.8111 59.4 65.8711 60.16 65.8711 61.4C65.8711 62.64 67.8111 63.4 70.8111 63.4C73.8111 63.4 75.7511 62.64 75.7511 61.4ZM73.4711 55.28V53.3C73.0311 53.36 72.5511 53.4 72.0511 53.4C71.3111 53.42 70.3111 53.42 69.5711 53.4C69.0511 53.4 68.5911 53.36 68.1511 53.3V55.28H73.4711ZM91.7822 59.92L90.8222 61.16C88.7022 60 86.6622 57.96 85.7822 55.94C84.9422 58.12 83.0222 60.16 80.6222 61.64L79.5022 60.48C82.3422 58.8 84.8622 55.72 84.8622 51.94V49.62H80.8622V48.18H90.7222V49.62H86.6222V51.98C86.6222 55.76 89.1822 58.56 91.7822 59.92ZM94.7022 64.46H93.0222V46.64H94.7022V53.56H97.3622V55.08H94.7022V64.46ZM114.953 56.74H98.1533V55.32H114.953V56.74ZM113.333 64.16H100.373V58.54H102.073V62.72H113.333V64.16ZM113.033 53.12H100.373V46.86H102.053V51.7H113.033V53.12ZM135.205 64.46H133.525V46.64H135.205V64.46ZM125.465 61.66C122.585 61.66 121.065 59.22 120.925 55.98C120.885 55.08 120.885 54.16 120.925 53.26C121.065 50.02 122.585 47.58 125.465 47.58C128.345 47.58 129.865 50.02 130.005 53.26C130.045 54.16 130.045 55.08 130.005 55.98C129.865 59.22 128.345 61.66 125.465 61.66ZM125.465 60.22C127.285 60.22 128.245 58.46 128.365 55.98C128.405 55.08 128.405 54.16 128.365 53.26C128.245 50.78 127.285 49.02 125.465 49.02C123.645 49.02 122.685 50.78 122.565 53.26C122.525 54.16 122.525 55.08 122.565 55.98C122.685 58.46 123.645 60.22 125.465 60.22ZM154.836 56.22H138.036V54.8H144.716V51.08H146.436V54.8H154.836V56.22ZM153.996 63.1L153.176 64.44C150.456 63.88 147.716 62.44 146.436 60.5C145.156 62.44 142.416 63.88 139.696 64.44L138.876 63.1C142.176 62.48 145.536 60.36 145.536 58.34V57.74H147.336V58.34C147.336 60.36 150.696 62.48 153.996 63.1ZM152.216 53.64H150.576C150.976 52 151.136 50.08 151.176 48.58H139.896V47.16H152.896C152.856 49.72 152.656 51.92 152.216 53.64ZM168.127 63.72H166.487V55.3H164.247C164.247 57.84 163.587 61.64 160.347 61.64C157.767 61.64 156.607 59.2 156.467 55.96C156.427 55.06 156.427 54.26 156.467 53.36C156.607 50.12 157.767 47.68 160.347 47.68C163.487 47.68 164.247 51.32 164.247 53.82H166.487V46.84H168.127V63.72ZM160.347 60.2C161.867 60.2 162.507 58.44 162.627 55.96C162.667 55.06 162.667 54.26 162.627 53.36C162.507 50.88 161.867 49.12 160.347 49.12C158.827 49.12 158.187 50.88 158.067 53.36C158.027 54.26 158.027 55.06 158.067 55.96C158.187 58.44 158.827 60.2 160.347 60.2ZM171.507 64.46H169.847V46.64H171.507V64.46ZM189.219 54.64L188.339 55.92C186.419 55.18 184.419 53.7 183.499 52.06C182.739 53.7 180.739 55.42 178.519 56.48L177.459 55.26C180.219 54.02 182.579 51.74 182.579 49.06V48.8H178.579V47.38H188.439V48.8H184.339V49.04C184.339 51.66 186.739 53.7 189.219 54.64ZM192.519 64.56H190.839V59.3H180.419V57.86H192.519V64.56ZM192.559 56.98H190.879V46.64H192.559V50.66H194.999V52.14H192.559V56.98ZM211.35 61.2C211.35 63.14 209.67 64.54 206.13 64.64C205.77 64.66 205.37 64.66 204.99 64.66C204.61 64.66 204.23 64.66 203.85 64.64C200.31 64.54 198.63 63.14 198.63 61.2C198.63 59.26 200.31 57.86 203.85 57.76C204.23 57.74 204.61 57.74 204.99 57.74C205.37 57.74 205.77 57.74 206.13 57.76C209.67 57.86 211.35 59.26 211.35 61.2ZM209.67 61.2C209.67 59.16 206.51 59.14 204.99 59.14C203.47 59.14 200.31 59.16 200.31 61.2C200.31 63.24 203.47 63.26 204.99 63.26C206.51 63.26 209.67 63.24 209.67 61.2ZM207.09 54.76L206.21 56.04C204.29 55.3 202.29 53.74 201.37 52.1C200.61 53.74 198.61 55.58 196.39 56.6L195.33 55.38C198.17 54.14 200.45 51.74 200.45 48.98V46.98H202.21V48.96C202.21 51.78 204.57 53.78 207.09 54.76ZM211.03 57.32H209.35V51.36H205.25V49.92H209.35V46.64H211.03V57.32ZM230.461 55.58H213.661V54.2H230.461V55.58ZM228.641 64.26H215.881V59.96H226.561V58.5H215.881V57.12H228.241V61.3H217.561V62.86H228.641V64.26ZM228.681 49.74C228.681 52.8 224.341 52.94 222.061 52.94C219.781 52.94 215.441 52.8 215.441 49.74C215.441 46.68 219.781 46.54 222.061 46.54C224.341 46.54 228.681 46.68 228.681 49.74ZM227.001 49.74C227.001 48.72 225.921 48 223.301 47.92C222.561 47.9 221.561 47.9 220.821 47.92C218.201 48 217.121 48.72 217.121 49.74C217.121 50.76 218.201 51.48 220.821 51.56C221.561 51.58 222.561 51.58 223.301 51.56C225.921 51.48 227.001 50.76 227.001 49.74ZM248.593 62.86V60.86H240.253V62.86H248.593ZM250.273 64.24H238.573V57.62H240.253V59.52H248.593V57.62H250.273V64.24ZM250.313 56.74H248.633V46.64H250.313V51.1H252.753V52.54H250.313V56.74ZM244.213 47.98H238.553V46.62H244.213V47.98ZM246.753 50.46H236.033V49.06H246.753V50.46ZM245.933 54.02C245.933 55.62 244.093 56.78 241.393 56.78C238.693 56.78 236.853 55.62 236.853 54.02C236.853 52.42 238.693 51.26 241.393 51.26C244.093 51.26 245.933 52.42 245.933 54.02ZM244.253 54.02C244.253 53.14 243.193 52.58 241.393 52.58C239.593 52.58 238.533 53.14 238.533 54.02C238.533 54.9 239.593 55.46 241.393 55.46C243.193 55.46 244.253 54.9 244.253 54.02ZM268.584 64.46H266.904V46.64H268.584V64.46ZM265.804 58.9V60.32C263.644 60.7 260.584 60.76 258.104 60.76H254.904V47.88H256.584V59.3H258.104C260.584 59.3 263.524 59.24 265.804 58.9ZM285.855 64.46H284.175V46.64H285.855V53.26H288.495V54.78H285.855V64.46ZM283.175 58.8V60.22C281.015 60.7 277.955 60.86 275.475 60.86H272.495V48.18H281.135V49.62H274.175V59.4H275.475C277.955 59.4 280.895 59.24 283.175 58.8ZM291.446 62.96C290.766 62.96 290.226 62.42 290.226 61.74C290.226 61.06 290.766 60.52 291.446 60.52C292.126 60.52 292.666 61.06 292.666 61.74C292.666 62.42 292.126 62.96 291.446 62.96Z" fill="#564F56"/>
</g>
<defs>
<clipPath id="clip0_1082_412">
<rect width="619" height="682" fill="white"/>
</clipPath>
</defs>
</svg>
