<svg width="736" height="35" viewBox="0 0 736 35" fill="none" xmlns="http://www.w3.org/2000/svg">
<path d="M22.0851 23.065L19.7401 26.11C16.1701 24.08 13.0201 20.93 11.3751 17.465C10.0801 20.93 6.7201 24.43 2.6951 26.95L9.76315e-05 24.115C5.1801 21.14 9.2051 15.82 9.2051 9.31V6.545H2.4501V2.975H20.0901V6.545H13.3351V9.38C13.3351 15.61 17.3601 20.58 22.0851 23.065ZM27.8251 31.675H23.8351V0.350001H27.8251V31.675ZM58.2945 31.325H36.2445V19.495H58.2945V31.325ZM62.0395 15.575H32.4995V12.075H53.6745C54.1995 9.555 54.5145 6.895 54.6545 4.69H35.6145V1.19H58.7845C58.6445 5.635 58.2595 8.96 57.6295 12.075H62.0395V15.575ZM54.3045 27.825V22.96H40.2345V27.825H54.3045ZM100.457 28.56H70.9175V24.99H90.5875C91.9175 19.355 92.9325 11.62 93.0725 6.125H74.1025V2.555H97.1325C96.9225 9.905 96.0125 18.725 94.6125 24.99H100.457V28.56ZM137.3 31.675H133.45V15.4H131.21V30.38H127.43V0.700001H131.21V11.62H133.45V0.350001H137.3V31.675ZM123.125 25.725H118.75V3.115H126.1V6.615H122.6V22.155H123.265C124.175 22.155 125.33 22.155 126.52 21.875V25.305C125.225 25.69 124.14 25.725 123.125 25.725ZM114.69 25.725H111.05V3.115H117.84V6.615H114.9V22.155H115.39C115.985 22.155 116.93 22.12 118.015 21.875V25.375C116.895 25.62 115.705 25.725 114.69 25.725ZM167.105 31.325H144.355V23.765H162.415V22.47H144.355V19.25H166.405V26.705H148.345V28.07H167.105V31.325ZM166.93 12.915H144.355V5.425H162.24V4.2H144.355V0.980001H166.23V8.365H148.345V9.66H166.93V12.915ZM170.15 17.64H140.61V14.42H170.15V17.64ZM205.978 31.675H202.058V15.365H197.508V11.725H202.058V0.350001H205.978V31.675ZM200.413 21.56V25.06C198.698 25.48 197.228 25.655 195.338 25.655H190.298V2.975H199.258V6.475H194.218V22.085H195.303C197.158 22.085 198.593 22.015 200.413 21.56ZM189.388 21.735V25.235C187.848 25.55 186.378 25.655 185.048 25.655H180.778V2.975H189.108V6.475H184.698V22.085H185.118C186.553 22.085 187.848 22.015 189.388 21.735ZM239.842 16.66H210.302V13.3H222.972V11.305C216.707 11.095 213.837 9.205 213.837 5.67C213.837 0.140002 220.977 1.54972e-06 225.072 1.54972e-06C229.167 1.54972e-06 236.307 0.140002 236.307 5.67C236.307 9.205 233.402 11.095 227.172 11.305V13.3H239.842V16.66ZM236.797 31.325H214.047V23.275H232.107V21.7H214.047V18.41H236.097V26.355H218.037V28H236.797V31.325ZM232.177 5.67C232.177 4.375 231.162 3.535 226.997 3.395C225.702 3.36 224.442 3.36 223.147 3.395C218.982 3.535 217.967 4.375 217.967 5.67C217.967 6.965 218.702 7.805 223.147 7.945C224.442 7.98 225.702 7.98 226.997 7.945C231.162 7.805 232.177 6.965 232.177 5.67ZM268.177 31.675H264.187V0.350001H268.177V31.675ZM262.717 21.42V24.92C258.797 25.69 254.142 25.865 249.837 25.865H243.537V11.83H255.052V6.16H243.537V2.625H259.042V15.33H247.527V22.295H249.837C254.072 22.295 258.517 22.12 262.717 21.42ZM299.801 22.89H295.811V14.49H290.176V17.185H274.811V1.575H290.176V4.025H295.811V0.350001H299.801V22.89ZM300.501 31.15H278.626V20.23H282.686V27.65H300.501V31.15ZM286.186 13.685V5.075H278.801V13.685H286.186ZM295.811 10.99V7.525H290.176V10.99H295.811ZM337.869 31.675H333.879V15.855H328.839C328.839 21.21 326.914 27.055 320.544 27.055C315.154 27.055 312.529 22.715 312.284 17.045C312.214 15.47 312.214 13.51 312.284 11.935C312.529 6.265 315.154 1.925 320.544 1.925C325.934 1.925 328.559 6.265 328.804 11.935V12.215H333.879V0.350001H337.869V31.675ZM320.544 23.485C323.029 23.485 324.604 21.385 324.814 17.045C324.884 15.47 324.884 13.51 324.814 11.935C324.604 7.595 323.029 5.495 320.544 5.495C318.059 5.495 316.484 7.595 316.274 11.935C316.204 13.51 316.204 15.47 316.274 17.045C316.484 21.385 318.059 23.485 320.544 23.485ZM370.543 31.15H348.668V20.37H352.728V27.65H370.543V31.15ZM369.843 23.03H365.923V11.025H361.128V7.525H365.923V0.350001H369.843V23.03ZM364.278 13.475V16.905C362.633 17.255 360.638 17.395 358.748 17.395H353.953V1.575H363.123V5.005H357.873V13.895H358.713C360.568 13.895 362.458 13.825 364.278 13.475ZM353.043 13.615V17.045C351.503 17.325 350.208 17.395 348.878 17.395H344.293V1.575H352.763V5.005H348.213V13.895H348.948C350.383 13.895 351.608 13.825 353.043 13.615ZM406.791 31.325H385.896V19.215H406.791V31.325ZM382.921 18.2L380.611 15.12C388.171 13.195 392.756 9.485 393.911 5.075H382.921V1.575H398.461C398.146 11.305 390.131 16.275 382.921 18.2ZM406.861 17.815H402.871V0.350001H406.861V7.105H410.991V10.745H406.861V17.815ZM402.801 27.825V22.68H389.886V27.825H402.801ZM439.746 25.48C439.746 31.71 433.131 32.025 428.406 32.025C423.681 32.025 417.066 31.71 417.066 25.48C417.066 19.25 423.681 18.935 428.406 18.935C433.131 18.935 439.746 19.25 439.746 25.48ZM432.431 14.245L430.296 17.36C427.111 16.065 424.101 13.825 422.456 11.2C421.161 13.895 418.011 16.625 414.196 18.34L411.676 15.47C416.926 13.195 420.251 9.31 420.286 5.075H413.601V1.575H431.101V5.075H424.416C424.416 9.24 427.881 12.495 432.431 14.245ZM439.186 18.76H435.196V10.745H430.016V7.175H435.196V0.350001H439.186V18.76ZM435.756 25.48C435.756 23.8 434.356 22.54 430.541 22.4C429.246 22.365 427.566 22.365 426.271 22.4C422.456 22.54 421.056 23.8 421.056 25.48C421.056 27.16 422.456 28.42 426.271 28.56C427.566 28.595 429.246 28.595 430.541 28.56C434.356 28.42 435.756 27.16 435.756 25.48ZM449.355 34.685H445.26V24.115H449.355V34.685ZM488.16 25.48C488.16 31.675 481.16 32.025 476.47 32.025C471.78 32.025 464.78 31.675 464.78 25.48C464.78 19.285 471.78 18.935 476.47 18.935C481.16 18.935 488.16 19.285 488.16 25.48ZM487.565 19.005H483.645V10.71H481.125V17.675H477.275V0.700001H481.125V7H483.645V0.350001H487.565V19.005ZM476.75 14.14L474.475 17.115C471.78 15.505 469.61 13.405 468.42 10.92C467.37 13.545 464.85 15.995 461.77 18.025L459.11 15.295C463.52 12.705 466.32 8.575 466.32 3.92V1.12H470.38V3.92C470.38 8.575 473.11 12.25 476.75 14.14ZM484.17 25.48C484.17 23.8 482.595 22.61 478.605 22.47C477.31 22.435 475.63 22.435 474.335 22.47C470.345 22.61 468.77 23.8 468.77 25.48C468.77 27.16 470.345 28.35 474.335 28.49C475.63 28.525 477.31 28.525 478.605 28.49C482.595 28.35 484.17 27.16 484.17 25.48ZM493.219 18.55L490.909 15.47C498.609 13.475 503.054 9.765 504.209 5.075H493.219V1.575H508.759C508.444 11.445 500.569 16.555 493.219 18.55ZM517.089 31.85H513.099V23.415H495.494V19.915H517.089V31.85ZM517.159 18.515H513.169V0.350001H517.159V7.63H521.289V11.27H517.159V18.515ZM549.134 31.675H545.144V0.350001H549.134V31.675ZM532.019 27.055C526.629 27.055 523.794 22.715 523.549 17.045C523.479 15.47 523.479 13.51 523.549 11.935C523.794 6.265 526.629 1.925 532.019 1.925C537.409 1.925 540.244 6.265 540.489 11.935C540.559 13.51 540.559 15.47 540.489 17.045C540.244 22.715 537.409 27.055 532.019 27.055ZM532.019 23.485C534.504 23.485 536.289 21.385 536.499 17.045C536.569 15.47 536.569 13.51 536.499 11.935C536.289 7.595 534.504 5.495 532.019 5.495C529.534 5.495 527.749 7.595 527.539 11.935C527.469 13.51 527.469 15.47 527.539 17.045C527.749 21.385 529.534 23.485 532.019 23.485ZM587.902 31.675H583.982V15.365H579.432V11.725H583.982V0.350001H587.902V31.675ZM582.337 21.56V25.06C580.622 25.48 579.152 25.655 577.262 25.655H572.222V2.975H581.182V6.475H576.142V22.085H577.227C579.082 22.085 580.517 22.015 582.337 21.56ZM571.312 21.735V25.235C569.772 25.55 568.302 25.655 566.972 25.655H562.702V2.975H571.032V6.475H566.622V22.085H567.042C568.477 22.085 569.772 22.015 571.312 21.735ZM621.766 28.91H592.226V25.34H604.896V19.495C599.261 19.075 595.376 15.54 595.376 10.395C595.376 5.215 599.331 1.68 605.001 1.295C606.191 1.225 607.801 1.225 608.991 1.295C614.661 1.68 618.616 5.215 618.616 10.395C618.616 15.54 614.696 19.075 609.096 19.495V25.34H621.766V28.91ZM608.991 15.925C612.526 15.645 614.486 13.16 614.486 10.395C614.486 7.63 612.526 5.145 608.991 4.865C608.396 4.795 607.696 4.795 606.996 4.795C606.296 4.795 605.596 4.795 605.001 4.865C601.466 5.145 599.506 7.63 599.506 10.395C599.506 13.16 601.466 15.645 605.001 15.925C605.596 15.96 606.296 15.995 606.996 15.995C607.696 15.995 608.396 15.96 608.991 15.925ZM653.04 28.56H623.5V24.99H653.04V28.56ZM649.75 20.79H627.315V9.625H645.06V5.74H627.315V2.205H649.05V13.125H631.305V17.22H649.75V20.79ZM680.325 31.675H676.335V0.350001H680.325V11.305H684.805V15.015H680.325V31.675ZM675.04 20.86V24.395C671.12 25.165 666.465 25.34 662.16 25.34H656.665V2.45H660.655V21.735H662.16C666.395 21.735 670.84 21.56 675.04 20.86ZM712.439 10.15C712.439 15.225 708.484 18.62 702.814 19.005C701.624 19.075 700.014 19.075 698.824 19.005C693.154 18.62 689.199 15.225 689.199 10.15C689.199 5.075 693.154 1.68 698.824 1.295C700.014 1.225 701.624 1.225 702.814 1.295C708.484 1.68 712.439 5.075 712.439 10.15ZM715.589 28.63H686.049V25.06H692.244V19.565H696.304V25.06H705.334V19.565H709.394V25.06H715.589V28.63ZM708.309 10.15C708.309 7.49 706.349 5.145 702.814 4.865C702.219 4.795 701.519 4.795 700.819 4.795C700.119 4.795 699.419 4.795 698.824 4.865C695.289 5.145 693.329 7.49 693.329 10.15C693.329 12.81 695.289 15.155 698.824 15.435C699.419 15.47 700.119 15.505 700.819 15.505C701.519 15.505 702.219 15.47 702.814 15.435C706.349 15.155 708.309 12.81 708.309 10.15ZM728.279 20.545H724.254C723.729 17.78 724.989 15.925 727.789 14.315C730.064 13.055 731.744 11.725 731.744 9.8C731.744 7.77 729.679 6.16 727.159 6.16C724.569 6.16 722.504 7.98 722.504 10.15H718.339C718.339 5.635 722.294 2.555 727.159 2.555C731.989 2.555 735.944 5.46 735.944 9.66C735.944 13.475 733.704 14.98 729.644 17.43C728.279 18.235 727.824 19.11 728.279 20.545ZM726.599 28.875C725.094 28.875 723.939 27.755 723.939 26.25C723.939 24.745 725.094 23.59 726.599 23.59C728.104 23.59 729.259 24.745 729.259 26.25C729.259 27.755 728.104 28.875 726.599 28.875Z" fill="#E6EDEA"/>
</svg>
