<svg width="391" height="133" viewBox="0 0 391 133" fill="none" xmlns="http://www.w3.org/2000/svg">
<g filter="url(#filter0_d_1062_81)">
<rect x="30" y="30" width="331" height="73" fill="#877E87"/>
<path d="M90.8744 50.909C91.3424 50.571 91.7194 50.48 92.0054 50.636C92.2914 50.766 92.4344 51.156 92.4344 51.806V66.197C92.9024 65.859 93.2794 65.69 93.5654 65.69H97.7384C98.2584 65.69 98.5184 65.82 98.5184 66.08C98.5184 66.314 98.2714 66.587 97.7774 66.899C97.4134 67.133 97.0624 67.38 96.7244 67.64C96.4124 67.9 96.1134 68.173 95.8274 68.459C95.4634 68.823 94.8134 69.005 93.8774 69.005H92.4344V75.284C92.4344 75.882 92.2784 76.337 91.9664 76.649C91.7324 76.883 91.3424 77.234 90.7964 77.702C90.2504 78.196 89.7174 78.638 89.1974 79.028C88.8594 79.288 88.5214 79.34 88.1834 79.184C87.8714 79.054 87.7154 78.742 87.7154 78.248V56.174C87.7154 55.862 87.6244 55.68 87.4424 55.628C87.2864 55.576 87.0264 55.68 86.6624 55.94C86.4284 56.122 86.1814 56.213 85.9214 56.213C85.6614 56.213 85.4664 56.122 85.3364 55.94C85.1804 55.732 85.1414 55.498 85.2194 55.238C85.3234 54.978 85.5184 54.744 85.8044 54.536L90.8744 50.909ZM68.4104 60.074C68.9304 59.944 69.4764 59.853 70.0484 59.801C70.6204 59.749 71.3614 59.84 72.2714 60.074C72.7914 60.178 73.1554 60.425 73.3634 60.815C73.4934 61.049 73.5714 61.309 73.5974 61.595C73.6494 61.855 73.6624 62.206 73.6364 62.648C73.5844 64.13 73.6494 65.508 73.8314 66.782C74.0134 68.056 74.5204 69.018 75.3524 69.668C76.2884 70.396 77.3024 70.734 78.3944 70.682C79.4864 70.604 80.6174 70.188 81.7874 69.434C82.2294 69.148 82.5414 69.07 82.7234 69.2C82.8794 69.33 82.9314 69.512 82.8794 69.746C82.8534 69.954 82.7624 70.175 82.6064 70.409C81.8264 71.527 80.9944 72.398 80.1104 73.022C79.2264 73.62 78.3294 74.01 77.4194 74.192C76.5354 74.348 75.6514 74.335 74.7674 74.153C73.8834 73.945 73.0384 73.581 72.2324 73.061C71.3224 72.489 70.5424 71.462 69.8924 69.98C69.2424 68.472 68.8654 66.47 68.7614 63.974C68.7354 63.272 68.6964 62.778 68.6444 62.492C68.5924 62.206 68.4234 61.998 68.1374 61.868C67.9294 61.764 67.7474 61.647 67.5914 61.517C67.4354 61.361 67.3574 61.205 67.3574 61.049C67.3574 60.841 67.4614 60.646 67.6694 60.464C67.9034 60.282 68.1504 60.152 68.4104 60.074ZM106.88 62.414C108.154 61.14 109.402 60.308 110.624 59.918C111.846 59.528 112.834 59.489 113.588 59.801C114.68 60.243 115.369 60.932 115.655 61.868C115.967 62.778 115.941 63.922 115.577 65.3C115.265 66.444 114.81 67.497 114.212 68.459C113.64 69.395 113.003 70.201 112.301 70.877H115.733C116.253 70.877 116.513 71.007 116.513 71.267C116.513 71.501 116.266 71.774 115.772 72.086C115.408 72.32 115.057 72.567 114.719 72.827C114.407 73.087 114.108 73.36 113.822 73.646C113.458 74.01 112.808 74.192 111.872 74.192H105.476C105.32 74.322 105.151 74.465 104.969 74.621C104.813 74.751 104.631 74.894 104.423 75.05C104.085 75.31 103.747 75.375 103.409 75.245C103.097 75.089 102.941 74.764 102.941 74.27V63.545C102.941 63.233 102.85 63.051 102.668 62.999C102.512 62.947 102.252 63.051 101.888 63.311C101.654 63.493 101.407 63.584 101.147 63.584C100.887 63.584 100.692 63.493 100.562 63.311C100.406 63.103 100.367 62.869 100.445 62.609C100.549 62.349 100.744 62.115 101.03 61.907L105.32 58.865C105.788 58.527 106.165 58.436 106.451 58.592C106.737 58.722 106.88 59.112 106.88 59.762V62.414ZM132.854 65.69C133.374 65.69 133.634 65.82 133.634 66.08C133.634 66.314 133.387 66.587 132.893 66.899C132.529 67.133 132.178 67.38 131.84 67.64C131.528 67.9 131.229 68.173 130.943 68.459C130.579 68.823 129.929 69.005 128.993 69.005H127.55V75.206C127.55 75.804 127.394 76.259 127.082 76.571C126.848 76.805 126.458 77.156 125.912 77.624C125.366 78.118 124.833 78.56 124.313 78.95C123.975 79.21 123.637 79.262 123.299 79.106C122.987 78.976 122.831 78.664 122.831 78.17V61.4C122.831 61.088 122.74 60.906 122.558 60.854C122.402 60.802 122.142 60.906 121.778 61.166C121.544 61.348 121.297 61.439 121.037 61.439C120.777 61.439 120.582 61.348 120.452 61.166C120.296 60.958 120.257 60.724 120.335 60.464C120.439 60.204 120.634 59.97 120.92 59.762L125.99 56.135C126.458 55.797 126.835 55.706 127.121 55.862C127.407 55.992 127.55 56.382 127.55 57.032V66.158C127.888 65.846 128.265 65.69 128.681 65.69H132.854ZM109.688 81.173C110.052 80.809 110.468 80.458 110.936 80.12C111.43 79.782 112.119 79.483 113.003 79.223C113.549 79.067 113.991 79.106 114.329 79.34C114.719 79.574 115.109 80.055 115.499 80.783C116.201 82.109 116.968 83.162 117.8 83.942C118.658 84.748 119.49 85.294 120.296 85.58C121.414 85.97 122.61 86.113 123.884 86.009C125.158 85.931 126.406 85.437 127.628 84.527C127.836 84.371 128.018 84.293 128.174 84.293C128.33 84.293 128.447 84.332 128.525 84.41C128.811 84.696 128.733 85.06 128.291 85.502C127.459 86.308 126.588 86.984 125.678 87.53C124.794 88.102 123.897 88.544 122.987 88.856C122.077 89.168 121.167 89.337 120.257 89.363C119.373 89.415 118.541 89.324 117.761 89.09C116.435 88.7 115.278 88.089 114.29 87.257C113.302 86.425 112.522 85.463 111.95 84.371C111.612 83.721 111.339 83.292 111.131 83.084C110.923 82.902 110.65 82.824 110.312 82.85C110.078 82.876 109.857 82.863 109.649 82.811C109.467 82.759 109.337 82.668 109.259 82.538C109.155 82.356 109.142 82.135 109.22 81.875C109.324 81.615 109.48 81.381 109.688 81.173ZM110.195 63.038C109.597 62.83 109.051 62.804 108.557 62.96C108.063 63.116 107.504 63.441 106.88 63.935V70.877H109.181C109.519 70.461 109.805 70.071 110.039 69.707C110.299 69.343 110.507 68.992 110.663 68.654C110.845 68.29 111.001 67.926 111.131 67.562C111.261 67.198 111.365 66.795 111.443 66.353C111.625 65.521 111.651 64.832 111.521 64.286C111.391 63.74 110.949 63.324 110.195 63.038ZM162.47 50.909C162.938 50.571 163.315 50.48 163.601 50.636C163.887 50.766 164.03 51.156 164.03 51.806V75.284C164.03 75.882 163.874 76.337 163.562 76.649C163.328 76.883 162.938 77.234 162.392 77.702C161.846 78.196 161.313 78.638 160.793 79.028C160.455 79.288 160.117 79.34 159.779 79.184C159.467 79.054 159.311 78.742 159.311 78.248V56.174C159.311 55.862 159.22 55.68 159.038 55.628C158.882 55.576 158.622 55.68 158.258 55.94C158.024 56.122 157.777 56.213 157.517 56.213C157.257 56.213 157.062 56.122 156.932 55.94C156.776 55.732 156.737 55.498 156.815 55.238C156.919 54.978 157.114 54.744 157.4 54.536L162.47 50.909ZM140.006 65.261C139.122 64.091 138.875 62.778 139.265 61.322C139.655 59.84 140.812 58.449 142.736 57.149C143.594 56.551 144.439 56.161 145.271 55.979C146.103 55.771 146.883 55.732 147.611 55.862C148.339 55.966 149.015 56.226 149.639 56.642C150.263 57.058 150.796 57.578 151.238 58.202C151.706 58.852 151.992 59.541 152.096 60.269C152.2 60.997 152.122 61.725 151.862 62.453C151.628 63.155 151.225 63.844 150.653 64.52C150.081 65.17 149.366 65.768 148.508 66.314C146.818 67.38 145.219 67.809 143.711 67.601C142.203 67.367 140.968 66.587 140.006 65.261ZM155.021 72.32C155.541 72.32 155.801 72.45 155.801 72.71C155.801 72.944 155.554 73.217 155.06 73.529C154.696 73.763 154.345 74.01 154.007 74.27C153.695 74.53 153.396 74.803 153.11 75.089C152.746 75.453 152.096 75.635 151.16 75.635H136.34C136.106 75.635 135.911 75.596 135.755 75.518C135.599 75.44 135.521 75.336 135.521 75.206C135.521 75.076 135.625 74.946 135.833 74.816C136.041 74.66 136.249 74.517 136.457 74.387C136.665 74.257 136.925 74.062 137.237 73.802C137.549 73.542 137.848 73.282 138.134 73.022C138.628 72.554 139.421 72.32 140.513 72.32H155.021ZM143.633 63.077C143.945 63.467 144.322 63.779 144.764 64.013C145.206 64.247 145.635 64.416 146.051 64.52C146.467 64.598 146.844 64.637 147.182 64.637C147.52 64.611 147.754 64.546 147.884 64.442C148.014 64.364 148.131 64.169 148.235 63.857C148.339 63.545 148.391 63.194 148.391 62.804C148.417 62.388 148.365 61.946 148.235 61.478C148.105 61.01 147.884 60.581 147.572 60.191C147.234 59.801 146.831 59.489 146.363 59.255C145.921 58.995 145.466 58.813 144.998 58.709C144.556 58.579 144.153 58.514 143.789 58.514C143.451 58.514 143.204 58.553 143.048 58.631C142.918 58.735 142.814 58.943 142.736 59.255C142.658 59.567 142.632 59.944 142.658 60.386C142.684 60.802 142.775 61.257 142.931 61.751C143.087 62.219 143.321 62.661 143.633 63.077ZM193.686 65.69V62.063C193.686 61.465 193.842 61.01 194.154 60.698C194.388 60.464 194.687 60.178 195.051 59.84C195.441 59.502 195.896 59.138 196.416 58.748C196.754 58.488 197.079 58.436 197.391 58.592C197.729 58.722 197.898 59.034 197.898 59.528V63.506C197.898 64.104 197.742 64.559 197.43 64.871C197.3 65.001 197.17 65.131 197.04 65.261C196.91 65.391 196.741 65.534 196.533 65.69H210.222C210.742 65.69 211.002 65.82 211.002 66.08C211.002 66.314 210.755 66.587 210.261 66.899C209.897 67.133 209.546 67.38 209.208 67.64C208.896 67.9 208.597 68.173 208.311 68.459C207.947 68.823 207.297 69.005 206.361 69.005H181.011C180.777 69.005 180.582 68.966 180.426 68.888C180.27 68.81 180.192 68.706 180.192 68.576C180.192 68.446 180.296 68.316 180.504 68.186C180.712 68.03 180.92 67.887 181.128 67.757C181.336 67.627 181.596 67.432 181.908 67.172C182.22 66.912 182.519 66.652 182.805 66.392C183.299 65.924 184.092 65.69 185.184 65.69H193.686ZM193.764 47.984C194.18 47.802 194.791 47.646 195.597 47.516C196.429 47.386 197.235 47.36 198.015 47.438C198.457 47.464 198.821 47.646 199.107 47.984C199.315 48.244 199.471 48.582 199.575 48.998C199.679 49.388 199.705 49.83 199.653 50.324C199.601 50.766 199.432 51.351 199.146 52.079C198.86 52.781 198.431 53.509 197.859 54.263C197.183 55.173 196.338 55.992 195.324 56.72C194.31 57.422 193.309 57.955 192.321 58.319C191.333 58.683 190.293 58.943 189.201 59.099C188.135 59.255 187.238 59.294 186.51 59.216C185.808 59.138 185.405 58.969 185.301 58.709C185.275 58.579 185.366 58.462 185.574 58.358C185.782 58.228 186.029 58.111 186.315 58.007C186.471 57.955 186.705 57.877 187.017 57.773C187.329 57.643 187.68 57.5 188.07 57.344C188.486 57.162 188.902 56.98 189.318 56.798C189.76 56.59 190.176 56.382 190.566 56.174C191.294 55.784 191.918 55.316 192.438 54.77C192.984 54.224 193.387 53.717 193.647 53.249C193.933 52.781 194.141 52.274 194.271 51.728C194.401 51.182 194.44 50.714 194.388 50.324C194.362 50.038 194.284 49.856 194.154 49.778C194.024 49.674 193.881 49.596 193.725 49.544C193.283 49.388 193.049 49.193 193.023 48.959C192.971 48.777 193.023 48.595 193.179 48.413C193.361 48.231 193.556 48.088 193.764 47.984ZM199.809 53.951C199.913 53.821 200.095 53.73 200.355 53.678C200.615 53.626 200.888 53.613 201.174 53.639C201.512 53.665 201.928 53.73 202.422 53.834C202.942 53.912 203.423 54.042 203.865 54.224C205.061 54.718 205.737 55.446 205.893 56.408C205.945 56.798 205.867 57.253 205.659 57.773C205.477 58.293 205.113 58.852 204.567 59.45C204.385 59.658 204.203 59.749 204.021 59.723C203.839 59.697 203.696 59.567 203.592 59.333C203.54 59.203 203.449 59.06 203.319 58.904C203.215 58.722 203.046 58.488 202.812 58.202C202.474 57.812 202.058 57.513 201.564 57.305C201.07 57.071 200.641 56.915 200.277 56.837C199.965 56.785 199.64 56.746 199.302 56.72C198.99 56.694 198.73 56.655 198.522 56.603C198.314 56.525 198.171 56.395 198.093 56.213C198.041 56.005 198.067 55.823 198.171 55.667C198.275 55.485 198.405 55.316 198.561 55.16C198.717 55.004 198.86 54.874 198.99 54.77C199.172 54.64 199.328 54.51 199.458 54.38C199.588 54.224 199.705 54.081 199.809 53.951ZM217.14 67.991C217.14 67.991 217.166 67.978 217.218 67.952C217.348 67.848 217.465 67.757 217.569 67.679C217.699 67.575 217.842 67.471 217.998 67.367L219.675 66.08C219.831 65.95 220.065 65.859 220.377 65.807C220.689 65.729 220.988 65.69 221.274 65.69H227.397C227.475 65.482 227.54 65.261 227.592 65.027C227.644 64.767 227.696 64.481 227.748 64.169C227.8 63.805 227.813 63.467 227.787 63.155C227.787 62.843 227.696 62.557 227.514 62.297C227.332 62.037 227.007 61.907 226.539 61.907C226.071 61.907 225.668 61.92 225.33 61.946C224.966 61.972 224.576 61.998 224.16 62.024C223.77 62.05 223.25 62.076 222.6 62.102C222.21 62.102 221.781 62.102 221.313 62.102C220.845 62.102 220.39 62.089 219.948 62.063C219.506 62.037 219.09 61.998 218.7 61.946C218.31 61.868 217.985 61.79 217.725 61.712C217.361 61.582 217.205 61.387 217.257 61.127C217.335 60.841 217.634 60.555 218.154 60.269C218.44 60.113 218.752 59.918 219.09 59.684C219.454 59.45 219.766 59.229 220.026 59.021C220.312 58.813 220.585 58.67 220.845 58.592C221.131 58.514 221.521 58.514 222.015 58.592C222.353 58.644 222.756 58.696 223.224 58.748C223.718 58.774 224.316 58.774 225.018 58.748C225.408 58.722 225.889 58.683 226.461 58.631C227.033 58.579 227.657 58.527 228.333 58.475C228.515 58.475 228.736 58.488 228.996 58.514C229.256 58.54 229.516 58.592 229.776 58.67C230.062 58.748 230.322 58.839 230.556 58.943C230.79 59.021 230.972 59.112 231.102 59.216C231.544 59.606 231.804 60.139 231.882 60.815C231.986 61.465 231.934 62.193 231.726 62.999C231.596 63.467 231.427 63.922 231.219 64.364C231.011 64.806 230.725 65.248 230.361 65.69H231.336C231.466 65.69 231.622 65.703 231.804 65.729C232.012 65.755 232.155 65.807 232.233 65.885C232.337 65.989 232.389 66.08 232.389 66.158C232.389 66.21 232.311 66.314 232.155 66.47C232.077 66.548 231.908 66.704 231.648 66.938C231.388 67.146 231.102 67.367 230.79 67.601C230.504 67.835 230.231 68.056 229.971 68.264C229.711 68.472 229.529 68.602 229.425 68.654C229.217 68.784 229.022 68.875 228.84 68.927C228.684 68.979 228.424 69.005 228.06 69.005H222.366C222.834 69.863 223.302 70.591 223.77 71.189C224.238 71.787 224.888 72.268 225.72 72.632C226.474 72.97 227.293 73.087 228.177 72.983C229.061 72.879 230.127 72.372 231.375 71.462C231.765 71.202 232.038 71.15 232.194 71.306C232.298 71.41 232.324 71.553 232.272 71.735C232.22 71.917 232.116 72.112 231.96 72.32C231.128 73.334 230.296 74.14 229.464 74.738C228.658 75.31 227.865 75.713 227.085 75.947C226.305 76.181 225.551 76.259 224.823 76.181C224.095 76.077 223.406 75.856 222.756 75.518C221.924 75.076 221.17 74.465 220.494 73.685C219.818 72.905 219.246 72.047 218.778 71.111C218.492 70.539 218.258 70.175 218.076 70.019C217.894 69.837 217.66 69.759 217.374 69.785C216.906 69.837 216.594 69.746 216.438 69.512C216.36 69.382 216.334 69.226 216.36 69.044C216.412 68.862 216.503 68.693 216.633 68.537C216.633 68.433 216.802 68.251 217.14 67.991ZM242.373 50.987C242.841 50.649 243.218 50.558 243.504 50.714C243.79 50.844 243.933 51.234 243.933 51.884V75.206C243.933 75.804 243.777 76.259 243.465 76.571C243.231 76.805 242.841 77.156 242.295 77.624C241.749 78.118 241.216 78.56 240.696 78.95C240.358 79.21 240.02 79.262 239.682 79.106C239.37 78.976 239.214 78.664 239.214 78.17V56.252C239.214 55.94 239.123 55.758 238.941 55.706C238.785 55.654 238.525 55.758 238.161 56.018C237.927 56.2 237.68 56.291 237.42 56.291C237.16 56.291 236.965 56.2 236.835 56.018C236.679 55.81 236.64 55.576 236.718 55.316C236.822 55.056 237.017 54.822 237.303 54.614L242.373 50.987ZM269.686 67.577H257.347V55.751H269.686V67.577ZM276.463 72.302H273.007V54.806H276.463V60.017H279.514V62.933H276.463V72.302ZM277.273 78.674H260.02V70.142H263.53V75.866H277.273V78.674ZM266.23 64.769V58.559H260.803V64.769H266.23ZM303.397 67.172H280.231V64.472H303.397V67.172ZM301.048 78.809H283.12V72.437H297.052V71.276H283.12V68.63H300.508V74.921H286.576V76.136H301.048V78.809ZM300.778 63.122H283.12V55.454H300.508V58.073H286.576V60.476H300.778V63.122ZM325.255 79.079H321.799V54.806H325.255V79.079ZM306.76 75.947L304.627 73.625C310.594 70.412 314.185 65.12 314.644 59.693H306.085V56.831H318.262C318.316 66.038 313.051 72.329 306.76 75.947Z" fill="#E6EDEA"/>
</g>
<defs>
<filter id="filter0_d_1062_81" x="0" y="0" width="391" height="133" filterUnits="userSpaceOnUse" color-interpolation-filters="sRGB">
<feFlood flood-opacity="0" result="BackgroundImageFix"/>
<feColorMatrix in="SourceAlpha" type="matrix" values="0 0 0 0 0 0 0 0 0 0 0 0 0 0 0 0 0 0 127 0" result="hardAlpha"/>
<feOffset/>
<feGaussianBlur stdDeviation="15"/>
<feComposite in2="hardAlpha" operator="out"/>
<feColorMatrix type="matrix" values="0 0 0 0 0 0 0 0 0 0 0 0 0 0 0 0 0 0 0.25 0"/>
<feBlend mode="normal" in2="BackgroundImageFix" result="effect1_dropShadow_1062_81"/>
<feBlend mode="normal" in="SourceGraphic" in2="effect1_dropShadow_1062_81" result="shape"/>
</filter>
</defs>
</svg>
