<svg width="1484" height="864" viewBox="0 0 1484 864" fill="none" xmlns="http://www.w3.org/2000/svg">
<g opacity="0.3">
<path d="M361.839 495.51V491.25C365.219 490.54 363.729 493.38 363.969 495.52C371.809 497.94 379.169 490.5 385.809 490.15C388.879 489.99 386.979 493.49 387.429 495.51H406.619L407.159 491.25H408.739V495.51H428.999L429.539 491.25H431.119V495.51H451.379L451.919 491.25H453.499V495.51H473.759L474.299 491.25H475.879V495.51H496.139L496.679 491.25H498.259V495.51H518.519L519.059 491.25H520.639V495.51H540.899L541.439 491.25H543.019V495.51H563.279V491.25H564.869L565.409 495.51H585.669C585.929 495.51 585.439 491.2 587.789 491.25V495.51H608.059C608.319 495.51 607.829 491.2 610.179 491.25V495.51H630.449C630.709 495.51 630.219 491.2 632.569 491.25V495.51H652.839V491.25H654.429L654.969 495.51H675.229C675.489 495.51 674.999 491.2 677.349 491.25V495.51H697.619C697.879 495.51 697.389 491.2 699.739 491.25V495.51H720.009L721.609 491.26L722.129 495.52C730.069 498.45 737.999 490.56 743.959 490.14C747.029 489.93 745.149 493.53 745.589 495.51H764.779C765.039 495.51 764.549 491.2 766.899 491.25V495.51H787.169C787.429 495.51 786.939 491.2 789.289 491.25V495.51H809.559C809.819 495.51 809.329 491.2 811.679 491.25V495.51H831.949L832.489 491.25H834.069V495.51H854.329L854.869 491.25H856.449V495.51H876.709L877.249 491.25H878.829V495.51H899.089V491.25H900.679L901.219 495.51H921.479L922.019 491.25H923.599V495.51H943.859L944.399 491.25H945.979V495.51H966.239L966.779 491.25H968.359V495.51H988.619L989.159 491.25H990.739V495.51H1011L1011.54 491.25H1013.12V495.51H1033.38L1033.92 491.25H1035.5V495.51H1055.76L1056.3 491.25H1057.88V495.51H1078.14V491.25C1081.52 490.54 1080.04 493.38 1080.27 495.52C1088.21 498.45 1096.14 490.56 1102.1 490.14C1105.17 489.93 1103.29 493.53 1103.73 495.51H1122.92L1123.46 491.25H1125.04V495.51H1145.3L1145.84 491.25H1147.42V495.51H1167.68L1168.22 491.25H1169.8V495.51H1190.06L1190.6 491.25H1192.18V495.51H1212.44L1212.98 491.25H1214.56V495.51H1234.82L1235.36 491.25H1236.94V495.51H1257.2L1257.74 491.25H1259.32V495.51H1279.58L1280.12 491.25H1281.7V495.51H1301.96L1302.5 491.25H1304.08V495.51H1324.34L1324.88 491.25H1326.46V495.51H1346.72L1347.26 491.25H1348.84V495.51H1369.1V491.25H1370.69L1371.23 495.51H1391.49C1391.75 495.51 1391.26 491.2 1393.61 491.25V495.51H1413.88C1414.14 495.51 1413.65 491.2 1416 491.25V495.51H1436.27L1437.87 491.26L1438.39 495.52C1446.33 498.45 1454.26 490.56 1460.22 490.14C1463.29 489.93 1461.41 493.53 1461.85 495.51H1481.04C1481.3 495.51 1480.8 491.2 1483.17 491.25V862.6C1479.46 860.85 1481.49 855.32 1481.04 851.96H1461.85V863.67H1458.12L1457.59 855.15L1449.64 855.23L1448.47 851.89L1438.39 851.96L1437.87 862.6C1435 859.91 1436.63 855.41 1436.27 851.97H1416.01V862.61C1412.28 860.78 1414.35 855.27 1413.88 851.97H1393.62V862.61C1389.89 860.78 1391.96 855.27 1391.49 851.97H1371.23L1370.69 862.62C1368.21 863.33 1369.17 860.34 1369.1 858.9C1368.99 856.6 1369.17 854.26 1369.1 851.97H1348.84V862.61C1345.11 860.78 1347.18 855.27 1346.71 851.97H1326.45V862.61C1322.72 860.78 1324.79 855.27 1324.32 851.97H1304.06V862.61C1300.33 860.78 1302.4 855.27 1301.93 851.97H1281.67L1281.13 862.62C1278.65 863.33 1279.61 860.34 1279.54 858.9C1279.43 856.6 1279.61 854.26 1279.54 851.97H1259.28V862.61C1255.55 860.78 1257.62 855.27 1257.15 851.97H1236.89V862.61C1233.16 860.78 1235.23 855.27 1234.76 851.97H1214.5V862.61C1210.77 860.78 1212.84 855.27 1212.37 851.97H1192.11L1191.57 862.62C1189.09 863.33 1190.05 860.34 1189.98 858.9C1189.87 856.6 1190.05 854.26 1189.98 851.97H1169.72L1169.18 862.62C1166.7 863.33 1167.66 860.34 1167.59 858.9C1167.48 856.6 1167.66 854.26 1167.59 851.97H1147.33L1146.79 862.62C1144.31 863.33 1145.27 860.34 1145.2 858.9C1145.09 856.6 1145.27 854.26 1145.2 851.97H1124.94C1124.87 854.26 1125.05 856.6 1124.94 858.9C1124.87 860.33 1125.83 863.33 1123.35 862.62L1122.81 851.97H1103.62V863.68H1099.89L1099.36 855.16L1091.41 855.24L1090.24 851.9L1080.16 851.97C1079.75 852.38 1081.27 866.85 1078.04 862.61V851.98H1057.78L1057.24 862.63C1054.76 863.34 1055.72 860.35 1055.65 858.91C1055.54 856.61 1055.72 854.27 1055.65 851.98H1035.39L1034.85 862.63C1032.37 863.34 1033.33 860.35 1033.26 858.91C1033.15 856.61 1033.33 854.27 1033.26 851.98H1013L1012.46 862.63C1009.98 863.34 1010.94 860.35 1010.87 858.91C1010.76 856.61 1010.94 854.27 1010.87 851.98H990.609L990.069 862.63C987.589 863.34 988.549 860.35 988.479 858.91C988.369 856.61 988.549 854.27 988.479 851.98H968.219L967.679 862.63C965.199 863.34 966.159 860.35 966.089 858.91C965.979 856.61 966.159 854.27 966.089 851.98H945.829L945.289 862.63C942.809 863.34 943.769 860.35 943.699 858.91C943.589 856.61 943.769 854.27 943.699 851.98H923.439L922.899 862.63C920.419 863.34 921.379 860.35 921.309 858.91C921.199 856.61 921.379 854.27 921.309 851.98H901.049L900.509 862.63C898.029 863.34 898.989 860.35 898.919 858.91C898.809 856.61 898.989 854.27 898.919 851.98H878.659L878.119 862.63C875.639 863.34 876.599 860.35 876.529 858.91C876.419 856.61 876.599 854.27 876.529 851.98H856.269L855.729 862.63C853.249 863.34 854.209 860.35 854.139 858.91C854.029 856.61 854.209 854.27 854.139 851.98H833.879L833.339 862.63C830.859 863.34 831.819 860.35 831.749 858.91C831.639 856.61 831.819 854.27 831.749 851.98H811.489V862.62C807.759 860.79 809.829 855.28 809.359 851.98H789.099V862.62C785.369 860.79 787.439 855.28 786.969 851.98H766.709V862.62C762.979 860.79 765.049 855.28 764.579 851.98H745.389V863.69H741.659L741.129 855.17L733.179 855.25L732.009 851.91L721.929 851.98L721.409 862.62C718.539 859.93 720.169 855.43 719.809 851.99H699.549V862.63C695.819 860.8 697.889 855.29 697.419 851.99H677.159V862.63C673.429 860.8 675.499 855.29 675.029 851.99H654.769L654.229 862.64C651.749 863.35 652.709 860.36 652.639 858.92C652.529 856.62 652.709 854.28 652.639 851.99H632.379V862.63C628.649 860.8 630.719 855.29 630.249 851.99H609.989V862.63C606.259 860.8 608.329 855.29 607.859 851.99H587.599V862.63C583.869 860.8 585.939 855.29 585.469 851.99H565.209L564.669 862.64C562.189 863.35 563.149 860.36 563.079 858.92C562.969 856.62 563.149 854.28 563.079 851.99H542.819V862.63C539.089 860.8 541.159 855.29 540.689 851.99H520.429V862.63C516.699 860.8 518.769 855.29 518.299 851.99H498.039V862.63C494.309 860.8 496.379 855.29 495.909 851.99H475.649L475.109 862.64C472.629 863.35 473.589 860.36 473.519 858.92C473.409 856.62 473.589 854.28 473.519 851.99H453.259V862.63C449.529 860.8 451.599 855.29 451.129 851.99H430.869V862.63C427.139 860.8 429.209 855.29 428.739 851.99H408.479V862.63C404.749 860.8 406.819 855.29 406.349 851.99H387.159V863.7H383.429L382.899 855.18L373.879 855.26L372.709 851.92L363.689 851.99C363.279 852.4 364.799 866.87 361.569 862.63V852H341.309L340.769 862.65C338.289 863.36 339.249 860.37 339.179 858.93C339.069 856.63 339.249 854.29 339.179 852H318.919L318.379 862.65C315.899 863.36 316.859 860.37 316.789 858.93C316.679 856.63 316.859 854.29 316.789 852H296.529L295.989 862.65C293.509 863.36 294.469 860.37 294.399 858.93C294.289 856.63 294.469 854.29 294.399 852H274.139L273.599 862.65C271.119 863.36 272.079 860.37 272.009 858.93C271.899 856.63 272.079 854.29 272.009 852H251.749L251.209 862.65C248.729 863.36 249.689 860.37 249.619 858.93C249.509 856.63 249.689 854.29 249.619 852H229.359L228.819 862.65C226.339 863.36 227.299 860.37 227.229 858.93C227.119 856.63 227.299 854.29 227.229 852H206.969L206.429 862.65C203.949 863.36 204.909 860.37 204.839 858.93C204.729 856.63 204.909 854.29 204.839 852H184.579L184.039 862.65C181.559 863.36 182.519 860.37 182.449 858.93C182.339 856.63 182.519 854.29 182.449 852H162.189L161.649 862.65C159.169 863.36 160.129 860.37 160.059 858.93C159.949 856.63 160.129 854.29 160.059 852H139.799L139.259 862.65C136.779 863.36 137.739 860.37 137.669 858.93C137.559 856.63 137.739 854.29 137.669 852H117.409L116.869 862.65C114.389 863.36 115.349 860.37 115.279 858.93C115.169 856.63 115.349 854.29 115.279 852H95.0192L94.4792 862.65C91.9992 863.36 92.9592 860.37 92.8892 858.93C92.7792 856.63 92.9592 854.29 92.8892 852H72.6292L72.0892 862.65C69.6092 863.36 70.5692 860.37 70.4992 858.93C70.3892 856.63 70.5692 854.29 70.4992 852H50.2392L49.6992 862.65C47.2192 863.36 48.1792 860.37 48.1092 858.93C47.9992 856.63 48.1792 854.29 48.1092 852H27.8492C27.9492 852.69 28.5492 866.34 25.7192 862.63V851.99L18.2392 851.46L25.7092 850.93V827.52C23.6292 827.8 20.8992 827.04 18.9992 827.51C17.8292 827.8 17.4092 832.02 12.4592 831.75C8.06918 831.51 6.92918 828.28 7.58918 824.33C11.3792 823.29 9.02917 827.92 9.71917 828.59L15.0992 828.09L15.0492 824.34C18.0892 823.08 18.1492 826.27 18.9692 826.44C21.0192 826.87 23.5692 826.25 25.7192 826.46V814.75H18.2492V819.02H7.58918C7.21918 814.09 7.38917 810.13 13.3592 810.53C17.0592 810.78 17.1292 813.5 17.9292 813.68C20.2292 814.18 23.2692 813.41 25.7192 813.7V790.29L18.2492 789.76L25.7192 789.23V765.82L18.2492 765.29L25.7192 764.76V741.35L18.3192 741.47L17.6692 744.61L7.58918 744.54L7.73917 739.89C13.6992 733.97 18.7692 742.02 25.7192 740.28L25.7392 730.25C18.4692 727.07 7.49918 740.22 7.59918 725.38C11.3892 724.34 9.03918 728.97 9.72918 729.64L15.1092 729.14L15.0592 725.39C18.0992 724.13 18.1592 727.32 18.9792 727.49C21.0392 727.92 23.5692 727.29 25.7292 727.51V667.92L18.2592 667.39L25.7292 666.86V643.45C20.5292 641.01 11.2292 650.77 8.13917 644.52C7.48917 643.2 6.14918 637.07 9.73918 638.14L9.88917 643.3C12.7392 644.96 14.7892 644.47 16.1392 641.34L11.8792 642.39V638.14C13.0592 638.24 14.5292 637.86 15.6092 638.12C19.2592 639.01 17.5292 642.07 18.9192 642.46L25.7392 642.39V618.98L18.2692 618.45L25.7392 617.92V594.51C23.5992 594.75 21.0192 594.07 19.0092 594.53C18.1492 594.73 18.7292 596.46 16.7492 596.72C13.9692 597.08 10.5192 596.32 7.60917 596.64L8.07917 591.25C8.73917 590.33 14.0192 589.44 15.2292 589.73C17.8592 590.36 19.1992 595.95 25.7492 593.45L25.7692 583.42C18.4992 580.24 7.52917 593.39 7.62917 578.55C11.4192 577.51 9.06918 582.14 9.75918 582.81L15.1392 582.31L15.0892 578.56C18.1292 577.3 18.1892 580.49 19.0092 580.66C21.0692 581.09 23.5992 580.46 25.7592 580.68V521.09C23.6192 521.33 21.0392 520.65 19.0292 521.11C18.1692 521.31 18.7492 523.04 16.7692 523.3C13.9892 523.66 10.5392 522.89 7.62917 523.22V516.84L9.76917 521.1L11.8992 516.83C15.2692 516.12 13.7892 518.95 14.0292 521.1L25.7592 520.03V496.61L18.2992 495.56H25.7592V491.29C29.1092 490.57 27.6892 493.42 27.8892 495.55H48.1492L48.6892 491.29H50.2692V495.55H70.5292L71.0692 491.29H72.6492V495.55H92.9092L93.4492 491.29H95.0292V495.55H115.289L115.829 491.29H117.409V495.55H137.669L138.209 491.29H139.789V495.55H160.049L160.589 491.29H162.169V495.55H182.429L182.969 491.29H184.549V495.55H204.809L205.349 491.29H206.929V495.55H227.189L227.729 491.29H229.309V495.55H249.569L250.109 491.29H251.689V495.55H271.949L272.489 491.29H274.069V495.55H294.329L294.869 491.29H296.449V495.55H316.709L317.249 491.29H318.829V495.55H339.089L339.629 491.29H341.209V495.55H361.469L361.839 495.51ZM48.4192 496.57H28.1592V519.98H48.4192V496.57ZM70.7992 496.57H50.5392V519.98H70.7992V496.57ZM93.1892 496.57H72.9292V519.98H93.1892V496.57ZM115.579 496.57H95.3192V519.98H115.579V496.57ZM137.969 496.57H117.709V519.98H137.969V496.57ZM160.349 496.57H140.089V519.98H160.349V496.57ZM182.739 496.57H162.479V519.98H182.739V496.57ZM205.129 496.57H184.869V519.98H205.129V496.57ZM227.519 496.57H207.259V519.98H227.519V496.57ZM249.899 496.57H229.639V519.98H249.899V496.57ZM272.289 496.57H252.029V519.98H272.289V496.57ZM294.679 496.57H274.419V519.98H294.679V496.57ZM317.069 496.57H296.809V519.98H317.069V496.57ZM339.449 496.57H319.189V519.98H339.449V496.57ZM361.839 496.57H341.579V519.98H361.839V496.57ZM363.969 496.57V519.98L372.979 520.05L374.099 516.78L377.819 519.98L379.409 516.78L379.959 519.98H383.149V511.47C376.609 514.75 369.669 509.87 375.679 504.02L375.829 509.2C380.999 512.31 386.439 505.45 377.829 508.28V504.03H383.159C385.149 499.3 377.569 497.46 373.839 496.84C370.559 496.3 367.249 496.66 363.969 496.58V496.57ZM406.619 496.57H387.429V519.98H406.619V496.57ZM428.999 496.57H408.739V519.98H428.999V496.57ZM451.389 496.57H431.129V519.98H451.389V496.57ZM473.779 496.57H453.519V519.98H473.779V496.57ZM496.169 496.57H475.909V519.98H496.169V496.57ZM518.549 496.57H498.289V519.98H518.549V496.57ZM540.939 496.57H520.679V519.98H540.939V496.57ZM563.329 496.57H543.069V519.98H563.329V496.57ZM585.719 496.57H565.459V519.98H585.719V496.57ZM608.099 496.57H587.839V519.98H608.099V496.57ZM630.489 496.57H610.229V519.98H630.489V496.57ZM652.879 496.57H632.619V519.98H652.879V496.57ZM675.269 496.57H655.009V519.98H675.269V496.57ZM697.649 496.57H677.389V519.98H697.649V496.57ZM720.039 496.57H699.779V519.98H720.039V496.57ZM722.169 496.57V519.98L732.249 520.05C732.899 515.74 735.239 514.72 734.969 519.98C738.569 520.94 736.229 517.18 737.639 516.78C740.709 515.9 737.549 521.14 741.349 519.97V512.53C735.319 513.56 729.979 509.53 734.429 504.03C736.469 507.96 734.939 511.82 741.359 509.31L737.109 508.26V505.61L741.419 503.45L740.879 499.7C735.109 496.36 728.739 496.24 722.179 496.56L722.169 496.57ZM764.819 496.57H745.629V519.98H764.819V496.57ZM787.199 496.57H766.939V519.98H787.199V496.57ZM809.589 496.57H789.329V519.98H809.589V496.57ZM831.979 496.57H811.719V519.98H831.979V496.57ZM854.369 496.57H834.109V519.98H854.369V496.57ZM876.749 496.57H856.489V519.98H876.749V496.57ZM899.139 496.57H878.879V519.98H899.139V496.57ZM921.529 496.57H901.269V519.98H921.529V496.57ZM943.919 496.57H923.659V519.98H943.919V496.57ZM966.299 496.57H946.039V519.98H966.299V496.57ZM988.689 496.57H968.429V519.98H988.689V496.57ZM1011.08 496.57H990.819V519.98H1011.08V496.57ZM1033.47 496.57H1013.21V519.98H1033.47V496.57ZM1055.85 496.57H1035.59V519.98H1055.85V496.57ZM1078.24 496.57H1057.98V519.98H1078.24V496.57ZM1080.37 496.57V519.98L1090.45 520.05C1091.1 515.74 1093.44 514.72 1093.17 519.98C1096.77 520.94 1094.43 517.18 1095.84 516.78C1098.91 515.9 1095.75 521.14 1099.55 519.97V511.46C1093.47 515.24 1087.43 508.67 1093.15 504.01L1093.3 509.19C1098.47 512.3 1103.91 505.44 1095.3 508.27L1095.28 504.02L1098.84 504.04C1104.22 496.52 1081.38 495.55 1080.36 496.57H1080.37ZM1123.02 496.57H1103.83V519.98H1123.02V496.57ZM1145.4 496.57H1125.14V519.98H1145.4V496.57ZM1167.79 496.57H1147.53V519.98H1167.79V496.57ZM1190.18 496.57H1169.92V519.98H1190.18V496.57ZM1212.57 496.57H1192.31V519.98H1212.57V496.57ZM1234.95 496.57H1214.69V519.98H1234.95V496.57ZM1257.34 496.57H1237.08V519.98H1257.34V496.57ZM1279.73 496.57H1259.47V519.98H1279.73V496.57ZM1302.12 496.57H1281.86V519.98H1302.12V496.57ZM1324.5 496.57H1304.24V519.98H1324.5V496.57ZM1346.89 496.57H1326.63V519.98H1346.89V496.57ZM1369.28 496.57H1349.02V519.98H1369.28V496.57ZM1391.67 496.57H1371.41V519.98H1391.67V496.57ZM1414.05 496.57H1393.79V519.98H1414.05V496.57ZM1436.44 496.57H1416.18V519.98H1436.44V496.57ZM1438.57 496.57V519.98L1448.65 520.05C1449.3 515.74 1451.64 514.72 1451.37 519.98C1454.97 520.94 1452.63 517.18 1454.04 516.78C1457.11 515.9 1453.95 521.14 1457.75 519.97V512.53C1451.72 513.56 1446.38 509.53 1450.83 504.03C1452.87 507.96 1451.34 511.82 1457.76 509.31L1453.51 508.26V505.61L1457.82 503.45L1457.28 499.7C1451.51 496.36 1445.14 496.24 1438.58 496.56L1438.57 496.57ZM1481.22 496.57H1462.03V519.98H1481.22V496.57ZM48.4192 521.04H28.1592V544.45L33.4992 544.98L28.1592 545.51V568.92L33.4992 569.45L28.1492 569.98V580.63H48.4092V521.04H48.4192ZM70.7992 521.04H50.5392V544.45L54.8192 544.98L50.5392 545.51V568.92L54.8192 569.45L50.5392 569.98V580.63H70.7992L70.8292 570.67L68.6592 569.45L70.8992 567.4L70.8292 546.19L68.6592 544.97L70.8292 543.75L70.7992 521.02V521.04ZM93.1892 521.04H72.9292L72.8592 543.87L76.1392 544.98L72.8592 546.09V568.33L76.1392 569.44L73.0092 570.03L72.9292 580.61H93.1892L93.1092 570.03L89.9792 569.44L93.2592 568.33V546.09L89.9792 544.98L93.2592 543.87L93.1892 521.04ZM115.579 521.04H95.3192L95.2892 543.77L97.4592 544.99L95.2892 546.21C96.1592 550.37 94.0692 566.38 95.5892 568.75C95.9192 569.27 97.6192 568.49 97.4692 569.47L95.2992 570.69L95.3292 580.65H115.589L115.509 570.07L112.379 569.48L115.659 568.37V546.13L112.379 545.02L115.659 543.91L115.589 521.08L115.579 521.04ZM137.969 521.04H117.709V580.63H137.969V569.98L133.689 569.45L137.969 568.92V545.51L133.689 544.98L137.969 544.45V521.04ZM160.349 521.04H140.089V580.63H160.349V569.98L155.009 569.45L160.349 568.92V545.51L155.009 544.98L160.349 544.45V521.04ZM182.739 521.04H162.479V580.63H182.739V569.98L176.329 569.45L182.739 568.92V545.51L176.329 544.98L182.739 544.45V521.04ZM205.129 521.04H184.869V580.63H205.129V569.98L197.659 569.45L205.129 568.92V545.51L197.659 544.98L205.129 544.45V521.04ZM227.519 521.04H207.259V580.63H227.519V521.04ZM249.899 521.04H229.639V580.63H249.899V521.04ZM272.289 521.04H252.029V544.45L259.499 544.98L252.029 545.51V568.92L259.499 569.45L252.019 569.98V580.63H272.279V521.04H272.289ZM294.679 521.04H274.419V544.45L280.829 544.98L274.419 545.51V568.92L280.829 569.45L274.419 569.98V580.63H294.679V521.04ZM317.069 521.04H296.809V544.45L302.149 544.98L296.809 545.51V568.92L302.149 569.45L296.799 569.98V580.63H317.059V521.04H317.069ZM339.449 521.04H319.189V544.45L323.469 544.98L319.189 545.51V568.92L323.469 569.45L319.189 569.98V580.63H339.449V521.04ZM361.839 521.04H341.579V544.45L345.859 544.98L341.579 545.51V568.92L345.859 569.45L341.579 569.98V580.63H361.839L361.869 570.67L359.699 569.45L361.939 567.4L361.869 546.19L359.699 544.97L361.869 543.75L361.839 521.02V521.04ZM373.279 521.38C370.859 520.27 366.729 521.43 363.969 521.03L363.899 543.86L367.179 544.97L363.899 546.08V568.32L367.179 569.43L364.049 570.02L363.969 580.61C367.629 579.97 372.979 582.53 374.109 578.47C376.559 577.93 375.179 580.31 376.389 580.63C377.999 581.05 380.329 580.39 382.099 580.6L381.339 578.72C384.469 578.2 382.919 574.74 383.159 572.1C375.949 575.7 372.469 567.78 366.099 567.83L366.189 563.67C374.989 558.86 374.649 571.44 380.419 569.95C382.819 569.33 381.109 566.45 381.359 565.94C381.509 565.64 384.479 565.27 383.169 561.47H373.559C372.599 553.6 375.879 551.4 383.149 554.01V548.69L374.149 548.77L373.419 545.69L370.369 545.5L373.549 542.32L366.109 542.27L366.179 538.15C369.419 537.08 375.249 536.17 373.559 541.25C377.129 540.06 379.579 540.01 383.149 541.25V535.93L373.539 535.32L373.559 529.55L377.809 533.81L379.939 529.54L382.069 533.81L383.149 523.16C382.719 522.72 376.159 523.58 374.279 523.14C373.519 522.96 373.539 521.5 373.259 521.38H373.279ZM406.619 521.04H387.429V580.63H406.619V569.98L402.339 569.45L406.619 568.92V545.51L402.339 544.98L406.619 544.45V521.04ZM428.999 521.04H408.739V580.63H428.999V569.98L423.659 569.45L428.999 568.92V545.51L423.659 544.98L428.999 544.45V521.04ZM451.389 521.04H431.129V580.63H451.389V569.98L446.049 569.45L451.389 568.92V545.51L446.049 544.98L451.389 544.45V521.04ZM473.779 521.04H453.519V580.63H473.779V569.98L467.369 569.45L473.779 568.92V545.51L467.369 544.98L473.779 544.45V521.04ZM496.169 521.04H475.909V580.63H496.169V569.98L488.699 569.45L496.169 568.92V545.51L488.699 544.98L496.169 544.45V521.04ZM518.549 521.04H498.289V580.63H518.549V521.04ZM540.939 521.04H520.679V544.45L528.149 544.98L520.679 545.51V568.92L528.149 569.45L520.669 569.98V580.63H540.929V521.04H540.939ZM563.329 521.04H543.069V544.45L549.479 544.98L543.069 545.51V568.92L549.479 569.45L543.069 569.98V580.63H563.329V521.04ZM585.719 521.04H565.459V544.45L571.869 544.98L565.459 545.51V568.92L571.869 569.45L565.459 569.98V580.63H585.719V521.04ZM608.099 521.04H587.839V544.45L593.179 544.98L587.839 545.51V568.92L593.179 569.45L587.829 569.98V580.63H608.089V521.04H608.099ZM630.489 521.04H610.229V544.45L614.509 544.98L610.229 545.51V568.92L614.509 569.45L610.229 569.98V580.63H630.489L630.519 570.67L628.349 569.45L630.589 567.4L630.519 546.19L628.349 544.97L630.519 543.75L630.489 521.02V521.04ZM652.879 521.04H632.619L632.549 543.87L635.829 544.98L632.549 546.09V568.33L635.829 569.44L632.699 570.03L632.619 580.61H652.879L652.909 570.65L650.739 569.43L652.979 567.38L652.909 546.17L650.739 544.95L652.909 543.73L652.879 521V521.04ZM675.269 521.04H655.009L654.979 543.77L657.149 544.99L654.979 546.21C655.849 550.37 653.759 566.38 655.279 568.75C655.609 569.27 657.309 568.49 657.159 569.47L654.989 570.69L655.019 580.65H675.279L675.199 570.07L672.069 569.48L675.349 568.37V546.13L672.069 545.02L675.349 543.91L675.279 521.08L675.269 521.04ZM697.649 521.04H677.389L677.359 543.77L679.529 544.99L677.359 546.21C678.229 550.37 676.139 566.38 677.659 568.75C677.989 569.27 679.689 568.49 679.539 569.47L677.369 570.69L677.399 580.65H697.659V570L693.379 569.47L697.659 568.94V545.53L693.379 545L697.659 544.47V521.06L697.649 521.04ZM720.039 521.04H699.779V580.63H720.039V569.98L714.699 569.45L720.039 568.92V545.51L714.699 544.98L720.039 544.45V521.04ZM722.169 521.04V580.63C725.889 579.92 732.239 582.65 733.369 578.48L736.039 578.51L734.959 580.62H741.369L741.349 572.12C736.839 575.8 733.829 570.15 733.159 570.01C731.699 569.7 725.299 570.58 725.359 569.46C729.379 568.95 725.119 566.25 725.379 563.67C730.049 561.66 732.079 563.67 735.939 565.83L734.959 568.91H741.359L741.369 562.08C741.059 559.97 732.789 563.58 732.779 559.87C732.779 553.78 735.659 551.56 741.339 554.02L741.359 548.7L733.409 548.78L732.759 545.64L725.349 544.99L733.879 542.86C728.629 543.24 726.119 544.46 725.379 538.15L733.889 538.08L732.819 541.25H741.339L741.359 535.93L732.809 535.32L732.829 529.55L734.959 533.81L737.089 529.54L741.339 533.8V523.16C738.909 522.86 735.839 523.67 733.549 523.14C732.689 522.94 733.259 521.21 731.289 520.95C728.509 520.59 725.059 521.36 722.159 521.03L722.169 521.04ZM764.819 521.04H745.629V580.63H764.819V569.98L757.349 569.45L764.819 568.92V545.51L758.409 544.98L764.819 544.45V521.04ZM787.199 521.04H766.939V580.63H787.199V569.98L779.729 569.45L787.199 568.92V545.51L779.729 544.98L787.199 544.45V521.04ZM809.589 521.04H789.329V580.63H809.589V521.04ZM831.979 521.04H811.719V544.45L819.189 544.98L811.719 545.51V568.92L819.189 569.45L811.709 569.98V580.63H831.969V521.04H831.979ZM854.369 521.04H834.109V544.45L840.519 544.98L834.109 545.51V568.92L840.519 569.45L834.109 569.98V580.63H854.369V521.04ZM876.749 521.04H856.489V544.45L861.829 544.98L856.489 545.51V568.92L861.829 569.45L856.479 569.98V580.63H876.739V521.04H876.749ZM899.139 521.04H878.879V544.45L883.159 544.98L878.879 545.51V568.92L883.159 569.45L878.879 569.98V580.63H899.139L899.169 570.67L896.999 569.45L899.239 567.4L899.169 546.19L896.999 544.97L899.169 543.75L899.139 521.02V521.04ZM921.529 521.04H901.269L901.199 543.87L904.479 544.98L901.199 546.09V568.33L904.479 569.44L901.349 570.03L901.269 580.61H921.529L921.559 570.65L919.389 569.43L921.629 567.38L921.559 546.17L919.389 544.95L921.559 543.73L921.529 521V521.04ZM943.919 521.04H923.659L923.589 543.87L926.869 544.98L923.589 546.09V568.33L926.869 569.44L923.739 570.03L923.659 580.61H943.919L943.839 570.03L940.709 569.44L943.989 568.33V546.09L940.709 544.98L943.989 543.87L943.919 521.04ZM966.299 521.04H946.039L946.009 543.77L948.179 544.99L946.009 546.21C946.879 550.37 944.789 566.38 946.309 568.75C946.639 569.27 948.339 568.49 948.189 569.47L946.019 570.69L946.049 580.65H966.309V570L962.029 569.47L966.309 568.94V545.53L962.029 545L966.309 544.47V521.06L966.299 521.04ZM988.689 521.04H968.429V580.63H988.689V569.98L983.349 569.45L988.689 568.92V545.51L983.349 544.98L988.689 544.45V521.04ZM1011.08 521.04H990.819V580.63H1011.08V569.98L1004.67 569.45L1011.08 568.92V545.51L1004.67 544.98L1011.08 544.45V521.04ZM1033.47 521.04H1013.21V580.63H1033.47V569.98L1027.06 569.45L1033.47 568.92V545.51L1027.06 544.98L1033.47 544.45V521.04ZM1055.85 521.04H1035.59V580.63H1055.85V569.98L1048.38 569.45L1055.85 568.92V545.51L1048.38 544.98L1055.85 544.45V521.04ZM1078.24 521.04H1057.98V580.63H1078.24V521.04ZM1080.37 521.04V544.45L1087.84 544.98L1080.37 545.51V568.92H1085.7C1086.14 567.15 1084.3 568.27 1083.77 567.65C1083.32 567.13 1084.42 564.78 1083.68 563.69C1088.73 561.81 1092.49 562.88 1093.32 568.75L1099.57 568.91L1099.59 562.02L1091.04 561.47C1090.08 554.84 1092.9 550.81 1099.56 554.02L1099.58 548.7H1091.04V542.32L1083.6 542.27L1083.67 538.15C1086.91 537.08 1092.74 536.17 1091.05 541.25C1094.2 540.54 1096.52 539.37 1099.57 541.25L1099.59 535.93L1091.04 535.32L1091.06 529.55L1093.19 533.81L1095.32 529.54L1099.57 533.8V523.16C1097.14 522.86 1094.07 523.67 1091.78 523.14C1090.92 522.94 1091.49 521.21 1089.52 520.95C1086.74 520.59 1083.29 521.36 1080.39 521.03L1080.37 521.04ZM1123.02 521.04H1103.83V544.45L1109.17 544.98L1103.83 545.51V568.92L1109.17 569.45L1103.82 569.98V580.63H1123.02V521.04ZM1145.4 521.04H1125.14V544.45L1130.48 544.98L1125.14 545.51V568.92L1130.48 569.45L1125.13 569.98V580.63H1145.39V521.04H1145.4ZM1167.79 521.04H1147.53V544.45L1152.87 544.98L1147.53 545.51V568.92L1152.87 569.45L1147.52 569.98V580.63H1167.78V521.04H1167.79ZM1190.18 521.04H1169.92V544.45L1174.2 544.98L1169.92 545.51V568.92L1174.2 569.45L1169.92 569.98V580.63H1190.18L1190.21 570.67L1188.04 569.45L1190.28 567.4L1190.21 546.19L1188.04 544.97L1190.21 543.75L1190.18 521.02V521.04ZM1212.57 521.04H1192.31L1192.24 543.87L1195.52 544.98L1192.24 546.09V568.33L1195.52 569.44L1192.39 570.03L1192.31 580.61H1212.57L1212.49 570.03L1209.36 569.44L1212.64 568.33V546.09L1209.36 544.98L1212.64 543.87L1212.57 521.04ZM1234.95 521.04H1214.69L1214.66 543.77L1216.83 544.99L1214.66 546.21C1215.53 550.37 1213.44 566.38 1214.96 568.75C1215.29 569.27 1216.99 568.49 1216.84 569.47L1214.67 570.69L1214.7 580.65H1234.96L1234.88 570.07L1231.75 569.48L1235.03 568.37V546.13L1231.75 545.02L1235.03 543.91L1234.96 521.08L1234.95 521.04ZM1257.34 521.04H1237.08V580.63H1257.34V569.98L1253.06 569.45L1257.34 568.92V545.51L1253.06 544.98L1257.34 544.45V521.04ZM1279.73 521.04H1259.47V580.63H1279.73V569.98L1274.39 569.45L1279.73 568.92V545.51L1274.39 544.98L1279.73 544.45V521.04ZM1302.12 521.04H1281.86V580.63H1302.12V569.98L1295.71 569.45L1302.12 568.92V545.51L1295.71 544.98L1302.12 544.45V521.04ZM1324.5 521.04H1304.24V580.63H1324.5V569.98L1317.03 569.45L1324.5 568.92V545.51L1317.03 544.98L1324.5 544.45V521.04ZM1346.89 521.04H1326.63V580.63H1346.89V521.04ZM1369.28 521.04H1349.02V580.63H1369.28V521.04ZM1391.67 521.04H1371.41V544.45L1378.88 544.98L1371.41 545.51V568.92L1378.88 569.45L1371.4 569.98V580.63H1391.66V521.04H1391.67ZM1414.05 521.04H1393.79V544.45L1400.2 544.98L1393.79 545.51V568.92L1400.2 569.45L1393.79 569.98V580.63H1414.05V521.04ZM1436.44 521.04H1416.18V544.45L1421.52 544.98L1416.18 545.51V568.92L1421.52 569.45L1416.17 569.98V580.63H1436.43V521.04H1436.44ZM1438.57 521.04V544.45L1442.85 544.98L1438.57 545.51V568.92L1442.85 569.45L1438.57 569.98V580.63C1442.29 579.91 1448.65 582.64 1449.78 578.48L1452.45 578.51L1451.37 580.62H1457.78L1457.76 572.12C1452.74 575.33 1451.67 571.22 1449.42 570.09C1445.54 568.16 1442.05 569.17 1441.8 563.68C1446.5 561.65 1448.47 563.68 1452.36 565.84L1451.37 568.91L1457.77 569.99L1457.79 562.09C1457.48 559.98 1449.21 563.59 1449.2 559.88C1449.2 553.79 1452.08 551.57 1457.76 554.03L1457.78 548.71L1449.36 548.54C1449.27 546.65 1449.39 545.15 1447.13 545.5L1450.31 542.34L1443.89 542.89L1441.8 538.15L1450.31 538.08L1449.24 541.25H1457.76L1457.78 535.93L1449.23 535.32L1449.25 529.55L1451.38 533.81L1453.51 529.54L1457.76 533.8V523.16C1455.33 522.86 1452.26 523.67 1449.97 523.14C1449.11 522.94 1449.68 521.21 1447.71 520.95C1444.93 520.59 1441.48 521.36 1438.58 521.03L1438.57 521.04ZM1481.22 521.04H1462.03L1461.96 543.87L1465.24 544.98L1461.96 546.09V568.33L1465.24 569.44L1462.11 570.03L1462.03 580.61H1481.22L1481.25 570.65L1479.08 569.43L1481.32 567.38L1481.25 546.17L1479.08 544.95L1481.25 543.73L1481.22 521V521.04ZM1099.55 572.12C1095.61 574.3 1090.76 572.79 1091.02 567.86C1087.69 570.19 1084.34 570.26 1080.37 569.99V580.64C1084.21 579.91 1090.34 582.67 1091.58 578.5C1094.03 577.96 1092.65 580.34 1093.86 580.66C1095.47 581.08 1097.8 580.42 1099.57 580.63L1099.55 572.13V572.12ZM48.4192 582.76H28.1592V593.4H48.4192V582.76ZM70.7992 582.76H50.5392V593.4H70.7992V582.76ZM93.1892 582.76H72.9292V593.4H93.1892V582.76ZM115.579 582.76H95.3192V593.4H115.579V582.76ZM137.969 582.76H117.709V593.4H137.969V582.76ZM160.349 582.76H140.089V593.4H160.349V582.76ZM182.739 582.76H162.479V593.4H182.739V582.76ZM205.129 582.76H184.869V593.4H205.129V582.76ZM227.519 582.76H207.259V593.4H227.519V582.76ZM249.899 582.76H229.639V593.4H249.899V582.76ZM272.289 582.76H252.029V593.4H272.289V582.76ZM294.679 582.76H274.419V593.4H294.679V582.76ZM317.069 582.76H296.809V593.4H317.069V582.76ZM339.449 582.76H319.189V593.4H339.449V582.76ZM361.839 582.76H341.579V593.4H361.839V582.76ZM383.159 584.89C376.109 587.8 371.949 580.47 363.969 582.75V593.4C366.599 592.98 370.499 594.02 372.819 593.42C373.859 593.15 373.749 591.11 375.349 590.42C377.439 589.52 380.889 589.75 383.159 590.21V584.89ZM406.619 582.76H387.429V593.4H406.619V582.76ZM428.999 582.76H408.739V593.4H428.999V582.76ZM451.389 582.76H431.129V593.4H451.389V582.76ZM473.779 582.76H453.519V593.4H473.779V582.76ZM496.169 582.76H475.909V593.4H496.169V582.76ZM518.549 582.76H498.289V593.4H518.549V582.76ZM540.939 582.76H520.679V593.4H540.939V582.76ZM563.329 582.76H543.069V593.4H563.329V582.76ZM585.719 582.76H565.459V593.4H585.719V582.76ZM608.099 582.76H587.839V593.4H608.099V582.76ZM630.489 582.76H610.229V593.4H630.489V582.76ZM652.879 582.76H632.619V593.4H652.879V582.76ZM675.269 582.76H655.009V593.4H675.269V582.76ZM697.649 582.76H677.389V593.4H697.649V582.76ZM720.039 582.76H699.779V593.4H720.039V582.76ZM733.639 583.05C730.909 581.87 725.379 583.27 722.159 582.75V593.4C725.069 592.96 729.589 594.14 732.169 593.23C733.519 592.75 733.539 590.85 734.149 590.47C735.559 589.59 739.389 590.4 741.209 588.98L741.349 584.88C736.539 588.35 734.589 583.46 733.639 583.05ZM764.819 582.76H745.629V593.4H764.819V582.76ZM787.199 582.76H766.939V593.4H787.199V582.76ZM809.589 582.76H789.329V593.4H809.589V582.76ZM831.979 582.76H811.719V593.4H831.979V582.76ZM854.369 582.76H834.109V593.4H854.369V582.76ZM876.749 582.76H856.489V593.4H876.749V582.76ZM899.139 582.76H878.879V593.4H899.139V582.76ZM921.529 582.76H901.269V593.4H921.529V582.76ZM943.919 582.76H923.659V593.4H943.919V582.76ZM966.299 582.76H946.039V593.4H966.299V582.76ZM988.689 582.76H968.429V593.4H988.689V582.76ZM1011.08 582.76H990.819V593.4H1011.08V582.76ZM1033.47 582.76H1013.21V593.4H1033.47V582.76ZM1055.85 582.76H1035.59V593.4H1055.85V582.76ZM1078.24 582.76H1057.98V593.4H1078.24V582.76ZM1099.55 584.89C1093.22 587.34 1088.18 580.29 1080.37 582.76V593.41C1083.28 592.93 1087.73 594.09 1090.29 593.43C1090.83 593.29 1094.82 587.4 1099.55 590.22V584.9V584.89ZM1123.02 582.76H1103.83V593.4H1123.02V582.76ZM1145.4 582.76H1125.14V593.4H1145.4V582.76ZM1167.79 582.76H1147.53V593.4H1167.79V582.76ZM1190.18 582.76H1169.92V593.4H1190.18V582.76ZM1212.57 582.76H1192.31V593.4H1212.57V582.76ZM1234.95 582.76H1214.69V593.4H1234.95V582.76ZM1257.34 582.76H1237.08V593.4H1257.34V582.76ZM1279.73 582.76H1259.47V593.4H1279.73V582.76ZM1302.12 582.76H1281.86V593.4H1302.12V582.76ZM1324.5 582.76H1304.24V593.4H1324.5V582.76ZM1346.89 582.76H1326.63V593.4H1346.89V582.76ZM1369.28 582.76H1349.02V593.4H1369.28V582.76ZM1391.67 582.76H1371.41V593.4H1391.67V582.76ZM1414.05 582.76H1393.79V593.4H1414.05V582.76ZM1436.44 582.76H1416.18V593.4H1436.44V582.76ZM1450.04 583.05C1447.31 581.87 1441.78 583.27 1438.56 582.75V593.4C1441.47 592.96 1445.99 594.14 1448.57 593.23C1449.92 592.75 1449.94 590.85 1450.55 590.47C1451.96 589.59 1455.79 590.4 1457.61 588.98L1457.75 584.88C1452.94 588.35 1450.99 583.46 1450.04 583.05ZM1481.22 582.76H1462.03V593.4H1481.22V582.76ZM48.4192 594.46H28.1592V617.87H48.4192V594.46ZM70.7992 594.46H50.5392V617.87H70.7992V594.46ZM93.1892 594.46H72.9292V617.87H93.1892V594.46ZM115.579 594.46H95.3192V617.87H115.579V594.46ZM137.969 594.46H117.709V617.87H137.969V594.46ZM160.349 594.46H140.089V617.87H160.349V594.46ZM182.739 594.46H162.479V617.87H182.739V594.46ZM205.129 594.46H184.869V617.87H205.129V594.46ZM227.519 594.46H207.259V617.87H227.519V594.46ZM249.899 594.46H229.639V617.87H249.899V594.46ZM272.289 594.46H252.029V617.87H272.289V594.46ZM294.679 594.46H274.419V617.87H294.679V594.46ZM317.069 594.46H296.809V617.87H317.069V594.46ZM339.449 594.46H319.189V617.87H339.449V594.46ZM361.839 594.46H341.579V617.87H361.839V594.46ZM363.969 594.46V617.87C366.409 619.71 382.789 614.3 383.179 613.08C383.379 612.45 383.519 610.52 382.529 610.32C380.309 609.42 377.399 609.1 375.329 608.09C373.899 607.39 373.789 605.6 373.389 605.33C373.089 605.13 367.539 606.38 366.119 605.04L366.189 600.92C369.459 599.8 375.329 599.02 373.569 604.02L382.529 602.02L383.169 596.58C380.589 596.29 377.569 596.99 375.099 596.67C373.129 596.42 373.699 594.68 372.839 594.48C370.299 593.89 366.719 594.81 363.979 594.46H363.969ZM406.619 594.46H387.429V617.87H406.619V594.46ZM428.999 594.46H408.739V617.87H428.999V594.46ZM451.389 594.46H431.129V617.87H451.389V594.46ZM473.779 594.46H453.519V617.87H473.779V594.46ZM496.169 594.46H475.909V617.87H496.169V594.46ZM518.549 594.46H498.289V617.87H518.549V594.46ZM540.939 594.46H520.679V617.87H540.939V594.46ZM563.329 594.46H543.069V617.87H563.329V594.46ZM585.719 594.46H565.459V617.87H585.719V594.46ZM608.099 594.46H587.839V617.87H608.099V594.46ZM630.489 594.46H610.229V617.87H630.489V594.46ZM652.879 594.46H632.619V617.87H652.879V594.46ZM675.269 594.46H655.009V617.87H675.269V594.46ZM697.649 594.46H677.389V617.87H697.649V594.46ZM720.039 594.46H699.779V617.87H720.039V594.46ZM722.169 594.46V617.87C725.449 619.1 739.309 615.94 740.889 613.67C743.909 609.33 736.539 609.22 734.589 608.11C733.059 607.24 732.999 605.46 732.699 605.25C732.349 605 728.929 607.1 727.479 605.66L725.389 600.91C726.359 599.95 733.229 600.02 733.899 600.84C734.669 601.77 730.929 604.27 734.429 604.05C739.649 603.72 742.349 602.25 741.359 596.58C738.909 596.27 735.849 597.09 733.559 596.56C732.699 596.36 733.269 594.63 731.299 594.37C728.519 594.01 725.069 594.78 722.169 594.45V594.46ZM764.819 594.46H745.629V617.87H764.819V594.46ZM787.199 594.46H766.939V617.87H787.199V594.46ZM809.589 594.46H789.329V617.87H809.589V594.46ZM831.979 594.46H811.719V617.87H831.979V594.46ZM854.369 594.46H834.109V617.87H854.369V594.46ZM876.749 594.46H856.489V617.87H876.749V594.46ZM899.139 594.46H878.879V617.87H899.139V594.46ZM921.529 594.46H901.269V617.87H921.529V594.46ZM943.919 594.46H923.659V617.87H943.919V594.46ZM966.299 594.46H946.039V617.87H966.299V594.46ZM988.689 594.46H968.429V617.87H988.689V594.46ZM1011.08 594.46H990.819V617.87H1011.08V594.46ZM1033.47 594.46H1013.21V617.87H1033.47V594.46ZM1055.85 594.46H1035.59V617.87H1055.85V594.46ZM1078.24 594.46H1057.98V617.87H1078.24V594.46ZM1080.37 594.46V617.87C1083.65 619.1 1097.51 615.94 1099.09 613.67C1102.05 609.42 1094.91 609.18 1092.79 608.1C1091.37 607.38 1091.25 605.6 1090.85 605.33C1090.55 605.13 1085 606.38 1083.58 605.04L1083.65 600.92C1086.92 599.8 1092.79 599.02 1091.03 604.02C1096.53 603.96 1100.81 603.14 1099.56 596.58C1097.11 596.27 1094.05 597.09 1091.76 596.56C1090.9 596.36 1091.47 594.63 1089.5 594.37C1086.72 594.01 1083.27 594.78 1080.37 594.45V594.46ZM1123.02 594.46H1103.83V617.87H1123.02V594.46ZM1145.4 594.46H1125.14V617.87H1145.4V594.46ZM1167.79 594.46H1147.53V617.87H1167.79V594.46ZM1190.18 594.46H1169.92V617.87H1190.18V594.46ZM1212.57 594.46H1192.31V617.87H1212.57V594.46ZM1234.95 594.46H1214.69V617.87H1234.95V594.46ZM1257.34 594.46H1237.08V617.87H1257.34V594.46ZM1279.73 594.46H1259.47V617.87H1279.73V594.46ZM1302.12 594.46H1281.86V617.87H1302.12V594.46ZM1324.5 594.46H1304.24V617.87H1324.5V594.46ZM1346.89 594.46H1326.63V617.87H1346.89V594.46ZM1369.28 594.46H1349.02V617.87H1369.28V594.46ZM1391.67 594.46H1371.41V617.87H1391.67V594.46ZM1414.05 594.46H1393.79V617.87H1414.05V594.46ZM1436.44 594.46H1416.18V617.87H1436.44V594.46ZM1438.57 594.46V617.87C1441.85 619.1 1455.71 615.94 1457.29 613.67C1460.31 609.33 1452.94 609.22 1450.99 608.11C1449.46 607.24 1449.4 605.46 1449.1 605.25C1448.75 605 1445.33 607.1 1443.88 605.66L1441.79 600.91C1442.76 599.95 1449.63 600.02 1450.3 600.84C1451.07 601.77 1447.33 604.27 1450.83 604.05C1456.05 603.72 1458.75 602.25 1457.76 596.58C1455.31 596.27 1452.25 597.09 1449.96 596.56C1449.1 596.36 1449.67 594.63 1447.7 594.37C1444.92 594.01 1441.47 594.78 1438.57 594.45V594.46ZM1481.22 594.46H1462.03V617.87H1481.22V594.46ZM28.1592 618.93V642.34H48.4192V618.93H28.1592ZM50.5492 618.93V642.34H70.8092V618.93H50.5492ZM93.1892 618.93H72.9292V642.34H93.1892V618.93ZM115.579 618.93H95.3192V642.34H115.579V618.93ZM137.969 618.93H117.709V642.34H137.969V618.93ZM160.349 618.93H140.089V642.34H160.349V618.93ZM182.739 618.93H162.479V642.34H182.739V618.93ZM205.129 618.93H184.869V642.34H205.129V618.93ZM227.519 618.93H207.259V642.34H227.519V618.93ZM249.899 618.93H229.639V642.34H249.899V618.93ZM272.289 618.93H252.029V642.34H272.289V618.93ZM294.679 618.93H274.419V642.34H294.679V618.93ZM317.069 618.93H296.809V642.34H317.069V618.93ZM339.449 618.93H319.189V642.34H339.449V618.93ZM361.839 618.93H341.579V642.34H361.839V618.93ZM363.969 618.93V642.34L372.909 642.41L375.689 638.09L377.829 642.35V638.08H383.169V633.83C377.559 635.79 373.089 635.49 373.559 628.49L366.119 628.45L366.189 624.33C369.389 623.26 373.509 622.67 375.159 626.41C375.949 628.2 375.339 630.68 375.859 631.53C376.569 632.69 383.179 633.23 382.099 629.57L377.849 630.63V626.38H383.179C385.169 621.65 377.589 619.81 373.859 619.19C370.579 618.65 367.269 619.01 363.989 618.93H363.969ZM406.619 618.93H387.429V642.34H406.619V618.93ZM428.999 618.93H408.739V642.34H428.999V618.93ZM451.389 618.93H431.129V642.34H451.389V618.93ZM473.779 618.93H453.519V642.34H473.779V618.93ZM496.169 618.93H475.909V642.34H496.169V618.93ZM518.549 618.93H498.289V642.34H518.549V618.93ZM540.939 618.93H520.679V642.34H540.939V618.93ZM563.329 618.93H543.069V642.34H563.329V618.93ZM585.719 618.93H565.459V642.34H585.719V618.93ZM608.099 618.93H587.839V642.34H608.099V618.93ZM630.489 618.93H610.229V642.34H630.489V618.93ZM652.879 618.93H632.619V642.34H652.879V618.93ZM675.269 618.93H655.009V642.34H675.269V618.93ZM697.649 618.93H677.389V642.34H697.649V618.93ZM720.039 618.93H699.779V642.34H720.039V618.93ZM722.169 618.93V642.34L732.179 642.41L734.429 638.1L734.949 641.79L737.089 642.34C736.839 639.11 738.089 637.93 741.319 638.02L741.369 634.89C732.359 636.96 734.039 629.65 732.819 628.49C732.619 628.3 728.949 630.62 727.479 629.06L725.389 624.32C727.319 623.67 731.359 622.98 733.099 624.16C736.349 626.35 734.289 631.87 737.789 632.55C739.069 632.8 742.179 631.98 741.349 629.57L737.099 630.63V627.98L741.409 625.82L740.869 622.07C735.099 618.73 728.729 618.62 722.169 618.93ZM764.819 618.93H745.629V642.34H764.819V618.93ZM787.199 618.93H766.939V642.34H787.199V618.93ZM809.589 618.93H789.329V642.34H809.589V618.93ZM831.979 618.93H811.719V642.34H831.979V618.93ZM854.369 618.93H834.109V642.34H854.369V618.93ZM876.749 618.93H856.489V642.34H876.749V618.93ZM899.139 618.93H878.879V642.34H899.139V618.93ZM921.529 618.93H901.269V642.34H921.529V618.93ZM943.919 618.93H923.659V642.34H943.919V618.93ZM966.299 618.93H946.039V642.34H966.299V618.93ZM988.689 618.93H968.429V642.34H988.689V618.93ZM1011.08 618.93H990.819V642.34H1011.08V618.93ZM1033.47 618.93H1013.21V642.34H1033.47V618.93ZM1055.85 618.93H1035.59V642.34H1055.85V618.93ZM1078.24 618.93H1057.98V642.34H1078.24V618.93ZM1080.37 618.93V642.34L1090.38 642.41L1093.16 638.09L1095.3 642.35V638.08H1099.58L1099.56 633.83C1094.47 636.47 1090.45 634.41 1091.03 628.5L1083.59 628.46L1083.66 624.34C1086.86 623.27 1090.98 622.68 1092.63 626.42C1093.42 628.21 1092.81 630.69 1093.33 631.54C1094.04 632.7 1100.65 633.24 1099.57 629.58L1095.32 630.64L1095.3 626.39L1098.86 626.41C1104.24 618.89 1081.4 617.92 1080.38 618.94L1080.37 618.93ZM1123.02 618.93H1103.83V642.34H1123.02V618.93ZM1145.4 618.93H1125.14V642.34H1145.4V618.93ZM1167.79 618.93H1147.53V642.34H1167.79V618.93ZM1190.18 618.93H1169.92V642.34H1190.18V618.93ZM1212.57 618.93H1192.31V642.34H1212.57V618.93ZM1234.95 618.93H1214.69V642.34H1234.95V618.93ZM1257.34 618.93H1237.08V642.34H1257.34V618.93ZM1279.73 618.93H1259.47V642.34H1279.73V618.93ZM1302.12 618.93H1281.86V642.34H1302.12V618.93ZM1324.5 618.93H1304.24V642.34H1324.5V618.93ZM1346.89 618.93H1326.63V642.34H1346.89V618.93ZM1369.28 618.93H1349.02V642.34H1369.28V618.93ZM1391.67 618.93H1371.41V642.34H1391.67V618.93ZM1414.05 618.93H1393.79V642.34H1414.05V618.93ZM1436.44 618.93H1416.18V642.34H1436.44V618.93ZM1438.57 618.93V642.34L1448.58 642.41L1450.83 638.1L1451.35 641.79L1453.49 642.34C1453.24 639.11 1454.49 637.93 1457.72 638.02L1457.77 634.89C1448.76 636.96 1450.44 629.65 1449.22 628.49C1449.02 628.3 1445.35 630.62 1443.88 629.06L1441.79 624.32C1443.72 623.67 1447.76 622.98 1449.5 624.16C1452.75 626.35 1450.69 631.87 1454.19 632.55C1455.47 632.8 1458.58 631.98 1457.75 629.57L1453.5 630.63V627.98L1457.81 625.82L1457.27 622.07C1451.5 618.73 1445.13 618.62 1438.57 618.93ZM1481.22 618.93H1462.03V642.34H1481.22V618.93ZM28.1592 643.41V666.82H48.4192V643.41H28.1592ZM50.5492 643.41V666.82H70.8092V643.41H50.5492ZM93.1892 643.41H72.9292V666.82H93.1892V643.41ZM115.579 643.41H95.3192V666.82H115.579V643.41ZM137.969 643.41H117.709V666.82H137.969V643.41ZM160.349 643.41H140.089V666.82H160.349V643.41ZM182.739 643.41H162.479V666.82H182.739V643.41ZM205.129 643.41H184.869V666.82H205.129V643.41ZM227.519 643.41H207.259V666.82H227.519V643.41ZM249.899 643.41H229.639V666.82H249.899V643.41ZM272.289 643.41H252.029V666.82H272.289V643.41ZM294.679 643.41H274.419V666.82H294.679V643.41ZM317.069 643.41H296.809V666.82H317.069V643.41ZM339.449 643.41H319.189V666.82H339.449V643.41ZM361.839 643.41H341.579V666.82H361.839V643.41ZM363.969 643.41V666.82C367.029 666.16 373.859 668.75 373.589 664.73L375.149 664.68L375.719 666.77H377.789L378.359 664.67L383.149 666.82L383.169 658.92L373.549 658.31V652.98L366.099 652.93L366.169 648.81C372.569 645.82 375.419 650.72 375.679 656.18C379.639 657.13 376.719 652.44 378.349 651.91C381.259 650.97 379.349 655.61 379.939 656.18H383.129V645.53C375.659 648.8 372.319 641.03 363.949 643.4L363.969 643.41ZM406.619 643.41H387.429V666.82H406.619V643.41ZM428.999 643.41H408.739V666.82H428.999V643.41ZM451.389 643.41H431.129V666.82H451.389V643.41ZM473.779 643.41H453.519V666.82H473.779V643.41ZM496.169 643.41H475.909V666.82H496.169V643.41ZM518.549 643.41H498.289V666.82H518.549V643.41ZM540.939 643.41H520.679V666.82H540.939V643.41ZM563.329 643.41H543.069V666.82H563.329V643.41ZM585.719 643.41H565.459V666.82H585.719V643.41ZM608.099 643.41H587.839V666.82H608.099V643.41ZM630.489 643.41H610.229V666.82H630.489V643.41ZM652.879 643.41H632.619V666.82H652.879V643.41ZM675.269 643.41H655.009V666.82H675.269V643.41ZM697.649 643.41H677.389V666.82H697.649V643.41ZM720.039 643.41H699.779V666.82H720.039V643.41ZM722.169 643.41V666.82C725.389 666.07 733.039 668.86 732.859 664.73L734.419 664.67L734.989 666.76H737.059L737.129 664.74L741.349 666.81V658.3L732.819 658.31V652.98L727.469 653.54C722.269 647.39 728.789 647.38 733.899 648.73L732.959 651.4C735.539 652.31 735.159 653.58 734.959 656.18L737.089 651.91L741.339 656.17L741.379 647.2C741.229 646.26 736.899 646.57 735.159 645.87C733.949 645.38 734.029 643.62 733.139 643.42C730.049 642.74 725.499 643.85 722.149 643.4L722.169 643.41ZM764.819 643.41H745.629V666.82H764.819V643.41ZM787.199 643.41H766.939V666.82H787.199V643.41ZM809.589 643.41H789.329V666.82H809.589V643.41ZM831.979 643.41H811.719V666.82H831.979V643.41ZM854.369 643.41H834.109V666.82H854.369V643.41ZM876.749 643.41H856.489V666.82H876.749V643.41ZM899.139 643.41H878.879V666.82H899.139V643.41ZM921.529 643.41H901.269V666.82H921.529V643.41ZM943.919 643.41H923.659V666.82H943.919V643.41ZM966.299 643.41H946.039V666.82H966.299V643.41ZM988.689 643.41H968.429V666.82H988.689V643.41ZM1011.08 643.41H990.819V666.82H1011.08V643.41ZM1033.47 643.41H1013.21V666.82H1033.47V643.41ZM1055.85 643.41H1035.59V666.82H1055.85V643.41ZM1078.24 643.41H1057.98V666.82H1078.24V643.41ZM1080.37 643.41V666.82C1083.59 666.07 1091.24 668.86 1091.06 664.73L1092.62 664.67L1093.19 666.76H1095.26L1095.33 664.74L1099.55 666.81L1099.57 658.92L1091.02 658.31V652.98L1083.57 652.93L1083.64 648.81C1090.04 645.82 1092.89 650.72 1093.15 656.18L1095.28 651.91L1099.53 656.17V645.54C1094.41 649.12 1092.62 644.05 1089.39 643.43C1086.68 642.9 1083.19 643.73 1080.34 643.41H1080.37ZM1123.02 643.41H1103.83V666.82H1123.02V643.41ZM1145.4 643.41H1125.14V666.82H1145.4V643.41ZM1167.79 643.41H1147.53V666.82H1167.79V643.41ZM1190.18 643.41H1169.92V666.82H1190.18V643.41ZM1212.57 643.41H1192.31V666.82H1212.57V643.41ZM1234.95 643.41H1214.69V666.82H1234.95V643.41ZM1257.34 643.41H1237.08V666.82H1257.34V643.41ZM1279.73 643.41H1259.47V666.82H1279.73V643.41ZM1302.12 643.41H1281.86V666.82H1302.12V643.41ZM1324.5 643.41H1304.24V666.82H1324.5V643.41ZM1346.89 643.41H1326.63V666.82H1346.89V643.41ZM1369.28 643.41H1349.02V666.82H1369.28V643.41ZM1391.67 643.41H1371.41V666.82H1391.67V643.41ZM1414.05 643.41H1393.79V666.82H1414.05V643.41ZM1436.44 643.41H1416.18V666.82H1436.44V643.41ZM1438.57 643.41V666.82C1441.79 666.07 1449.44 668.86 1449.26 664.73L1450.82 664.67L1451.39 666.76H1453.46L1453.53 664.74L1457.75 666.81V658.3L1449.22 658.31V652.98L1443.87 653.54C1438.67 647.39 1445.19 647.38 1450.3 648.73L1449.36 651.4C1451.94 652.31 1451.56 653.58 1451.36 656.18L1453.49 651.91L1457.74 656.17L1457.78 647.2C1457.63 646.26 1453.3 646.57 1451.56 645.87C1450.35 645.38 1450.43 643.62 1449.54 643.42C1446.45 642.74 1441.9 643.85 1438.55 643.4L1438.57 643.41ZM1481.22 643.41H1462.03V666.82H1481.22V643.41ZM48.4192 667.88H28.1592V691.29L33.4992 691.82L28.1592 692.35V715.76L33.4992 716.29L28.1492 716.82V727.47H48.4092V667.88H48.4192ZM70.7992 667.88H50.5392V691.29L54.8192 691.82L50.5392 692.35V715.76L54.8192 716.29L50.5392 716.82V727.47H70.7992L70.8292 717.51L68.6592 716.29L70.8992 714.24L70.8292 693.03L68.6592 691.81L70.8292 690.59L70.7992 667.86V667.88ZM93.1892 667.88H72.9292L72.8592 690.71L76.1392 691.82L72.8592 692.93V715.17L76.1392 716.28L73.0092 716.87L72.9292 727.45H93.1892L93.1092 716.87L89.9792 716.28L93.2592 715.17V692.93L89.9792 691.82L93.2592 690.71L93.1892 667.88ZM115.579 667.88H95.3192L95.2892 690.61L97.4592 691.83L95.2892 693.05C96.1592 697.21 94.0692 713.22 95.5892 715.59C95.9192 716.11 97.6192 715.33 97.4692 716.31L95.2992 717.53L95.3292 727.49H115.589L115.509 716.91L112.379 716.32L115.659 715.21V692.97L112.379 691.86L115.659 690.75L115.589 667.92L115.579 667.88ZM137.969 667.88H117.709V727.47H137.969V716.82L133.689 716.29L137.969 715.76V692.35L133.689 691.82L137.969 691.29V667.88ZM160.349 667.88H140.089V727.47H160.349V716.82L155.009 716.29L160.349 715.76V692.35L155.009 691.82L160.349 691.29V667.88ZM182.739 667.88H162.479V727.47H182.739V716.82L176.329 716.29L182.739 715.76V692.35L176.329 691.82L182.739 691.29V667.88ZM205.129 667.88H184.869V727.47H205.129V716.82L197.659 716.29L205.129 715.76V692.35L197.659 691.82L205.129 691.29V667.88ZM227.519 667.88H207.259V727.47H227.519V667.88ZM249.899 667.88H229.639V727.47H249.899V667.88ZM272.289 667.88H252.029V691.29L259.499 691.82L252.029 692.35V715.76L259.499 716.29L252.019 716.82V727.47H272.279V667.88H272.289ZM294.679 667.88H274.419V691.29L280.829 691.82L274.419 692.35V715.76L280.829 716.29L274.419 716.82V727.47H294.679V667.88ZM317.069 667.88H296.809V691.29L302.149 691.82L296.809 692.35V715.76L302.149 716.29L296.799 716.82V727.47H317.059V667.88H317.069ZM339.449 667.88H319.189V691.29L323.469 691.82L319.189 692.35V715.76L323.469 716.29L319.189 716.82V727.47H339.449V667.88ZM361.839 667.88H341.579V691.29L345.859 691.82L341.579 692.35V715.76L345.859 716.29L341.579 716.82V727.47H361.839L361.869 717.51L359.699 716.29L361.939 714.24L361.869 693.03L359.699 691.81L361.869 690.59L361.839 667.86V667.88ZM373.499 668L363.969 667.87L363.899 690.7L367.179 691.81L363.899 692.92V715.16L367.179 716.27L364.049 716.86L363.969 727.45C367.629 726.81 372.979 729.37 374.109 725.31C376.559 724.77 375.179 727.15 376.389 727.47C377.999 727.89 380.329 727.23 382.099 727.44L381.339 725.56C384.219 725.09 383.069 722.45 383.159 720.01C375.969 723.57 375.569 717.29 370.379 716.8L373.559 713.62L366.119 713.57L366.189 709.45C375.669 705.73 372.139 713.39 377.819 715.76L375.699 717.87C383.379 718.82 380.119 716.83 381.289 714.16C381.619 713.4 384.709 712.43 383.169 708.31H373.569C372.609 700.45 375.889 698.24 383.159 700.86V696.61H373.569C374.979 692.02 369.869 690.52 366.099 690.21L366.189 686.05C369.429 684.98 375.259 684.07 373.569 689.15C377.139 687.97 379.589 687.91 383.159 689.15V682.76L373.549 682.15L373.569 676.38L377.819 680.64L379.949 676.37L382.079 680.64L383.159 671.06L374.149 671.13L373.499 667.99V668ZM406.619 667.88H387.429V727.47H406.619V716.82L402.339 716.29L406.619 715.76V692.35L402.339 691.82L406.619 691.29V667.88ZM428.999 667.88H408.739V727.47H428.999V716.82L423.659 716.29L428.999 715.76V692.35L423.659 691.82L428.999 691.29V667.88ZM451.389 667.88H431.129V727.47H451.389V716.82L446.049 716.29L451.389 715.76V692.35L446.049 691.82L451.389 691.29V667.88ZM473.779 667.88H453.519V727.47H473.779V716.82L467.369 716.29L473.779 715.76V692.35L467.369 691.82L473.779 691.29V667.88ZM496.169 667.88H475.909V727.47H496.169V716.82L488.699 716.29L496.169 715.76V692.35L488.699 691.82L496.169 691.29V667.88ZM518.549 667.88H498.289V727.47H518.549V667.88ZM540.939 667.88H520.679V691.29L528.149 691.82L520.679 692.35V715.76L528.149 716.29L520.669 716.82V727.47H540.929V667.88H540.939ZM563.329 667.88H543.069V691.29L549.479 691.82L543.069 692.35V715.76L549.479 716.29L543.069 716.82V727.47H563.329V667.88ZM585.719 667.88H565.459V691.29L571.869 691.82L565.459 692.35V715.76L571.869 716.29L565.459 716.82V727.47H585.719V667.88ZM608.099 667.88H587.839V691.29L593.179 691.82L587.839 692.35V715.76L593.179 716.29L587.829 716.82V727.47H608.089V667.88H608.099ZM630.489 667.88H610.229V691.29L614.509 691.82L610.229 692.35V715.76L614.509 716.29L610.229 716.82V727.47H630.489L630.519 717.51L628.349 716.29L630.589 714.24L630.519 693.03L628.349 691.81L630.519 690.59L630.489 667.86V667.88ZM652.879 667.88H632.619L632.549 690.71L635.829 691.82L632.549 692.93V715.17L635.829 716.28L632.699 716.87L632.619 727.45H652.879L652.909 717.49L650.739 716.27L652.979 714.22L652.909 693.01L650.739 691.79L652.909 690.57L652.879 667.84V667.88ZM675.269 667.88H655.009L654.979 690.61L657.149 691.83L654.979 693.05C655.849 697.21 653.759 713.22 655.279 715.59C655.609 716.11 657.309 715.33 657.159 716.31L654.989 717.53L655.019 727.49H675.279L675.199 716.91L672.069 716.32L675.349 715.21V692.97L672.069 691.86L675.349 690.75L675.279 667.92L675.269 667.88ZM697.649 667.88H677.389L677.359 690.61L679.529 691.83L677.359 693.05C678.229 697.21 676.139 713.22 677.659 715.59C677.989 716.11 679.689 715.33 679.539 716.31L677.369 717.53L677.399 727.49H697.659V716.84L693.379 716.31L697.659 715.78V692.37L693.379 691.84L697.659 691.31V667.9L697.649 667.88ZM720.039 667.88H699.779V727.47H720.039V716.82L714.699 716.29L720.039 715.76V692.35L714.699 691.82L720.039 691.29V667.88ZM722.169 667.88V727.47C725.889 726.76 732.239 729.49 733.369 725.32L736.039 725.35L734.959 727.46H741.369L741.349 720.02C734.049 723.81 733.529 714.18 725.369 716.82L732.829 715.22L727.469 714.2L725.379 709.46L733.899 709.4L733.309 712.64L735.919 713.74L734.959 716.83L741.389 715.17L741.359 708.32C739.429 707.62 732.789 710.05 732.789 706.73C732.789 700.64 735.669 698.42 741.349 700.88V696.63H732.829V692.36L725.359 691.84C729.389 691.33 725.109 688.63 725.379 686.06L733.899 686L732.829 689.17H741.349L741.369 682.79L732.819 682.18L732.839 676.41L734.969 680.67L737.099 676.4L741.349 680.66V671.08L733.409 671.16L732.239 667.82L722.159 667.89L722.169 667.88ZM764.819 667.88H745.629V727.47H764.819V716.82L757.349 716.29L764.819 715.76V692.35L757.349 691.82L764.819 691.29V667.88ZM787.199 667.88H766.939V727.47H787.199V716.82L779.729 716.29L787.199 715.76V692.35L779.729 691.82L787.199 691.29V667.88ZM809.589 667.88H789.329V727.47H809.589V667.88ZM831.979 667.88H811.719V691.29L819.189 691.82L811.719 692.35V715.76L819.189 716.29L811.709 716.82V727.47H831.969V667.88H831.979ZM854.369 667.88H834.109V691.29L840.519 691.82L834.109 692.35V715.76L840.519 716.29L834.109 716.82V727.47H854.369V667.88ZM876.749 667.88H856.489V691.29L861.829 691.82L856.489 692.35V715.76L861.829 716.29L856.479 716.82V727.47H876.739V667.88H876.749ZM899.139 667.88H878.879V691.29L883.159 691.82L878.879 692.35V715.76L883.159 716.29L878.879 716.82V727.47H899.139L899.169 717.51L896.999 716.29L899.239 714.24L899.169 693.03L896.999 691.81L899.169 690.59L899.139 667.86V667.88ZM921.529 667.88H901.269L901.199 690.71L904.479 691.82L901.199 692.93V715.17L904.479 716.28L901.349 716.87L901.269 727.45H921.529L921.559 717.49L919.389 716.27L921.629 714.22L921.559 693.01L919.389 691.79L921.559 690.57L921.529 667.84V667.88ZM943.919 667.88H923.659L923.589 690.71L926.869 691.82L923.589 692.93V715.17L926.869 716.28L923.739 716.87L923.659 727.45H943.919L943.839 716.87L940.709 716.28L943.989 715.17V692.93L940.709 691.82L943.989 690.71L943.919 667.88ZM966.299 667.88H946.039L946.009 690.61L948.179 691.83L946.009 693.05C946.879 697.21 944.789 713.22 946.309 715.59C946.639 716.11 948.339 715.33 948.189 716.31L946.019 717.53L946.049 727.49H966.309V716.84L962.029 716.31L966.309 715.78V692.37L962.029 691.84L966.309 691.31V667.9L966.299 667.88ZM988.689 667.88H968.429V727.47H988.689V716.82L983.349 716.29L988.689 715.76V692.35L983.349 691.82L988.689 691.29V667.88ZM1011.08 667.88H990.819V727.47H1011.08V716.82L1004.67 716.29L1011.08 715.76V692.35L1004.67 691.82L1011.08 691.29V667.88ZM1033.47 667.88H1013.21V727.47H1033.47V716.82L1027.06 716.29L1033.47 715.76V692.35L1027.06 691.82L1033.47 691.29V667.88ZM1055.85 667.88H1035.59V727.47H1055.85V716.82L1048.38 716.29L1055.85 715.76V692.35L1048.38 691.82L1055.85 691.29V667.88ZM1078.24 667.88H1057.98V727.47H1078.24V667.88ZM1080.37 667.88V691.29H1085.7C1086.14 689.52 1084.3 690.64 1083.77 690.02C1083.32 689.5 1084.42 687.15 1083.68 686.06C1086.88 684.96 1092.73 684.08 1091.04 689.15C1094.19 688.44 1096.5 687.27 1099.56 689.15L1099.58 682.76L1091.03 682.15L1091.05 676.38L1093.18 680.64L1095.31 676.37L1099.56 680.63L1099.58 671.67L1091.1 670.93L1090.45 667.79L1080.37 667.86V667.88ZM1123.02 667.88H1103.83V691.29L1109.17 691.82L1103.83 692.35V715.76L1109.17 716.29L1103.82 716.82V727.47H1123.02V667.88ZM1145.4 667.88H1125.14V691.29L1130.48 691.82L1125.14 692.35V715.76L1130.48 716.29L1125.13 716.82V727.47H1145.39V667.88H1145.4ZM1167.79 667.88H1147.53V691.29L1152.87 691.82L1147.53 692.35V715.76L1152.87 716.29L1147.52 716.82V727.47H1167.78V667.88H1167.79ZM1190.18 667.88H1169.92V691.29L1174.2 691.82L1169.92 692.35V715.76L1174.2 716.29L1169.92 716.82V727.47H1190.18L1190.21 717.51L1188.04 716.29L1190.28 714.24L1190.21 693.03L1188.04 691.81L1190.21 690.59L1190.18 667.86V667.88ZM1212.57 667.88H1192.31L1192.24 690.71L1195.52 691.82L1192.24 692.93V715.17L1195.52 716.28L1192.39 716.87L1192.31 727.45H1212.57L1212.49 716.87L1209.36 716.28L1212.64 715.17V692.93L1209.36 691.82L1212.64 690.71L1212.57 667.88ZM1234.95 667.88H1214.69L1214.66 690.61L1216.83 691.83L1214.66 693.05C1215.53 697.21 1213.44 713.22 1214.96 715.59C1215.29 716.11 1216.99 715.33 1216.84 716.31L1214.67 717.53L1214.7 727.49H1234.96L1234.88 716.91L1231.75 716.32L1235.03 715.21V692.97L1231.75 691.86L1235.03 690.75L1234.96 667.92L1234.95 667.88ZM1257.34 667.88H1237.08V727.47H1257.34V716.82L1253.06 716.29L1257.34 715.76V692.35L1253.06 691.82L1257.34 691.29V667.88ZM1279.73 667.88H1259.47V727.47H1279.73V716.82L1274.39 716.29L1279.73 715.76V692.35L1274.39 691.82L1279.73 691.29V667.88ZM1302.12 667.88H1281.86V727.47H1302.12V716.82L1295.71 716.29L1302.12 715.76V692.35L1295.71 691.82L1302.12 691.29V667.88ZM1324.5 667.88H1304.24V727.47H1324.5V716.82L1317.03 716.29L1324.5 715.76V692.35L1317.03 691.82L1324.5 691.29V667.88ZM1346.89 667.88H1326.63V727.47H1346.89V667.88ZM1369.28 667.88H1349.02V727.47H1369.28V667.88ZM1391.67 667.88H1371.41V691.29L1378.88 691.82L1371.41 692.35V715.76L1378.88 716.29L1371.4 716.82V727.47H1391.66V667.88H1391.67ZM1414.05 667.88H1393.79V691.29L1400.2 691.82L1393.79 692.35V715.76L1400.2 716.29L1393.79 716.82V727.47H1414.05V667.88ZM1436.44 667.88H1416.18V691.29L1421.52 691.82L1416.18 692.35V715.76L1421.52 716.29L1416.17 716.82V727.47H1436.43V667.88H1436.44ZM1438.57 667.88V691.29L1442.85 691.82L1438.57 692.35V715.76L1442.85 716.29L1438.57 716.82V727.47C1442.29 726.75 1448.65 729.48 1449.78 725.32L1452.45 725.35L1451.37 727.46H1457.78L1457.76 720.02C1452.31 723.16 1451.25 718.73 1447.11 716.81L1449.23 713.64L1443.89 714.2L1441.8 709.46L1450.32 709.4C1448.21 713.6 1451.39 712.67 1452.18 713.86C1452.45 714.26 1450.65 715.41 1453.22 716.33L1452.43 717.89L1457.78 717.29V708.32C1455.84 707.62 1449.2 710.05 1449.19 706.73C1449.19 700.64 1452.07 698.42 1457.75 700.88V696.63H1449.23C1450.85 690.48 1445.33 692.04 1443.29 690.28C1438.33 686 1446.21 683.99 1450.31 686L1449.24 689.17H1457.76L1457.78 682.79L1449.23 682.18L1449.25 676.41L1451.38 680.67L1453.51 676.4L1457.76 680.66V671.08L1449.82 671.16L1448.65 667.82L1438.57 667.89V667.88ZM1481.22 667.88H1462.03L1461.96 690.71L1465.24 691.82L1461.96 692.93V715.17L1465.24 716.28L1462.11 716.87L1462.03 727.45H1481.22L1481.25 717.49L1479.08 716.27L1481.32 714.22L1481.25 693.01L1479.08 691.79L1481.25 690.57L1481.22 667.84V667.88ZM1080.37 692.35V715.76L1087.84 716.29L1080.36 716.82V727.47C1084.2 726.74 1090.33 729.5 1091.57 725.33C1094.02 724.79 1092.64 727.17 1093.85 727.49C1095.46 727.91 1097.79 727.25 1099.56 727.46L1099.54 720.02C1094.24 722.62 1089.86 719.76 1091.01 713.63L1083.57 713.58L1083.64 709.46C1092.85 705.42 1090.94 714.09 1093.4 715.51C1094.72 716.27 1097.8 715.49 1099.54 716.82L1099.57 708.87L1091.02 708.32C1090.06 701.69 1092.88 697.67 1099.54 700.87L1099.56 696.62H1091.02V690.23C1087.7 692.54 1084.33 692.63 1080.37 692.36V692.35ZM48.4192 729.59H28.1592V740.23H48.4192V729.59ZM70.7992 729.59H50.5392V740.23H70.7992V729.59ZM93.1892 729.59H72.9292V740.23H93.1892V729.59ZM115.579 729.59H95.3192V740.23H115.579V729.59ZM137.969 729.59H117.709V740.23H137.969V729.59ZM160.349 729.59H140.089V740.23H160.349V729.59ZM182.739 729.59H162.479V740.23H182.739V729.59ZM205.129 729.59H184.869V740.23H205.129V729.59ZM227.519 729.59H207.259V740.23H227.519V729.59ZM249.899 729.59H229.639V740.23H249.899V729.59ZM272.289 729.59H252.029V740.23H272.289V729.59ZM294.679 729.59H274.419V740.23H294.679V729.59ZM317.069 729.59H296.809V740.23H317.069V729.59ZM339.449 729.59H319.189V740.23H339.449V729.59ZM361.839 729.59H341.579V740.23H361.839V729.59ZM383.159 731.73C376.109 734.64 371.949 727.31 363.969 729.59V740.24C371.179 741.97 376.339 736.46 383.159 738.11V731.73ZM406.619 729.59H387.429V740.23H406.619V729.59ZM428.999 729.59H408.739V740.23H428.999V729.59ZM451.389 729.59H431.129V740.23H451.389V729.59ZM473.779 729.59H453.519V740.23H473.779V729.59ZM496.169 729.59H475.909V740.23H496.169V729.59ZM518.549 729.59H498.289V740.23H518.549V729.59ZM540.939 729.59H520.679V740.23H540.939V729.59ZM563.329 729.59H543.069V740.23H563.329V729.59ZM585.719 729.59H565.459V740.23H585.719V729.59ZM608.099 729.59H587.839V740.23H608.099V729.59ZM630.489 729.59H610.229V740.23H630.489V729.59ZM652.879 729.59H632.619V740.23H652.879V729.59ZM675.269 729.59H655.009V740.23H675.269V729.59ZM697.649 729.59H677.389V740.23H697.649V729.59ZM720.039 729.59H699.779V740.23H720.039V729.59ZM733.639 729.89C730.909 728.71 725.379 730.11 722.159 729.59V740.24C725.469 739.77 730.109 740.93 733.149 740.21C733.899 740.03 733.769 738.49 734.689 738.19C736.519 737.58 739.299 738.2 741.209 736.9L741.349 731.73C736.539 735.2 734.579 730.31 733.639 729.9V729.89ZM764.819 729.59H745.629V740.23H764.819V729.59ZM787.199 729.59H766.939V740.23H787.199V729.59ZM809.589 729.59H789.329V740.23H809.589V729.59ZM831.979 729.59H811.719V740.23H831.979V729.59ZM854.369 729.59H834.109V740.23H854.369V729.59ZM876.749 729.59H856.489V740.23H876.749V729.59ZM899.139 729.59H878.879V740.23H899.139V729.59ZM921.529 729.59H901.269V740.23H921.529V729.59ZM943.919 729.59H923.659V740.23H943.919V729.59ZM966.299 729.59H946.039V740.23H966.299V729.59ZM988.689 729.59H968.429V740.23H988.689V729.59ZM1011.08 729.59H990.819V740.23H1011.08V729.59ZM1033.47 729.59H1013.21V740.23H1033.47V729.59ZM1055.85 729.59H1035.59V740.23H1055.85V729.59ZM1078.24 729.59H1057.98V740.23H1078.24V729.59ZM1099.55 731.72C1093.22 734.17 1088.18 727.12 1080.37 729.59V740.24L1099.55 738.11V731.72ZM1123.02 729.59H1103.83V740.23H1123.02V729.59ZM1145.4 729.59H1125.14V740.23H1145.4V729.59ZM1167.79 729.59H1147.53V740.23H1167.79V729.59ZM1190.18 729.59H1169.92V740.23H1190.18V729.59ZM1212.57 729.59H1192.31V740.23H1212.57V729.59ZM1234.95 729.59H1214.69V740.23H1234.95V729.59ZM1257.34 729.59H1237.08V740.23H1257.34V729.59ZM1279.73 729.59H1259.47V740.23H1279.73V729.59ZM1302.12 729.59H1281.86V740.23H1302.12V729.59ZM1324.5 729.59H1304.24V740.23H1324.5V729.59ZM1346.89 729.59H1326.63V740.23H1346.89V729.59ZM1369.28 729.59H1349.02V740.23H1369.28V729.59ZM1391.67 729.59H1371.41V740.23H1391.67V729.59ZM1414.05 729.59H1393.79V740.23H1414.05V729.59ZM1436.44 729.59H1416.18V740.23H1436.44V729.59ZM1450.04 729.89C1447.31 728.71 1441.78 730.11 1438.56 729.59V740.24C1441.87 739.77 1446.51 740.93 1449.55 740.21C1450.3 740.03 1450.17 738.49 1451.09 738.19C1452.92 737.58 1455.7 738.2 1457.61 736.9L1457.75 731.73C1452.94 735.2 1450.98 730.31 1450.04 729.9V729.89ZM1481.22 729.59H1462.03V740.23H1481.22V729.59ZM48.4192 741.3H28.1592V764.71H48.4192V741.3ZM70.7992 741.3H50.5392V764.71H70.7992V741.3ZM93.1892 741.3H72.9292V764.71H93.1892V741.3ZM115.579 741.3H95.3192V764.71H115.579V741.3ZM137.969 741.3H117.709V764.71H137.969V741.3ZM160.349 741.3H140.089V764.71H160.349V741.3ZM182.739 741.3H162.479V764.71H182.739V741.3ZM205.129 741.3H184.869V764.71H205.129V741.3ZM227.519 741.3H207.259V764.71H227.519V741.3ZM249.899 741.3H229.639V764.71H249.899V741.3ZM272.289 741.3H252.029V764.71H272.289V741.3ZM294.679 741.3H274.419V764.71H294.679V741.3ZM317.069 741.3H296.809V764.71H317.069V741.3ZM339.449 741.3H319.189V764.71H339.449V741.3ZM341.589 741.3V764.71H361.849V741.3H341.589ZM363.969 741.3V764.71C370.699 765.45 376.339 763.95 382.519 761.63C385.779 755.95 378.429 756.43 374.669 754.5C373.929 754.12 373.759 752.44 373.379 752.18C373.079 751.98 367.529 753.23 366.109 751.89L366.179 747.77C369.449 746.65 375.319 745.87 373.559 750.87L382.989 748.6L383.159 744.5L374.139 744.57L372.969 741.23L363.959 741.3H363.969ZM406.619 741.3H387.429V764.71H406.619V741.3ZM428.999 741.3H408.739V764.71H428.999V741.3ZM451.389 741.3H431.129V764.71H451.389V741.3ZM473.779 741.3H453.519V764.71H473.779V741.3ZM496.169 741.3H475.909V764.71H496.169V741.3ZM518.549 741.3H498.289V764.71H518.549V741.3ZM540.939 741.3H520.679V764.71H540.939V741.3ZM563.329 741.3H543.069V764.71H563.329V741.3ZM585.719 741.3H565.459V764.71H585.719V741.3ZM608.099 741.3H587.839V764.71H608.099V741.3ZM630.489 741.3H610.229V764.71H630.489V741.3ZM652.879 741.3H632.619V764.71H652.879V741.3ZM675.269 741.3H655.009V764.71H675.269V741.3ZM697.649 741.3H677.389V764.71H697.649V741.3ZM720.039 741.3H699.779V764.71H720.039V741.3ZM722.169 741.3V764.71C726.039 765.16 740.939 764.72 741.429 759.92C742.029 755.36 737.069 756.37 734.579 754.96C733.049 754.09 732.989 752.31 732.689 752.1C732.339 751.85 728.919 753.95 727.469 752.51L725.379 747.76L733.889 747.69L732.819 750.86C737.429 750.76 742.479 750.26 741.349 744.49L733.399 744.56L732.229 741.22L722.149 741.29L722.169 741.3ZM764.819 741.3H745.629V764.71H764.819V741.3ZM787.199 741.3H766.939V764.71H787.199V741.3ZM809.589 741.3H789.329V764.71H809.589V741.3ZM831.979 741.3H811.719V764.71H831.979V741.3ZM854.369 741.3H834.109V764.71H854.369V741.3ZM876.749 741.3H856.489V764.71H876.749V741.3ZM899.139 741.3H878.879V764.71H899.139V741.3ZM921.529 741.3H901.269V764.71H921.529V741.3ZM943.919 741.3H923.659V764.71H943.919V741.3ZM966.299 741.3H946.039V764.71H966.299V741.3ZM988.689 741.3H968.429V764.71H988.689V741.3ZM1011.08 741.3H990.819V764.71H1011.08V741.3ZM1033.47 741.3H1013.21V764.71H1033.47V741.3ZM1055.85 741.3H1035.59V764.71H1055.85V741.3ZM1078.24 741.3H1057.98V764.71H1078.24V741.3ZM1080.37 741.3V764.71C1084.24 765.16 1099.14 764.72 1099.63 759.92C1100.09 755.37 1095.5 756.34 1092.78 754.95C1091.36 754.22 1091.24 752.45 1090.84 752.18C1090.54 751.98 1084.99 753.23 1083.57 751.89L1083.64 747.77C1086.78 746.69 1092.79 745.81 1091.02 750.87C1095.68 750.78 1100.68 750.24 1099.55 744.5L1091.6 744.57L1090.43 741.23L1080.35 741.3H1080.37ZM1123.02 741.3H1103.83V764.71H1123.02V741.3ZM1145.4 741.3H1125.14V764.71H1145.4V741.3ZM1167.79 741.3H1147.53V764.71H1167.79V741.3ZM1190.18 741.3H1169.92V764.71H1190.18V741.3ZM1212.57 741.3H1192.31V764.71H1212.57V741.3ZM1234.95 741.3H1214.69V764.71H1234.95V741.3ZM1257.34 741.3H1237.08V764.71H1257.34V741.3ZM1279.73 741.3H1259.47V764.71H1279.73V741.3ZM1302.12 741.3H1281.86V764.71H1302.12V741.3ZM1324.5 741.3H1304.24V764.71H1324.5V741.3ZM1346.89 741.3H1326.63V764.71H1346.89V741.3ZM1369.28 741.3H1349.02V764.71H1369.28V741.3ZM1391.67 741.3H1371.41V764.71H1391.67V741.3ZM1414.05 741.3H1393.79V764.71H1414.05V741.3ZM1436.44 741.3H1416.18V764.71H1436.44V741.3ZM1438.57 741.3V764.71C1442.44 765.16 1457.34 764.72 1457.83 759.92C1458.43 755.36 1453.47 756.37 1450.98 754.96C1449.45 754.09 1449.39 752.31 1449.09 752.1C1448.74 751.85 1445.32 753.95 1443.87 752.51L1441.78 747.76L1450.29 747.69L1449.22 750.86C1453.83 750.76 1458.88 750.26 1457.75 744.49L1449.8 744.56L1448.63 741.22L1438.55 741.29L1438.57 741.3ZM1481.22 741.3H1462.03V764.71H1481.22V741.3ZM48.4192 765.77H28.1592V789.18H48.4192V765.77ZM70.7992 765.77H50.5392V789.18H70.7992V765.77ZM93.1892 765.77H72.9292V789.18H93.1892V765.77ZM115.579 765.77H95.3192V789.18H115.579V765.77ZM137.969 765.77H117.709V789.18H137.969V765.77ZM160.349 765.77H140.089V789.18H160.349V765.77ZM182.739 765.77H162.479V789.18H182.739V765.77ZM205.129 765.77H184.869V789.18H205.129V765.77ZM227.519 765.77H207.259V789.18H227.519V765.77ZM249.899 765.77H229.639V789.18H249.899V765.77ZM272.289 765.77H252.029V789.18H272.289V765.77ZM294.679 765.77H274.419V789.18H294.679V765.77ZM317.069 765.77H296.809V789.18H317.069V765.77ZM339.449 765.77H319.189V789.18H339.449V765.77ZM341.589 765.77V789.18H361.849V765.77H341.589ZM363.969 765.77V789.18C367.029 788.52 373.859 791.11 373.589 787.09L375.149 787.04C377.169 793.28 378.489 783.25 380.199 788.84L383.139 789.19V780.68C376.599 783.96 369.659 779.08 375.669 773.23L375.819 778.41C380.989 781.52 386.429 774.66 377.819 777.49V773.24L382.519 773.25L383.159 770.57C376.919 768.04 370.979 764.57 363.949 765.78L363.969 765.77ZM406.619 765.77H387.429V789.18H406.619V765.77ZM428.999 765.77H408.739V789.18H428.999V765.77ZM451.389 765.77H431.129V789.18H451.389V765.77ZM473.779 765.77H453.519V789.18H473.779V765.77ZM496.169 765.77H475.909V789.18H496.169V765.77ZM518.549 765.77H498.289V789.18H518.549V765.77ZM540.939 765.77H520.679V789.18H540.939V765.77ZM563.329 765.77H543.069V789.18H563.329V765.77ZM585.719 765.77H565.459V789.18H585.719V765.77ZM608.099 765.77H587.839V789.18H608.099V765.77ZM630.489 765.77H610.229V789.18H630.489V765.77ZM652.879 765.77H632.619V789.18H652.879V765.77ZM675.269 765.77H655.009V789.18H675.269V765.77ZM697.649 765.77H677.389V789.18H697.649V765.77ZM720.039 765.77H699.779V789.18H720.039V765.77ZM722.169 765.77V789.18C725.389 788.43 733.039 791.22 732.859 787.09L734.419 787.03L734.989 789.12H737.059L737.129 787.1L741.349 789.17L741.389 782.33C735.549 781.89 729.839 779.44 734.419 773.24C736.459 777.17 734.929 781.03 741.349 778.52L737.099 777.47C735.579 772.06 744.099 774.57 740.869 769.98C739.359 767.84 723.829 764.11 722.169 765.77ZM764.819 765.77H745.629V789.18H764.819V765.77ZM787.199 765.77H766.939V789.18H787.199V765.77ZM809.589 765.77H789.329V789.18H809.589V765.77ZM831.979 765.77H811.719V789.18H831.979V765.77ZM854.369 765.77H834.109V789.18H854.369V765.77ZM876.749 765.77H856.489V789.18H876.749V765.77ZM899.139 765.77H878.879V789.18H899.139V765.77ZM921.529 765.77H901.269V789.18H921.529V765.77ZM943.919 765.77H923.659V789.18H943.919V765.77ZM966.299 765.77H946.039V789.18H966.299V765.77ZM988.689 765.77H968.429V789.18H988.689V765.77ZM1011.08 765.77H990.819V789.18H1011.08V765.77ZM1033.47 765.77H1013.21V789.18H1033.47V765.77ZM1055.85 765.77H1035.59V789.18H1055.85V765.77ZM1078.24 765.77H1057.98V789.18H1078.24V765.77ZM1080.37 765.77V789.18C1083.59 788.43 1091.24 791.22 1091.06 787.09L1092.62 787.03L1093.19 789.12H1095.26L1095.33 787.1L1099.55 789.17V780.66C1093.47 784.44 1087.43 777.87 1093.15 773.21L1093.3 778.39C1098.47 781.5 1103.91 774.64 1095.3 777.47L1095.28 773.22H1099.56C1102.2 770.58 1092.15 766.48 1090.21 766.05C1086.97 765.32 1083.62 765.95 1080.36 765.77H1080.37ZM1123.02 765.77H1103.83V789.18H1123.02V765.77ZM1145.4 765.77H1125.14V789.18H1145.4V765.77ZM1167.79 765.77H1147.53V789.18H1167.79V765.77ZM1190.18 765.77H1169.92V789.18H1190.18V765.77ZM1212.57 765.77H1192.31V789.18H1212.57V765.77ZM1234.95 765.77H1214.69V789.18H1234.95V765.77ZM1257.34 765.77H1237.08V789.18H1257.34V765.77ZM1279.73 765.77H1259.47V789.18H1279.73V765.77ZM1302.12 765.77H1281.86V789.18H1302.12V765.77ZM1324.5 765.77H1304.24V789.18H1324.5V765.77ZM1346.89 765.77H1326.63V789.18H1346.89V765.77ZM1369.28 765.77H1349.02V789.18H1369.28V765.77ZM1391.67 765.77H1371.41V789.18H1391.67V765.77ZM1414.05 765.77H1393.79V789.18H1414.05V765.77ZM1436.44 765.77H1416.18V789.18H1436.44V765.77ZM1438.57 765.77V789.18C1441.79 788.43 1449.44 791.22 1449.26 787.09L1450.82 787.03L1451.39 789.12H1453.46L1453.53 787.1L1457.75 789.17L1457.79 782.33C1451.95 781.89 1446.24 779.44 1450.82 773.24C1452.86 777.17 1451.33 781.03 1457.75 778.52L1453.5 777.47C1451.98 772.06 1460.5 774.57 1457.27 769.98C1455.76 767.84 1440.23 764.11 1438.57 765.77ZM1481.22 765.77H1462.03V789.18H1481.22V765.77ZM48.4192 790.24H28.1592V813.65H48.4192V790.24ZM70.7992 790.24H50.5392V813.65H70.7992V790.24ZM93.1892 790.24H72.9292V813.65H93.1892V790.24ZM115.579 790.24H95.3192V813.65H115.579V790.24ZM137.969 790.24H117.709V813.65H137.969V790.24ZM160.349 790.24H140.089V813.65H160.349V790.24ZM182.739 790.24H162.479V813.65H182.739V790.24ZM205.129 790.24H184.869V813.65H205.129V790.24ZM227.519 790.24H207.259V813.65H227.519V790.24ZM249.899 790.24H229.639V813.65H249.899V790.24ZM272.289 790.24H252.029V813.65H272.289V790.24ZM294.679 790.24H274.419V813.65H294.679V790.24ZM317.069 790.24H296.809V813.65H317.069V790.24ZM339.449 790.24H319.189V813.65H339.449V790.24ZM341.589 790.24V813.65H361.849V790.24H341.589ZM363.969 790.24V813.65C372.339 816.02 375.679 808.25 383.149 811.52V805.13L373.559 805.14V799.28L375.709 799.38L377.819 803.01L379.949 798.74L382.079 803.01C381.929 800.29 383.159 797.74 383.189 795.03C383.229 791.6 375.959 794.34 373.619 793.3L372.969 790.16L363.959 790.23L363.969 790.24ZM406.619 790.24H387.429V813.65H406.619V790.24ZM428.999 790.24H408.739V813.65H428.999V790.24ZM451.389 790.24H431.129V813.65H451.389V790.24ZM473.779 790.24H453.519V813.65H473.779V790.24ZM496.169 790.24H475.909V813.65H496.169V790.24ZM518.549 790.24H498.289V813.65H518.549V790.24ZM540.939 790.24H520.679V813.65H540.939V790.24ZM563.329 790.24H543.069V813.65H563.329V790.24ZM585.719 790.24H565.459V813.65H585.719V790.24ZM608.099 790.24H587.839V813.65H608.099V790.24ZM630.489 790.24H610.229V813.65H630.489V790.24ZM652.879 790.24H632.619V813.65H652.879V790.24ZM675.269 790.24H655.009V813.65H675.269V790.24ZM697.649 790.24H677.389V813.65H697.649V790.24ZM720.039 790.24H699.779V813.65H720.039V790.24ZM722.169 790.24V813.65C725.509 813.2 730.059 814.32 733.159 813.63C733.869 813.47 736.769 807.86 741.349 811.52L741.369 805.13L732.819 804.52L732.839 798.75L734.969 803.01L737.099 798.74L741.349 803L741.369 794.04L732.889 793.3L732.239 790.16L722.159 790.23L722.169 790.24ZM764.819 790.24H745.629V813.65H764.819V790.24ZM787.199 790.24H766.939V813.65H787.199V790.24ZM809.589 790.24H789.329V813.65H809.589V790.24ZM831.979 790.24H811.719V813.65H831.979V790.24ZM854.369 790.24H834.109V813.65H854.369V790.24ZM876.749 790.24H856.489V813.65H876.749V790.24ZM899.139 790.24H878.879V813.65H899.139V790.24ZM921.529 790.24H901.269V813.65H921.529V790.24ZM943.919 790.24H923.659V813.65H943.919V790.24ZM966.299 790.24H946.039V813.65H966.299V790.24ZM988.689 790.24H968.429V813.65H988.689V790.24ZM1011.08 790.24H990.819V813.65H1011.08V790.24ZM1033.47 790.24H1013.21V813.65H1033.47V790.24ZM1055.85 790.24H1035.59V813.65H1055.85V790.24ZM1078.24 790.24H1057.98V813.65H1078.24V790.24ZM1080.37 790.24V813.65C1083.22 813.34 1086.71 814.16 1089.42 813.63C1092.65 813 1094.44 807.93 1099.55 811.52L1099.57 805.13L1091.02 804.52L1091.04 798.75L1093.17 803.01L1095.3 798.74L1099.55 803L1099.57 794.04L1091.09 793.3L1090.44 790.16L1080.36 790.23L1080.37 790.24ZM1123.02 790.24H1103.83V813.65H1123.02V790.24ZM1145.4 790.24H1125.14V813.65H1145.4V790.24ZM1167.79 790.24H1147.53V813.65H1167.79V790.24ZM1190.18 790.24H1169.92V813.65H1190.18V790.24ZM1212.57 790.24H1192.31V813.65H1212.57V790.24ZM1234.95 790.24H1214.69V813.65H1234.95V790.24ZM1257.34 790.24H1237.08V813.65H1257.34V790.24ZM1279.73 790.24H1259.47V813.65H1279.73V790.24ZM1302.12 790.24H1281.86V813.65H1302.12V790.24ZM1324.5 790.24H1304.24V813.65H1324.5V790.24ZM1346.89 790.24H1326.63V813.65H1346.89V790.24ZM1369.28 790.24H1349.02V813.65H1369.28V790.24ZM1391.67 790.24H1371.41V813.65H1391.67V790.24ZM1414.05 790.24H1393.79V813.65H1414.05V790.24ZM1436.44 790.24H1416.18V813.65H1436.44V790.24ZM1438.57 790.24V813.65C1441.91 813.2 1446.46 814.32 1449.56 813.63C1450.27 813.47 1453.17 807.86 1457.75 811.52L1457.77 805.13L1449.22 804.52L1449.24 798.75L1451.37 803.01L1453.5 798.74L1457.75 803L1457.77 794.04L1449.29 793.3L1448.64 790.16L1438.56 790.23L1438.57 790.24ZM1481.22 790.24H1462.03V813.65H1481.22V790.24ZM48.4192 814.72H28.1592V826.42H48.4192V814.72ZM70.7992 814.72H50.5392V826.42H70.7992V814.72ZM93.1892 814.72H72.9292V826.42H93.1892V814.72ZM115.579 814.72H95.3192V826.42H115.579V814.72ZM137.969 814.72H117.709V826.42H137.969V814.72ZM160.349 814.72H140.089V826.42H160.349V814.72ZM182.739 814.72H162.479V826.42H182.739V814.72ZM205.129 814.72H184.869V826.42H205.129V814.72ZM227.519 814.72H207.259V826.42H227.519V814.72ZM249.899 814.72H229.639V826.42H249.899V814.72ZM272.289 814.72H252.029V826.42H272.289V814.72ZM294.679 814.72H274.419V826.42H294.679V814.72ZM317.069 814.72H296.809V826.42H317.069V814.72ZM339.449 814.72H319.189V826.42H339.449V814.72ZM361.839 814.72H341.579V826.42H361.839V814.72ZM373.569 814.71H363.959V826.43C367.619 825.79 372.969 828.35 374.099 824.29C376.549 823.75 375.169 826.13 376.379 826.45C377.989 826.87 380.319 826.21 382.089 826.42L381.329 824.54C384.199 824.08 383.059 821.42 383.159 818.98H373.549L373.559 814.72L373.569 814.71ZM406.619 814.72H387.429V826.42H406.619V814.72ZM428.999 814.72H408.739V826.42H428.999V814.72ZM451.389 814.72H431.129V826.42H451.389V814.72ZM473.779 814.72H453.519V826.42H473.779V814.72ZM496.169 814.72H475.909V826.42H496.169V814.72ZM518.549 814.72H498.289V826.42H518.549V814.72ZM540.939 814.72H520.679V826.42H540.939V814.72ZM563.329 814.72H543.069V826.42H563.329V814.72ZM585.719 814.72H565.459V826.42H585.719V814.72ZM608.099 814.72H587.839V826.42H608.099V814.72ZM630.489 814.72H610.229V826.42H630.489V814.72ZM652.879 814.72H632.619V826.42H652.879V814.72ZM675.269 814.72H655.009V826.42H675.269V814.72ZM697.649 814.72H677.389V826.42H697.649V814.72ZM720.039 814.72H699.779V826.42H720.039V814.72ZM732.839 814.71H722.169V826.43C725.889 825.71 732.249 828.44 733.369 824.28L736.039 824.31L734.959 826.42H741.369V818.97H732.829L732.839 814.71ZM764.819 814.72H745.629V826.42H764.819V814.72ZM787.199 814.72H766.939V826.42H787.199V814.72ZM809.589 814.72H789.329V826.42H809.589V814.72ZM831.979 814.72H811.719V826.42H831.979V814.72ZM854.369 814.72H834.109V826.42H854.369V814.72ZM876.749 814.72H856.489V826.42H876.749V814.72ZM899.139 814.72H878.879V826.42H899.139V814.72ZM921.529 814.72H901.269V826.42H921.529V814.72ZM943.919 814.72H923.659V826.42H943.919V814.72ZM966.299 814.72H946.039V826.42H966.299V814.72ZM988.689 814.72H968.429V826.42H988.689V814.72ZM1011.08 814.72H990.819V826.42H1011.08V814.72ZM1033.47 814.72H1013.21V826.42H1033.47V814.72ZM1055.85 814.72H1035.59V826.42H1055.85V814.72ZM1078.24 814.72H1057.98V826.42H1078.24V814.72ZM1091.04 814.71H1080.37V826.43C1084.21 825.7 1090.34 828.46 1091.58 824.29C1094.03 823.75 1092.65 826.13 1093.86 826.45C1095.46 826.87 1097.8 826.21 1099.57 826.42V818.98H1091.03V814.71H1091.04ZM1123.02 814.72H1103.83V826.42H1123.02V814.72ZM1145.4 814.72H1125.14V826.42H1145.4V814.72ZM1167.79 814.72H1147.53V826.42H1167.79V814.72ZM1190.18 814.72H1169.92V826.42H1190.18V814.72ZM1212.57 814.72H1192.31V826.42H1212.57V814.72ZM1234.95 814.72H1214.69V826.42H1234.95V814.72ZM1257.34 814.72H1237.08V826.42H1257.34V814.72ZM1279.73 814.72H1259.47V826.42H1279.73V814.72ZM1302.12 814.72H1281.86V826.42H1302.12V814.72ZM1324.5 814.72H1304.24V826.42H1324.5V814.72ZM1346.89 814.72H1326.63V826.42H1346.89V814.72ZM1369.28 814.72H1349.02V826.42H1369.28V814.72ZM1391.67 814.72H1371.41V826.42H1391.67V814.72ZM1414.05 814.72H1393.79V826.42H1414.05V814.72ZM1436.44 814.72H1416.18V826.42H1436.44V814.72ZM1449.24 814.71H1438.57V826.43C1442.29 825.71 1448.65 828.44 1449.77 824.28L1452.44 824.31L1451.36 826.42H1457.77V818.97H1449.23L1449.24 814.71ZM1481.22 814.72H1462.03V826.42H1481.22V814.72ZM48.4192 827.48H28.1592V850.89H48.4192V827.48ZM70.7992 827.48H50.5392V850.89H70.7992V827.48ZM93.1892 827.48H72.9292V850.89H93.1892V827.48ZM115.579 827.48H95.3192V850.89H115.579V827.48ZM137.969 827.48H117.709V850.89H137.969V827.48ZM160.349 827.48H140.089V850.89H160.349V827.48ZM182.739 827.48H162.479V850.89H182.739V827.48ZM205.129 827.48H184.869V850.89H205.129V827.48ZM227.519 827.48H207.259V850.89H227.519V827.48ZM249.899 827.48H229.639V850.89H249.899V827.48ZM272.289 827.48H252.029V850.89H272.289V827.48ZM294.679 827.48H274.419V850.89H294.679V827.48ZM317.069 827.48H296.809V850.89H317.069V827.48ZM339.449 827.48H319.189V850.89H339.449V827.48ZM341.589 827.48V850.89H361.849V827.48H341.589ZM363.969 827.48V850.89C367.619 850.26 372.979 852.82 374.109 848.75L375.669 848.82L375.729 850.85H377.799L378.369 848.75L380.489 850.92L383.179 850.3L383.159 842.38C376.619 845.66 369.679 840.78 375.689 834.93L375.839 840.11C381.009 843.22 386.449 836.36 377.839 839.19V834.94H383.169V830.69C376.889 834.66 374.149 827.84 372.809 827.48C370.509 826.86 366.589 827.92 363.969 827.49V827.48ZM406.619 827.48H387.429V850.89H406.619V827.48ZM428.999 827.48H408.739V850.89H428.999V827.48ZM451.389 827.48H431.129V850.89H451.389V827.48ZM473.779 827.48H453.519V850.89H473.779V827.48ZM496.169 827.48H475.909V850.89H496.169V827.48ZM518.549 827.48H498.289V850.89H518.549V827.48ZM540.939 827.48H520.679V850.89H540.939V827.48ZM563.329 827.48H543.069V850.89H563.329V827.48ZM585.719 827.48H565.459V850.89H585.719V827.48ZM608.099 827.48H587.839V850.89H608.099V827.48ZM630.489 827.48H610.229V850.89H630.489V827.48ZM652.879 827.48H632.619V850.89H652.879V827.48ZM675.269 827.48H655.009V850.89H675.269V827.48ZM697.649 827.48H677.389V850.89H697.649V827.48ZM720.039 827.48H699.779V850.89H720.039V827.48ZM722.169 827.48V850.89C725.389 850.14 733.039 852.93 732.859 848.8L734.419 848.74L734.989 850.83H737.059L737.129 848.81L741.349 850.88V843.44C735.319 844.47 729.979 840.44 734.429 834.94C736.469 838.87 734.939 842.73 741.359 840.22L737.109 839.17V836.52L741.429 834.31L741.359 830.66C735.779 834.54 733.929 828.21 732.169 827.64C729.439 826.76 725.179 827.87 722.179 827.47L722.169 827.48ZM764.819 827.48H745.629V850.89H764.819V827.48ZM787.199 827.48H766.939V850.89H787.199V827.48ZM809.589 827.48H789.329V850.89H809.589V827.48ZM831.979 827.48H811.719V850.89H831.979V827.48ZM854.369 827.48H834.109V850.89H854.369V827.48ZM876.749 827.48H856.489V850.89H876.749V827.48ZM899.139 827.48H878.879V850.89H899.139V827.48ZM921.529 827.48H901.269V850.89H921.529V827.48ZM943.919 827.48H923.659V850.89H943.919V827.48ZM966.299 827.48H946.039V850.89H966.299V827.48ZM988.689 827.48H968.429V850.89H988.689V827.48ZM1011.08 827.48H990.819V850.89H1011.08V827.48ZM1033.47 827.48H1013.21V850.89H1033.47V827.48ZM1055.85 827.48H1035.59V850.89H1055.85V827.48ZM1078.24 827.48H1057.98V850.89H1078.24V827.48ZM1080.37 827.48V850.89C1083.59 850.14 1091.24 852.93 1091.06 848.8L1092.62 848.74L1093.19 850.83H1095.26L1095.33 848.81L1099.55 850.88V842.37C1093.47 846.15 1087.43 839.58 1093.15 834.92L1093.3 840.1C1098.47 843.21 1103.91 836.35 1095.3 839.18L1095.28 834.93H1099.56L1099.54 830.67C1094.24 834.67 1091.5 827.8 1090.26 827.46C1087.73 826.77 1083.24 827.95 1080.36 827.47L1080.37 827.48ZM1123.02 827.48H1103.83V850.89H1123.02V827.48ZM1145.4 827.48H1125.14V850.89H1145.4V827.48ZM1167.79 827.48H1147.53V850.89H1167.79V827.48ZM1190.18 827.48H1169.92V850.89H1190.18V827.48ZM1212.57 827.48H1192.31V850.89H1212.57V827.48ZM1234.95 827.48H1214.69V850.89H1234.95V827.48ZM1257.34 827.48H1237.08V850.89H1257.34V827.48ZM1279.73 827.48H1259.47V850.89H1279.73V827.48ZM1302.12 827.48H1281.86V850.89H1302.12V827.48ZM1324.5 827.48H1304.24V850.89H1324.5V827.48ZM1346.89 827.48H1326.63V850.89H1346.89V827.48ZM1369.28 827.48H1349.02V850.89H1369.28V827.48ZM1391.67 827.48H1371.41V850.89H1391.67V827.48ZM1414.05 827.48H1393.79V850.89H1414.05V827.48ZM1436.44 827.48H1416.18V850.89H1436.44V827.48ZM1438.57 827.48V850.89C1441.79 850.14 1449.44 852.93 1449.26 848.8L1450.82 848.74L1451.39 850.83H1453.46L1453.53 848.81L1457.75 850.88V843.44C1451.72 844.47 1446.38 840.44 1450.83 834.94C1452.87 838.87 1451.34 842.73 1457.76 840.22L1453.51 839.17V836.52L1457.83 834.31L1457.76 830.66C1452.18 834.54 1450.33 828.21 1448.57 827.64C1445.84 826.76 1441.58 827.87 1438.58 827.47L1438.57 827.48ZM1481.22 827.48H1462.03V850.89H1481.22V827.48Z" fill="#6D696D"/>
<path d="M7.89887 689.15C11.1789 688.41 13.5489 687.28 16.7589 689.17C17.3289 689.51 17.4189 690.85 17.7489 691C19.4189 691.75 21.9389 690.37 21.7489 692.34C17.5589 691.64 18.4289 693.27 18.5589 696.62H7.88886V690.23L0.558877 690.13C-2.77112 684.36 10.2289 682.95 7.89887 689.15Z" fill="#6D696D"/>
<path d="M7.89912 541.25L15.4491 540.62L21.7491 545.5L18.6991 545.69L17.9691 548.77L7.88911 548.7V542.31L0.549111 542.21C-2.78089 536.44 10.2191 535.03 7.88911 541.23L7.89912 541.25Z" fill="#6D696D"/>
<path d="M10.1994 631.52C13.0394 633.2 14.4894 632.7 16.4294 630.1L12.1794 630.63V626.38L17.5594 626.84C22.6094 635.74 6.78943 638.92 7.88943 628.49C3.92943 629.84 -1.17057 629.82 0.549429 624.34C6.74943 621.95 10.4894 624.71 10.1894 631.51L10.1994 631.52Z" fill="#6D696D"/>
<path d="M7.9087 604.03L18.5587 601.92C19.0387 605.5 16.0687 602.56 16.3687 606.75C16.5487 609.33 19.3787 607.21 18.5587 610.42L8.02869 608.12L7.8987 605.1C3.9287 606.44 -1.16129 606.43 0.558705 600.94C3.68871 599.79 9.6887 599.04 7.9087 604.03Z" fill="#6D696D"/>
<path d="M7.9087 750.86L18.5587 748.75C19.0387 752.33 16.0687 749.39 16.3687 753.58C16.5487 756.16 19.3787 754.04 18.5587 757.25L8.02869 754.95L7.8987 751.93C3.9287 753.27 -1.16129 753.26 0.558705 747.77C3.68871 746.62 9.6887 745.87 7.9087 750.86Z" fill="#6D696D"/>
<path d="M10.0993 717.83L15.4193 717.4L15.3693 713.65L21.7693 715.78C22.1193 717.7 19.8493 716.36 18.8993 717.12C17.9493 717.88 17.8993 719.47 16.2193 720.33C11.2593 722.87 6.50933 719.13 7.90933 713.64L0.569336 713.55V709.48L7.46933 709.31L10.1093 717.84L10.0993 717.83Z" fill="#6D696D"/>
<path d="M10.0788 569.95L15.4088 569.5L15.3588 565.74L18.5388 565.77L18.6888 568.76L21.7488 568.94L15.3888 572.74C11.5288 573.99 7.57883 572.15 7.84883 567.86L0.548828 567.77V563.7C5.99883 561.53 10.3388 563.51 10.0688 569.95H10.0788Z" fill="#6D696D"/>
<path d="M17.2494 701.12C18.6994 702.57 18.5894 706.31 18.5694 708.31H7.89941L9.39941 700.76C11.1794 699.2 15.7094 699.58 17.2494 701.12Z" fill="#6D696D"/>
<path d="M17.2494 554.28C18.6994 555.73 18.5894 559.47 18.5694 561.47H7.89941L9.39941 553.92C11.1794 552.36 15.7094 552.74 17.2494 554.28Z" fill="#6D696D"/>
<path d="M8.36886 651.62C8.55886 652.02 11.3389 652.86 10.0389 656.18L14.2989 651.91V656.18C14.9289 656.85 19.6189 654.51 18.5589 658.29H7.89886V652.98L0.56886 652.88C-1.83114 647.83 5.67886 646.55 8.00886 649.21C8.59886 649.89 8.05886 650.93 8.37886 651.61L8.36886 651.62Z" fill="#6D696D"/>
<path d="M10.0295 504.02L10.1795 509.18C12.9995 510.82 15.0795 510.37 16.4295 507.22L12.1695 508.27V504.02L17.5495 504.48C22.8295 511.51 9.96953 515.85 8.10953 509.65C7.57953 507.88 6.77954 502.95 10.0195 504.02H10.0295Z" fill="#6D696D"/>
<path d="M10.0295 834.94L10.1795 840.1C12.9995 841.74 15.0795 841.29 16.4295 838.14L12.1695 839.19V834.94L17.5495 835.4C22.8295 842.43 9.96953 846.77 8.10953 840.57C7.57953 838.8 6.77954 833.87 10.0195 834.94H10.0295Z" fill="#6D696D"/>
<path d="M10.0295 773.22L10.1795 778.38C12.9995 780.02 15.0795 779.57 16.4295 776.42L12.1695 777.47V773.22L17.5495 773.68C22.8295 780.71 9.96953 785.05 8.10953 778.85C7.57953 777.08 6.77954 772.15 10.0195 773.22H10.0295Z" fill="#6D696D"/>
<path d="M18.5589 613.62C20.6389 615.27 16.5289 615.89 16.4089 616.4C15.2689 621.06 18.9889 618.71 18.5589 622.12L7.89888 619.99C5.44888 615.81 17.8589 613.06 18.5589 613.62Z" fill="#6D696D"/>
<path d="M18.5589 491.26C20.6389 492.91 16.5289 493.53 16.4089 494.04C15.2689 498.7 18.9889 496.35 18.5589 499.76L7.89888 497.63C5.44888 493.45 17.8589 490.7 18.5589 491.26Z" fill="#6D696D"/>
<path d="M18.5589 761.52C20.6389 763.17 16.5289 763.79 16.4089 764.3C15.2689 768.96 18.9889 766.61 18.5589 770.02L7.89888 767.89C5.44888 763.71 17.8589 760.96 18.5589 761.52Z" fill="#6D696D"/>
<path d="M10.0292 529.55V533.82L12.1692 529.55L14.2992 533.82L18.5492 529.56V535.94H7.88916C8.37916 533.73 6.21917 528.69 10.0192 529.54L10.0292 529.55Z" fill="#6D696D"/>
<path d="M10.0292 676.39V680.66L12.1692 676.39L14.2992 680.66L18.5492 676.4V682.78H7.88916C8.37916 680.57 6.21917 675.53 10.0192 676.38L10.0292 676.39Z" fill="#6D696D"/>
<path d="M10.0292 798.75V803.02L12.1692 798.75L14.2992 803.02L18.5492 798.76V805.14H7.88916C8.37916 802.93 6.21917 797.89 10.0192 798.74L10.0292 798.75Z" fill="#6D696D"/>
<path d="M10.0292 664.68V668.95L14.2892 664.68V668.95C14.9192 669.62 19.6092 667.28 18.5492 671.06H7.88916C8.37916 668.86 6.21917 663.82 10.0192 664.67L10.0292 664.68Z" fill="#6D696D"/>
<path d="M10.0292 787.04V791.31L14.2892 787.04V791.31C14.9192 791.98 19.6092 789.64 18.5492 793.42H7.88916C8.37916 791.22 6.21917 786.18 10.0192 787.03L10.0292 787.04Z" fill="#6D696D"/>
<path d="M10.0292 848.76V853.03L14.2892 848.76V853.03C14.9192 853.7 19.6092 851.36 18.5492 855.14H7.88916C8.37916 852.94 6.21917 847.9 10.0192 848.75L10.0292 848.76Z" fill="#6D696D"/>
<path d="M473.778 526.65C477.462 526.65 480.448 523.664 480.448 519.98C480.448 516.296 477.462 513.31 473.778 513.31C470.095 513.31 467.108 516.296 467.108 519.98C467.108 523.664 470.095 526.65 473.778 526.65Z" fill="#6D696D"/>
<path d="M451.389 550.88C455.072 550.88 458.059 547.894 458.059 544.21C458.059 540.526 455.072 537.54 451.389 537.54C447.705 537.54 444.719 540.526 444.719 544.21C444.719 547.894 447.705 550.88 451.389 550.88Z" fill="#6D696D"/>
<path d="M317.068 588.98C320.752 588.98 323.738 585.994 323.738 582.31C323.738 578.626 320.752 575.64 317.068 575.64C313.385 575.64 310.398 578.626 310.398 582.31C310.398 585.994 313.385 588.98 317.068 588.98Z" fill="#6D696D"/>
<path d="M317.068 625.6C320.752 625.6 323.738 622.614 323.738 618.93C323.738 615.246 320.752 612.26 317.068 612.26C313.385 612.26 310.398 615.246 310.398 618.93C310.398 622.614 313.385 625.6 317.068 625.6Z" fill="#6D696D"/>
<path d="M227.519 674.54C231.202 674.54 234.189 671.554 234.189 667.87C234.189 664.186 231.202 661.2 227.519 661.2C223.835 661.2 220.849 664.186 220.849 667.87C220.849 671.554 223.835 674.54 227.519 674.54Z" fill="#6D696D"/>
<path d="M249.898 735.81C253.582 735.81 256.569 732.824 256.569 729.14C256.569 725.456 253.582 722.47 249.898 722.47C246.215 722.47 243.229 725.456 243.229 729.14C243.229 732.824 246.215 735.81 249.898 735.81Z" fill="#6D696D"/>
<path d="M535.039 471.41L531.749 471.35L528.839 472.88L527.249 470.01L524.469 468.25L526.159 465.43L526.289 462.14L529.579 462.2L532.489 460.67L534.089 463.55L536.869 465.31L535.179 468.12L535.039 471.41Z" fill="#6D696D"/>
<path d="M523.279 381.83L518.219 379.92L514.569 383.9L513.699 378.56L508.429 377.39L512.609 373.97L510.989 368.82L516.049 370.74L519.699 366.75L520.569 372.09L525.839 373.26L521.649 376.68L523.279 381.83Z" fill="#6D696D"/>
<path d="M562.899 363.98L557.469 360.49L554.189 366.05L554.499 359.6L548.039 359.54L553.779 356.58L550.609 350.96L556.039 354.45L559.319 348.9L559.009 355.34L565.459 355.41L559.719 358.36L562.899 363.98Z" fill="#6D696D"/>
<path d="M659.019 345.17L654.009 343.44L650.309 347.24L649.309 342.03L644.169 340.73L648.179 337.26L646.739 332.15L651.749 333.89L655.439 330.09L656.449 335.29L661.589 336.6L657.579 340.07L659.019 345.17Z" fill="#6D696D"/>
<path d="M719.609 290.49L714.179 287L710.899 292.56L711.209 286.11L704.759 286.05L710.489 283.1L707.319 277.48L712.749 280.97L716.029 275.41L715.719 281.86L722.169 281.92L716.439 284.87L719.609 290.49Z" fill="#6D696D"/>
<path d="M729.258 195.58L718.758 188.83L712.408 199.58L713.008 187.11L700.528 186.98L711.628 181.27L705.488 170.39L715.988 177.15L722.338 166.4L721.738 178.87L734.228 178.99L723.118 184.71L729.258 195.58Z" fill="#6D696D"/>
<path d="M773.088 171.46L768.078 169.73L764.378 173.53L763.378 168.32L758.238 167.02L762.248 163.55L760.808 158.45L765.818 160.18L769.508 156.38L770.518 161.59L775.658 162.89L771.648 166.36L773.088 171.46Z" fill="#6D696D"/>
<path d="M822.139 76.7098C826.469 76.7098 829.979 73.1998 829.979 68.8699C829.979 64.54 826.469 61.0298 822.139 61.0298C817.809 61.0298 814.299 64.54 814.299 68.8699C814.299 73.1998 817.809 76.7098 822.139 76.7098Z" fill="#6D696D"/>
<path d="M950.128 83.2201L945.118 81.4901L941.418 85.29L940.418 80.0801L935.278 78.78L939.288 75.3101L937.848 70.2101L942.858 71.9401L946.548 68.1401L947.558 73.3501L952.698 74.65L948.688 78.1201L950.128 83.2201Z" fill="#6D696D"/>
<path d="M1066.96 53.0598L1051.03 42.8098L1041.39 59.1299L1042.31 40.1998L1023.36 40.0199L1040.2 31.3398L1030.89 14.8398L1046.83 25.0898L1056.46 8.77979L1055.55 27.6998L1074.5 27.8899L1057.65 36.5598L1066.96 53.0598Z" fill="#6D696D"/>
<path d="M1114.07 56.17C1117.06 56.17 1119.48 53.748 1119.48 50.7601C1119.48 47.7723 1117.06 45.3501 1114.07 45.3501C1111.08 45.3501 1108.66 47.7723 1108.66 50.7601C1108.66 53.748 1111.08 56.17 1114.07 56.17Z" fill="#6D696D"/>
<path d="M1160.69 43.2899L1155.27 39.7899L1151.99 45.35L1152.3 38.8999L1145.84 38.84L1151.58 35.89L1148.41 30.27L1153.84 33.76L1157.12 28.2L1156.81 34.6499L1163.26 34.71L1157.52 37.6699L1160.69 43.2899Z" fill="#6D696D"/>
<path d="M1281.53 15.08L1276.52 13.35L1272.82 17.1499L1271.82 11.9399L1266.68 10.64L1270.69 7.16992L1269.24 2.06995L1274.25 3.79993L1277.95 0L1278.96 5.20996L1284.1 6.51001L1280.09 9.97998L1281.53 15.08Z" fill="#6D696D"/>
</g>
</svg>
