<svg width="83" height="14" viewBox="0 0 83 14" fill="none" xmlns="http://www.w3.org/2000/svg">
<path d="M5.80469 1.33502L6.32969 2.26502L4.01969 3.48002L6.32969 4.68002L5.80469 5.61002L3.59969 4.23002L3.70469 6.82502H2.62469L2.74469 4.23002L0.524688 5.61002L-0.000312496 4.68002L2.30969 3.48002L-0.000312496 2.26502L0.524688 1.33502L2.74469 2.74502L2.62469 0.120019H3.70469L3.59969 2.74502L5.80469 1.33502ZM3.32969 3.75002L3.47969 3.48002L3.32969 3.19502H2.99969L2.84969 3.48002L2.99969 3.75002H3.32969ZM19.0838 7.15502L18.5138 8.10002C17.0288 7.72502 15.5738 6.87002 14.9138 5.83502C14.3288 6.96002 12.6938 7.95002 11.1788 8.47502L10.4738 7.59002C12.4538 6.96002 14.2388 5.62502 14.2388 4.02002V3.88502H11.2238V2.82002H18.4688V3.88502H15.5288V4.00502C15.5288 5.61002 17.2538 6.67502 19.0838 7.15502ZM21.6188 13.365H20.3588V1.92523e-05H21.6188V13.365ZM19.7588 9.84002V10.89C18.3638 11.175 16.5938 11.265 14.6888 11.265H10.4738V10.185H14.2688V7.92002H15.5588V10.185C17.0888 10.155 18.6038 10.065 19.7588 9.84002ZM16.8188 1.66502H12.8588V0.600019H16.8188V1.66502ZM35.0671 13.365H33.8221V6.13502H32.0821V12.735H30.8521V0.150019H32.0821V4.96502H33.8221V1.92523e-05H35.0671V13.365ZM30.1621 9.36002V10.44C28.9771 10.635 27.3871 10.695 26.2321 10.695H24.3421V1.21502H29.2921V2.29502H25.5421V9.60002H26.2321C27.3721 9.60002 28.9471 9.57002 30.1621 9.36002ZM44.8559 4.99502H44.8859C46.7459 4.99502 48.3509 6.34502 48.3509 8.58002C48.3509 10.77 46.6559 12.33 44.5259 12.33C42.4709 12.33 40.8059 11.07 40.6859 9.13502H41.9009C42.0209 10.35 43.1759 11.22 44.5409 11.22C46.0409 11.22 47.0909 10.14 47.0909 8.61002C47.0909 7.08002 46.0109 6.06002 44.5559 6.06002H44.5409C43.4159 6.06002 42.5159 6.69002 42.0959 7.65002L41.4809 7.50002C40.9709 7.39502 40.8809 7.23002 40.9109 6.61502L41.0909 1.18502H48.0509V2.31002H42.1709L41.9459 6.69002C42.3809 5.65502 43.4909 4.99502 44.8559 4.99502ZM54.3836 12.33H54.3686C52.3586 12.33 50.4236 10.965 50.4236 8.08502V5.25002C50.4236 2.34002 52.3586 0.975019 54.3686 0.975019H54.3836C56.4086 0.975019 58.3286 2.34002 58.3286 5.25002V8.08502C58.3286 10.965 56.4086 12.33 54.3836 12.33ZM54.3686 11.22H54.3836C55.7936 11.22 57.0386 10.215 57.0386 8.22002V5.10002C57.0386 3.10502 55.7936 2.10002 54.3836 2.10002H54.3686C52.9436 2.10002 51.7286 3.10502 51.7286 5.10002V8.22002C51.7286 10.215 52.9436 11.22 54.3686 11.22ZM64.2713 12.33H64.2563C62.2463 12.33 60.3113 10.965 60.3113 8.08502V5.25002C60.3113 2.34002 62.2463 0.975019 64.2563 0.975019H64.2713C66.2963 0.975019 68.2163 2.34002 68.2163 5.25002V8.08502C68.2163 10.965 66.2963 12.33 64.2713 12.33ZM64.2563 11.22H64.2713C65.6813 11.22 66.9263 10.215 66.9263 8.22002V5.10002C66.9263 3.10502 65.6813 2.10002 64.2713 2.10002H64.2563C62.8313 2.10002 61.6163 3.10502 61.6163 5.10002V8.22002C61.6163 10.215 62.8313 11.22 64.2563 11.22ZM78.239 9.96002L77.519 10.89C75.929 10.02 74.399 8.49002 73.739 6.97502C73.109 8.61002 71.669 10.14 69.869 11.25L69.029 10.38C71.159 9.12002 73.049 6.81002 73.049 3.97502V2.23502H70.049V1.15502H77.444V2.23502H74.369V4.00502C74.369 6.84002 76.289 8.94002 78.239 9.96002ZM80.429 13.365H79.169V1.92523e-05H80.429V5.19002H82.424V6.33002H80.429V13.365Z" fill="#A6A6A6"/>
</svg>
