<svg width="405" height="46" viewBox="0 0 405 46" fill="none" xmlns="http://www.w3.org/2000/svg">
<path d="M41.2001 20.2501L37.9001 25.0501C31.6001 24.0001 25.0501 21.4001 21.5001 17.6001C17.9001 21.2501 11.3001 24.0001 5.1001 25.0501L1.8001 20.2501C9.0001 18.9501 15.0001 16.2501 17.2501 13.0501H4.4501V7.7501H38.4501V13.0501H25.7001C28.0001 16.2501 33.9501 18.9501 41.2001 20.2501ZM42.9001 32.2501H24.7501V45.4501H18.1501V32.2501H9.77106e-05V26.9501H42.9001V32.2501ZM31.8501 5.50009H11.0501V0.200094H31.8501V5.50009ZM83.8778 26.6501H77.4778V15.1001H70.9278C69.8278 20.4501 65.0278 24.4501 58.5778 24.4501C51.2278 24.4501 45.9778 19.2501 45.9778 12.8001C45.9778 6.3501 51.2278 1.1501 58.5778 1.1501C64.7278 1.1501 69.4278 4.80009 70.7778 9.8001H77.4778V0.500096H83.8778V26.6501ZM83.7778 45.7001H77.3778V33.6501H51.7278V28.4501H83.7778V45.7001ZM58.5778 19.2501C62.4278 19.2501 64.7778 16.3501 64.7778 12.8001C64.7778 9.2501 62.4278 6.3501 58.5778 6.3501C54.7278 6.3501 52.3778 9.2501 52.3778 12.8001C52.3778 16.3501 54.7278 19.2501 58.5778 19.2501ZM132.256 23.5001H89.3556V18.5001H132.256V23.5001ZM127.906 44.9501H94.7056V33.1501H120.506V31.0001H94.7056V26.1001H126.906V37.7501H101.106V40.0001H127.906V44.9501ZM127.206 8.2001C127.206 16.0001 116.606 16.4001 110.806 16.4001C105.006 16.4001 94.4056 16.0001 94.4056 8.2001C94.4056 0.250097 104.906 9.67979e-05 110.806 9.67979e-05C116.706 9.67979e-05 127.206 0.250097 127.206 8.2001ZM113.556 5.0501H108.056C102.406 5.25009 101.006 6.40009 101.006 8.2001C101.006 10.0001 102.006 11.2001 108.056 11.3501C108.956 11.4001 109.906 11.4001 110.806 11.4001C111.706 11.4001 112.606 11.4001 113.556 11.3501C119.206 11.1501 120.606 10.0001 120.606 8.2001C120.606 6.40009 119.206 5.25009 113.556 5.0501ZM181.438 45.4501H175.038V0.500096H181.438V16.1501H187.588V21.6501H181.438V45.4501ZM173.888 29.7501V35.0001C168.038 36.1501 161.338 36.4001 155.138 36.4001H146.938V3.5001H153.338V31.0501H155.138C161.238 31.0501 167.638 30.8001 173.888 29.7501ZM231.816 30.0501H213.666V45.4501H207.066V30.0501H188.916V24.7501H231.816V30.0501ZM227.366 19.7001H194.366V1.30009H200.766V14.4001H227.366V19.7001ZM272.294 45.4501H265.894V22.8501H259.394C259.394 23.4001 259.344 23.9501 259.344 24.4501C258.694 32.0001 254.744 38.8501 247.194 38.8501C239.644 38.8501 235.694 32.0001 235.044 24.4501C234.994 23.4001 234.944 21.9501 234.944 20.8001C234.944 19.5501 234.994 18.3001 235.044 17.1501C235.694 9.6001 239.644 2.7501 247.194 2.7501C254.744 2.7501 258.694 9.6001 259.344 17.1501V17.4501H265.894V0.500096H272.294V45.4501ZM247.194 33.5501C250.444 33.5501 252.544 30.3001 252.944 24.4501C252.994 23.4501 252.994 21.9001 252.994 20.8001C252.994 19.5501 252.994 18.3001 252.944 17.1501C252.544 11.3001 250.444 8.0501 247.194 8.0501C241.644 8.0501 241.344 16.6001 241.344 20.8001C241.344 25.0001 241.644 33.5501 247.194 33.5501ZM316.672 14.6001C316.672 21.9001 310.872 26.8001 302.572 27.3501C301.722 27.4001 300.722 27.4501 299.722 27.4501C298.722 27.4501 297.722 27.4001 296.872 27.3501C288.572 26.8001 282.772 21.9001 282.772 14.6001C282.772 7.3001 288.572 2.4001 296.872 1.8501C297.722 1.80009 298.722 1.80009 299.722 1.80009C300.722 1.80009 301.722 1.80009 302.572 1.8501C310.872 2.4001 316.672 7.3001 316.672 14.6001ZM321.172 41.1001H278.272V35.8001H287.122V27.9501H293.622V35.8001H305.822V27.9501H312.322V35.8001H321.172V41.1001ZM302.522 7.1501H302.572C301.722 7.10009 300.722 7.0501 299.722 7.0501C298.722 7.0501 297.722 7.10009 296.872 7.1501H296.922C292.072 7.55009 289.372 10.8501 289.372 14.6001C289.372 18.3501 292.072 21.6501 296.922 22.0501C297.772 22.1501 298.722 22.1501 299.722 22.1501C300.672 22.1501 301.672 22.1501 302.522 22.0501C307.372 21.6501 310.072 18.3501 310.072 14.6001C310.072 10.8501 307.372 7.55009 302.522 7.1501ZM339.454 41.3501C337.204 41.3501 335.504 39.6501 335.504 37.4001C335.504 35.1501 337.204 33.4001 339.454 33.4001C341.704 33.4001 343.454 35.1501 343.454 37.4001C343.454 39.6501 341.704 41.3501 339.454 41.3501ZM364.113 41.3501C361.863 41.3501 360.163 39.6501 360.163 37.4001C360.163 35.1501 361.863 33.4001 364.113 33.4001C366.363 33.4001 368.113 35.1501 368.113 37.4001C368.113 39.6501 366.363 41.3501 364.113 41.3501ZM401.671 4.55009L404.121 8.8501L397.221 12.3001L404.121 15.7501L401.671 20.0001L395.221 15.7501L395.621 23.4501H390.771L391.171 15.7501L384.721 20.0001L382.221 15.7501L389.171 12.3001L382.221 8.8501L384.721 4.55009L391.171 8.8001L390.771 1.10009H395.621L395.221 8.8001L401.671 4.55009ZM393.821 13.4001L394.421 12.3001L393.821 11.2001H392.571L391.921 12.3001L392.571 13.4001H393.821Z" fill="#564F56"/>
</svg>
