<svg width="1079" height="361" viewBox="0 0 1079 361" fill="none" xmlns="http://www.w3.org/2000/svg">
<path d="M279.028 13.342H270.334V20.679H268.402V13.342H259.708V11.686H279.028V13.342ZM276.889 8.604H262.307V0.6H264.239V6.948H276.889V8.604ZM291.116 20.679H289.184V11.962H280.26V10.306H294.382C294.888 8.029 295.233 5.039 295.279 2.647H282.445V0.990999H297.303C297.257 4.073 296.889 7.776 296.314 10.306H299.58V11.962H291.116V20.679ZM317.417 20.679H315.485V0.186H317.417V7.454H320.453V9.202H317.417V20.679ZM314.335 14.285V15.918C311.851 16.355 308.332 16.424 305.48 16.424H302.145V1.612H304.077V14.745H305.48C308.332 14.745 311.713 14.676 314.335 14.285ZM342.731 20.679H340.799V0.186H342.731V8.029H345.767V9.777H342.731V20.679ZM335.164 14.883V3.613H329.207V14.883H335.164ZM337.096 16.539H327.275V1.957H337.096V16.539ZM365.997 11.249H346.677V9.616H365.997V11.249ZM363.444 20.449H349.23V13.411H363.444V20.449ZM361.512 18.816V15.044H351.162V18.816H361.512ZM363.95 4.027C363.95 7.753 359.12 7.983 356.337 7.983C353.554 7.983 348.724 7.753 348.724 4.027C348.724 0.300999 353.554 0.0709997 356.337 0.0709997C359.12 0.0709997 363.95 0.300999 363.95 4.027ZM362.018 4.027C362.018 2.716 360.776 1.796 357.763 1.704C356.912 1.681 355.762 1.681 354.911 1.704C351.898 1.796 350.656 2.716 350.656 4.027C350.656 5.338 351.898 6.258 354.911 6.35C355.762 6.373 356.912 6.373 357.763 6.35C360.776 6.258 362.018 5.338 362.018 4.027ZM381.811 1.727H375.302V0.162998H381.811V1.727ZM384.732 4.855H372.404V3.245H384.732V4.855ZM389.516 20.334H375.417V14.469H377.372V18.678H389.516V20.334ZM388.826 15.504H386.894V0.186H388.826V6.396H391.632V8.098H388.826V15.504ZM383.789 9.478C383.789 11.502 381.673 13.089 378.568 13.089C375.463 13.089 373.347 11.502 373.347 9.478C373.347 7.454 375.463 5.867 378.568 5.867C381.673 5.867 383.789 7.454 383.789 9.478ZM381.857 9.478C381.857 8.236 380.638 7.385 378.568 7.385C376.498 7.385 375.279 8.236 375.279 9.478C375.279 10.72 376.498 11.571 378.568 11.571C380.638 11.571 381.857 10.72 381.857 9.478ZM398.753 12.284L397.649 10.812C401.076 9.892 403.629 8.305 405.193 6.396C403.79 6.58 401.95 6.672 400.639 6.672H398.592V5.062H400.593C402.18 5.062 404.733 4.993 406.251 4.763C406.596 4.096 406.803 3.383 406.941 2.67H399.098V1.037H409.103C408.827 7.086 403.974 10.789 398.753 12.284ZM414.83 14.929H412.898V9.938H408.758V8.305H412.898V5.2H409.333V3.567H412.898V0.186H414.83V14.929ZM415.29 20.334H401.191V13.204H403.146V18.678H415.29V20.334ZM431.908 19.828H430.022V10.145H427.446C427.446 13.066 426.687 17.436 422.961 17.436C419.994 17.436 418.66 14.63 418.499 10.904C418.453 9.869 418.453 8.949 418.499 7.914C418.66 4.188 419.994 1.382 422.961 1.382C426.572 1.382 427.446 5.568 427.446 8.443H430.022V0.415999H431.908V19.828ZM422.961 15.78C424.709 15.78 425.445 13.756 425.583 10.904C425.629 9.869 425.629 8.949 425.583 7.914C425.445 5.062 424.709 3.038 422.961 3.038C421.213 3.038 420.477 5.062 420.339 7.914C420.293 8.949 420.293 9.869 420.339 10.904C420.477 13.756 421.213 15.78 422.961 15.78ZM435.795 20.679H433.886V0.186H435.795V20.679ZM460.465 20.679H458.533V9.984H454.508C454.508 13.388 453.404 17.459 449.264 17.459C445.952 17.459 444.204 14.653 444.043 10.927C443.997 9.892 443.997 8.834 444.043 7.799C444.204 4.073 445.952 1.267 449.264 1.267C453.105 1.267 454.508 4.993 454.508 8.282H458.533V0.186H460.465V20.679ZM449.264 15.803C451.357 15.803 452.461 13.779 452.599 10.927C452.645 9.892 452.645 8.834 452.599 7.799C452.461 4.947 451.357 2.923 449.264 2.923C447.171 2.923 446.067 4.947 445.929 7.799C445.883 8.834 445.883 9.892 445.929 10.927C446.067 13.779 447.171 15.803 449.264 15.803ZM481.247 15.389H479.315V0.186H481.247V15.389ZM481.707 20.334H467.608V13.664H469.563V18.678H481.707V20.334ZM478.05 9.869V11.479C475.727 11.824 472.392 11.847 469.471 11.847H465.101V5.499H473.266V2.532H465.101V0.898999H475.198V7.086H467.033V10.191H469.471C472.323 10.191 475.589 10.168 478.05 9.869ZM506.33 20.679H504.398V0.186H506.33V20.679ZM502.351 15.32L501.247 16.746C498.809 15.412 496.417 12.974 495.405 10.651C494.485 13.089 492.139 15.642 489.425 17.298L488.137 15.964C491.495 14.078 494.347 10.49 494.347 6.143V1.497H496.371V6.189C496.371 10.536 499.407 13.756 502.351 15.32ZM527.526 20.449H513.381V15.067H525.134V12.997H513.381V11.387H527.066V16.631H515.313V18.816H527.526V20.449ZM522.811 8.443L521.822 9.938C519.591 9.225 517.291 7.569 516.233 5.729C515.359 7.661 513.013 9.501 510.483 10.582L509.287 9.156C512.553 7.891 515.175 5.269 515.175 2.785V2.647H510.575V1.037H521.914V2.647H517.199V2.762C517.199 5.223 519.913 7.569 522.811 8.443ZM527.112 10.375H525.18V5.89H521.316V4.28H525.18V0.186H527.112V10.375ZM545.042 14.814V16.424C542.903 16.861 540.189 16.999 537.268 16.999H530.805V15.343H537.268C540.051 15.343 542.949 15.205 545.042 14.814ZM547.894 20.679H545.962V0.186H547.894V20.679ZM543.179 6.603C543.179 9.593 540.718 12.008 537.498 12.008C534.278 12.008 531.817 9.593 531.817 6.603C531.817 3.613 534.278 1.198 537.498 1.198C540.718 1.198 543.179 3.613 543.179 6.603ZM537.498 10.352C539.821 10.352 541.247 8.627 541.247 6.603C541.247 4.556 539.821 2.854 537.498 2.854C535.175 2.854 533.749 4.556 533.749 6.603C533.749 8.627 535.175 10.352 537.498 10.352ZM574.771 14.009H566.077V20.679H564.145V14.009H555.451V12.353H574.771V14.009ZM568.998 1.842H561.224V0.208999H568.998V1.842ZM573.966 9.179L572.977 10.697C569.964 10.352 566.652 9.064 565.111 7.155C563.57 9.064 560.258 10.352 557.245 10.697L556.256 9.179C559.936 8.765 563.616 7.224 564.076 5.108H557.452V3.498H572.77V5.108H566.146C566.606 7.224 570.286 8.765 573.966 9.179ZM593.529 12.077H591.597V6.419H587.664C587.319 8.903 585.272 10.835 582.213 10.835C578.855 10.835 576.693 8.512 576.693 5.683C576.693 2.854 578.947 0.530999 582.213 0.530999C585.111 0.530999 587.227 2.371 587.641 4.763H591.597V0.186H593.529V12.077ZM585.801 5.683C585.801 3.751 584.467 2.187 582.213 2.187C579.959 2.187 578.625 3.751 578.625 5.683C578.625 7.569 579.959 9.179 582.213 9.179C584.467 9.179 585.801 7.569 585.801 5.683ZM593.483 20.794H591.551V14.745H579.338V13.089H593.483V20.794ZM615.875 10.467H596.555V8.88H615.875V10.467ZM613.782 20.449H599.108V15.504H611.39V13.825H599.108V12.238H613.322V17.045H601.04V18.839H613.782V20.449ZM613.828 3.751C613.828 7.27 608.837 7.431 606.215 7.431C603.593 7.431 598.602 7.27 598.602 3.751C598.602 0.231999 603.593 0.0709997 606.215 0.0709997C608.837 0.0709997 613.828 0.231999 613.828 3.751ZM611.896 3.751C611.896 2.578 610.654 1.75 607.641 1.658C606.79 1.635 605.64 1.635 604.789 1.658C601.776 1.75 600.534 2.578 600.534 3.751C600.534 4.924 601.776 5.752 604.789 5.844C605.64 5.867 606.79 5.867 607.641 5.844C610.654 5.752 611.896 4.924 611.896 3.751ZM639.394 20.334H625.295V13.204H627.25V18.678H639.394V20.334ZM638.704 14.929H636.772V0.186H638.704V5.453H641.51V7.155H638.704V14.929ZM622.926 12.192L621.845 10.743C627.043 9.225 630.401 6.143 630.999 2.693H623.248V1.037H633.207C632.977 7.063 627.963 10.651 622.926 12.192ZM655.737 9.478L654.725 10.95C652.517 10.099 650.171 8.397 649.113 6.511C648.239 8.397 645.893 10.375 643.34 11.594L642.121 10.191C645.295 8.765 648.055 6.143 648.055 3.061V2.67H643.409V1.037H654.84V2.67H650.079V3.038C650.079 6.051 652.885 8.397 655.737 9.478ZM659.9 20.794H657.968V14.745H645.755V13.089H659.9V20.794ZM659.946 12.077H658.014V0.186H659.946V12.077ZM674.564 12.859C674.564 15.619 672.517 17.965 669.412 17.965C666.307 17.965 664.26 15.619 664.26 12.859C664.26 10.099 666.307 7.753 669.412 7.753C672.517 7.753 674.564 10.099 674.564 12.859ZM679.578 20.679H677.646V0.186H679.578V9.317H682.614V11.065H679.578V20.679ZM675.622 6.327H663.202V4.671H675.622V6.327ZM672.54 2.785H666.284V1.129H672.54V2.785ZM669.412 16.355C671.505 16.355 672.632 14.814 672.632 12.859C672.632 10.904 671.505 9.363 669.412 9.363C667.319 9.363 666.192 10.904 666.192 12.859C666.192 14.814 667.319 16.355 669.412 16.355ZM702.843 18.632H683.523V16.976H690.906V9.248H692.884V16.976H702.843V18.632ZM699.209 14.032H697.323C698.174 10.812 698.542 6.419 698.588 3.337H685.708V1.681H700.566C700.566 5.591 700.152 10.628 699.209 14.032ZM726.087 20.449H712.172V15.067H723.695V12.997H712.172V11.387H725.627V16.631H714.104V18.816H726.087V20.449ZM725.673 10.375H723.741V0.186H725.673V4.05H728.479V5.706H725.673V10.375ZM721.602 8.121L720.613 9.616C718.382 8.903 716.082 7.201 715.024 5.315C714.15 7.247 711.804 9.133 709.274 10.26L708.078 8.834C711.298 7.523 713.966 4.947 713.966 2.187V0.576999H715.99V2.164C715.99 4.855 718.704 7.247 721.602 8.121ZM745.995 20.679H744.063V0.186H745.995V8.029H749.031V9.777H745.995V20.679ZM735.185 17.459C731.873 17.459 730.194 14.653 730.033 10.927C729.987 9.892 729.987 8.834 730.033 7.799C730.194 4.073 731.873 1.267 735.185 1.267C738.497 1.267 740.176 4.073 740.337 7.799C740.383 8.834 740.383 9.892 740.337 10.927C740.176 14.653 738.497 17.459 735.185 17.459ZM735.185 15.803C737.278 15.803 738.313 13.779 738.451 10.927C738.497 9.892 738.497 8.834 738.451 7.799C738.313 4.947 737.278 2.923 735.185 2.923C733.092 2.923 732.057 4.947 731.919 7.799C731.873 8.834 731.873 9.892 731.919 10.927C732.057 13.779 733.092 15.803 735.185 15.803ZM764.798 18.793V15.987H755.207V18.793H764.798ZM766.73 20.426H753.275V11.663H755.207V14.4H764.798V11.663H766.73V20.426ZM766.776 10.651H764.844V0.186H766.776V4.625H769.582V6.281H766.776V10.651ZM759.071 2.67H751.32V1.037H761.279C761.141 6.511 755.529 9.685 750.952 10.766L749.917 9.271C754.701 8.213 758.427 5.591 759.071 2.67ZM787.788 20.679H785.856V0.186H787.788V20.679ZM784.591 14.285V15.918C782.107 16.355 778.588 16.424 775.736 16.424H772.056V1.612H773.988V14.745H775.736C778.588 14.745 781.969 14.676 784.591 14.285ZM807.65 20.679H805.718V0.186H807.65V7.799H810.686V9.547H807.65V20.679ZM804.568 14.17V15.803C802.084 16.355 798.565 16.539 795.713 16.539H792.286V1.957H802.222V3.613H794.218V14.86H795.713C798.565 14.86 801.946 14.676 804.568 14.17ZM814.08 18.954C813.298 18.954 812.677 18.333 812.677 17.551C812.677 16.769 813.298 16.148 814.08 16.148C814.862 16.148 815.483 16.769 815.483 17.551C815.483 18.333 814.862 18.954 814.08 18.954ZM18.9502 54.679H17.0182V34.186H18.9502V54.679ZM14.9712 49.32L13.8672 50.746C11.4292 49.412 9.0372 46.974 8.0252 44.651C7.1052 47.089 4.7592 49.642 2.0452 51.298L0.757203 49.964C4.1152 48.078 6.9672 44.49 6.9672 40.143V35.497H8.9912V40.189C8.9912 44.536 12.0272 47.756 14.9712 49.32ZM39.732 54.334H25.633V47.204H27.588V52.678H39.732V54.334ZM39.042 48.929H37.11V34.186H39.042V39.453H41.848V41.155H39.042V48.929ZM23.264 46.192L22.183 44.743C27.381 43.225 30.739 40.143 31.337 36.693H23.586V35.037H33.545C33.315 41.063 28.301 44.651 23.264 46.192ZM60.0537 54.679H58.1217V34.186H60.0537V54.679ZM48.8527 51.459C45.5407 51.459 43.7927 48.653 43.6317 44.927C43.5857 43.892 43.5857 42.834 43.6317 41.799C43.7927 38.073 45.5407 35.267 48.8527 35.267C52.1647 35.267 53.9127 38.073 54.0737 41.799C54.1197 42.834 54.1197 43.892 54.0737 44.927C53.9127 48.653 52.1647 51.459 48.8527 51.459ZM48.8527 49.803C50.9457 49.803 52.0497 47.779 52.1877 44.927C52.2337 43.892 52.2337 42.834 52.1877 41.799C52.0497 38.947 50.9457 36.923 48.8527 36.923C46.7597 36.923 45.6557 38.947 45.5177 41.799C45.4717 42.834 45.4717 43.892 45.5177 44.927C45.6557 47.779 46.7597 49.803 48.8527 49.803ZM87.3912 52.402H68.0712V50.746H87.3912V52.402ZM85.8272 39.798H69.6352V38.165H85.8272V39.798ZM81.9632 36.509H73.4992V34.853H81.9632V36.509ZM84.3552 44.582C84.3552 46.698 82.4232 48.124 78.9502 48.262C78.5592 48.262 78.1452 48.285 77.7312 48.285C77.3172 48.285 76.9032 48.262 76.5122 48.262C73.0392 48.124 71.1072 46.698 71.1072 44.582C71.1072 42.466 73.0392 41.04 76.5122 40.902C76.9032 40.879 77.3172 40.879 77.7312 40.879C78.1452 40.879 78.5592 40.879 78.9502 40.902C82.4232 41.04 84.3552 42.466 84.3552 44.582ZM82.4692 44.582C82.4692 42.604 79.2492 42.42 77.7312 42.42C76.2132 42.42 72.9932 42.604 72.9932 44.582C72.9932 46.56 76.2132 46.721 77.7312 46.721C79.2492 46.721 82.4692 46.56 82.4692 44.582ZM105.85 54.449H91.176V49.803H103.458V48.4H91.176V46.836H105.39V51.321H93.108V52.862H105.85V54.449ZM105.735 42.19H91.176V37.636H103.343V36.21H91.176V34.646H105.275V39.154H93.108V40.603H105.735V42.19ZM107.943 45.249H88.623V43.685H107.943V45.249ZM128.495 47.572H119.801V54.679H117.869V47.572H109.175V45.916H128.495V47.572ZM127.713 42.259L126.678 43.8C123.55 43.11 120.169 41.132 118.835 38.74C117.501 41.132 114.12 43.11 110.992 43.8L109.957 42.259C114.212 41.362 117.846 38.602 117.846 35.704V34.485H119.824V35.704C119.824 38.602 123.458 41.362 127.713 42.259ZM149.046 46.767H129.726V45.157H138.512V43.156H132.279V38.073H144.446V36.256H132.279V34.646H146.378V39.637H134.211V41.523H146.838V43.156H140.49V45.157H149.046V46.767ZM146.493 54.794H144.561V50.056H131.957V48.423H146.493V54.794ZM174.36 52.287H155.04V50.631H168.127C169.07 46.974 169.783 41.109 169.921 37.337H157.225V35.681H171.899C171.761 40.511 171.048 46.675 170.082 50.631H174.36V52.287ZM193.578 49.458L192.474 50.884C190.036 49.55 187.69 47.204 186.678 44.881C185.712 47.388 183.504 49.734 180.744 51.436L179.456 50.102C182.722 48.17 185.62 44.628 185.62 40.281V37.613H181.02V35.957H192.359V37.613H187.644V40.327C187.644 44.674 190.588 47.894 193.578 49.458ZM196.936 54.679H195.004V34.186H196.936V42.144H199.995V43.892H196.936V54.679ZM218.201 54.679H216.269V34.186H218.201V54.679ZM215.004 48.653V50.263C212.52 50.7 209.001 50.769 206.149 50.769H202.285V42.236H210.312V37.36H202.285V35.727H212.244V43.846H204.217V49.113H206.149C209.001 49.113 212.382 49.044 215.004 48.653ZM240.777 45.801H221.457V44.168H240.777V45.801ZM238.914 54.334H224.01V47.871H225.965V52.678H238.914V54.334ZM238.569 41.638H224.01V34.439H225.942V40.005H238.569V41.638ZM264.25 54.449H250.565V46.399H264.25V54.449ZM259.995 43.386L258.983 44.858C256.775 44.053 254.475 42.282 253.417 40.419C252.589 42.305 250.197 44.329 247.69 45.502L246.471 44.099C249.737 42.719 252.359 39.913 252.359 37.061V36.67H247.759V35.037H259.098V36.67H254.383V37.038C254.383 39.959 257.097 42.259 259.995 43.386ZM262.318 52.816V48.032H252.497V52.816H262.318ZM264.296 45.387H262.364V40.396H258.5V38.74H262.364V34.186H264.296V45.387ZM284.802 54.449H271.117V46.399H284.802V54.449ZM280.547 43.386L279.535 44.858C277.327 44.053 275.027 42.282 273.969 40.419C273.141 42.305 270.749 44.329 268.242 45.502L267.023 44.099C270.289 42.719 272.911 39.913 272.911 37.061V36.67H268.311V35.037H279.65V36.67H274.935V37.038C274.935 39.959 277.649 42.259 280.547 43.386ZM282.87 52.816V48.032H273.049V52.816H282.87ZM284.848 45.387H282.916V40.396H279.052V38.74H282.916V34.186H284.848V45.387ZM305.631 43.386L304.619 44.858C302.411 44.007 300.111 42.305 299.053 40.419C298.179 42.305 295.879 44.283 293.326 45.502L292.107 44.099C295.281 42.673 297.995 40.051 297.995 36.969V36.67H293.395V35.037H304.734V36.67H300.019V36.946C300.019 39.959 302.779 42.305 305.631 43.386ZM309.426 54.794H307.494V48.745H295.511V47.089H309.426V54.794ZM309.472 46.077H307.54V34.186H309.472V38.809H312.278V40.511H309.472V46.077ZM329.793 54.679H327.861V34.186H329.793V42.029H332.829V43.777H329.793V54.679ZM318.983 51.459C315.671 51.459 313.992 48.653 313.831 44.927C313.785 43.892 313.785 42.834 313.831 41.799C313.992 38.073 315.671 35.267 318.983 35.267C322.295 35.267 323.974 38.073 324.135 41.799C324.181 42.834 324.181 43.892 324.135 44.927C323.974 48.653 322.295 51.459 318.983 51.459ZM318.983 49.803C321.076 49.803 322.111 47.779 322.249 44.927C322.295 43.892 322.295 42.834 322.249 41.799C322.111 38.947 321.076 36.923 318.983 36.923C316.89 36.923 315.855 38.947 315.717 41.799C315.671 42.834 315.671 43.892 315.717 44.927C315.855 47.779 316.89 49.803 318.983 49.803ZM351.679 54.449H337.534V49.067H349.287V46.997H337.534V45.387H351.219V50.631H339.466V52.816H351.679V54.449ZM347.056 42.305L346.067 43.8C343.836 43.087 341.49 41.431 340.432 39.591C339.558 41.523 337.166 43.363 334.636 44.444L333.44 43.018C336.706 41.753 339.374 39.131 339.374 36.647H334.728V35.037H346.159V36.647H341.398C341.398 39.108 344.158 41.431 347.056 42.305ZM351.265 44.375H349.333V34.186H351.265V44.375ZM367.838 49.458L366.734 50.884C364.296 49.55 361.904 47.158 360.892 44.835C359.926 47.342 357.672 49.734 354.935 51.436L353.624 50.079C356.89 48.17 359.834 44.628 359.834 40.281V37.613H355.188V35.957H366.619V37.613H361.858V40.327C361.858 44.674 364.848 47.894 367.838 49.458ZM371.587 54.679H369.655V34.186H371.587V54.679ZM398.924 52.632H379.604V50.976H388.275V45.916H382.203V35.589H396.325V45.916H390.253V50.976H398.924V52.632ZM394.393 44.26V37.245H384.135V44.26H394.393ZM417.222 47.296H402.755V40.511H414.83V37.084H402.755V35.451H416.762V42.121H404.687V45.64H417.222V47.296ZM419.476 52.402H400.156V50.746H419.476V52.402ZM434.255 49.458L433.151 50.884C430.713 49.55 428.321 47.158 427.309 44.835C426.343 47.342 424.089 49.734 421.352 51.436L420.041 50.079C423.307 48.17 426.251 44.628 426.251 40.281V37.613H421.605V35.957H433.036V37.613H428.275V40.327C428.275 44.674 431.265 47.894 434.255 49.458ZM438.004 54.679H436.072V34.186H438.004V54.679ZM458.786 54.334H444.687V47.204H446.642V52.678H458.786V54.334ZM450.437 43.041V36.693H444.342V43.041H450.437ZM452.369 44.697H442.41V35.037H452.369V44.697ZM458.096 48.929H456.164V34.186H458.096V38.993H460.902V40.695H458.096V48.929ZM464.847 56.565H462.823V49.964H464.847V56.565ZM488.686 54.449H475.231V46.399H488.686V54.449ZM484.891 43.156L483.879 44.628C481.671 43.823 479.371 42.052 478.313 40.189C477.485 42.075 475.093 44.099 472.586 45.272L471.367 43.869C474.633 42.489 477.255 39.683 477.255 36.831V36.67H472.655V35.037H483.994V36.67H479.279V36.808C479.279 39.729 481.993 42.029 484.891 43.156ZM486.754 52.816V48.032H477.163V52.816H486.754ZM488.732 45.387H486.8V34.186H488.732V38.579H491.538V40.281H488.732V45.387ZM509.744 54.679H507.812V34.186H509.744V54.679ZM505.765 49.32L504.661 50.746C502.223 49.412 499.831 46.974 498.819 44.651C497.899 47.089 495.553 49.642 492.839 51.298L491.551 49.964C494.909 48.078 497.761 44.49 497.761 40.143V35.497H499.785V40.189C499.785 44.536 502.821 47.756 505.765 49.32ZM535.288 45.387H533.356V40.074H529.009V43.777H519.142V35.037H529.009V38.418H533.356V34.186H535.288V45.387ZM535.242 54.449H521.557V46.399H535.242V54.449ZM533.31 52.816V48.032H523.489V52.816H533.31ZM527.077 42.144V36.67H521.074V42.144H527.077ZM556.069 54.679H554.137V50.999H549.146V49.366H554.137V34.186H556.069V54.679ZM552.09 43.018L551.239 44.467C548.916 44.099 546.731 42.926 545.673 41.431C544.707 43.018 542.2 44.421 539.831 44.973L538.911 43.501C542.154 42.719 544.592 40.856 544.592 39.361V39.016H539.877V37.429H551.377V39.016H546.662V39.384C546.662 40.81 549.1 42.535 552.09 43.018ZM546.317 54.219H544.385V47.733H538.98V46.077H545.627C548.203 46.077 551.193 45.916 553.102 45.525V47.135C551.354 47.526 548.916 47.71 546.317 47.733V54.219ZM548.87 36.026H542.384V34.416H548.87V36.026ZM582.947 44.743H563.627V43.156H572.413V40.994H566.18V34.784H580.394V36.371H568.112V39.407H580.624V40.994H574.391V43.156H582.947V44.743ZM580.854 54.449H566.18V49.55H578.462V47.917H566.18V46.33H580.394V51.091H568.112V52.839H580.854V54.449ZM600.785 54.679H598.853V34.186H600.785V42.029H603.821V43.777H600.785V54.679ZM589.975 51.459C586.663 51.459 584.984 48.653 584.823 44.927C584.777 43.892 584.777 42.834 584.823 41.799C584.984 38.073 586.663 35.267 589.975 35.267C593.287 35.267 594.966 38.073 595.127 41.799C595.173 42.834 595.173 43.892 595.127 44.927C594.966 48.653 593.287 51.459 589.975 51.459ZM589.975 49.803C592.068 49.803 593.103 47.779 593.241 44.927C593.287 43.892 593.287 42.834 593.241 41.799C593.103 38.947 592.068 36.923 589.975 36.923C587.882 36.923 586.847 38.947 586.709 41.799C586.663 42.834 586.663 43.892 586.709 44.927C586.847 47.779 587.882 49.803 589.975 49.803ZM624.05 52.632H604.73V50.976H613.401V46.606H607.329V35.359H609.261V39.2H619.519V35.359H621.451V46.606H615.379V50.976H624.05V52.632ZM619.519 44.95V40.833H609.261V44.95H619.519ZM626.432 51.827L625.098 50.585C629.468 47.434 632.067 42.558 632.412 37.705H626.294V36.049H634.436C634.436 43.156 630.894 48.446 626.432 51.827ZM639.174 53.828H637.288V44.214H634.252V42.512H637.288V34.416H639.174V53.828ZM642.969 54.679H641.06V34.186H642.969V54.679ZM665.5 49.044V50.654C663.361 51.091 660.578 51.229 657.657 51.229H651.263V49.573H657.289V45.065H652.666V35.75H663.269V37.406H654.598V43.409H663.729V45.065H659.267V49.573C661.544 49.527 663.798 49.366 665.5 49.044ZM668.352 54.679H666.42V34.186H668.352V54.679ZM688.673 45.617H686.741V40.419H682.808C682.463 42.903 680.416 44.835 677.357 44.835C673.999 44.835 671.837 42.512 671.837 39.683C671.837 36.854 674.091 34.531 677.357 34.531C680.255 34.531 682.371 36.371 682.785 38.763H686.741V34.186H688.673V45.617ZM690.444 53.437L689.34 54.725C687.523 53.736 685.867 52.126 685.292 50.608C684.579 52.264 683.015 53.828 681.497 54.725C679.979 53.828 678.415 52.264 677.702 50.608C677.127 52.126 675.471 53.736 673.654 54.725L672.55 53.437C674.781 52.356 676.759 50.056 676.759 47.894V46.629H678.645V47.894C678.645 49.642 680.209 51.896 681.497 52.747C682.785 51.896 684.349 49.642 684.349 47.894V46.629H686.235V47.894C686.235 50.056 688.213 52.356 690.444 53.437ZM680.945 39.683C680.945 37.751 679.611 36.187 677.357 36.187C675.103 36.187 673.769 37.751 673.769 39.683C673.769 41.569 675.103 43.179 677.357 43.179C679.611 43.179 680.945 41.569 680.945 39.683ZM711.019 44.467H691.699V42.88H711.019V44.467ZM708.926 54.449H694.252V49.504H706.534V47.825H694.252V46.238H708.466V51.045H696.184V52.839H708.926V54.449ZM708.972 37.751C708.972 41.27 703.981 41.431 701.359 41.431C698.737 41.431 693.746 41.27 693.746 37.751C693.746 34.232 698.737 34.071 701.359 34.071C703.981 34.071 708.972 34.232 708.972 37.751ZM707.04 37.751C707.04 36.578 705.798 35.75 702.785 35.658C701.934 35.635 700.784 35.635 699.933 35.658C696.92 35.75 695.678 36.578 695.678 37.751C695.678 38.924 696.92 39.752 699.933 39.844C700.784 39.867 701.934 39.867 702.785 39.844C705.798 39.752 707.04 38.924 707.04 37.751ZM735.183 54.679H733.297V43.823H731.135V53.828H729.272V34.416H731.135V42.029H733.297V34.186H735.183V54.679ZM728.559 48.791V50.401C727.708 50.608 726.512 50.677 725.822 50.677H723.315V36.049H727.892V37.682H725.155V49.021H725.96C726.811 49.021 727.8 48.929 728.559 48.791ZM722.74 48.837V50.447C721.889 50.608 720.762 50.677 720.302 50.677H718.232V36.049H722.625V37.682H720.072V49.021H720.463C720.946 49.021 721.843 48.975 722.74 48.837ZM761.646 52.287H742.326V50.631H755.413C756.356 46.974 757.069 41.109 757.207 37.337H744.511V35.681H759.185C759.047 40.511 758.334 46.675 757.368 50.631H761.646V52.287ZM784.936 54.679H783.004V34.186H784.936V54.679ZM769.388 51.873L768.146 50.539C773.344 47.503 776.541 42.581 776.909 37.613H769.204V35.957H778.979C778.933 43.363 774.448 48.837 769.388 51.873ZM805.717 46.077H803.785V40.419H799.852C799.507 42.903 797.46 44.835 794.401 44.835C791.043 44.835 788.881 42.512 788.881 39.683C788.881 36.854 791.135 34.531 794.401 34.531C797.299 34.531 799.415 36.371 799.829 38.763H803.785V34.186H805.717V46.077ZM797.989 39.683C797.989 37.751 796.655 36.187 794.401 36.187C792.147 36.187 790.813 37.751 790.813 39.683C790.813 41.569 792.147 43.179 794.401 43.179C796.655 43.179 797.989 41.569 797.989 39.683ZM805.671 54.794H803.739V48.745H791.526V47.089H805.671V54.794ZM826.039 54.679H824.107V34.186H826.039V54.679ZM814.838 51.459C811.526 51.459 809.778 48.653 809.617 44.927C809.571 43.892 809.571 42.834 809.617 41.799C809.778 38.073 811.526 35.267 814.838 35.267C818.15 35.267 819.898 38.073 820.059 41.799C820.105 42.834 820.105 43.892 820.059 44.927C819.898 48.653 818.15 51.459 814.838 51.459ZM814.838 49.803C816.931 49.803 818.035 47.779 818.173 44.927C818.219 43.892 818.219 42.834 818.173 41.799C818.035 38.947 816.931 36.923 814.838 36.923C812.745 36.923 811.641 38.947 811.503 41.799C811.457 42.834 811.457 43.892 811.503 44.927C811.641 47.779 812.745 49.803 814.838 49.803ZM852.526 42.328L851.468 43.8C848.202 43.202 845.097 41.293 843.717 39.177C842.337 41.293 839.232 43.202 835.966 43.8L834.908 42.328C838.864 41.592 842.429 39.039 842.705 36.601H836.334V34.945H851.1V36.601H844.729C845.005 39.039 848.547 41.592 852.526 42.328ZM853.377 47.572H844.683V54.679H842.751V47.572H834.057V45.916H853.377V47.572ZM873.928 45.801H854.608V44.168H873.928V45.801ZM872.065 54.334H857.161V47.871H859.116V52.678H872.065V54.334ZM871.72 41.638H857.161V34.439H859.093V40.005H871.72V41.638ZM897.54 54.449H883.855V47.549H897.54V54.449ZM892.043 42.88C892.043 44.789 889.881 46.169 886.776 46.169C883.671 46.169 881.509 44.789 881.509 42.88C881.509 40.971 883.671 39.591 886.776 39.591C889.881 39.591 892.043 40.971 892.043 42.88ZM890.065 35.727H883.464V34.163H890.065V35.727ZM892.986 38.625H880.566V37.015H892.986V38.625ZM897.586 46.537H895.654V34.186H897.586V46.537ZM895.608 52.862V49.136H885.787V52.862H895.608ZM890.111 42.88C890.111 41.799 888.846 41.109 886.776 41.109C884.706 41.109 883.441 41.799 883.441 42.88C883.441 43.961 884.706 44.651 886.776 44.651C888.846 44.651 890.111 43.961 890.111 42.88ZM919.794 46.261H900.474V44.628H919.794V46.261ZM917.931 54.334H903.027V48.101H904.982V52.678H917.931V54.334ZM917.747 38.372C917.747 40.718 915.631 42.535 911.56 42.65C910.709 42.673 909.559 42.673 908.708 42.65C904.637 42.535 902.521 40.718 902.521 38.372C902.521 36.026 904.637 34.209 908.708 34.094C909.559 34.071 910.709 34.071 911.56 34.094C915.631 34.209 917.747 36.026 917.747 38.372ZM915.815 38.372C915.815 37.061 914.573 35.796 911.56 35.704C910.709 35.681 909.559 35.681 908.708 35.704C905.695 35.796 904.453 37.061 904.453 38.372C904.453 39.683 905.695 40.948 908.708 41.04C909.559 41.063 910.709 41.063 911.56 41.04C914.573 40.948 915.815 39.683 915.815 38.372ZM943.313 45.387H941.381V34.186H943.313V45.387ZM939.127 52.793L939.265 48.101H933.446L933.607 52.793H939.127ZM943.934 54.426H928.708V52.793H931.698L931.56 48.101H928.961V46.491H943.658V48.101H941.174L941.013 52.793H943.934V54.426ZM927.075 45.64L925.994 44.191C931.192 42.765 934.642 40.005 935.286 36.693H927.397V35.037H937.494C937.264 40.879 932.066 44.191 927.075 45.64ZM965.659 52.632H946.339V50.976H953.722V43.248H955.7V50.976H965.659V52.632ZM962.025 48.032H960.139C960.99 44.812 961.358 40.419 961.404 37.337H948.524V35.681H963.382C963.382 39.591 962.968 44.628 962.025 48.032ZM989.178 54.334H975.079V47.204H977.034V52.678H989.178V54.334ZM988.488 48.929H986.556V34.186H988.488V38.763H991.294V40.465H988.488V48.929ZM985.337 42.466V44.099C983.014 44.559 979.748 44.697 976.827 44.697H972.894V35.037H982.945V36.693H974.826V43.018H976.827C979.679 43.018 982.876 42.88 985.337 42.466ZM1009.73 54.334H995.631V47.204H997.586V52.678H1009.73V54.334ZM1009.04 48.929H1007.11V34.186H1009.04V38.763H1011.85V40.465H1009.04V48.929ZM1005.89 42.466V44.099C1003.57 44.559 1000.3 44.697 997.379 44.697H993.446V35.037H1003.5V36.693H995.378V43.018H997.379C1000.23 43.018 1003.43 42.88 1005.89 42.466ZM1027.61 52.839V50.539H1018.02V52.839H1027.61ZM1029.55 54.426H1016.09V46.813H1018.02V48.998H1027.61V46.813H1029.55V54.426ZM1029.59 45.801H1027.66V34.186H1029.59V39.315H1032.4V40.971H1029.59V45.801ZM1022.58 35.727H1016.07V34.163H1022.58V35.727ZM1025.5 38.579H1013.17V36.969H1025.5V38.579ZM1024.55 42.673C1024.55 44.513 1022.44 45.847 1019.33 45.847C1016.23 45.847 1014.11 44.513 1014.11 42.673C1014.11 40.833 1016.23 39.499 1019.33 39.499C1022.44 39.499 1024.55 40.833 1024.55 42.673ZM1022.62 42.673C1022.62 41.661 1021.4 41.017 1019.33 41.017C1017.26 41.017 1016.04 41.661 1016.04 42.673C1016.04 43.685 1017.26 44.329 1019.33 44.329C1021.4 44.329 1022.62 43.685 1022.62 42.673ZM1050.6 54.679H1048.67V34.186H1050.6V54.679ZM1047.41 48.285V49.918C1044.92 50.355 1041.4 50.424 1038.55 50.424H1034.87V35.612H1036.8V48.745H1038.55C1041.4 48.745 1044.78 48.676 1047.41 48.285ZM1070.47 54.679H1068.53V34.186H1070.47V41.799H1073.5V43.547H1070.47V54.679ZM1067.38 48.17V49.803C1064.9 50.355 1061.38 50.539 1058.53 50.539H1055.1V35.957H1065.04V37.613H1057.03V48.86H1058.53C1061.38 48.86 1064.76 48.676 1067.38 48.17ZM1076.9 52.954C1076.11 52.954 1075.49 52.333 1075.49 51.551C1075.49 50.769 1076.11 50.148 1076.9 50.148C1077.68 50.148 1078.3 50.769 1078.3 51.551C1078.3 52.333 1077.68 52.954 1076.9 52.954ZM189.662 73.154C189.662 75.707 187.546 77.731 183.475 77.846C182.624 77.869 181.612 77.869 180.761 77.846C176.69 77.731 174.574 75.707 174.574 73.154C174.574 70.601 176.69 68.577 180.761 68.462C181.612 68.439 182.624 68.439 183.475 68.462C187.546 68.577 189.662 70.601 189.662 73.154ZM187.73 73.154C187.73 71.636 186.488 70.187 183.475 70.095C182.624 70.072 181.612 70.072 180.761 70.095C177.748 70.187 176.506 71.636 176.506 73.154C176.506 74.672 177.748 76.121 180.761 76.213C181.612 76.236 182.624 76.236 183.475 76.213C186.488 76.121 187.73 74.672 187.73 73.154ZM191.778 81.572H183.084V88.679H181.152V81.572H172.458V79.916H191.778V81.572ZM210.306 88.679H208.374V68.186H210.306V88.679ZM207.109 82.653V84.263C204.625 84.7 201.106 84.769 198.254 84.769H194.39V76.236H202.417V71.36H194.39V69.727H204.349V77.846H196.322V83.113H198.254C201.106 83.113 204.487 83.044 207.109 82.653ZM232.882 79.801H213.562V78.168H232.882V79.801ZM231.019 88.334H216.115V81.871H218.07V86.678H231.019V88.334ZM230.674 75.638H216.115V68.439H218.047V74.005H230.674V75.638ZM252.422 83.458L251.318 84.884C248.88 83.55 246.488 81.158 245.476 78.835C244.51 81.342 242.256 83.734 239.519 85.436L238.208 84.079C241.474 82.17 244.418 78.628 244.418 74.281V71.613H239.772V69.957H251.203V71.613H246.442V74.327C246.442 78.674 249.432 81.894 252.422 83.458ZM256.171 88.679H254.239V68.186H256.171V88.679ZM276.194 88.449H261.98V80.813H276.194V88.449ZM278.747 77.823H259.427V76.19H273.733C274.17 74.396 274.446 72.004 274.538 70.417H261.566V68.784H276.516C276.424 71.567 276.056 74.258 275.619 76.19H278.747V77.823ZM274.262 86.816V82.446H263.912V86.816H274.262ZM283.015 90.565H280.991V83.964H283.015V90.565ZM302.967 76.857H292.134V69.014H302.737V70.67H294.066V75.201H302.967V76.857ZM307.82 88.679H305.888V68.186H307.82V88.679ZM298.298 88.219H296.366V80.813H290.731V79.157H297.309C299.885 79.157 302.944 78.996 304.853 78.605V80.215C303.174 80.583 300.805 80.767 298.298 80.813V88.219ZM327.843 88.449H313.169V83.803H325.451V82.4H313.169V80.836H327.383V85.321H315.101V86.862H327.843V88.449ZM327.728 76.19H313.169V71.636H325.336V70.21H313.169V68.646H327.268V73.154H315.101V74.603H327.728V76.19ZM329.936 79.249H310.616V77.685H329.936V79.249ZM355.249 78.743H335.929V77.156H344.715V74.994H338.482V68.784H352.696V70.371H340.414V73.407H352.926V74.994H346.693V77.156H355.249V78.743ZM353.156 88.449H338.482V83.55H350.764V81.917H338.482V80.33H352.696V85.091H340.414V86.839H353.156V88.449ZM373.087 88.679H371.155V68.186H373.087V76.029H376.123V77.777H373.087V88.679ZM362.277 85.459C358.965 85.459 357.286 82.653 357.125 78.927C357.079 77.892 357.079 76.834 357.125 75.799C357.286 72.073 358.965 69.267 362.277 69.267C365.589 69.267 367.268 72.073 367.429 75.799C367.475 76.834 367.475 77.892 367.429 78.927C367.268 82.653 365.589 85.459 362.277 85.459ZM362.277 83.803C364.37 83.803 365.405 81.779 365.543 78.927C365.589 77.892 365.589 76.834 365.543 75.799C365.405 72.947 364.37 70.923 362.277 70.923C360.184 70.923 359.149 72.947 359.011 75.799C358.965 76.834 358.965 77.892 359.011 78.927C359.149 81.779 360.184 83.803 362.277 83.803ZM396.353 86.632H377.033V84.976H385.704V80.606H379.632V69.359H381.564V73.2H391.822V69.359H393.754V80.606H387.682V84.976H396.353V86.632ZM391.822 78.95V74.833H381.564V78.95H391.822ZM416.904 86.632H397.584V84.976H404.967V77.248H406.945V84.976H416.904V86.632ZM413.27 82.032H411.384C412.235 78.812 412.603 74.419 412.649 71.337H399.769V69.681H414.627C414.627 73.591 414.213 78.628 413.27 82.032ZM439.504 88.679H437.572V68.186H439.504V75.454H442.54V77.202H439.504V88.679ZM436.422 82.285V83.918C433.938 84.355 430.419 84.424 427.567 84.424H424.232V69.612H426.164V82.745H427.567C430.419 82.745 433.8 82.676 436.422 82.285ZM458.354 82.814V84.424C456.215 84.861 453.501 84.999 450.58 84.999H444.117V83.343H450.58C453.363 83.343 456.261 83.205 458.354 82.814ZM461.206 88.679H459.274V68.186H461.206V88.679ZM456.491 74.603C456.491 77.593 454.03 80.008 450.81 80.008C447.59 80.008 445.129 77.593 445.129 74.603C445.129 71.613 447.59 69.198 450.81 69.198C454.03 69.198 456.491 71.613 456.491 74.603ZM450.81 78.352C453.133 78.352 454.559 76.627 454.559 74.603C454.559 72.556 453.133 70.854 450.81 70.854C448.487 70.854 447.061 72.556 447.061 74.603C447.061 76.627 448.487 78.352 450.81 78.352ZM485.576 88.679H483.644V68.186H485.576V76.328H488.52V78.076H485.576V88.679ZM482.724 83.044V84.654C480.585 85.091 477.825 85.229 474.904 85.229H468.97V83.573H473.087V76.19H475.019V83.573C477.756 83.573 480.654 83.435 482.724 83.044ZM479.849 80.698H477.963C478.446 78.237 478.768 74.028 478.768 71.406H469.729V69.75H480.746C480.7 73.177 480.378 77.869 479.849 80.698ZM506.611 88.679H504.679V78.444H500.332V76.742H504.679V68.186H506.611V88.679ZM491.063 85.873L489.821 84.539C495.019 81.503 498.078 76.581 498.446 71.613H490.879V69.957H500.516C500.47 77.363 496.123 82.837 491.063 85.873ZM527.094 88.449H512.42V83.803H524.702V82.4H512.42V80.836H526.634V85.321H514.352V86.862H527.094V88.449ZM526.979 76.19H512.42V71.636H524.587V70.21H512.42V68.646H526.519V73.154H514.352V74.603H526.979V76.19ZM529.187 79.249H509.867V77.685H529.187V79.249ZM554.5 86.632H535.18V84.976H543.851V80.169H545.829V84.976H554.5V86.632ZM553.672 78.95L552.568 80.468C549.371 79.41 546.22 77.294 544.84 74.672C543.46 77.294 540.309 79.41 537.112 80.468L536.008 78.95C540.079 77.708 543.851 74.58 543.851 71.222V69.129H545.829V71.222C545.829 74.58 549.601 77.708 553.672 78.95ZM573.028 88.679H571.096V68.186H573.028V88.679ZM569.831 82.653V84.263C567.347 84.7 563.828 84.769 560.976 84.769H557.112V76.236H565.139V71.36H557.112V69.727H567.071V77.846H559.044V83.113H560.976C563.828 83.113 567.209 83.044 569.831 82.653ZM595.604 86.632H576.284V84.976H585.07V81.296H578.883V74.511H590.958V71.084H578.883V69.451H592.89V76.121H580.815V79.64H593.35V81.296H587.048V84.976H595.604V86.632ZM618.824 88.449H604.15V83.504H616.432V81.825H604.15V80.238H618.364V85.045H606.082V86.839H618.824V88.449ZM620.917 78.375H601.597V76.788H620.917V78.375ZM618.594 75.04H604.15V68.784H618.364V70.371H606.082V73.453H618.594V75.04ZM639.445 88.679H637.513V77.984H633.488C633.488 81.388 632.384 85.459 628.244 85.459C624.932 85.459 623.184 82.653 623.023 78.927C622.977 77.892 622.977 76.834 623.023 75.799C623.184 72.073 624.932 69.267 628.244 69.267C632.085 69.267 633.488 72.993 633.488 76.282H637.513V68.186H639.445V88.679ZM628.244 83.803C630.337 83.803 631.441 81.779 631.579 78.927C631.625 77.892 631.625 76.834 631.579 75.799C631.441 72.947 630.337 70.923 628.244 70.923C626.151 70.923 625.047 72.947 624.909 75.799C624.863 76.834 624.863 77.892 624.909 78.927C625.047 81.779 626.151 83.803 628.244 83.803ZM662.021 86.632H642.701V84.976H651.372V80.606H645.3V69.359H647.232V73.2H657.49V69.359H659.422V80.606H653.35V84.976H662.021V86.632ZM657.49 78.95V74.833H647.232V78.95H657.49ZM682.572 79.801H663.252V78.168H682.572V79.801ZM680.709 88.334H665.805V81.871H667.76V86.678H680.709V88.334ZM680.364 75.638H665.805V68.439H667.737V74.005H680.364V75.638ZM705.862 88.679H703.93V68.186H705.862V88.679ZM701.883 83.32L700.779 84.746C698.341 83.412 695.949 80.974 694.937 78.651C694.017 81.089 691.671 83.642 688.957 85.298L687.669 83.964C691.027 82.078 693.879 78.49 693.879 74.143V69.497H695.903V74.189C695.903 78.536 698.939 81.756 701.883 83.32ZM726.644 88.334H712.545V81.204H714.5V86.678H726.644V88.334ZM725.954 82.929H724.022V68.186H725.954V73.453H728.76V75.155H725.954V82.929ZM710.176 80.192L709.095 78.743C714.293 77.225 717.651 74.143 718.249 70.693H710.498V69.037H720.457C720.227 75.063 715.213 78.651 710.176 80.192ZM748.989 78.467H729.669V76.88H748.989V78.467ZM746.896 88.449H732.222V83.504H744.504V81.825H732.222V80.238H746.436V85.045H734.154V86.839H746.896V88.449ZM746.942 71.751C746.942 75.27 741.951 75.431 739.329 75.431C736.707 75.431 731.716 75.27 731.716 71.751C731.716 68.232 736.707 68.071 739.329 68.071C741.951 68.071 746.942 68.232 746.942 71.751ZM745.01 71.751C745.01 70.578 743.768 69.75 740.755 69.658C739.904 69.635 738.754 69.635 737.903 69.658C734.89 69.75 733.648 70.578 733.648 71.751C733.648 72.924 734.89 73.752 737.903 73.844C738.754 73.867 739.904 73.867 740.755 73.844C743.768 73.752 745.01 72.924 745.01 71.751ZM756.501 85.873L755.259 84.539C760.457 81.503 763.516 76.581 763.884 71.613H756.317V69.957H765.954C765.908 77.363 761.561 82.837 756.501 85.873ZM771.589 88.679H769.657V68.186H771.589V76.719H774.625V78.467H771.589V88.679ZM789.082 83.458L787.978 84.884C785.54 83.55 783.148 81.158 782.136 78.835C781.17 81.342 778.916 83.734 776.179 85.436L774.868 84.079C778.134 82.17 781.078 78.628 781.078 74.281V71.613H776.432V69.957H787.863V71.613H783.102V74.327C783.102 78.674 786.092 81.894 789.082 83.458ZM792.831 88.679H790.899V68.186H792.831V88.679ZM815.406 86.632H796.086V84.976H803.469V77.248H805.447V84.976H815.406V86.632ZM811.772 82.032H809.886C810.737 78.812 811.105 74.419 811.151 71.337H798.271V69.681H813.129C813.129 73.591 812.715 78.628 811.772 82.032ZM829.863 83.458L828.759 84.884C826.321 83.55 823.975 81.204 822.963 78.881C821.997 81.388 819.789 83.734 817.029 85.436L815.741 84.102C819.007 82.17 821.905 78.628 821.905 74.281V71.613H817.305V69.957H828.644V71.613H823.929V74.327C823.929 78.674 826.873 81.894 829.863 83.458ZM833.221 88.679H831.289V68.186H833.221V76.144H836.28V77.892H833.221V88.679ZM856.81 86.839V84.539H847.219V86.839H856.81ZM858.742 88.426H845.287V80.813H847.219V82.998H856.81V80.813H858.742V88.426ZM858.788 79.801H856.856V68.186H858.788V73.315H861.594V74.971H858.788V79.801ZM851.773 69.727H845.264V68.163H851.773V69.727ZM854.694 72.579H842.366V70.969H854.694V72.579ZM853.751 76.673C853.751 78.513 851.635 79.847 848.53 79.847C845.425 79.847 843.309 78.513 843.309 76.673C843.309 74.833 845.425 73.499 848.53 73.499C851.635 73.499 853.751 74.833 853.751 76.673ZM851.819 76.673C851.819 75.661 850.6 75.017 848.53 75.017C846.46 75.017 845.241 75.661 845.241 76.673C845.241 77.685 846.46 78.329 848.53 78.329C850.6 78.329 851.819 77.685 851.819 76.673ZM879.799 88.679H877.867V68.186H879.799V88.679ZM876.602 82.285V83.918C874.118 84.355 870.599 84.424 867.747 84.424H864.067V69.612H865.999V82.745H867.747C870.599 82.745 873.98 82.676 876.602 82.285ZM899.661 88.679H897.729V68.186H899.661V75.799H902.697V77.547H899.661V88.679ZM896.579 82.17V83.803C894.095 84.355 890.576 84.539 887.724 84.539H884.297V69.957H894.233V71.613H886.229V82.86H887.724C890.576 82.86 893.957 82.676 896.579 82.17ZM906.091 86.954C905.309 86.954 904.688 86.333 904.688 85.551C904.688 84.769 905.309 84.148 906.091 84.148C906.873 84.148 907.494 84.769 907.494 85.551C907.494 86.333 906.873 86.954 906.091 86.954ZM222.203 156.449H208.058V151.067H219.811V148.997H208.058V147.387H221.743V152.631H209.99V154.816H222.203V156.449ZM217.58 144.305L216.591 145.8C214.36 145.087 212.014 143.431 210.956 141.591C210.082 143.523 207.69 145.363 205.16 146.444L203.964 145.018C207.23 143.753 209.898 141.131 209.898 138.647H205.252V137.037H216.683V138.647H211.922C211.922 141.108 214.682 143.431 217.58 144.305ZM221.789 146.375H219.857V136.186H221.789V146.375ZM244.135 148.169H235.786V152.378H233.854V148.169H224.815V146.536H244.135V148.169ZM241.582 144.236H227.368V136.784H241.582V144.236ZM239.65 142.603V138.417H229.3V142.603H239.65ZM242.272 156.334H227.368V150.101H229.323V154.678H242.272V156.334ZM264.687 148.261H245.367V146.628H264.687V148.261ZM262.824 156.334H247.92V150.101H249.875V154.678H262.824V156.334ZM262.64 140.372C262.64 142.718 260.524 144.535 256.453 144.65C255.602 144.673 254.452 144.673 253.601 144.65C249.53 144.535 247.414 142.718 247.414 140.372C247.414 138.026 249.53 136.209 253.601 136.094C254.452 136.071 255.602 136.071 256.453 136.094C260.524 136.209 262.64 138.026 262.64 140.372ZM260.708 140.372C260.708 139.061 259.466 137.796 256.453 137.704C255.602 137.681 254.452 137.681 253.601 137.704C250.588 137.796 249.346 139.061 249.346 140.372C249.346 141.683 250.588 142.948 253.601 143.04C254.452 143.063 255.602 143.063 256.453 143.04C259.466 142.948 260.708 141.683 260.708 140.372ZM287.953 153.413C287.953 156.886 282.916 156.909 280.34 156.909C277.764 156.909 272.727 156.886 272.727 153.413C272.727 149.94 277.764 149.917 280.34 149.917C282.916 149.917 287.953 149.94 287.953 153.413ZM288.827 144.052L287.907 145.57C285.101 145.225 281.812 143.776 280.34 142.074C278.868 143.776 275.579 145.225 272.773 145.57L271.853 144.052C275.28 143.661 278.684 141.913 279.213 140.372H272.75V138.808H287.93V140.372H281.467C281.973 141.913 285.4 143.661 288.827 144.052ZM286.021 153.413C286.021 152.194 284.779 151.619 281.766 151.527C280.915 151.504 279.765 151.504 278.914 151.527C275.901 151.619 274.659 152.194 274.659 153.413C274.659 154.632 275.901 155.207 278.914 155.299C279.765 155.322 280.915 155.322 281.766 155.299C284.779 155.207 286.021 154.632 286.021 153.413ZM290 148.583H270.68V146.973H279.351V144.627H281.329V146.973H290V148.583ZM284.273 137.589H276.407V136.002H284.273V137.589ZM303.262 141.936C305.884 141.936 308 143.707 308 147.134V154.77H306.114V147.364C306.114 144.788 304.665 143.546 302.779 143.546H302.756C300.893 143.546 299.099 144.834 299.099 147.847V154.77H297.213V142.258H299.099V144.259C299.973 142.672 301.56 141.936 303.262 141.936ZM311.864 153.873L310.622 152.539C315.82 149.503 318.879 144.581 319.247 139.613H311.68V137.957H321.317C321.271 145.363 316.924 150.837 311.864 153.873ZM326.952 156.679H325.02V136.186H326.952V144.719H329.988V146.467H326.952V156.679ZM344.445 151.458L343.341 152.884C340.903 151.55 338.511 149.158 337.499 146.835C336.533 149.342 334.279 151.734 331.542 153.436L330.231 152.079C333.497 150.17 336.441 146.628 336.441 142.281V139.613H331.795V137.957H343.226V139.613H338.465V142.327C338.465 146.674 341.455 149.894 344.445 151.458ZM348.194 156.679H346.262V136.186H348.194V156.679ZM370.77 154.632H351.45V152.976H360.236V149.296H354.049V142.511H366.124V139.084H354.049V137.451H368.056V144.121H355.981V147.64H368.516V149.296H362.214V152.976H370.77V154.632ZM395.002 143.316L394.013 144.811C391 144.236 387.803 142.672 386.423 140.648C385.043 142.672 381.846 144.236 378.833 144.811L377.844 143.316C381.547 142.626 385.066 140.51 385.342 138.417H379.132V136.784H393.714V138.417H387.504C387.78 140.51 391.276 142.626 395.002 143.316ZM396.083 148.169H387.734V152.378H385.802V148.169H376.763V146.536H396.083V148.169ZM394.22 156.334H379.316V150.101H381.271V154.678H394.22V156.334ZM414.611 156.679H412.679V136.186H414.611V156.679ZM408.654 152.677H398.649V137.727H400.581V143.477H406.722V137.727H408.654V152.677ZM406.722 151.021V145.11H400.581V151.021H406.722ZM432.771 151.044V152.654C430.632 153.091 427.849 153.229 424.928 153.229H418.534V151.573H424.56V147.065H419.937V137.75H430.54V139.406H421.869V145.409H431V147.065H426.538V151.573C428.815 151.527 431.069 151.366 432.771 151.044ZM435.623 156.679H433.691V136.186H435.623V156.679ZM455.714 156.679H453.782V145.984H449.757C449.757 149.388 448.653 153.459 444.513 153.459C441.201 153.459 439.453 150.653 439.292 146.927C439.246 145.892 439.246 144.834 439.292 143.799C439.453 140.073 441.201 137.267 444.513 137.267C448.354 137.267 449.757 140.993 449.757 144.282H453.782V136.186H455.714V156.679ZM444.513 151.803C446.606 151.803 447.71 149.779 447.848 146.927C447.894 145.892 447.894 144.834 447.848 143.799C447.71 140.947 446.606 138.923 444.513 138.923C442.42 138.923 441.316 140.947 441.178 143.799C441.132 144.834 441.132 145.892 441.178 146.927C441.316 149.779 442.42 151.803 444.513 151.803ZM481.258 147.617H479.326V136.186H481.258V147.617ZM483.029 155.437L481.925 156.725C480.108 155.736 478.452 154.126 477.877 152.608C477.164 154.264 475.6 155.828 474.082 156.725C472.564 155.828 471 154.264 470.287 152.608C469.712 154.126 468.056 155.736 466.239 156.725L465.135 155.437C467.366 154.356 469.344 152.056 469.344 149.894V148.629H471.23V149.894C471.23 151.642 472.794 153.896 474.082 154.747C475.37 153.896 476.934 151.642 476.934 149.894V148.629H478.82V149.894C478.82 152.056 480.798 154.356 483.029 155.437ZM475.692 141.683C475.692 144.512 473.392 146.835 470.057 146.835C466.722 146.835 464.422 144.512 464.422 141.683C464.422 138.854 466.722 136.531 470.057 136.531C473.392 136.531 475.692 138.854 475.692 141.683ZM473.76 141.683C473.76 139.751 472.38 138.187 470.057 138.187C467.734 138.187 466.354 139.751 466.354 141.683C466.354 143.569 467.734 145.179 470.057 145.179C472.38 145.179 473.76 143.569 473.76 141.683ZM499.119 154.816V152.355H488.769V154.816H499.119ZM501.051 156.426H486.837V148.468H488.769V150.791H499.119V148.468H501.051V156.426ZM503.604 146.927H484.284V145.317H503.604V146.927ZM502.523 142.35L501.534 143.845C498.567 143.27 495.324 141.66 493.944 139.636C492.564 141.66 489.321 143.27 486.354 143.845L485.365 142.35C489.183 141.568 492.955 139.406 492.955 137.152V136.324H494.933V137.152C494.933 139.406 498.705 141.568 502.523 142.35ZM522.131 156.679H520.199V136.186H522.131V156.679ZM518.934 150.285V151.918C516.45 152.355 512.931 152.424 510.079 152.424H506.399V137.612H508.331V150.745H510.079C512.931 150.745 516.312 150.676 518.934 150.285ZM541.993 156.679H540.061V136.186H541.993V143.799H545.029V145.547H541.993V156.679ZM538.911 150.17V151.803C536.427 152.355 532.908 152.539 530.056 152.539H526.629V137.957H536.565V139.613H528.561V150.86H530.056C532.908 150.86 536.289 150.676 538.911 150.17ZM548.423 154.954C547.641 154.954 547.02 154.333 547.02 153.551C547.02 152.769 547.641 152.148 548.423 152.148C549.205 152.148 549.826 152.769 549.826 153.551C549.826 154.333 549.205 154.954 548.423 154.954ZM570.746 147.157L569.872 148.606C567.595 148.031 565.364 146.72 564.352 145.133C563.455 146.858 560.948 148.376 558.625 149.181L557.544 147.824C560.58 146.858 563.317 144.811 563.317 142.35V142.143H558.694V140.51H569.803V142.143H565.295V142.327C565.295 144.788 567.94 146.421 570.746 147.157ZM574.633 156.679H572.701V136.186H574.633V156.679ZM571.781 151.274V152.884C569.642 153.321 566.928 153.459 564.007 153.459H557.544V151.803H563.363V148.33H565.341V151.803C567.687 151.757 570.01 151.619 571.781 151.274ZM567.273 138.739H561.201V137.106H567.273V138.739ZM596.749 154.632H577.429V152.976H586.1V148.169H588.078V152.976H596.749V154.632ZM595.921 146.95L594.817 148.468C591.62 147.41 588.469 145.294 587.089 142.672C585.709 145.294 582.558 147.41 579.361 148.468L578.257 146.95C582.328 145.708 586.1 142.58 586.1 139.222V137.129H588.078V139.222C588.078 142.58 591.85 145.708 595.921 146.95ZM610.011 141.936C612.633 141.936 614.749 143.707 614.749 147.134V154.77H612.863V147.364C612.863 144.788 611.414 143.546 609.528 143.546H609.505C607.642 143.546 605.848 144.834 605.848 147.847V154.77H603.962V142.258H605.848V144.259C606.722 142.672 608.309 141.936 610.011 141.936ZM636.415 148.629H628.066V152.608H626.134V148.629H617.095V146.996H636.415V148.629ZM634.552 156.334H619.648V150.331H621.603V154.678H634.552V156.334ZM633.862 144.926H619.648V136.324H621.58V139.153H631.93V136.324H633.862V144.926ZM631.93 143.293V140.717H621.58V143.293H631.93ZM651.7 155.828H649.814V146.145H647.238C647.238 149.066 646.479 153.436 642.753 153.436C639.786 153.436 638.452 150.63 638.291 146.904C638.245 145.869 638.245 144.949 638.291 143.914C638.452 140.188 639.786 137.382 642.753 137.382C646.364 137.382 647.238 141.568 647.238 144.443H649.814V136.416H651.7V155.828ZM642.753 151.78C644.501 151.78 645.237 149.756 645.375 146.904C645.421 145.869 645.421 144.949 645.375 143.914C645.237 141.062 644.501 139.038 642.753 139.038C641.005 139.038 640.269 141.062 640.131 143.914C640.085 144.949 640.085 145.869 640.131 146.904C640.269 149.756 641.005 151.78 642.753 151.78ZM655.587 156.679H653.678V136.186H655.587V156.679ZM671.815 151.343L670.734 152.746C668.25 151.366 666.019 149.066 664.961 146.743C663.995 149.25 661.741 151.596 659.027 153.298L657.739 151.964C661.051 150.078 663.903 146.674 663.903 142.143V137.497H665.927V142.189C665.927 146.536 668.848 149.756 671.815 151.343ZM675.725 156.679H673.793V144.443H669.354V142.741H673.793V136.186H675.725V156.679ZM697.381 147.157L696.507 148.606C694.23 148.031 691.999 146.72 690.987 145.133C690.09 146.858 687.583 148.376 685.26 149.181L684.179 147.824C687.215 146.858 689.952 144.811 689.952 142.35V142.143H685.329V140.51H696.438V142.143H691.93V142.327C691.93 144.788 694.575 146.421 697.381 147.157ZM701.268 156.679H699.336V136.186H701.268V156.679ZM698.416 151.274V152.884C696.277 153.321 693.563 153.459 690.642 153.459H684.179V151.803H689.998V148.33H691.976V151.803C694.322 151.757 696.645 151.619 698.416 151.274ZM693.908 138.739H687.836V137.106H693.908V138.739ZM721.889 156.679H719.98V145.593H717.312V155.713H715.426V136.416H717.312V143.799H719.98V136.186H721.889V156.679ZM714.368 150.538V152.194C712.551 152.493 710.113 152.585 708.342 152.585H705.444V138.049H713.034V139.705H707.284V150.906H708.342C710.09 150.906 712.505 150.86 714.368 150.538ZM736.645 141.936C739.267 141.936 741.383 143.707 741.383 147.134V154.77H739.497V147.364C739.497 144.788 738.048 143.546 736.162 143.546H736.139C734.276 143.546 732.482 144.834 732.482 147.847V154.77H730.596V142.258H732.482V144.259C733.356 142.672 734.943 141.936 736.645 141.936ZM763.05 148.629H754.701V152.608H752.769V148.629H743.73V146.996H763.05V148.629ZM761.187 156.334H746.283V150.331H748.238V154.678H761.187V156.334ZM760.497 144.926H746.283V136.324H748.215V139.153H758.565V136.324H760.497V144.926ZM758.565 143.293V140.717H748.215V143.293H758.565ZM788.363 154.632H769.043V152.976H777.714V148.169H779.692V152.976H788.363V154.632ZM787.535 146.95L786.431 148.468C783.234 147.41 780.083 145.294 778.703 142.672C777.323 145.294 774.172 147.41 770.975 148.468L769.871 146.95C773.942 145.708 777.714 142.58 777.714 139.222V137.129H779.692V139.222C779.692 142.58 783.464 145.708 787.535 146.95ZM808.915 154.632H789.595V152.976H794.08V148.951H795.966V152.976H802.544V148.951H804.43V152.976H808.915V154.632ZM806.799 142.534C806.799 145.662 804.2 147.916 800.474 148.169C799.692 148.215 798.818 148.215 798.036 148.169C794.241 147.916 791.711 145.662 791.711 142.534C791.711 139.406 794.241 137.152 798.036 136.899C798.818 136.853 799.692 136.853 800.474 136.899C804.2 137.152 806.799 139.406 806.799 142.534ZM804.913 142.534C804.913 140.51 803.257 138.739 800.474 138.555C799.692 138.509 798.818 138.509 798.036 138.555C795.253 138.739 793.597 140.51 793.597 142.534C793.597 144.558 795.253 146.329 798.036 146.513C798.818 146.559 799.692 146.559 800.474 146.513C803.257 146.329 804.913 144.558 804.913 142.534ZM827.857 156.426H813.942V148.675H815.874V150.929H825.925V148.675H827.857V156.426ZM825.051 144.949V146.513C822.912 146.881 819.945 147.019 817.024 147.019H810.837V145.409H816.932V143.132H812.447V136.876H822.82V138.486H814.379V141.522H823.28V143.132H818.91V145.409C821.141 145.363 823.372 145.202 825.051 144.949ZM825.925 154.816V152.493H815.874V154.816H825.925ZM827.903 147.755H825.971V136.186H827.903V147.755ZM847.995 156.679H846.063V136.186H847.995V156.679ZM844.798 150.285V151.918C842.314 152.355 838.795 152.424 835.943 152.424H832.263V137.612H834.195V150.745H835.943C838.795 150.745 842.176 150.676 844.798 150.285ZM867.856 156.679H865.924V136.186H867.856V143.799H870.892V145.547H867.856V156.679ZM864.774 150.17V151.803C862.29 152.355 858.771 152.539 855.919 152.539H852.492V137.957H862.428V139.613H854.424V150.86H855.919C858.771 150.86 862.152 150.676 864.774 150.17ZM874.286 154.954C873.504 154.954 872.883 154.333 872.883 153.551C872.883 152.769 873.504 152.148 874.286 152.148C875.068 152.148 875.689 152.769 875.689 153.551C875.689 154.333 875.068 154.954 874.286 154.954ZM313.284 185.458L312.18 186.884C309.742 185.55 307.396 183.204 306.384 180.881C305.418 183.388 303.21 185.734 300.45 187.436L299.162 186.102C302.428 184.17 305.326 180.628 305.326 176.281V173.613H300.726V171.957H312.065V173.613H307.35V176.327C307.35 180.674 310.294 183.894 313.284 185.458ZM316.642 190.679H314.71V170.186H316.642V178.144H319.701V179.892H316.642V190.679ZM331.858 185.435L330.754 186.769C328.707 185.274 327.005 183.158 326.2 180.904C325.487 183.296 323.624 185.596 321.324 187.413L320.013 186.194C322.934 184.17 325.188 180.398 325.188 176.281V171.589H327.12V176.281C327.12 180.398 329.397 183.756 331.858 185.435ZM334.894 189.828H333.008V178.696H329.535V176.994H333.008V170.416H334.894V189.828ZM338.689 190.679H336.78V170.186H338.689V190.679ZM353.077 182.859C353.077 185.619 350.984 187.965 347.879 187.965C344.774 187.965 342.681 185.619 342.681 182.859C342.681 180.099 344.774 177.753 347.879 177.753C350.984 177.753 353.077 180.099 353.077 182.859ZM358.643 190.679H356.711V170.186H358.643V190.679ZM354.135 176.327H341.623V174.671H354.135V176.327ZM351.053 172.785H344.705V171.129H351.053V172.785ZM347.879 186.355C349.972 186.355 351.145 184.814 351.145 182.859C351.145 180.904 349.972 179.363 347.879 179.363C345.786 179.363 344.613 180.904 344.613 182.859C344.613 184.814 345.786 186.355 347.879 186.355ZM381.334 188.793V185.987H371.743V188.793H381.334ZM383.266 190.426H369.811V181.663H371.743V184.4H381.334V181.663H383.266V190.426ZM383.312 180.651H381.38V170.186H383.312V174.004H386.118V175.66H383.312V180.651ZM380.161 177.362V178.949C377.838 179.409 374.572 179.547 371.651 179.547H367.718V171.037H377.769V172.647H369.65V177.914H371.651C374.503 177.914 377.7 177.776 380.161 177.362ZM404.554 185.044H402.622V178.995H398.275V181.433H388.408V170.807H390.34V174.51H396.343V170.807H398.275V172.992H402.622V170.186H404.554V185.044ZM405.014 190.334H390.915V183.434H392.87V188.678H405.014V190.334ZM396.343 179.8V176.12H390.34V179.8H396.343ZM402.622 177.362V174.625H398.275V177.362H402.622ZM418.297 176.281H407.694V174.625H418.297V176.281ZM415.951 172.992H410.201V171.336H415.951V172.992ZM413.099 187.482C410.546 187.482 408.499 185.366 408.499 182.56C408.499 179.754 410.546 177.638 413.099 177.638C415.652 177.638 417.699 179.754 417.699 182.56C417.699 185.366 415.652 187.482 413.099 187.482ZM413.099 185.872C414.778 185.872 415.813 184.492 415.813 182.56C415.813 180.628 414.778 179.248 413.099 179.248C411.42 179.248 410.385 180.628 410.385 182.56C410.385 184.492 411.42 185.872 413.099 185.872ZM425.634 190.679H423.725V180.858H421.287V189.828H419.401V170.416H421.287V179.064H423.725V170.186H425.634V190.679ZM446.6 178.328L445.542 179.8C442.276 179.202 439.171 177.293 437.791 175.177C436.411 177.293 433.306 179.202 430.04 179.8L428.982 178.328C432.938 177.592 436.503 175.039 436.779 172.601H430.408V170.945H445.174V172.601H438.803C439.079 175.039 442.621 177.592 446.6 178.328ZM447.451 183.572H438.757V190.679H436.825V183.572H428.131V181.916H447.451V183.572ZM466.623 190.449H452.478V185.067H464.231V182.997H452.478V181.387H466.163V186.631H454.41V188.816H466.623V190.449ZM466.209 180.375H464.277V170.186H466.209V180.375ZM461.77 178.213L460.781 179.708C458.55 178.995 456.204 177.293 455.146 175.407C454.272 177.339 451.88 179.225 449.35 180.352L448.154 178.926C451.374 177.615 454.088 175.039 454.088 172.279V170.577H456.112V172.256C456.112 174.947 458.872 177.339 461.77 178.213ZM488.555 183.572H479.861V190.679H477.929V183.572H469.235V181.916H488.555V183.572ZM487.773 178.259L486.738 179.8C483.61 179.11 480.229 177.132 478.895 174.74C477.561 177.132 474.18 179.11 471.052 179.8L470.017 178.259C474.272 177.362 477.906 174.602 477.906 171.704V170.485H479.884V171.704C479.884 174.602 483.518 177.362 487.773 178.259ZM509.107 182.767H489.787V181.157H498.573V179.156H492.34V174.073H504.507V172.256H492.34V170.646H506.439V175.637H494.272V177.523H506.899V179.156H500.551V181.157H509.107V182.767ZM506.554 190.794H504.622V186.056H492.018V184.423H506.554V190.794ZM528.739 184.17V185.803C526.255 186.355 522.851 186.539 519.999 186.539H516.572V171.957H526.508V173.613H518.504V184.86H519.999C522.851 184.86 526.117 184.676 528.739 184.17ZM532.396 190.679H530.464V179.639H524.553V177.937H530.464V170.186H532.396V190.679ZM551.66 185.435L550.556 186.769C548.509 185.274 546.807 183.158 546.002 180.904C545.289 183.296 543.426 185.596 541.126 187.413L539.815 186.194C542.736 184.17 544.99 180.398 544.99 176.281V171.589H546.922V176.281C546.922 180.398 549.199 183.756 551.66 185.435ZM554.696 189.828H552.81V178.696H549.337V176.994H552.81V170.416H554.696V189.828ZM558.491 190.679H556.582V170.186H558.491V190.679ZM572.212 185.435L571.108 186.769C569.061 185.274 567.359 183.158 566.554 180.904C565.841 183.296 563.978 185.596 561.678 187.413L560.367 186.194C563.288 184.17 565.542 180.398 565.542 176.281V171.589H567.474V176.281C567.474 180.398 569.751 183.756 572.212 185.435ZM575.248 189.828H573.362V178.696H569.889V176.994H573.362V170.416H575.248V189.828ZM579.043 190.679H577.134V170.186H579.043V190.679ZM591.338 171.727H584.829V170.163H591.338V171.727ZM594.259 174.855H581.931V173.245H594.259V174.855ZM599.043 190.334H584.944V184.469H586.899V188.678H599.043V190.334ZM598.353 185.504H596.421V170.186H598.353V176.396H601.159V178.098H598.353V185.504ZM593.316 179.478C593.316 181.502 591.2 183.089 588.095 183.089C584.99 183.089 582.874 181.502 582.874 179.478C582.874 177.454 584.99 175.867 588.095 175.867C591.2 175.867 593.316 177.454 593.316 179.478ZM591.384 179.478C591.384 178.236 590.165 177.385 588.095 177.385C586.025 177.385 584.806 178.236 584.806 179.478C584.806 180.72 586.025 181.571 588.095 181.571C590.165 181.571 591.384 180.72 591.384 179.478ZM626.15 182.629H617.801V186.608H615.869V182.629H606.83V180.996H626.15V182.629ZM624.287 190.334H609.383V184.331H611.338V188.678H624.287V190.334ZM623.597 178.926H609.383V170.324H611.315V173.153H621.665V170.324H623.597V178.926ZM621.665 177.293V174.717H611.315V177.293H621.665ZM640.377 179.524L639.365 180.996C637.157 180.145 634.857 178.351 633.799 176.465C632.925 178.351 630.625 180.467 628.072 181.64L626.853 180.237C630.119 178.811 632.741 176.051 632.741 172.877V170.577H634.765V172.854C634.765 176.097 637.479 178.397 640.377 179.524ZM644.862 190.794H642.93V184.837H630.717V183.181H644.862V190.794ZM644.908 182.169H642.976V175.614H638.261V173.958H642.976V170.186H644.908V182.169ZM665.23 190.679H663.298V170.186H665.23V190.679ZM654.029 187.459C650.717 187.459 648.969 184.653 648.808 180.927C648.762 179.892 648.762 178.834 648.808 177.799C648.969 174.073 650.717 171.267 654.029 171.267C657.341 171.267 659.089 174.073 659.25 177.799C659.296 178.834 659.296 179.892 659.25 180.927C659.089 184.653 657.341 187.459 654.029 187.459ZM654.029 185.803C656.122 185.803 657.226 183.779 657.364 180.927C657.41 179.892 657.41 178.834 657.364 177.799C657.226 174.947 656.122 172.923 654.029 172.923C651.936 172.923 650.832 174.947 650.694 177.799C650.648 178.834 650.648 179.892 650.694 180.927C650.832 183.779 651.936 185.803 654.029 185.803ZM674.765 187.873L673.523 186.539C678.721 183.503 681.78 178.581 682.148 173.613H674.581V171.957H684.218C684.172 179.363 679.825 184.837 674.765 187.873ZM689.853 190.679H687.921V170.186H689.853V178.719H692.889V180.467H689.853V190.679ZM710.911 176.902H696.352V170.439H698.284V175.269H710.911V176.902ZM713.119 180.881H693.799V179.248H713.119V180.881ZM711.072 186.999C711.072 190.702 706.219 190.909 703.459 190.909C700.699 190.909 695.846 190.702 695.846 186.999C695.846 183.296 700.699 183.089 703.459 183.089C706.219 183.089 711.072 183.296 711.072 186.999ZM709.14 186.999C709.14 185.688 707.898 184.814 704.885 184.722C704.034 184.699 702.884 184.699 702.033 184.722C699.02 184.814 697.778 185.688 697.778 186.999C697.778 188.31 699.02 189.184 702.033 189.276C702.884 189.299 704.034 189.299 704.885 189.276C707.898 189.184 709.14 188.31 709.14 186.999ZM729.209 188.839V186.539H719.618V188.839H729.209ZM731.141 190.426H717.686V182.813H719.618V184.998H729.209V182.813H731.141V190.426ZM731.187 181.801H729.255V170.186H731.187V175.315H733.993V176.971H731.187V181.801ZM724.172 171.727H717.663V170.163H724.172V171.727ZM727.093 174.579H714.765V172.969H727.093V174.579ZM726.15 178.673C726.15 180.513 724.034 181.847 720.929 181.847C717.824 181.847 715.708 180.513 715.708 178.673C715.708 176.833 717.824 175.499 720.929 175.499C724.034 175.499 726.15 176.833 726.15 178.673ZM724.218 178.673C724.218 177.661 722.999 177.017 720.929 177.017C718.859 177.017 717.64 177.661 717.64 178.673C717.64 179.685 718.859 180.329 720.929 180.329C722.999 180.329 724.218 179.685 724.218 178.673ZM752.199 190.679H750.267V170.186H752.199V190.679ZM749.002 184.285V185.918C746.518 186.355 742.999 186.424 740.147 186.424H736.467V171.612H738.399V184.745H740.147C742.999 184.745 746.38 184.676 749.002 184.285ZM772.06 190.679H770.128V170.186H772.06V177.799H775.096V179.547H772.06V190.679ZM768.978 184.17V185.803C766.494 186.355 762.975 186.539 760.123 186.539H756.696V171.957H766.632V173.613H758.628V184.86H760.123C762.975 184.86 766.356 184.676 768.978 184.17ZM778.49 188.954C777.708 188.954 777.087 188.333 777.087 187.551C777.087 186.769 777.708 186.148 778.49 186.148C779.272 186.148 779.893 186.769 779.893 187.551C779.893 188.333 779.272 188.954 778.49 188.954ZM345.751 224.334H331.652V217.204H333.607V222.678H345.751V224.334ZM345.061 218.929H343.129V204.186H345.061V208.763H347.867V210.465H345.061V218.929ZM341.91 212.466V214.099C339.587 214.559 336.321 214.697 333.4 214.697H329.467V205.037H339.518V206.693H331.399V213.018H333.4C336.252 213.018 339.449 212.88 341.91 212.466ZM351.813 226.565H349.789V219.964H351.813V226.565ZM376.158 224.679H374.226V204.186H376.158V224.679ZM364.957 221.459C361.645 221.459 359.897 218.653 359.736 214.927C359.69 213.892 359.69 212.834 359.736 211.799C359.897 208.073 361.645 205.267 364.957 205.267C368.269 205.267 370.017 208.073 370.178 211.799C370.224 212.834 370.224 213.892 370.178 214.927C370.017 218.653 368.269 221.459 364.957 221.459ZM364.957 219.803C367.05 219.803 368.154 217.779 368.292 214.927C368.338 213.892 368.338 212.834 368.292 211.799C368.154 208.947 367.05 206.923 364.957 206.923C362.864 206.923 361.76 208.947 361.622 211.799C361.576 212.834 361.576 213.892 361.622 214.927C361.76 217.779 362.864 219.803 364.957 219.803ZM393.466 223.828H391.58V214.145H389.004C389.004 217.066 388.245 221.436 384.519 221.436C381.552 221.436 380.218 218.63 380.057 214.904C380.011 213.869 380.011 212.949 380.057 211.914C380.218 208.188 381.552 205.382 384.519 205.382C388.13 205.382 389.004 209.568 389.004 212.443H391.58V204.416H393.466V223.828ZM384.519 219.78C386.267 219.78 387.003 217.756 387.141 214.904C387.187 213.869 387.187 212.949 387.141 211.914C387.003 209.062 386.267 207.038 384.519 207.038C382.771 207.038 382.035 209.062 381.897 211.914C381.851 212.949 381.851 213.869 381.897 214.904C382.035 217.756 382.771 219.78 384.519 219.78ZM397.353 224.679H395.444V204.186H397.353V224.679ZM422.253 214.605H420.321V209.844H416.365C416.02 212.19 413.904 214.007 410.96 214.007C407.74 214.007 405.509 211.845 405.509 209.2C405.509 206.555 407.74 204.393 410.96 204.393C413.766 204.393 415.836 206.049 416.296 208.234H420.321V204.186H422.253V214.605ZM416.572 222.517V224.081C415.008 224.334 412.8 224.449 411.029 224.449H407.832V219.182H413.007V217.204H407.832V215.617H414.847V220.723H409.718V222.839H411.029C412.777 222.839 414.916 222.77 416.572 222.517ZM414.479 209.2C414.479 207.452 413.145 206.003 410.96 206.003C408.775 206.003 407.441 207.452 407.441 209.2C407.441 210.948 408.775 212.397 410.96 212.397C413.145 212.397 414.479 210.948 414.479 209.2ZM422.207 224.794H420.321V217.25H415.767V215.617H422.207V224.794ZM432.708 218.929V207.705H428.407V218.929H432.708ZM434.548 220.585H426.567V206.049H434.548V220.585ZM443.104 224.679H441.195V213.708H438.642V223.828H436.756V204.416H438.642V211.914H441.195V204.186H443.104V224.679ZM463.126 224.679H461.194V204.186H463.126V224.679ZM451.925 221.459C448.613 221.459 446.865 218.653 446.704 214.927C446.658 213.892 446.658 212.834 446.704 211.799C446.865 208.073 448.613 205.267 451.925 205.267C455.237 205.267 456.985 208.073 457.146 211.799C457.192 212.834 457.192 213.892 457.146 214.927C456.985 218.653 455.237 221.459 451.925 221.459ZM451.925 219.803C454.018 219.803 455.122 217.779 455.26 214.927C455.306 213.892 455.306 212.834 455.26 211.799C455.122 208.947 454.018 206.923 451.925 206.923C449.832 206.923 448.728 208.947 448.59 211.799C448.544 212.834 448.544 213.892 448.59 214.927C448.728 217.779 449.832 219.803 451.925 219.803ZM479.929 219.458L478.825 220.884C476.387 219.55 473.995 217.158 472.983 214.835C472.017 217.342 469.763 219.734 467.026 221.436L465.715 220.079C468.981 218.17 471.925 214.628 471.925 210.281V207.613H467.279V205.957H478.71V207.613H473.949V210.327C473.949 214.674 476.939 217.894 479.929 219.458ZM483.678 224.679H481.746V204.186H483.678V224.679ZM506.254 215.801H486.934V214.168H506.254V215.801ZM504.391 224.334H489.487V217.871H491.442V222.678H504.391V224.334ZM504.046 211.638H489.487V204.439H491.419V210.005H504.046V211.638ZM528.853 224.679H526.921V204.186H528.853V212.029H531.889V213.777H528.853V224.679ZM521.286 218.883V207.613H515.329V218.883H521.286ZM523.218 220.539H513.397V205.957H523.218V220.539ZM550.095 224.679H548.163V204.186H550.095V224.679ZM546.116 219.32L545.012 220.746C542.574 219.412 540.182 216.974 539.17 214.651C538.25 217.089 535.904 219.642 533.19 221.298L531.902 219.964C535.26 218.078 538.112 214.49 538.112 210.143V205.497H540.136V210.189C540.136 214.536 543.172 217.756 546.116 219.32ZM572.671 222.632H553.351V220.976H560.734V213.248H562.712V220.976H572.671V222.632ZM569.037 218.032H567.151C568.002 214.812 568.37 210.419 568.416 207.337H555.536V205.681H570.394C570.394 209.591 569.98 214.628 569.037 218.032ZM592.602 213.432V215.019C590.302 215.364 587.013 215.479 584.092 215.479H579.239V213.846H581.769L581.654 206.647H579.791V205.037H591.406V206.647H589.313L589.175 213.731C590.394 213.662 591.567 213.57 592.602 213.432ZM596.19 219.159H594.258V212.535H591.153V210.925H594.258V209.131H591.153V207.521H594.258V204.186H596.19V219.159ZM596.65 224.334H582.551V217.434H584.506V222.678H596.65V224.334ZM587.289 213.823L587.404 206.647H583.563L583.678 213.846H584.092C585.127 213.846 586.208 213.846 587.289 213.823ZM611.13 216.859C611.13 219.619 609.037 221.965 605.932 221.965C602.827 221.965 600.734 219.619 600.734 216.859C600.734 214.099 602.827 211.753 605.932 211.753C609.037 211.753 611.13 214.099 611.13 216.859ZM616.696 224.679H614.764V204.186H616.696V224.679ZM612.188 210.327H599.676V208.671H612.188V210.327ZM609.106 206.785H602.758V205.129H609.106V206.785ZM605.932 220.355C608.025 220.355 609.198 218.814 609.198 216.859C609.198 214.904 608.025 213.363 605.932 213.363C603.839 213.363 602.666 214.904 602.666 216.859C602.666 218.814 603.839 220.355 605.932 220.355ZM639.388 222.793V219.987H629.797V222.793H639.388ZM641.32 224.426H627.865V215.663H629.797V218.4H639.388V215.663H641.32V224.426ZM641.366 214.651H639.434V204.186H641.366V208.004H644.172V209.66H641.366V214.651ZM638.215 211.362V212.949C635.892 213.409 632.626 213.547 629.705 213.547H625.772V205.037H635.823V206.647H627.704V211.914H629.705C632.557 211.914 635.754 211.776 638.215 211.362ZM662.607 219.044H660.675V212.995H656.328V215.433H646.461V204.807H648.393V208.51H654.396V204.807H656.328V206.992H660.675V204.186H662.607V219.044ZM663.067 224.334H648.968V217.434H650.923V222.678H663.067V224.334ZM654.396 213.8V210.12H648.393V213.8H654.396ZM660.675 211.362V208.625H656.328V211.362H660.675ZM676.351 210.281H665.748V208.625H676.351V210.281ZM674.005 206.992H668.255V205.336H674.005V206.992ZM671.153 221.482C668.6 221.482 666.553 219.366 666.553 216.56C666.553 213.754 668.6 211.638 671.153 211.638C673.706 211.638 675.753 213.754 675.753 216.56C675.753 219.366 673.706 221.482 671.153 221.482ZM671.153 219.872C672.832 219.872 673.867 218.492 673.867 216.56C673.867 214.628 672.832 213.248 671.153 213.248C669.474 213.248 668.439 214.628 668.439 216.56C668.439 218.492 669.474 219.872 671.153 219.872ZM683.688 224.679H681.779V214.858H679.341V223.828H677.455V204.416H679.341V213.064H681.779V204.186H683.688V224.679ZM704.654 212.328L703.596 213.8C700.33 213.202 697.225 211.293 695.845 209.177C694.465 211.293 691.36 213.202 688.094 213.8L687.036 212.328C690.992 211.592 694.557 209.039 694.833 206.601H688.462V204.945H703.228V206.601H696.857C697.133 209.039 700.675 211.592 704.654 212.328ZM705.505 217.572H696.811V224.679H694.879V217.572H686.185V215.916H705.505V217.572ZM717.984 219.435L716.88 220.769C714.833 219.274 713.131 217.158 712.326 214.904C711.613 217.296 709.75 219.596 707.45 221.413L706.139 220.194C709.06 218.17 711.314 214.398 711.314 210.281V205.589H713.246V210.281C713.246 214.398 715.523 217.756 717.984 219.435ZM721.02 223.828H719.134V212.696H715.661V210.994H719.134V204.416H721.02V223.828ZM724.815 224.679H722.906V204.186H724.815V224.679ZM746.608 222.632H727.288V220.976H731.773V216.951H733.659V220.976H740.237V216.951H742.123V220.976H746.608V222.632ZM744.492 210.534C744.492 213.662 741.893 215.916 738.167 216.169C737.385 216.215 736.511 216.215 735.729 216.169C731.934 215.916 729.404 213.662 729.404 210.534C729.404 207.406 731.934 205.152 735.729 204.899C736.511 204.853 737.385 204.853 738.167 204.899C741.893 205.152 744.492 207.406 744.492 210.534ZM742.606 210.534C742.606 208.51 740.95 206.739 738.167 206.555C737.385 206.509 736.511 206.509 735.729 206.555C732.946 206.739 731.29 208.51 731.29 210.534C731.29 212.558 732.946 214.329 735.729 214.513C736.511 214.559 737.385 214.559 738.167 214.513C740.95 214.329 742.606 212.558 742.606 210.534ZM750.324 222.954C749.542 222.954 748.921 222.333 748.921 221.551C748.921 220.769 749.542 220.148 750.324 220.148C751.106 220.148 751.727 220.769 751.727 221.551C751.727 222.333 751.106 222.954 750.324 222.954ZM286.845 290.356C286.845 291.966 285.281 292.817 281.785 292.886C281.049 292.909 279.025 292.909 278.289 292.886C274.793 292.817 273.229 291.966 273.229 290.356C273.229 288.723 274.793 287.872 278.289 287.803C279.025 287.78 281.049 287.78 281.785 287.803C285.281 287.872 286.845 288.723 286.845 290.356ZM288.731 277.867L287.834 279.27C285.005 278.971 281.785 277.683 280.152 275.843C278.519 277.683 275.299 278.971 272.47 279.27L271.573 277.867C275.092 277.407 278.45 275.912 279.002 274.325H272.861V272.784H287.443V274.325H281.279C281.854 275.912 285.212 277.407 288.731 277.867ZM289.697 281.731H270.377V280.167H279.048V277.982H281.026V280.167H289.697V281.731ZM288.386 286.906H271.688V285.365H288.386V286.906ZM284.913 290.356C284.913 289.689 284.2 289.39 281.785 289.321C281.049 289.298 279.025 289.298 278.289 289.321C275.874 289.39 275.161 289.689 275.161 290.356C275.161 291 275.874 291.299 278.289 291.368C279.025 291.391 281.049 291.391 281.785 291.368C284.2 291.299 284.913 291 284.913 290.356ZM284.637 284.399H275.437V282.835H284.637V284.399ZM307.765 283.617H305.833V272.186H307.765V276.924H310.571V278.626H307.765V283.617ZM309.766 291.437L308.662 292.725C306.845 291.736 305.189 290.126 304.614 288.608C303.901 290.264 302.337 291.828 300.819 292.725C299.301 291.828 297.737 290.264 297.024 288.608C296.449 290.126 294.793 291.736 292.976 292.725L291.872 291.437C294.103 290.356 296.081 288.056 296.081 285.894V284.629H297.967V285.894C297.967 287.642 299.531 289.896 300.819 290.747C302.107 289.896 303.671 287.642 303.671 285.894V284.629H305.557V285.894C305.557 288.056 307.535 290.356 309.766 291.437ZM302.521 277.637C302.521 280.535 300.244 282.743 296.955 282.743C293.666 282.743 291.389 280.535 291.389 277.637C291.389 274.739 293.666 272.531 296.955 272.531C300.244 272.531 302.521 274.739 302.521 277.637ZM300.589 277.637C300.589 275.659 299.232 274.187 296.955 274.187C294.678 274.187 293.321 275.659 293.321 277.637C293.321 279.615 294.678 281.087 296.955 281.087C299.232 281.087 300.589 279.615 300.589 277.637ZM325.28 280.788V282.421C322.957 282.881 319.691 283.019 316.77 283.019H312.952V273.037H322.888V274.693H314.884V281.34H316.77C319.622 281.34 322.819 281.202 325.28 280.788ZM329.006 287.021H327.074V278.465H321.163V276.832H327.074V272.186H329.006V287.021ZM329.466 292.334H315.367V285.296H317.322V290.678H329.466V292.334ZM356.114 290.287H336.794V288.631H349.881C350.824 284.974 351.537 279.109 351.675 275.337H338.979V273.681H353.653C353.515 278.511 352.802 284.675 351.836 288.631H356.114V290.287ZM379.403 292.679H377.471V272.186H379.403V292.679ZM375.424 287.32L374.32 288.746C371.882 287.412 369.49 284.974 368.478 282.651C367.558 285.089 365.212 287.642 362.498 289.298L361.21 287.964C364.568 286.078 367.42 282.49 367.42 278.143V273.497H369.444V278.189C369.444 282.536 372.48 285.756 375.424 287.32ZM400.599 292.449H386.454V287.067H398.207V284.997H386.454V283.387H400.139V288.631H388.386V290.816H400.599V292.449ZM395.884 280.443L394.895 281.938C392.664 281.225 390.364 279.569 389.306 277.729C388.432 279.661 386.086 281.501 383.556 282.582L382.36 281.156C385.626 279.891 388.248 277.269 388.248 274.785V274.647H383.648V273.037H394.987V274.647H390.272V274.762C390.272 277.223 392.986 279.569 395.884 280.443ZM400.185 282.375H398.253V277.89H394.389V276.28H398.253V272.186H400.185V282.375ZM422.531 282.467H403.211V280.88H422.531V282.467ZM420.438 292.449H405.764V287.504H418.046V285.825H405.764V284.238H419.978V289.045H407.696V290.839H420.438V292.449ZM420.484 275.751C420.484 279.27 415.493 279.431 412.871 279.431C410.249 279.431 405.258 279.27 405.258 275.751C405.258 272.232 410.249 272.071 412.871 272.071C415.493 272.071 420.484 272.232 420.484 275.751ZM418.552 275.751C418.552 274.578 417.31 273.75 414.297 273.658C413.446 273.635 412.296 273.635 411.445 273.658C408.432 273.75 407.19 274.578 407.19 275.751C407.19 276.924 408.432 277.752 411.445 277.844C412.296 277.867 413.446 277.867 414.297 277.844C417.31 277.752 418.552 276.924 418.552 275.751ZM447.844 286.009H439.15V292.679H437.218V286.009H428.524V284.353H447.844V286.009ZM442.071 273.842H434.297V272.209H442.071V273.842ZM447.039 281.179L446.05 282.697C443.037 282.352 439.725 281.064 438.184 279.155C436.643 281.064 433.331 282.352 430.318 282.697L429.329 281.179C433.009 280.765 436.689 279.224 437.149 277.108H430.525V275.498H445.843V277.108H439.219C439.679 279.224 443.359 280.765 447.039 281.179ZM466.602 284.077H464.67V278.419H460.737C460.392 280.903 458.345 282.835 455.286 282.835C451.928 282.835 449.766 280.512 449.766 277.683C449.766 274.854 452.02 272.531 455.286 272.531C458.184 272.531 460.3 274.371 460.714 276.763H464.67V272.186H466.602V284.077ZM458.874 277.683C458.874 275.751 457.54 274.187 455.286 274.187C453.032 274.187 451.698 275.751 451.698 277.683C451.698 279.569 453.032 281.179 455.286 281.179C457.54 281.179 458.874 279.569 458.874 277.683ZM466.556 292.794H464.624V286.745H452.411V285.089H466.556V292.794ZM481.22 284.859C481.22 287.619 479.173 289.965 476.068 289.965C472.963 289.965 470.916 287.619 470.916 284.859C470.916 282.099 472.963 279.753 476.068 279.753C479.173 279.753 481.22 282.099 481.22 284.859ZM486.234 292.679H484.302V272.186H486.234V281.317H489.27V283.065H486.234V292.679ZM482.278 278.327H469.858V276.671H482.278V278.327ZM479.196 274.785H472.94V273.129H479.196V274.785ZM476.068 288.355C478.161 288.355 479.288 286.814 479.288 284.859C479.288 282.904 478.161 281.363 476.068 281.363C473.975 281.363 472.848 282.904 472.848 284.859C472.848 286.814 473.975 288.355 476.068 288.355ZM507.476 292.679H505.544V285.02H501.519V288.539H491.56V273.957H501.519V277.062H505.544V272.186H507.476V292.679ZM499.587 286.883V275.613H493.492V286.883H499.587ZM505.544 283.364V278.718H501.519V283.364H505.544ZM532.283 292.449H518.828V284.399H532.283V292.449ZM528.488 281.156L527.476 282.628C525.268 281.823 522.968 280.052 521.91 278.189C521.082 280.075 518.69 282.099 516.183 283.272L514.964 281.869C518.23 280.489 520.852 277.683 520.852 274.831V274.67H516.252V273.037H527.591V274.67H522.876V274.808C522.876 277.729 525.59 280.029 528.488 281.156ZM530.351 290.816V286.032H520.76V290.816H530.351ZM532.329 283.387H530.397V272.186H532.329V276.579H535.135V278.281H532.329V283.387ZM553.341 292.679H551.409V272.186H553.341V292.679ZM549.362 287.32L548.258 288.746C545.82 287.412 543.428 284.974 542.416 282.651C541.496 285.089 539.15 287.642 536.436 289.298L535.148 287.964C538.506 286.078 541.358 282.49 541.358 278.143V273.497H543.382V278.189C543.382 282.536 546.418 285.756 549.362 287.32ZM578.631 276.188C578.631 278.557 576.515 280.167 572.444 280.282C571.593 280.305 570.443 280.305 569.592 280.282C565.521 280.167 563.405 278.557 563.405 276.188C563.405 273.819 565.521 272.209 569.592 272.094C570.443 272.071 571.593 272.071 572.444 272.094C576.515 272.209 578.631 273.819 578.631 276.188ZM576.699 276.188C576.699 273.681 572.881 273.681 571.018 273.681C569.155 273.681 565.337 273.681 565.337 276.188C565.337 278.695 569.155 278.695 571.018 278.695C572.881 278.695 576.699 278.695 576.699 276.188ZM580.678 283.157H572.007V285.273H570.029V283.157H561.358V281.524H580.678V283.157ZM579.712 291.115L578.769 292.656C575.733 292.15 572.444 290.724 571.018 288.723C569.592 290.724 566.303 292.15 563.267 292.656L562.324 291.115C566.073 290.586 569.983 288.562 569.983 286.331V285.963H572.053V286.331C572.053 288.562 575.963 290.586 579.712 291.115ZM599.206 292.679H597.274V281.984H593.249C593.249 285.388 592.145 289.459 588.005 289.459C584.693 289.459 582.945 286.653 582.784 282.927C582.738 281.892 582.738 280.834 582.784 279.799C582.945 276.073 584.693 273.267 588.005 273.267C591.846 273.267 593.249 276.993 593.249 280.282H597.274V272.186H599.206V292.679ZM588.005 287.803C590.098 287.803 591.202 285.779 591.34 282.927C591.386 281.892 591.386 280.834 591.34 279.799C591.202 276.947 590.098 274.923 588.005 274.923C585.912 274.923 584.808 276.947 584.67 279.799C584.624 280.834 584.624 281.892 584.67 282.927C584.808 285.779 585.912 287.803 588.005 287.803ZM621.782 290.632H602.462V288.976H611.133V284.606H605.061V273.359H606.993V277.2H617.251V273.359H619.183V284.606H613.111V288.976H621.782V290.632ZM617.251 282.95V278.833H606.993V282.95H617.251ZM639.62 292.679H637.688V272.186H639.62V280.029H642.656V281.777H639.62V292.679ZM628.81 289.459C625.498 289.459 623.819 286.653 623.658 282.927C623.612 281.892 623.612 280.834 623.658 279.799C623.819 276.073 625.498 273.267 628.81 273.267C632.122 273.267 633.801 276.073 633.962 279.799C634.008 280.834 634.008 281.892 633.962 282.927C633.801 286.653 632.122 289.459 628.81 289.459ZM628.81 287.803C630.903 287.803 631.938 285.779 632.076 282.927C632.122 281.892 632.122 280.834 632.076 279.799C631.938 276.947 630.903 274.923 628.81 274.923C626.717 274.923 625.682 276.947 625.544 279.799C625.498 280.834 625.498 281.892 625.544 282.927C625.682 285.779 626.717 287.803 628.81 287.803ZM662.885 290.632H643.565V288.976H648.05V284.951H649.936V288.976H656.514V284.951H658.4V288.976H662.885V290.632ZM660.769 278.534C660.769 281.662 658.17 283.916 654.444 284.169C653.662 284.215 652.788 284.215 652.006 284.169C648.211 283.916 645.681 281.662 645.681 278.534C645.681 275.406 648.211 273.152 652.006 272.899C652.788 272.853 653.662 272.853 654.444 272.899C658.17 273.152 660.769 275.406 660.769 278.534ZM658.883 278.534C658.883 276.51 657.227 274.739 654.444 274.555C653.662 274.509 652.788 274.509 652.006 274.555C649.223 274.739 647.567 276.51 647.567 278.534C647.567 280.558 649.223 282.329 652.006 282.513C652.788 282.559 653.662 282.559 654.444 282.513C657.227 282.329 658.883 280.558 658.883 278.534ZM675.641 273.474L679.827 280.673H677.688L674.537 275.038L671.34 280.673H669.178L673.387 273.474H675.641ZM695.121 284.652H686.45V282.904H695.121V284.652ZM708.164 273.474L712.35 280.673H710.211L707.06 275.038L703.863 280.673H701.701L705.91 273.474H708.164ZM724.356 291.092H724.333C721.297 291.092 719.181 289.413 719.112 286.86H720.906C721.067 288.286 722.401 289.551 724.471 289.551H724.494C726.242 289.551 727.346 288.7 727.346 287.619C727.346 286.63 726.771 286.009 725.161 285.595L723.137 285.066C721.205 284.56 719.503 283.663 719.503 281.616C719.503 279.431 721.366 277.936 724.149 277.936H724.172C727.001 277.936 729.025 279.615 729.094 282.168H727.3C727.139 280.742 725.874 279.477 724.034 279.477H724.011C722.424 279.477 721.366 280.328 721.366 281.409C721.366 282.375 722.102 282.996 723.643 283.387L725.667 283.916C727.737 284.468 729.232 285.388 729.232 287.481C729.232 289.689 727.231 291.092 724.356 291.092ZM747.085 277.936H747.108C749.73 277.936 751.846 279.707 751.846 283.134V290.77H749.96V283.364C749.96 280.788 748.488 279.546 746.625 279.546H746.602C744.739 279.546 742.922 280.834 742.922 283.847V290.77H741.036V283.364C741.036 280.788 739.587 279.546 737.701 279.546H737.678C735.815 279.546 734.021 280.834 734.021 283.847V290.77H732.135V278.258H734.021V280.259C734.895 278.672 736.482 277.936 738.184 277.936C740.208 277.936 741.887 278.971 742.6 280.995C743.359 278.879 745.153 277.936 747.085 277.936ZM756.279 276.234C755.543 276.234 754.876 275.613 754.876 274.854C754.876 274.026 755.543 273.428 756.279 273.428C757.038 273.428 757.682 274.026 757.682 274.854C757.682 275.613 757.038 276.234 756.279 276.234ZM757.222 290.77H755.336V278.258H757.222V290.77ZM762.726 290.77H760.84V273.405H762.726V290.77ZM771.631 277.936H771.654C774.575 277.936 777.243 279.868 777.243 283.916V284.997H767.675V285.319C767.675 288.056 769.515 289.551 771.7 289.551H771.723C773.793 289.551 775.242 288.309 775.38 286.584H777.174C776.99 288.907 775.035 291.092 771.723 291.092H771.7C768.48 291.092 765.789 289.022 765.789 285.112V283.916C765.789 280.006 768.572 277.936 771.631 277.936ZM771.608 279.477H771.562C769.584 279.477 767.698 280.926 767.675 283.64H775.334V283.594C775.334 280.834 773.609 279.477 771.608 279.477ZM786.295 290.954C785.513 290.954 784.892 290.333 784.892 289.551C784.892 288.769 785.513 288.148 786.295 288.148C787.077 288.148 787.698 288.769 787.698 289.551C787.698 290.333 787.077 290.954 786.295 290.954ZM797.234 290.954C796.452 290.954 795.831 290.333 795.831 289.551C795.831 288.769 796.452 288.148 797.234 288.148C798.016 288.148 798.637 288.769 798.637 289.551C798.637 290.333 798.016 290.954 797.234 290.954ZM808.172 290.954C807.39 290.954 806.769 290.333 806.769 289.551C806.769 288.769 807.39 288.148 808.172 288.148C808.954 288.148 809.575 288.769 809.575 289.551C809.575 290.333 808.954 290.954 808.172 290.954ZM503.489 351.387H501.557V340.186H503.489V344.579H506.295V346.281H503.489V351.387ZM503.443 360.449H489.988V352.399H503.443V360.449ZM501.511 358.816V354.032H491.92V358.816H501.511ZM487.711 351.64L486.63 350.191C491.828 348.765 495.14 346.005 495.784 342.693H488.033V341.037H497.992C497.762 346.879 492.702 350.191 487.711 351.64ZM520.2 355.32L519.096 356.746C516.658 355.412 514.312 352.836 513.3 350.513C512.38 352.951 510.08 355.642 507.366 357.298L506.078 355.964C509.436 354.078 512.242 350.352 512.242 346.005V341.497H514.266V346.051C514.266 350.398 517.256 353.756 520.2 355.32ZM523.811 360.679H521.879V340.186H523.811V348.029H526.847V349.777H523.811V360.679ZM542.615 358.839V356.539H533.024V358.839H542.615ZM544.547 360.426H531.092V352.813H533.024V354.998H542.615V352.813H544.547V360.426ZM544.593 351.801H542.661V340.186H544.593V345.315H547.399V346.971H544.593V351.801ZM537.578 341.727H531.069V340.163H537.578V341.727ZM540.499 344.579H528.171V342.969H540.499V344.579ZM539.556 348.673C539.556 350.513 537.44 351.847 534.335 351.847C531.23 351.847 529.114 350.513 529.114 348.673C529.114 346.833 531.23 345.499 534.335 345.499C537.44 345.499 539.556 346.833 539.556 348.673ZM537.624 348.673C537.624 347.661 536.405 347.017 534.335 347.017C532.265 347.017 531.046 347.661 531.046 348.673C531.046 349.685 532.265 350.329 534.335 350.329C536.405 350.329 537.624 349.685 537.624 348.673ZM565.605 360.679H563.673V340.186H565.605V360.679ZM562.408 354.285V355.918C559.924 356.355 556.405 356.424 553.553 356.424H549.873V341.612H551.805V354.745H553.553C556.405 354.745 559.786 354.676 562.408 354.285ZM585.466 360.679H583.534V340.186H585.466V347.799H588.502V349.547H585.466V360.679ZM582.384 354.17V355.803C579.9 356.355 576.381 356.539 573.529 356.539H570.102V341.957H580.038V343.613H572.034V354.86H573.529C576.381 354.86 579.762 354.676 582.384 354.17ZM591.896 358.954C591.114 358.954 590.493 358.333 590.493 357.551C590.493 356.769 591.114 356.148 591.896 356.148C592.678 356.148 593.299 356.769 593.299 357.551C593.299 358.333 592.678 358.954 591.896 358.954Z" fill="#2D282D"/>
</svg>
