<svg xmlns="http://www.w3.org/2000/svg" version="1.1" xmlns:xlink="http://www.w3.org/1999/xlink" width="800" height="200" viewBox="0 0 800 200"><line x1="20" y1="20" x2="780" y2="20" stroke-width="1" stroke="#cccccc"></line><line x1="20" y1="30" x2="780" y2="30" stroke-width="1" stroke="#cccccc"></line><line x1="20" y1="40" x2="780" y2="40" stroke-width="1" stroke="#cccccc"></line><line x1="20" y1="50" x2="780" y2="50" stroke-width="1" stroke="#cccccc"></line><line x1="20" y1="60" x2="780" y2="60" stroke-width="2" stroke="#cccccc"></line><line x1="20" y1="70" x2="780" y2="70" stroke-width="1" stroke="#cccccc"></line><line x1="20" y1="80" x2="780" y2="80" stroke-width="2" stroke="#cccccc"></line><line x1="20" y1="90" x2="780" y2="90" stroke-width="1" stroke="#cccccc"></line><line x1="20" y1="100" x2="780" y2="100" stroke-width="2" stroke="#cccccc"></line><line x1="20" y1="110" x2="780" y2="110" stroke-width="1" stroke="#cccccc"></line><line x1="20" y1="120" x2="780" y2="120" stroke-width="2" stroke="#cccccc"></line><line x1="20" y1="130" x2="780" y2="130" stroke-width="1" stroke="#cccccc"></line><line x1="20" y1="140" x2="780" y2="140" stroke-width="2" stroke="#cccccc"></line><line x1="20" y1="150" x2="780" y2="150" stroke-width="1" stroke="#cccccc"></line><line x1="20" y1="160" x2="780" y2="160" stroke-width="1" stroke="#cccccc"></line><circle r="3" cx="21.233766233766232" cy="80" fill="black"></circle><circle r="3" cx="39.740259740259745" cy="110" fill="black"></circle><circle r="3" cx="58.24675324675325" cy="60" fill="black"></circle><circle r="3" cx="76.75324675324674" cy="40" fill="black"></circle><circle r="3" cx="95.25974025974027" cy="110" fill="black"></circle><circle r="3" cx="113.76623376623377" cy="160" fill="black"></circle><circle r="3" cx="132.27272727272728" cy="110" fill="black"></circle><circle r="3" cx="150.7792207792208" cy="80" fill="black"></circle><circle r="3" cx="169.28571428571428" cy="40" fill="black"></circle><circle r="3" cx="187.7922077922078" cy="90" fill="black"></circle><circle r="3" cx="206.2987012987013" cy="160" fill="black"></circle><circle r="3" cx="224.80519480519482" cy="20" fill="black"></circle><circle r="3" cx="243.3116883116883" cy="40" fill="black"></circle><circle r="3" cx="261.8181818181818" cy="80" fill="black"></circle><circle r="3" cx="280.3246753246753" cy="100" fill="black"></circle><circle r="3" cx="298.83116883116884" cy="20" fill="black"></circle><circle r="3" cx="317.3376623376623" cy="110" fill="black"></circle><circle r="3" cx="335.84415584415586" cy="40" fill="black"></circle><circle r="3" cx="354.35064935064935" cy="100" fill="black"></circle><circle r="3" cx="372.8571428571429" cy="80" fill="black"></circle><circle r="3" cx="391.3636363636364" cy="40" fill="black"></circle><circle r="3" cx="409.87012987012986" cy="130" fill="black"></circle><circle r="3" cx="428.3766233766234" cy="40" fill="black"></circle><circle r="3" cx="446.8831168831169" cy="90" fill="black"></circle><circle r="3" cx="465.38961038961037" cy="20" fill="black"></circle><circle r="3" cx="483.8961038961039" cy="160" fill="black"></circle><circle r="3" cx="502.4025974025974" cy="20" fill="black"></circle><circle r="3" cx="520.9090909090909" cy="110" fill="black"></circle><circle r="3" cx="539.4155844155844" cy="60" fill="black"></circle><circle r="3" cx="557.9220779220778" cy="40" fill="black"></circle><circle r="3" cx="576.4285714285714" cy="130" fill="black"></circle><circle r="3" cx="594.9350649350649" cy="110" fill="black"></circle><circle r="3" cx="613.4415584415585" cy="70" fill="black"></circle><circle r="3" cx="631.948051948052" cy="160" fill="black"></circle><circle r="3" cx="650.4545454545455" cy="70" fill="black"></circle><circle r="3" cx="668.961038961039" cy="160" fill="black"></circle><circle r="3" cx="687.4675324675325" cy="40" fill="black"></circle><circle r="3" cx="705.974025974026" cy="40" fill="black"></circle><circle r="3" cx="724.4805194805195" cy="70" fill="black"></circle><circle r="3" cx="742.987012987013" cy="90" fill="black"></circle><circle r="3" cx="761.4935064935065" cy="40" fill="black"></circle><circle r="3" cx="780" cy="80" fill="black"></circle></svg>