<svg xmlns="http://www.w3.org/2000/svg" version="1.1" xmlns:xlink="http://www.w3.org/1999/xlink" width="800" height="200" viewBox="0 0 800 200"><line x1="20" y1="20" x2="780" y2="20" stroke-width="1" stroke="#cccccc"></line><line x1="20" y1="30" x2="780" y2="30" stroke-width="1" stroke="#cccccc"></line><line x1="20" y1="40" x2="780" y2="40" stroke-width="1" stroke="#cccccc"></line><line x1="20" y1="50" x2="780" y2="50" stroke-width="1" stroke="#cccccc"></line><line x1="20" y1="60" x2="780" y2="60" stroke-width="1" stroke="#cccccc"></line><line x1="20" y1="70" x2="780" y2="70" stroke-width="1" stroke="#cccccc"></line><line x1="20" y1="80" x2="780" y2="80" stroke-width="1" stroke="#cccccc"></line><line x1="20" y1="90" x2="780" y2="90" stroke-width="1" stroke="#cccccc"></line><line x1="20" y1="100" x2="780" y2="100" stroke-width="1" stroke="#cccccc"></line><line x1="20" y1="110" x2="780" y2="110" stroke-width="1" stroke="#cccccc"></line><line x1="20" y1="120" x2="780" y2="120" stroke-width="1" stroke="#cccccc"></line><line x1="20" y1="130" x2="780" y2="130" stroke-width="1" stroke="#cccccc"></line><line x1="20" y1="140" x2="780" y2="140" stroke-width="1" stroke="#cccccc"></line><line x1="20" y1="150" x2="780" y2="150" stroke-width="1" stroke="#cccccc"></line><line x1="20" y1="160" x2="780" y2="160" stroke-width="1" stroke="#cccccc"></line><circle r="3" cx="21.08695652173913" cy="40" fill="black"></circle><circle r="3" cx="40" cy="30" fill="black"></circle><circle r="3" cx="65.43478260869566" cy="20" fill="black"></circle><circle r="3" cx="80" cy="30" fill="black"></circle><circle r="3" cx="100" cy="40" fill="black"></circle><circle r="3" cx="122.17391304347827" cy="20" fill="black"></circle><circle r="3" cx="158.91304347826087" cy="30" fill="black"></circle><circle r="3" cx="183.26086956521738" cy="40" fill="black"></circle><circle r="3" cx="204.34782608695653" cy="30" fill="black"></circle><circle r="3" cx="225.65217391304347" cy="20" fill="black"></circle><circle r="3" cx="244.34782608695653" cy="30" fill="black"></circle><circle r="3" cx="264.3478260869565" cy="40" fill="black"></circle><circle r="3" cx="265.6521739130435" cy="30" fill="black"></circle><circle r="3" cx="285.4347826086956" cy="20" fill="black"></circle><circle r="3" cx="325.4347826086956" cy="90" fill="black"></circle><circle r="3" cx="346.52173913043475" cy="30" fill="black"></circle><circle r="3" cx="367.60869565217394" cy="40" fill="black"></circle><circle r="3" cx="368.9130434782609" cy="20" fill="black"></circle><circle r="3" cx="427.82608695652175" cy="60" fill="black"></circle><circle r="3" cx="428.9130434782608" cy="20" fill="black"></circle><circle r="3" cx="428.9130434782608" cy="90" fill="black"></circle><circle r="3" cx="448.9130434782609" cy="80" fill="black"></circle><circle r="3" cx="448.9130434782609" cy="110" fill="black"></circle><circle r="3" cx="450" cy="60" fill="black"></circle><circle r="3" cx="471.0869565217391" cy="60" fill="black"></circle><circle r="3" cx="490" cy="100" fill="black"></circle><circle r="3" cx="491.0869565217391" cy="30" fill="black"></circle><circle r="3" cx="494.3478260869565" cy="110" fill="black"></circle><circle r="3" cx="511.0869565217391" cy="60" fill="black"></circle><circle r="3" cx="511.0869565217391" cy="110" fill="black"></circle><circle r="3" cx="512.1739130434783" cy="80" fill="black"></circle><circle r="3" cx="531.0869565217392" cy="60" fill="black"></circle><circle r="3" cx="531.0869565217392" cy="80" fill="black"></circle><circle r="3" cx="532.1739130434783" cy="40" fill="black"></circle><circle r="3" cx="552.1739130434783" cy="60" fill="black"></circle><circle r="3" cx="576.5217391304348" cy="40" fill="black"></circle><circle r="3" cx="592.3913043478261" cy="40" fill="black"></circle><circle r="3" cx="592.3913043478261" cy="70" fill="black"></circle><circle r="3" cx="592.3913043478261" cy="80" fill="black"></circle><circle r="3" cx="612.1739130434783" cy="50" fill="black"></circle><circle r="3" cx="612.1739130434783" cy="70" fill="black"></circle><circle r="3" cx="612.1739130434783" cy="100" fill="black"></circle><circle r="3" cx="613.4782608695651" cy="30" fill="black"></circle><circle r="3" cx="675.6521739130435" cy="30" fill="black"></circle><circle r="3" cx="675.6521739130435" cy="40" fill="black"></circle><circle r="3" cx="695.6521739130435" cy="40" fill="black"></circle><circle r="3" cx="695.6521739130435" cy="90" fill="black"></circle><circle r="3" cx="696.7391304347826" cy="60" fill="black"></circle><circle r="3" cx="716.7391304347826" cy="40" fill="black"></circle><circle r="3" cx="756.7391304347826" cy="40" fill="black"></circle><circle r="3" cx="756.7391304347826" cy="60" fill="black"></circle><circle r="3" cx="757.8260869565217" cy="130" fill="black"></circle></svg>