<svg width="1577" height="142" viewBox="0 0 1577 142" fill="none" xmlns="http://www.w3.org/2000/svg">
<g opacity="0.4">
<path d="M9.55 111.267L6.99 104.128L0 101.514L6.99 98.8992L9.55 91.7605L12.11 98.8992L19.1 101.514L12.11 104.128L9.55 111.267ZM9.55 141.854L6.99 134.715L0 132.1L6.99 129.486L9.55 122.347L12.11 129.486L19.1 132.1L12.11 134.715L9.55 141.854ZM39.5 50.093L36.94 42.9543L29.95 40.3399L36.94 37.7255L39.5 30.5868L42.06 37.7255L49.05 40.3399L42.06 42.9543L39.5 50.093ZM39.5 111.267L36.94 104.128L29.95 101.514L36.94 98.8992L39.5 91.7605L42.06 98.8992L49.05 101.514L42.06 104.128L39.5 111.267ZM69.45 19.5061L66.89 12.3675L59.9 9.75307L66.89 7.13863L69.45 0L72.01 7.13863L79 9.75307L72.01 12.3675L69.45 19.5061ZM69.45 50.093L66.89 42.9543L59.9 40.3399L66.89 37.7255L69.45 30.5868L72.01 37.7255L79 40.3399L72.01 42.9543L69.45 50.093ZM69.45 111.267L66.89 104.128L59.9 101.514L66.89 98.8992L69.45 91.7605L72.01 98.8992L79 101.514L72.01 104.128L69.45 111.267ZM99.4 50.093L96.84 42.9543L89.85 40.3399L96.84 37.7255L99.4 30.5868L101.96 37.7255L108.95 40.3399L101.96 42.9543L99.4 50.093ZM99.4 111.267L96.84 104.128L89.85 101.514L96.84 98.8992L99.4 91.7605L101.96 98.8992L108.95 101.514L101.96 104.128L99.4 111.267ZM129.35 111.267L126.79 104.128L119.8 101.514L126.79 98.8992L129.35 91.7605L131.91 98.8992L138.9 101.514L131.91 104.128L129.35 111.267ZM129.35 141.854L126.79 134.715L119.8 132.1L126.79 129.486L129.35 122.347L131.91 129.486L138.9 132.1L131.91 134.715L129.35 141.854Z" fill="#FF92AA"/>
<path d="M219.2 19.5061L216.64 12.3675L209.65 9.75307L216.64 7.13863L219.2 0L221.76 7.13863L228.75 9.75307L221.76 12.3675L219.2 19.5061ZM219.2 50.093L216.64 42.9543L209.65 40.3399L216.64 37.7255L219.2 30.5868L221.76 37.7255L228.75 40.3399L221.76 42.9543L219.2 50.093ZM219.2 80.6798L216.64 73.5412L209.65 70.9268L216.64 68.3123L219.2 61.1737L221.76 68.3123L228.75 70.9268L221.76 73.5412L219.2 80.6798ZM219.2 111.267L216.64 104.128L209.65 101.514L216.64 98.8992L219.2 91.7605L221.76 98.8992L228.75 101.514L221.76 104.128L219.2 111.267ZM219.2 141.854L216.64 134.715L209.65 132.1L216.64 129.486L219.2 122.347L221.76 129.486L228.75 132.1L221.76 134.715L219.2 141.854ZM279.1 19.5061L276.54 12.3675L269.55 9.75307L276.54 7.13863L279.1 0L281.66 7.13863L288.65 9.75307L281.66 12.3675L279.1 19.5061ZM309.04 19.5061L306.48 12.3675L299.49 9.75307L306.48 7.13863L309.04 0L311.6 7.13863L318.59 9.75307L311.6 12.3675L309.04 19.5061Z" fill="#FF92AA"/>
<path d="M368.95 50.093L366.39 42.9543L359.4 40.3399L366.39 37.7255L368.95 30.5868L371.51 37.7255L378.5 40.3399L371.51 42.9543L368.95 50.093ZM368.95 80.6798L366.39 73.5412L359.4 70.9268L366.39 68.3123L368.95 61.1737L371.51 68.3123L378.5 70.9268L371.51 73.5412L368.95 80.6798ZM368.95 111.267L366.39 104.128L359.4 101.514L366.39 98.8992L368.95 91.7605L371.51 98.8992L378.5 101.514L371.51 104.128L368.95 111.267ZM398.89 19.5061L396.33 12.3675L389.34 9.75307L396.33 7.13863L398.89 0L401.45 7.13863L408.44 9.75307L401.45 12.3675L398.89 19.5061ZM398.89 141.854L396.33 134.715L389.34 132.1L396.33 129.486L398.89 122.347L401.45 129.486L408.44 132.1L401.45 134.715L398.89 141.854ZM428.84 19.5061L426.28 12.3675L419.29 9.75307L426.28 7.13863L428.84 0L431.4 7.13863L438.39 9.75307L431.4 12.3675L428.84 19.5061ZM428.84 141.854L426.28 134.715L419.29 132.1L426.28 129.486L428.84 122.347L431.4 129.486L438.39 132.1L431.4 134.715L428.84 141.854ZM458.79 19.5061L456.23 12.3675L449.24 9.75307L456.23 7.13863L458.79 0L461.35 7.13863L468.34 9.75307L461.35 12.3675L458.79 19.5061ZM458.79 141.854L456.23 134.715L449.24 132.1L456.23 129.486L458.79 122.347L461.35 129.486L468.34 132.1L461.35 134.715L458.79 141.854Z" fill="#FF92AA"/>
<path d="M548.64 19.5061L546.08 12.3675L539.09 9.75307L546.08 7.13863L548.64 0L551.2 7.13863L558.19 9.75307L551.2 12.3675L548.64 19.5061ZM548.64 50.093L546.08 42.9543L539.09 40.3399L546.08 37.7255L548.64 30.5868L551.2 37.7255L558.19 40.3399L551.2 42.9543L548.64 50.093ZM548.64 80.6798L546.08 73.5412L539.09 70.9268L546.08 68.3123L548.64 61.1737L551.2 68.3123L558.19 70.9268L551.2 73.5412L548.64 80.6798ZM548.64 111.267L546.08 104.128L539.09 101.514L546.08 98.8992L548.64 91.7605L551.2 98.8992L558.19 101.514L551.2 104.128L548.64 111.267ZM548.64 141.854L546.08 134.715L539.09 132.1L546.08 129.486L548.64 122.347L551.2 129.486L558.19 132.1L551.2 134.715L548.64 141.854ZM578.59 80.6798L576.03 73.5412L569.04 70.9268L576.03 68.3123L578.59 61.1737L581.15 68.3123L588.14 70.9268L581.15 73.5412L578.59 80.6798ZM608.54 80.6798L605.98 73.5412L598.99 70.9268L605.98 68.3123L608.54 61.1737L611.1 68.3123L618.09 70.9268L611.1 73.5412L608.54 80.6798ZM638.49 80.6798L635.93 73.5412L628.94 70.9268L635.93 68.3123L638.49 61.1737L641.05 68.3123L648.04 70.9268L641.05 73.5412L638.49 80.6798ZM668.44 19.5061L665.88 12.3675L658.89 9.75307L665.88 7.13863L668.44 0L671 7.13863L677.99 9.75307L671 12.3675L668.44 19.5061ZM668.44 80.6798L665.88 73.5412L658.89 70.9268L665.88 68.3123L668.44 61.1737L671 68.3123L677.99 70.9268L671 73.5412L668.44 80.6798ZM668.44 111.267L665.88 104.128L658.89 101.514L665.88 98.8992L668.44 91.7605L671 98.8992L677.99 101.514L671 104.128L668.44 111.267ZM668.44 141.854L665.88 134.715L658.89 132.1L665.88 129.486L668.44 122.347L671 129.486L677.99 132.1L671 134.715L668.44 141.854Z" fill="#FF92AA"/>
<path d="M758.29 19.5061L755.73 12.3675L748.74 9.75307L755.73 7.13863L758.29 0L760.85 7.13863L767.84 9.75307L760.85 12.3675L758.29 19.5061ZM758.29 141.854L755.73 134.715L748.74 132.1L755.73 129.486L758.29 122.347L760.85 129.486L767.84 132.1L760.85 134.715L758.29 141.854ZM788.24 19.5061L785.68 12.3675L778.69 9.75307L785.68 7.13863L788.24 0L790.8 7.13863L797.79 9.75307L790.8 12.3675L788.24 19.5061ZM788.24 80.6798L785.68 73.5412L778.69 70.9268L785.68 68.3123L788.24 61.1737L790.8 68.3123L797.79 70.9268L790.8 73.5412L788.24 80.6798ZM788.24 111.267L785.68 104.128L778.69 101.514L785.68 98.8992L788.24 91.7605L790.8 98.8992L797.79 101.514L790.8 104.128L788.24 111.267ZM788.24 141.854L785.68 134.715L778.69 132.1L785.68 129.486L788.24 122.347L790.8 129.486L797.79 132.1L790.8 134.715L788.24 141.854ZM818.19 19.5061L815.63 12.3675L808.64 9.75307L815.63 7.13863L818.19 0L820.75 7.13863L827.74 9.75307L820.75 12.3675L818.19 19.5061ZM818.19 141.854L815.63 134.715L808.64 132.1L815.63 129.486L818.19 122.347L820.75 129.486L827.74 132.1L820.75 134.715L818.19 141.854Z" fill="#FF92AA"/>
<path d="M908.04 19.5061L905.48 12.3675L898.49 9.75307L905.48 7.13863L908.04 0L910.6 7.13863L917.59 9.75307L910.6 12.3675L908.04 19.5061ZM908.04 50.093L905.48 42.9543L898.49 40.3399L905.48 37.7255L908.04 30.5868L910.6 37.7255L917.59 40.3399L910.6 42.9543L908.04 50.093ZM908.04 80.6798L905.48 73.5412L898.49 70.9268L905.48 68.3123L908.04 61.1737L910.6 68.3123L917.59 70.9268L910.6 73.5412L908.04 80.6798ZM908.04 111.267L905.48 104.128L898.49 101.514L905.48 98.8992L908.04 91.7605L910.6 98.8992L917.59 101.514L910.6 104.128L908.04 111.267ZM908.04 141.854L905.48 134.715L898.49 132.1L905.48 129.486L908.04 122.347L910.6 129.486L917.59 132.1L910.6 134.715L908.04 141.854ZM937.99 111.267L935.43 104.128L928.44 101.514L935.43 98.8992L937.99 91.7605L940.55 98.8992L947.54 101.514L940.55 104.128L937.99 111.267ZM967.94 80.6798L965.38 73.5412L958.39 70.9268L965.38 68.3123L967.94 61.1737L970.5 68.3123L977.49 70.9268L970.5 73.5412L967.94 80.6798ZM997.88 50.093L995.32 42.9543L988.33 40.3399L995.32 37.7255L997.88 30.5868L1000.44 37.7255L1007.43 40.3399L1000.44 42.9543L997.88 50.093ZM1027.83 19.5061L1025.27 12.3675L1018.28 9.75307L1025.27 7.13863L1027.83 0L1030.39 7.13863L1037.38 9.75307L1030.39 12.3675L1027.83 19.5061Z" fill="#FF92AA"/>
<path d="M1087.73 19.5061L1085.17 12.3675L1078.18 9.75307L1085.17 7.13863L1087.73 0L1090.29 7.13863L1097.28 9.75307L1090.29 12.3675L1087.73 19.5061ZM1087.73 141.854L1085.17 134.715L1078.18 132.1L1085.17 129.486L1087.73 122.347L1090.29 129.486L1097.28 132.1L1090.29 134.715L1087.73 141.854ZM1117.68 19.5061L1115.12 12.3675L1108.13 9.75307L1115.12 7.13863L1117.68 0L1120.24 7.13863L1127.23 9.75307L1120.24 12.3675L1117.68 19.5061ZM1117.68 80.6798L1115.12 73.5412L1108.13 70.9268L1115.12 68.3123L1117.68 61.1737L1120.24 68.3123L1127.23 70.9268L1120.24 73.5412L1117.68 80.6798ZM1117.68 111.267L1115.12 104.128L1108.13 101.514L1115.12 98.8992L1117.68 91.7605L1120.24 98.8992L1127.23 101.514L1120.24 104.128L1117.68 111.267ZM1117.68 141.854L1115.12 134.715L1108.13 132.1L1115.12 129.486L1117.68 122.347L1120.24 129.486L1127.23 132.1L1120.24 134.715L1117.68 141.854ZM1147.63 19.5061L1145.07 12.3675L1138.08 9.75307L1145.07 7.13863L1147.63 0L1150.19 7.13863L1157.18 9.75307L1150.19 12.3675L1147.63 19.5061ZM1147.63 141.854L1145.07 134.715L1138.08 132.1L1145.07 129.486L1147.63 122.347L1150.19 129.486L1157.18 132.1L1150.19 134.715L1147.63 141.854Z" fill="#FF92AA"/>
<path d="M1237.48 19.5061L1234.92 12.3675L1227.93 9.75307L1234.92 7.13863L1237.48 0L1240.04 7.13863L1247.03 9.75307L1240.04 12.3675L1237.48 19.5061ZM1237.48 50.093L1234.92 42.9543L1227.93 40.3399L1234.92 37.7255L1237.48 30.5868L1240.04 37.7255L1247.03 40.3399L1240.04 42.9543L1237.48 50.093ZM1237.48 80.6798L1234.92 73.5412L1227.93 70.9268L1234.92 68.3123L1237.48 61.1737L1240.04 68.3123L1247.03 70.9268L1240.04 73.5412L1237.48 80.6798ZM1237.48 111.267L1234.92 104.128L1227.93 101.514L1234.92 98.8992L1237.48 91.7605L1240.04 98.8992L1247.03 101.514L1240.04 104.128L1237.48 111.267ZM1237.48 141.854L1234.92 134.715L1227.93 132.1L1234.92 129.486L1237.48 122.347L1240.04 129.486L1247.03 132.1L1240.04 134.715L1237.48 141.854ZM1267.43 19.5061L1264.87 12.3675L1257.88 9.75307L1264.87 7.13863L1267.43 0L1269.99 7.13863L1276.98 9.75307L1269.99 12.3675L1267.43 19.5061ZM1297.38 19.5061L1294.82 12.3675L1287.83 9.75307L1294.82 7.13863L1297.38 0L1299.94 7.13863L1306.93 9.75307L1299.94 12.3675L1297.38 19.5061ZM1297.38 50.093L1294.82 42.9543L1287.83 40.3399L1294.82 37.7255L1297.38 30.5868L1299.94 37.7255L1306.93 40.3399L1299.94 42.9543L1297.38 50.093ZM1297.38 80.6798L1294.82 73.5412L1287.83 70.9268L1294.82 68.3123L1297.38 61.1737L1299.94 68.3123L1306.93 70.9268L1299.94 73.5412L1297.38 80.6798ZM1297.38 111.267L1294.82 104.128L1287.83 101.514L1294.82 98.8992L1297.38 91.7605L1299.94 98.8992L1306.93 101.514L1299.94 104.128L1297.38 111.267ZM1297.38 141.854L1294.82 134.715L1287.83 132.1L1294.82 129.486L1297.38 122.347L1299.94 129.486L1306.93 132.1L1299.94 134.715L1297.38 141.854ZM1327.33 141.854L1324.77 134.715L1317.78 132.1L1324.77 129.486L1327.33 122.347L1329.89 129.486L1336.88 132.1L1329.89 134.715L1327.33 141.854ZM1357.28 19.5061L1354.72 12.3675L1347.73 9.75307L1354.72 7.13863L1357.28 0L1359.84 7.13863L1366.83 9.75307L1359.84 12.3675L1357.28 19.5061ZM1357.28 50.093L1354.72 42.9543L1347.73 40.3399L1354.72 37.7255L1357.28 30.5868L1359.84 37.7255L1366.83 40.3399L1359.84 42.9543L1357.28 50.093ZM1357.28 80.6798L1354.72 73.5412L1347.73 70.9268L1354.72 68.3123L1357.28 61.1737L1359.84 68.3123L1366.83 70.9268L1359.84 73.5412L1357.28 80.6798ZM1357.28 111.267L1354.72 104.128L1347.73 101.514L1354.72 98.8992L1357.28 91.7605L1359.84 98.8992L1366.83 101.514L1359.84 104.128L1357.28 111.267ZM1357.28 141.854L1354.72 134.715L1347.73 132.1L1354.72 129.486L1357.28 122.347L1359.84 129.486L1366.83 132.1L1359.84 134.715L1357.28 141.854Z" fill="#FF92AA"/>
<path d="M1447.13 50.093L1444.57 42.9543L1437.58 40.3399L1444.57 37.7255L1447.13 30.5868L1449.69 37.7255L1456.68 40.3399L1449.69 42.9543L1447.13 50.093ZM1447.13 80.6798L1444.57 73.5412L1437.58 70.9268L1444.57 68.3123L1447.13 61.1737L1449.69 68.3123L1456.68 70.9268L1449.69 73.5412L1447.13 80.6798ZM1447.13 111.267L1444.57 104.128L1437.58 101.514L1444.57 98.8992L1447.13 91.7605L1449.69 98.8992L1456.68 101.514L1449.69 104.128L1447.13 111.267ZM1477.08 19.5061L1474.52 12.3675L1467.53 9.75307L1474.52 7.13863L1477.08 0L1479.64 7.13863L1486.63 9.75307L1479.64 12.3675L1477.08 19.5061ZM1477.08 141.854L1474.52 134.715L1467.53 132.1L1474.52 129.486L1477.08 122.347L1479.64 129.486L1486.63 132.1L1479.64 134.715L1477.08 141.854ZM1507.03 19.5061L1504.47 12.3675L1497.48 9.75307L1504.47 7.13863L1507.03 0L1509.59 7.13863L1516.58 9.75307L1509.59 12.3675L1507.03 19.5061ZM1507.03 141.854L1504.47 134.715L1497.48 132.1L1504.47 129.486L1507.03 122.347L1509.59 129.486L1516.58 132.1L1509.59 134.715L1507.03 141.854ZM1536.98 19.5061L1534.42 12.3675L1527.43 9.75307L1534.42 7.13863L1536.98 0L1539.54 7.13863L1546.53 9.75307L1539.54 12.3675L1536.98 19.5061ZM1536.98 80.6798L1534.42 73.5412L1527.43 70.9268L1534.42 68.3123L1536.98 61.1737L1539.54 68.3123L1546.53 70.9268L1539.54 73.5412L1536.98 80.6798ZM1536.98 141.854L1534.42 134.715L1527.43 132.1L1534.42 129.486L1536.98 122.347L1539.54 129.486L1546.53 132.1L1539.54 134.715L1536.98 141.854ZM1566.93 80.6798L1564.37 73.5412L1557.38 70.9268L1564.37 68.3123L1566.93 61.1737L1569.49 68.3123L1576.48 70.9268L1569.49 73.5412L1566.93 80.6798Z" fill="#FF92AA"/>
</g>
</svg>
